<svg width="208" height="124" viewBox="0 0 208 124" fill="none" xmlns="http://www.w3.org/2000/svg">
<path d="M193.921 39.7099C192.084 39.7099 190.566 40.3376 189.365 41.5931C188.183 42.8486 187.519 44.5096 187.373 46.5763H200.197C200.106 44.4517 199.496 42.781 198.369 41.5641C197.259 40.328 195.777 39.7099 193.921 39.7099ZM200.36 56.8036H207.754C207.154 59.836 205.626 62.231 203.171 63.9887C200.733 65.727 197.678 66.5962 194.003 66.5962C189.42 66.5962 185.845 65.1476 183.281 62.2504C180.716 59.3338 179.434 55.2777 179.434 50.082C179.434 44.8863 180.725 40.7819 183.308 37.7688C185.891 34.7556 189.42 33.2491 193.894 33.2491C198.332 33.2491 201.788 34.6687 204.262 37.508C206.754 40.3473 208 44.3068 208 49.3866V51.9652H187.346V52.3998C187.401 54.7755 188.037 56.6587 189.256 58.0494C190.493 59.4207 192.148 60.1064 194.222 60.1064C195.786 60.1064 197.096 59.8263 198.15 59.2662C199.205 58.6868 199.942 57.8659 200.36 56.8036Z" fill="white"/>
<path d="M148.575 43.3314C148.575 40.299 149.721 37.8653 152.013 36.0304C154.323 34.1762 157.352 33.2491 161.099 33.2491C164.919 33.2491 167.911 34.07 170.075 35.7117C172.258 37.3535 173.458 39.7002 173.677 42.752H166.337C166.137 41.709 165.583 40.8978 164.673 40.3183C163.782 39.7196 162.609 39.4202 161.153 39.4202C159.716 39.4202 158.534 39.7389 157.606 40.3763C156.679 40.9943 156.215 41.8056 156.215 42.8099C156.215 43.5825 156.542 44.2296 157.197 44.7511C157.852 45.2533 158.88 45.6685 160.28 45.9969L165.928 47.3006C168.857 47.9767 170.994 49.01 172.34 50.4007C173.704 51.7913 174.386 53.6745 174.386 56.0503C174.386 59.2179 173.167 61.7675 170.73 63.699C168.293 65.6305 165.091 66.5962 161.126 66.5962C157.161 66.5962 154.023 65.7657 151.713 64.1046C149.403 62.4435 148.112 60.0774 147.839 57.0064H155.587C156.224 59.2855 158.125 60.4251 161.29 60.4251C162.836 60.4251 164.091 60.1161 165.055 59.498C166.019 58.8606 166.501 58.0301 166.501 57.0064C166.501 56.2145 166.201 55.5771 165.601 55.0942C165 54.592 164.036 54.1864 162.709 53.8774L157.252 52.5736C154.323 51.8976 152.141 50.8063 150.704 49.2997C149.285 47.7739 148.575 45.7844 148.575 43.3314Z" fill="white"/>
<path d="M125.63 65.9009V33.9444H133.324V39.0435H133.815C134.215 37.4211 135.124 36.0787 136.543 35.0164C137.98 33.9541 139.645 33.4229 141.536 33.4229C142.9 33.4229 143.937 33.5581 144.647 33.8285V41.5062C143.81 41.1585 142.555 40.9847 140.881 40.9847C138.68 40.9847 136.907 41.6317 135.561 42.9258C134.233 44.2199 133.569 45.9776 133.569 48.1988V65.9009H125.63Z" fill="white"/>
<path d="M117.663 33.9444V65.9009H109.969V60.7728H109.478C107.986 64.6551 105.058 66.5962 100.692 66.5962C97.4362 66.5962 94.8624 65.5532 92.9707 63.4672C91.0972 61.3619 90.1605 58.4646 90.1605 54.7755V33.9444H98.1001V52.6026C98.1001 57.045 99.9463 59.2662 103.639 59.2662C105.585 59.2662 107.086 58.6578 108.141 57.4409C109.196 56.2241 109.723 54.5341 109.723 52.3708V33.9444H117.663Z" fill="white"/>
<path d="M37.7206 66.9728C32.0092 66.9728 27.4982 65.0124 24.1878 61.0915C20.8955 57.1512 19.2494 51.7817 19.2494 44.9829C19.2494 38.184 20.8955 32.8241 24.1878 28.9032C27.4982 24.9823 32.0092 23.0218 37.7206 23.0218C42.3771 23.0218 46.306 24.4994 49.5073 27.4546C52.7268 30.3905 54.4912 34.1376 54.8004 38.6959H46.7789C46.3787 36.2815 45.3511 34.35 43.6958 32.9014C42.0588 31.4528 40.0671 30.7285 37.7206 30.7285C34.6284 30.7285 32.182 32.0033 30.3812 34.5528C28.5805 37.1024 27.6801 40.5791 27.6801 44.9829C27.6801 49.3866 28.5805 52.873 30.3812 55.4419C32.182 57.9914 34.6375 59.2662 37.7479 59.2662C40.1125 59.2662 42.1134 58.5805 43.7504 57.2092C45.3874 55.8378 46.406 54.0029 46.8062 51.7044H54.8277C54.4821 56.2241 52.7268 59.9036 49.5619 62.7429C46.4151 65.5629 42.468 66.9728 37.7206 66.9728Z" fill="white"/>
<path d="M24.3242 87.5335C24.3242 73.1967 35.2692 61.5743 48.7706 61.5743H178.57C192.071 61.5743 203.016 73.1967 203.016 87.5335V98.0408C203.016 112.378 192.071 124 178.57 124H48.7706C35.2692 124 24.3242 112.378 24.3242 98.0408V87.5335Z" fill="#357EEB"/>
<path d="M156.67 112.131C154.542 112.131 152.659 111.648 151.022 110.682C149.403 109.717 148.193 108.365 147.393 106.626H146.902V111.638H139.208V67.4847H147.148V84.7812H147.639C148.403 83.0235 149.585 81.6521 151.186 80.6671C152.786 79.6627 154.614 79.1605 156.67 79.1605C160.471 79.1605 163.454 80.6188 165.619 83.5353C167.783 86.4519 168.866 90.4887 168.866 95.6458C168.866 100.764 167.774 104.791 165.592 107.727C163.427 110.663 160.453 112.131 156.67 112.131ZM158.88 88.7504C157.661 87.07 156.006 86.2298 153.914 86.2298C151.822 86.2298 150.158 87.0796 148.921 88.7793C147.702 90.4597 147.084 92.7582 147.066 95.6747C147.084 98.572 147.702 100.87 148.921 102.57C150.158 104.251 151.822 105.091 153.914 105.091C156.024 105.091 157.679 104.251 158.88 102.57C160.098 100.89 160.708 98.5816 160.708 95.6458C160.708 92.7292 160.098 90.4308 158.88 88.7504Z" fill="white"/>
<path d="M130.968 79.682V111.638H123.274V106.51H122.783C121.291 110.393 118.363 112.334 113.998 112.334C110.742 112.334 108.168 111.291 106.276 109.205C104.403 107.099 103.466 104.202 103.466 100.513V79.682H111.406V98.3402C111.406 102.783 113.252 105.004 116.944 105.004C118.89 105.004 120.391 104.395 121.446 103.179C122.501 101.962 123.029 100.272 123.029 98.1084V79.682H130.968Z" fill="white"/>
<path d="M94.9806 111.638H86.7409V94.1682H69.0063V111.638H60.7665V69.8314H69.0063V86.6933H86.7409V69.8314H94.9806V111.638Z" fill="white"/>
<path fill-rule="evenodd" clip-rule="evenodd" d="M26.5991 22.9906L16.4388 21.9785L7.99825 21.0964L7.13834 21.0313L6.2784 20.9663L5.66911 20.8838L3.56416 20.5985C2.83234 20.4306 2.10048 20.2629 1.36865 20.0952L1.35843 20.0929L0 19.7816C3.2479 16.4867 6.49589 13.1919 9.74388 9.89706C12.996 6.59805 16.2481 3.29905 19.5001 0L30.3688 1.38693L30.681 1.42677C35.9227 2.09563 41.1644 2.76448 46.406 3.43348L36.4855 13.2289L26.5991 22.9906ZM13.8845 35.1894L29.6477 36.1523L32.084 35.2853L44.0462 25.0982C43.5382 23.5307 42.7173 20.9719 41.8985 18.4195L41.8951 18.4089C41.0879 15.8925 40.2831 13.3836 39.7823 11.8381C37.4555 14.1953 35.4538 16.1219 33.4521 18.0486C31.4511 19.9746 29.45 21.9007 27.1239 24.2571C24.2206 23.8726 21.3572 23.6149 18.4939 23.3572C15.6312 23.0996 12.7685 22.842 9.86578 22.4577C10.8186 25.4757 12.9223 32.141 13.8792 35.1726L13.8845 35.1894Z" fill="white"/>
<path d="M9.1918 32.5247L8.02768 32.5247L5.69855 32.5247H4.53443L4.55964 39.3178L6.86356 42.4136L9.1918 39.3253L9.1918 32.5247Z" fill="#357EEB"/>
<path d="M7.99825 21.0964L7.13834 21.0313C6.82738 21.0107 6.51638 20.99 6.2784 20.9663L5.66911 20.8838L5.69855 32.5247L8.02768 32.5247L7.99825 21.0964Z" fill="white"/>
<path fill-rule="evenodd" clip-rule="evenodd" d="M69.1245 54.1583L78.7285 48.2703C80.2806 47.3187 80.2806 44.9397 78.7285 43.9882L69.1245 38.1002C67.5723 37.1486 65.6321 38.3381 65.6321 40.2412V52.0172C65.6321 53.9204 67.5723 55.1098 69.1245 54.1583ZM81.0567 52.5525C85.7132 49.6977 85.7132 42.5608 81.0567 39.706L71.4527 33.818C66.7963 30.9633 60.9757 34.5317 60.9757 40.2412V52.0172C60.9757 57.7267 66.7962 61.2952 71.4527 58.4404L81.0567 52.5525Z" fill="#357EEB"/>
</svg>
