<svg width="75" height="75" viewBox="0 0 75 75" fill="none" xmlns="http://www.w3.org/2000/svg">
<path d="M51.6046 40.7436C51.0251 40.8014 50.5618 41.2648 50.504 41.9021C50.4461 43.1184 51.6624 43.0605 51.6624 43.0605C52.8209 43.0605 53.9216 41.9021 54.5585 40.8014C55.2537 39.5851 55.6591 37.9632 54.7903 36.9784C54.327 36.515 53.6318 36.4572 53.1685 36.9205C52.7631 37.326 52.7052 37.905 52.9946 38.3687C52.9946 38.5423 52.8788 39.0056 52.5312 39.6429C52.1836 40.2802 51.7782 40.6278 51.6046 40.7436Z" fill="#AF7B20"/>
<path d="M34.9223 6.85684C23.1052 7.72598 13.4896 17.2258 12.5048 29.0425C11.8678 36.6887 14.8217 43.6978 19.8615 48.5637C20.4406 48.0421 21.0779 47.5788 21.7731 47.1733C21.657 47.0576 21.4833 46.8836 21.3676 46.7679C21.8888 46.536 22.2943 46.1884 22.7576 45.783C23.6846 44.7985 24.1479 43.5239 23.9743 42.5393C23.9161 42.1339 23.9743 41.7281 24.09 41.149V41.0911C24.1479 40.8014 24.2637 40.5117 24.3798 40.1641C24.6112 39.4693 24.901 38.6581 24.8431 37.7314C24.7273 35.9935 23.4527 34.8929 22.4682 34.0241C21.657 33.3289 20.9622 32.7498 20.8461 31.9389C20.7882 31.4174 20.7303 30.8962 20.7882 30.3168C20.7882 30.201 20.7882 30.0274 20.7882 29.9113C20.7882 29.5059 20.8461 29.0425 20.7303 28.5792C20.5567 27.884 20.2091 27.2467 19.6876 26.7834C18.703 25.9146 17.0809 25.3931 15.5169 25.4509C15.6909 24.7561 15.9224 24.061 16.2121 23.3658C16.5018 23.4815 17.0809 23.5394 17.0809 23.5394C18.4712 23.5394 19.7454 22.2652 20.6724 21.1646C21.3097 20.4115 22.1206 20.0639 23.0473 19.6585C23.2213 19.6006 23.3949 19.4849 23.5106 19.427C24.3798 19.0212 25.654 18.2685 26.1752 16.7624C26.4649 15.9512 26.407 15.0824 26.2913 14.2715C26.2334 13.8082 25.8276 12.0124 25.8858 11.9545C28.2607 10.622 30.8674 9.69538 33.7056 9.28992C33.7056 9.40566 33.7056 9.63751 33.7056 9.63751C33.7056 10.2166 33.7056 10.622 33.532 10.796C33.358 10.9696 33.0104 11.0857 32.6632 11.2015C32.4313 11.2593 32.2574 11.3751 32.0259 11.4329C31.0989 11.8388 30.0565 12.3599 29.3034 13.1709C28.3764 14.0975 28.4925 14.9088 28.724 15.43C28.898 15.8354 29.3613 16.1251 29.7668 16.1251C30.4619 16.1251 30.9831 15.5457 30.9253 14.8505C30.9253 14.8505 31.7362 14.0975 33.0104 13.5763C33.1844 13.5184 33.3001 13.4606 33.4741 13.4027C33.9374 13.2287 34.4586 12.9972 34.9802 12.5914C36.0226 11.7226 36.0226 10.4484 36.0226 9.63751C36.0226 9.63751 36.0226 9.23205 36.0226 9.05808C36.2544 9.05808 36.5441 9.05808 36.7756 9.05808C38.6293 9.05808 40.4829 9.28992 42.2208 9.75325C41.7575 10.7381 41.7575 11.8966 41.8733 12.5914C41.8733 12.7654 41.9311 12.8811 41.9311 13.0551C41.989 13.3445 42.0469 13.5763 42.0469 13.8082C41.0045 13.7503 37.0074 13.6342 36.6599 16.2987C36.6599 16.3566 36.6599 16.4149 36.6599 16.4727C36.602 17.3415 36.428 17.6312 36.3701 17.6891C36.3123 17.747 36.1387 17.8048 36.0808 17.8627C35.675 18.0367 35.2116 18.3264 34.9219 18.7897C34.6905 19.1373 33.9953 20.2958 34.5747 21.3385C35.2695 22.5549 36.8917 22.497 38.919 22.3809C40.5408 22.3231 42.7999 22.2652 43.6108 23.0182C43.669 23.0761 43.8427 23.2501 43.9005 23.7134C43.9584 24.061 43.7269 24.3507 43.3793 24.3507C42.0469 24.5243 39.7299 24.2346 39.6141 24.1767C37.7026 23.5977 35.3277 22.9025 32.8368 23.5394C30.1144 24.2346 27.9131 26.7834 27.6234 29.5637C27.5077 31.0119 27.6813 32.1704 28.145 33.1553C28.724 32.518 29.3034 31.9968 29.9982 31.4753C29.8825 31.0119 29.8825 30.4329 29.9404 29.7956C30.1144 27.9998 31.6204 26.2622 33.4162 25.7985C35.1538 25.3352 36.8917 25.7985 38.919 26.4358C39.4402 26.6098 40.4829 26.7255 42.5105 26.7834H42.6263C43.8427 26.8413 44.7697 26.5516 45.4066 25.9725C46.1018 25.3352 46.1596 24.5822 46.1596 24.4664C46.2757 23.1922 45.9282 22.1494 45.1751 21.3964C43.669 19.8325 40.9462 19.9482 38.7454 20.0061C38.1081 20.0061 37.2393 20.0639 36.7177 20.0061C36.7756 19.9482 36.9496 19.8903 37.0074 19.8325C37.355 19.6585 37.7026 19.4849 37.9923 19.1373C38.7454 18.2682 38.8611 16.9939 38.8611 16.4727C39.0347 16.183 40.4829 15.8933 41.8733 16.0094H41.9311C43.2636 16.0094 44.1902 15.1403 44.2481 13.8082C44.2481 13.2866 44.1902 12.8811 44.1324 12.4757C44.1324 12.3599 44.0745 12.2442 44.0745 12.1281C43.9584 11.4912 44.0745 10.6799 44.3638 10.3327C50.6779 12.8233 55.5437 17.8627 57.6292 24.1767C57.2234 24.2346 56.8761 24.3507 56.5864 24.4664C55.8913 24.6979 55.3701 24.8719 54.6749 24.6979C54.5009 24.64 54.2112 24.4664 53.9797 24.2925C53.5164 24.0031 52.8791 23.5977 52.1261 23.5394C51.2573 23.4815 50.5043 23.8291 49.9248 24.4664C49.4036 25.1037 49.1718 25.9725 49.3458 26.7834C49.4036 27.131 49.5772 27.4207 49.6933 27.6522C49.5772 27.6522 49.4036 27.5943 49.2875 27.5365C48.8242 27.3628 48.1873 27.131 47.4342 27.3046C46.6812 27.4786 46.1596 27.9419 45.8121 28.6371C45.4645 29.3901 45.5227 30.3746 45.9282 31.1859C46.623 32.518 47.55 32.9235 48.3609 33.2132C48.6506 33.3289 48.9403 33.445 49.1718 33.6186C49.056 33.7926 48.9403 33.9662 48.8242 34.082C48.6506 34.2559 48.5345 34.4295 48.4188 34.6035C48.1873 34.8929 47.9554 35.1826 47.7236 35.4723C47.55 35.6459 47.376 35.8777 47.2603 36.1096C47.7236 37.0941 48.0712 38.1947 48.1873 39.2953C48.2451 39.1217 48.2451 38.9478 48.303 38.832C48.5345 38.1947 48.9982 37.5574 49.5194 36.9205C49.7512 36.5729 50.0406 36.2832 50.2724 35.8777C50.3303 35.762 50.4464 35.6459 50.5621 35.5302C51.0254 34.9511 51.6627 34.1981 51.5466 33.2132C51.5466 32.8656 51.3152 32.2865 50.6779 31.8228C50.1567 31.4753 49.6933 31.2438 49.2875 31.0698C48.5927 30.7804 48.303 30.6643 48.0712 30.1432C47.9554 29.9113 47.9554 29.6216 48.0712 29.5637C48.129 29.5637 48.4766 29.6216 48.6506 29.7377C48.9403 29.8534 49.2875 29.9692 49.6933 30.0274C50.1567 30.0853 51.1994 30.1432 51.8942 29.3901C52.8212 28.3474 52.1839 27.1889 51.8942 26.6677C51.8364 26.5516 51.7206 26.378 51.7206 26.3201C51.6627 26.204 51.7785 26.0882 51.7785 26.0304C51.8364 25.9725 51.9525 25.9146 52.0682 25.9146C52.2418 25.9146 52.5315 26.1461 52.7634 26.3201C53.1688 26.6098 53.6321 26.8992 54.2694 27.0153C55.5437 27.3046 56.5286 26.957 57.3395 26.7255C57.6871 26.6098 57.9764 26.4937 58.324 26.4358C58.6716 27.9419 58.8455 29.5637 58.8455 31.1859C58.8455 37.5574 56.1231 43.2342 51.8364 47.2891C52.5315 47.6945 53.1688 48.1578 53.7479 48.6794C58.2661 44.1612 61.1047 37.9632 61.1047 31.1277C61.1047 17.1097 49.1718 5.81445 34.9223 6.85684ZM18.1815 28.5792C18.2976 28.6949 18.4133 28.8686 18.4712 29.1004C18.5291 29.2744 18.4712 29.5059 18.4712 29.7956C18.4712 29.9692 18.4712 30.201 18.4712 30.3746C18.4712 31.0119 18.5291 31.6492 18.5869 32.2865C18.7609 33.9662 20.0351 35.009 21.02 35.8777C21.9467 36.6887 22.5261 37.2102 22.584 37.9632C22.6418 38.3687 22.4682 38.832 22.2364 39.4111C22.1206 39.8165 21.9467 40.2224 21.8309 40.6278V40.6857C21.7152 41.3809 21.5412 42.1339 21.657 42.9448C21.7152 43.1184 21.5412 43.6978 21.0779 44.219C20.8461 44.4509 20.3827 44.9142 19.6876 44.9142C16.6175 41.149 14.7639 36.3411 14.7639 31.1277C14.7639 30.0274 14.8217 28.9847 14.9957 27.884C15.9224 27.6522 17.4284 27.884 18.1815 28.5792ZM23.9161 16.0673C23.7425 16.5885 23.2791 16.9939 22.4682 17.3994L22.0045 17.6312C20.9039 18.1524 19.8037 18.6157 18.8188 19.7742C17.5445 21.2803 17.0809 21.2803 17.0809 21.3385C18.6448 18.2103 20.9622 15.4878 23.7425 13.4027C23.7425 13.5763 23.8003 13.7503 23.8003 13.866C23.8003 14.0975 23.8582 14.2715 23.8582 14.3872C24.0322 14.9666 24.09 15.6036 23.9161 16.0673Z" fill="#AF7B20"/>
<path d="M36.7758 50.2433C41.8734 50.2433 46.0441 46.0726 46.0441 40.975C46.0441 35.8777 41.8734 31.707 36.7758 31.707C31.6785 31.707 27.5078 35.8777 27.5078 40.975C27.5078 46.0726 31.6785 50.2433 36.7758 50.2433ZM36.7758 34.024C40.5992 34.024 43.7271 37.1519 43.7271 40.975C43.7271 44.7984 40.5992 47.9263 36.7758 47.9263C32.9527 47.9263 29.8248 44.7984 29.8248 40.975C29.8248 37.1519 32.9527 34.024 36.7758 34.024Z" fill="#AF7B20"/>
<path d="M27.6811 50.2437H29.8245C28.9557 49.6064 28.1448 48.7955 27.5075 47.9268C22.0626 48.0425 17.6602 52.8504 17.6602 58.7586V69.0118C17.6602 70.8073 19.0505 72.2555 20.788 72.2555H22.2941C22.2941 72.1397 21.9465 69.9385 21.9465 69.9385H20.788C20.3247 69.9385 19.9771 69.533 19.9771 69.0118V58.7586C19.9771 54.0668 23.4526 50.2437 27.6811 50.2437Z" fill="#AF7B20"/>
<path d="M45.9859 47.9268C45.3486 48.7955 44.5377 49.5486 43.6689 50.2437H45.812C50.0987 50.2437 53.5742 54.0668 53.5742 58.7586V69.0118C53.5742 69.533 53.2266 69.9385 52.7633 69.9385H51.6048C51.6048 69.9385 51.3151 72.1397 51.2572 72.2555H52.7633C54.5008 72.2555 55.8912 70.8073 55.8912 69.0118V58.7586C55.8912 52.8504 51.4887 48.0425 45.9859 47.9268Z" fill="#AF7B20"/>
<mask id="mask0_593_1221" style="mask-type:luminance" maskUnits="userSpaceOnUse" x="22" y="56" width="29" height="19">
<path d="M22.7773 56.0186H50.7403V74.5939H22.7773V56.0186Z" fill="white"/>
</mask>
<g mask="url(#mask0_593_1221)">
<path d="M47.4335 56.0361H26.1166C25.1899 56.0361 24.2629 56.4416 23.626 57.1368C23.0465 57.8319 22.7568 58.7589 22.8729 59.6277L24.5526 71.6763C24.7266 73.2981 26.1166 74.5724 27.7966 74.5724H45.7534C47.4335 74.5724 48.8234 73.356 48.9974 71.7342L50.6771 59.6856C50.7928 58.7589 50.5035 57.8898 49.9241 57.1946C49.2868 56.4416 48.3601 56.0361 47.4335 56.0361ZM48.3601 59.338L46.6804 71.4445C46.6222 71.9078 46.2167 72.2554 45.7534 72.2554H27.7966C27.3329 72.2554 26.9275 71.9078 26.8696 71.3866L25.1899 59.338C25.132 58.8168 25.5954 58.3531 26.1166 58.3531C26.1166 58.3531 47.3752 58.3531 47.4335 58.3531C47.9547 58.3531 48.418 58.8168 48.3601 59.338Z" fill="#AF7B20"/>
</g>
<path d="M37.9342 65.304C37.9342 65.38 37.9269 65.4552 37.9121 65.5301C37.8973 65.6046 37.8752 65.6769 37.8463 65.7474C37.817 65.8176 37.7812 65.8842 37.7392 65.9474C37.6969 66.0107 37.6488 66.0693 37.5949 66.1232C37.5414 66.1768 37.4828 66.2249 37.4195 66.2672C37.3562 66.3095 37.2893 66.3453 37.2191 66.3742C37.1489 66.4035 37.0766 66.4252 37.0017 66.4401C36.9272 66.4549 36.852 66.4625 36.7757 66.4625C36.6997 66.4625 36.6245 66.4549 36.55 66.4401C36.4751 66.4252 36.4028 66.4035 36.3326 66.3742C36.2621 66.3453 36.1955 66.3095 36.1322 66.2672C36.0689 66.2249 36.0103 66.1768 35.9565 66.1232C35.9029 66.0693 35.8548 66.0107 35.8125 65.9474C35.7702 65.8842 35.7347 65.8176 35.7054 65.7474C35.6765 65.6769 35.6544 65.6046 35.6396 65.5301C35.6248 65.4552 35.6172 65.38 35.6172 65.304C35.6172 65.2277 35.6248 65.1525 35.6396 65.0779C35.6544 65.0034 35.6765 64.9307 35.7054 64.8606C35.7347 64.7904 35.7702 64.7235 35.8125 64.6602C35.8548 64.5969 35.9029 64.5387 35.9565 64.4848C36.0103 64.4309 36.0689 64.3828 36.1322 64.3408C36.1955 64.2985 36.2621 64.2627 36.3326 64.2338C36.4028 64.2045 36.4751 64.1824 36.55 64.1676C36.6245 64.1527 36.6997 64.1455 36.7757 64.1455C36.852 64.1455 36.9272 64.1527 37.0017 64.1676C37.0766 64.1824 37.1489 64.2045 37.2191 64.2338C37.2893 64.2627 37.3562 64.2985 37.4195 64.3408C37.4828 64.3828 37.5414 64.4309 37.5949 64.4848C37.6488 64.5387 37.6969 64.5969 37.7392 64.6602C37.7812 64.7235 37.817 64.7904 37.8463 64.8606C37.8752 64.9307 37.8973 65.0034 37.9121 65.0779C37.9269 65.1525 37.9342 65.2277 37.9342 65.304Z" fill="#AF7B20"/>
<path d="M15.3434 50.1272C15.3434 50.2032 15.3358 50.2784 15.3209 50.3533C15.3061 50.4278 15.284 50.5001 15.2551 50.5703C15.2258 50.6408 15.1904 50.7074 15.148 50.7707C15.1057 50.834 15.0576 50.8926 15.0041 50.9465C14.9502 51 14.8916 51.0481 14.8283 51.0904C14.765 51.1327 14.6985 51.1682 14.6279 51.1975C14.5578 51.2264 14.4854 51.2485 14.4109 51.2633C14.336 51.2781 14.2608 51.2857 14.1849 51.2857C14.1085 51.2857 14.0333 51.2781 13.9588 51.2633C13.8843 51.2485 13.8116 51.2264 13.7414 51.1975C13.6713 51.1682 13.6043 51.1327 13.5411 51.0904C13.4778 51.0481 13.4195 51 13.3656 50.9465C13.3117 50.8926 13.2636 50.834 13.2213 50.7707C13.1794 50.7074 13.1436 50.6408 13.1143 50.5703C13.0853 50.5001 13.0633 50.4278 13.0484 50.3533C13.0336 50.2784 13.0264 50.2032 13.0264 50.1272C13.0264 50.0509 13.0336 49.9757 13.0484 49.9012C13.0633 49.8263 13.0853 49.754 13.1143 49.6838C13.1436 49.6136 13.1794 49.5467 13.2213 49.4834C13.2636 49.4201 13.3117 49.3615 13.3656 49.308C13.4195 49.2541 13.4778 49.206 13.5411 49.1637C13.6043 49.1217 13.6713 49.0859 13.7414 49.0566C13.8116 49.0277 13.8843 49.0056 13.9588 48.9908C14.0333 48.976 14.1085 48.9688 14.1849 48.9688C14.2608 48.9688 14.336 48.976 14.4109 48.9908C14.4854 49.0056 14.5578 49.0277 14.6279 49.0566C14.6985 49.0859 14.765 49.1217 14.8283 49.1637C14.8916 49.206 14.9502 49.2541 15.0041 49.308C15.0576 49.3615 15.1057 49.4201 15.148 49.4834C15.1904 49.5467 15.2258 49.6136 15.2551 49.6838C15.284 49.754 15.3061 49.8267 15.3209 49.9012C15.3358 49.9757 15.3434 50.0509 15.3434 50.1272Z" fill="#AF7B20"/>
<path d="M12.3893 45.9573C12.3893 46.0333 12.3817 46.1085 12.3668 46.1834C12.352 46.2579 12.3303 46.3302 12.301 46.4004C12.2721 46.4709 12.2363 46.5375 12.1939 46.6008C12.1516 46.6641 12.1039 46.7227 12.05 46.7765C11.9961 46.8301 11.9375 46.8782 11.8742 46.9205C11.8113 46.9628 11.7444 46.9983 11.6742 47.0276C11.6037 47.0565 11.5313 47.0786 11.4568 47.0934C11.3819 47.1082 11.3067 47.1158 11.2308 47.1158C11.1548 47.1158 11.0792 47.1082 11.0047 47.0934C10.9302 47.0786 10.8575 47.0565 10.7873 47.0276C10.7172 46.9983 10.6502 46.9628 10.587 46.9205C10.5237 46.8782 10.4654 46.8301 10.4115 46.7765C10.3576 46.7227 10.3095 46.6641 10.2676 46.6008C10.2253 46.5375 10.1895 46.4709 10.1605 46.4004C10.1312 46.3302 10.1092 46.2579 10.0943 46.1834C10.0795 46.1085 10.0723 46.0333 10.0723 45.9573C10.0723 45.881 10.0795 45.8058 10.0943 45.7313C10.1092 45.6564 10.1312 45.5841 10.1605 45.5139C10.1895 45.4437 10.2253 45.3768 10.2676 45.3135C10.3095 45.2502 10.3576 45.1916 10.4115 45.1381C10.4654 45.0842 10.5237 45.0361 10.587 44.9938C10.6502 44.9518 10.7172 44.916 10.7873 44.8867C10.8575 44.8578 10.9302 44.8357 11.0047 44.8209C11.0792 44.8061 11.1548 44.7988 11.2308 44.7988C11.3067 44.7988 11.3819 44.8061 11.4568 44.8209C11.5313 44.8357 11.6037 44.8578 11.6742 44.8867C11.7444 44.916 11.8113 44.9518 11.8742 44.9938C11.9375 45.0361 11.9961 45.0842 12.05 45.1381C12.1039 45.1916 12.1516 45.2502 12.1939 45.3135C12.2363 45.3768 12.2721 45.4437 12.301 45.5139C12.3303 45.5841 12.352 45.6564 12.3668 45.7313C12.3817 45.8058 12.3893 45.881 12.3893 45.9573Z" fill="#AF7B20"/>
<path d="M10.1881 41.2649C10.1881 41.3413 10.1808 41.4165 10.166 41.491C10.1512 41.5655 10.1291 41.6382 10.0998 41.7084C10.0709 41.7785 10.0351 41.8454 9.99277 41.9087C9.95045 41.972 9.90271 42.0303 9.84881 42.0842C9.79492 42.1381 9.73633 42.1862 9.67339 42.2281C9.6101 42.2704 9.54319 42.3062 9.47302 42.3352C9.40285 42.3645 9.33015 42.3865 9.25564 42.4014C9.18113 42.4162 9.10554 42.4234 9.02959 42.4234C8.95363 42.4234 8.87804 42.4162 8.80353 42.4014C8.72902 42.3865 8.65668 42.3645 8.58615 42.3352C8.51599 42.3062 8.44907 42.2704 8.38614 42.2281C8.32284 42.1862 8.26425 42.1381 8.21036 42.0842C8.15647 42.0303 8.10872 41.972 8.06641 41.9087C8.02409 41.8454 7.98828 41.7785 7.95935 41.7084C7.93005 41.6382 7.90835 41.5655 7.89352 41.491C7.87869 41.4165 7.87109 41.3413 7.87109 41.2649C7.87109 41.189 7.87869 41.1138 7.89352 41.0389C7.90835 40.9644 7.93005 40.892 7.95935 40.8215C7.98828 40.7513 8.02409 40.6848 8.06641 40.6215C8.10872 40.5582 8.15647 40.4996 8.21036 40.4457C8.26425 40.3922 8.32284 40.3441 8.38614 40.3018C8.44907 40.2594 8.51599 40.2236 8.58615 40.1947C8.65668 40.1658 8.72902 40.1437 8.80353 40.1289C8.87804 40.114 8.95363 40.1064 9.02959 40.1064C9.10554 40.1064 9.18113 40.114 9.25564 40.1289C9.33015 40.1437 9.40285 40.1658 9.47302 40.1947C9.54319 40.2236 9.6101 40.2594 9.67339 40.3018C9.73633 40.3441 9.79492 40.3922 9.84881 40.4457C9.90271 40.4996 9.95045 40.5582 9.99277 40.6215C10.0351 40.6848 10.0709 40.7513 10.0998 40.8215C10.1291 40.892 10.1512 40.9644 10.166 41.0389C10.1808 41.1138 10.1881 41.189 10.1881 41.2649Z" fill="#AF7B20"/>
<path d="M8.85543 36.3411C8.85543 36.4174 8.84784 36.4927 8.83301 36.5672C8.81818 36.6417 8.79612 36.7144 8.76718 36.7845C8.73788 36.8547 8.70244 36.9216 8.66012 36.9849C8.6178 37.0482 8.5697 37.1064 8.51581 37.1603C8.46228 37.2142 8.40368 37.2623 8.34039 37.3043C8.27709 37.3466 8.21054 37.3824 8.14001 37.4113C8.06984 37.4406 7.9975 37.4627 7.92263 37.4775C7.84813 37.4924 7.7729 37.4996 7.69694 37.4996C7.62062 37.4996 7.54539 37.4924 7.47088 37.4775C7.39601 37.4627 7.32368 37.4406 7.25351 37.4113C7.18298 37.3824 7.11643 37.3466 7.05313 37.3043C6.98984 37.2623 6.93124 37.2142 6.87771 37.1603C6.82382 37.1064 6.77572 37.0482 6.7334 36.9849C6.69108 36.9216 6.65564 36.8547 6.62634 36.7845C6.5974 36.7144 6.57534 36.6417 6.56051 36.5672C6.54568 36.4927 6.53809 36.4174 6.53809 36.3411C6.53809 36.2652 6.54568 36.1899 6.56051 36.1151C6.57534 36.0405 6.5974 35.9682 6.62634 35.8977C6.65564 35.8275 6.69108 35.761 6.7334 35.6977C6.77572 35.6344 6.82382 35.5758 6.87771 35.5219C6.93124 35.4684 6.98984 35.4202 7.05313 35.3779C7.11643 35.3356 7.18298 35.2998 7.25351 35.2709C7.32368 35.2419 7.39601 35.2199 7.47088 35.205C7.54539 35.1902 7.62062 35.1826 7.69694 35.1826C7.7729 35.1826 7.84813 35.1902 7.92263 35.205C7.9975 35.2199 8.06984 35.2419 8.14001 35.2709C8.21054 35.2998 8.27709 35.3356 8.34039 35.3779C8.40368 35.4202 8.46228 35.4684 8.51581 35.5219C8.5697 35.5758 8.6178 35.6344 8.66012 35.6977C8.70244 35.761 8.73788 35.8275 8.76718 35.8977C8.79612 35.9682 8.81818 36.0405 8.83301 36.1151C8.84784 36.1899 8.85543 36.2652 8.85543 36.3411Z" fill="#AF7B20"/>
<mask id="mask1_593_1221" style="mask-type:luminance" maskUnits="userSpaceOnUse" x="6" y="30" width="3" height="3">
<path d="M6.05176 30H8.42589V32.4074H6.05176V30Z" fill="white"/>
</mask>
<g mask="url(#mask1_593_1221)">
<path d="M8.39218 31.1858C8.39218 31.2618 8.38495 31.337 8.37012 31.4115C8.35529 31.4864 8.33322 31.5587 8.30429 31.6289C8.27499 31.6994 8.23919 31.766 8.19723 31.8293C8.15491 31.8926 8.10681 31.9512 8.05292 32.0051C7.99939 32.0586 7.94079 32.1067 7.8775 32.149C7.8142 32.1913 7.74729 32.2268 7.67712 32.2561C7.60695 32.285 7.53425 32.3071 7.45974 32.3219C7.38524 32.3367 7.31 32.3443 7.23369 32.3443C7.15773 32.3443 7.0825 32.3367 7.00763 32.3219C6.93312 32.3071 6.86079 32.285 6.79062 32.2561C6.72009 32.2268 6.65354 32.1913 6.59024 32.149C6.52695 32.1067 6.46835 32.0586 6.41446 32.0051C6.36093 31.9512 6.31283 31.8926 6.27051 31.8293C6.22819 31.766 6.19274 31.6994 6.16345 31.6289C6.13451 31.5587 6.11245 31.4864 6.09762 31.4115C6.08279 31.337 6.0752 31.2618 6.0752 31.1858C6.0752 31.1095 6.08279 31.0343 6.09762 30.9598C6.11245 30.8849 6.13451 30.8126 6.16345 30.7424C6.19274 30.6722 6.22819 30.6053 6.27051 30.542C6.31283 30.4787 6.36093 30.4201 6.41446 30.3666C6.46835 30.3127 6.52695 30.2646 6.59024 30.2223C6.65354 30.1803 6.72009 30.1445 6.79062 30.1152C6.86079 30.0863 6.93312 30.0642 7.00763 30.0494C7.0825 30.0346 7.15773 30.0273 7.23369 30.0273C7.31 30.0273 7.38524 30.0346 7.45974 30.0494C7.53425 30.0642 7.60695 30.0863 7.67712 30.1152C7.74729 30.1445 7.8142 30.1803 7.8775 30.2223C7.94079 30.2646 7.99939 30.3127 8.05292 30.3666C8.10681 30.4201 8.15491 30.4787 8.19723 30.542C8.23919 30.6053 8.27499 30.6722 8.30429 30.7424C8.33322 30.8126 8.35529 30.8849 8.37012 30.9598C8.38495 31.0343 8.39218 31.1095 8.39218 31.1858Z" fill="#AF7B20"/>
</g>
<path d="M8.79745 26.0882C8.79745 26.1641 8.79022 26.2397 8.77539 26.3142C8.76056 26.3887 8.7385 26.4614 8.70956 26.5316C8.68027 26.6018 8.64446 26.6687 8.6025 26.732C8.56019 26.7953 8.51208 26.8535 8.45819 26.9074C8.40466 26.9613 8.34606 27.0094 8.28277 27.0514C8.21947 27.0937 8.15256 27.1295 8.08239 27.1584C8.01223 27.1877 7.93989 27.2098 7.86502 27.2246C7.79051 27.2394 7.71528 27.2467 7.63896 27.2467C7.56301 27.2467 7.48777 27.2394 7.41327 27.2246C7.3384 27.2098 7.26606 27.1877 7.19589 27.1584C7.12536 27.1295 7.05881 27.0937 6.99552 27.0514C6.93222 27.0094 6.87363 26.9613 6.81973 26.9074C6.7662 26.8535 6.7181 26.7953 6.67578 26.732C6.63346 26.6687 6.59802 26.6018 6.56872 26.5316C6.53979 26.4614 6.51772 26.3887 6.50289 26.3142C6.48806 26.2397 6.48047 26.1641 6.48047 26.0882C6.48047 26.0122 6.48806 25.937 6.50289 25.8621C6.51772 25.7876 6.53979 25.7153 6.56872 25.6447C6.59802 25.5746 6.63346 25.5077 6.67578 25.4447C6.7181 25.3814 6.7662 25.3228 6.81973 25.269C6.87363 25.2154 6.93222 25.1673 6.99552 25.125C7.05881 25.0827 7.12536 25.0469 7.19589 25.0179C7.26606 24.9886 7.3384 24.9669 7.41327 24.9521C7.48777 24.9373 7.56301 24.9297 7.63896 24.9297C7.71528 24.9297 7.79051 24.9373 7.86502 24.9521C7.93989 24.9669 8.01223 24.9886 8.08239 25.0179C8.15256 25.0469 8.21947 25.0827 8.28277 25.125C8.34606 25.1673 8.40466 25.2154 8.45819 25.269C8.51208 25.3228 8.56019 25.3814 8.6025 25.4447C8.64446 25.5077 8.68027 25.5746 8.70956 25.6447C8.7385 25.7153 8.76056 25.7876 8.77539 25.8621C8.79022 25.937 8.79745 26.0122 8.79745 26.0882Z" fill="#AF7B20"/>
<path d="M10.1295 21.1067C10.1295 21.1827 10.1219 21.2583 10.1071 21.3328C10.0922 21.4073 10.0705 21.4796 10.0412 21.5502C10.0123 21.6203 9.97649 21.6872 9.93417 21.7502C9.89185 21.8135 9.84411 21.8721 9.79022 21.926C9.73633 21.9799 9.67773 22.0276 9.61444 22.0699C9.5515 22.1122 9.48459 22.148 9.41442 22.177C9.34389 22.2063 9.27156 22.228 9.19705 22.2428C9.12254 22.258 9.04695 22.2652 8.97099 22.2652C8.89504 22.2652 8.81944 22.258 8.74494 22.2428C8.67043 22.228 8.59773 22.2063 8.52756 22.177C8.45739 22.148 8.39048 22.1122 8.32718 22.0699C8.26425 22.0276 8.20566 21.9799 8.15177 21.926C8.09787 21.8721 8.05013 21.8135 8.00781 21.7502C7.96549 21.6872 7.92969 21.6203 7.90075 21.5502C7.87146 21.4796 7.84939 21.4073 7.83456 21.3328C7.81973 21.2583 7.8125 21.1827 7.8125 21.1067C7.8125 21.0308 7.81973 20.9552 7.83456 20.8807C7.84939 20.8062 7.87146 20.7338 7.90075 20.6633C7.92969 20.5931 7.96549 20.5262 8.00781 20.4629C8.05013 20.4 8.09787 20.3414 8.15177 20.2875C8.20566 20.2336 8.26425 20.1859 8.32718 20.1436C8.39048 20.1012 8.45739 20.0654 8.52756 20.0365C8.59773 20.0072 8.67043 19.9851 8.74494 19.9703C8.81944 19.9555 8.89504 19.9482 8.97099 19.9482C9.04695 19.9482 9.12254 19.9555 9.19705 19.9703C9.27156 19.9851 9.34389 20.0072 9.41442 20.0365C9.48459 20.0654 9.5515 20.1012 9.61444 20.1436C9.67773 20.1859 9.73633 20.2336 9.79022 20.2875C9.84411 20.3414 9.89185 20.4 9.93417 20.4629C9.97649 20.5262 10.0123 20.5931 10.0412 20.6633C10.0705 20.7338 10.0922 20.8062 10.1071 20.8807C10.1219 20.9552 10.1295 21.0308 10.1295 21.1067Z" fill="#AF7B20"/>
<path d="M12.3307 16.4153C12.3307 16.4913 12.3231 16.5665 12.3082 16.641C12.2934 16.7159 12.2713 16.7882 12.2424 16.8584C12.2131 16.9289 12.1777 16.9955 12.1353 17.0588C12.093 17.1221 12.0449 17.1807 11.9914 17.2342C11.9375 17.2881 11.8789 17.3362 11.8156 17.3785C11.7523 17.4208 11.6858 17.4563 11.6152 17.4856C11.5451 17.5145 11.4727 17.5366 11.3982 17.5514C11.3234 17.5662 11.2481 17.5738 11.1722 17.5738C11.0958 17.5738 11.0206 17.5662 10.9461 17.5514C10.8716 17.5366 10.7989 17.5145 10.7287 17.4856C10.6586 17.4563 10.5917 17.4208 10.5284 17.3785C10.4651 17.3362 10.4068 17.2881 10.3529 17.2342C10.299 17.1807 10.2509 17.1221 10.2086 17.0588C10.1667 16.9955 10.1309 16.9289 10.1016 16.8584C10.0726 16.7882 10.0506 16.7159 10.0357 16.641C10.0209 16.5665 10.0137 16.4913 10.0137 16.4153C10.0137 16.339 10.0209 16.2638 10.0357 16.1893C10.0506 16.1144 10.0726 16.0421 10.1016 15.9719C10.1309 15.9017 10.1667 15.8348 10.2086 15.7715C10.2509 15.7082 10.299 15.6496 10.3529 15.5961C10.4068 15.5422 10.4651 15.4941 10.5284 15.4518C10.5917 15.4095 10.6586 15.374 10.7287 15.3447C10.7989 15.3158 10.8716 15.2937 10.9461 15.2789C11.0206 15.2641 11.0958 15.2568 11.1722 15.2568C11.2481 15.2568 11.3234 15.2641 11.3982 15.2789C11.4727 15.2937 11.5451 15.3158 11.6152 15.3447C11.6858 15.374 11.7523 15.4095 11.8156 15.4518C11.8789 15.4941 11.9375 15.5422 11.9914 15.5961C12.0449 15.6496 12.093 15.7082 12.1353 15.7715C12.1777 15.8348 12.2131 15.9017 12.2424 15.9719C12.2713 16.0421 12.2934 16.1144 12.3082 16.1893C12.3231 16.2638 12.3307 16.339 12.3307 16.4153Z" fill="#AF7B20"/>
<path d="M15.2271 12.1858C15.2271 12.2622 15.2199 12.3374 15.2051 12.4119C15.1902 12.4868 15.1682 12.5591 15.1393 12.6293C15.11 12.6994 15.0741 12.7663 15.0322 12.8296C14.9899 12.8929 14.9418 12.9515 14.8879 13.0051C14.8343 13.059 14.7758 13.1071 14.7125 13.1494C14.6492 13.1913 14.5822 13.2271 14.5121 13.2564C14.4419 13.2854 14.3696 13.3074 14.2947 13.3223C14.2202 13.3371 14.145 13.3443 14.0686 13.3443C13.9927 13.3443 13.9175 13.3371 13.843 13.3223C13.7681 13.3074 13.6957 13.2854 13.6256 13.2564C13.555 13.2271 13.4885 13.1913 13.4252 13.1494C13.3619 13.1071 13.3033 13.059 13.2494 13.0051C13.1959 12.9515 13.1478 12.8929 13.1055 12.8296C13.0632 12.7663 13.0277 12.6994 12.9984 12.6293C12.9695 12.5591 12.9474 12.4868 12.9326 12.4119C12.9178 12.3374 12.9102 12.2622 12.9102 12.1858C12.9102 12.1099 12.9178 12.0346 12.9326 11.9598C12.9474 11.8853 12.9695 11.8129 12.9984 11.7428C13.0277 11.6722 13.0632 11.6057 13.1055 11.5424C13.1478 11.4791 13.1959 11.4205 13.2494 11.3666C13.3033 11.3131 13.3619 11.265 13.4252 11.2227C13.4885 11.1803 13.555 11.1449 13.6256 11.1156C13.6957 11.0867 13.7681 11.0646 13.843 11.0498C13.9175 11.0349 13.9927 11.0273 14.0686 11.0273C14.145 11.0273 14.2202 11.0349 14.2947 11.0498C14.3696 11.0646 14.4419 11.0867 14.5121 11.1156C14.5822 11.1449 14.6492 11.1803 14.7125 11.2227C14.7758 11.265 14.8343 11.3131 14.8879 11.3666C14.9418 11.4205 14.9899 11.4791 15.0322 11.5424C15.0741 11.6057 15.11 11.6722 15.1393 11.7428C15.1682 11.8129 15.1902 11.8853 15.2051 11.9601C15.2199 12.0346 15.2271 12.1099 15.2271 12.1858Z" fill="#AF7B20"/>
<path d="M18.8766 8.5374C18.8766 8.61335 18.8693 8.68859 18.8545 8.76345C18.8397 8.83796 18.8176 8.9103 18.7883 8.98083C18.7594 9.051 18.7236 9.11755 18.6812 9.18084C18.6389 9.24414 18.5912 9.30273 18.5373 9.35663C18.4834 9.41016 18.4248 9.45826 18.3619 9.50058C18.2986 9.5429 18.2317 9.5787 18.1615 9.60764C18.091 9.63657 18.0186 9.65864 17.9441 9.67347C17.8696 9.6883 17.794 9.69589 17.7181 9.69589C17.6421 9.69589 17.5665 9.6883 17.492 9.67347C17.4175 9.65864 17.3452 9.63657 17.2746 9.60764C17.2045 9.5787 17.1376 9.5429 17.0746 9.50058C17.0113 9.45826 16.9527 9.41016 16.8988 9.35663C16.8449 9.30273 16.7972 9.24414 16.7549 9.18084C16.7126 9.11755 16.6768 9.051 16.6478 8.98083C16.6185 8.9103 16.5968 8.83796 16.582 8.76345C16.5668 8.68859 16.5596 8.61335 16.5596 8.5374C16.5596 8.46108 16.5668 8.38585 16.582 8.31134C16.5968 8.23683 16.6185 8.16413 16.6478 8.09397C16.6768 8.0238 16.7126 7.95689 16.7549 7.89359C16.7972 7.8303 16.8449 7.77206 16.8988 7.71817C16.9527 7.66428 17.0113 7.61617 17.0746 7.57386C17.1376 7.5319 17.2045 7.49609 17.2746 7.46716C17.3452 7.43786 17.4175 7.4158 17.492 7.40097C17.5665 7.38614 17.6421 7.37891 17.7181 7.37891C17.794 7.37891 17.8696 7.38614 17.9441 7.40097C18.0186 7.4158 18.091 7.43786 18.1615 7.46716C18.2317 7.49609 18.2986 7.5319 18.3619 7.57386C18.4248 7.61617 18.4834 7.66428 18.5373 7.71817C18.5912 7.77206 18.6389 7.8303 18.6812 7.89359C18.7236 7.95689 18.7594 8.0238 18.7883 8.09397C18.8176 8.16413 18.8397 8.23683 18.8545 8.31134C18.8693 8.38585 18.8766 8.46108 18.8766 8.5374Z" fill="#AF7B20"/>
<path d="M23.1051 5.58232C23.1051 5.65828 23.0978 5.73387 23.083 5.80838C23.0682 5.88288 23.0461 5.95522 23.0168 6.02575C22.9879 6.09592 22.9521 6.16283 22.9098 6.22577C22.8678 6.28906 22.8197 6.34766 22.7658 6.40155C22.7119 6.45544 22.6537 6.50318 22.5904 6.5455C22.5271 6.58782 22.4602 6.62363 22.39 6.65256C22.3198 6.68186 22.2471 6.70356 22.1726 6.71839C22.0981 6.73322 22.0229 6.74081 21.9466 6.74081C21.8706 6.74081 21.7954 6.73322 21.7205 6.71839C21.646 6.70356 21.5737 6.68186 21.5031 6.65256C21.433 6.62363 21.3664 6.58782 21.3031 6.5455C21.2398 6.50318 21.1812 6.45544 21.1274 6.40155C21.0738 6.34766 21.0257 6.28906 20.9834 6.22577C20.9411 6.16283 20.9053 6.09592 20.8763 6.02575C20.847 5.95522 20.8253 5.88288 20.8105 5.80838C20.7957 5.73387 20.7881 5.65828 20.7881 5.58232C20.7881 5.50637 20.7957 5.43077 20.8105 5.35626C20.8253 5.28176 20.847 5.20906 20.8763 5.13889C20.9053 5.06872 20.9411 5.00181 20.9834 4.93851C21.0257 4.87558 21.0738 4.81699 21.1274 4.76309C21.1812 4.7092 21.2398 4.66146 21.3031 4.61914C21.3664 4.57682 21.433 4.54102 21.5031 4.51208C21.5737 4.48278 21.646 4.46072 21.7205 4.44589C21.7954 4.43106 21.8706 4.42383 21.9466 4.42383C22.0229 4.42383 22.0981 4.43106 22.1726 4.44589C22.2471 4.46072 22.3198 4.48278 22.39 4.51208C22.4602 4.54102 22.5271 4.57682 22.5904 4.61914C22.6537 4.66146 22.7119 4.7092 22.7658 4.76309C22.8197 4.81699 22.8678 4.87558 22.9098 4.93851C22.9521 5.00181 22.9879 5.06872 23.0168 5.13889C23.0461 5.20906 23.0682 5.28176 23.083 5.35626C23.0978 5.43077 23.1051 5.50637 23.1051 5.58232Z" fill="#AF7B20"/>
<path d="M27.7392 3.38115C27.7392 3.4571 27.7316 3.5327 27.7168 3.6072C27.702 3.68171 27.6799 3.75441 27.651 3.82458C27.6217 3.89475 27.5862 3.96166 27.5439 4.02496C27.5016 4.08825 27.4535 4.14648 27.3996 4.20038C27.3461 4.25427 27.2875 4.30237 27.2242 4.34433C27.1609 4.38665 27.0943 4.42245 27.0238 4.45139C26.9536 4.48069 26.8813 4.50275 26.8064 4.51758C26.7319 4.53241 26.6567 4.53964 26.5804 4.53964C26.5044 4.53964 26.4292 4.53241 26.3547 4.51758C26.2798 4.50275 26.2075 4.48069 26.1373 4.45139C26.0668 4.42245 26.0002 4.38665 25.9369 4.34433C25.8736 4.30237 25.815 4.25427 25.7615 4.20038C25.7076 4.14648 25.6595 4.08825 25.6172 4.02496C25.5749 3.96166 25.5394 3.89475 25.5101 3.82458C25.4812 3.75441 25.4591 3.68171 25.4443 3.6072C25.4295 3.5327 25.4219 3.4571 25.4219 3.38115C25.4219 3.30519 25.4295 3.22996 25.4443 3.15509C25.4591 3.08058 25.4812 3.00825 25.5101 2.93772C25.5394 2.86755 25.5749 2.80064 25.6172 2.7377C25.6595 2.67441 25.7076 2.61581 25.7615 2.56192C25.815 2.50803 25.8736 2.46029 25.9369 2.41797C26.0002 2.37565 26.0668 2.33984 26.1373 2.31091C26.2075 2.28161 26.2798 2.25991 26.3547 2.24508C26.4292 2.23025 26.5044 2.22266 26.5804 2.22266C26.6567 2.22266 26.7319 2.23025 26.8064 2.24508C26.8813 2.25991 26.9536 2.28161 27.0238 2.31091C27.0943 2.33984 27.1609 2.37565 27.2242 2.41797C27.2875 2.46029 27.3461 2.50803 27.3996 2.56192C27.4535 2.61581 27.5016 2.67441 27.5439 2.7377C27.5862 2.80064 27.6217 2.86755 27.651 2.93772C27.6799 3.00825 27.702 3.08058 27.7168 3.15509C27.7316 3.22996 27.7392 3.30519 27.7392 3.38115Z" fill="#AF7B20"/>
<path d="M32.7213 2.04912C32.7213 2.12507 32.7137 2.2003 32.6989 2.27481C32.684 2.34968 32.662 2.42202 32.633 2.49219C32.6037 2.56272 32.5683 2.62927 32.526 2.69256C32.4837 2.75586 32.4355 2.81445 32.382 2.86834C32.3281 2.92188 32.2695 2.96998 32.2062 3.0123C32.1429 3.05462 32.0764 3.09006 32.0059 3.11936C31.9357 3.14829 31.8634 3.17036 31.7888 3.18519C31.714 3.20001 31.6387 3.20761 31.5628 3.20761C31.4865 3.20761 31.4112 3.20001 31.3367 3.18519C31.2619 3.17036 31.1895 3.14829 31.1194 3.11936C31.0492 3.09006 30.9823 3.05462 30.919 3.0123C30.8557 2.96998 30.7971 2.92188 30.7436 2.86834C30.6897 2.81445 30.6416 2.75586 30.5992 2.69256C30.5573 2.62927 30.5215 2.56272 30.4922 2.49219C30.4633 2.42202 30.4412 2.34968 30.4264 2.27481C30.4115 2.2003 30.4043 2.12507 30.4043 2.04912C30.4043 1.9728 30.4115 1.89757 30.4264 1.82306C30.4412 1.74819 30.4633 1.67585 30.4922 1.60569C30.5215 1.53552 30.5573 1.46861 30.5992 1.40531C30.6416 1.34201 30.6897 1.28342 30.7436 1.22989C30.7971 1.176 30.8557 1.12789 30.919 1.08558C30.9823 1.04362 31.0492 1.00781 31.1194 0.978516C31.1895 0.94958 31.2619 0.927517 31.3367 0.912688C31.4112 0.897859 31.4865 0.890625 31.5628 0.890625C31.6387 0.890625 31.714 0.897859 31.7885 0.912688C31.8634 0.927517 31.9357 0.94958 32.0059 0.978516C32.0764 1.00781 32.1429 1.04362 32.2062 1.08558C32.2695 1.12789 32.3281 1.176 32.382 1.22989C32.4355 1.28342 32.4837 1.34201 32.526 1.40531C32.5683 1.46861 32.6037 1.53552 32.633 1.60569C32.662 1.67585 32.684 1.74819 32.6989 1.82306C32.7137 1.89757 32.7213 1.9728 32.7213 2.04912Z" fill="#AF7B20"/>
<mask id="mask2_593_1221" style="mask-type:luminance" maskUnits="userSpaceOnUse" x="35" y="0" width="3" height="3">
<path d="M35.5557 0.426758H37.9631V2.77738H35.5557V0.426758Z" fill="white"/>
</mask>
<g mask="url(#mask2_593_1221)">
<path d="M37.9342 1.58525C37.9342 1.66157 37.9269 1.7368 37.9121 1.81131C37.8973 1.88618 37.8752 1.95851 37.8463 2.02868C37.817 2.09885 37.7812 2.16576 37.7392 2.22906C37.6969 2.29235 37.6488 2.35095 37.5949 2.40448C37.5414 2.45837 37.4828 2.50647 37.4195 2.54879C37.3562 2.59075 37.2893 2.62656 37.2191 2.65585C37.1489 2.68479 37.0766 2.70685 37.0017 2.72168C36.9272 2.73651 36.852 2.74374 36.7757 2.74374C36.6997 2.74374 36.6245 2.73651 36.55 2.72168C36.4751 2.70685 36.4028 2.68479 36.3326 2.65585C36.2621 2.62656 36.1955 2.59075 36.1322 2.54879C36.0689 2.50647 36.0103 2.45837 35.9565 2.40448C35.9029 2.35095 35.8548 2.29235 35.8125 2.22906C35.7702 2.16576 35.7347 2.09885 35.7054 2.02868C35.6765 1.95851 35.6544 1.88618 35.6396 1.81131C35.6248 1.7368 35.6172 1.66157 35.6172 1.58525C35.6172 1.5093 35.6248 1.43406 35.6396 1.35919C35.6544 1.28469 35.6765 1.21235 35.7054 1.14218C35.7347 1.07165 35.7702 1.0051 35.8125 0.941804C35.8548 0.878508 35.9029 0.819915 35.9565 0.766023C36.0103 0.712493 36.0689 0.664388 36.1322 0.62207C36.1955 0.579753 36.2621 0.544307 36.3326 0.51501C36.4028 0.486075 36.4751 0.464012 36.55 0.449183C36.6245 0.434353 36.6997 0.426758 36.7757 0.426758C36.852 0.426758 36.9272 0.434353 37.0017 0.449183C37.0766 0.464012 37.1489 0.486075 37.2191 0.51501C37.2893 0.544307 37.3562 0.579753 37.4195 0.62207C37.4828 0.664388 37.5414 0.712493 37.5949 0.766023C37.6488 0.819915 37.6969 0.878508 37.7392 0.941804C37.7812 1.0051 37.817 1.07165 37.8463 1.14218C37.8752 1.21235 37.8973 1.28469 37.9121 1.35919C37.9269 1.43406 37.9342 1.5093 37.9342 1.58525Z" fill="#AF7B20"/>
</g>
<path d="M42.9742 1.9915C42.9742 2.06782 42.9666 2.14305 42.9518 2.21756C42.937 2.29243 42.9149 2.36476 42.886 2.43493C42.8567 2.50546 42.8212 2.57201 42.7789 2.63531C42.7366 2.6986 42.6885 2.7572 42.6349 2.81073C42.5811 2.86462 42.5225 2.91272 42.4592 2.95504C42.3959 2.99736 42.3293 3.03281 42.2588 3.0621C42.1886 3.09104 42.1163 3.1131 42.0418 3.12793C41.9669 3.14276 41.8917 3.15035 41.8157 3.15035C41.7394 3.15035 41.6642 3.14276 41.5897 3.12793C41.5152 3.1131 41.4425 3.09104 41.3723 3.0621C41.3021 3.03281 41.2352 2.99736 41.1719 2.95504C41.1086 2.91272 41.0504 2.86462 40.9965 2.81073C40.9426 2.7572 40.8945 2.6986 40.8522 2.63531C40.8102 2.57201 40.7744 2.50546 40.7451 2.43493C40.7162 2.36476 40.6941 2.29243 40.6793 2.21756C40.6645 2.14305 40.6572 2.06782 40.6572 1.9915C40.6572 1.91555 40.6645 1.84031 40.6793 1.76581C40.6941 1.69094 40.7162 1.6186 40.7451 1.54843C40.7744 1.4779 40.8102 1.41135 40.8522 1.34805C40.8945 1.28476 40.9426 1.22616 40.9965 1.17263C41.0504 1.11874 41.1086 1.07064 41.1719 1.02832C41.2352 0.986002 41.3021 0.950557 41.3723 0.92126C41.4425 0.892325 41.5152 0.870262 41.5897 0.855432C41.6642 0.840603 41.7394 0.833008 41.8157 0.833008C41.8917 0.833008 41.9669 0.840603 42.0418 0.855432C42.1163 0.870262 42.1886 0.892325 42.2588 0.92126C42.3293 0.950557 42.3959 0.986002 42.4592 1.02832C42.5225 1.07064 42.5811 1.11874 42.6349 1.17263C42.6885 1.22616 42.7366 1.28476 42.7789 1.34805C42.8212 1.41135 42.8567 1.4779 42.886 1.54843C42.9149 1.6186 42.937 1.69094 42.9518 1.76581C42.9666 1.84031 42.9742 1.91555 42.9742 1.9915Z" fill="#AF7B20"/>
<path d="M47.9557 3.32353C47.9557 3.39949 47.9481 3.47508 47.9332 3.54959C47.9184 3.6241 47.8967 3.69643 47.8674 3.76696C47.8385 3.83713 47.8027 3.90404 47.7603 3.96698C47.718 4.03027 47.6703 4.08887 47.6164 4.14276C47.5625 4.19665 47.5039 4.24439 47.4406 4.28671C47.3777 4.32903 47.3108 4.36484 47.2406 4.39377C47.1701 4.42307 47.0977 4.44477 47.0232 4.4596C46.9487 4.47479 46.8731 4.48202 46.7972 4.48202C46.7212 4.48202 46.6456 4.47479 46.5711 4.4596C46.4966 4.44477 46.4239 4.42307 46.3537 4.39377C46.2836 4.36484 46.2167 4.32903 46.1534 4.28671C46.0901 4.24439 46.0318 4.19665 45.9779 4.14276C45.924 4.08887 45.8759 4.03027 45.834 3.96698C45.7917 3.90404 45.7559 3.83713 45.7269 3.76696C45.6976 3.69643 45.6756 3.6241 45.6607 3.54959C45.6459 3.47508 45.6387 3.39949 45.6387 3.32353C45.6387 3.24758 45.6459 3.17198 45.6607 3.09748C45.6756 3.02297 45.6976 2.95063 45.7269 2.8801C45.7559 2.80993 45.7917 2.74302 45.834 2.67972C45.8759 2.61679 45.924 2.5582 45.9779 2.5043C46.0318 2.45041 46.0901 2.40267 46.1534 2.36035C46.2167 2.31803 46.2836 2.28223 46.3537 2.25329C46.4239 2.22399 46.4966 2.20193 46.5711 2.1871C46.6456 2.17227 46.7212 2.16504 46.7972 2.16504C46.8731 2.16504 46.9487 2.17227 47.0232 2.1871C47.0977 2.20193 47.1701 2.22399 47.2406 2.25329C47.3108 2.28223 47.3777 2.31803 47.4406 2.36035C47.5039 2.40267 47.5625 2.45041 47.6164 2.5043C47.6703 2.5582 47.718 2.61679 47.7603 2.67972C47.8027 2.74302 47.8385 2.80993 47.8674 2.8801C47.8967 2.95063 47.9184 3.02297 47.9332 3.09748C47.9481 3.17198 47.9557 3.24758 47.9557 3.32353Z" fill="#AF7B20"/>
<path d="M52.5894 5.46709C52.5894 5.54304 52.5822 5.61827 52.5674 5.69314C52.5526 5.76765 52.5305 5.83999 52.5012 5.91016C52.4723 5.98069 52.4365 6.04724 52.3941 6.11053C52.3522 6.17383 52.3041 6.23242 52.2502 6.28631C52.1963 6.33984 52.1381 6.38795 52.0748 6.43027C52.0115 6.47258 51.9446 6.50803 51.8744 6.53733C51.8042 6.56626 51.7315 6.58832 51.657 6.60315C51.5825 6.61798 51.5069 6.62558 51.431 6.62558C51.355 6.62558 51.2798 6.61798 51.2049 6.60315C51.1304 6.58832 51.0581 6.56626 50.9875 6.53733C50.9174 6.50803 50.8504 6.47258 50.7875 6.43027C50.7242 6.38795 50.6656 6.33984 50.6117 6.28631C50.5582 6.23242 50.5101 6.17383 50.4678 6.11053C50.4255 6.04724 50.3896 5.98069 50.3607 5.91016C50.3314 5.83999 50.3097 5.76765 50.2949 5.69314C50.2801 5.61827 50.2725 5.54304 50.2725 5.46709C50.2725 5.39077 50.2801 5.31554 50.2949 5.24103C50.3097 5.16616 50.3314 5.09382 50.3607 5.02365C50.3896 4.95349 50.4255 4.88657 50.4678 4.82328C50.5101 4.75998 50.5582 4.70139 50.6117 4.64786C50.6656 4.59397 50.7242 4.54586 50.7875 4.50354C50.8504 4.46159 50.9174 4.42578 50.9875 4.39648C51.0581 4.36755 51.1304 4.34549 51.2049 4.33066C51.2798 4.31583 51.355 4.30859 51.431 4.30859C51.5069 4.30859 51.5825 4.31583 51.657 4.33066C51.7315 4.34549 51.8042 4.36755 51.8744 4.39648C51.9446 4.42578 52.0115 4.46159 52.0748 4.50354C52.1381 4.54586 52.1963 4.59397 52.2502 4.64786C52.3041 4.70139 52.3522 4.75998 52.3941 4.82328C52.4365 4.88657 52.4723 4.95349 52.5012 5.02365C52.5305 5.09382 52.5526 5.16616 52.5674 5.24103C52.5822 5.31554 52.5894 5.39077 52.5894 5.46709Z" fill="#AF7B20"/>
<path d="M56.818 8.42119C56.818 8.4975 56.8107 8.57274 56.7959 8.64724C56.7811 8.72211 56.759 8.79445 56.7301 8.86462C56.7008 8.93515 56.665 9.0017 56.623 9.065C56.5807 9.12829 56.5326 9.18689 56.4787 9.24042C56.4252 9.29431 56.3666 9.34241 56.3033 9.38473C56.24 9.42705 56.1731 9.46249 56.1029 9.49179C56.0327 9.52073 55.96 9.54279 55.8855 9.55762C55.811 9.57245 55.7358 9.58004 55.6595 9.58004C55.5835 9.58004 55.5083 9.57245 55.4334 9.55762C55.3589 9.54279 55.2866 9.52073 55.2164 9.49179C55.1459 9.46249 55.0793 9.42705 55.016 9.38473C54.9527 9.34241 54.8941 9.29431 54.8402 9.24042C54.7867 9.18689 54.7386 9.12829 54.6963 9.065C54.654 9.0017 54.6185 8.93515 54.5892 8.86462C54.5603 8.79445 54.5382 8.72211 54.5234 8.64724C54.5086 8.57274 54.501 8.4975 54.501 8.42119C54.501 8.34523 54.5086 8.27 54.5234 8.19549C54.5382 8.12062 54.5603 8.04829 54.5892 7.97812C54.6185 7.90759 54.654 7.84104 54.6963 7.77774C54.7386 7.71445 54.7867 7.65585 54.8402 7.60232C54.8941 7.54843 54.9527 7.50033 55.016 7.45801C55.0793 7.41569 55.1459 7.38024 55.2164 7.35095C55.2866 7.32201 55.3589 7.29995 55.4334 7.28512C55.5083 7.27029 55.5835 7.2627 55.6595 7.2627C55.7358 7.2627 55.811 7.27029 55.8855 7.28512C55.96 7.29995 56.0327 7.32201 56.1029 7.35095C56.1731 7.38024 56.24 7.41569 56.3033 7.45801C56.3666 7.50033 56.4252 7.54843 56.4787 7.60232C56.5326 7.65585 56.5807 7.71445 56.623 7.77774C56.665 7.84104 56.7008 7.90759 56.7301 7.97812C56.759 8.04829 56.7811 8.12062 56.7959 8.19549C56.8107 8.27 56.818 8.34523 56.818 8.42119Z" fill="#AF7B20"/>
<path d="M60.4674 12.0706C60.4674 12.1466 60.4601 12.2221 60.445 12.2967C60.4301 12.3712 60.4084 12.4439 60.3791 12.514C60.3502 12.5842 60.3144 12.6511 60.2721 12.7144C60.2297 12.7773 60.182 12.8359 60.1281 12.8898C60.0742 12.9437 60.0156 12.9915 59.9523 13.0338C59.8894 13.0761 59.8225 13.1119 59.7523 13.1408C59.6818 13.1701 59.6094 13.1922 59.5349 13.207C59.4604 13.2219 59.3848 13.2291 59.3089 13.2291C59.2329 13.2291 59.1573 13.2219 59.0828 13.207C59.0083 13.1922 58.936 13.1701 58.8655 13.1408C58.7953 13.1119 58.7284 13.0761 58.6651 13.0338C58.6021 12.9915 58.5435 12.9437 58.4897 12.8898C58.4358 12.8359 58.388 12.7773 58.3457 12.7144C58.3034 12.6511 58.2676 12.5842 58.2386 12.514C58.2093 12.4439 58.1873 12.3712 58.1725 12.2967C58.1576 12.2221 58.1504 12.1466 58.1504 12.0706C58.1504 11.9946 58.1576 11.9191 58.1725 11.8445C58.1873 11.77 58.2093 11.6977 58.2386 11.6272C58.2676 11.557 58.3034 11.4901 58.3457 11.4272C58.388 11.3639 58.4358 11.3053 58.4897 11.2514C58.5435 11.1975 58.6021 11.1497 58.6651 11.1074C58.7284 11.0651 58.7953 11.0293 58.8655 11.0004C58.936 10.9711 59.0083 10.9494 59.0828 10.9345C59.1573 10.9197 59.2329 10.9121 59.3089 10.9121C59.3848 10.9121 59.4604 10.9197 59.5349 10.9345C59.6094 10.9494 59.6818 10.9711 59.7523 11.0004C59.8225 11.0293 59.8894 11.0651 59.9523 11.1074C60.0156 11.1497 60.0742 11.1975 60.1281 11.2514C60.182 11.3053 60.2297 11.3639 60.2721 11.4272C60.3144 11.4901 60.3502 11.557 60.3791 11.6272C60.4084 11.6977 60.4301 11.77 60.445 11.8445C60.4601 11.9191 60.4674 11.9946 60.4674 12.0706Z" fill="#AF7B20"/>
<path d="M63.4791 16.2405C63.4791 16.3165 63.4715 16.3921 63.4567 16.4666C63.4418 16.5411 63.4201 16.6138 63.3908 16.684C63.3619 16.7541 63.3261 16.821 63.2838 16.8843C63.2415 16.9473 63.1937 17.0059 63.1398 17.0598C63.0859 17.1136 63.0273 17.1617 62.964 17.2037C62.9011 17.246 62.8342 17.2818 62.764 17.3108C62.6935 17.3401 62.6212 17.3621 62.5467 17.377C62.4721 17.3918 62.3966 17.399 62.3206 17.399C62.2446 17.399 62.1691 17.3918 62.0945 17.377C62.02 17.3621 61.9473 17.3401 61.8772 17.3108C61.807 17.2818 61.7401 17.246 61.6768 17.2037C61.6139 17.1617 61.5553 17.1136 61.5014 17.0598C61.4475 17.0059 61.3997 16.9473 61.3574 16.8843C61.3151 16.821 61.2793 16.7541 61.2504 16.684C61.2211 16.6138 61.199 16.5411 61.1842 16.4666C61.1693 16.3921 61.1621 16.3165 61.1621 16.2405C61.1621 16.1646 61.1693 16.089 61.1842 16.0145C61.199 15.94 61.2211 15.8676 61.2504 15.7971C61.2793 15.7269 61.3151 15.66 61.3574 15.5971C61.3997 15.5338 61.4475 15.4752 61.5014 15.4213C61.5553 15.3674 61.6139 15.3197 61.6768 15.2773C61.7401 15.235 61.807 15.1992 61.8772 15.1703C61.9473 15.141 62.02 15.1193 62.0945 15.1045C62.1691 15.0896 62.2446 15.082 62.3206 15.082C62.3966 15.082 62.4721 15.0896 62.5467 15.1045C62.6212 15.1193 62.6935 15.141 62.764 15.1703C62.8342 15.1992 62.9011 15.235 62.964 15.2773C63.0273 15.3197 63.0859 15.3674 63.1398 15.4213C63.1937 15.4752 63.2415 15.5338 63.2838 15.5971C63.3261 15.66 63.3619 15.7269 63.3908 15.7971C63.4201 15.8676 63.4418 15.94 63.4567 16.0145C63.4715 16.089 63.4791 16.1646 63.4791 16.2405Z" fill="#AF7B20"/>
<path d="M65.6803 20.9333C65.6803 21.0092 65.6727 21.0845 65.6578 21.159C65.643 21.2338 65.6209 21.3062 65.592 21.3763C65.5627 21.4469 65.5273 21.5134 65.485 21.5767C65.4426 21.64 65.3945 21.6986 65.341 21.7521C65.2871 21.806 65.2285 21.8541 65.1652 21.8964C65.1019 21.9388 65.0354 21.9742 64.9648 22.0035C64.8947 22.0324 64.8223 22.0545 64.7478 22.0693C64.673 22.0842 64.5977 22.0918 64.5218 22.0918C64.4455 22.0918 64.3702 22.0842 64.2957 22.0693C64.2212 22.0545 64.1485 22.0324 64.0783 22.0035C64.0082 21.9742 63.9413 21.9388 63.878 21.8964C63.8147 21.8541 63.7564 21.806 63.7025 21.7521C63.6487 21.6986 63.6005 21.64 63.5582 21.5767C63.5163 21.5134 63.4805 21.4469 63.4512 21.3763C63.4222 21.3062 63.4002 21.2338 63.3853 21.159C63.3705 21.0845 63.3633 21.0092 63.3633 20.9333C63.3633 20.857 63.3705 20.7817 63.3853 20.7072C63.4002 20.6323 63.4222 20.56 63.4512 20.4898C63.4805 20.4193 63.5163 20.3528 63.5582 20.2895C63.6005 20.2262 63.6487 20.1676 63.7025 20.114C63.7564 20.0601 63.8147 20.012 63.878 19.9697C63.9413 19.9274 64.0082 19.892 64.0783 19.8627C64.1485 19.8337 64.2212 19.8117 64.2957 19.7968C64.3702 19.782 64.4455 19.7744 64.5218 19.7744C64.5977 19.7744 64.673 19.782 64.7478 19.7968C64.8223 19.8117 64.8947 19.8337 64.9648 19.8627C65.0354 19.892 65.1019 19.9274 65.1652 19.9697C65.2285 20.012 65.2871 20.0601 65.341 20.114C65.3945 20.1676 65.4426 20.2262 65.485 20.2895C65.5273 20.3528 65.5627 20.4193 65.592 20.4898C65.6209 20.56 65.643 20.6323 65.6578 20.7072C65.6727 20.7817 65.6803 20.857 65.6803 20.9333Z" fill="#AF7B20"/>
<path d="M67.0133 25.8571C67.0133 25.9331 67.006 26.0083 66.9912 26.0828C66.9764 26.1577 66.9543 26.23 66.925 26.3002C66.8961 26.3707 66.8603 26.4372 66.818 26.5005C66.776 26.5638 66.7279 26.6224 66.674 26.676C66.6201 26.7299 66.5619 26.778 66.4986 26.8203C66.4353 26.8626 66.3684 26.898 66.2982 26.9273C66.228 26.9563 66.1553 26.9783 66.0808 26.9932C66.0063 27.008 65.9311 27.0156 65.8548 27.0156C65.7788 27.0156 65.7036 27.008 65.6287 26.9932C65.5542 26.9783 65.4819 26.9563 65.4113 26.9273C65.3412 26.898 65.2746 26.8626 65.2113 26.8203C65.148 26.778 65.0894 26.7299 65.0356 26.676C64.982 26.6224 64.9339 26.5638 64.8916 26.5005C64.8493 26.4372 64.8138 26.3707 64.7845 26.3002C64.7556 26.23 64.7335 26.1577 64.7187 26.0828C64.7039 26.0083 64.6963 25.9331 64.6963 25.8571C64.6963 25.7808 64.7039 25.7055 64.7187 25.631C64.7335 25.5562 64.7556 25.4838 64.7845 25.4137C64.8135 25.3431 64.8493 25.2766 64.8916 25.2133C64.9339 25.15 64.982 25.0914 65.0356 25.0379C65.0894 24.984 65.148 24.9359 65.2113 24.8936C65.2746 24.8512 65.3412 24.8158 65.4113 24.7865C65.4819 24.7576 65.5542 24.7355 65.6287 24.7207C65.7036 24.7058 65.7788 24.6982 65.8548 24.6982C65.9311 24.6982 66.0063 24.7058 66.0808 24.7207C66.1553 24.7355 66.228 24.7576 66.2982 24.7865C66.3684 24.8158 66.4353 24.8512 66.4986 24.8936C66.5619 24.9359 66.6201 24.984 66.674 25.0379C66.7279 25.0914 66.776 25.15 66.818 25.2133C66.8603 25.2766 66.8961 25.3431 66.925 25.4137C66.9543 25.4838 66.9764 25.5562 66.9912 25.631C67.006 25.7055 67.0133 25.7808 67.0133 25.8571Z" fill="#AF7B20"/>
<path d="M67.4765 31.0696C67.4765 31.1459 67.4689 31.2212 67.4541 31.2957C67.4393 31.3702 67.4172 31.4429 67.3883 31.5131C67.359 31.5832 67.3235 31.6501 67.2812 31.7134C67.2389 31.7767 67.1908 31.835 67.1369 31.8889C67.0834 31.9427 67.0248 31.9908 66.9615 32.0332C66.8982 32.0751 66.8316 32.1109 66.7611 32.1402C66.6909 32.1692 66.6186 32.1912 66.5437 32.2061C66.4692 32.2209 66.394 32.2281 66.3177 32.2281C66.2417 32.2281 66.1665 32.2209 66.092 32.2061C66.0171 32.1912 65.9448 32.1692 65.8746 32.1402C65.8041 32.1109 65.7375 32.0751 65.6742 32.0332C65.6109 31.9908 65.5523 31.9427 65.4988 31.8889C65.4449 31.835 65.3968 31.7767 65.3545 31.7134C65.3122 31.6501 65.2767 31.5832 65.2474 31.5131C65.2185 31.4429 65.1964 31.3702 65.1816 31.2957C65.1668 31.2212 65.1592 31.1459 65.1592 31.0696C65.1592 30.9937 65.1668 30.9184 65.1816 30.8436C65.1964 30.7691 65.2185 30.6967 65.2474 30.6266C65.2767 30.556 65.3122 30.4895 65.3545 30.4262C65.3968 30.3629 65.4449 30.3043 65.4988 30.2504C65.5523 30.1969 65.6109 30.1488 65.6742 30.1064C65.7375 30.0641 65.8041 30.0287 65.8746 29.9994C65.9448 29.9704 66.0171 29.9484 66.092 29.9336C66.1665 29.9187 66.2417 29.9111 66.3177 29.9111C66.394 29.9111 66.4692 29.9187 66.5437 29.9336C66.6186 29.9484 66.6909 29.9704 66.7611 29.9994C66.8316 30.0287 66.8982 30.0641 66.9615 30.1064C67.0248 30.1488 67.0834 30.1969 67.1369 30.2504C67.1908 30.3043 67.2389 30.3629 67.2812 30.4262C67.3235 30.4895 67.359 30.556 67.3883 30.6266C67.4172 30.6967 67.4393 30.7691 67.4541 30.8436C67.4689 30.9184 67.4765 30.9937 67.4765 31.0696Z" fill="#AF7B20"/>
<path d="M67.0133 36.2259C67.0133 36.3018 67.006 36.3774 66.9912 36.4519C66.9764 36.5264 66.9543 36.5988 66.925 36.6693C66.8961 36.7395 66.8603 36.8064 66.818 36.8693C66.776 36.9326 66.7279 36.9912 66.674 37.0451C66.6201 37.099 66.5619 37.1467 66.4986 37.1891C66.4353 37.2314 66.3684 37.2672 66.2982 37.2961C66.228 37.3254 66.1553 37.3471 66.0808 37.3619C66.0063 37.3768 65.9311 37.3844 65.8548 37.3844C65.7788 37.3844 65.7036 37.3768 65.6287 37.3619C65.5542 37.3471 65.4819 37.3254 65.4113 37.2961C65.3412 37.2672 65.2746 37.2314 65.2113 37.1891C65.148 37.1467 65.0894 37.099 65.0356 37.0451C64.982 36.9912 64.9339 36.9326 64.8916 36.8693C64.8493 36.8064 64.8138 36.7395 64.7845 36.6693C64.7556 36.5988 64.7335 36.5264 64.7187 36.4519C64.7039 36.3774 64.6963 36.3018 64.6963 36.2259C64.6963 36.1499 64.7039 36.0743 64.7187 35.9998C64.7335 35.9253 64.7556 35.8526 64.7845 35.7824C64.8135 35.7123 64.8493 35.6454 64.8916 35.5821C64.9339 35.5191 64.982 35.4605 65.0356 35.4066C65.0894 35.3528 65.148 35.305 65.2113 35.2627C65.2746 35.2204 65.3412 35.1846 65.4113 35.1556C65.4819 35.1263 65.5542 35.1043 65.6287 35.0894C65.7036 35.0746 65.7788 35.0674 65.8548 35.0674C65.9311 35.0674 66.0063 35.0746 66.0808 35.0894C66.1553 35.1043 66.228 35.1263 66.2982 35.1556C66.3684 35.1846 66.4353 35.2204 66.4986 35.2627C66.5619 35.305 66.6201 35.3528 66.674 35.4066C66.7279 35.4605 66.776 35.5191 66.818 35.5821C66.8603 35.6454 66.8961 35.7123 66.925 35.7824C66.9543 35.8526 66.9764 35.9253 66.9912 35.9998C67.006 36.0743 67.0133 36.1499 67.0133 36.2259Z" fill="#AF7B20"/>
<path d="M65.6803 41.2073C65.6803 41.2833 65.6727 41.3589 65.6578 41.4334C65.643 41.5079 65.6209 41.5806 65.592 41.6508C65.5627 41.7209 65.5273 41.7878 65.485 41.8511C65.4426 41.9141 65.3945 41.9727 65.341 42.0265C65.2871 42.0804 65.2285 42.1282 65.1652 42.1705C65.1019 42.2128 65.0354 42.2486 64.9648 42.2776C64.8947 42.3069 64.8223 42.3289 64.7478 42.3438C64.673 42.3586 64.5977 42.3658 64.5218 42.3658C64.4455 42.3658 64.3702 42.3586 64.2957 42.3438C64.2212 42.3289 64.1485 42.3069 64.0783 42.2776C64.0082 42.2486 63.9413 42.2128 63.878 42.1705C63.8147 42.1282 63.7564 42.0804 63.7025 42.0265C63.6487 41.9727 63.6005 41.9141 63.5582 41.8511C63.5163 41.7878 63.4805 41.7209 63.4512 41.6508C63.4222 41.5806 63.4002 41.5079 63.3853 41.4334C63.3705 41.3589 63.3633 41.2833 63.3633 41.2073C63.3633 41.1314 63.3705 41.0558 63.3853 40.9813C63.4002 40.9068 63.4222 40.8344 63.4512 40.7639C63.4805 40.6937 63.5163 40.6268 63.5582 40.5639C63.6005 40.5006 63.6487 40.442 63.7025 40.3881C63.7564 40.3342 63.8147 40.2865 63.878 40.2441C63.9413 40.2018 64.0082 40.166 64.0783 40.1371C64.1485 40.1078 64.2212 40.0861 64.2957 40.0713C64.3702 40.0564 64.4455 40.0488 64.5218 40.0488C64.5977 40.0488 64.673 40.0564 64.7478 40.0713C64.8223 40.0861 64.8947 40.1078 64.9648 40.1371C65.0354 40.166 65.1019 40.2018 65.1652 40.2441C65.2285 40.2865 65.2871 40.3342 65.341 40.3881C65.3945 40.442 65.4426 40.5006 65.485 40.5639C65.5273 40.6268 65.5627 40.6937 65.592 40.7639C65.6209 40.8344 65.643 40.9068 65.6578 40.9813C65.6727 41.0558 65.6803 41.1314 65.6803 41.2073Z" fill="#AF7B20"/>
<path d="M63.5377 45.8991C63.5377 45.975 63.5305 46.0503 63.5156 46.1248C63.5008 46.1997 63.4787 46.272 63.4494 46.3422C63.4205 46.4127 63.3847 46.4792 63.3424 46.5425C63.3001 46.6058 63.2523 46.6644 63.1984 46.718C63.1445 46.7718 63.0859 46.82 63.023 46.8623C62.9597 46.9046 62.8928 46.94 62.8226 46.9693C62.7525 46.9983 62.6798 47.0203 62.6053 47.0352C62.5307 47.05 62.4552 47.0576 62.3792 47.0576C62.3032 47.0576 62.2276 47.05 62.1531 47.0352C62.0786 47.0203 62.0063 46.9983 61.9358 46.9693C61.8656 46.94 61.7987 46.9046 61.7357 46.8623C61.6725 46.82 61.6139 46.7718 61.56 46.718C61.5061 46.6644 61.4583 46.6058 61.416 46.5425C61.3737 46.4792 61.3379 46.4127 61.309 46.3422C61.2797 46.272 61.258 46.1997 61.2431 46.1248C61.2283 46.0503 61.2207 45.975 61.2207 45.8991C61.2207 45.8228 61.2283 45.7475 61.2431 45.673C61.258 45.5982 61.2797 45.5258 61.309 45.4557C61.3379 45.3851 61.3737 45.3186 61.416 45.2553C61.4583 45.192 61.5061 45.1334 61.56 45.0799C61.6139 45.026 61.6725 44.9779 61.7357 44.9355C61.7987 44.8932 61.8656 44.8578 61.9358 44.8285C62.0063 44.7996 62.0786 44.7775 62.1531 44.7627C62.2276 44.7478 62.3032 44.7402 62.3792 44.7402C62.4552 44.7402 62.5307 44.7478 62.6053 44.7627C62.6798 44.7775 62.7525 44.7996 62.8226 44.8285C62.8928 44.8578 62.9597 44.8932 63.023 44.9355C63.0859 44.9779 63.1445 45.026 63.1984 45.0799C63.2523 45.1334 63.3001 45.192 63.3424 45.2553C63.3847 45.3186 63.4205 45.3851 63.4494 45.4557C63.4787 45.5258 63.5008 45.5982 63.5156 45.673C63.5305 45.7475 63.5377 45.8228 63.5377 45.8991Z" fill="#AF7B20"/>
<path d="M60.5826 50.1272C60.5826 50.2032 60.5754 50.2784 60.5605 50.3533C60.5457 50.4278 60.5237 50.5001 60.4944 50.5703C60.4654 50.6408 60.4296 50.7074 60.3877 50.7707C60.3453 50.834 60.2972 50.8926 60.2433 50.9465C60.1895 51 60.1312 51.0481 60.0679 51.0904C60.0046 51.1327 59.9377 51.1682 59.8675 51.1975C59.7974 51.2264 59.7247 51.2485 59.6502 51.2633C59.5757 51.2781 59.5004 51.2857 59.4241 51.2857C59.3482 51.2857 59.2729 51.2781 59.1981 51.2633C59.1236 51.2485 59.0512 51.2264 58.981 51.1975C58.9105 51.1682 58.844 51.1327 58.7807 51.0904C58.7174 51.0481 58.6588 51 58.6049 50.9465C58.5514 50.8926 58.5033 50.834 58.4609 50.7707C58.4186 50.7074 58.3832 50.6408 58.3539 50.5703C58.3249 50.5001 58.3029 50.4278 58.288 50.3533C58.2732 50.2784 58.2656 50.2032 58.2656 50.1272C58.2656 50.0509 58.2732 49.9757 58.288 49.9012C58.3029 49.8263 58.3249 49.754 58.3539 49.6838C58.3832 49.6136 58.4186 49.5467 58.4609 49.4834C58.5033 49.4201 58.5514 49.3615 58.6049 49.308C58.6588 49.2541 58.7174 49.206 58.7807 49.1637C58.844 49.1217 58.9105 49.0859 58.981 49.0566C59.0512 49.0277 59.1236 49.0056 59.1981 48.9908C59.2729 48.976 59.3482 48.9688 59.4241 48.9688C59.5004 48.9688 59.5757 48.976 59.6502 48.9908C59.7247 49.0056 59.7974 49.0277 59.8675 49.0566C59.9377 49.0859 60.0046 49.1217 60.0679 49.1637C60.1312 49.206 60.1895 49.2541 60.2433 49.308C60.2972 49.3615 60.3453 49.4201 60.3877 49.4834C60.4296 49.5467 60.4654 49.6136 60.4944 49.6838C60.5237 49.754 60.5457 49.8267 60.5605 49.9012C60.5754 49.9757 60.5826 50.0509 60.5826 50.1272Z" fill="#AF7B20"/>
</svg>
