<svg width="71" height="65" viewBox="0 0 71 65" fill="none" xmlns="http://www.w3.org/2000/svg">
<path d="M24.9619 5.19531H27.1714V7.21779H24.9619V5.19531Z" fill="#AF7B20"/>
<path d="M36.0078 5.19531H38.217V7.21779H36.0078V5.19531Z" fill="#AF7B20"/>
<path d="M17.2734 16.3189V20.3641C17.2734 20.4303 17.2803 20.4961 17.2947 20.5613C17.3087 20.6265 17.3296 20.6895 17.3573 20.7509C17.3851 20.8124 17.4193 20.8707 17.4594 20.9258C17.4998 20.981 17.5456 21.0321 17.5967 21.0791C17.648 21.1261 17.7038 21.1678 17.7641 21.2048C17.8244 21.2418 17.888 21.2728 17.9552 21.2982C18.0223 21.3236 18.0914 21.3427 18.1623 21.3559C18.2335 21.3688 18.3054 21.3753 18.378 21.3753H44.889C44.9616 21.3753 45.0331 21.3688 45.1044 21.3559C45.1756 21.3427 45.2448 21.3236 45.3115 21.2982C45.3786 21.2728 45.4423 21.2418 45.5026 21.2048C45.5628 21.1678 45.6187 21.1261 45.67 21.0791C45.7214 21.0321 45.7673 20.981 45.8073 20.9258C45.8477 20.8707 45.8816 20.8124 45.9094 20.7509C45.9371 20.6895 45.9583 20.6265 45.9724 20.5613C45.9864 20.4961 45.9936 20.4303 45.9936 20.3641V16.3189C45.9936 16.2524 45.9864 16.1866 45.9724 16.1217C45.9583 16.0565 45.9371 15.9932 45.9094 15.9317C45.8816 15.8706 45.8477 15.8123 45.8073 15.7571C45.7673 15.702 45.7214 15.6509 45.67 15.6038C45.6187 15.5568 45.5628 15.5148 45.5026 15.4781C45.4423 15.4412 45.3786 15.4098 45.3115 15.3844C45.2448 15.359 45.1756 15.3399 45.1044 15.3271C45.0331 15.3142 44.9616 15.3076 44.889 15.3076H18.378C18.3054 15.3076 18.2335 15.3142 18.1623 15.3271C18.0914 15.3399 18.0223 15.359 17.9552 15.3844C17.888 15.4098 17.8244 15.4412 17.7641 15.4781C17.7038 15.5148 17.648 15.5568 17.5967 15.6038C17.5456 15.6509 17.4998 15.702 17.4594 15.7571C17.4193 15.8123 17.3851 15.8706 17.3573 15.9317C17.3296 15.9932 17.3087 16.0565 17.2947 16.1217C17.2803 16.1866 17.2734 16.2524 17.2734 16.3189ZM26.1104 19.3526V17.3301H39.3658V19.3526H26.1104ZM43.7844 19.3526H41.5749V17.3301H43.7844V19.3526ZM19.4826 17.3301H23.9009V19.3526H19.4826V17.3301Z" fill="#AF7B20"/>
<path d="M18.3785 23.3984C18.27 23.3984 18.1618 23.4031 18.0536 23.4132C17.9457 23.4229 17.8382 23.4373 17.7321 23.4567C17.6256 23.4762 17.5205 23.5003 17.4164 23.5292C17.3126 23.558 17.2106 23.5912 17.1103 23.6295C17.01 23.6674 16.912 23.7097 16.8162 23.7567C16.7206 23.8034 16.6275 23.8545 16.5375 23.9097C16.4471 23.9649 16.3601 24.0241 16.2762 24.0871C16.1923 24.1501 16.1119 24.2169 16.0352 24.2871C15.9585 24.3573 15.8855 24.4307 15.8167 24.5075C15.7479 24.5843 15.6835 24.6642 15.6229 24.7466C15.5626 24.8294 15.5072 24.9144 15.4558 25.0021C15.4048 25.0896 15.3582 25.1795 15.3168 25.2714C15.2754 25.3629 15.2387 25.4563 15.2072 25.5516C15.1757 25.6466 15.1494 25.7428 15.1281 25.8403C15.1069 25.9378 15.0912 26.0359 15.0805 26.135C15.0699 26.2337 15.0645 26.3328 15.0645 26.4321C15.0645 26.5315 15.0699 26.6306 15.0805 26.7296C15.0912 26.8284 15.1069 26.9268 15.1281 27.024C15.1494 27.1215 15.1757 27.2177 15.2072 27.313C15.2387 27.408 15.2754 27.5014 15.3168 27.5932C15.3582 27.6851 15.4048 27.7747 15.4558 27.8625C15.5072 27.9499 15.5626 28.0352 15.6229 28.1176C15.6835 28.2004 15.7479 28.28 15.8167 28.3568C15.8855 28.4336 15.9585 28.5073 16.0352 28.5775C16.1119 28.6477 16.1923 28.7145 16.2762 28.7775C16.3601 28.8405 16.4471 28.8994 16.5375 28.9549C16.6275 29.0101 16.7206 29.0609 16.8162 29.1079C16.912 29.1546 17.01 29.1972 17.1103 29.2351C17.2106 29.2731 17.3126 29.3066 17.4164 29.3355C17.5205 29.3643 17.6256 29.3884 17.7321 29.4079C17.8382 29.4273 17.9457 29.4417 18.0536 29.4514C18.1618 29.4612 18.27 29.4662 18.3785 29.4662C18.4871 29.4662 18.5953 29.4612 18.7031 29.4514C18.8113 29.4417 18.9185 29.4273 19.025 29.4079C19.1315 29.3884 19.2366 29.3643 19.3403 29.3355C19.4444 29.3066 19.5465 29.2731 19.6464 29.2351C19.7468 29.1972 19.845 29.1546 19.9406 29.1079C20.0364 29.0609 20.1292 29.0101 20.2196 28.9549C20.3097 28.8994 20.397 28.8405 20.4809 28.7775C20.5648 28.7145 20.6449 28.6477 20.7216 28.5775C20.7986 28.5073 20.8712 28.4336 20.94 28.3568C21.0089 28.28 21.0736 28.2004 21.1338 28.1176C21.1941 28.0352 21.2499 27.9499 21.3009 27.8625C21.3523 27.7747 21.3985 27.6851 21.4399 27.5932C21.4817 27.5014 21.518 27.408 21.5495 27.313C21.581 27.2177 21.6074 27.1215 21.6286 27.024C21.6498 26.9268 21.6656 26.8284 21.6765 26.7296C21.6871 26.6306 21.6923 26.5315 21.6923 26.4321C21.6923 26.3328 21.6871 26.2337 21.6765 26.135C21.6656 26.0359 21.6498 25.9378 21.6286 25.8403C21.6074 25.7428 21.581 25.6466 21.5495 25.5516C21.518 25.4563 21.4817 25.3629 21.4399 25.2714C21.3985 25.1795 21.3523 25.0896 21.3009 25.0021C21.2499 24.9144 21.1941 24.8294 21.1338 24.7466C21.0736 24.6642 21.0089 24.5843 20.94 24.5075C20.8712 24.4307 20.7986 24.3573 20.7216 24.2871C20.6449 24.2169 20.5648 24.1501 20.4809 24.0871C20.397 24.0241 20.3097 23.9649 20.2196 23.9097C20.1292 23.8545 20.0364 23.8034 19.9406 23.7567C19.845 23.7097 19.7468 23.6674 19.6464 23.6295C19.5465 23.5912 19.4444 23.558 19.3403 23.5292C19.2366 23.5003 19.1315 23.4762 19.025 23.4567C18.9185 23.4373 18.8113 23.4229 18.7031 23.4132C18.5953 23.4031 18.4871 23.3984 18.3785 23.3984ZM18.3785 27.4434C18.306 27.4434 18.234 27.4371 18.1628 27.4239C18.092 27.4111 18.0228 27.392 17.9557 27.3666C17.8886 27.3412 17.8249 27.3098 17.7646 27.2732C17.7044 27.2362 17.6485 27.1942 17.5972 27.1475C17.5462 27.1005 17.5003 27.0494 17.4599 26.9942C17.4198 26.939 17.3856 26.8807 17.3578 26.8193C17.3301 26.7578 17.3092 26.6945 17.2952 26.6296C17.2808 26.5644 17.274 26.4986 17.274 26.4321C17.274 26.3657 17.2808 26.3002 17.2952 26.235C17.3092 26.1698 17.3301 26.1065 17.3578 26.0453C17.3856 25.9839 17.4198 25.9256 17.4599 25.8704C17.5003 25.8152 17.5462 25.7642 17.5972 25.7171C17.6485 25.6701 17.7044 25.6284 17.7646 25.5914C17.8249 25.5544 17.8886 25.5234 17.9557 25.498C18.0228 25.4726 18.092 25.4532 18.1628 25.4403C18.234 25.4275 18.306 25.4209 18.3785 25.4209C18.4511 25.4209 18.5227 25.4275 18.5939 25.4403C18.6651 25.4532 18.7343 25.4726 18.8011 25.498C18.8682 25.5234 18.9319 25.5544 18.9921 25.5914C19.0524 25.6284 19.1082 25.6701 19.1596 25.7171C19.2109 25.7642 19.2565 25.8152 19.2969 25.8704C19.3373 25.9256 19.3712 25.9839 19.3989 26.0453C19.4266 26.1065 19.4479 26.1698 19.4619 26.235C19.4759 26.3002 19.4831 26.3657 19.4831 26.4321C19.4831 26.4986 19.4759 26.5644 19.4619 26.6296C19.4479 26.6945 19.4266 26.7578 19.3989 26.8193C19.3712 26.8807 19.3373 26.939 19.2969 26.9942C19.2565 27.0494 19.2109 27.1005 19.1596 27.1475C19.1082 27.1942 19.0524 27.2362 18.9921 27.2732C18.9319 27.3098 18.8682 27.3412 18.8011 27.3666C18.7343 27.392 18.6651 27.4111 18.5939 27.4239C18.5227 27.4371 18.4511 27.4434 18.3785 27.4434Z" fill="#AF7B20"/>
<path d="M18.3785 31.4883C18.27 31.4883 18.1618 31.493 18.0536 31.503C17.9457 31.5127 17.8382 31.5272 17.7321 31.5466C17.6256 31.566 17.5205 31.5902 17.4164 31.619C17.3126 31.6478 17.2106 31.6811 17.1103 31.7193C17.01 31.7572 16.912 31.7996 16.8162 31.8466C16.7206 31.8933 16.6275 31.9444 16.5375 31.9995C16.4471 32.0547 16.3601 32.114 16.2762 32.177C16.1923 32.24 16.1119 32.3067 16.0352 32.377C15.9585 32.4472 15.8855 32.5205 15.8167 32.5973C15.7479 32.6741 15.6835 32.7541 15.6229 32.8365C15.5626 32.9192 15.5072 33.0042 15.4558 33.092C15.4048 33.1797 15.3582 33.2694 15.3168 33.3612C15.2754 33.4528 15.2387 33.5465 15.2072 33.6415C15.1757 33.7364 15.1494 33.8327 15.1281 33.9302C15.1069 34.0277 15.0912 34.1258 15.0805 34.2248C15.0699 34.3236 15.0645 34.4226 15.0645 34.522C15.0645 34.6214 15.0699 34.7207 15.0805 34.8195C15.0912 34.9182 15.1069 35.0166 15.1281 35.1138C15.1494 35.2113 15.1757 35.3075 15.2072 35.4028C15.2387 35.4978 15.2754 35.5912 15.3168 35.6831C15.3582 35.7749 15.4048 35.8646 15.4558 35.9523C15.5072 36.0398 15.5626 36.125 15.6229 36.2075C15.6835 36.2902 15.7479 36.3699 15.8167 36.4467C15.8855 36.5235 15.9585 36.5971 16.0352 36.6673C16.1119 36.7376 16.1923 36.8043 16.2762 36.8673C16.3601 36.9303 16.4471 36.9896 16.5375 37.0448C16.6275 37.0999 16.7206 37.1507 16.8162 37.1977C16.912 37.2444 17.01 37.2871 17.1103 37.325C17.2106 37.3629 17.3126 37.3965 17.4164 37.4253C17.5205 37.4541 17.6256 37.4783 17.7321 37.4977C17.8382 37.5171 17.9457 37.5316 18.0536 37.5413C18.1618 37.551 18.27 37.556 18.3785 37.556C18.4871 37.556 18.5953 37.551 18.7031 37.5413C18.8113 37.5316 18.9185 37.5171 19.025 37.4977C19.1315 37.4783 19.2366 37.4541 19.3403 37.4253C19.4444 37.3965 19.5465 37.3629 19.6464 37.325C19.7468 37.2871 19.845 37.2444 19.9406 37.1977C20.0364 37.1507 20.1292 37.0999 20.2196 37.0448C20.3097 36.9896 20.397 36.9303 20.4809 36.8673C20.5648 36.8043 20.6449 36.7376 20.7216 36.6673C20.7986 36.5971 20.8712 36.5235 20.94 36.4467C21.0089 36.3699 21.0736 36.2902 21.1338 36.2075C21.1941 36.125 21.2499 36.0398 21.3009 35.9523C21.3523 35.8646 21.3985 35.7749 21.4399 35.6831C21.4817 35.5912 21.518 35.4978 21.5495 35.4028C21.581 35.3075 21.6074 35.2113 21.6286 35.1138C21.6498 35.0166 21.6656 34.9182 21.6765 34.8195C21.6871 34.7207 21.6923 34.6214 21.6923 34.522C21.6923 34.4226 21.6871 34.3236 21.6765 34.2248C21.6656 34.1258 21.6498 34.0277 21.6286 33.9302C21.6074 33.8327 21.581 33.7364 21.5495 33.6415C21.518 33.5465 21.4817 33.4528 21.4399 33.3612C21.3985 33.2694 21.3523 33.1797 21.3009 33.092C21.2499 33.0042 21.1941 32.9192 21.1338 32.8365C21.0736 32.7541 21.0089 32.6741 20.94 32.5973C20.8712 32.5205 20.7986 32.4472 20.7216 32.377C20.6449 32.3067 20.5648 32.24 20.4809 32.177C20.397 32.114 20.3097 32.0547 20.2196 31.9995C20.1292 31.9444 20.0364 31.8933 19.9406 31.8466C19.845 31.7996 19.7468 31.7572 19.6464 31.7193C19.5465 31.6811 19.4444 31.6478 19.3403 31.619C19.2366 31.5902 19.1315 31.566 19.025 31.5466C18.9185 31.5272 18.8113 31.5127 18.7031 31.503C18.5953 31.493 18.4871 31.4883 18.3785 31.4883ZM18.3785 35.5332C18.306 35.5332 18.234 35.527 18.1628 35.5138C18.092 35.5009 18.0228 35.4818 17.9557 35.4564C17.8886 35.431 17.8249 35.3997 17.7646 35.363C17.7044 35.326 17.6485 35.284 17.5972 35.2373C17.5462 35.1903 17.5003 35.1392 17.4599 35.084C17.4198 35.0289 17.3856 34.9706 17.3578 34.9091C17.3301 34.8477 17.3092 34.7844 17.2952 34.7195C17.2808 34.6543 17.274 34.5884 17.274 34.522C17.274 34.4558 17.2808 34.39 17.2952 34.3248C17.3092 34.2596 17.3301 34.1963 17.3578 34.1352C17.3856 34.0737 17.4198 34.0154 17.4599 33.9603C17.5003 33.9051 17.5462 33.854 17.5972 33.807C17.6485 33.76 17.7044 33.7183 17.7646 33.6813C17.8249 33.6443 17.8886 33.6133 17.9557 33.5879C18.0228 33.5625 18.092 33.5434 18.1628 33.5302C18.234 33.5173 18.306 33.5108 18.3785 33.5108C18.4511 33.5108 18.5227 33.5173 18.5939 33.5302C18.6651 33.5434 18.7343 33.5625 18.8011 33.5879C18.8682 33.6133 18.9319 33.6443 18.9921 33.6813C19.0524 33.7183 19.1082 33.76 19.1596 33.807C19.2109 33.854 19.2565 33.9051 19.2969 33.9603C19.3373 34.0154 19.3712 34.0737 19.3989 34.1352C19.4266 34.1963 19.4479 34.2596 19.4619 34.3248C19.4759 34.39 19.4831 34.4558 19.4831 34.522C19.4831 34.5884 19.4759 34.6543 19.4619 34.7195C19.4479 34.7844 19.4266 34.8477 19.3989 34.9091C19.3712 34.9706 19.3373 35.0289 19.2969 35.084C19.2565 35.1392 19.2109 35.1903 19.1596 35.2373C19.1082 35.284 19.0524 35.326 18.9921 35.363C18.9319 35.3997 18.8682 35.431 18.8011 35.4564C18.7343 35.4818 18.6651 35.5009 18.5939 35.5138C18.5227 35.527 18.4511 35.5332 18.3785 35.5332Z" fill="#AF7B20"/>
<path d="M18.3785 39.5791C18.27 39.5791 18.1618 39.5841 18.0536 39.5938C17.9457 39.6036 17.8382 39.618 17.7321 39.6374C17.6256 39.6568 17.5205 39.681 17.4164 39.7098C17.3126 39.7387 17.2106 39.7719 17.1103 39.8101C17.01 39.8481 16.912 39.8904 16.8162 39.9374C16.7206 39.9841 16.6275 40.0352 16.5375 40.0904C16.4471 40.1455 16.3601 40.2048 16.2762 40.2678C16.1923 40.3308 16.1119 40.3976 16.0352 40.4678C15.9585 40.538 15.8855 40.6113 15.8167 40.6885C15.7479 40.7653 15.6835 40.8449 15.6229 40.9273C15.5626 41.0101 15.5072 41.095 15.4558 41.1828C15.4048 41.2706 15.3582 41.3602 15.3168 41.4521C15.2754 41.5436 15.2387 41.6373 15.2072 41.7323C15.1757 41.8273 15.1494 41.9235 15.1281 42.021C15.1069 42.1185 15.0912 42.2166 15.0805 42.3156C15.0699 42.4144 15.0645 42.5134 15.0645 42.6128C15.0645 42.7122 15.0699 42.8115 15.0805 42.9103C15.0912 43.0093 15.1069 43.1075 15.1281 43.2049C15.1494 43.3021 15.1757 43.3987 15.2072 43.4936C15.2387 43.5886 15.2754 43.682 15.3168 43.7739C15.3582 43.8657 15.4048 43.9554 15.4558 44.0431C15.5072 44.1306 15.5626 44.2159 15.6229 44.2983C15.6835 44.3811 15.7479 44.4607 15.8167 44.5375C15.8855 44.6143 15.9585 44.6879 16.0352 44.7582C16.1119 44.8284 16.1923 44.8951 16.2762 44.9582C16.3601 45.0212 16.4471 45.0804 16.5375 45.1356C16.6275 45.1907 16.7206 45.2418 16.8162 45.2885C16.912 45.3353 17.01 45.3779 17.1103 45.4158C17.2106 45.4537 17.3126 45.4873 17.4164 45.5161C17.5205 45.545 17.6256 45.5691 17.7321 45.5885C17.8382 45.608 17.9457 45.6224 18.0536 45.6321C18.1618 45.6418 18.27 45.6468 18.3785 45.6468C18.4871 45.6468 18.5953 45.6418 18.7031 45.6321C18.8113 45.6224 18.9185 45.608 19.025 45.5885C19.1315 45.5691 19.2366 45.545 19.3403 45.5161C19.4444 45.4873 19.5465 45.4537 19.6464 45.4158C19.7468 45.3779 19.845 45.3353 19.9406 45.2885C20.0364 45.2418 20.1292 45.1907 20.2196 45.1356C20.3097 45.0804 20.397 45.0212 20.4809 44.9582C20.5648 44.8951 20.6449 44.8284 20.7216 44.7582C20.7986 44.6879 20.8712 44.6143 20.94 44.5375C21.0089 44.4607 21.0736 44.3811 21.1338 44.2983C21.1941 44.2159 21.2499 44.1306 21.3009 44.0431C21.3523 43.9554 21.3985 43.8657 21.4399 43.7739C21.4817 43.682 21.518 43.5886 21.5495 43.4936C21.581 43.3987 21.6074 43.3021 21.6286 43.2049C21.6498 43.1075 21.6656 43.0093 21.6765 42.9103C21.6871 42.8115 21.6923 42.7122 21.6923 42.6128C21.6923 42.5134 21.6871 42.4144 21.6765 42.3156C21.6656 42.2166 21.6498 42.1185 21.6286 42.021C21.6074 41.9235 21.581 41.8273 21.5495 41.7323C21.518 41.6373 21.4817 41.5436 21.4399 41.4521C21.3985 41.3602 21.3523 41.2706 21.3009 41.1828C21.2499 41.095 21.1941 41.0101 21.1338 40.9273C21.0736 40.8449 21.0089 40.7653 20.94 40.6885C20.8712 40.6113 20.7986 40.538 20.7216 40.4678C20.6449 40.3976 20.5648 40.3308 20.4809 40.2678C20.397 40.2048 20.3097 40.1455 20.2196 40.0904C20.1292 40.0352 20.0364 39.9841 19.9406 39.9374C19.845 39.8904 19.7468 39.8481 19.6464 39.8101C19.5465 39.7719 19.4444 39.7387 19.3403 39.7098C19.2366 39.681 19.1315 39.6568 19.025 39.6374C18.9185 39.618 18.8113 39.6036 18.7031 39.5938C18.5953 39.5841 18.4871 39.5791 18.3785 39.5791ZM18.3785 43.6244C18.306 43.6244 18.234 43.6178 18.1628 43.6049C18.092 43.5918 18.0228 43.5726 17.9557 43.5472C17.8886 43.5219 17.8249 43.4908 17.7646 43.4538C17.7044 43.4168 17.6485 43.3748 17.5972 43.3281C17.5462 43.2811 17.5003 43.23 17.4599 43.1749C17.4198 43.1197 17.3856 43.0614 17.3578 42.9999C17.3301 42.9385 17.3092 42.8755 17.2952 42.8103C17.2808 42.7451 17.274 42.6793 17.274 42.6128C17.274 42.5467 17.2808 42.4808 17.2952 42.4156C17.3092 42.3504 17.3301 42.2874 17.3578 42.226C17.3856 42.1646 17.4198 42.1063 17.4599 42.0511C17.5003 41.9959 17.5462 41.9448 17.5972 41.8978C17.6485 41.8508 17.7044 41.8091 17.7646 41.7721C17.8249 41.7351 17.8886 41.7041 17.9557 41.6787C18.0228 41.6533 18.092 41.6342 18.1628 41.621C18.234 41.6082 18.306 41.6016 18.3785 41.6016C18.4511 41.6016 18.5227 41.6082 18.5939 41.621C18.6651 41.6342 18.7343 41.6533 18.8011 41.6787C18.8682 41.7041 18.9319 41.7351 18.9921 41.7721C19.0524 41.8091 19.1082 41.8508 19.1596 41.8978C19.2109 41.9448 19.2565 41.9959 19.2969 42.0511C19.3373 42.1063 19.3712 42.1646 19.3989 42.226C19.4266 42.2874 19.4479 42.3504 19.4619 42.4156C19.4759 42.4808 19.4831 42.5467 19.4831 42.6128C19.4831 42.6793 19.4759 42.7451 19.4619 42.8103C19.4479 42.8755 19.4266 42.9385 19.3989 42.9999C19.3712 43.0614 19.3373 43.1197 19.2969 43.1749C19.2565 43.23 19.2109 43.2811 19.1596 43.3281C19.1082 43.3748 19.0524 43.4168 18.9921 43.4538C18.9319 43.4908 18.8682 43.5219 18.8011 43.5472C18.7343 43.5726 18.6651 43.5918 18.5939 43.6049C18.5227 43.6178 18.4511 43.6244 18.3785 43.6244Z" fill="#AF7B20"/>
<path d="M23.8574 41.6016H48.1592V43.6243H23.8574V41.6016Z" fill="#AF7B20"/>
<path d="M18.3785 47.6689C18.27 47.6689 18.1618 47.674 18.0536 47.6837C17.9457 47.6934 17.8382 47.7078 17.7321 47.7272C17.6256 47.7467 17.5205 47.7708 17.4164 47.7997C17.3126 47.8285 17.2106 47.8617 17.1103 47.9C17.01 47.9379 16.912 47.9802 16.8162 48.0272C16.7206 48.0739 16.6275 48.125 16.5375 48.1802C16.4471 48.2354 16.3601 48.2946 16.2762 48.3576C16.1923 48.4206 16.1119 48.4874 16.0352 48.5576C15.9585 48.6278 15.8855 48.7015 15.8167 48.7783C15.7479 48.8551 15.6835 48.9347 15.6229 49.0172C15.5626 49.0999 15.5072 49.1852 15.4558 49.2726C15.4048 49.3604 15.3582 49.4501 15.3168 49.5419C15.2754 49.6337 15.2387 49.7272 15.2072 49.8221C15.1757 49.9171 15.1494 50.0133 15.1281 50.1108C15.1069 50.2083 15.0912 50.3064 15.0805 50.4055C15.0699 50.5042 15.0645 50.6033 15.0645 50.7027C15.0645 50.802 15.0699 50.9014 15.0805 51.0001C15.0912 51.0992 15.1069 51.1973 15.1281 51.2948C15.1494 51.3923 15.1757 51.4885 15.2072 51.5835C15.2387 51.6785 15.2754 51.7719 15.3168 51.8637C15.3582 51.9556 15.4048 52.0452 15.4558 52.133C15.5072 52.2205 15.5626 52.3057 15.6229 52.3882C15.6835 52.4709 15.7479 52.5505 15.8167 52.6273C15.8855 52.7041 15.9585 52.7778 16.0352 52.848C16.1119 52.9182 16.1923 52.985 16.2762 53.048C16.3601 53.111 16.4471 53.1702 16.5375 53.2254C16.6275 53.2806 16.7206 53.3317 16.8162 53.3784C16.912 53.4251 17.01 53.4677 17.1103 53.5057C17.2106 53.5436 17.3126 53.5771 17.4164 53.606C17.5205 53.6348 17.6256 53.6589 17.7321 53.6784C17.8382 53.6978 17.9457 53.7122 18.0536 53.7219C18.1618 53.7317 18.27 53.7367 18.3785 53.7367C18.4871 53.7367 18.5953 53.7317 18.7031 53.7219C18.8113 53.7122 18.9185 53.6978 19.025 53.6784C19.1315 53.6589 19.2366 53.6348 19.3403 53.606C19.4444 53.5771 19.5465 53.5436 19.6464 53.5057C19.7468 53.4677 19.845 53.4251 19.9406 53.3784C20.0364 53.3317 20.1292 53.2806 20.2196 53.2254C20.3097 53.1702 20.397 53.111 20.4809 53.048C20.5648 52.985 20.6449 52.9182 20.7216 52.848C20.7986 52.7778 20.8712 52.7041 20.94 52.6273C21.0089 52.5505 21.0736 52.4709 21.1338 52.3882C21.1941 52.3057 21.2499 52.2205 21.3009 52.133C21.3523 52.0452 21.3985 51.9556 21.4399 51.8637C21.4817 51.7719 21.518 51.6785 21.5495 51.5835C21.581 51.4885 21.6074 51.3923 21.6286 51.2948C21.6498 51.1973 21.6656 51.0992 21.6765 51.0001C21.6871 50.9014 21.6923 50.802 21.6923 50.7027C21.6923 50.6033 21.6871 50.5042 21.6765 50.4055C21.6656 50.3064 21.6498 50.2083 21.6286 50.1108C21.6074 50.0133 21.581 49.9171 21.5495 49.8221C21.518 49.7272 21.4817 49.6337 21.4399 49.5419C21.3985 49.4501 21.3523 49.3604 21.3009 49.2726C21.2499 49.1852 21.1941 49.0999 21.1338 49.0172C21.0736 48.9347 21.0089 48.8551 20.94 48.7783C20.8712 48.7015 20.7986 48.6278 20.7216 48.5576C20.6449 48.4874 20.5648 48.4206 20.4809 48.3576C20.397 48.2946 20.3097 48.2354 20.2196 48.1802C20.1292 48.125 20.0364 48.0739 19.9406 48.0272C19.845 47.9802 19.7468 47.9379 19.6464 47.9C19.5465 47.8617 19.4444 47.8285 19.3403 47.7997C19.2366 47.7708 19.1315 47.7467 19.025 47.7272C18.9185 47.7078 18.8113 47.6934 18.7031 47.6837C18.5953 47.674 18.4871 47.6689 18.3785 47.6689ZM18.3785 51.7142C18.306 51.7142 18.234 51.7076 18.1628 51.6948C18.092 51.6816 18.0228 51.6625 17.9557 51.6371C17.8886 51.6117 17.8249 51.5807 17.7646 51.5437C17.7044 51.5067 17.6485 51.4647 17.5972 51.418C17.5462 51.371 17.5003 51.3199 17.4599 51.2647C17.4198 51.2095 17.3856 51.1512 17.3578 51.0898C17.3301 51.0283 17.3092 50.9653 17.2952 50.9001C17.2808 50.8349 17.274 50.7691 17.274 50.7027C17.274 50.6365 17.2808 50.5707 17.2952 50.5055C17.3092 50.4403 17.3301 50.3773 17.3578 50.3158C17.3856 50.2544 17.4198 50.1961 17.4599 50.1409C17.5003 50.0858 17.5462 50.0347 17.5972 49.9876C17.6485 49.9406 17.7044 49.8989 17.7646 49.8619C17.8249 49.825 17.8886 49.7939 17.9557 49.7685C18.0228 49.7431 18.092 49.724 18.1628 49.7109C18.234 49.698 18.306 49.6914 18.3785 49.6914C18.4511 49.6914 18.5227 49.698 18.5939 49.7109C18.6651 49.724 18.7343 49.7431 18.8011 49.7685C18.8682 49.7939 18.9319 49.825 18.9921 49.8619C19.0524 49.8989 19.1082 49.9406 19.1596 49.9876C19.2109 50.0347 19.2565 50.0858 19.2969 50.1409C19.3373 50.1961 19.3712 50.2544 19.3989 50.3158C19.4266 50.3773 19.4479 50.4403 19.4619 50.5055C19.4759 50.5707 19.4831 50.6365 19.4831 50.7027C19.4831 50.7691 19.4759 50.8349 19.4619 50.9001C19.4479 50.9653 19.4266 51.0283 19.3989 51.0898C19.3712 51.1512 19.3373 51.2095 19.2969 51.2647C19.2565 51.3199 19.2109 51.371 19.1596 51.418C19.1082 51.4647 19.0524 51.5067 18.9921 51.5437C18.9319 51.5807 18.8682 51.6117 18.8011 51.6371C18.7343 51.6625 18.6651 51.6816 18.5939 51.6948C18.5227 51.7076 18.4511 51.7142 18.3785 51.7142Z" fill="#AF7B20"/>
<path d="M23.8574 49.6914H48.1592V51.7142H23.8574V49.6914Z" fill="#AF7B20"/>
<mask id="mask0_593_1280" style="mask-type:luminance" maskUnits="userSpaceOnUse" x="6" y="1" width="59" height="63">
<path d="M6.22754 1.12305H64.7769V63.8761H6.22754V1.12305Z" fill="white"/>
</mask>
<g mask="url(#mask0_593_1280)">
<path d="M64.7728 28.4541C64.7738 28.1864 64.7632 27.9193 64.7409 27.6525C64.7187 27.3858 64.6848 27.1203 64.6396 26.856C64.594 26.5918 64.5375 26.3294 64.4694 26.0692C64.4016 25.809 64.3222 25.5517 64.2321 25.2972C64.1417 25.0429 64.0404 24.7922 63.9284 24.5448C63.8164 24.2978 63.6939 24.0552 63.5607 23.817C63.4275 23.5791 63.2843 23.3458 63.131 23.1183C62.9779 22.8904 62.8149 22.6684 62.6423 22.4528C62.4698 22.2368 62.2883 22.0274 62.0976 21.8246C61.9069 21.6218 61.7079 21.4265 61.5001 21.2381C61.2926 21.0497 61.0772 20.8695 60.854 20.6967C60.6304 20.524 60.4003 20.3601 60.1627 20.204C59.9251 20.0482 59.6813 19.9012 59.431 19.7629C59.1807 19.6247 58.9249 19.4959 58.6637 19.3764C58.4021 19.257 58.136 19.147 57.8652 19.0467C57.594 18.9464 57.3194 18.8564 57.0403 18.7758V4.18312C57.0403 4.11698 57.0335 4.05116 57.0191 3.98595C57.0051 3.92075 56.9842 3.85775 56.9565 3.79631C56.9287 3.73487 56.8945 3.67656 56.8544 3.6214C56.814 3.56623 56.7681 3.51513 56.7168 3.46811C56.6658 3.42109 56.6099 3.3794 56.5497 3.34241C56.4891 3.30542 56.4254 3.27439 56.3586 3.249C56.2915 3.22361 56.2224 3.20449 56.1515 3.19132C56.0803 3.17847 56.0084 3.17189 55.9358 3.17189H43.785V2.16065C43.785 2.0942 43.7778 2.02868 43.7638 1.96348C43.7494 1.89828 43.7285 1.83496 43.7008 1.77384C43.6731 1.7124 43.6392 1.65409 43.5988 1.59892C43.5584 1.54375 43.5128 1.49266 43.4615 1.44564C43.4101 1.39862 43.3543 1.35661 43.294 1.31994C43.2338 1.28295 43.1701 1.25192 43.103 1.22653C43.0359 1.20114 42.967 1.1817 42.8958 1.16885C42.8246 1.156 42.7527 1.14941 42.6804 1.14941H20.5878C20.5152 1.14941 20.4433 1.156 20.3724 1.16885C20.3012 1.1817 20.232 1.20114 20.1649 1.22653C20.0982 1.25192 20.0345 1.28295 19.9742 1.31994C19.9136 1.35661 19.8581 1.39862 19.8068 1.44564C19.7554 1.49266 19.7095 1.54375 19.6695 1.59892C19.6291 1.65409 19.5948 1.7124 19.5671 1.77384C19.5394 1.83496 19.5185 1.89828 19.5044 1.96348C19.4904 2.02868 19.4832 2.0942 19.4832 2.16065V3.17189H7.33212C7.25987 3.17189 7.18797 3.17847 7.11675 3.19132C7.04553 3.20449 6.97671 3.22361 6.9096 3.249C6.84249 3.27439 6.7788 3.30542 6.71854 3.34241C6.65828 3.3794 6.60247 3.42109 6.55111 3.46811C6.49975 3.51513 6.45421 3.56623 6.4138 3.6214C6.3734 3.67656 6.3395 3.73487 6.31177 3.79631C6.28404 3.85775 6.26315 3.92075 6.24877 3.98595C6.23473 4.05116 6.22754 4.11698 6.22754 4.18312V62.8374C6.22754 62.9038 6.23473 62.9696 6.24877 63.0345C6.26315 63.0997 6.28404 63.163 6.31177 63.2245C6.3395 63.2856 6.3734 63.3439 6.4138 63.3991C6.45421 63.4543 6.49975 63.5053 6.55111 63.5524C6.60247 63.5994 6.65828 63.6414 6.71854 63.6781C6.7788 63.7151 6.84249 63.7464 6.9096 63.7718C6.97671 63.7972 7.04553 63.8163 7.11675 63.8292C7.18797 63.8423 7.25987 63.8486 7.33212 63.8486H55.9358C56.0084 63.8486 56.0803 63.8423 56.1515 63.8292C56.2224 63.8163 56.2915 63.7972 56.3586 63.7718C56.4254 63.7464 56.4891 63.7151 56.5497 63.6781C56.6099 63.6414 56.6658 63.5994 56.7168 63.5524C56.7681 63.5053 56.814 63.4543 56.8544 63.3991C56.8945 63.3439 56.9287 63.2856 56.9565 63.2245C56.9842 63.163 57.0051 63.0997 57.0191 63.0345C57.0335 62.9696 57.0403 62.9038 57.0403 62.8374V38.152C57.3191 38.0708 57.594 37.9796 57.8645 37.8784C58.1353 37.7774 58.4014 37.6665 58.6626 37.5461C58.9239 37.4257 59.1797 37.2963 59.4296 37.1574C59.6796 37.0185 59.9233 36.8709 60.1606 36.7142C60.3979 36.5577 60.628 36.3929 60.8513 36.2198C61.0742 36.0468 61.2895 35.8656 61.4967 35.6769C61.7042 35.4882 61.9031 35.2923 62.0938 35.0892C62.2842 34.886 62.4657 34.6763 62.6382 34.46C62.8105 34.2437 62.9734 34.0218 63.1268 33.7936C63.2799 33.5657 63.423 33.3325 63.5562 33.094C63.6894 32.8557 63.812 32.6128 63.9243 32.3655C64.0363 32.1181 64.1376 31.8674 64.228 31.6125C64.3187 31.358 64.3978 31.1006 64.4663 30.8401C64.5344 30.58 64.5913 30.3176 64.6372 30.053C64.6827 29.7885 64.7169 29.523 64.7395 29.2559C64.7621 28.9891 64.7731 28.7218 64.7728 28.4541ZM54.8312 5.19467V18.3918C54.4778 18.3918 54.1132 18.3411 53.7266 18.3411C53.34 18.3411 52.9754 18.3411 52.622 18.3918V8.22838C52.622 8.16193 52.6148 8.0961 52.6008 8.03121C52.5864 7.96601 52.5655 7.90269 52.5378 7.84125C52.5101 7.78013 52.4762 7.72182 52.4358 7.66666C52.3953 7.61117 52.3498 7.56008 52.2985 7.51337C52.2471 7.46635 52.1913 7.42435 52.131 7.38736C52.0708 7.35068 52.0071 7.31934 51.94 7.29395C51.8732 7.26856 51.804 7.24943 51.7328 7.23658C51.6616 7.22342 51.5897 7.21715 51.5174 7.21715H43.785V5.19467H54.8312ZM21.6924 3.17189H41.5755V9.23962H21.6924V3.17189ZM42.6804 11.2621C42.7527 11.2621 42.8246 11.2558 42.8958 11.2427C42.967 11.2298 43.0359 11.2107 43.103 11.1853C43.1701 11.1599 43.2338 11.1286 43.294 11.0919C43.3543 11.0549 43.4101 11.0129 43.4615 10.9659C43.5128 10.9192 43.5584 10.8681 43.5988 10.8129C43.6392 10.7574 43.6731 10.6991 43.7008 10.638C43.7285 10.5765 43.7494 10.5132 43.7638 10.4483C43.7778 10.3831 43.785 10.3173 43.785 10.2509V9.23962H50.4129V18.8166C49.989 18.937 49.5743 19.0802 49.1693 19.246C48.7642 19.4122 48.3715 19.5999 47.9914 19.8096C47.611 20.019 47.2457 20.2485 46.8957 20.4983C46.5458 20.7482 46.2133 21.0162 45.8983 21.3027C45.5836 21.5889 45.2888 21.8917 45.0139 22.2108C44.7389 22.5296 44.4859 22.8625 44.2548 23.2095C44.0237 23.5562 43.8162 23.9148 43.6323 24.2843C43.4484 24.6542 43.2892 25.0329 43.1553 25.42H23.9015V27.4425H42.6804C42.6804 27.7864 42.6804 28.1302 42.6804 28.4541C42.6811 28.896 42.7137 29.3361 42.7773 29.7744C42.8414 30.2126 42.9362 30.6452 43.0622 31.0721C43.1882 31.4987 43.344 31.9163 43.5296 32.3244C43.7152 32.7325 43.9292 33.1278 44.1716 33.5102H23.9015V35.5327H45.7952C46.0051 35.7249 46.215 35.9274 46.4472 36.1092L44.9447 39.1432C44.9242 39.1824 44.9067 39.2228 44.8917 39.2642C44.8769 39.3056 44.8653 39.3476 44.8564 39.3905C44.8475 39.4332 44.8417 39.4764 44.8386 39.5197C44.8358 39.5632 44.8362 39.6068 44.8396 39.6501C44.843 39.6936 44.8492 39.7366 44.8588 39.7795C44.868 39.8222 44.8804 39.8642 44.8958 39.9052C44.9112 39.9466 44.9293 39.9867 44.9506 40.0256C44.9714 40.0648 44.9951 40.1024 45.0214 40.1388C45.0478 40.1751 45.0766 40.2096 45.1077 40.2425C45.1389 40.2754 45.1724 40.3061 45.2077 40.335C45.2433 40.3641 45.281 40.3908 45.32 40.4152C45.3594 40.4397 45.4005 40.4619 45.4429 40.4814C45.4854 40.5011 45.5289 40.5184 45.5737 40.5328C45.6186 40.5472 45.6645 40.5591 45.711 40.5682C45.7572 40.5773 45.8045 40.5836 45.8517 40.587C45.8993 40.5905 45.9466 40.5914 45.9942 40.5892C46.1353 40.5895 46.2715 40.566 46.403 40.5184L50.4129 39.0724V55.7584H12.8554V9.23962H19.4832V10.2509C19.4832 10.3173 19.4901 10.3831 19.5044 10.4483C19.5185 10.5132 19.5394 10.5765 19.5671 10.638C19.5948 10.6991 19.6291 10.7574 19.6695 10.8129C19.7095 10.8681 19.7554 10.9192 19.8068 10.9659C19.8581 11.0129 19.9136 11.0549 19.9742 11.0919C20.0345 11.1286 20.0982 11.1599 20.1649 11.1853C20.232 11.2107 20.3012 11.2298 20.3724 11.2427C20.4433 11.2558 20.5152 11.2621 20.5878 11.2621H42.6804ZM54.8312 61.8261H8.43704V5.19467H19.4832V7.21715H11.7508C11.6782 7.21715 11.6063 7.22342 11.5354 7.23658C11.4642 7.24943 11.395 7.26856 11.3279 7.29395C11.2612 7.31934 11.1975 7.35068 11.1372 7.38736C11.0766 7.42435 11.0208 7.46635 10.9698 7.51337C10.9184 7.56008 10.8725 7.61117 10.8321 7.66666C10.7921 7.72182 10.7578 7.78013 10.7301 7.84125C10.7024 7.90269 10.6815 7.96601 10.6674 8.03121C10.6531 8.0961 10.6462 8.16193 10.6462 8.22838V56.7696C10.6462 56.8361 10.6531 56.9019 10.6674 56.9671C10.6815 57.032 10.7024 57.0953 10.7301 57.1567C10.7578 57.2182 10.7921 57.2762 10.8321 57.3317C10.8725 57.3868 10.9184 57.4379 10.9698 57.4846C11.0208 57.5317 11.0766 57.5737 11.1372 57.6106C11.1975 57.6473 11.2612 57.6787 11.3279 57.7041C11.395 57.7294 11.4642 57.7486 11.5354 57.7614C11.6063 57.7746 11.6782 57.7809 11.7508 57.7809H51.5174C51.5897 57.7809 51.6616 57.7746 51.7328 57.7614C51.804 57.7486 51.8732 57.7294 51.94 57.7041C52.0071 57.6787 52.0708 57.6473 52.131 57.6106C52.1913 57.5737 52.2471 57.5317 52.2985 57.4846C52.3498 57.4379 52.3953 57.3868 52.4358 57.3317C52.4762 57.2762 52.5101 57.2182 52.5378 57.1567C52.5655 57.0953 52.5864 57.032 52.6008 56.9671C52.6148 56.9019 52.622 56.8361 52.622 56.7696V38.5667C53.0086 38.5667 53.3842 38.6272 53.7266 38.6272C54.069 38.6272 54.4556 38.6272 54.8312 38.6272V61.8261ZM53.7266 36.5443C53.1808 36.5408 52.6395 36.4935 52.1029 36.4026C51.8917 36.3947 51.6965 36.4418 51.5174 36.5443L48.115 37.7781L48.8553 36.2712C48.8806 36.2189 48.9008 36.165 48.9162 36.1098C48.9316 36.0543 48.9416 35.9982 48.9467 35.9412C48.9515 35.8844 48.9511 35.8274 48.9457 35.7706C48.9402 35.7136 48.9292 35.6575 48.9135 35.6023C48.8974 35.5471 48.8765 35.4935 48.8505 35.4415C48.8248 35.3898 48.7943 35.3399 48.7594 35.2929C48.7241 35.2456 48.6851 35.2014 48.642 35.16C48.5985 35.1189 48.5519 35.0813 48.5016 35.0475C48.2201 34.8584 47.952 34.655 47.6966 34.4372C47.4415 34.219 47.2015 33.988 46.9762 33.7441C46.7509 33.4999 46.5424 33.2447 46.3499 32.978C46.1579 32.7112 45.9836 32.4351 45.8271 32.1495C45.6706 31.8639 45.533 31.5708 45.4145 31.2702C45.296 30.9699 45.1974 30.664 45.1183 30.3527C45.0392 30.0414 44.9807 29.727 44.9427 29.4095C44.9043 29.092 44.8865 28.7735 44.8896 28.4541C44.8896 28.3215 44.893 28.1892 44.9002 28.0569C44.9074 27.9246 44.918 27.7926 44.9321 27.661C44.9464 27.529 44.9639 27.3977 44.9851 27.267C45.0064 27.1359 45.031 27.0055 45.0594 26.8754C45.0875 26.7457 45.1194 26.6165 45.1543 26.488C45.1895 26.3598 45.2282 26.2322 45.27 26.1056C45.3121 25.9786 45.3573 25.8529 45.4063 25.7285C45.4549 25.6037 45.507 25.4802 45.5621 25.358C45.6175 25.2357 45.6761 25.1147 45.7381 24.995C45.7997 24.8752 45.8648 24.7571 45.9329 24.6401C46.001 24.5235 46.0726 24.4082 46.1469 24.2947C46.2212 24.1812 46.2986 24.0693 46.3787 23.9593C46.4592 23.8493 46.5424 23.7408 46.6287 23.6345C46.7149 23.5283 46.8036 23.4239 46.8954 23.3214C46.9871 23.2192 47.0816 23.1189 47.1789 23.0208C47.2758 22.9227 47.3754 22.8267 47.4778 22.7333C47.5802 22.6396 47.685 22.5484 47.7921 22.4594C47.8993 22.3706 48.0085 22.2841 48.1205 22.2001C48.2321 22.1161 48.3461 22.0346 48.4622 21.9559C48.5786 21.8769 48.6967 21.8008 48.8169 21.7271C48.9371 21.6534 49.0593 21.5829 49.1833 21.5146C49.3076 21.4466 49.4332 21.3814 49.561 21.319C49.6883 21.2566 49.8174 21.197 49.9482 21.1403C50.079 21.0839 50.2112 21.0303 50.3447 20.9795C50.4783 20.9287 50.6132 20.8811 50.7494 20.8366C50.8857 20.792 51.023 20.7504 51.1613 20.7121C51.2997 20.6736 51.439 20.6384 51.5794 20.6062C51.7198 20.5739 51.8609 20.545 52.0026 20.519C52.1444 20.4933 52.2868 20.4707 52.4299 20.4513C52.5731 20.4319 52.7165 20.4156 52.8603 20.4027C53.0045 20.3896 53.1486 20.3798 53.2931 20.3736C53.4373 20.367 53.5821 20.3638 53.7266 20.3638C53.8711 20.3638 54.0156 20.367 54.1601 20.3736C54.3046 20.3798 54.4487 20.3896 54.5929 20.4027C54.7367 20.4156 54.8801 20.4319 55.0233 20.4513C55.1664 20.4707 55.3088 20.4933 55.4506 20.519C55.5923 20.545 55.7334 20.5739 55.8738 20.6062C56.0142 20.6384 56.1535 20.6736 56.2919 20.7121C56.4302 20.7504 56.5675 20.792 56.7038 20.8366C56.8397 20.8811 56.9746 20.9287 57.1085 20.9795C57.242 21.0303 57.3742 21.0839 57.505 21.1403C57.6358 21.197 57.7649 21.2566 57.8922 21.319C58.0199 21.3814 58.1456 21.4466 58.2696 21.5146C58.3938 21.5829 58.5157 21.6534 58.6363 21.7271C58.7565 21.8008 58.8746 21.8769 58.9907 21.9559C59.1071 22.0346 59.2207 22.1161 59.3327 22.2001C59.4447 22.2841 59.5539 22.3706 59.6611 22.4594C59.7682 22.5484 59.873 22.6396 59.9754 22.7333C60.0774 22.8267 60.1774 22.9227 60.2743 23.0208C60.3716 23.1189 60.4661 23.2192 60.5578 23.3214C60.6496 23.4239 60.7383 23.5283 60.8245 23.6345C60.9108 23.7408 60.994 23.8493 61.0742 23.9593C61.1546 24.0693 61.232 24.1812 61.3063 24.2947C61.3806 24.4082 61.4518 24.5235 61.52 24.6401C61.5884 24.7571 61.6532 24.8752 61.7151 24.995C61.7771 25.1147 61.8357 25.2357 61.8908 25.358C61.9462 25.4802 61.9983 25.6037 62.0469 25.7285C62.0959 25.8529 62.1411 25.9786 62.1832 26.1056C62.225 26.2322 62.2637 26.3598 62.2989 26.488C62.3338 26.6165 62.3657 26.7457 62.3938 26.8754C62.4218 27.0055 62.4468 27.1359 62.4681 27.267C62.4893 27.3977 62.5068 27.529 62.5211 27.661C62.5352 27.7926 62.5458 27.9246 62.553 28.0569C62.5602 28.1892 62.5636 28.3215 62.5636 28.4541C62.5636 28.5863 62.5602 28.7186 62.553 28.8509C62.5458 28.9832 62.5352 29.1152 62.5211 29.2468C62.5068 29.3788 62.4893 29.5101 62.4681 29.6411C62.4468 29.7719 62.4218 29.9023 62.3938 30.0323C62.3657 30.1621 62.3338 30.2913 62.2986 30.4198C62.2637 30.548 62.225 30.6756 62.1832 30.8025C62.1411 30.9292 62.0959 31.0549 62.0469 31.1793C61.9983 31.3041 61.9462 31.4276 61.8908 31.5498C61.8357 31.6721 61.7771 31.7934 61.7151 31.9128C61.6532 32.0326 61.5884 32.1507 61.52 32.2677C61.4518 32.3843 61.3806 32.4996 61.3063 32.6131C61.232 32.7266 61.1546 32.8385 61.0742 32.9485C60.994 33.0585 60.9108 33.167 60.8245 33.2733C60.7383 33.3795 60.6496 33.4839 60.5578 33.5864C60.4661 33.6886 60.3716 33.7889 60.2743 33.887C60.1774 33.9851 60.0774 34.0811 59.9754 34.1745C59.873 34.2682 59.7682 34.3594 59.6611 34.4484C59.5539 34.5371 59.4447 34.6237 59.3327 34.7077C59.2207 34.7917 59.1071 34.8732 58.9907 34.9522C58.8746 35.0309 58.7565 35.107 58.6363 35.1807C58.5157 35.2544 58.3938 35.3252 58.2696 35.3932C58.1456 35.4612 58.0199 35.5264 57.8922 35.5888C57.7649 35.6512 57.6358 35.7108 57.505 35.7675C57.3742 35.8239 57.242 35.8775 57.1085 35.9283C56.9746 35.9791 56.8397 36.0267 56.7038 36.0712C56.5675 36.1158 56.4302 36.1574 56.2919 36.1957C56.1535 36.2342 56.0142 36.2697 55.8738 36.3016C55.7334 36.3339 55.5923 36.3628 55.4506 36.3888C55.3088 36.4145 55.1664 36.4371 55.0233 36.4565C54.8801 36.4759 54.7367 36.4922 54.5929 36.5051C54.4487 36.5182 54.3046 36.528 54.1601 36.5345C54.0156 36.5408 53.8711 36.5443 53.7266 36.5443Z" fill="#AF7B20"/>
</g>
<path d="M57.3165 23.6914L53.6823 27.0289L50.048 23.6914L48.4795 25.1277L52.1247 28.4548L48.4795 31.7819L50.048 33.2179L53.6823 29.8804L57.3165 33.2179L58.885 31.7819L55.2508 28.4548L58.885 25.1277L57.3165 23.6914Z" fill="#AF7B20"/>
</svg>
