<svg width="69" height="69" viewBox="0 0 69 69" fill="none" xmlns="http://www.w3.org/2000/svg">
<mask id="mask0_593_1268" style="mask-type:luminance" maskUnits="userSpaceOnUse" x="5" y="1" width="59" height="67">
<path d="M5.41406 1.19434H63.6168V67.8072H5.41406V1.19434Z" fill="white"/>
</mask>
<g mask="url(#mask0_593_1268)">
<path d="M35.3283 47.0215V66.9153C35.3283 67.3725 34.957 67.7438 34.4998 67.7438C34.0426 67.7438 33.6712 67.3725 33.6712 66.9153V47.0215H19.1348C18.6776 47.0215 18.3059 46.6498 18.3059 46.193C18.3059 45.7358 18.6776 45.3641 19.1348 45.3641H49.8647C50.3219 45.3641 50.6933 45.7358 50.6933 46.193C50.6933 46.6498 50.3219 47.0215 49.8647 47.0215H35.3283ZM56.0536 55.778H47.8828V63.5771C47.8828 66.309 45.7379 67.7838 43.7201 67.7838C42.6789 67.7838 41.7175 67.3984 41.0158 66.6983C40.4704 66.1543 39.8199 65.153 39.8199 63.4693V53.1565C39.8199 50.2852 42.042 47.879 44.7752 47.7962C44.7836 47.7962 44.7919 47.7962 44.8002 47.7962H51.1215V43.4817C49.7998 44.2138 47.6426 44.5259 45.2105 44.813C44.6867 44.8753 44.2338 44.9292 43.8858 44.9831C41.292 45.3917 39.8405 44.0687 39.5906 42.6668C39.339 41.2609 40.2604 39.5096 42.8722 38.9875L46.9588 38.1699C48.1507 37.931 49.71 35.7808 50.7419 34.3566C51.0097 33.9865 51.2653 33.6345 51.4959 33.3373C52.0636 32.2752 53.1696 31.5944 54.3366 31.5944H57.0825C58.8557 31.5944 60.2992 33.0375 60.2992 34.8111V51.5294C60.3019 53.872 58.3959 55.778 56.0536 55.778ZM56.0536 54.1205C57.4815 54.1205 58.6444 52.9575 58.6444 51.5294V34.8124C58.6444 33.9519 57.9443 33.2531 57.0852 33.2531H54.3396C53.7746 33.2531 53.2112 33.6178 52.939 34.1606C52.9141 34.2101 52.8838 34.2571 52.8492 34.3013C52.6256 34.5858 52.363 34.9479 52.0855 35.3319C50.7612 37.159 49.1134 39.4324 47.2849 39.7968L43.198 40.6143C41.679 40.9185 41.1083 41.7414 41.2231 42.3769C41.3362 43.0078 42.1372 43.5812 43.6289 43.3463C44.0072 43.287 44.4754 43.2318 45.0155 43.1682C46.7698 42.9609 50.0331 42.5743 50.7362 41.7168L53.718 38.0731C54.0082 37.7197 54.5303 37.6671 54.8837 37.9573C55.2374 38.2471 55.2896 38.7692 54.9998 39.1229L52.779 41.8369V48.6264C52.779 49.0836 52.4073 49.455 51.9501 49.455H44.8125C42.9714 49.5185 41.4756 51.1773 41.4756 53.1592V63.4719C41.4756 64.3547 41.7202 65.0658 42.1844 65.5287C42.5737 65.9167 43.1178 66.1306 43.7187 66.1306C44.9632 66.1306 46.224 65.2552 46.224 63.5811V54.9534C46.224 54.4962 46.5957 54.1245 47.0526 54.1245H56.0536V54.1205ZM49.8068 26.0437C49.8068 23.1614 52.1517 20.8174 55.0327 20.8174C57.9137 20.8174 60.259 23.1627 60.259 26.0437C60.259 28.9247 57.9137 31.2699 55.0327 31.2699C52.1517 31.2699 49.8068 28.9247 49.8068 26.0437ZM51.4639 26.0437C51.4639 28.0119 53.0648 29.6125 55.0327 29.6125C57.001 29.6125 58.6015 28.0119 58.6015 26.0437C58.6015 24.0754 57.001 22.4749 55.0327 22.4749C53.0648 22.4749 51.4639 24.0754 51.4639 26.0437ZM60.643 57.4364L61.9344 66.8035C61.9966 67.2563 61.6802 67.6749 61.2273 67.7368C61.1884 67.7425 61.1511 67.7452 61.1125 67.7452C60.7052 67.7452 60.3501 67.444 60.2922 67.0297L59.7479 63.0839H50.6147V66.9166C50.6147 67.3738 50.2431 67.7452 49.7859 67.7452C49.329 67.7452 48.9573 67.3738 48.9573 66.9166V57.8151C48.9573 57.3579 49.329 56.9862 49.7859 56.9862H56.7814C59.6181 56.9862 61.9247 54.6786 61.9247 51.8432V44.1459C61.9247 43.689 62.2961 43.3173 62.7533 43.3173C63.2105 43.3173 63.5819 43.689 63.5819 44.1459V51.8432C63.5819 54.1591 62.4175 56.2072 60.643 57.4364ZM59.0823 58.2417C58.3643 58.5016 57.5893 58.6423 56.7827 58.6423H50.6161V61.4252H59.5216L59.0823 58.2417ZM29.1797 53.1565V63.4693C29.1797 65.153 28.5292 66.1543 27.9834 66.6983C27.282 67.3984 26.3207 67.7838 25.2795 67.7838C23.2616 67.7838 21.1167 66.3103 21.1167 63.5771V55.778H12.9459C10.6037 55.778 8.69764 53.872 8.69764 51.5294V34.8124C8.69764 33.0392 10.1408 31.5957 11.9144 31.5957H14.6599C15.8269 31.5957 16.9333 32.2765 17.501 33.3387C17.7316 33.6358 17.9855 33.9879 18.255 34.3579C19.2866 35.7821 20.8458 37.9323 22.0378 38.1713L26.1247 38.9888C28.7378 39.5109 29.6575 41.2622 29.4063 42.6681C29.188 43.8933 28.05 45.0589 26.0322 45.0589C25.7433 45.0589 25.4355 45.0353 25.1108 44.9844C24.7627 44.9292 24.3112 44.8766 23.7864 44.8144C21.353 44.5272 19.197 44.2151 17.875 43.483V47.7979H24.1967C24.205 47.7979 24.213 47.7979 24.2213 47.7979C26.9559 47.879 29.1797 50.2839 29.1797 53.1565ZM27.5222 53.1565C27.5222 51.1746 26.0265 49.5159 24.1854 49.4523H17.0478C16.5906 49.4523 16.2192 49.0806 16.2192 48.6237V41.8339L13.9984 39.1203C13.7083 38.7666 13.7608 38.2445 14.1142 37.9543C14.4679 37.6645 14.99 37.717 15.2802 38.0704L18.262 41.7138C18.9635 42.5716 22.2284 42.9583 23.9824 43.1656C24.5238 43.2291 24.9906 43.2844 25.369 43.3436C26.8607 43.5785 27.6617 43.0052 27.7751 42.374C27.8883 41.7374 27.3193 40.9155 25.7999 40.6117L21.7133 39.7941C19.8849 39.4281 18.2371 37.1547 16.9124 35.3289C16.6348 34.9449 16.3726 34.5832 16.1487 34.2987C16.1141 34.2544 16.0851 34.2075 16.0588 34.1579C15.787 33.6148 15.2246 33.2505 14.6586 33.2505H11.9144C11.0539 33.2505 10.3551 33.9506 10.3551 34.8098V51.528C10.3551 52.9562 11.5177 54.1192 12.9459 54.1192H21.9453C22.4025 54.1192 22.7742 54.4905 22.7742 54.9478V63.5757C22.7742 65.2495 24.0336 66.1253 25.2795 66.1253C25.8801 66.1253 26.4241 65.911 26.8138 65.523C27.278 65.0605 27.5222 64.3491 27.5222 63.4666V53.1565ZM8.7389 26.0437C8.7389 23.1614 11.0842 20.8174 13.9651 20.8174C16.8461 20.8174 19.1914 23.1627 19.1914 26.0437C19.1914 28.9247 16.8461 31.2699 13.9651 31.2699C11.0842 31.2699 8.7389 28.9247 8.7389 26.0437ZM10.3964 26.0437C10.3964 28.0119 11.9972 29.6125 13.9651 29.6125C15.9334 29.6125 17.5339 28.0119 17.5339 26.0437C17.5339 24.0754 15.9334 22.4749 13.9651 22.4749C11.9972 22.4749 10.3964 24.0754 10.3964 26.0437ZM20.0409 57.8151V66.9166C20.0409 67.3738 19.6692 67.7452 19.212 67.7452C18.7548 67.7452 18.3835 67.3738 18.3835 66.9166V63.0839H9.25001L8.70596 67.0297C8.64939 67.444 8.29301 67.7452 7.88539 67.7452C7.84812 67.7452 7.80952 67.7425 7.77092 67.7368C7.31771 67.6749 7.00026 67.2563 7.06382 66.8035L8.35524 57.4364C6.58166 56.2072 5.41602 54.1591 5.41602 51.8432V44.1459C5.41602 43.689 5.7877 43.3173 6.24457 43.3173C6.70178 43.3173 7.07347 43.689 7.07347 44.1459V51.8432C7.07347 54.6799 9.38112 56.9862 12.2169 56.9862H19.212C19.6706 56.9862 20.0409 57.3566 20.0409 57.8151ZM18.3835 61.4265V58.6437H12.2182C11.4116 58.6437 10.6366 58.5016 9.91852 58.243L9.47928 61.4281H18.3835V61.4265ZM28.4586 18.2832C28.3302 18.0057 28.3648 17.6809 28.5471 17.4367L35.1946 8.58771C35.4208 8.28524 35.8241 8.17476 36.1735 8.31984C36.5229 8.46492 36.7302 8.82663 36.6776 9.20098L35.928 14.5114L38.6915 14.6688C38.9843 14.6854 39.2465 14.8551 39.3806 15.1164C39.5147 15.3772 39.5021 15.6894 39.346 15.9366L33.3534 25.483C33.1987 25.7289 32.9308 25.871 32.6516 25.871C32.5718 25.871 32.4889 25.86 32.4087 25.835C32.051 25.7259 31.8108 25.3892 31.8231 25.0148L32.0317 18.9267L29.1617 18.7637C28.8579 18.7444 28.5871 18.5607 28.4586 18.2832ZM30.8025 17.1947L32.9362 17.3165C33.3864 17.3412 33.7331 17.7225 33.7181 18.1727L33.5867 21.9971L37.1984 16.2434L34.936 16.115C34.7041 16.101 34.4901 15.9918 34.3424 15.8125C34.196 15.6328 34.1297 15.4009 34.1627 15.1716L34.5879 12.1565L30.8025 17.1947ZM18.65 18.79V15.336C18.65 14.3124 19.4816 13.4809 20.5048 13.4809H22.9964C23.0903 13.4809 23.1552 13.4339 23.1841 13.3458C23.3708 12.7794 23.6014 12.2227 23.8706 11.691C23.9135 11.6081 23.8995 11.5279 23.8347 11.4617L22.0724 9.69944C21.723 9.35005 21.5297 8.88453 21.5297 8.38739C21.5297 7.89026 21.723 7.42606 22.0724 7.07534L24.5141 4.63359C25.2379 3.90985 26.4145 3.90985 27.1369 4.63359L28.8992 6.39585C28.9657 6.46207 29.0443 6.47472 29.1284 6.43179C29.6602 6.16259 30.2169 5.93166 30.7832 5.74532C30.8714 5.71637 30.9183 5.65148 30.9183 5.55765V3.06864C30.9183 2.04542 31.7499 1.21387 32.7734 1.21387H36.2274C37.251 1.21387 38.0822 2.04675 38.0822 3.06864V5.56031C38.0822 5.65414 38.1295 5.71903 38.2176 5.74798C38.784 5.93466 39.3407 6.16526 39.8724 6.43445C39.9553 6.47738 40.0351 6.46507 40.1017 6.39852L41.864 4.63625C42.5877 3.91251 43.7643 3.91251 44.4867 4.63625L46.9285 7.078C47.6522 7.80174 47.6522 8.9787 46.9285 9.70077L45.1662 11.463C45.1013 11.5279 45.0874 11.6095 45.1303 11.6923C45.3995 12.2241 45.6301 12.7808 45.8168 13.3471C45.8457 13.4353 45.9106 13.4825 46.0044 13.4825H48.4961C49.5193 13.4825 50.3509 14.3151 50.3509 15.3373V18.7913C50.3509 19.8149 49.5193 20.6464 48.4961 20.6464H46.0044C45.9106 20.6464 45.8457 20.6933 45.8168 20.7815C45.6301 21.3479 45.3995 21.9046 45.1303 22.4363C45.0874 22.5205 45.0997 22.599 45.1662 22.6656L46.9285 24.4278C47.2779 24.7772 47.4712 25.2427 47.4712 25.7399C47.4712 26.237 47.2779 26.7012 46.9285 27.0519L44.4867 29.4937C43.763 30.2174 42.586 30.2161 41.864 29.4937L40.1017 27.7314C40.0351 27.6652 39.9566 27.6526 39.8724 27.6955C39.3407 27.9647 38.784 28.1956 38.2176 28.382C38.1295 28.4109 38.0822 28.4758 38.0822 28.5696V31.0613C38.0822 32.0848 37.251 32.9161 36.2274 32.9161H32.7734C31.7499 32.9161 30.9183 32.0832 30.9183 31.0613V28.5696C30.9183 28.4758 30.8714 28.4109 30.7832 28.382C30.2169 28.1956 29.6602 27.9647 29.1284 27.6955C29.0443 27.6526 28.9657 27.6665 28.8992 27.7314L27.1369 29.4937C26.4132 30.2174 25.2365 30.2174 24.5141 29.4937L22.0724 27.0519C21.723 26.7025 21.5297 26.237 21.5297 25.7399C21.5297 25.2427 21.723 24.7786 22.0724 24.4278L23.8347 22.6656C23.9009 22.599 23.9135 22.5205 23.8719 22.4363C23.6027 21.9046 23.3721 21.3479 23.1854 20.7815C23.1565 20.6933 23.0916 20.6464 22.9978 20.6464H20.5061C19.4816 20.6464 18.65 19.8135 18.65 18.79ZM20.3075 18.79C20.3075 18.8978 20.397 18.9876 20.5048 18.9876H22.9964C23.8 18.9876 24.5071 19.5001 24.7587 20.2637C24.9188 20.7499 25.1164 21.2291 25.3484 21.6863C25.7117 22.403 25.5736 23.2675 25.0046 23.8365L23.2423 25.5988C23.1951 25.646 23.1854 25.7013 23.1854 25.7385C23.1854 25.7758 23.1951 25.8311 23.2423 25.878L25.6841 28.3197C25.76 28.3956 25.8871 28.3956 25.9629 28.3197L27.7252 26.5575C28.0816 26.2011 28.5554 26.0134 29.0359 26.0134C29.3204 26.0134 29.6079 26.0796 29.8745 26.2151C30.3314 26.447 30.8109 26.646 31.297 26.8047C32.0593 27.0559 32.5731 27.763 32.5731 28.567V31.0586C32.5731 31.1661 32.6643 31.256 32.7704 31.256H36.2248C36.3326 31.256 36.4221 31.1648 36.4221 31.0586V28.567C36.4221 27.7647 36.9345 27.0559 37.6985 26.8047C38.1847 26.6443 38.6639 26.4457 39.1211 26.2151C39.8378 25.8517 40.7023 25.9898 41.2713 26.5575L43.0336 28.3197C43.1095 28.3956 43.2366 28.3956 43.3128 28.3197L45.7545 25.878C45.8014 25.8311 45.8111 25.7758 45.8111 25.7385C45.8111 25.7013 45.8014 25.646 45.7545 25.5988L43.9923 23.8365C43.4232 23.2675 43.2852 22.4043 43.6495 21.6863C43.8818 21.2291 44.0804 20.7499 44.2395 20.2637C44.4894 19.5001 45.1978 18.9876 46.0018 18.9876H48.4931C48.6009 18.9876 48.6908 18.8964 48.6908 18.79V15.336C48.6908 15.2282 48.6009 15.1383 48.4931 15.1383H46.0044C45.2005 15.1383 44.4934 14.6259 44.2422 13.8622C44.0818 13.376 43.8844 12.8969 43.6525 12.4397C43.2892 11.7229 43.4272 10.8581 43.9949 10.2891L45.7572 8.52682C45.8331 8.45095 45.8331 8.32384 45.7572 8.24797L43.3154 5.80621C43.2396 5.73001 43.1111 5.73001 43.0366 5.80621L41.274 7.56848C40.705 8.13749 39.8418 8.27559 39.1237 7.91089C38.6665 7.67896 38.1887 7.4813 37.7012 7.32125C36.9389 7.07135 36.4251 6.36258 36.4251 5.55898V3.06864C36.4251 2.96116 36.3352 2.87132 36.2274 2.87132H32.7734C32.6656 2.87132 32.5758 2.96249 32.5758 3.06864V5.56031C32.5758 6.36424 32.0633 7.07135 31.2997 7.32258C30.8135 7.48263 30.3343 7.68029 29.8771 7.91222C29.1604 8.27559 28.2956 8.13749 27.7265 7.56981L25.9643 5.80754C25.8884 5.73168 25.76 5.73168 25.6854 5.80754L23.2437 8.2493C23.1968 8.29622 23.1871 8.35145 23.1871 8.38872C23.1871 8.42599 23.1968 8.48123 23.2437 8.52815L25.0059 10.2907C25.575 10.8581 25.713 11.7229 25.3484 12.4397C25.1164 12.8969 24.9174 13.376 24.7587 13.8622C24.5088 14.6259 23.8 15.1383 22.9964 15.1383H20.5048C20.3986 15.1383 20.3075 15.2295 20.3075 15.336V18.79Z" fill="#AF7B20"/>
</g>
</svg>
