<svg width="64" height="67" viewBox="0 0 64 67" fill="none" xmlns="http://www.w3.org/2000/svg">
<mask id="mask0_518_968" style="mask-type:luminance" maskUnits="userSpaceOnUse" x="0" y="0" width="64" height="68">
<path d="M0 0H64V67.4184H0V0Z" fill="white"/>
</mask>
<g mask="url(#mask0_518_968)">
<path d="M62.9634 34.3118H1.05476C0.471176 34.3118 -0.00195312 34.7849 -0.00195312 35.3689V40.5344C-0.00195312 41.118 0.471176 41.5911 1.05476 41.5911H5.38545C6.06201 44.5011 7.20247 47.2531 8.78506 49.7932L5.72109 52.8568C5.52294 53.055 5.4115 53.324 5.4115 53.6043C5.4115 53.8845 5.52294 54.1532 5.72109 54.3514L13.0261 61.657C13.2246 61.8552 13.4933 61.9666 13.7735 61.9666C14.0538 61.9666 14.3225 61.8552 14.521 61.657L17.5846 58.5931C20.1256 60.176 22.878 61.3168 25.7867 61.9927V66.323C25.7867 66.9069 26.2598 67.3801 26.8434 67.3801H37.1744C37.758 67.3801 38.2315 66.9069 38.2315 66.323V61.9927C41.1415 61.3164 43.8935 60.1757 46.4336 58.5931L49.4972 61.6567C49.6954 61.8548 49.9641 61.9663 50.2443 61.9663C50.5246 61.9663 50.7933 61.8548 50.9918 61.6567L58.2971 54.3517C58.4952 54.1532 58.6067 53.8845 58.6067 53.6043C58.6067 53.324 58.4952 53.0553 58.2971 52.8568L55.2331 49.7932C56.816 47.2521 57.9568 44.5004 58.6331 41.5911H62.9634C63.547 41.5911 64.0201 41.118 64.0201 40.5344V35.3689C64.0205 34.7849 63.547 34.3118 62.9634 34.3118ZM45.8032 36.4256C45.2618 43.5621 39.2819 49.203 32.0093 49.203C24.7366 49.203 18.7567 43.5621 18.2153 36.4256H45.8032ZM61.9067 39.4773H57.7804C57.2763 39.4773 56.8424 39.8334 56.7438 40.3276C56.0989 43.5627 54.8404 46.5987 53.004 49.3511C52.7244 49.7701 52.7794 50.3286 53.1355 50.685L56.0554 53.6043L50.2447 59.415L47.3251 56.4955C46.9687 56.1391 46.4105 56.084 45.9911 56.3636C43.2404 58.1997 40.2044 59.4582 36.968 60.1034C36.4738 60.202 36.1177 60.6359 36.1177 61.14V65.2663H27.9005V61.1397C27.9005 60.6359 27.5444 60.2017 27.0501 60.1034C23.8157 59.4585 20.7798 58.2004 18.0271 56.3633C17.6077 56.0833 17.0495 56.1387 16.6931 56.4951L13.7732 59.415L7.96277 53.6043L10.8826 50.6847C11.2391 50.3283 11.2941 49.7698 11.0145 49.3504C9.1784 46.5997 7.91991 43.5637 7.27467 40.3276C7.17609 39.8334 6.74252 39.4773 6.2384 39.4773H2.1118V36.4252H16.0976C16.6433 44.7279 23.5707 51.3164 32.0093 51.3164C40.4478 51.3164 47.3752 44.7282 47.9212 36.4252H61.9067V39.4773ZM2.14444 32.7441H27.2262C27.8098 32.7441 28.2829 32.2706 28.2829 31.687C28.2829 30.4882 28.1263 29.3253 27.8335 28.2169H36.1847C35.8919 29.325 35.7353 30.4882 35.7353 31.687C35.7353 32.2706 36.2084 32.7441 36.792 32.7441H61.8737C62.4573 32.7441 62.9308 32.2706 62.9308 31.687C62.9308 25.7378 59.09 20.6695 53.758 18.8295C55.8154 17.416 57.1678 15.0474 57.1678 12.3685C57.1678 8.04838 53.6532 4.53371 49.3327 4.53371C45.0126 4.53371 41.4982 8.04838 41.4982 12.3685C41.4982 15.0474 42.8507 17.416 44.908 18.8295C44.3363 19.0266 43.7821 19.261 43.2476 19.5298C41.576 17.0797 39.1665 15.2601 36.425 14.3092C38.4873 12.8964 39.8441 10.5245 39.8441 7.84132C39.8441 3.52118 36.3294 0.00683594 32.0093 0.00683594C27.6891 0.00683594 24.1744 3.52118 24.1744 7.84132C24.1744 10.5245 25.5309 12.8964 27.5935 14.3092C24.852 15.2601 22.4425 17.0797 20.7709 19.5298C20.2364 19.2614 19.6822 19.0266 19.1105 18.8295C21.1675 17.416 22.5203 15.0474 22.5203 12.3685C22.5203 8.04838 19.0056 4.53371 14.6855 4.53371C10.3653 4.53371 6.85067 8.04838 6.85067 12.3685C6.85067 15.0474 8.20279 17.416 10.2602 18.8295C4.92848 20.6695 1.08773 25.7378 1.08773 31.687C1.08773 32.2706 1.56086 32.7441 2.14444 32.7441ZM43.612 12.3685C43.612 9.21389 46.1784 6.64746 49.333 6.64746C52.4877 6.64746 55.0544 9.21389 55.0544 12.3685C55.0544 15.5232 52.4877 18.0896 49.333 18.0896C46.1784 18.0896 43.612 15.5232 43.612 12.3685ZM60.7689 30.6303H37.8972C38.4326 24.7915 43.3571 20.203 49.333 20.203C55.309 20.203 60.2335 24.7915 60.7689 30.6303ZM26.2882 7.84132C26.2882 4.68669 28.8546 2.12026 32.0093 2.12026C35.1639 2.12026 37.7303 4.68669 37.7303 7.84132C37.7303 10.996 35.1639 13.5624 32.0093 13.5624C28.8546 13.5624 26.2882 10.996 26.2882 7.84132ZM32.0093 15.6761C35.7659 15.6761 39.2921 17.5502 41.4352 20.6247C39.4926 22.0154 37.9298 23.9043 36.9354 26.1034H27.0831C26.0887 23.9043 24.5259 22.0154 22.5833 20.6247C24.726 17.5502 28.2523 15.6761 32.0093 15.6761ZM8.96442 12.3685C8.96442 9.21389 11.5309 6.64746 14.6855 6.64746C17.8401 6.64746 20.4066 9.21389 20.4066 12.3685C20.4066 15.5232 17.8401 18.0896 14.6855 18.0896C11.5309 18.0896 8.96442 15.5232 8.96442 12.3685ZM14.6855 20.2033C20.6614 20.2033 25.5859 24.7915 26.121 30.6303H3.24961C3.78473 24.7915 8.70955 20.2033 14.6855 20.2033Z" fill="#AF7B20"/>
</g>
</svg>
