<svg width="68" height="68" viewBox="0 0 68 68" fill="none" xmlns="http://www.w3.org/2000/svg">
<mask id="mask0_606_1349" style="mask-type:luminance" maskUnits="userSpaceOnUse" x="3" y="0" width="65" height="61">
<path d="M3 0H67.7043V60.7803H3V0Z" fill="white"/>
</mask>
<g mask="url(#mask0_606_1349)">
<path d="M17.9731 4.44353C20.6041 4.44353 22.7366 6.57476 22.7366 9.20707C22.7366 10.8621 21.8866 12.3421 20.5621 13.2033C23.4522 13.3544 25.7539 15.7598 25.7539 18.6679V23.3039C25.7539 23.7689 25.3771 24.1457 24.9124 24.1457H11.0366C10.5716 24.1457 10.1952 23.7689 10.1952 23.3039V18.6679C10.1952 15.7585 12.4969 13.3531 15.387 13.2033C12.8472 11.5564 12.4579 7.98323 14.6055 5.83692C15.4696 4.97413 16.6597 4.44353 17.9731 4.44353ZM20.1532 7.02272C18.2167 5.09054 14.8898 6.46687 14.8898 9.20576C14.8898 11.9443 18.2154 13.3223 20.1532 11.3842C21.3586 10.183 21.3586 8.22984 20.1532 7.02272ZM20.2791 14.8777H15.667C13.5837 14.8777 11.8768 16.5846 11.8768 18.6679V22.4624H24.0736V18.6679C24.0736 16.5846 22.3628 14.8777 20.2791 14.8777ZM17.9731 0.0371094C25.9346 0.0371094 32.3571 6.55378 32.2296 14.5278C33.1468 14.0949 34.1031 13.7493 35.096 13.5V12.003C35.096 10.7205 36.1431 9.67339 37.4257 9.67339H40.7962C42.0813 9.67339 43.13 10.7205 43.13 12.003V13.5C44.6271 13.8808 46.044 14.4687 47.3614 15.2545L48.4216 14.1946C49.3303 13.2898 50.8102 13.2898 51.7202 14.1946L54.102 16.5803C55.0107 17.489 55.0107 18.969 54.102 19.8793L53.0461 20.9349C53.8275 22.2568 54.4198 23.6738 54.8005 25.1705H56.2975C57.58 25.1705 58.6275 26.2179 58.6275 27.5047V30.8706C58.6275 32.1561 57.58 33.2048 56.2975 33.2048H54.8005C54.4198 34.7015 53.8288 36.1185 53.0461 37.4404L54.102 38.496C55.0107 39.4047 55.0107 40.8847 54.102 41.7947L51.7202 44.1807C50.8115 45.0851 49.3316 45.0851 48.4216 44.1807L47.3614 43.1208C46.044 43.9062 44.6271 44.4942 43.13 44.8753V46.3719C43.13 47.6545 42.083 48.7019 40.7962 48.7019H37.4257C36.1431 48.7019 35.096 47.6545 35.096 46.3719V44.8753C34.4126 44.7001 33.7309 44.4788 33.0796 44.2158C31.678 45.3554 29.897 46.0375 27.9635 46.0375H11.139C6.66236 46.0375 2.99805 42.3745 2.99805 37.8969C2.99805 33.416 6.65842 29.752 11.139 29.752H19.5973V28.4623C11.1235 29.4228 3.71786 22.8028 3.71786 14.2966C3.71655 6.41932 10.0984 0.0371094 17.9731 0.0371094ZM32.0591 16.5006C31.1697 22.2204 26.8754 26.8354 21.2789 28.1655V29.7491H27.9635C28.1104 29.7491 28.2531 29.7533 28.4003 29.7602C28.0629 23.6203 32.9691 18.4567 39.1129 18.4567C45.0343 18.4567 49.8412 23.2593 49.8412 29.1847C49.8412 36.4166 42.8362 41.5527 35.9569 39.4368C35.7063 40.7266 35.1518 41.9098 34.3693 42.905C34.8061 43.0562 35.6309 43.3015 36.048 43.3727C36.4612 43.4288 36.7747 43.7816 36.7747 44.206V46.3651C36.7747 46.7222 37.0689 47.016 37.4257 47.016H40.7962C41.1529 47.016 41.4471 46.7222 41.4471 46.3651V44.206H41.4514C41.4514 43.8167 41.7216 43.4681 42.1177 43.3842C42.9943 43.2018 43.8485 42.9359 44.6618 42.5942C45.4754 42.2567 46.2497 41.8521 46.9764 41.3831C47.3056 41.1296 47.7788 41.1536 48.0799 41.4546L49.6074 42.9821C49.8609 43.2356 50.278 43.2356 50.5315 42.9821L52.9132 40.6003C53.1638 40.3498 53.1638 39.9297 52.9132 39.6792L51.3857 38.1517V38.1474C51.1113 37.8729 51.0565 37.4374 51.2778 37.1C51.7579 36.3579 52.178 35.5682 52.524 34.7349C52.8572 33.9328 53.1149 33.1038 53.3025 32.2427C53.3586 31.8341 53.7072 31.5202 54.1354 31.5202H56.2946C56.6517 31.5202 56.9458 31.2221 56.9458 30.865V27.4991C56.9458 27.142 56.6517 26.8436 56.2946 26.8436H54.1354C53.7423 26.8436 53.3976 26.5691 53.3136 26.1772C53.1274 25.2964 52.8614 24.4467 52.524 23.6289C52.1865 22.8153 51.7819 22.0453 51.3129 21.3186C51.0594 20.9897 51.0831 20.5135 51.3841 20.2112L52.9119 18.6833C53.1625 18.4328 53.1625 18.0127 52.9119 17.7622L50.5302 15.3804C50.2767 15.1269 49.8595 15.1269 49.606 15.3804L48.0785 16.9079V16.904C47.8041 17.1781 47.3686 17.2329 47.0311 17.0145C46.289 16.5301 45.4994 16.114 44.6618 15.7683C43.864 15.4352 43.0307 15.1731 42.1738 14.9898C41.7649 14.9338 41.4471 14.5809 41.4471 14.1566V11.9974C41.4471 11.6407 41.1529 11.3465 40.7962 11.3465H37.4257C37.0689 11.3465 36.7747 11.6407 36.7747 11.9974V14.1566C36.7747 14.5458 36.5002 14.8944 36.1041 14.9787C34.6914 15.2781 33.3177 15.7992 32.0591 16.5006ZM26.8685 5.39978C21.9551 0.490967 13.9923 0.490967 9.07922 5.39978C4.17008 10.3089 4.17008 18.276 9.07922 23.1852C13.9923 28.0983 21.9551 28.0983 26.8685 23.1852C31.7774 18.2747 31.7774 10.3089 26.8685 5.39978ZM14.155 40.2826C14.6154 40.2826 14.9922 40.6594 14.9922 41.1241C14.9922 41.5891 14.6154 41.9655 14.155 41.9655H12.329C10.086 41.9655 8.25742 40.1314 8.25742 37.8939C8.25742 35.6509 10.0873 33.8223 12.329 33.8223H14.155C14.6154 33.8223 14.9922 34.1988 14.9922 34.6595C14.9922 35.1242 14.6154 35.501 14.155 35.501H12.329C10.2329 35.501 9.12251 38.0605 10.6418 39.5811C11.0744 40.0137 11.6738 40.2839 12.329 40.2839H14.155V40.2826ZM24.7163 41.1241C24.7163 41.5891 24.3399 41.9655 23.8749 41.9655C23.4141 41.9655 23.0376 41.5891 23.0376 41.1241V34.6582C23.0376 33.9272 23.9421 33.4944 24.5133 34.1148L26.9384 36.5484L29.4113 34.0715C29.939 33.5393 30.8395 33.92 30.8395 34.6595H30.8434V41.1254C30.8434 41.5904 30.4669 41.9672 30.0019 41.9672C29.5373 41.9672 29.1647 41.5904 29.1647 41.1254V36.6911L27.5306 38.3265C27.206 38.6514 26.6738 38.6514 26.3475 38.3222L24.7163 36.6911V41.1241ZM20.1013 38.5563L21.395 40.6915C21.6374 41.085 21.5098 41.6002 21.1137 41.8383C20.7202 42.0803 20.205 41.9531 19.9669 41.5569L18.2167 38.6669H17.8557V41.1241C17.8557 41.5891 17.4831 41.9655 17.0181 41.9655C16.5534 41.9655 16.1767 41.5891 16.1767 41.1241V34.6582C16.1767 34.1975 16.5534 33.8207 17.0181 33.8207H19.3523C21.5547 33.8207 22.7182 36.432 21.1068 37.968C20.8267 38.2356 20.4824 38.4373 20.1013 38.5563ZM17.854 35.501V36.9895H19.351C20.0735 36.9895 20.4457 36.208 19.9502 35.7348C19.799 35.5922 19.5888 35.501 19.351 35.501H17.854ZM30.1029 30.039C33.5318 30.9755 36.0283 34.0909 36.1041 37.7273C41.9147 39.7756 48.1582 35.4813 48.1582 29.1863C48.1582 24.189 44.1102 20.1367 39.1129 20.1367C33.7896 20.1367 29.6183 24.693 30.1029 30.039ZM27.9635 31.432H11.139C7.58647 31.432 4.67706 34.3418 4.67706 37.8939C4.67706 41.4461 7.58647 44.3558 11.139 44.3558H27.9635C31.5157 44.3558 34.4251 41.4461 34.4251 37.8939C34.4251 34.3418 31.5157 31.432 27.9635 31.432ZM33.0042 2.98587C32.5559 3.0895 32.1037 2.80682 32 2.35461C31.8964 1.90239 32.1794 1.4541 32.6316 1.35048C42.384 -0.895202 52.3895 2.0493 59.3148 8.97883C70.4756 20.1397 70.4756 38.23 59.3148 49.3909C50.9922 57.7135 38.354 60.1107 27.5461 55.3163L29.0624 59.6024C29.2179 60.0392 28.987 60.5193 28.5502 60.6734C28.1131 60.8246 27.6372 60.598 27.4818 60.1608L25.2794 53.9455C25.124 53.5087 25.3548 53.0283 25.7916 52.8745L32.0072 50.6718C32.4441 50.5167 32.9241 50.7475 33.0753 51.1843C33.2308 51.6212 32.9999 52.1016 32.5631 52.2528L28.2321 53.7888C38.3934 58.2903 50.2921 56.0345 58.1274 48.2005C68.6287 37.6991 68.6287 20.6716 58.1274 10.1689C51.6153 3.65682 42.1528 0.863498 33.0042 2.98587Z" fill="#AF7B20"/>
</g>
</svg>
