<svg width="80" height="80" viewBox="0 0 80 80" fill="none" xmlns="http://www.w3.org/2000/svg">
<path d="M22.8262 5.72461H25.2401V8.13858H22.8262V5.72461Z" fill="#AF7B20"/>
<path d="M17.8818 5.72461H20.2889V8.13858H17.8818V5.72461Z" fill="#AF7B20"/>
<path d="M27.7773 5.72461H30.1913V8.13858H27.7773V5.72461Z" fill="#AF7B20"/>
<path d="M34.7727 33.3613C34.2924 33.3613 33.929 33.7251 33.689 34.205C33.449 34.9319 33.209 35.6587 32.8456 36.379C32.6056 36.8659 32.6056 37.3458 32.9621 37.7093L34.7727 39.8763L32.6056 42.0503L30.3082 40.3632C29.9448 39.9998 29.3414 39.9998 28.9845 40.2397C28.2577 40.6032 27.5308 40.9666 26.8109 41.0831C26.324 41.2066 25.9671 41.57 25.9671 42.1738L25.6037 44.9512H22.4629L22.0995 42.1738C22.0995 41.6934 21.7361 41.33 21.2561 41.0831C20.5358 40.8431 19.809 40.6032 19.0821 40.2397C18.6022 39.9998 18.1219 39.9998 17.7584 40.3632L15.5848 42.1738L13.4108 39.9998L15.221 37.8258C15.5848 37.4623 15.5848 36.8659 15.3445 36.5021C14.981 35.7752 14.6176 35.0484 14.5011 34.3285C14.3776 33.8416 14.0142 33.4847 13.4108 33.4847L10.6334 33.1213V29.9805L13.4108 29.624C13.8977 29.624 14.2542 29.2606 14.5011 28.7737C14.7411 28.0534 14.981 27.3265 15.3445 26.5997C15.5848 26.1198 15.5848 25.6398 15.221 25.276L13.4108 22.9789L15.5848 20.8119L17.7584 22.6221C18.1219 22.9789 18.7256 22.9789 19.0821 22.739C19.809 22.3821 20.5358 22.0187 21.2561 21.8952C21.743 21.7787 22.0995 21.4153 22.0995 20.8119L22.4629 18.0345H25.6037L25.9671 20.8119C25.9671 21.2918 26.324 21.6552 26.8109 21.8952C27.5308 22.1352 28.2577 22.3821 28.9845 22.739C29.4648 22.9789 29.9448 22.9789 30.3082 22.6221L32.4822 20.8119L34.6558 22.9789L32.8456 25.1529C32.4822 25.5164 32.4822 26.1198 32.7222 26.4832C33.0856 27.21 33.449 27.9299 33.5655 28.6572C33.689 29.1371 34.0524 29.5005 34.6558 29.5005L37.4332 29.864V32.9978L34.7727 33.3613ZM38.8803 35.2953C39.4837 35.1718 39.9637 34.6919 39.9637 34.0885V28.7737C39.9637 28.1703 39.4837 27.69 38.8803 27.5665L35.7395 27.21C35.623 26.8466 35.3761 26.3597 35.2596 26.0032L37.1863 23.5893C37.5501 23.1024 37.5501 22.3821 37.0698 22.0187L33.3256 18.2745C32.8456 17.7945 32.2422 17.7945 31.755 18.151L29.3414 20.085C28.9779 19.8447 28.6211 19.7216 28.1342 19.6047L27.8942 16.5873C27.7777 15.984 27.2908 15.4971 26.6874 15.4971H21.3796C20.7758 15.4971 20.2889 15.984 20.1724 16.5873L19.809 19.7216C19.4455 19.8447 18.9656 20.085 18.6022 20.2085L16.1882 18.2745C15.7079 17.911 14.981 17.911 14.6176 18.3979L10.8803 22.1352C10.3935 22.6221 10.3935 23.2259 10.7569 23.7058L12.6905 26.1198C12.4436 26.4832 12.3271 26.8466 12.2036 27.3265L9.06977 27.69C8.46637 27.8134 7.97949 28.2938 7.97949 28.8971V34.205C7.97949 34.8084 8.46637 35.2953 9.06977 35.4118L12.2036 35.7752C12.3271 36.1387 12.5671 36.619 12.6905 36.9824L10.7569 39.3964C10.3935 39.8833 10.3935 40.6032 10.8803 40.9666L14.6176 44.7042C15.1045 45.1911 15.7079 45.1911 16.1882 44.8277L18.6022 42.9006C18.9656 43.1406 19.329 43.2571 19.809 43.3806L20.1724 46.5214C20.2889 47.1248 20.7758 47.6051 21.3796 47.6051H26.6874C27.2908 47.6051 27.7777 47.1182 27.8942 46.5214L28.2577 43.3806C28.6211 43.2571 29.101 43.0171 29.4648 42.9006L31.8784 44.8277C32.3587 45.1911 33.0856 45.1911 33.449 44.7042L37.1863 40.9666C37.6732 40.4797 37.6732 39.8763 37.3097 39.3964L35.383 36.9824C35.623 36.619 35.7395 36.2556 35.863 35.7752L38.8803 35.2953Z" fill="#AF7B20"/>
<path d="M24.0331 37.1059C21.0153 37.1059 18.4849 34.5684 18.4849 31.5511C18.4849 28.5337 21.0153 26.0032 24.0331 26.0032C27.0505 26.0032 29.5879 28.5337 29.5879 31.5511C29.5879 34.5684 27.1739 37.1059 24.0331 37.1059ZM24.0331 23.4658C19.6851 23.4658 16.0713 27.0866 16.0713 31.4346C16.0713 35.7752 19.6851 39.3964 24.0331 39.3964C28.3807 39.3964 32.0015 35.7752 32.0015 31.4346C32.0015 27.0866 28.4972 23.4658 24.0331 23.4658Z" fill="#AF7B20"/>
<path d="M22.8259 51.3496H9.30933C8.58248 51.3496 8.10254 51.8295 8.10254 52.5564C8.10254 53.2767 8.58248 53.7636 9.30933 53.7636H22.8259C23.5528 53.7636 24.0331 53.2767 24.0331 52.5564C24.0331 51.9461 23.5528 51.3496 22.8259 51.3496Z" fill="#AF7B20"/>
<path d="M22.8259 57.5H9.30933C8.58248 57.5 8.10254 57.9799 8.10254 58.7072C8.10254 59.434 8.58248 59.914 9.30933 59.914H22.8259C23.5528 59.914 24.0331 59.434 24.0331 58.7072C24.0331 58.1034 23.5528 57.5 22.8259 57.5Z" fill="#AF7B20"/>
<path d="M22.8259 63.6582H9.30933C8.58248 63.6582 8.10254 64.1385 8.10254 64.8654C8.10254 65.5853 8.58248 66.0722 9.30933 66.0722H22.8259C23.5528 66.0722 24.0331 65.5853 24.0331 64.8654C24.0331 64.262 23.5528 63.6582 22.8259 63.6582Z" fill="#AF7B20"/>
<mask id="mask0_606_1357" style="mask-type:luminance" maskUnits="userSpaceOnUse" x="1" y="1" width="78" height="78">
<path d="M1.46484 1.37695H78.4633V78.6223H1.46484V1.37695Z" fill="white"/>
</mask>
<g mask="url(#mask0_606_1357)">
<path d="M71.9487 47.8449L68.4514 44.7041L72.552 40.1231L76.0497 43.257L71.9487 47.8449ZM44.1886 16.2238L41.5347 19.1177L40.6913 15.7369L44.1886 16.2238ZM42.618 21.5317L46.726 16.9441L70.7419 38.429L66.6408 43.017L42.618 21.5317ZM54.0844 45.0675C54.0844 48.6883 51.1902 51.5822 47.5694 51.5822C43.9486 51.5822 41.0547 48.6883 41.0547 45.0675C41.0547 41.4464 43.9486 38.5525 47.5694 38.5525C51.1902 38.5525 54.0844 41.4464 54.0844 45.0675ZM13.5347 10.1891V3.79092H34.6562V10.1891H13.5347ZM31.152 62.9317C31.152 59.5509 33.9294 56.7736 37.3101 56.7736H39.9641L46.8426 63.6586C47.0825 63.8986 47.3294 64.0155 47.6929 64.0155C48.0493 64.0155 48.2897 63.8986 48.5362 63.6586L55.4147 56.7736H58.0686C61.4494 56.7736 64.2268 59.5509 64.2268 62.9317V76.2084H59.0355V66.3125C59.0355 65.5857 58.5555 65.1057 57.8287 65.1057C57.1018 65.1057 56.6215 65.5857 56.6215 66.3125V76.2084H38.7573V66.3125C38.7573 65.5857 38.2774 65.1057 37.5505 65.1057C36.8302 65.1057 36.3433 65.5857 36.3433 66.3125V76.2084H31.152V62.9317ZM77.7434 41.4464L73.3958 37.4622C64.1034 29.2604 45.032 11.9996 46.726 14.0498V8.98228C46.726 7.65164 45.6358 6.56831 44.3121 6.56831H37.0702V3.79092C37.0702 2.46029 35.9799 1.37695 34.6562 1.37695H13.5347C12.204 1.37695 11.1207 2.46029 11.1207 3.79092V6.44485H3.87881C2.54856 6.44485 1.46484 7.53513 1.46484 8.85882V69.9337C1.46484 71.257 2.54856 72.3476 3.87881 72.3476H28.7449L28.738 77.4151C28.738 78.1354 29.2249 78.6223 29.9452 78.6223H65.3105C66.0374 78.6223 66.5173 78.1354 66.5173 77.4151V62.9317C66.5173 58.2273 62.6566 54.3596 57.9521 54.3596H54.8113C54.4479 54.3596 54.2079 54.483 53.9676 54.723L47.6929 61.0047L41.4182 54.723C41.1713 54.483 40.9313 54.3596 40.5679 54.3596H37.4336C32.7226 54.3596 28.8615 58.2273 28.8615 62.9317V70.0502H4.00227V8.98228H11.2442V10.1891C11.2442 11.5193 12.3275 12.603 13.6581 12.603H34.7731C36.1034 12.603 37.1867 11.5193 37.1867 10.1891V8.98228H44.4286V13.8098L39.4841 13.2064C38.6408 13.083 38.0374 13.9263 38.1539 14.6536C38.7573 16.9441 39.8476 21.7716 39.9641 22.1351C40.2044 22.6219 40.0875 22.382 44.4286 26.3596V36.8588C41.1713 38.1891 38.8807 41.3299 38.8807 45.0675C38.8807 50.0185 42.8649 53.9962 47.8094 53.9962C52.7608 53.9962 56.7449 50.0185 56.7449 45.0675C56.7449 40.1231 52.7608 36.1385 47.8094 36.1385H46.8426V28.4101L70.3781 49.6551C71.3453 50.4989 72.9155 50.4989 73.7592 49.4151L77.8669 44.8276C78.3468 44.3407 78.4633 43.7439 78.4633 43.017C78.4703 42.4136 78.2233 41.8102 77.7434 41.4464Z" fill="#AF7B20"/>
</g>
</svg>
