<svg width="75" height="74" viewBox="0 0 75 74" fill="none" xmlns="http://www.w3.org/2000/svg">
<path d="M56.2908 42.8168C55.3187 42.8164 54.3598 42.9256 53.4133 43.1444C52.4671 43.3636 51.5587 43.6863 50.6886 44.1131L43.5586 41.7715L46.2322 47.6886C46.0868 47.8738 45.9472 48.0629 45.8126 48.2557C45.6779 48.4486 45.5489 48.645 45.4256 48.8449C45.302 49.0448 45.1844 49.2482 45.0728 49.4547C44.9609 49.6612 44.855 49.8706 44.7549 50.0827C44.655 50.2952 44.5612 50.5102 44.4735 50.7275C44.3857 50.9449 44.304 51.1648 44.2287 51.3867C44.1537 51.6087 44.0848 51.8327 44.0222 52.0585C43.9594 52.2843 43.9036 52.5115 43.8538 52.7404C43.8041 52.9694 43.7611 53.1994 43.7245 53.4307C43.6879 53.6618 43.6581 53.8939 43.6346 54.127C43.6112 54.3598 43.5945 54.5933 43.5842 54.8268C43.5742 55.0607 43.5707 55.2948 43.5739 55.5287C43.5771 55.7629 43.5867 55.9967 43.6034 56.2299C43.6197 56.4634 43.6428 56.6965 43.6723 56.9286C43.7021 57.1607 43.7384 57.3921 43.781 57.6221C43.824 57.8524 43.873 58.0814 43.9288 58.3089C43.9846 58.5364 44.0471 58.7622 44.1157 58.9863C44.1843 59.2103 44.2592 59.4323 44.3402 59.6521C44.4216 59.8719 44.509 60.0897 44.6024 60.3046C44.6962 60.5199 44.7957 60.7324 44.9016 60.9417C45.0071 61.1514 45.1187 61.358 45.2359 61.5614C45.3535 61.7651 45.4764 61.965 45.6051 62.1617C45.734 62.3585 45.8683 62.5513 46.008 62.7407C46.1476 62.9301 46.2925 63.1153 46.4428 63.2966C46.5931 63.478 46.7484 63.6547 46.9086 63.8277C47.0689 64.0003 47.2341 64.1686 47.4039 64.3321C47.5737 64.4956 47.7482 64.6545 47.9269 64.8086C48.1059 64.9626 48.2889 65.1114 48.4762 65.2552C48.6638 65.3995 48.8549 65.5381 49.05 65.6715C49.2454 65.8048 49.444 65.9326 49.6465 66.0548C49.849 66.1773 50.0547 66.2942 50.264 66.4052C50.4729 66.5162 50.685 66.6212 50.9003 66.7206C51.1153 66.82 51.333 66.9135 51.5533 67.0007C51.7736 67.0882 51.9964 67.1694 52.2216 67.2443C52.4465 67.3196 52.6736 67.3882 52.9024 67.4509C53.1312 67.5135 53.3618 67.5695 53.5938 67.6192C53.8258 67.6693 54.0592 67.7127 54.2937 67.7495C54.5282 67.7866 54.7637 67.817 55 67.8412C55.2363 67.865 55.4732 67.8825 55.7102 67.8933C55.9476 67.9042 56.1852 67.9087 56.4226 67.9066C56.6603 67.9045 56.8976 67.8958 57.1346 67.8804C57.3716 67.8653 57.6078 67.8436 57.8437 67.8153C58.0796 67.7869 58.3145 67.7523 58.5483 67.7109C58.7821 67.6696 59.0144 67.622 59.2457 67.5681C59.4766 67.5139 59.7062 67.4537 59.9339 67.3868C60.1616 67.3203 60.3873 67.2471 60.6107 67.168C60.8342 67.0889 61.0552 67.0038 61.2741 66.9125C61.4926 66.8211 61.7086 66.7238 61.9218 66.6205C62.1349 66.5172 62.3453 66.408 62.552 66.2932C62.7592 66.1784 62.9627 66.0579 63.1628 65.9319C63.3628 65.8059 63.5593 65.6743 63.7518 65.5374C63.9448 65.4005 64.1334 65.2584 64.3178 65.1114C64.5026 64.964 64.6827 64.8117 64.8586 64.6545C65.0348 64.4974 65.2061 64.3353 65.3727 64.1686C65.5397 64.002 65.7013 63.8308 65.8584 63.6551C66.0154 63.4794 66.1675 63.2998 66.3142 63.1156C66.4609 62.9319 66.6027 62.7439 66.7388 62.552C66.8748 62.3602 67.0056 62.1649 67.1303 61.966C67.2554 61.7668 67.3747 61.5645 67.4884 61.359C67.6018 61.1535 67.7094 60.9449 67.8114 60.7335C67.913 60.522 68.0086 60.3078 68.0981 60.0911C68.1876 59.874 68.2711 59.6553 68.3482 59.4337C68.4253 59.2124 68.496 58.9891 68.5603 58.7636C68.6246 58.5385 68.6826 58.3117 68.7344 58.0831C68.786 57.8545 68.8307 57.6249 68.8691 57.3938C68.9078 57.1631 68.9398 56.931 68.965 56.6986C68.9902 56.4658 69.0091 56.2327 69.0212 55.9988C69.0329 55.765 69.0386 55.5311 69.0371 55.2969C69.0361 55.0631 69.0283 54.8293 69.0137 54.5958C68.9991 54.3619 68.9778 54.1291 68.9501 53.8967C68.9224 53.6642 68.8883 53.4325 68.8474 53.2022C68.8062 52.9715 68.7589 52.7422 68.7049 52.5143C68.6509 52.2864 68.5909 52.0602 68.5241 51.8355C68.4573 51.6108 68.3841 51.3881 68.3045 51.1676C68.2253 50.947 68.1397 50.7289 68.0477 50.513C67.956 50.2973 67.8583 50.0841 67.7542 49.8734C67.6504 49.663 67.5407 49.4558 67.4248 49.2513C67.309 49.0469 67.1875 48.8459 67.0607 48.6482C66.9335 48.4504 66.8006 48.2564 66.6627 48.066C66.5245 47.8756 66.381 47.689 66.2321 47.5066C66.0836 47.3242 65.9298 47.146 65.771 46.972C65.6121 46.7977 65.4484 46.6283 65.28 46.4634C65.1112 46.2985 64.9382 46.1382 64.7605 45.9828C64.5832 45.8273 64.4013 45.6768 64.2151 45.5315C64.029 45.3863 63.8389 45.2459 63.6446 45.1111C63.4506 44.976 63.2527 44.8468 63.0512 44.7225C62.8498 44.5986 62.6451 44.4803 62.4369 44.3676C62.2287 44.2548 62.0177 44.1481 61.8034 44.0469C61.5892 43.9457 61.3721 43.8509 61.1525 43.7616C60.9326 43.6727 60.7109 43.5894 60.4864 43.5127C60.2622 43.4357 60.0355 43.3653 59.8074 43.3009C59.579 43.2365 59.3487 43.1784 59.1171 43.1266C58.8854 43.0751 58.6527 43.0296 58.4182 42.9908C58.1841 42.9519 57.9489 42.9197 57.713 42.8938C57.4767 42.8679 57.2401 42.8486 57.0028 42.8357C56.7658 42.8231 56.5285 42.8168 56.2908 42.8168Z" fill="black"/>
<path d="M21.2773 8.31738H23.3995V10.4083H21.2773V8.31738Z" fill="#AF7B20"/>
<path d="M31.8867 8.31738H34.0085V10.4083H31.8867V8.31738Z" fill="#AF7B20"/>
<path d="M20.5223 42.0742L18.0929 44.4788L15.663 42.0742L14.1562 43.5588L16.5967 45.9526L14.1562 48.3467L15.663 49.8313L18.0929 47.4267L20.5223 49.8313L22.0291 48.3467L19.5886 45.9526L22.0291 43.5588L20.5223 42.0742Z" fill="#AF7B20"/>
<path d="M15.663 21.1658L14.1562 22.6504L16.2784 24.7413C16.3278 24.7904 16.3814 24.8341 16.4393 24.8726C16.4976 24.9111 16.5591 24.9437 16.6237 24.9703C16.6884 24.9965 16.7548 25.0168 16.8238 25.0302C16.8923 25.0438 16.9616 25.0505 17.0316 25.0505C17.1016 25.0505 17.1712 25.0438 17.2398 25.0302C17.3084 25.0168 17.3752 24.9965 17.4398 24.9703C17.5045 24.9437 17.5656 24.9111 17.6239 24.8726C17.6821 24.8341 17.7358 24.7904 17.7852 24.7413L22.0291 20.5595L20.5223 19.0752L17.0316 22.5251L15.663 21.1658Z" fill="#AF7B20"/>
<path d="M17.0316 34.0251L15.663 32.6661L14.1562 34.1504L16.2784 36.2413C16.3278 36.2904 16.3814 36.3341 16.4393 36.3726C16.4976 36.4111 16.5591 36.4437 16.6237 36.4703C16.6884 36.4969 16.7548 36.5168 16.8238 36.5302C16.8923 36.5438 16.9616 36.5505 17.0316 36.5505C17.1016 36.5505 17.1712 36.5438 17.2398 36.5302C17.3084 36.5168 17.3752 36.4969 17.4398 36.4703C17.5045 36.4437 17.5656 36.4111 17.6239 36.3726C17.6821 36.3341 17.7358 36.2904 17.7852 36.2413L22.0291 32.0598L20.5223 30.5752L17.0316 34.0251Z" fill="#AF7B20"/>
<path d="M24.459 18.7715H42.4963V20.8621H24.459V18.7715Z" fill="#AF7B20"/>
<path d="M24.459 22.9531H42.4963V25.0441H24.459V22.9531Z" fill="#AF7B20"/>
<path d="M24.459 30.2715H42.4963V32.3624H24.459V30.2715Z" fill="#AF7B20"/>
<path d="M24.459 34.4531H42.4963V36.5441H24.459V34.4531Z" fill="#AF7B20"/>
<path d="M24.459 42.8164H42.4963V44.9073H24.459V42.8164Z" fill="#AF7B20"/>
<path d="M24.459 46.998H38.2524V49.089H24.459V46.998Z" fill="#AF7B20"/>
<path d="M40.375 46.998H42.4968V49.089H40.375V46.998Z" fill="#AF7B20"/>
<mask id="mask0_475_1248" style="mask-type:luminance" maskUnits="userSpaceOnUse" x="4" y="4" width="67" height="65">
<path d="M4.24609 4.13574H70.1548V68.9856H4.24609V4.13574Z" fill="white"/>
</mask>
<g mask="url(#mask0_475_1248)">
<path d="M56.2891 41.7712C55.3781 41.7667 54.4761 41.8524 53.5829 42.0285C52.6893 42.2046 51.8231 42.4672 50.9839 42.8165V7.27232C50.9839 7.20336 50.9772 7.13545 50.9637 7.06824C50.9502 7.00102 50.9299 6.93556 50.9033 6.8722C50.8766 6.80884 50.8439 6.74828 50.8052 6.69122C50.7665 6.63416 50.7224 6.58165 50.6734 6.53299C50.624 6.48433 50.5704 6.44092 50.5124 6.40276C50.4545 6.36496 50.3934 6.33275 50.3291 6.30615C50.2648 6.27989 50.1984 6.26029 50.1302 6.24698C50.0616 6.23333 49.9927 6.22668 49.923 6.22668H39.3126V5.18139C39.3126 5.11277 39.3059 5.04451 39.2924 4.9773C39.2785 4.91009 39.2586 4.84462 39.232 4.78126C39.2053 4.7179 39.1727 4.65769 39.1339 4.60063C39.0952 4.54357 39.0511 4.49071 39.0018 4.44205C38.9527 4.39339 38.8991 4.35033 38.8412 4.31217C38.7833 4.27402 38.7221 4.24181 38.6578 4.21556C38.5932 4.1893 38.5271 4.16935 38.4585 4.15605C38.3903 4.14274 38.3214 4.13574 38.2517 4.13574H17.031C16.9614 4.13574 16.8924 4.14274 16.8242 4.15605C16.7556 4.16935 16.6896 4.1893 16.6249 4.21556C16.5606 4.24181 16.4995 4.27402 16.4416 4.31217C16.3837 4.35033 16.33 4.39339 16.281 4.44205C16.2316 4.49071 16.1875 4.54357 16.1488 4.60063C16.1101 4.65769 16.0774 4.7179 16.0507 4.78126C16.0241 4.84462 16.0042 4.91009 15.9904 4.9773C15.9768 5.04451 15.9701 5.11277 15.9701 5.18139V6.22668H5.35972C5.29009 6.22668 5.22116 6.23333 5.15259 6.24698C5.08437 6.26029 5.01793 6.27989 4.95363 6.30615C4.88932 6.33275 4.82821 6.36496 4.7703 6.40276C4.71239 6.44092 4.65874 6.48433 4.60935 6.53299C4.56032 6.58165 4.51627 6.63416 4.47754 6.69122C4.43881 6.74828 4.40613 6.80884 4.37948 6.8722C4.35283 6.93556 4.33258 7.00102 4.31908 7.06824C4.30558 7.13545 4.29883 7.20336 4.29883 7.27232V63.7252C4.29883 63.7938 4.30558 63.8617 4.31908 63.9289C4.33258 63.9965 4.35283 64.062 4.37948 64.1253C4.40613 64.1887 4.43881 64.2489 4.47754 64.306C4.51627 64.363 4.56032 64.4159 4.60935 64.4645C4.65874 64.5129 4.71239 64.5563 4.7703 64.5944C4.82821 64.6326 4.88932 64.6648 4.95363 64.691C5.01793 64.7173 5.08437 64.7372 5.15259 64.7505C5.22116 64.7639 5.29009 64.7705 5.35972 64.7705H46.358C46.5545 64.9725 46.757 65.1682 46.9659 65.3576C47.1745 65.5469 47.3891 65.73 47.609 65.9065C47.8293 66.0825 48.0549 66.2523 48.2858 66.4151C48.5164 66.5775 48.7523 66.7333 48.9929 66.8817C49.2334 67.0298 49.4782 67.1709 49.7276 67.3043C49.977 67.4376 50.2303 67.5637 50.4879 67.6816C50.7452 67.7996 51.0056 67.9099 51.2699 68.0121C51.5343 68.1143 51.8011 68.2085 52.0715 68.2943C52.3415 68.3804 52.614 68.4577 52.889 68.5274C53.1636 68.5967 53.4407 68.6576 53.7193 68.7101C53.9982 68.7626 54.2782 68.8067 54.5599 68.8421C54.8413 68.8778 55.1237 68.9048 55.4069 68.923C55.6901 68.9415 55.9736 68.951 56.2575 68.952C56.541 68.9534 56.8249 68.9457 57.108 68.9296C57.3912 68.9135 57.674 68.8887 57.9558 68.8554C58.2375 68.8222 58.5178 68.7801 58.7971 68.7297C59.0764 68.6793 59.3535 68.6205 59.6292 68.5533C59.9045 68.4861 60.1777 68.4105 60.4485 68.3265C60.7192 68.2428 60.9871 68.1507 61.2521 68.0506C61.5168 67.9505 61.7787 67.8423 62.0366 67.7261C62.2949 67.6099 62.5493 67.4863 62.7998 67.3547C63.0503 67.2231 63.2965 67.0841 63.5381 66.9378C63.7797 66.7911 64.0167 66.6374 64.2487 66.4764C64.481 66.3157 64.7077 66.1477 64.9294 65.973C65.1511 65.7983 65.3668 65.617 65.5771 65.4293C65.7874 65.2413 65.9914 65.0474 66.1896 64.8468C66.3879 64.6466 66.5794 64.4407 66.7645 64.2286C66.9496 64.0168 67.1279 63.7994 67.2995 63.5768C67.4711 63.3538 67.6356 63.1262 67.7927 62.8935C67.9501 62.6607 68.1 62.4233 68.2425 62.1814C68.3846 61.9395 68.5196 61.6934 68.6464 61.4435C68.7736 61.1935 68.8927 60.9397 69.0035 60.6824C69.1147 60.4251 69.2177 60.1647 69.3126 59.9011C69.4075 59.6375 69.4938 59.3711 69.572 59.1022C69.6501 58.8334 69.7198 58.5625 69.7809 58.2894C69.842 58.0163 69.8946 57.7419 69.9383 57.4657C69.9823 57.1891 70.0175 56.9119 70.0441 56.6336C70.0708 56.3553 70.0886 56.0763 70.0974 55.7966C70.1067 55.5172 70.107 55.2375 70.0985 54.9582C70.09 54.6785 70.0729 54.3998 70.047 54.1212C70.0211 53.8429 69.9866 53.5653 69.9432 53.2891C69.8999 53.0125 69.848 52.7377 69.7876 52.4647C69.7272 52.1913 69.6579 51.9203 69.5805 51.6511C69.503 51.3823 69.4174 51.1159 69.3233 50.8519C69.2291 50.5883 69.1264 50.3275 69.0159 50.0699C68.9054 49.8126 68.7871 49.5584 68.6607 49.3081C68.5342 49.0578 68.4002 48.8114 68.2585 48.5691C68.1163 48.3269 67.9671 48.0896 67.8104 47.8564C67.6538 47.6233 67.49 47.395 67.3187 47.1717C67.1478 46.9487 66.9698 46.731 66.7851 46.5185C66.6007 46.3063 66.4095 46.0998 66.2116 45.8988C66.0141 45.6983 65.8105 45.5036 65.6005 45.3153C65.3909 45.127 65.1753 44.9453 64.9543 44.7702C64.7329 44.5949 64.5066 44.4265 64.275 44.2651C64.0429 44.1037 63.8067 43.9493 63.5651 43.8023C63.3238 43.6553 63.078 43.5156 62.8279 43.3836C62.5777 43.2513 62.3237 43.127 62.0658 43.0105C61.8078 42.8939 61.5463 42.785 61.2816 42.6842C61.0169 42.5834 60.7494 42.491 60.4787 42.4062C60.2083 42.3219 59.9354 42.2456 59.6601 42.1777C59.3847 42.1101 59.1076 42.0506 58.8284 41.9995C58.5495 41.9484 58.2691 41.906 57.9874 41.8721C57.7056 41.8381 57.4232 41.8125 57.1397 41.7957C56.8565 41.7789 56.573 41.7709 56.2891 41.7712ZM48.8621 8.31762V42.409L46.74 41.7712V11.4539C46.74 11.3852 46.7332 11.3173 46.7194 11.2498C46.7059 11.1826 46.6856 11.1171 46.659 11.0537C46.6323 10.9904 46.5996 10.9302 46.5609 10.8731C46.5225 10.816 46.4785 10.7632 46.4291 10.7145C46.3797 10.6662 46.3264 10.6228 46.2685 10.5846C46.2102 10.5465 46.1491 10.5143 46.0848 10.488C46.0205 10.4618 45.9541 10.4418 45.8859 10.4285C45.8176 10.4152 45.7484 10.4086 45.6787 10.4086H39.3126V8.31762H48.8621ZM18.0922 6.22668H37.1905V12.4991H18.0922V6.22668ZM38.2517 14.5901C38.3214 14.5901 38.3903 14.5834 38.4585 14.5701C38.5271 14.5568 38.5932 14.5369 38.6578 14.5106C38.7221 14.4844 38.7833 14.4522 38.8412 14.414C38.8991 14.3758 38.9527 14.3324 39.0018 14.2838C39.0511 14.2355 39.0952 14.1826 39.1339 14.1255C39.1727 14.0685 39.2053 14.0083 39.232 13.9449C39.2586 13.8812 39.2785 13.8161 39.2924 13.7485C39.3059 13.6813 39.3126 13.6134 39.3126 13.5448V12.4991H44.6178V41.0186L43.8962 40.7781C43.7985 40.7455 43.698 40.7277 43.5946 40.7242C43.4912 40.7207 43.3899 40.7315 43.2898 40.7574C43.1899 40.783 43.0958 40.8226 43.0073 40.8751C42.9192 40.9279 42.8403 40.9923 42.771 41.0676C42.7018 41.1432 42.6449 41.2269 42.6005 41.3186C42.5557 41.4107 42.5255 41.5066 42.5095 41.6074C42.4936 41.7079 42.4928 41.8087 42.5067 41.9095C42.5206 42.0103 42.5486 42.1069 42.5913 42.1997L45.0104 47.5627C44.6026 48.1291 44.2416 48.7228 43.9271 49.3445C43.6131 49.9659 43.3491 50.6072 43.1359 51.2692C42.9224 51.9308 42.7621 52.6047 42.6549 53.2908C42.5476 53.9773 42.4946 54.6673 42.4957 55.3618C42.4957 55.7171 42.4957 56.0623 42.4957 56.4071H10.6649V12.4991H15.9701V13.5448C15.9701 13.6134 15.9768 13.6813 15.9904 13.7485C16.0042 13.8161 16.0241 13.8812 16.0507 13.9449C16.0774 14.0083 16.1101 14.0685 16.1488 14.1255C16.1875 14.1826 16.2316 14.2355 16.281 14.2838C16.33 14.3324 16.3837 14.3758 16.4416 14.414C16.4995 14.4522 16.5606 14.4844 16.6249 14.5106C16.6896 14.5369 16.7556 14.5568 16.8242 14.5701C16.8924 14.5834 16.9614 14.5901 17.031 14.5901H38.2517ZM6.42062 62.6796V8.31762H15.9701V10.4086H9.60402C9.53438 10.4086 9.4651 10.4152 9.39688 10.4285C9.32867 10.4418 9.26223 10.4618 9.19792 10.488C9.13361 10.5143 9.0725 10.5465 9.01424 10.5846C8.95632 10.6228 8.90303 10.6662 8.85364 10.7145C8.80426 10.7632 8.7602 10.816 8.72183 10.8731C8.6831 10.9302 8.65042 10.9904 8.62377 11.0537C8.59712 11.1171 8.57687 11.1826 8.56337 11.2498C8.54952 11.3173 8.54277 11.3852 8.54277 11.4539V57.4527C8.54277 57.5214 8.54952 57.5893 8.56337 57.6565C8.57687 57.724 8.59712 57.7892 8.62377 57.8525C8.65042 57.9162 8.6831 57.9764 8.72183 58.0335C8.7602 58.0906 8.80426 58.1434 8.85364 58.1917C8.90303 58.2404 8.95632 58.2838 9.01424 58.322C9.0725 58.3601 9.13361 58.3923 9.19792 58.4186C9.26223 58.4448 9.32867 58.4644 9.39688 58.4781C9.4651 58.4914 9.53438 58.498 9.60402 58.498H42.8776C43.0578 59.2398 43.299 59.9617 43.6017 60.6635C43.9044 61.3651 44.2643 62.0372 44.6814 62.6796H6.42062ZM54.167 66.663V61.6343C54.167 61.5359 54.1527 61.4393 54.1247 61.3448C54.0966 61.2499 54.0561 61.161 54.0025 61.078C53.9488 60.9947 53.8849 60.9205 53.8099 60.855C53.7353 60.7896 53.6525 60.7357 53.5623 60.6933C53.3029 60.5708 53.0531 60.4314 52.8133 60.2753C52.5731 60.1195 52.3447 59.9484 52.1279 59.7618C51.9116 59.5752 51.7087 59.3753 51.5197 59.1618C51.3303 58.9482 51.1569 58.7228 50.9988 58.4861C50.8407 58.2495 50.6997 58.0034 50.5753 57.7475C50.451 57.492 50.3451 57.2294 50.257 56.9595C50.1689 56.6896 50.0996 56.4155 50.0491 56.1365C49.9987 55.8571 49.9678 55.576 49.9561 55.2932C49.9447 55.01 49.9522 54.7271 49.9795 54.445C50.0069 54.1628 50.0531 53.8838 50.1188 53.608C50.1842 53.3321 50.2684 53.0619 50.3714 52.7969C50.4741 52.5322 50.5945 52.2756 50.7327 52.0271C50.8706 51.7785 51.0251 51.5401 51.196 51.3123C51.3669 51.0844 51.5527 50.8687 51.7531 50.6657C51.9539 50.4623 52.1674 50.2733 52.3937 50.0989C52.6204 49.9242 52.8577 49.7653 53.1061 49.6225V55.0586C53.1068 55.1959 53.1334 55.3275 53.1867 55.4542C53.24 55.5809 53.3157 55.693 53.4137 55.7903L55.5359 57.8812C55.5853 57.9302 55.6389 57.974 55.6968 58.0125C55.7551 58.051 55.8166 58.0836 55.8812 58.1102C55.9459 58.1368 56.0123 58.1567 56.0813 58.17C56.1498 58.1837 56.2191 58.1903 56.2891 58.1903C56.3591 58.1903 56.4284 58.1837 56.4973 58.17C56.5659 58.1567 56.6327 58.1368 56.6973 58.1102C56.762 58.0836 56.8231 58.051 56.8814 58.0125C56.9393 57.974 56.9933 57.9302 57.0423 57.8812L59.1645 55.7903C59.2625 55.693 59.3382 55.5809 59.3915 55.4542C59.4448 55.3275 59.4718 55.1959 59.4721 55.0586V49.6225C59.7219 49.765 59.9607 49.9235 60.1884 50.0979C60.4165 50.2726 60.6311 50.4612 60.8329 50.6646C61.0347 50.868 61.2216 51.0837 61.3936 51.3123C61.5655 51.5405 61.7211 51.7792 61.86 52.0285C61.999 52.2774 62.1205 52.5347 62.2239 52.8004C62.3273 53.0657 62.4122 53.3367 62.4782 53.6136C62.5443 53.8905 62.5912 54.1702 62.6186 54.4534C62.6459 54.7362 62.6538 55.0198 62.642 55.304C62.6307 55.5883 62.5994 55.8701 62.5486 56.1502C62.4981 56.4299 62.4285 56.7054 62.34 56.976C62.2512 57.2466 62.1446 57.5098 62.0196 57.7664C61.8945 58.0226 61.7527 58.2694 61.5936 58.5064C61.4344 58.7438 61.26 58.9696 61.0699 59.1835C60.8798 59.3974 60.6755 59.5972 60.4577 59.7838C60.2399 59.9704 60.0104 60.1416 59.7692 60.2974C59.5276 60.4532 59.2767 60.5921 59.0159 60.7143C58.9275 60.756 58.8461 60.8085 58.7722 60.8725C58.6983 60.9362 58.6347 61.0087 58.5814 61.0899C58.5281 61.1711 58.4869 61.2579 58.4581 61.3504C58.429 61.4431 58.4134 61.5377 58.4112 61.6343V66.6419C57.7103 66.7743 57.0029 66.8404 56.2891 66.8404C55.5753 66.8404 54.8679 66.7743 54.167 66.6419V66.663ZM60.5334 66.0668V62.2931C60.7132 62.1919 60.889 62.0848 61.061 61.9714C61.2326 61.8576 61.3999 61.7382 61.563 61.6126C61.7261 61.4869 61.8842 61.3556 62.0373 61.2187C62.1908 61.0819 62.3386 60.9394 62.4814 60.7917C62.6239 60.6439 62.7611 60.4913 62.8925 60.3338C63.0236 60.1763 63.149 60.0142 63.2684 59.8479C63.3878 59.6813 63.5008 59.5104 63.6074 59.3357C63.7139 59.1611 63.8141 58.9829 63.9076 58.8008C64.001 58.6192 64.0877 58.434 64.1673 58.2456C64.2469 58.0577 64.3197 57.8669 64.3851 57.6736C64.4505 57.48 64.5091 57.2847 64.5599 57.0869C64.6111 56.8895 64.6548 56.6903 64.691 56.4897C64.7272 56.2888 64.7557 56.0871 64.777 55.8841C64.7983 55.6814 64.8121 55.478 64.8182 55.2743C64.8246 55.0705 64.8232 54.8668 64.8139 54.6631C64.805 54.4593 64.7887 54.2563 64.7645 54.054C64.7407 53.8513 64.7091 53.65 64.67 53.4497C64.6313 53.2495 64.5848 53.051 64.5311 52.8539C64.4775 52.6572 64.4164 52.4626 64.3485 52.27C64.2803 52.0775 64.205 51.8878 64.1229 51.7005C64.0405 51.5135 63.9513 51.3298 63.8554 51.1491C63.7598 50.9681 63.6571 50.7914 63.548 50.6181C63.439 50.4448 63.3238 50.2757 63.2023 50.1105C63.0805 49.9456 62.9529 49.7853 62.8197 49.6295C62.6861 49.4737 62.5472 49.3228 62.4022 49.1772C62.2576 49.0316 62.1077 48.8912 61.9528 48.7561C61.7975 48.6213 61.6376 48.4918 61.4731 48.3686C61.3083 48.245 61.1392 48.1277 60.9658 48.0164C60.7924 47.9051 60.6151 47.8004 60.4339 47.7017C60.2527 47.6033 60.0683 47.5116 59.8804 47.4262C59.6921 47.3411 59.5013 47.2627 59.3076 47.1913C59.1137 47.1199 58.9175 47.0558 58.7189 46.9984C58.639 46.9746 58.5576 46.9606 58.4745 46.956C58.391 46.9515 58.3086 46.9564 58.2265 46.9707C58.1444 46.9855 58.0652 47.0089 57.9888 47.0418C57.9124 47.0751 57.841 47.116 57.7746 47.1657C57.7088 47.2144 57.6495 47.2697 57.5966 47.332C57.544 47.3943 57.4989 47.4619 57.4623 47.5344C57.4253 47.6072 57.3976 47.6828 57.3784 47.7619C57.3596 47.8407 57.3504 47.9208 57.3504 48.002V54.5777L56.2891 55.623L55.2282 54.5777V48.0437C55.23 48.002 55.2293 47.9607 55.2261 47.9191C55.2229 47.8778 55.2172 47.8365 55.209 47.7955C55.2008 47.7549 55.1902 47.7146 55.177 47.6751C55.1639 47.6355 55.1486 47.5967 55.1309 47.5589C55.1131 47.521 55.0928 47.4846 55.0708 47.4489C55.0484 47.4136 55.0243 47.3796 54.998 47.3471C54.9717 47.3145 54.9433 47.2837 54.9134 47.2543C54.8832 47.2252 54.8516 47.1979 54.8182 47.1724C54.7848 47.1468 54.75 47.1234 54.7137 47.102C54.6775 47.0807 54.6402 47.0614 54.6015 47.0443C54.5627 47.0275 54.5233 47.0128 54.4832 47.0002C54.4427 46.9879 54.4018 46.9781 54.3602 46.9704C54.3187 46.9627 54.2767 46.9578 54.2348 46.9553C54.1925 46.9525 54.1503 46.9525 54.108 46.9546C54.0661 46.9571 54.0241 46.962 53.9826 46.9693C53.941 46.9767 53.8998 46.9861 53.8593 46.9984C53.6607 47.0558 53.4645 47.1199 53.2709 47.1913C53.0769 47.2627 52.8861 47.3411 52.6982 47.4262C52.5102 47.5116 52.3255 47.6033 52.1443 47.7017C51.9631 47.8004 51.7858 47.9051 51.6124 48.0164C51.439 48.1277 51.2699 48.245 51.1054 48.3686C50.9406 48.4918 50.7807 48.6213 50.6258 48.7561C50.4705 48.8912 50.3206 49.0316 50.176 49.1772C50.0314 49.3228 49.8921 49.4737 49.7589 49.6295C49.6253 49.7853 49.4977 49.9456 49.3762 50.1108C49.2544 50.2757 49.1392 50.4448 49.0302 50.6181C48.9211 50.7914 48.8188 50.9681 48.7228 51.1491C48.6269 51.3298 48.5377 51.5135 48.4557 51.7005C48.3732 51.8878 48.2983 52.0775 48.2301 52.27C48.1618 52.4626 48.1007 52.6572 48.0471 52.8539C47.9934 53.051 47.9473 53.2495 47.9082 53.4497C47.8691 53.65 47.8378 53.8513 47.8137 54.054C47.7895 54.2563 47.7732 54.4593 47.7643 54.6631C47.7554 54.8668 47.754 55.0705 47.76 55.2743C47.7664 55.478 47.7799 55.6814 47.8012 55.8841C47.8225 56.0871 47.8513 56.2888 47.8876 56.4897C47.9238 56.6903 47.9675 56.8895 48.0183 57.0869C48.0695 57.2847 48.1277 57.48 48.1931 57.6736C48.2588 57.8669 48.3313 58.0577 48.4109 58.2456C48.4908 58.434 48.5772 58.6192 48.6706 58.8008C48.7641 58.9829 48.8643 59.1611 48.9708 59.3357C49.0774 59.5104 49.1904 59.6813 49.3098 59.8479C49.4292 60.0142 49.5546 60.1763 49.686 60.3338C49.8171 60.4913 49.9543 60.6439 50.0971 60.7917C50.2396 60.9394 50.3877 61.0819 50.5409 61.2187C50.694 61.3556 50.8521 61.4869 51.0152 61.6126C51.1783 61.7382 51.3456 61.8576 51.5176 61.9714C51.6895 62.0848 51.8654 62.1919 52.0452 62.2931V66.0668C51.7737 65.9625 51.5065 65.8484 51.2436 65.7241C50.9807 65.5998 50.7231 65.4664 50.4705 65.3233C50.2179 65.1801 49.971 65.0278 49.7301 64.8664C49.4889 64.705 49.2544 64.5349 49.0263 64.3564C48.7982 64.1775 48.5772 63.9909 48.3629 63.7956C48.1491 63.6006 47.943 63.3982 47.7444 63.1879C47.5458 62.9778 47.3557 62.7604 47.1738 62.536C46.9915 62.312 46.8185 62.0813 46.654 61.8443C46.4895 61.607 46.3342 61.3644 46.1882 61.1158C46.0422 60.8673 45.9058 60.6138 45.7793 60.3551C45.6524 60.0968 45.5355 59.8339 45.429 59.5664C45.322 59.2993 45.2257 59.0287 45.1394 58.7543C45.0534 58.4798 44.9777 58.2029 44.9127 57.9229C44.8477 57.6432 44.7933 57.3614 44.7496 57.0775C44.7059 56.7936 44.6733 56.5083 44.6512 56.2219C44.6292 55.9356 44.6182 55.6489 44.6178 55.3618C44.6168 54.7296 44.669 54.1019 44.7742 53.4785C44.8793 52.8546 45.0364 52.2441 45.2449 51.6466C45.4535 51.0487 45.7107 50.4721 46.017 49.9165C46.3229 49.361 46.6735 48.8345 47.069 48.3363C47.1255 48.2628 47.1713 48.183 47.2065 48.0973C47.2416 48.0115 47.2647 47.9226 47.2758 47.8309C47.2871 47.7388 47.2857 47.6471 47.2722 47.5557C47.2587 47.4643 47.2335 47.3761 47.1962 47.2911L45.4986 43.538L50.3472 45.127C50.4769 45.1767 50.6116 45.2015 50.7505 45.2015C50.8898 45.2015 51.0241 45.1767 51.1537 45.127C51.9478 44.7216 52.7785 44.4118 53.6461 44.1982C54.5141 43.9843 55.3948 43.8723 56.2891 43.8622C56.4575 43.8622 56.6256 43.866 56.7933 43.8737C56.9613 43.8811 57.129 43.8919 57.2967 43.9066C57.464 43.9213 57.6314 43.9392 57.798 43.9609C57.9646 43.9826 58.1309 44.0078 58.2965 44.0368C58.4621 44.0656 58.6273 44.0978 58.7914 44.1335C58.9556 44.1692 59.119 44.2087 59.2814 44.2514C59.4437 44.2941 59.6054 44.3404 59.7656 44.3897C59.9262 44.4394 60.0854 44.4926 60.2435 44.549C60.4016 44.6054 60.5586 44.6652 60.7139 44.7282C60.8695 44.7912 61.0237 44.8578 61.1761 44.9274C61.3289 44.9971 61.4799 45.0699 61.6291 45.1459C61.7787 45.2218 61.9261 45.3013 62.0722 45.3836C62.2182 45.4658 62.3621 45.5512 62.5042 45.6398C62.6463 45.7284 62.7866 45.8197 62.9249 45.9142C63.0631 46.0088 63.1991 46.1061 63.3327 46.2066C63.4667 46.3067 63.5985 46.4096 63.7278 46.5157C63.8571 46.6214 63.984 46.7299 64.1087 46.8412C64.2334 46.9525 64.3552 47.0667 64.475 47.1829C64.5947 47.2995 64.7116 47.4185 64.826 47.54C64.9404 47.6614 65.052 47.7853 65.161 47.9114C65.2701 48.0377 65.376 48.1662 65.4794 48.2968C65.5828 48.4277 65.683 48.5604 65.7807 48.6955C65.878 48.8306 65.9725 48.9675 66.0642 49.1065C66.1555 49.2458 66.244 49.3865 66.3292 49.5294C66.4145 49.6722 66.4966 49.8168 66.5755 49.9631C66.6547 50.1094 66.7304 50.2572 66.8028 50.4066C66.8753 50.5565 66.9442 50.7073 67.01 50.86C67.0761 51.0122 67.1386 51.1659 67.1976 51.3214C67.2565 51.4764 67.3123 51.6326 67.3646 51.7901C67.4168 51.9476 67.4655 52.1062 67.5109 52.2658C67.5561 52.4255 67.5976 52.5858 67.636 52.7472C67.6744 52.9086 67.7088 53.0706 67.7401 53.2334C67.7714 53.3962 67.7987 53.5597 67.8225 53.7239C67.8467 53.8877 67.8669 54.0522 67.8836 54.2171C67.9003 54.382 67.9135 54.5472 67.9231 54.7124C67.9327 54.878 67.9383 55.0436 67.9408 55.2092C67.943 55.3748 67.9415 55.5407 67.9366 55.7063C67.9312 55.8718 67.9227 56.0371 67.9103 56.2027C67.8982 56.3679 67.8822 56.5328 67.8627 56.6973C67.8431 56.8618 67.82 57.026 67.7934 57.1895C67.7667 57.353 67.7362 57.5161 67.7024 57.6782C67.6687 57.8406 67.631 58.002 67.5902 58.1627C67.5493 58.3237 67.5045 58.4833 67.4566 58.6423C67.4086 58.8008 67.3574 58.9587 67.3024 59.1152C67.2477 59.272 67.1894 59.4275 67.1276 59.5815C67.0658 59.7355 67.0007 59.8885 66.9325 60.0397C66.8639 60.191 66.7922 60.3408 66.7172 60.4892C66.6422 60.6376 66.5641 60.7843 66.4827 60.9292C66.4014 61.0742 66.3168 61.2173 66.229 61.3588C66.1413 61.5002 66.0507 61.6395 65.9565 61.7771C65.8627 61.9147 65.7661 62.0501 65.6663 62.1835C65.5664 62.3169 65.4641 62.4482 65.3586 62.577C65.2531 62.7062 65.1447 62.8329 65.0335 62.9572C64.9226 63.0818 64.8086 63.2036 64.6924 63.3233C64.5759 63.4427 64.4569 63.5596 64.3354 63.6744C64.2138 63.7889 64.0898 63.9006 63.9634 64.0098C63.8369 64.119 63.7079 64.2254 63.5768 64.3294C63.4457 64.433 63.3125 64.5339 63.1768 64.6319C63.0414 64.7299 62.9035 64.8251 62.7639 64.9172C62.6239 65.0096 62.4825 65.0985 62.3386 65.185C62.1951 65.2711 62.0498 65.3541 61.9023 65.4339C61.7549 65.514 61.606 65.5907 61.4554 65.6642C61.3047 65.7381 61.1527 65.8084 60.9988 65.8753C60.845 65.9425 60.6897 66.0062 60.5334 66.0668Z" fill="#AF7B20"/>
</g>
</svg>
