<svg width="72" height="72" viewBox="0 0 72 72" fill="none" xmlns="http://www.w3.org/2000/svg">
<mask id="mask0_565_4305" style="mask-type:luminance" maskUnits="userSpaceOnUse" x="13" y="51" width="56" height="18">
<path d="M13.334 51.3779H68.9274V68.9269H13.334V51.3779Z" fill="white"/>
</mask>
<g mask="url(#mask0_565_4305)">
<path d="M67.9094 55.5578H58.0421L54.2264 51.7422C54.0334 51.5491 53.7712 51.4404 53.4987 51.4404H39.6021C37.048 51.4404 34.9698 53.5182 34.9698 56.0727C34.9698 57.0234 35.2584 57.9092 35.7521 58.646H32.108L19.5796 52.864C19.0226 52.6054 18.4028 52.4699 17.7872 52.4699H17.6303C15.2719 52.4699 13.3535 54.389 13.3535 56.747C13.3535 58.2901 14.1889 59.7175 15.5337 60.4734L30.348 68.8071C30.5018 68.8946 30.6757 68.9397 30.8528 68.9397H67.9098C68.4782 68.9397 68.9389 68.4793 68.9389 67.9102V56.5873C68.9389 56.0182 68.4782 55.5578 67.9098 55.5578H67.9094ZM66.8802 66.8811H31.1219L16.5428 58.6793C15.8452 58.287 15.4118 57.5474 15.4118 56.747C15.4118 55.5238 16.4073 54.5286 17.6303 54.5286H17.7868C18.1066 54.5286 18.4278 54.5988 18.716 54.7324L31.4504 60.6102C31.5858 60.6724 31.733 60.7047 31.8816 60.7047H49.3809V58.646H39.6018C38.183 58.646 37.0285 57.4918 37.0285 56.0724C37.0285 54.6533 38.183 53.4991 39.6018 53.4991H53.0719L56.8879 57.3151C57.0809 57.5078 57.3428 57.6165 57.6157 57.6165H66.8799V66.8807L66.8802 66.8811Z" fill="#AF7B20"/>
</g>
<mask id="mask1_565_4305" style="mask-type:luminance" maskUnits="userSpaceOnUse" x="3" y="3" width="56" height="18">
<path d="M3.06055 3.06055H58.6671V20.6227H3.06055V3.06055Z" fill="white"/>
</mask>
<g mask="url(#mask1_565_4305)">
<path d="M17.773 20.2581C17.9661 20.4512 18.2279 20.5595 18.5008 20.5595H32.3974C34.9515 20.5595 37.0293 18.4817 37.0293 15.9276C37.0293 14.9765 36.7408 14.0908 36.2473 13.3539H39.8911L52.4199 19.1362C52.9769 19.3946 53.5967 19.5303 54.2123 19.5303H54.3692C56.7272 19.5303 58.646 17.6112 58.646 15.2529C58.646 13.7099 57.8105 12.2824 56.4654 11.5265L41.6515 3.19319C41.4977 3.10569 41.3237 3.06055 41.147 3.06055H4.08971C3.52131 3.06055 3.06055 3.52096 3.06055 4.08971V15.4126C3.06055 15.9817 3.52131 16.4421 4.08971 16.4421H13.9571L17.773 20.2581ZM5.11923 5.11923H40.8776L55.4564 13.321C56.1539 13.713 56.5873 14.4529 56.5873 15.2529C56.5873 16.4765 55.5921 17.4717 54.3692 17.4717H54.2123C53.8928 17.4717 53.5717 17.4012 53.2831 17.2675L40.5487 11.3901C40.4137 11.3276 40.2664 11.2956 40.1175 11.2956H22.6185V13.3543H32.3974C33.8161 13.3543 34.9706 14.5081 34.9706 15.9276C34.9706 17.347 33.8161 18.5008 32.3974 18.5008H18.9272L15.1112 14.6852C14.9185 14.4921 14.6564 14.3835 14.3835 14.3835H5.11923V5.11923Z" fill="#AF7B20"/>
</g>
<path d="M35.999 21.71C34.8608 21.71 33.8521 22.303 33.2993 23.2985L21.358 44.7933C20.8208 45.7593 20.8347 46.9061 21.3958 47.8593C21.9566 48.8124 22.9514 49.3811 24.057 49.3811H47.9403C49.0462 49.3811 50.041 48.8124 50.6017 47.8593C51.1625 46.9061 51.1767 45.7593 50.6392 44.7933L38.6983 23.2975C38.1451 22.303 37.1365 21.71 35.9986 21.71H35.999ZM48.8278 46.8148C48.7379 46.9676 48.4719 47.3225 47.9406 47.3225H24.0573C23.5261 47.3225 23.2601 46.9676 23.1702 46.8148C23.0806 46.662 22.8997 46.2568 23.1577 45.7926L35.099 24.2985C35.3642 23.82 35.817 23.7686 35.999 23.7686C36.1809 23.7686 36.6337 23.82 36.8993 24.2975L48.8403 45.7926C49.0983 46.2568 48.9174 46.662 48.8278 46.8148Z" fill="#AF7B20"/>
<path d="M36.0003 40.1172C34.2972 40.1172 32.9121 41.5023 32.9121 43.2054C32.9121 44.9082 34.2972 46.2932 36.0003 46.2932C37.7031 46.2932 39.0882 44.9082 39.0882 43.2054C39.0882 41.5023 37.7031 40.1172 36.0003 40.1172ZM36.0003 44.2345C35.4326 44.2345 34.9708 43.7734 34.9708 43.2054C34.9708 42.6373 35.4326 42.1759 36.0003 42.1759C36.5677 42.1759 37.0295 42.6373 37.0295 43.2054C37.0295 43.7734 36.5677 44.2345 36.0003 44.2345Z" fill="#AF7B20"/>
<path d="M33 32.0878V36.2056C33 37.9083 34.3851 39.2934 36.0882 39.2934C37.791 39.2934 39.176 37.9083 39.176 36.2056V32.0878C39.176 30.3851 37.791 29 36.0882 29C34.3851 29 33 30.3851 33 32.0878ZM37.1174 32.0878V36.2056C37.1174 36.7736 36.6556 37.2347 36.0882 37.2347C35.5205 37.2347 35.0587 36.7736 35.0587 36.2056V32.0878C35.0587 31.5201 35.5205 31.0587 36.0882 31.0587C36.6556 31.0587 37.1174 31.5201 37.1174 32.0878Z" fill="#AF7B20"/>
<path d="M59.8321 29.4734L61.8171 28.9307C61.6373 28.2713 61.4296 27.6147 61.2015 26.9775L59.2637 27.673C59.4741 28.2602 59.6658 28.8664 59.8321 29.4734Z" fill="#AF7B20"/>
<path d="M57.2957 52.1999C57.7068 51.66 58.103 51.0972 58.4728 50.527L56.7461 49.4072C56.404 49.934 56.0384 50.4527 55.6582 50.9513L57.2957 52.1999Z" fill="#AF7B20"/>
<path d="M58.5586 25.9221L60.4374 25.0794C60.1613 24.4645 59.8565 23.8471 59.5301 23.2461L57.7207 24.2291C58.0217 24.7843 58.3037 25.353 58.5586 25.9221Z" fill="#AF7B20"/>
<path d="M58.4849 21.4881C58.1182 20.9211 57.7227 20.3583 57.3085 19.8135L55.6699 21.06C56.0519 21.5624 56.4175 22.0833 56.7557 22.6058L58.4849 21.4881Z" fill="#AF7B20"/>
<path d="M60.7039 35.9997C60.7039 36.3192 60.6977 36.6379 60.6855 36.9556L62.7432 37.0341C62.756 36.6904 62.7626 36.3456 62.7626 35.9997C62.7626 35.6609 62.7567 35.323 62.7439 34.9883L60.6862 35.0647C60.6977 35.3754 60.7039 35.6869 60.7039 35.9997Z" fill="#AF7B20"/>
<path d="M62.5882 39.0732L60.5423 38.8398C60.4715 39.461 60.375 40.0885 60.2559 40.7044L62.2774 41.0947C62.4066 40.427 62.5114 39.7475 62.5882 39.0732Z" fill="#AF7B20"/>
<path d="M60.5452 33.1808L62.591 32.9474C62.5139 32.2728 62.4101 31.5926 62.2813 30.9238L60.2598 31.312C60.3782 31.9294 60.4743 32.5586 60.5452 33.1808Z" fill="#AF7B20"/>
<path d="M60.4299 46.9362L58.5521 46.0918C58.2938 46.6668 58.0115 47.2359 57.7129 47.7838L59.5212 48.7689C59.8445 48.1748 60.15 47.5585 60.4299 46.9362Z" fill="#AF7B20"/>
<path d="M61.812 43.0878L59.8266 42.543C59.6609 43.1471 59.4693 43.752 59.2578 44.3423L61.195 45.0378C61.4245 44.3996 61.6321 43.743 61.812 43.0878Z" fill="#AF7B20"/>
<path d="M13.5156 50.5113C13.8819 51.0783 14.2774 51.6411 14.6917 52.1863L16.3302 50.9397C15.9483 50.437 15.583 49.9165 15.2444 49.3936L13.5156 50.5113Z" fill="#AF7B20"/>
<path d="M14.7025 19.7988C14.2914 20.3384 13.8955 20.9013 13.5254 21.4714L15.2525 22.5912C15.5941 22.0645 15.9601 21.5457 16.34 21.0471L14.7025 19.7988Z" fill="#AF7B20"/>
<path d="M11.295 35.9992C11.295 35.6794 11.3016 35.3607 11.3138 35.0433L9.25612 34.9648C9.24293 35.3086 9.23633 35.6534 9.23633 35.9992C9.23633 36.3378 9.24258 36.6756 9.25508 37.0103L11.3127 36.9339C11.3013 36.6232 11.2954 36.3117 11.2954 35.9992H11.295Z" fill="#AF7B20"/>
<path d="M12.1671 42.5254L10.1816 43.0684C10.3615 43.7278 10.5691 44.3841 10.7973 45.0216L12.7355 44.3257C12.5247 43.7389 12.3334 43.1327 12.1671 42.5254Z" fill="#AF7B20"/>
<path d="M13.4413 46.0771L11.5625 46.9195C11.8385 47.5348 12.1437 48.1518 12.4698 48.7528L14.2792 47.7699C13.9781 47.215 13.6962 46.6459 13.4413 46.0771Z" fill="#AF7B20"/>
<path d="M11.4537 38.8184L9.4082 39.0513C9.48494 39.726 9.58911 40.4066 9.71758 41.075L11.7395 40.6868C11.6207 40.0697 11.5245 39.4406 11.4537 38.8184Z" fill="#AF7B20"/>
<path d="M12.7417 27.6574L10.8045 26.9619C10.575 27.6001 10.3674 28.2567 10.1875 28.9119L12.1726 29.4567C12.3385 28.8529 12.5302 28.2477 12.7417 27.6574Z" fill="#AF7B20"/>
<path d="M9.4105 32.9258L11.456 33.1588C11.5268 32.5376 11.6234 31.9105 11.7424 31.2942L9.72092 30.9043C9.59175 31.5717 9.48724 32.2512 9.41016 32.9258H9.4105Z" fill="#AF7B20"/>
<path d="M14.2873 24.2155L12.479 23.2305C12.1557 23.8246 11.8502 24.4405 11.5703 25.0631L13.4481 25.9072C13.7064 25.3322 13.9891 24.7635 14.2873 24.2155Z" fill="#AF7B20"/>
</svg>
