<svg width="73" height="73" viewBox="0 0 73 73" fill="none" xmlns="http://www.w3.org/2000/svg">
<mask id="mask0_597_1761" style="mask-type:luminance" maskUnits="userSpaceOnUse" x="3" y="0" width="67" height="73">
<path d="M3.24414 0.967773H69.8806V72.0076H3.24414V0.967773Z" fill="white"/>
</mask>
<g mask="url(#mask0_597_1761)">
<path d="M54.3353 29.8376C53.7231 29.8376 53.225 29.3394 53.225 28.7272C53.225 28.1154 53.7231 27.6169 54.3353 27.6169C54.9472 27.6169 55.4457 28.1154 55.4457 28.7272C55.4457 29.3394 54.9472 29.8376 54.3353 29.8376ZM47.6729 28.9145V3.18847H54.3353V25.3962C52.4983 25.3962 51.0039 26.8902 51.0039 28.7272C51.0039 29.2408 51.1211 29.7277 51.3292 30.1625L50.8765 30.6156C49.8756 29.9446 48.8029 29.3729 47.6729 28.9145ZM56.556 45.3828C56.556 53.9547 49.5823 60.9284 41.0108 60.9284C32.4388 60.9284 25.4655 53.9547 25.4655 45.3828C25.4655 36.8112 32.4388 29.8376 41.0108 29.8376C49.5823 29.8376 56.556 36.8112 56.556 45.3828ZM65.1135 67.9158C65.3233 68.1256 65.4388 68.4044 65.4388 68.7008C65.4388 68.9973 65.3233 69.2761 65.1135 69.4859C64.9037 69.6957 64.6252 69.8112 64.3284 69.8112C64.032 69.8112 63.7532 69.6957 63.5434 69.4859L52.7567 58.6992C53.3119 58.2092 53.8368 57.685 54.3269 57.1291L65.1135 67.9158ZM21.0238 43.2945V17.6234H27.6862V33.646C25.8309 35.7494 24.465 38.2933 23.768 41.0998L21.0238 43.2945ZM18.8031 47.6038C18.1909 47.6038 17.6927 47.1054 17.6927 46.4935C17.6927 45.8813 18.1909 45.3828 18.8031 45.3828C19.4153 45.3828 19.9134 45.8813 19.9134 46.4935C19.9134 47.1054 19.4153 47.6038 18.8031 47.6038ZM11.264 42.4805L7.69923 47.0642V25.3962H14.3617V43.0315L12.6374 42.169C12.1642 41.9324 11.5893 42.0627 11.264 42.4805ZM34.3483 8.74057H41.0108V27.6169C38.6556 27.6169 36.4071 28.0784 34.3483 28.9145V8.74057ZM68.7702 19.8444H64.3284C63.7152 19.8444 63.2181 20.3415 63.2181 20.9548C63.2181 21.568 63.7152 22.0651 64.3284 22.0651H66.3231L60.569 28.6406L57.6149 28.1481C57.4829 27.3989 57.1003 26.7346 56.556 26.2474V2.07812C56.556 1.46521 56.0586 0.967773 55.4457 0.967773H46.5625C45.9492 0.967773 45.4522 1.46521 45.4522 2.07812V28.1791C44.7284 27.9921 43.9873 27.8499 43.2315 27.7552V7.63022C43.2315 7.01696 42.7344 6.51987 42.1211 6.51987H33.238C32.6247 6.51987 32.1276 7.01696 32.1276 7.63022V30.002C31.3478 30.4536 30.6057 30.9637 29.9069 31.5256V16.513C29.9069 15.9001 29.4098 15.4027 28.7966 15.4027H19.9134C19.3002 15.4027 18.8031 15.9001 18.8031 16.513V43.1621C17.9504 43.1621 17.1724 43.4842 16.5824 44.0133V24.2858C16.5824 23.6725 16.0853 23.1755 15.472 23.1755H6.58888C5.97562 23.1755 5.47853 23.6725 5.47853 24.2858V49.9192L3.49159 52.474C3.11526 52.9577 3.20257 53.6555 3.68663 54.0318C3.88905 54.1895 4.12915 54.2659 4.36783 54.2659C4.6984 54.2659 5.02581 54.1184 5.24478 53.8372L12.4585 44.5625L15.4981 46.0823C15.4819 46.2175 15.472 46.3541 15.472 46.4935C15.472 48.3301 16.9661 49.8245 18.8031 49.8245C20.64 49.8245 22.1341 48.3301 22.1341 46.4935C22.1341 46.1101 22.0679 45.7419 21.9489 45.3986L23.2762 44.3372C23.2561 44.6829 23.2445 45.0315 23.2445 45.3828C23.2445 55.1791 31.2148 63.1491 41.0108 63.1491C44.7076 63.1491 48.1439 62.013 50.9905 60.0736L61.9733 71.0567C62.6024 71.6855 63.4388 72.0319 64.3284 72.0319C65.2184 72.0319 66.0549 71.6855 66.6836 71.0567C67.3131 70.4273 67.6598 69.5905 67.6598 68.7008C67.6598 67.8112 67.3131 66.9744 66.6836 66.345L55.7016 55.3629C57.6414 52.5163 58.7767 49.08 58.7767 45.3828C58.7767 40.0377 56.4036 35.2365 52.656 31.9766L52.9 31.733C53.3348 31.9414 53.8217 32.0583 54.3353 32.0583C55.5875 32.0583 56.6806 31.3633 57.2492 30.3385L60.8147 30.9328C60.8759 30.9433 60.9368 30.9479 60.9974 30.9479C61.3146 30.9479 61.6205 30.812 61.8328 30.5691L67.6598 23.9095V25.3962C67.6598 26.0094 68.1569 26.5065 68.7702 26.5065C69.3831 26.5065 69.8805 26.0094 69.8805 25.3962V20.9548C69.8805 20.3415 69.3831 19.8444 68.7702 19.8444Z" fill="#AF7B20"/>
</g>
<path d="M41.0101 56.486C34.8873 56.486 29.9062 51.5053 29.9062 45.3822C29.9062 39.2594 34.8873 34.2787 41.0101 34.2787C47.1329 34.2787 52.1136 39.2594 52.1136 45.3822C52.1136 51.5053 47.1329 56.486 41.0101 56.486ZM41.0101 32.0576C33.6629 32.0576 27.6855 38.0353 27.6855 45.3822C27.6855 52.7293 33.6629 58.7067 41.0101 58.7067C48.3569 58.7067 54.3346 52.7293 54.3346 45.3822C54.3346 38.0353 48.3569 32.0576 41.0101 32.0576Z" fill="#AF7B20"/>
<path d="M41.0101 52.0453C37.3362 52.0453 34.3477 49.0568 34.3477 45.3828C34.3477 44.7699 33.8506 44.2725 33.2373 44.2725C32.624 44.2725 32.127 44.7699 32.127 45.3828C32.127 50.2808 36.1121 54.266 41.0101 54.266C41.623 54.266 42.1205 53.7689 42.1205 53.1556C42.1205 52.5423 41.623 52.0453 41.0101 52.0453Z" fill="#AF7B20"/>
</svg>
