<svg width="69" height="69" viewBox="0 0 69 69" fill="none" xmlns="http://www.w3.org/2000/svg">
<mask id="mask0_606_1343" style="mask-type:luminance" maskUnits="userSpaceOnUse" x="2" y="2" width="65" height="65">
<path d="M2.75098 2.51074H66.2565V66.4635H2.75098V2.51074Z" fill="white"/>
</mask>
<g mask="url(#mask0_606_1343)">
<path d="M34.5003 26.6279C28.8903 26.6279 24.3263 31.192 24.3263 36.8019C24.3263 42.4118 28.8903 46.9762 34.5003 46.9762C40.1102 46.9762 44.6746 42.4118 44.6746 36.8019C44.6746 31.192 40.1102 26.6279 34.5003 26.6279ZM34.5003 44.9294C30.0187 44.9294 26.3731 41.2834 26.3731 36.8022C26.3731 32.3207 30.0187 28.6747 34.5003 28.6747C38.9818 28.6747 42.6278 32.3207 42.6278 36.8022C42.6278 41.2834 38.9818 44.9294 34.5003 44.9294ZM27.2608 36.2156C27.0146 36.568 27.0146 37.0362 27.2608 37.3882C28.9133 39.7524 31.6196 41.164 34.5003 41.164C37.3806 41.164 40.0869 39.7524 41.7397 37.3882C41.9856 37.0362 41.9856 36.568 41.7397 36.2156C40.0869 33.8514 37.3806 32.4398 34.4999 32.4398C31.6196 32.4398 28.9136 33.8514 27.2608 36.2156ZM39.6027 36.8019C38.3216 38.2634 36.4635 39.1172 34.5003 39.1172C32.537 39.1172 30.6789 38.2634 29.3978 36.8019C30.6789 35.3405 32.537 34.4866 34.5003 34.4866C36.4635 34.4866 38.3216 35.3408 39.6027 36.8019ZM34.5003 35.1468C35.412 35.1468 36.1557 35.8902 36.1557 36.8019C36.1557 37.7137 35.412 38.457 34.5003 38.457C33.5885 38.457 32.8451 37.7137 32.8451 36.8019C32.8451 35.8902 33.5885 35.1468 34.5003 35.1468ZM66.2181 64.8348C65.8371 61.272 63.5171 58.3607 60.3706 57.0943C61.4397 56.128 62.1126 54.7311 62.1126 53.1798C62.1126 52.0075 61.7279 50.9237 61.0787 50.0465C63.1162 45.9606 64.1923 41.3976 64.1923 36.8019C64.1923 29.6324 61.6021 22.7101 56.8993 17.3101C52.4474 12.1984 46.3942 8.76733 39.7728 7.57873C39.6576 4.76962 37.337 2.51953 34.5003 2.51953C31.6635 2.51953 29.3432 4.76962 29.2281 7.57873C22.6063 8.76733 16.5535 12.1984 12.1015 17.3101C7.39839 22.7101 4.80823 29.6324 4.80823 36.8019C4.80823 41.3979 5.88436 45.961 7.92215 50.0469C7.27295 50.9237 6.88828 52.0075 6.88828 53.1798C6.88828 54.7311 7.56111 56.1276 8.62992 57.0943C5.48339 58.3607 3.16343 61.272 2.78209 64.8348C2.75148 65.1237 2.84465 65.4122 3.03864 65.6278C3.23264 65.8437 3.50949 65.9672 3.79965 65.9672H20.5326C20.8227 65.9672 21.0996 65.8437 21.2936 65.6278C21.4876 65.4118 21.5807 65.1237 21.5498 64.8348C21.4972 64.3413 21.405 63.8609 21.2809 63.395C25.3678 65.4298 29.8793 66.4939 34.4999 66.4939C39.1209 66.4939 43.6324 65.4298 47.7193 63.395C47.5951 63.8609 47.503 64.3413 47.4501 64.8348C47.4195 65.1237 47.5126 65.4122 47.7066 65.6278C47.9006 65.8437 48.1775 65.9672 48.4676 65.9672H65.2005C65.491 65.9672 65.7679 65.8437 65.9619 65.6278C66.1559 65.4118 66.249 65.1237 66.2181 64.8348ZM56.8344 56.4111C56.8334 56.4111 56.8328 56.4111 56.8318 56.4111C55.0515 56.4098 53.603 54.9607 53.603 53.1798C53.603 51.3982 55.0525 49.9484 56.8344 49.9484C58.6163 49.9484 60.0658 51.3982 60.0658 53.1798C60.0658 54.9607 58.6176 56.4095 56.8371 56.4111C56.8361 56.4111 56.8354 56.4111 56.8344 56.4111ZM53.2011 57.1345L47.4784 51.5815C47.4198 51.5246 47.4181 51.4235 47.475 51.3649L50.0406 48.7208C50.0762 48.6842 50.1188 48.6763 50.1484 48.6756C50.1797 48.6776 50.2209 48.6822 50.2575 48.7175L52.2198 50.6219C51.7978 51.3799 51.5563 52.252 51.5563 53.1798C51.5563 54.7311 52.2291 56.128 53.2982 57.0943C53.2656 57.1076 53.2333 57.1212 53.2011 57.1345ZM34.5003 48.7198C27.9287 48.7198 22.5827 43.3735 22.5827 36.8019C22.5827 30.2303 27.929 24.884 34.5003 24.884C41.0718 24.884 46.4182 30.2303 46.4182 36.8019C46.4182 43.3735 41.0718 48.7198 34.5003 48.7198ZM45.2106 45.752L47.7129 48.1805L46.8651 49.0546L44.3894 46.6521C44.6759 46.3643 44.9497 46.0638 45.2106 45.752ZM34.5006 4.5663C36.2822 4.5663 37.7316 6.01578 37.7316 7.79769C37.7316 9.57859 36.2835 11.0277 34.5029 11.0287C34.5019 11.0287 34.5009 11.0287 34.5003 11.0287C34.4993 11.0287 34.4986 11.0287 34.4976 11.0287C32.717 11.0274 31.2689 9.57859 31.2689 7.79769C31.2692 6.01578 32.7187 4.5663 34.5006 4.5663ZM34.5029 13.0755C37.898 13.0768 40.788 15.3569 41.6388 18.5383H27.3617C28.2125 15.3569 31.1025 13.0768 34.4976 13.0755C34.4986 13.0755 34.4993 13.0755 34.5003 13.0755C34.5013 13.0758 34.5023 13.0755 34.5029 13.0755ZM8.93505 53.1801C8.93505 51.3982 10.3845 49.9487 12.1664 49.9487C13.9483 49.9487 15.3978 51.3982 15.3978 53.1801C15.3978 54.961 13.9497 56.4098 12.1691 56.4111C12.1681 56.4111 12.1674 56.4111 12.1664 56.4111C12.1654 56.4111 12.1648 56.4111 12.1638 56.4111C10.3832 56.4098 8.93505 54.9607 8.93505 53.1801ZM5.02785 63.9204C5.87837 60.7389 8.76868 58.4589 12.1638 58.4576C12.1644 58.4576 12.1654 58.4576 12.1664 58.4576C12.1671 58.4576 12.1681 58.4576 12.1691 58.4576C15.5642 58.4589 18.4542 60.7389 19.3047 63.9204H5.02785ZM34.5003 64.4472C29.2351 64.4472 24.123 62.9634 19.702 60.1563C18.6874 58.8126 17.3235 57.7571 15.7492 57.1139C15.7382 57.1036 15.7269 57.093 15.7159 57.0826C16.7771 56.1167 17.4443 54.7247 17.4443 53.1801C17.4443 50.2698 15.0767 47.9019 12.1664 47.9019C11.1968 47.9019 10.2884 48.1658 9.50673 48.624C7.77075 44.9524 6.85501 40.8918 6.85501 36.8022C6.85501 23.4937 16.5448 11.9614 29.5402 9.60221C29.838 10.4181 30.3318 11.1405 30.9641 11.7122C27.8175 12.9783 25.4976 15.8899 25.1162 19.4527C25.0853 19.7416 25.1785 20.0297 25.3725 20.2457C25.5668 20.4617 25.8433 20.5851 26.1338 20.5851H42.8664C43.1569 20.5851 43.4334 20.4617 43.6274 20.2457C43.8217 20.0297 43.9149 19.7416 43.8839 19.4527C43.5026 15.8899 41.1826 12.9787 38.0364 11.7122C38.6687 11.1405 39.1621 10.4185 39.46 9.60221C52.4557 11.9614 62.1452 23.4937 62.1452 36.8022C62.1452 40.8918 61.2294 44.9524 59.4935 48.6237C58.7118 48.1658 57.8034 47.9019 56.8341 47.9019C55.5912 47.9019 54.4479 48.3349 53.5451 49.0563L51.6824 47.2491C51.2618 46.8405 50.7051 46.6222 50.1174 46.6292C49.8133 46.6338 49.5198 46.7007 49.2506 46.8208L46.4182 44.0726C47.7159 41.9533 48.4646 39.4636 48.4646 36.8022C48.4646 29.102 42.2002 22.8375 34.4999 22.8375C26.8 22.8375 20.5355 29.102 20.5355 36.8022C20.5355 44.5022 26.8003 50.7666 34.5003 50.7666C37.6228 50.7666 40.5091 49.7364 42.8374 47.9981L45.553 50.6332C45.2206 51.4411 45.389 52.4058 46.0528 53.0503L51.333 58.1737C50.5597 58.7274 49.8732 59.3953 49.2985 60.156C44.8775 62.9634 39.7658 64.4472 34.5003 64.4472ZM49.6958 63.9204C50.5464 60.7389 53.4367 58.4589 56.8318 58.4576C56.8328 58.4576 56.8334 58.4576 56.8344 58.4576C56.8354 58.4576 56.8361 58.4576 56.8371 58.4576C60.2322 58.4589 63.1221 60.7389 63.973 63.9204H49.6958Z" fill="#AF7B20"/>
</g>
</svg>
