<svg width="83" height="83" viewBox="0 0 83 83" fill="none" xmlns="http://www.w3.org/2000/svg">
<path fill-rule="evenodd" clip-rule="evenodd" d="M17.7494 24.8505C16.9817 24.8505 16.262 24.5627 15.7345 24.0347L13.8152 22.1154L11.8959 24.0347C11.3683 24.5627 10.6482 24.8505 9.92856 24.8505C9.16084 24.8505 8.44115 24.5627 7.9136 24.0347C7.38564 23.5072 7.09785 22.7875 7.09785 22.0197C7.09785 21.252 7.38564 20.5323 7.9136 20.0044L9.83289 18.0851L7.9136 16.1658C6.81005 15.0623 6.81005 13.2871 7.9136 12.1835C8.44115 11.656 9.16084 11.3682 9.92856 11.3682C10.6482 11.3682 11.3683 11.656 11.8959 12.1835L13.8152 14.1028L15.7345 12.1835C16.262 11.656 16.9817 11.3682 17.7494 11.3682C18.5172 11.3682 19.2368 11.656 19.7648 12.1835C20.8683 13.2871 20.8683 15.0623 19.7648 16.1658L17.8455 18.0851L19.7648 20.0044C20.2923 20.5323 20.5805 21.252 20.5805 22.0197C20.5805 22.7875 20.2923 23.5072 19.7648 24.0347C19.1888 24.5627 18.5172 24.8505 17.7494 24.8505ZM13.8152 19.8603C14.0549 19.8603 14.2951 19.9564 14.4868 20.1005L17.0778 22.6914C17.2695 22.8831 17.5097 22.9792 17.7494 22.9792C17.9896 22.9792 18.2294 22.8831 18.4211 22.6914C18.6132 22.4993 18.7093 22.2595 18.7093 22.0197C18.7093 21.7796 18.6132 21.5398 18.4211 21.3477L15.8301 18.7567C15.4943 18.4209 15.4943 17.7973 15.8301 17.4615L18.4211 14.8705C18.8049 14.4867 18.8049 13.863 18.4211 13.5272C18.2294 13.3351 17.9896 13.239 17.7494 13.239C17.5097 13.239 17.2695 13.3351 17.0778 13.4792L14.4868 16.0701C14.2951 16.2619 14.103 16.3579 13.8152 16.3579C13.5754 16.3579 13.3353 16.2619 13.1916 16.0701L10.6006 13.4792C10.4085 13.3351 10.1687 13.239 9.92856 13.239C9.64076 13.239 9.401 13.3351 9.2569 13.4792C9.2569 13.4792 9.2569 13.4792 9.20887 13.5272C8.87304 13.863 8.87304 14.4867 9.20887 14.8705L11.7998 17.4615C12.1837 17.7973 12.1837 18.4209 11.7998 18.7567L9.20887 21.3477C9.06517 21.5398 8.96911 21.7796 8.96911 22.0197C8.96911 22.2595 9.06517 22.4993 9.20887 22.6914C9.401 22.8831 9.64076 22.9792 9.92856 22.9792C10.1687 22.9792 10.4085 22.8831 10.6006 22.6914L13.1916 20.1005C13.3353 19.9564 13.5754 19.8603 13.8152 19.8603Z" fill="#AF7B20"/>
<mask id="mask0_593_1190" style="mask-type:luminance" maskUnits="userSpaceOnUse" x="1" y="5" width="26" height="26">
<path d="M1.67578 5.94336H26.0266V30.2285H1.67578V5.94336Z" fill="white"/>
</mask>
<g mask="url(#mask0_593_1190)">
<path fill-rule="evenodd" clip-rule="evenodd" d="M13.8148 30.2252C7.14547 30.2252 1.67578 24.8036 1.67578 18.0863C1.67578 11.417 7.14547 5.94727 13.8148 5.94727C20.5321 5.94727 25.9538 11.417 25.9538 18.0863C25.9538 24.8036 20.5321 30.2252 13.8148 30.2252ZM13.8148 7.81853C8.15295 7.81853 3.54704 12.4248 3.54704 18.0863C3.54704 23.7481 8.15295 28.354 13.8148 28.354C19.4766 28.354 24.0825 23.7481 24.0825 18.0863C24.0825 12.4248 19.4766 7.81853 13.8148 7.81853Z" fill="#AF7B20"/>
</g>
<path fill-rule="evenodd" clip-rule="evenodd" d="M66.353 35.3579C65.8255 35.3579 65.4416 34.9264 65.4416 34.3984C65.4416 31.9516 66.881 31.4236 67.8885 31.0878C68.896 30.7519 69.472 30.5598 69.472 28.5449C69.472 26.8177 68.0806 25.426 66.353 25.426C64.6259 25.426 63.2345 26.8177 63.2345 28.5449C63.2345 29.0724 62.8027 29.5043 62.2747 29.5043C61.7471 29.5043 61.3633 29.0724 61.3633 28.5449C61.3633 25.7618 63.5704 23.5547 66.353 23.5547C69.1361 23.5547 71.3912 25.7618 71.3912 28.5449C71.3912 31.8555 69.616 32.4791 68.5125 32.863C67.6007 33.1988 67.3129 33.2949 67.3129 34.3984C67.3129 34.9264 66.881 35.3579 66.353 35.3579Z" fill="#AF7B20"/>
<path fill-rule="evenodd" clip-rule="evenodd" d="M66.3528 38.1893C65.8253 38.1893 65.4414 37.7574 65.4414 37.2295V36.9897C65.4414 36.4618 65.8253 36.0303 66.3528 36.0303C66.8808 36.0303 67.3127 36.4618 67.3127 36.9897V37.2295C67.3127 37.7574 66.8808 38.1893 66.3528 38.1893Z" fill="#AF7B20"/>
<mask id="mask1_593_1190" style="mask-type:luminance" maskUnits="userSpaceOnUse" x="51" y="19" width="31" height="29">
<path d="M51.3379 19.1621H81.2957V47.3411H51.3379V19.1621Z" fill="white"/>
</mask>
<g mask="url(#mask1_593_1190)">
<path fill-rule="evenodd" clip-rule="evenodd" d="M58.2938 47.306C58.1501 47.306 57.958 47.258 57.8143 47.1619C57.5261 47.0182 57.3824 46.7304 57.3344 46.3946L57.1903 42.508H55.9907C53.4478 42.508 51.3848 40.445 51.3848 37.9021V23.7958C51.3848 21.2528 53.4478 19.1895 55.9907 19.1895H76.7183C79.2612 19.1895 81.3246 21.2528 81.3246 23.7958V37.9021C81.3246 40.445 79.2612 42.508 76.7183 42.508H67.5541L58.7257 47.21C58.5816 47.258 58.4379 47.306 58.2938 47.306ZM55.9907 21.0607C54.5037 21.0607 53.256 22.3084 53.256 23.7958V37.9021C53.256 39.3895 54.5037 40.6367 55.9907 40.6367H58.1021C58.6297 40.6367 59.0135 41.0686 59.0615 41.5485L59.1576 44.8592L66.8824 40.7808C67.0265 40.6848 67.1702 40.6367 67.3143 40.6367H76.7183C78.2537 40.6367 79.4533 39.3895 79.4533 37.9021V23.7958C79.4533 22.3084 78.2537 21.0607 76.7183 21.0607H55.9907Z" fill="#AF7B20"/>
</g>
<path fill-rule="evenodd" clip-rule="evenodd" d="M36.2703 57.6691C29.6971 57.6691 24.3711 52.3431 24.3711 45.7699V36.8935C24.3711 32.8632 27.6817 29.6006 31.712 29.6006H40.8286C44.8589 29.6006 48.1215 32.8632 48.1215 36.8935V45.7699C48.1215 52.3431 42.7955 57.6691 36.2703 57.6691ZM31.712 31.4718C28.6896 31.4718 26.2904 33.8707 26.2904 36.8935V45.7699C26.2904 51.2876 30.7526 55.7498 36.2703 55.7498C41.788 55.7498 46.2503 51.2876 46.2503 45.7699V36.8935C46.2503 33.8707 43.8034 31.4718 40.8286 31.4718H31.712Z" fill="#AF7B20"/>
<path fill-rule="evenodd" clip-rule="evenodd" d="M36.2699 64.5305C33.5829 64.5305 31.4238 62.3715 31.4238 59.7325V55.99C31.4238 55.7022 31.5679 55.4144 31.8557 55.2226C32.0955 55.0305 32.4313 55.0305 32.7195 55.1266C33.823 55.5585 35.0223 55.7982 36.2699 55.7982C37.4695 55.7982 38.6687 55.5585 39.8203 55.1266C40.1085 55.0305 40.3963 55.0305 40.6841 55.2226C40.9238 55.4144 41.0679 55.7022 41.0679 55.99V59.7325C41.0679 62.3715 38.9089 64.5305 36.2699 64.5305ZM33.2951 57.2856V59.7325C33.2951 61.364 34.6384 62.6593 36.2699 62.6593C37.9014 62.6593 39.1967 61.364 39.1967 59.7325V57.2856C37.2774 57.7656 35.2144 57.7656 33.2951 57.2856Z" fill="#AF7B20"/>
<path fill-rule="evenodd" clip-rule="evenodd" d="M54.9342 77.0532H17.3657C16.8381 77.0532 16.4062 76.6693 16.4062 76.1417V71.5835C16.4062 64.4346 22.2118 58.6768 29.313 58.6768H32.3838C32.9114 58.6768 33.2952 59.0606 33.2952 59.5886V59.7323C33.2952 61.3638 34.6386 62.659 36.2701 62.659C37.9016 62.659 39.1968 61.3638 39.1968 59.7323V59.5886C39.1968 59.0606 39.6287 58.6768 40.1563 58.6768H42.9394C50.0882 58.6768 55.8461 64.4346 55.8461 71.5835V76.1417C55.8461 76.6693 55.4622 77.0532 54.9342 77.0532ZM18.2775 75.1819H53.9748V71.5835C53.9748 65.4902 49.0327 60.548 42.9394 60.548H41.0201C40.6362 62.8031 38.6212 64.5303 36.2701 64.5303C33.8708 64.5303 31.9039 62.8031 31.5201 60.548H29.313C23.2673 60.548 18.2775 65.4902 18.2775 71.5835V75.1819Z" fill="#AF7B20"/>
<path fill-rule="evenodd" clip-rule="evenodd" d="M27.0091 77.0531C26.4815 77.0531 26.0977 76.6692 26.0977 76.1416V71.2475C26.0977 70.72 26.4815 70.2881 27.0091 70.2881C27.537 70.2881 27.9685 70.72 27.9685 71.2475V76.1416C27.9685 76.6692 27.537 77.0531 27.0091 77.0531Z" fill="#AF7B20"/>
<path fill-rule="evenodd" clip-rule="evenodd" d="M45.2895 77.0531C44.762 77.0531 44.3301 76.6692 44.3301 76.1416V71.2475C44.3301 70.72 44.762 70.2881 45.2895 70.2881C45.7694 70.2881 46.2013 70.72 46.2013 71.2475V76.1416C46.2013 76.6692 45.7694 77.0531 45.2895 77.0531Z" fill="#AF7B20"/>
<path fill-rule="evenodd" clip-rule="evenodd" d="M42.0747 41.5958C39.9157 41.5958 37.3247 41.1158 34.6858 39.6765C32.5267 38.4288 30.4157 38.3328 28.4003 39.2926C26.9609 40.0123 26.0976 41.1158 26.0976 41.1639C25.7613 41.5477 25.1857 41.6434 24.7539 41.3076C24.37 41.0198 24.2739 40.4442 24.5621 40.0123C24.6102 39.9643 25.7137 38.5729 27.585 37.6131C29.3602 36.7497 32.1909 36.0776 35.6456 38.045C41.1633 41.1639 46.7767 38.9088 46.8247 38.9088C47.3047 38.6686 47.8326 38.9088 48.0724 39.3887C48.2641 39.8682 48.0244 40.4442 47.5444 40.6359C47.4007 40.684 45.1456 41.5958 42.0747 41.5958Z" fill="#AF7B20"/>
</svg>
