<svg width="70" height="70" viewBox="0 0 70 70" fill="none" xmlns="http://www.w3.org/2000/svg">
<mask id="mask0_487_4734" style="mask-type:luminance" maskUnits="userSpaceOnUse" x="3" y="0" width="60" height="70">
<path d="M3.02539 0.754883H62.9703V69.2641H3.02539V0.754883Z" fill="white"/>
</mask>
<g mask="url(#mask0_487_4734)">
<path d="M19.8172 44.0741C19.0056 44.0741 18.2184 44.4137 17.6587 45.0048C17.1257 45.5676 16.8559 46.291 16.8971 47.0424L17.4187 56.5557C17.4967 57.9911 18.6846 58.7425 19.8172 58.7425C20.9497 58.7425 22.1377 57.9911 22.2157 56.5557L22.7372 47.0424C22.7784 46.291 22.507 45.5676 21.9756 45.0048C21.4156 44.4124 20.6301 44.0741 19.8172 44.0741ZM21.0362 46.9486L20.5149 56.4622C20.4849 56.9949 19.9748 57.0361 19.8185 57.0361C19.6622 57.0361 19.1508 56.9949 19.1221 56.4622L18.6009 46.9486C18.585 46.6701 18.6917 46.3946 18.8993 46.1759C19.138 45.9227 19.4732 45.7779 19.8185 45.7779C20.1639 45.7779 20.4991 45.9227 20.7377 46.1759C20.9453 46.396 21.0503 46.6701 21.0362 46.9486ZM19.8172 60.8882C18.3237 60.8882 17.1088 62.1031 17.1088 63.5966C17.1088 65.09 18.3237 66.3049 19.8172 66.3049C21.3106 66.3049 22.5255 65.09 22.5255 63.5966C22.5255 62.1031 21.312 60.8882 19.8172 60.8882ZM19.8172 64.6012C19.2629 64.6012 18.8139 64.1509 18.8139 63.5982C18.8139 63.0453 19.2642 62.595 19.8172 62.595C20.3711 62.595 20.8204 63.0453 20.8204 63.5982C20.8204 64.1509 20.3711 64.6012 19.8172 64.6012ZM58.9403 8.12554H49.9783V5.50932C49.9783 5.03907 49.5962 4.65694 49.1256 4.65694H43.6012C42.98 2.38774 40.8985 0.754883 38.4828 0.754883C36.0658 0.754883 33.9853 2.38774 33.3645 4.65694H27.8397C27.3694 4.65694 26.9873 5.03907 26.9873 5.50932V8.12554H18.0253C15.7943 8.12554 13.9784 9.94002 13.9784 12.1724V43.7744L3.736 61.5151C2.79112 63.152 2.79112 65.0302 3.736 66.6675C4.68122 68.3058 6.308 69.2449 8.1981 69.2449H31.4376C33.329 69.2449 34.9545 68.3058 35.901 66.6688C36.0928 66.3377 36.2433 65.9967 36.3571 65.6487H58.9403C61.171 65.6487 62.9872 63.8339 62.9872 61.6015V12.1724C62.9859 9.94137 61.171 8.12554 58.9403 8.12554ZM28.6911 6.36204H34.0609C34.4913 6.36204 34.8535 6.041 34.9062 5.61464C35.128 3.81569 36.6653 2.45998 38.4798 2.45998C40.2946 2.45998 41.8319 3.81569 42.0537 5.61464C42.106 6.04235 42.4699 6.36204 42.899 6.36204H48.2688V11.9094H28.688V6.36204H28.6911ZM34.4231 65.8161C33.7807 66.9274 32.7207 67.5398 31.4376 67.5398H8.1981C6.91497 67.5398 5.85329 66.9274 5.21256 65.8161C4.57184 64.7052 4.57016 63.4801 5.21256 62.3691L16.8316 42.2424C17.474 41.1315 18.534 40.5188 19.8172 40.5188C21.1003 40.5188 22.1616 41.1315 22.8024 42.2424L34.4218 62.3691C35.0655 63.4801 35.0655 64.7035 34.4231 65.8161ZM61.2804 61.6032C61.2804 62.8934 60.2305 63.9449 58.939 63.9449H36.6042C36.5785 63.1148 36.3456 62.2895 35.901 61.5164L24.2816 41.3901C23.3367 39.7531 21.71 38.8137 19.8185 38.8137C18.1303 38.8137 16.6541 39.5641 15.6835 40.8898V12.1724C15.6835 10.8822 16.7337 9.83064 18.0253 9.83064H26.9873V12.7622C26.9873 13.2324 27.3694 13.6145 27.8397 13.6145H49.1256C49.5962 13.6145 49.9783 13.2324 49.9783 12.7622V9.83064H58.9403C60.2305 9.83064 61.2821 10.8805 61.2821 12.1724V61.6032H61.2804ZM54.7399 23.594L51.1933 27.7445C51.0312 27.9336 50.7939 28.0429 50.5451 28.0429C50.2967 28.0429 50.0593 27.9336 49.8973 27.7445L47.8752 25.3771C47.5697 25.0193 47.6109 24.4805 47.9691 24.175C48.3272 23.8695 48.8657 23.9123 49.1712 24.2688L50.5451 25.8774L53.4439 22.484C53.7494 22.1262 54.2882 22.0833 54.646 22.3905C55.0042 22.6974 55.0454 23.2358 54.7399 23.594ZM42.6333 20.8046C42.6333 21.2748 42.2512 21.6573 41.7809 21.6573H24.5942C24.124 21.6573 23.7418 21.2748 23.7418 20.8046C23.7418 20.3344 24.124 19.9519 24.5942 19.9519H41.7809C42.2512 19.9519 42.6333 20.3344 42.6333 20.8046ZM42.6333 27.1905C42.6333 27.6608 42.2512 28.0429 41.7809 28.0429H24.5942C24.124 28.0429 23.7418 27.6608 23.7418 27.1905C23.7418 26.72 24.124 26.3378 24.5942 26.3378H41.7809C42.2512 26.3378 42.6333 26.72 42.6333 27.1905ZM42.6333 35.5483C42.6333 36.0189 42.2512 36.401 41.7809 36.401H24.5942C24.124 36.401 23.7418 36.0189 23.7418 35.5483C23.7418 35.078 24.124 34.6959 24.5942 34.6959H41.7809C42.2512 34.6959 42.6333 35.0767 42.6333 35.5483ZM42.6333 41.8546C42.6333 42.3248 42.2512 42.7073 41.7809 42.7073H33.9299C33.4597 42.7073 33.0775 42.3248 33.0775 41.8546C33.0775 41.3843 33.4597 41.0022 33.9299 41.0022H41.7809C42.2512 41.0022 42.6333 41.3843 42.6333 41.8546ZM42.6333 50.0152C42.6333 50.4854 42.2512 50.8679 41.7809 50.8679H33.7395C33.2693 50.8679 32.8871 50.4854 32.8871 50.0152C32.8871 49.5449 33.2693 49.1628 33.7395 49.1628H41.7809C42.2512 49.1628 42.6333 49.5436 42.6333 50.0152ZM42.6333 56.3214C42.6333 56.7917 42.2512 57.1738 41.7809 57.1738H36.4992C36.0286 57.1738 35.6465 56.7917 35.6465 56.3214C35.6465 55.8512 36.0286 55.4687 36.4992 55.4687H41.7809C42.2512 55.4687 42.6333 55.8512 42.6333 56.3214ZM54.7399 38.2185L51.1933 42.369C51.0312 42.5581 50.7939 42.6674 50.5451 42.6674C50.2967 42.6674 50.0593 42.5581 49.8973 42.369L47.8752 40.0016C47.5697 39.6438 47.6109 39.105 47.9691 38.7995C48.3272 38.494 48.8657 38.5369 49.1712 38.8933L50.5451 40.5019L53.4439 37.1086C53.7494 36.7507 54.2882 36.7079 54.646 37.0147C55.0042 37.3219 55.0454 37.8603 54.7399 38.2185ZM54.7399 52.843L51.1933 56.9935C51.0312 57.1826 50.7939 57.292 50.5451 57.292C50.2967 57.292 50.0593 57.1826 49.8973 56.9935L47.8752 54.6261C47.5697 54.2679 47.6109 53.7295 47.9691 53.424C48.3272 53.1185 48.8657 53.161 49.1712 53.5179L50.5451 55.1264L53.4439 51.7331C53.7494 51.3749 54.2882 51.3324 54.646 51.6392C55.0042 51.9478 55.0454 52.4849 54.7399 52.843ZM38.4828 3.26004C37.1426 3.26004 36.0529 4.35008 36.0529 5.68992C36.0529 7.02977 37.1426 8.1198 38.4828 8.1198C39.8227 8.1198 40.9127 7.02977 40.9127 5.68992C40.911 4.35008 39.8213 3.26004 38.4828 3.26004ZM38.4828 6.4147C38.0835 6.4147 37.758 6.08928 37.758 5.68992C37.758 5.29057 38.0835 4.96514 38.4828 4.96514C38.8822 4.96514 39.2076 5.29057 39.2076 5.68992C39.2059 6.08928 38.8822 6.4147 38.4828 6.4147Z" fill="#AF7B20"/>
</g>
</svg>
