<svg width="78" height="78" viewBox="0 0 78 78" fill="none" xmlns="http://www.w3.org/2000/svg">
<mask id="mask0_597_1749" style="mask-type:luminance" maskUnits="userSpaceOnUse" x="5" y="2" width="68" height="74">
<path d="M5.2168 2.50391H72.8006V75.4002H5.2168V2.50391Z" fill="white"/>
</mask>
<g mask="url(#mask0_597_1749)">
<path d="M13.048 17.6756H42.7118C42.816 17.6749 42.9187 17.6614 43.0195 17.6354C43.1203 17.6094 43.2166 17.5714 43.308 17.5214C43.3994 17.4718 43.4837 17.4116 43.5604 17.3409C43.6368 17.2705 43.7037 17.1915 43.7613 17.1046C43.8918 16.8959 43.9572 16.6687 43.9569 16.4223V9.91702C43.9569 9.83464 43.9493 9.75339 43.9336 9.6729C43.9178 9.5924 43.8941 9.51453 43.8632 9.43855C43.832 9.36257 43.7936 9.29072 43.7485 9.22226C43.703 9.1538 43.6514 9.0906 43.5935 9.0323C43.536 8.97399 43.4728 8.92209 43.405 8.87619C43.337 8.8303 43.2651 8.79156 43.1895 8.75996C43.1139 8.72799 43.0357 8.70391 42.9555 8.68774C42.875 8.67119 42.7938 8.66291 42.7118 8.66254H13.048C12.966 8.66291 12.8851 8.67119 12.8046 8.68774C12.7241 8.70391 12.6463 8.72799 12.5707 8.75996C12.4951 8.79156 12.4232 8.8303 12.3551 8.87619C12.2874 8.92209 12.2246 8.97399 12.1667 9.0323C12.1091 9.0906 12.0576 9.1538 12.0121 9.22226C11.9669 9.29072 11.9286 9.36257 11.8977 9.43855C11.8665 9.51453 11.8432 9.59277 11.8274 9.67327C11.8116 9.75377 11.8037 9.83502 11.8041 9.91702V16.4223C11.8041 16.5043 11.8116 16.5855 11.8274 16.666C11.8432 16.7462 11.8665 16.8244 11.8977 16.9004C11.9289 16.976 11.9673 17.0482 12.0125 17.1163C12.058 17.1848 12.1091 17.248 12.1671 17.3063C12.2246 17.3642 12.2878 17.4165 12.3555 17.462C12.4236 17.5079 12.4954 17.5466 12.5711 17.5786C12.6467 17.6102 12.7245 17.6343 12.8046 17.6504C12.8851 17.667 12.966 17.6753 13.048 17.6756ZM14.3018 11.161H41.4584V15.1783H14.3018V11.161ZM17.2903 45.2991H13.048C12.966 45.2999 12.8851 45.3082 12.8046 45.3247C12.7241 45.3409 12.6463 45.365 12.5707 45.3969C12.4951 45.4285 12.4232 45.4673 12.3551 45.5132C12.2874 45.5591 12.2246 45.611 12.1667 45.6693C12.1091 45.7276 12.0576 45.7908 12.0121 45.8592C11.9669 45.9273 11.9286 45.9995 11.8977 46.0755C11.8665 46.1515 11.8432 46.2294 11.8274 46.3099C11.8116 46.3904 11.8037 46.4716 11.8041 46.5536V50.6868C11.8041 50.7688 11.8116 50.8501 11.8274 50.9302C11.8432 51.0107 11.8669 51.089 11.8977 51.1646C11.9289 51.2405 11.9673 51.3124 12.0125 51.3809C12.058 51.4489 12.1095 51.5121 12.1671 51.5704C12.225 51.6284 12.2878 51.6803 12.3555 51.7262C12.4236 51.7721 12.4954 51.8108 12.5711 51.8424C12.6467 51.874 12.7245 51.8981 12.8046 51.9142C12.8851 51.9308 12.966 51.9391 13.048 51.9394H17.2903C17.3727 51.9394 17.4543 51.9312 17.5348 51.915C17.6157 51.8992 17.6939 51.8751 17.7699 51.8435C17.8459 51.8123 17.9181 51.7736 17.9866 51.7277C18.055 51.6822 18.1182 51.6302 18.1765 51.5719C18.2345 51.5136 18.2868 51.4504 18.3323 51.382C18.3782 51.3135 18.4165 51.2413 18.4481 51.1653C18.4797 51.0893 18.5034 51.0111 18.5196 50.9302C18.5358 50.8497 18.5437 50.7681 18.5437 50.6857V46.5536C18.5437 46.4712 18.5358 46.39 18.5196 46.3091C18.5034 46.2286 18.4797 46.15 18.4481 46.074C18.4165 45.998 18.3782 45.9258 18.3323 45.8574C18.2868 45.7889 18.2349 45.7257 18.1765 45.6674C18.1182 45.6091 18.055 45.5572 17.9866 45.5113C17.9181 45.4654 17.8459 45.427 17.7699 45.3954C17.6939 45.3638 17.6157 45.3398 17.5348 45.3236C17.4543 45.3074 17.3727 45.2995 17.2903 45.2991ZM16.0358 49.4399H14.3018V47.7987H16.0388L16.0358 49.4399ZM47.1358 40.7965C47.3991 40.5321 47.6966 40.3151 48.0288 40.1447C48.3605 39.9743 48.7107 39.8595 49.079 39.7997V39.0666C49.0768 38.9835 49.0828 38.9011 49.0971 38.8191C49.1114 38.7371 49.1335 38.6573 49.1636 38.5798C49.1941 38.5024 49.2317 38.4286 49.2765 38.3587C49.3216 38.2887 49.3732 38.224 49.4311 38.1642C49.489 38.1048 49.5526 38.0513 49.621 38.0047C49.6899 37.9577 49.7625 37.9178 49.8392 37.8855C49.916 37.8531 49.995 37.8287 50.0766 37.8125C50.1578 37.7959 50.2402 37.7877 50.3237 37.7877C50.4068 37.7877 50.4892 37.7959 50.5705 37.8125C50.6521 37.8287 50.7311 37.8531 50.8078 37.8855C50.8846 37.9178 50.9572 37.9577 51.026 38.0047C51.0945 38.0513 51.158 38.1048 51.216 38.1642C51.2739 38.224 51.3254 38.2887 51.3706 38.3587C51.4153 38.4286 51.4529 38.5024 51.4834 38.5798C51.5135 38.6573 51.5357 38.7371 51.55 38.8191C51.5643 38.9011 51.5703 38.9835 51.568 39.0666V39.7997C51.9115 39.8573 52.2391 39.9633 52.5513 40.1176C52.8635 40.2714 53.1468 40.4674 53.4011 40.7051C53.4349 40.7322 53.4665 40.7623 53.4955 40.7947C53.7659 41.0625 53.9875 41.3664 54.1605 41.7057C54.3335 42.045 54.449 42.4027 54.507 42.7793C54.5348 42.9538 54.548 43.1295 54.5465 43.3063C54.5465 43.3886 54.5386 43.4699 54.5224 43.5508C54.5062 43.6313 54.4825 43.7099 54.4509 43.7859C54.4197 43.8618 54.3809 43.9341 54.3351 44.0025C54.2895 44.071 54.2376 44.1342 54.1793 44.1925C54.121 44.2508 54.0578 44.3027 53.9894 44.3486C53.9209 44.3941 53.8487 44.4329 53.7727 44.4641C53.6967 44.4957 53.6181 44.5194 53.5376 44.5355C53.4567 44.5517 53.3755 44.5596 53.2931 44.5596C53.2107 44.5596 53.1291 44.5517 53.0486 44.5355C52.9677 44.5194 52.8895 44.4957 52.8135 44.4641C52.7371 44.4329 52.6649 44.3941 52.5965 44.3486C52.528 44.3027 52.4648 44.2508 52.4065 44.1925C52.3486 44.1342 52.2967 44.071 52.2508 44.0025C52.2049 43.9341 52.1665 43.8618 52.1349 43.7859C52.1033 43.7099 52.0796 43.6313 52.0634 43.5508C52.0476 43.4699 52.0394 43.3886 52.0394 43.3063C52.0412 43.1863 52.0194 43.0704 51.9747 42.9591C51.9231 42.8052 51.84 42.6713 51.7253 42.557C51.6267 42.4592 51.5131 42.3835 51.3849 42.3305C51.2562 42.2775 51.1227 42.2508 50.9835 42.2504H49.6493C49.5105 42.2508 49.3769 42.2775 49.2483 42.3301C49.12 42.3832 49.0064 42.4584 48.9079 42.5562C48.8477 42.6111 48.7965 42.6739 48.7551 42.7443C48.7247 42.7936 48.698 42.8451 48.6758 42.8985C48.6532 42.9519 48.6355 43.0068 48.622 43.0636C48.6088 43.1201 48.6002 43.1772 48.596 43.2348C48.5919 43.2927 48.5926 43.3506 48.5983 43.4086C48.6035 43.4661 48.6137 43.5229 48.6284 43.5794C48.643 43.6354 48.6622 43.6899 48.6855 43.743C48.7092 43.796 48.7371 43.8464 48.7691 43.8949C48.8007 43.9435 48.8364 43.989 48.8759 44.0319C48.9778 44.1361 49.0956 44.2173 49.2295 44.2756C49.3634 44.3339 49.5033 44.3651 49.6493 44.3685H50.9884C51.3596 44.3685 51.7223 44.4253 52.0759 44.5389C52.4291 44.6525 52.7571 44.8177 53.0588 45.034C53.2194 45.1457 53.3683 45.2713 53.5056 45.4105L53.5763 45.4914C53.7934 45.7182 53.9762 45.9698 54.1244 46.2467C54.2726 46.5232 54.3809 46.8147 54.4494 47.1212C54.5167 47.3838 54.548 47.6501 54.5438 47.921C54.5431 48.2644 54.4938 48.6007 54.396 48.9298C54.2978 49.2593 54.1556 49.5678 53.9687 49.8559C53.8314 50.0669 53.6745 50.2625 53.4981 50.4423C53.234 50.7049 52.9365 50.9208 52.6051 51.0908C52.2737 51.2605 51.9243 51.376 51.5568 51.4369V52.1719C51.559 52.255 51.553 52.3374 51.5387 52.4194C51.5244 52.5014 51.5022 52.5812 51.4721 52.6587C51.4417 52.7362 51.404 52.8099 51.3593 52.8798C51.3141 52.9498 51.2626 53.0145 51.2047 53.0743C51.1467 53.1337 51.0832 53.1872 51.0147 53.2342C50.9459 53.2808 50.8733 53.3207 50.7965 53.353C50.7198 53.3854 50.6408 53.4098 50.5592 53.4264C50.4779 53.443 50.3956 53.4508 50.3121 53.4508C50.2289 53.4508 50.1465 53.443 50.0653 53.4264C49.9837 53.4098 49.9047 53.3854 49.8279 53.353C49.7512 53.3207 49.6786 53.2808 49.6098 53.2342C49.5413 53.1872 49.4777 53.1337 49.4198 53.0743C49.3619 53.0145 49.3103 52.9498 49.2652 52.8798C49.2204 52.8099 49.1828 52.7362 49.1524 52.6587C49.1223 52.5812 49.1001 52.5014 49.0858 52.4194C49.0715 52.3374 49.0655 52.255 49.0677 52.1719V51.4358C48.681 51.3707 48.315 51.2451 47.9693 51.0596C47.6594 50.8971 47.381 50.6917 47.1346 50.4431C46.968 50.2783 46.8194 50.0985 46.6885 49.9041C46.5576 49.7096 46.447 49.5042 46.3568 49.2879C46.2665 49.0716 46.1984 48.8482 46.1525 48.6184C46.1066 48.3885 46.0837 48.1564 46.0837 47.9221C46.0837 47.8397 46.0916 47.7581 46.1077 47.6776C46.1239 47.5967 46.1476 47.5185 46.1792 47.4425C46.2104 47.3661 46.2492 47.2939 46.2947 47.2254C46.3406 47.1574 46.3925 47.0938 46.4508 47.0359C46.5091 46.9776 46.5723 46.9256 46.6408 46.8798C46.7092 46.8342 46.7814 46.7955 46.8574 46.7639C46.9334 46.7323 47.012 46.7086 47.0925 46.6928C47.1734 46.6766 47.2546 46.6687 47.337 46.6687C47.4194 46.6687 47.501 46.6766 47.5815 46.6928C47.6624 46.7086 47.7406 46.7323 47.8166 46.7639C47.893 46.7955 47.9652 46.8342 48.0337 46.8798C48.1018 46.9256 48.1653 46.9776 48.2236 47.0359C48.2816 47.0938 48.3335 47.1574 48.3794 47.2254C48.4249 47.2939 48.4636 47.3661 48.4952 47.4425C48.5268 47.5185 48.5505 47.5967 48.5667 47.6776C48.5825 47.7581 48.5908 47.8397 48.5908 47.9221C48.5893 48.0628 48.6148 48.1986 48.6679 48.3291C48.7209 48.4596 48.7973 48.5751 48.8966 48.6748C48.9966 48.7745 49.1117 48.8516 49.2419 48.9061C49.3724 48.9607 49.5082 48.9885 49.6493 48.99H50.979C51.0486 48.9892 51.1178 48.9821 51.1859 48.9678C51.2543 48.9535 51.3205 48.9332 51.3849 48.9061C51.4492 48.879 51.5101 48.8459 51.568 48.8072C51.626 48.7684 51.6798 48.7241 51.729 48.6748C51.7783 48.6255 51.8223 48.5721 51.8614 48.5142C51.9002 48.4562 51.9333 48.3949 51.96 48.3306C51.9871 48.2666 52.0078 48.2001 52.0221 48.132C52.036 48.0635 52.0435 47.9947 52.0443 47.9247C52.0428 47.7261 51.9901 47.5418 51.8863 47.3725C51.8509 47.318 51.8107 47.2676 51.7655 47.2209C51.6651 47.1096 51.5462 47.0234 51.4093 46.9625C51.2724 46.9012 51.1291 46.8704 50.979 46.87H49.6587C49.3645 46.8685 49.0749 46.8316 48.7894 46.7594C48.5042 46.6875 48.2319 46.5822 47.9724 46.4438C47.6647 46.2764 47.3863 46.0691 47.1377 45.8224L47.0763 45.7614C46.9974 45.6787 46.9225 45.5922 46.8518 45.5019C46.7811 45.412 46.7149 45.3187 46.6532 45.222C46.5915 45.1257 46.5347 45.0264 46.4824 44.9245C46.4305 44.8222 46.3835 44.718 46.3413 44.6115C46.2996 44.5047 46.2627 44.3964 46.2315 44.2865C46.1999 44.1763 46.1739 44.065 46.1533 43.9521C46.1326 43.8397 46.1171 43.7261 46.1074 43.6121C46.098 43.4981 46.0938 43.3837 46.095 43.269C46.0965 43.1547 46.1032 43.0403 46.1156 42.9267C46.1281 42.8127 46.1461 42.6999 46.1694 42.5878C46.1928 42.4757 46.2217 42.3647 46.2556 42.2553C46.2898 42.1462 46.3289 42.0386 46.3737 41.9333C46.4181 41.8276 46.4673 41.7245 46.5219 41.6237C46.5764 41.5229 46.6359 41.4251 46.6998 41.3303C46.7638 41.2351 46.8322 41.1434 46.9048 41.055C46.9778 40.9666 47.0545 40.8819 47.1358 40.8011V40.7965ZM42.7129 20.4697H38.4706C38.3886 20.4701 38.3074 20.4788 38.2272 20.4949C38.1467 20.5115 38.0689 20.5356 37.9933 20.5672C37.9177 20.5988 37.8458 20.6375 37.7777 20.6834C37.7096 20.7293 37.6468 20.7812 37.5893 20.8395C37.5314 20.8974 37.4798 20.9606 37.4343 21.0291C37.3892 21.0972 37.3508 21.1694 37.3196 21.2454C37.2884 21.321 37.265 21.3992 37.2492 21.4797C37.2334 21.5602 37.2255 21.6411 37.2255 21.7231V25.8574C37.2255 25.9391 37.2334 26.0203 37.2492 26.1008C37.265 26.1813 37.2884 26.2596 37.3196 26.3352C37.3508 26.4111 37.3892 26.483 37.4343 26.5515C37.4798 26.6199 37.5314 26.6831 37.5893 26.741C37.6468 26.7993 37.7096 26.8513 37.7777 26.8971C37.8458 26.943 37.9177 26.9818 37.9933 27.0134C38.0689 27.045 38.1467 27.069 38.2272 27.0856C38.3074 27.1018 38.3886 27.1104 38.4706 27.1108H42.7118C42.7938 27.1104 42.875 27.1018 42.9552 27.0856C43.0357 27.069 43.1135 27.045 43.1891 27.0134C43.2647 26.9818 43.3366 26.943 43.4047 26.8971C43.4728 26.8513 43.5356 26.7993 43.5931 26.741C43.6511 26.6831 43.7026 26.6199 43.7481 26.5515C43.7932 26.483 43.8316 26.4111 43.8628 26.3352C43.8941 26.2596 43.9174 26.1813 43.9332 26.1008C43.949 26.0203 43.9569 25.9391 43.9569 25.8574V21.7242C43.9569 21.6422 43.949 21.561 43.9332 21.4805C43.9174 21.4 43.8941 21.3221 43.8628 21.2461C43.8316 21.1701 43.7932 21.0983 43.7481 21.0298C43.7026 20.9618 43.6511 20.8986 43.5931 20.8403C43.5356 20.782 43.4728 20.73 43.4047 20.6842C43.3366 20.6386 43.2647 20.5999 43.1891 20.5679C43.1135 20.5363 43.0357 20.5122 42.9552 20.4961C42.875 20.4795 42.7938 20.4712 42.7118 20.4709L42.7129 20.4697ZM41.4592 24.6105H39.724V22.9776H41.4584L41.4592 24.6105ZM42.7129 28.7445H38.4706C38.3886 28.7448 38.3074 28.7531 38.2272 28.7697C38.1467 28.7858 38.0689 28.8099 37.9933 28.8419C37.9177 28.8735 37.8458 28.9122 37.7777 28.9581C37.7096 29.0036 37.6468 29.0559 37.5893 29.1138C37.5314 29.1721 37.4798 29.2353 37.4343 29.3038C37.3892 29.3719 37.3508 29.4441 37.3196 29.5197C37.2884 29.5957 37.265 29.6739 37.2492 29.7541C37.2334 29.8346 37.2255 29.9158 37.2255 29.9978V34.1348C37.2255 34.2168 37.2334 34.298 37.2492 34.3782C37.265 34.4587 37.2884 34.5369 37.3196 34.6125C37.3508 34.6885 37.3892 34.7603 37.4343 34.8288C37.4798 34.8969 37.5314 34.9601 37.5893 35.0184C37.6468 35.0763 37.71 35.1282 37.7777 35.1741C37.8458 35.22 37.9177 35.2587 37.9933 35.2903C38.0689 35.3219 38.1467 35.346 38.2272 35.3622C38.3074 35.3784 38.3886 35.387 38.4706 35.3874H42.7118C42.7855 35.3878 42.8585 35.3814 42.9311 35.3686C43.0037 35.3558 43.0744 35.3366 43.1436 35.311C43.2128 35.2855 43.279 35.2542 43.3426 35.2166C43.4058 35.1794 43.4656 35.1365 43.5213 35.0883C43.577 35.0402 43.6281 34.9875 43.6744 34.9304C43.7206 34.8728 43.7616 34.8119 43.7966 34.7475C43.832 34.6829 43.8613 34.6155 43.8846 34.5456C43.908 34.4756 43.9249 34.4045 43.9351 34.3315C43.9501 34.2668 43.9561 34.201 43.9539 34.1348V30.0008C43.9542 29.9188 43.9463 29.8376 43.9305 29.7574C43.9147 29.6769 43.8914 29.5991 43.8602 29.5235C43.829 29.4475 43.791 29.3756 43.7458 29.3072C43.7003 29.2391 43.6492 29.1759 43.5916 29.1176C43.5337 29.0597 43.4713 29.0078 43.4032 28.9619C43.3355 28.916 43.264 28.8772 43.1884 28.8453C43.1128 28.8137 43.0353 28.7896 42.9548 28.773C42.8747 28.7565 42.7938 28.7478 42.7118 28.7471L42.7129 28.7445ZM41.4592 32.8852H39.724V31.2542H41.4584L41.4592 32.8852ZM72.6381 67.5158C72.6464 67.4669 72.6517 67.418 72.6532 67.3687V66.3373H72.6776V15.9818C72.6776 15.8983 72.6693 15.8159 72.6528 15.7339C72.6366 15.6519 72.6122 15.5725 72.5802 15.4954C72.5482 15.4183 72.5091 15.345 72.4625 15.2758C72.4162 15.2062 72.3635 15.1422 72.3045 15.0832C72.2454 15.0241 72.1811 14.9714 72.1119 14.9252C72.0423 14.8785 71.9689 14.8394 71.8918 14.8074C71.8147 14.7755 71.7353 14.7514 71.6533 14.7352C71.5717 14.7187 71.489 14.7108 71.4055 14.7104H50.5517V7.2764C50.5513 7.12104 50.5434 6.96644 50.5276 6.81184C50.5122 6.65762 50.4892 6.50452 50.4584 6.35218C50.4279 6.20021 50.3899 6.05012 50.3448 5.90154C50.2993 5.75334 50.247 5.60739 50.1875 5.46407C50.1277 5.32075 50.0615 5.18082 49.9882 5.0439C49.9148 4.90736 49.8351 4.77457 49.7489 4.64555C49.6628 4.51653 49.5703 4.39202 49.4717 4.27203C49.3735 4.15241 49.2693 4.0373 49.1595 3.92784C49.05 3.81801 48.9353 3.71381 48.8153 3.61526C48.6953 3.5167 48.5712 3.42454 48.4422 3.33803C48.3132 3.25189 48.1804 3.17214 48.0438 3.09879C47.9069 3.02544 47.767 2.95886 47.6237 2.89943C47.4803 2.83962 47.3348 2.78733 47.1862 2.74182C47.038 2.69668 46.8875 2.65869 46.7355 2.62784C46.5836 2.59737 46.4301 2.57405 46.2759 2.55863C46.1217 2.54283 45.9667 2.53493 45.8117 2.53418H9.94735C9.79238 2.53456 9.63777 2.54246 9.48355 2.55788C9.32895 2.5733 9.17585 2.59625 9.02389 2.62671C8.87192 2.65718 8.72183 2.69518 8.57325 2.74031C8.42504 2.78583 8.27947 2.83811 8.13615 2.89755C7.99284 2.95698 7.85328 3.02356 7.71636 3.09691C7.57982 3.16989 7.44703 3.25001 7.31839 3.33615C7.18937 3.42229 7.06523 3.51482 6.94524 3.61338C6.82562 3.71193 6.71089 3.81612 6.60143 3.92559C6.49197 4.03542 6.38815 4.15015 6.2896 4.27015C6.19142 4.39014 6.09926 4.51465 6.0135 4.64367C5.92736 4.77269 5.84761 4.90548 5.77464 5.0424C5.70166 5.17894 5.63546 5.31925 5.5764 5.46257C5.51697 5.60588 5.46506 5.75145 5.41992 5.90004C5.37516 6.04824 5.33754 6.19871 5.30745 6.35067C5.27736 6.50264 5.25441 6.65611 5.23937 6.81034C5.22432 6.96456 5.2168 7.11916 5.2168 7.27452V53.3294C5.2168 53.4843 5.22432 53.6389 5.23974 53.7932C5.25479 53.9478 5.27736 54.1008 5.30783 54.2528C5.33792 54.4048 5.37554 54.5552 5.42067 54.7035C5.46544 54.8517 5.51772 54.9976 5.57678 55.1409C5.63621 55.2842 5.70242 55.4242 5.77539 55.5611C5.84837 55.6976 5.92773 55.8304 6.01387 55.9594C6.10001 56.0885 6.19217 56.213 6.29035 56.333C6.38853 56.453 6.49235 56.5677 6.60218 56.6775C6.71165 56.787 6.826 56.8912 6.94599 56.9897C7.06561 57.0883 7.18974 57.1808 7.31876 57.267C7.44741 57.3531 7.58019 57.4329 7.71674 57.5062C7.85328 57.5796 7.99321 57.6461 8.13653 57.7056C8.27947 57.765 8.42542 57.8177 8.57363 57.8628C8.72183 57.9079 8.87192 57.9459 9.02389 57.9764C9.17585 58.0069 9.32933 58.0302 9.48355 58.0456C9.63777 58.061 9.79238 58.0689 9.94735 58.0693H14.5587V74.1613C14.559 74.2125 14.5624 74.2636 14.5692 74.3144C14.576 74.3656 14.5857 74.4156 14.5989 74.4653C14.6117 74.5149 14.6279 74.5638 14.6467 74.6112C14.6659 74.659 14.6877 74.7052 14.7125 74.7504C14.737 74.7952 14.7644 74.8388 14.7945 74.8802C14.8246 74.9219 14.8573 74.9614 14.8923 74.999C14.9273 75.0366 14.9642 75.0716 15.0037 75.1047C15.0428 75.1378 15.0842 75.1679 15.1274 75.1961C15.1703 75.224 15.2151 75.2488 15.2613 75.2714C15.3072 75.2936 15.3546 75.3131 15.4035 75.3297C15.452 75.3462 15.5013 75.3594 15.5517 75.3699C15.6018 75.3805 15.6525 75.3876 15.7037 75.3917C15.7548 75.3959 15.806 75.3966 15.8575 75.3944C15.9087 75.3921 15.9595 75.3868 16.0103 75.3782C16.061 75.3699 16.1107 75.3583 16.16 75.3436C16.2092 75.3289 16.257 75.3112 16.304 75.2906H48.4305C48.502 75.2932 48.5731 75.289 48.6438 75.2785C48.7145 75.268 48.7837 75.2511 48.8514 75.2274C48.9188 75.204 48.9838 75.1747 49.0459 75.1393C49.108 75.104 49.1667 75.0634 49.2212 75.0171C49.2757 74.9712 49.3258 74.9204 49.3709 74.8651C49.416 74.8094 49.4559 74.7504 49.4905 74.6879C49.5248 74.6251 49.553 74.5597 49.5752 74.492C49.5977 74.4239 49.6135 74.3547 49.6229 74.2836C49.6651 74.1617 49.6869 74.0361 49.6888 73.907V69.2209H71.492C71.5424 69.2205 71.5924 69.2171 71.6421 69.2107C71.6921 69.2043 71.7414 69.1949 71.7899 69.1825C71.8384 69.1701 71.8862 69.155 71.9332 69.1366C71.9802 69.1186 72.0257 69.0975 72.0697 69.0738C72.1141 69.0501 72.157 69.0238 72.198 68.9948C72.239 68.9658 72.2781 68.9346 72.3158 68.9011C72.353 68.8673 72.388 68.8316 72.4211 68.7936C72.4538 68.7556 72.4843 68.7157 72.5125 68.6739C72.5407 68.6326 72.5659 68.5893 72.5888 68.5445C72.6118 68.4998 72.6317 68.4539 72.649 68.4065C72.6663 68.3595 72.6806 68.3113 72.6923 68.2624C72.7036 68.2135 72.7118 68.1639 72.7175 68.1142C72.7228 68.0642 72.725 68.0142 72.7246 67.9638C72.7239 67.9134 72.7201 67.8633 72.7134 67.8137C72.7066 67.764 72.6968 67.7147 72.684 67.6662C72.6712 67.6173 72.6558 67.5699 72.6374 67.5233L72.6381 67.5158ZM53.723 36.2849C54.4475 36.5629 55.1348 36.9138 55.7848 37.3381C56.1312 37.5714 56.4611 37.8264 56.7741 38.1033C56.9554 38.2552 57.1288 38.4166 57.2935 38.587C58.0285 39.3303 58.6315 40.1687 59.1021 41.1024C59.4 41.6828 59.6344 42.288 59.8059 42.9177C60.0335 43.7099 60.1561 44.5182 60.1738 45.3428C60.1824 45.4368 60.1813 45.5309 60.1813 45.6249C60.1824 46.2986 60.1166 46.9655 59.9831 47.6261C59.8499 48.2862 59.6524 48.9268 59.3902 49.5471C59.1209 50.1892 58.785 50.7944 58.3821 51.3624C58.059 51.821 57.6998 52.2498 57.3048 52.6481C57.1288 52.8253 56.9467 52.9957 56.7579 53.159C56.5694 53.3226 56.3746 53.4783 56.1741 53.6269C55.9736 53.7755 55.7675 53.9165 55.5561 54.0493C55.345 54.1821 55.1287 54.307 54.9079 54.4232C54.6871 54.5398 54.4622 54.6478 54.2335 54.7471C54.0044 54.8464 53.7719 54.937 53.5361 55.0187C53.2999 55.1003 53.0614 55.1729 52.8199 55.2361C52.5784 55.2997 52.335 55.3538 52.0894 55.399C51.8438 55.4437 51.597 55.4795 51.3487 55.5054C51.1005 55.5318 50.8515 55.5483 50.6021 55.5555C50.3523 55.5626 50.1029 55.5603 49.8535 55.5487C49.6045 55.5366 49.3559 55.5156 49.108 55.4847C48.8605 55.4539 48.6141 55.414 48.3696 55.3644C48.1247 55.3151 47.8825 55.2564 47.6421 55.1883C47.4017 55.1202 47.1647 55.0435 46.9304 54.9574C46.6957 54.8716 46.4651 54.7768 46.2379 54.673V54.5443H45.9735L45.6048 54.3559C45.047 54.0512 44.5249 53.6946 44.0377 53.2861L43.9674 53.2259C43.9065 53.171 43.8418 53.1213 43.7733 53.0762C43.7383 53.0273 43.6977 52.984 43.6511 52.9464C43.5627 52.8652 43.4731 52.7843 43.393 52.6959L43.3272 52.6395C43.0232 52.3348 42.7408 52.0109 42.4805 51.6682L42.409 51.5554C42.3164 51.438 42.2329 51.321 42.1577 51.2044L42.0325 51.0164C41.9993 50.9652 41.9655 50.9155 41.9328 50.8636L41.882 50.764C41.727 50.5123 41.586 50.2531 41.4584 49.9868L41.3757 49.8127C41.3351 49.7299 41.2948 49.6404 41.2617 49.5584L41.1402 49.2706C41.1195 49.2187 41.0981 49.1653 41.0736 49.0934L40.9183 48.6334C40.8731 48.4856 40.8299 48.3381 40.7855 48.1903C40.778 48.1406 40.7652 48.0921 40.7471 48.0455L40.6678 47.7047C40.6546 47.5316 40.6256 47.3612 40.5805 47.1935L40.5692 47.1513L40.5203 46.7421C40.5101 46.6796 40.5045 46.6168 40.5022 46.5536C40.4921 46.4889 40.4891 46.4257 40.4853 46.3655L40.474 46.2188C40.4699 46.1794 40.4684 46.1399 40.4695 46.1C40.4601 45.945 40.4515 45.7897 40.4515 45.6298C40.4515 45.4695 40.4609 45.301 40.4695 45.1355L40.506 44.5991C40.5075 44.5574 40.512 44.516 40.5192 44.475L40.7904 43.0249C40.8156 42.9309 40.84 42.844 40.8795 42.7322L41.0285 42.2681C41.0447 42.2165 41.0642 42.1665 41.0875 42.1176C41.1206 42.0236 41.1534 41.9352 41.2072 41.8118C41.2233 41.7621 41.2436 41.7144 41.2673 41.6677C41.2993 41.5786 41.3369 41.4921 41.3813 41.4082L41.4547 41.2528C41.4968 41.1588 41.5487 41.0647 41.5969 40.9771L41.6382 40.8255L41.6747 40.8311C41.7059 40.7691 41.7443 40.6984 41.8237 40.566C41.8523 40.514 41.8835 40.4636 41.9177 40.4151C41.9557 40.3576 41.9903 40.2978 42.0219 40.2364C42.0539 40.1943 42.0832 40.1488 42.1163 40.1048L42.3251 39.8084C42.3721 39.7369 42.4285 39.6654 42.5049 39.5646C42.5339 39.5202 42.5715 39.477 42.6509 39.3765C42.7043 39.3096 42.7532 39.2464 42.819 39.1723C43.0214 38.9436 43.3151 38.6254 43.3622 38.5783C43.9396 38.0276 44.5696 37.5454 45.252 37.1316C45.9343 36.7179 46.6532 36.3823 47.4085 36.125C47.9246 35.984 48.4478 35.8813 48.9786 35.817C49.5097 35.753 50.0423 35.7278 50.5769 35.7421C51.1114 35.7564 51.6421 35.8094 52.1688 35.9016C52.6954 35.9938 53.2126 36.1243 53.7204 36.2924L53.723 36.2849ZM10.2851 55.5709L9.94735 55.5622C9.87438 55.5622 9.8014 55.5585 9.7288 55.5509C9.65621 55.5434 9.58398 55.5325 9.51214 55.5182C9.44067 55.5039 9.36995 55.4859 9.29999 55.4644C9.2304 55.4434 9.16156 55.4185 9.09423 55.3903C9.02652 55.3625 8.96069 55.3309 8.89637 55.2967C8.83205 55.262 8.7696 55.2244 8.70867 55.1838C8.6481 55.1432 8.58942 55.0995 8.533 55.0533C8.47658 55.0066 8.42241 54.9577 8.37088 54.9062C8.31934 54.8543 8.27007 54.8005 8.2238 54.7437C8.17753 54.6873 8.1339 54.629 8.09327 54.568C8.05265 54.5075 8.01503 54.4447 7.9808 54.3803C7.9462 54.316 7.91497 54.2502 7.88676 54.1825C7.85893 54.1151 7.8341 54.0467 7.81266 53.9767C7.79159 53.9068 7.77354 53.836 7.75924 53.7642C7.74495 53.6927 7.73404 53.6205 7.72652 53.5479C7.71937 53.4753 7.71561 53.4023 7.71523 53.3294V7.27452C7.71523 7.12781 7.72953 6.98224 7.75849 6.83855C7.78708 6.69486 7.82996 6.55493 7.88639 6.41989C7.94281 6.28447 8.0124 6.15582 8.0944 6.03432C8.1764 5.91245 8.26969 5.80035 8.37389 5.69729C8.47733 5.59347 8.59018 5.50093 8.71168 5.41931C8.83355 5.33768 8.96182 5.26847 9.09686 5.21204C9.23228 5.15562 9.37146 5.11274 9.51515 5.0834C9.65884 5.05443 9.80366 5.03939 9.95036 5.03826H45.8117C45.8847 5.03864 45.9577 5.0424 46.0303 5.04992C46.1032 5.05707 46.1754 5.06798 46.2469 5.08227C46.3188 5.09694 46.3895 5.11462 46.4594 5.13606C46.529 5.1575 46.5979 5.18195 46.6652 5.21016C46.7329 5.23838 46.7987 5.2696 46.8631 5.3042C46.9278 5.33843 46.9902 5.37605 47.0511 5.41667C47.1117 5.4573 47.1704 5.50093 47.2268 5.5472C47.2832 5.59384 47.3374 5.64274 47.3893 5.69428C47.4408 5.74619 47.4897 5.79998 47.5364 5.8564C47.5827 5.9132 47.6263 5.97151 47.6669 6.03244C47.7075 6.09301 47.7452 6.15582 47.7798 6.22015C47.8144 6.28447 47.8456 6.3503 47.8738 6.41801C47.9016 6.48534 47.9265 6.55417 47.9479 6.62414C47.9693 6.69373 47.987 6.76482 48.0017 6.83629C48.016 6.90776 48.0269 6.97998 48.0344 7.05296C48.0416 7.12556 48.0453 7.19853 48.0457 7.27151V33.4005H48.0344C47.2746 33.5408 46.5362 33.7537 45.8181 34.0396L45.7402 34.0671C45.6011 34.1224 45.4502 34.1882 45.3156 34.2552C44.5674 34.5854 43.8617 34.9909 43.1993 35.4709C43.1519 35.4908 43.1098 35.5187 43.0733 35.5548C42.9905 35.6105 42.9134 35.6695 42.8333 35.7308L42.5508 35.9576C42.4868 36.0032 42.4285 36.0551 42.3759 36.1138C42.3187 36.1484 42.2672 36.1901 42.2217 36.239C42.1269 36.3146 42.0373 36.3959 41.9523 36.4828C41.9083 36.517 41.8666 36.5546 41.8274 36.5945C41.7511 36.6708 41.6747 36.7472 41.5781 36.8345C41.513 36.9003 41.4471 36.9665 41.3832 37.035H38.4706C38.389 37.0353 38.3077 37.0432 38.2276 37.0594C38.1475 37.0752 38.07 37.0989 37.9944 37.1301C37.9188 37.1617 37.8473 37.2001 37.7792 37.2456C37.7115 37.2908 37.6487 37.3423 37.5908 37.4002C37.5329 37.4581 37.4813 37.521 37.4358 37.5887C37.3907 37.6568 37.3523 37.7286 37.3207 37.8038C37.2895 37.8794 37.2658 37.9573 37.2496 38.0374C37.2338 38.1175 37.2255 38.1984 37.2255 38.28V42.4208C37.2259 42.4874 37.2312 42.5539 37.2421 42.6198C37.253 42.6856 37.2692 42.7503 37.2906 42.8135C37.3121 42.8767 37.3384 42.938 37.3696 42.9971C37.4008 43.0561 37.4366 43.1122 37.4772 43.1656C37.5174 43.2186 37.5618 43.2683 37.6103 43.3145C37.6585 43.3604 37.7104 43.4026 37.7653 43.4402C37.8206 43.4778 37.8785 43.5109 37.9391 43.5391C37.9993 43.5677 38.0617 43.591 38.1261 43.6091C38.1167 43.6666 38.1046 43.7298 38.0903 43.8114L38.0745 43.9487C38.067 44.0131 38.0583 44.0789 38.0546 44.1372L37.9895 44.8034C37.9895 44.859 37.982 44.9143 37.9718 45.0121C37.9662 45.1366 37.9632 45.2664 37.9632 45.4218C37.8537 45.4707 37.7533 45.5342 37.6619 45.6121C37.5705 45.69 37.4922 45.7795 37.4268 45.8799C37.3613 45.9807 37.3113 46.0887 37.2771 46.2038C37.2428 46.3189 37.2259 46.4366 37.2255 46.5566V50.697C37.2259 50.7786 37.2338 50.8595 37.25 50.9396C37.2662 51.0197 37.2899 51.0972 37.3215 51.1725C37.3527 51.2481 37.391 51.3195 37.4366 51.3873C37.4821 51.455 37.5336 51.5178 37.5915 51.5753C37.6491 51.6333 37.7119 51.6844 37.78 51.7299C37.8477 51.7751 37.9195 51.8134 37.9948 51.8447C38.0704 51.8759 38.1479 51.8996 38.228 51.9154C38.3081 51.9312 38.389 51.9394 38.4706 51.9394H39.6762L40.1588 52.7008C40.1784 52.7346 40.2021 52.7655 40.2641 52.852L40.4658 53.1213L40.5297 53.209C40.8532 53.6359 41.2042 54.0388 41.5826 54.418C41.9937 54.834 42.4331 55.218 42.9002 55.5697L10.2851 55.5709ZM47.1741 72.7771H17.0785V58.0693H30.1857V59.5243H21.7971C21.7143 59.5243 21.6327 59.5322 21.5514 59.5484C21.4706 59.5645 21.3919 59.5882 21.3156 59.6198C21.2392 59.6514 21.1666 59.6902 21.0982 59.7361C21.0293 59.7823 20.9658 59.8342 20.9075 59.8925C20.8491 59.9512 20.7969 60.0148 20.751 60.0833C20.7051 60.1521 20.6663 60.2247 20.6347 60.3011C20.6031 60.377 20.5791 60.456 20.5629 60.5369C20.5471 60.6178 20.5388 60.6998 20.5388 60.7825C20.5388 60.8649 20.5471 60.9469 20.5629 61.0278C20.5791 61.109 20.6031 61.1877 20.6347 61.264C20.6663 61.3404 20.7051 61.4126 20.751 61.4814C20.7969 61.5503 20.8491 61.6135 20.9075 61.6721C20.9658 61.7305 21.0293 61.7827 21.0982 61.8286C21.1666 61.8745 21.2392 61.9133 21.3156 61.9449C21.3919 61.9765 21.4706 62.0002 21.5514 62.0163C21.6327 62.0325 21.7143 62.0404 21.7971 62.0404H30.1857V65.3709H21.6673C21.5845 65.3709 21.5029 65.3792 21.4217 65.395C21.3408 65.4112 21.2622 65.4352 21.1858 65.4668C21.1094 65.4984 21.0368 65.5372 20.968 65.5831C20.8996 65.6289 20.836 65.6809 20.7777 65.7395C20.719 65.7978 20.6671 65.8614 20.6212 65.9302C20.5753 65.9987 20.5366 66.0713 20.505 66.1477C20.473 66.224 20.4493 66.3026 20.4331 66.3835C20.4169 66.4648 20.409 66.5464 20.409 66.6291C20.409 66.7119 20.4169 66.7935 20.4331 66.8744C20.4493 66.9557 20.473 67.0343 20.505 67.1106C20.5366 67.187 20.5753 67.2596 20.6212 67.328C20.6671 67.3969 20.719 67.4605 20.7777 67.5188C20.836 67.5771 20.8996 67.6294 20.968 67.6752C21.0368 67.7211 21.1094 67.7599 21.1858 67.7915C21.2622 67.8231 21.3408 67.8471 21.4217 67.8629C21.5029 67.8791 21.5845 67.8874 21.6673 67.8874H30.1857V67.9607C30.1809 68.1199 30.2079 68.2733 30.2662 68.4212C30.3249 68.569 30.4103 68.6995 30.5224 68.8124C30.5348 68.8267 30.5487 68.8398 30.5612 68.8537C30.5732 68.868 30.5781 68.8707 30.5875 68.8782C30.7003 68.9918 30.8316 69.0779 30.9802 69.137C31.1292 69.1964 31.2838 69.2235 31.4436 69.219H47.1723L47.1741 72.7771ZM70.1359 66.7025H32.7019V58.0693H45.8117C46.1886 58.0697 46.5595 58.0219 46.924 57.9252C47.1275 57.8775 47.3265 57.8147 47.5206 57.7372C47.7752 57.797 48.0314 57.8485 48.2895 57.8921C48.5475 57.9354 48.8063 57.9708 49.0666 57.9975C49.3265 58.0245 49.5876 58.043 49.8486 58.0535C50.1101 58.0637 50.3715 58.0655 50.6329 58.0592C50.8943 58.0524 51.1554 58.0377 51.4161 58.0144C51.6764 57.9914 51.9359 57.9598 52.1947 57.9204C52.4531 57.8805 52.7101 57.8323 52.9655 57.7763C53.2209 57.7202 53.4744 57.6559 53.7257 57.5837C53.977 57.5111 54.226 57.431 54.472 57.3426C54.7184 57.2546 54.9614 57.1583 55.2013 57.0544C55.4413 56.9506 55.6779 56.8393 55.9108 56.7204C56.144 56.6015 56.3727 56.4752 56.5976 56.3416C56.8226 56.2081 57.043 56.0678 57.2589 55.9199C57.4748 55.7725 57.6859 55.6179 57.8916 55.4569C58.0978 55.2959 58.2986 55.1281 58.4939 54.9544C58.6891 54.7802 58.8787 54.6004 59.0626 54.4142C59.8164 53.6607 60.4585 52.8215 60.9889 51.8969H65.5728C65.6581 51.8992 65.7424 51.8932 65.8267 51.8785C65.9105 51.8638 65.9922 51.8409 66.0715 51.8101C66.1509 51.7792 66.2265 51.7405 66.2984 51.6942C66.3698 51.6483 66.4364 51.5953 66.4974 51.5358C66.5587 51.4764 66.6132 51.4117 66.6614 51.341C66.7091 51.2706 66.7498 51.1962 66.7832 51.1179C66.8163 51.0393 66.8412 50.9581 66.8581 50.8745C66.875 50.791 66.8837 50.7068 66.8837 50.6214C66.8837 50.536 66.875 50.4517 66.8581 50.3682C66.8412 50.2847 66.8163 50.2035 66.7832 50.1252C66.7498 50.0466 66.7091 49.9721 66.6614 49.9018C66.6132 49.8315 66.5587 49.7664 66.4974 49.707C66.4364 49.6475 66.3698 49.5945 66.2984 49.5486C66.2265 49.5023 66.1509 49.464 66.0715 49.4327C65.9922 49.4019 65.9105 49.3789 65.8267 49.3643C65.7424 49.3496 65.6581 49.3436 65.5728 49.3458H62.1219C62.4996 48.1327 62.6876 46.8907 62.6865 45.6204C62.6903 44.411 62.5184 43.2276 62.1708 42.0698C62.0681 41.7072 61.947 41.3506 61.8074 41.0008C61.4034 39.9976 60.8787 39.0617 60.2343 38.1935H65.5754C65.6593 38.1935 65.7424 38.1853 65.8244 38.1691C65.9068 38.1525 65.9865 38.1285 66.064 38.0965C66.1411 38.0641 66.2149 38.025 66.2844 37.9784C66.354 37.9317 66.4187 37.8791 66.4778 37.8196C66.5372 37.7606 66.5899 37.6959 66.6365 37.6263C66.6832 37.5567 66.7223 37.483 66.7546 37.4059C66.7866 37.3284 66.8107 37.2486 66.8272 37.1662C66.8434 37.0842 66.8517 37.0011 66.8517 36.9172C66.8517 36.8337 66.8434 36.7506 66.8272 36.6686C66.8107 36.5862 66.7866 36.5065 66.7546 36.429C66.7223 36.3515 66.6832 36.2781 66.6365 36.2085C66.5899 36.139 66.5372 36.0743 66.4778 36.0152C66.4187 35.9558 66.354 35.9031 66.2844 35.8565C66.2149 35.8098 66.1411 35.7707 66.064 35.7383C65.9865 35.7064 65.9068 35.6823 65.8244 35.6658C65.7424 35.6496 65.6593 35.6413 65.5754 35.6413H57.7066C56.6597 34.8536 55.5166 34.2484 54.2764 33.826H60.9445C61.0284 33.826 61.1115 33.8181 61.1935 33.8015C61.2759 33.7853 61.3557 33.7609 61.4331 33.7289C61.5103 33.6969 61.584 33.6574 61.6536 33.6112C61.7232 33.5645 61.7879 33.5115 61.8469 33.4524C61.9064 33.393 61.959 33.3287 62.0057 33.2591C62.0523 33.1891 62.0914 33.1158 62.1238 33.0383C62.1557 32.9608 62.1798 32.8811 62.1964 32.7991C62.2125 32.7167 62.2208 32.6339 62.2208 32.55C62.2208 32.4662 62.2125 32.3834 62.1964 32.301C62.1798 32.219 62.1557 32.1389 62.1238 32.0618C62.0914 31.9843 62.0523 31.9106 62.0057 31.841C61.959 31.7714 61.9064 31.7071 61.8469 31.6476C61.7879 31.5886 61.7232 31.5355 61.6536 31.4889C61.584 31.4423 61.5103 31.4031 61.4331 31.3712C61.3557 31.3392 61.2759 31.3147 61.1935 31.2986C61.1115 31.282 61.0284 31.2741 60.9445 31.2741H50.5528V29.4569H60.9445C61.0284 29.4569 61.1115 29.4486 61.1935 29.4321C61.2759 29.4159 61.3557 29.3918 61.4331 29.3595C61.5103 29.3275 61.584 29.2884 61.6536 29.2417C61.7232 29.1951 61.7879 29.1424 61.8469 29.083C61.9064 29.0239 61.959 28.9592 62.0057 28.8897C62.0523 28.8201 62.0914 28.7463 62.1238 28.6688C62.1557 28.5917 62.1798 28.512 62.1964 28.4296C62.2125 28.3476 62.2208 28.2645 62.2208 28.1806C62.2208 28.0971 62.2125 28.014 62.1964 27.9316C62.1798 27.8496 62.1557 27.7698 62.1238 27.6923C62.0914 27.6149 62.0523 27.5415 62.0057 27.4719C61.959 27.4019 61.9064 27.3376 61.8469 27.2786C61.7879 27.2191 61.7232 27.1661 61.6536 27.1198C61.584 27.0732 61.5103 27.0337 61.4331 27.0017C61.3557 26.9697 61.2759 26.9457 61.1935 26.9291C61.1115 26.9129 61.0284 26.9047 60.9445 26.9047H50.5528V17.2626H70.1265V65.8133H70.1386L70.1359 66.7025ZM17.2903 20.4709H13.048C12.966 20.4712 12.8851 20.4795 12.8046 20.4961C12.7245 20.5122 12.6467 20.5363 12.5711 20.5679C12.4954 20.5999 12.4236 20.6386 12.3555 20.6842C12.2878 20.73 12.2246 20.7823 12.1671 20.8403C12.1091 20.8986 12.058 20.9618 12.0125 21.0302C11.9673 21.0983 11.9289 21.1705 11.8977 21.2461C11.8665 21.3221 11.8432 21.4 11.8274 21.4805C11.8116 21.561 11.8041 21.6422 11.8041 21.7242V25.8582C11.8041 25.9402 11.8116 26.0214 11.8274 26.1019C11.8432 26.1821 11.8665 26.2603 11.8977 26.3363C11.9289 26.4119 11.9673 26.4841 12.0125 26.5522C12.058 26.6207 12.1091 26.6839 12.1671 26.7422C12.2246 26.8001 12.2878 26.8524 12.3555 26.8979C12.4236 26.9438 12.4954 26.9825 12.5711 27.0145C12.6467 27.0461 12.7245 27.0702 12.8046 27.0864C12.8851 27.1029 12.966 27.1112 13.048 27.1116H17.2903C17.3727 27.1116 17.4539 27.1033 17.5348 27.0871C17.6153 27.0713 17.6939 27.0472 17.7699 27.0156C17.8459 26.984 17.9181 26.9457 17.9862 26.8998C18.0547 26.8543 18.1179 26.802 18.1762 26.744C18.2345 26.6857 18.2864 26.6225 18.3319 26.5541C18.3778 26.4856 18.4165 26.4134 18.4478 26.3374C18.4794 26.2614 18.5034 26.1832 18.5196 26.1027C18.5358 26.0218 18.5437 25.9406 18.5437 25.8582V21.7242C18.5437 21.6418 18.5358 21.5606 18.5196 21.4797C18.5034 21.3992 18.4794 21.3206 18.4478 21.2446C18.4165 21.1686 18.3778 21.0968 18.3319 21.0283C18.2864 20.9599 18.2345 20.8967 18.1762 20.8384C18.1179 20.7801 18.0547 20.7282 17.9862 20.6826C17.9181 20.6368 17.8459 20.598 17.7699 20.5668C17.6939 20.5352 17.6153 20.5111 17.5348 20.4949C17.4539 20.4788 17.3727 20.4709 17.2903 20.4709ZM16.0358 24.6112H14.3018V22.9776H16.0388L16.0358 24.6112ZM34.2377 37.0237H29.9965C29.9145 37.0241 29.8333 37.0323 29.7528 37.0489C29.6727 37.0651 29.5944 37.0891 29.5188 37.1207C29.4432 37.1523 29.3714 37.1911 29.3033 37.237C29.2356 37.2829 29.1724 37.3348 29.1148 37.3931C29.0569 37.4514 29.0054 37.5146 28.9599 37.5826C28.9147 37.6511 28.8763 37.7233 28.8451 37.7989C28.8139 37.8749 28.7906 37.9532 28.7748 38.0337C28.759 38.1142 28.7511 38.195 28.7515 38.277V42.4114C28.7515 42.4934 28.759 42.5743 28.7752 42.6548C28.791 42.7353 28.8143 42.8135 28.8455 42.8891C28.8767 42.9651 28.9151 43.0369 28.9602 43.1054C29.0057 43.1735 29.0573 43.2367 29.1152 43.295C29.1728 43.3529 29.2356 43.4048 29.3037 43.4507C29.3717 43.4966 29.4436 43.535 29.5192 43.5669C29.5948 43.5985 29.6727 43.6226 29.7532 43.6388C29.8333 43.655 29.9145 43.6632 29.9965 43.6636H34.2377C34.3197 43.6632 34.4006 43.6546 34.4807 43.638C34.5612 43.6215 34.6391 43.5974 34.7143 43.5658C34.7899 43.5342 34.8618 43.4955 34.9295 43.4496C34.9976 43.4037 35.0604 43.3518 35.1179 43.2938C35.1759 43.2355 35.2274 43.1723 35.2725 43.1043C35.318 43.0362 35.3564 42.9643 35.3876 42.8887C35.4189 42.8127 35.4425 42.7349 35.4587 42.6544C35.4745 42.5743 35.4824 42.493 35.4828 42.4114V38.277C35.4824 38.1954 35.4745 38.1142 35.4587 38.0337C35.4425 37.9535 35.4189 37.8753 35.3876 37.7997C35.3564 37.7241 35.318 37.6522 35.2725 37.5838C35.2274 37.5157 35.1759 37.4525 35.1179 37.3946C35.0604 37.3363 34.9976 37.2844 34.9295 37.2385C34.8618 37.1926 34.7899 37.1538 34.7147 37.1222C34.6391 37.0903 34.5612 37.0662 34.4811 37.0496C34.4006 37.0331 34.3197 37.0244 34.2377 37.0237ZM32.9844 41.1644H31.2499V39.5176H32.9844V41.1644ZM25.7636 37.0237H21.5221C21.4401 37.0237 21.3588 37.032 21.2783 37.0481C21.1975 37.0643 21.1196 37.088 21.0436 37.1196C20.9676 37.1512 20.8958 37.1899 20.8273 37.2358C20.7592 37.2813 20.6961 37.3336 20.6381 37.3916C20.5802 37.4499 20.5283 37.5131 20.4828 37.5815C20.4373 37.65 20.3989 37.7222 20.3677 37.7982C20.3364 37.8742 20.3127 37.9524 20.2969 38.0329C20.2811 38.1138 20.2732 38.195 20.2736 38.277V42.4114C20.2732 42.4934 20.2811 42.5743 20.2969 42.6548C20.3127 42.7353 20.3364 42.8135 20.3677 42.8891C20.3989 42.9651 20.4373 43.0369 20.4824 43.1054C20.5279 43.1735 20.5794 43.2367 20.637 43.295C20.6949 43.3529 20.7577 43.4048 20.8258 43.4507C20.8939 43.4966 20.9658 43.535 21.0414 43.5669C21.117 43.5985 21.1948 43.6226 21.275 43.6388C21.3555 43.655 21.4367 43.6632 21.5183 43.6636H25.7599C25.8419 43.6632 25.9228 43.655 26.0033 43.6388C26.0834 43.6222 26.1616 43.5985 26.2372 43.5669C26.3128 43.535 26.3847 43.4966 26.4524 43.4507C26.5205 43.4048 26.5833 43.3529 26.6412 43.295C26.6988 43.2367 26.7507 43.1735 26.7958 43.1054C26.8413 43.0369 26.8793 42.9651 26.9105 42.8891C26.9418 42.8135 26.9655 42.7353 26.9813 42.6548C26.9971 42.5743 27.005 42.4934 27.005 42.4114V38.277C27.005 38.1954 26.9971 38.1142 26.9816 38.034C26.9658 37.9535 26.9425 37.8757 26.9113 37.8001C26.8805 37.7241 26.8421 37.6522 26.7969 37.5838C26.7518 37.5157 26.7003 37.4525 26.6427 37.3942C26.5852 37.3363 26.5227 37.2844 26.4546 37.2385C26.3869 37.1926 26.3155 37.1538 26.2399 37.1219C26.1646 37.0903 26.0868 37.0658 26.0066 37.0493C25.9265 37.0331 25.8453 37.0244 25.7636 37.0237ZM24.5103 41.1644H22.7758V39.5176H24.5084L24.5103 41.1644ZM17.2903 37.0237H13.048C12.966 37.0241 12.8851 37.0323 12.8046 37.0489C12.7241 37.0651 12.6463 37.0891 12.5707 37.1207C12.4951 37.1527 12.4232 37.1914 12.3555 37.237C12.2874 37.2829 12.2246 37.3348 12.1667 37.3931C12.1091 37.4514 12.0576 37.5146 12.0121 37.583C11.9669 37.6511 11.9286 37.7233 11.8977 37.7989C11.8665 37.8749 11.8432 37.9532 11.8274 38.0337C11.8116 38.1142 11.8037 38.1954 11.8041 38.277V42.4114C11.8041 42.493 11.8116 42.5743 11.8274 42.6548C11.8432 42.7353 11.8669 42.8131 11.8977 42.8891C11.9289 42.9647 11.9673 43.0369 12.0125 43.105C12.058 43.1735 12.1095 43.2367 12.1671 43.2946C12.225 43.3529 12.2878 43.4048 12.3555 43.4507C12.4236 43.4962 12.4954 43.535 12.5711 43.5669C12.6467 43.5985 12.7245 43.6222 12.8046 43.6388C12.8851 43.655 12.966 43.6632 13.048 43.6636H17.2903C17.3727 43.6636 17.4539 43.6557 17.5348 43.6395C17.6153 43.6234 17.6936 43.5997 17.7695 43.5681C17.8455 43.5368 17.9178 43.4981 17.9862 43.4526C18.0547 43.4067 18.1179 43.3548 18.1762 43.2969C18.2345 43.2386 18.2864 43.1754 18.3319 43.1069C18.3778 43.0384 18.4165 42.9666 18.4478 42.8906C18.4794 42.8146 18.5034 42.7364 18.5196 42.6555C18.5358 42.575 18.5437 42.4934 18.5437 42.4114V38.277C18.5437 38.195 18.5358 38.1134 18.5196 38.0329C18.5034 37.952 18.4797 37.8738 18.4481 37.7978C18.4165 37.7218 18.3782 37.6496 18.3323 37.5811C18.2868 37.5127 18.2345 37.4495 18.1765 37.3912C18.1182 37.3329 18.055 37.281 17.9866 37.2355C17.9181 37.1896 17.8459 37.1508 17.7699 37.1192C17.6939 37.088 17.6157 37.0639 17.5348 37.0481C17.4543 37.032 17.3727 37.0237 17.2903 37.0237ZM16.0358 41.1644H14.3018V39.5176H16.0388L16.0358 41.1644ZM25.7636 28.7426H21.5221C21.4401 28.7426 21.3585 28.7508 21.2776 28.767C21.1971 28.7836 21.1185 28.8076 21.0425 28.8392C20.9665 28.8708 20.8947 28.91 20.8262 28.9559C20.7577 29.0017 20.6949 29.054 20.6366 29.1123C20.5787 29.171 20.5272 29.2346 20.4816 29.303C20.4361 29.3719 20.3978 29.4441 20.3665 29.5205C20.3353 29.5965 20.312 29.6751 20.2962 29.7559C20.2808 29.8368 20.2732 29.9184 20.2736 30.0008V34.1348C20.2732 34.2168 20.2811 34.298 20.2969 34.3782C20.3127 34.4587 20.3364 34.5369 20.3677 34.6125C20.3989 34.6885 20.4373 34.7603 20.4824 34.8288C20.5279 34.8969 20.5794 34.9601 20.637 35.0184C20.6949 35.0763 20.7577 35.1282 20.8258 35.1741C20.8939 35.22 20.9658 35.2587 21.0414 35.2903C21.117 35.3219 21.1948 35.346 21.275 35.3622C21.3555 35.3784 21.4367 35.387 21.5183 35.3874H25.7599C25.8419 35.387 25.9228 35.3784 26.0033 35.3622C26.0834 35.346 26.1616 35.3219 26.2372 35.2903C26.3128 35.2587 26.3847 35.22 26.4524 35.1741C26.5205 35.1282 26.5833 35.0763 26.6412 35.0184C26.6988 34.9601 26.7507 34.8969 26.7958 34.8288C26.8413 34.7603 26.8793 34.6885 26.9105 34.6125C26.9418 34.5369 26.9655 34.4587 26.9813 34.3782C26.9971 34.298 27.005 34.2168 27.005 34.1348V30.0008C27.005 29.9188 26.9971 29.8379 26.9813 29.7574C26.9655 29.6773 26.9421 29.5991 26.9109 29.5235C26.8801 29.4479 26.8417 29.376 26.7966 29.3076C26.7514 29.2395 26.7003 29.1763 26.6427 29.118C26.5852 29.06 26.5224 29.0081 26.4546 28.9622C26.3869 28.9164 26.3151 28.8776 26.2399 28.8456C26.1643 28.8137 26.0868 28.7896 26.0066 28.773C25.9265 28.7565 25.8453 28.7478 25.7636 28.7471V28.7426ZM24.5103 32.8833H22.7758V31.2542H24.5084L24.5103 32.8833ZM34.2377 45.2991H29.9965C29.9145 45.2999 29.8333 45.3082 29.7528 45.3247C29.6723 45.3409 29.5944 45.365 29.5188 45.3969C29.4432 45.4285 29.3714 45.4673 29.3033 45.5132C29.2352 45.5591 29.1724 45.611 29.1148 45.6693C29.0569 45.7276 29.0054 45.7908 28.9599 45.8592C28.9147 45.9273 28.8763 45.9995 28.8451 46.0755C28.8139 46.1511 28.7906 46.2294 28.7748 46.3099C28.759 46.3904 28.7511 46.4716 28.7515 46.5536V50.6868C28.7515 50.7688 28.759 50.8501 28.7752 50.9302C28.791 51.0107 28.8143 51.089 28.8455 51.1646C28.8767 51.2405 28.9151 51.3124 28.9602 51.3809C29.0057 51.4489 29.0573 51.5121 29.1152 51.5704C29.1728 51.6284 29.2356 51.6807 29.3037 51.7262C29.3717 51.7721 29.4436 51.8108 29.5192 51.8424C29.5948 51.874 29.6727 51.8981 29.7532 51.9142C29.8333 51.9308 29.9145 51.9391 29.9965 51.9394H34.2377C34.3197 51.9387 34.4006 51.93 34.4811 51.9139C34.5612 51.8973 34.6391 51.8729 34.7147 51.8413C34.7903 51.8097 34.8618 51.7706 34.9298 51.725C34.9979 51.6791 35.0607 51.6272 35.1183 51.5689C35.1762 51.511 35.2278 51.4478 35.2729 51.3794C35.3184 51.3113 35.3568 51.239 35.388 51.1634C35.4192 51.0878 35.4429 51.0096 35.4587 50.9295C35.4745 50.849 35.4828 50.7677 35.4828 50.6857V46.5536C35.4824 46.4716 35.4745 46.3908 35.4587 46.3103C35.4425 46.2298 35.4189 46.1519 35.3876 46.0763C35.3564 46.0003 35.318 45.9285 35.2725 45.86C35.2274 45.7919 35.1759 45.7287 35.1179 45.6704C35.0604 45.6125 34.9976 45.5606 34.9298 45.5147C34.8618 45.4688 34.7899 45.4297 34.7147 45.3981C34.6391 45.3661 34.5612 45.342 34.4811 45.3255C34.4006 45.3085 34.3197 45.2999 34.2377 45.2991ZM32.9844 49.4399H31.2499V47.7987H32.9844V49.4399ZM25.7636 45.2991H21.5221C21.4401 45.2995 21.3588 45.3078 21.278 45.324C21.1975 45.3401 21.1192 45.3642 21.0436 45.3958C20.9676 45.4274 20.8958 45.4662 20.8273 45.5117C20.7592 45.5576 20.6961 45.6098 20.6381 45.6678C20.5802 45.7261 20.5283 45.7897 20.4828 45.8577C20.4373 45.9262 20.3989 45.9984 20.3677 46.0744C20.3364 46.1504 20.3127 46.229 20.2969 46.3095C20.2811 46.39 20.2732 46.4716 20.2736 46.5536V50.6868C20.2732 50.7688 20.2811 50.8505 20.2973 50.931C20.3131 51.0115 20.3368 51.0897 20.368 51.1657C20.3993 51.2417 20.4376 51.3135 20.4831 51.382C20.5287 51.4504 20.5806 51.5136 20.6385 51.5716C20.6964 51.6299 20.7596 51.6818 20.8277 51.7277C20.8958 51.7732 20.968 51.8119 21.044 51.8435C21.1196 51.8751 21.1978 51.8988 21.2783 51.915C21.3588 51.9312 21.4401 51.9391 21.5221 51.9394H25.7636C25.8456 51.9391 25.9269 51.9308 26.007 51.9142C26.0875 51.8981 26.1654 51.874 26.241 51.8424C26.3166 51.8104 26.3884 51.7717 26.4565 51.7262C26.5246 51.6803 26.5874 51.6284 26.6454 51.5701C26.7029 51.5118 26.7544 51.4486 26.8 51.3805C26.8455 51.312 26.8835 51.2398 26.9147 51.1642C26.9459 51.0882 26.9692 51.01 26.985 50.9295C27.0008 50.849 27.0087 50.7677 27.0087 50.6857V46.5536C27.0087 46.4716 27.0008 46.3904 26.985 46.3099C26.9692 46.2294 26.9459 46.1511 26.9147 46.0755C26.8835 45.9995 26.8455 45.9273 26.8 45.8592C26.7548 45.7908 26.7033 45.7276 26.6454 45.6693C26.5874 45.611 26.5246 45.5591 26.4565 45.5132C26.3888 45.4673 26.317 45.4285 26.241 45.3966C26.1654 45.365 26.0875 45.3409 26.007 45.3247C25.9269 45.3082 25.8456 45.2999 25.7636 45.2991ZM24.5103 49.4399H22.7758V47.7987H24.5084L24.5103 49.4399ZM34.2377 28.7471H29.9965C29.9145 28.7478 29.8333 28.7561 29.7528 28.7723C29.6727 28.7888 29.5948 28.8129 29.5192 28.8445C29.4436 28.8761 29.3717 28.9149 29.3037 28.9607C29.2356 29.0066 29.1728 29.0585 29.1148 29.1168C29.0573 29.1748 29.0057 29.2383 28.9602 29.3064C28.9151 29.3749 28.8767 29.4467 28.8455 29.5227C28.8143 29.5983 28.791 29.6766 28.7752 29.7571C28.759 29.8376 28.7515 29.9188 28.7515 30.0008V34.1348C28.7515 34.2168 28.759 34.298 28.7752 34.3782C28.791 34.4587 28.8143 34.5369 28.8455 34.6125C28.8767 34.6885 28.9151 34.7603 28.9602 34.8288C29.0057 34.8969 29.0573 34.9601 29.1152 35.0184C29.1728 35.0763 29.2356 35.1282 29.3037 35.1741C29.3717 35.22 29.4436 35.2587 29.5192 35.2903C29.5948 35.3219 29.6727 35.346 29.7532 35.3622C29.8333 35.3784 29.9145 35.387 29.9965 35.3874H34.2377C34.3197 35.3866 34.4006 35.378 34.4807 35.3614C34.5612 35.3453 34.6391 35.3212 34.7143 35.2892C34.7899 35.2576 34.8618 35.2189 34.9295 35.173C34.9976 35.1271 35.0604 35.0752 35.1179 35.0173C35.1759 34.959 35.2274 34.8961 35.2725 34.8277C35.318 34.7596 35.3564 34.6877 35.3876 34.6121C35.4189 34.5365 35.4425 34.4583 35.4587 34.3782C35.4745 34.2977 35.4824 34.2168 35.4828 34.1348V30.0008C35.4828 29.9188 35.4749 29.8376 35.4591 29.7571C35.4433 29.6766 35.42 29.5983 35.3888 29.5227C35.3575 29.4467 35.3192 29.3749 35.2737 29.3064C35.2285 29.2383 35.177 29.1748 35.1191 29.1168C35.0615 29.0585 34.9983 29.0066 34.9306 28.9607C34.8625 28.9149 34.7907 28.8761 34.7151 28.8445C34.6395 28.8129 34.5616 28.7888 34.4811 28.7723C34.401 28.7561 34.3197 28.7475 34.2377 28.7471ZM32.9844 32.8878H31.2499V31.2542H32.9844V32.8878ZM17.2903 28.7471H13.048C12.966 28.7478 12.8851 28.7561 12.8046 28.7723C12.7245 28.7888 12.6467 28.8129 12.5711 28.8445C12.4954 28.8761 12.4236 28.9152 12.3555 28.9607C12.2878 29.0066 12.2246 29.0585 12.1671 29.1168C12.1091 29.1752 12.058 29.2383 12.0125 29.3064C11.9673 29.3749 11.9289 29.4471 11.8977 29.5227C11.8665 29.5987 11.8432 29.6766 11.8274 29.7571C11.8116 29.8376 11.8041 29.9188 11.8041 30.0008V34.1348C11.8041 34.2168 11.8116 34.2977 11.8274 34.3782C11.8432 34.4587 11.8669 34.5369 11.8977 34.6125C11.9289 34.6885 11.9673 34.7603 12.0125 34.8288C12.058 34.8969 12.1095 34.9601 12.1671 35.0184C12.225 35.0763 12.2878 35.1282 12.3555 35.1741C12.4236 35.22 12.4954 35.2587 12.5711 35.2903C12.6467 35.3219 12.7245 35.346 12.8046 35.3622C12.8851 35.3784 12.966 35.387 13.048 35.3874H17.2903C17.3727 35.387 17.4539 35.3791 17.5348 35.3629C17.6153 35.3471 17.6936 35.3231 17.7695 35.2918C17.8455 35.2603 17.9178 35.2215 17.9862 35.176C18.0547 35.1301 18.1179 35.0782 18.1762 35.0203C18.2345 34.962 18.2864 34.8988 18.3319 34.8303C18.3778 34.7622 18.4165 34.69 18.4478 34.614C18.4794 34.538 18.5034 34.4598 18.5196 34.3789C18.5358 34.2984 18.5437 34.2168 18.5437 34.1348V30.0008C18.5437 29.9184 18.5358 29.8368 18.5196 29.7563C18.5034 29.6754 18.4794 29.5972 18.4478 29.5212C18.4165 29.4452 18.3778 29.373 18.3319 29.3049C18.2864 29.2365 18.2345 29.1729 18.1762 29.115C18.1179 29.0567 18.0547 29.0048 17.9862 28.9589C17.9181 28.9133 17.8459 28.8746 17.7699 28.843C17.6939 28.8114 17.6153 28.7877 17.5348 28.7715C17.4539 28.7554 17.3727 28.7475 17.2903 28.7471ZM16.0358 32.8878H14.3018V31.2542H16.0388L16.0358 32.8878ZM34.2377 20.466H29.9965C29.9145 20.4664 29.8333 20.475 29.7528 20.4912C29.6727 20.5077 29.5948 20.5318 29.5192 20.5634C29.4436 20.595 29.3717 20.6337 29.3037 20.6796C29.2356 20.7255 29.1728 20.7774 29.1148 20.8357C29.0573 20.8937 29.0057 20.9569 28.9602 21.0253C28.9151 21.0934 28.8767 21.1656 28.8455 21.2416C28.8143 21.3172 28.791 21.3955 28.7752 21.476C28.759 21.5565 28.7515 21.6373 28.7515 21.7193V25.8819C28.7518 25.9628 28.7605 26.0433 28.777 26.123C28.7932 26.2024 28.8173 26.2795 28.8489 26.3543C28.8805 26.4292 28.9192 26.5003 28.9647 26.5676C29.0103 26.6346 29.0618 26.697 29.1197 26.7538C29.1776 26.811 29.2405 26.8622 29.3082 26.9065C29.3759 26.9513 29.4474 26.9893 29.5226 27.0198C29.5978 27.0506 29.6753 27.0736 29.755 27.089C29.8348 27.1044 29.9153 27.1119 29.9965 27.1116H34.2377C34.3197 27.1112 34.401 27.1029 34.4811 27.0864C34.5616 27.0702 34.6395 27.0461 34.7151 27.0145C34.7907 26.9825 34.8625 26.9438 34.9306 26.8979C34.9983 26.8524 35.0615 26.8001 35.1191 26.7422C35.177 26.6839 35.2285 26.6207 35.2737 26.5526C35.3192 26.4841 35.3575 26.4119 35.3888 26.3363C35.42 26.2603 35.4433 26.1824 35.4591 26.1019C35.4749 26.0214 35.4828 25.9402 35.4828 25.8582V21.7242C35.4854 21.5734 35.4599 21.4274 35.4061 21.2864C35.3526 21.1453 35.2744 21.0193 35.1721 20.9083C35.1157 20.8395 35.0517 20.7774 34.9814 20.7229C34.911 20.668 34.8351 20.6217 34.7546 20.5841C34.6737 20.5461 34.5894 20.5175 34.5025 20.4983C34.4153 20.4795 34.3269 20.4701 34.2377 20.4709V20.466ZM32.9844 24.6067H31.2499V22.9776H32.9844V24.6067ZM25.7636 20.466H21.5221C21.4401 20.4664 21.3585 20.4743 21.2776 20.4908C21.1971 20.507 21.1185 20.5311 21.0425 20.5627C20.9665 20.5946 20.8947 20.6334 20.8262 20.6793C20.7577 20.7252 20.6949 20.7774 20.6366 20.8357C20.5787 20.8944 20.5272 20.958 20.4816 21.0265C20.4361 21.0953 20.3978 21.1675 20.3665 21.2439C20.3353 21.3202 20.312 21.3985 20.2962 21.4793C20.2808 21.5602 20.2732 21.6418 20.2736 21.7242V25.8582C20.2732 25.9402 20.2811 26.0214 20.2969 26.1019C20.3127 26.1824 20.3364 26.2603 20.3677 26.3363C20.3989 26.4119 20.4369 26.4841 20.4824 26.5526C20.5279 26.6207 20.5794 26.6839 20.637 26.7422C20.6949 26.8001 20.7577 26.8524 20.8258 26.8979C20.8939 26.9438 20.9654 26.9825 21.041 27.0145C21.1166 27.0461 21.1948 27.0702 21.275 27.0864C21.3555 27.1029 21.4367 27.1112 21.5183 27.1116H25.7599C25.8423 27.1123 25.9235 27.1048 26.0044 27.089C26.0853 27.0732 26.1635 27.0499 26.2395 27.0183C26.3155 26.987 26.3877 26.9487 26.4561 26.9028C26.5246 26.8569 26.5878 26.805 26.6457 26.7467C26.7037 26.6884 26.7552 26.6248 26.8007 26.556C26.8458 26.4875 26.8838 26.4149 26.9147 26.3386C26.9455 26.2622 26.9685 26.1836 26.9839 26.1027C26.9989 26.0222 27.0061 25.9406 27.005 25.8582V21.7242C27.005 21.6422 26.9971 21.5614 26.9813 21.4809C26.9655 21.4007 26.9421 21.3229 26.9109 21.2469C26.8801 21.1713 26.8417 21.0994 26.7966 21.031C26.7514 20.9629 26.7003 20.8997 26.6427 20.8418C26.5852 20.7835 26.5224 20.7315 26.4546 20.6857C26.3869 20.6398 26.3151 20.601 26.2399 20.569C26.1643 20.5375 26.0868 20.513 26.0066 20.4964C25.9265 20.4799 25.8453 20.4712 25.7636 20.4709V20.466ZM24.5099 24.6067H22.7758V22.9776H24.5084L24.5099 24.6067ZM66.1325 62.4895H37.5821C37.5016 62.4862 37.4223 62.4756 37.3436 62.4572C37.265 62.4388 37.189 62.4132 37.1153 62.3801C37.042 62.347 36.972 62.3075 36.9062 62.2608C36.8403 62.2146 36.7794 62.1623 36.7234 62.1044C36.6677 62.046 36.6177 61.9832 36.574 61.9155C36.53 61.8478 36.4932 61.7767 36.4631 61.7019C36.433 61.627 36.41 61.5503 36.3946 61.4709C36.3796 61.3919 36.3717 61.3118 36.3717 61.2313C36.3717 61.1508 36.3796 61.0707 36.3946 60.9917C36.41 60.9123 36.433 60.8356 36.4631 60.7607C36.4932 60.6859 36.53 60.6148 36.574 60.5471C36.6177 60.4794 36.6677 60.4165 36.7234 60.3582C36.7794 60.3003 36.8403 60.248 36.9062 60.2014C36.972 60.1551 37.042 60.1156 37.1153 60.0825C37.189 60.0494 37.265 60.0238 37.3436 60.0054C37.4223 59.987 37.5016 59.9761 37.5821 59.973H66.1329C66.2156 59.973 66.2976 59.9813 66.3789 59.9975C66.4601 60.0137 66.5387 60.0374 66.6155 60.069C66.6918 60.1009 66.7648 60.1397 66.8336 60.1856C66.9025 60.2318 66.966 60.2841 67.0247 60.3424C67.0834 60.4011 67.1357 60.4647 67.1816 60.5339C67.2275 60.6027 67.2666 60.6753 67.2982 60.7517C67.3298 60.8284 67.3539 60.907 67.37 60.9883C67.3862 61.0695 67.3941 61.1519 67.3941 61.2347C67.3941 61.3174 67.3862 61.3994 67.37 61.4807C67.3539 61.5619 67.3298 61.6409 67.2982 61.7173C67.2666 61.7936 67.2275 61.8666 67.1816 61.9355C67.1357 62.0043 67.0834 62.0679 67.0247 62.1265C66.966 62.1852 66.9025 62.2375 66.8336 62.2834C66.7648 62.3293 66.6918 62.3684 66.6155 62.4C66.5387 62.4316 66.4601 62.4557 66.3789 62.4719C66.2976 62.488 66.2156 62.4959 66.1329 62.4959L66.1325 62.4895Z" fill="#AF7B20"/>
</g>
</svg>
