<svg width="66" height="66" viewBox="0 0 66 66" fill="none" xmlns="http://www.w3.org/2000/svg">
<path fill-rule="evenodd" clip-rule="evenodd" d="M4.95169 58.0292H1.3428C1.04307 58.0292 0.75777 57.9019 0.557403 57.6792C0.357365 57.4566 0.26128 57.1591 0.29309 56.8611C0.662014 53.4151 1.94029 50.2408 3.88329 47.5832C3.8764 46.6647 4.21286 45.7717 4.83331 45.083C5.5059 44.337 6.45231 43.8982 7.4525 43.8641C9.43846 42.2835 11.7438 41.0869 14.2564 40.3871C12.0727 39.1032 10.4019 37.034 9.63653 34.5728H6.96684C6.38377 34.5728 5.91122 34.1003 5.91122 33.5172V29.565C5.91122 28.9819 6.38377 28.5094 6.96684 28.5094H7.0908C7.88636 22.4056 13.1116 17.685 19.4309 17.685C25.7501 17.685 30.9754 22.4056 31.771 28.5094H31.8949C32.478 28.5094 32.9505 28.9819 32.9505 29.565V33.5172C32.9505 34.1003 32.478 34.5728 31.8949 34.5728H29.2252C28.4598 37.034 26.7894 39.1029 24.6063 40.3871C27.1186 41.0865 29.424 42.2835 31.4096 43.8641C32.4098 43.8979 33.3562 44.3367 34.0288 45.0827C34.6496 45.7714 34.986 46.665 34.9791 47.5839C36.9218 50.2411 38.1997 53.4155 38.5687 56.8611C38.6008 57.1591 38.5047 57.4566 38.3044 57.6792C38.104 57.9019 37.8187 58.0292 37.5193 58.0292H33.9127L33.8097 59.0198H36.2784C36.8615 59.0198 37.334 59.4924 37.334 60.0754V64.6688C37.334 65.2519 36.8615 65.7244 36.2784 65.7244H2.58337C2.0003 65.7244 1.52775 65.2519 1.52775 64.6688V60.0754C1.52775 59.4924 2.0003 59.0198 2.58337 59.0198H5.05466L4.95169 58.0292ZM4.22368 51.0245C3.43534 52.5373 2.86605 54.1825 2.55812 55.9179H4.73231L4.22368 51.0245ZM11.2644 43.8622H27.5984C25.1707 42.5435 22.3888 41.7945 19.4325 41.7945C16.4749 41.7945 13.6924 42.5435 11.2644 43.8622ZM34.6391 51.0262L34.1318 55.9179C35.0952 55.9179 36.3036 55.9179 36.3036 55.9179C35.9957 54.1832 35.4271 52.5386 34.6391 51.0262ZM31.6873 59.0198L32.8597 47.7203C32.9059 47.2743 32.761 46.8296 32.4606 46.4968C32.1606 46.1636 31.7329 45.9734 31.2846 45.9734H7.57777C7.12949 45.9734 6.70187 46.1636 6.40148 46.4968C6.10142 46.8299 5.95648 47.2746 6.00272 47.7206L7.17737 59.0198H31.6873ZM11.2946 31.8493C11.4585 36.1912 15.0491 39.6833 19.4325 39.6833C22.4324 39.6833 25.0621 38.0453 26.4739 35.6183H24.2138C23.7858 36.7621 22.6823 37.577 21.3896 37.577C19.726 37.577 18.3753 36.2263 18.3753 34.5627C18.3753 32.8991 19.726 31.548 21.3896 31.548C22.6823 31.548 23.7858 32.3632 24.2138 33.507H27.3321C27.4652 32.9732 27.5459 32.4186 27.5672 31.8493V31.2296C27.4032 26.8881 23.8127 23.3992 19.4325 23.3992C15.0494 23.3992 11.4585 26.8881 11.2946 31.2296V31.8493ZM9.18333 30.6206H8.02245V32.4616H9.18333V30.6206ZM29.6381 28.5094C28.8596 23.5746 24.583 19.7962 19.4309 19.7962C14.2787 19.7962 10.0022 23.5746 9.22399 28.5094H9.63588C10.9332 24.3338 14.8369 21.2876 19.4325 21.2876C24.0252 21.2876 27.9289 24.3338 29.2259 28.5094H29.6381ZM29.6784 30.6206V32.4616H30.8393V30.6206H29.6784ZM19.4325 56.1016C17.1131 56.1016 15.3357 54.4868 15.3357 52.6917C15.3357 50.8924 17.1131 49.2819 19.4325 49.2819C21.752 49.2819 23.5261 50.8924 23.5261 52.6917C23.5261 54.4872 21.752 56.1016 19.4325 56.1016ZM19.4325 53.9903C20.0156 53.9903 20.5485 53.8175 20.9322 53.5201C21.2119 53.3033 21.4149 53.0206 21.4149 52.6917C21.4149 52.3618 21.2122 52.0792 20.9325 51.8624C20.5488 51.5653 20.0156 51.3931 19.4325 51.3931C18.8488 51.3931 18.3146 51.5653 17.9303 51.8627C17.6502 52.0795 17.4469 52.3618 17.4469 52.6917C17.4469 53.0206 17.6505 53.303 17.9306 53.5198C18.3149 53.8175 18.8488 53.9903 19.4325 53.9903ZM21.3896 33.6595C20.8912 33.6595 20.4865 34.0642 20.4865 34.5627C20.4865 35.0611 20.8912 35.4658 21.3896 35.4658C21.8881 35.4658 22.2931 35.0611 22.2931 34.5627C22.2931 34.0642 21.8881 33.6595 21.3896 33.6595ZM3.63898 63.6132H35.2228V61.1311H3.63898V63.6132ZM52.6252 3.10676C53.7713 3.42616 54.8735 3.88264 55.9107 4.46833L58.019 3.53077C58.4181 3.35336 58.8854 3.44026 59.1943 3.74918L62.2624 6.81731C62.571 7.12589 62.6579 7.59254 62.4812 7.9913L61.5469 10.1002C62.1332 11.1381 62.5904 12.2416 62.9094 13.3914L65.0594 14.2187C65.467 14.3758 65.7359 14.7674 65.7359 15.2038V19.544C65.7359 19.9808 65.467 20.3724 65.0594 20.5295L62.9088 21.3572C62.5891 22.503 62.1303 23.6051 61.5466 24.6424L62.4812 26.7523C62.6579 27.1514 62.571 27.618 62.2624 27.9263L59.1943 30.9944C58.8857 31.303 58.4191 31.3899 58.0203 31.2135L55.912 30.2795C54.8764 30.8652 53.7719 31.3224 52.6248 31.6414L51.7971 33.7917C51.64 34.1993 51.2485 34.4682 50.812 34.4682H46.4718C46.035 34.4682 45.6435 34.1993 45.4864 33.7917L44.659 31.6418C43.5096 31.3217 42.4068 30.8626 41.3692 30.2789L39.259 31.2135C38.8602 31.3899 38.3936 31.303 38.0853 30.9944L35.0168 27.9263C34.7079 27.6174 34.6214 27.1501 34.7988 26.751L35.736 24.6434C35.1503 23.6084 34.6935 22.5043 34.3718 21.3575L32.2199 20.5295C31.8123 20.3724 31.5434 19.9808 31.5434 19.544V15.2038C31.5434 14.7674 31.8123 14.3758 32.2199 14.2187L34.3711 13.3907C34.6932 12.2413 35.1503 11.1385 35.736 10.1009L34.7988 7.99262C34.6214 7.59352 34.7079 7.12622 35.0168 6.81731L38.0853 3.74918C38.3939 3.44026 38.8612 3.35336 39.2606 3.53077L41.3686 4.46833C42.4065 3.88232 43.5086 3.42583 44.6551 3.10643L45.4871 0.951259C45.6438 0.543967 46.0354 0.275391 46.4718 0.275391H50.812C51.2488 0.275391 51.6407 0.544623 51.7975 0.95257L52.6252 3.10676ZM50.8494 4.37159L50.0866 2.38662H47.1959L46.4295 4.3729C46.3043 4.69756 46.0272 4.93957 45.6887 5.01991C44.3819 5.33046 43.1358 5.84663 41.9903 6.55267C41.6939 6.73532 41.3259 6.75992 41.0078 6.61825L39.0652 5.75481L37.0225 7.7975L37.8862 9.74017C38.0276 10.0583 38.003 10.4259 37.8203 10.7227C37.114 11.8688 36.5975 13.1159 36.2827 14.4276C36.2017 14.7654 35.9596 15.0415 35.6357 15.1665L33.6546 15.9289V18.8193L35.6357 19.5817C35.9596 19.7064 36.2013 19.9825 36.2827 20.3199C36.5975 21.627 37.1133 22.8781 37.8193 24.0196C38.003 24.3164 38.0279 24.685 37.8862 25.0038L37.0225 26.9461L39.0661 28.9898L41.0091 28.129C41.3263 27.9886 41.6922 28.0129 41.988 28.1942C43.1341 28.8963 44.3809 29.4174 45.6923 29.728C46.0314 29.8083 46.3089 30.051 46.4341 30.3759L47.1966 32.357H50.087L50.8494 30.3759C50.9747 30.051 51.2518 29.8086 51.5905 29.7283C52.8967 29.4177 54.1468 28.9019 55.2876 28.1965C55.5838 28.0132 55.9517 27.9879 56.2701 28.129L58.2131 28.9898L60.2575 26.9455L59.397 25.0025C59.2566 24.6853 59.2809 24.3194 59.4619 24.0236C60.164 22.8775 60.6854 21.6303 60.996 20.3229C61.0766 19.9841 61.319 19.707 61.6436 19.5817L63.6247 18.8193V15.9289L61.6436 15.1665C61.3186 15.0412 61.076 14.7638 60.9956 14.4247C60.6854 13.1139 60.1689 11.8678 59.4632 10.7227C59.2809 10.4265 59.2559 10.0592 59.397 9.74148L60.2575 7.79815L58.2141 5.75481L56.2714 6.61825C55.9533 6.75992 55.5854 6.73532 55.289 6.55267C54.1435 5.84663 52.8973 5.33046 51.5905 5.01991C51.2514 4.93924 50.9743 4.6969 50.8494 4.37159ZM48.6388 6.17423C54.8256 6.17423 59.8416 11.1844 59.8416 17.3711C59.8416 23.5576 54.8256 28.574 48.6388 28.574C42.4524 28.574 37.4419 23.5579 37.4419 17.3711C37.4419 11.1844 42.452 6.17423 48.6388 6.17423ZM48.6388 8.28546C43.6185 8.28546 39.5531 12.3508 39.5531 17.3711C39.5531 22.3915 43.6185 26.4627 48.6388 26.4627C53.6595 26.4627 57.7304 22.3918 57.7304 17.3711C57.7304 12.3508 53.6595 8.28546 48.6388 8.28546ZM48.6418 24.5237C47.86 24.5237 47.2225 23.8862 47.2225 23.1044C47.2225 22.3226 47.86 21.6851 48.6418 21.6851C49.4239 21.6851 50.0611 22.3226 50.0611 23.1044C50.0611 23.8862 49.4239 24.5237 48.6418 24.5237ZM48.6418 20.1996C48.0446 20.1996 47.5566 19.728 47.5353 19.1308L47.2533 11.3736C47.2438 11.0607 47.3481 10.7882 47.5639 10.5633C47.7816 10.3383 48.0495 10.2245 48.3624 10.2245H48.9215C49.234 10.2245 49.5042 10.3383 49.72 10.5633C49.9378 10.7882 50.042 11.0607 50.0302 11.3736L49.7505 19.1308C49.7295 19.728 49.2389 20.1996 48.6418 20.1996Z" fill="#AF7B20"/>
</svg>
