<svg width="79" height="79" viewBox="0 0 79 79" fill="none" xmlns="http://www.w3.org/2000/svg">
<mask id="mask0_565_4294" style="mask-type:luminance" maskUnits="userSpaceOnUse" x="2" y="47" width="30" height="31">
<path d="M2.04883 47.9854H31.6007V77.5082H2.04883V47.9854Z" fill="white"/>
</mask>
<g mask="url(#mask0_565_4294)">
<path d="M11.2706 77.4926C11.0348 77.493 10.7997 77.4838 10.5646 77.4655C10.33 77.4476 10.096 77.4206 9.86325 77.3844C9.63047 77.3482 9.39922 77.3029 9.17025 77.2491C8.9409 77.195 8.71384 77.1322 8.48944 77.0606C8.26504 76.9893 8.04369 76.9093 7.82539 76.8205C7.60709 76.7318 7.3926 76.635 7.18153 76.5298C6.97085 76.4247 6.76436 76.3115 6.56244 76.1904C6.36052 76.0692 6.16318 75.9405 5.97116 75.8041C5.77915 75.6681 5.59247 75.5244 5.4115 75.3736C5.23054 75.2227 5.05529 75.0654 4.88651 74.9012C4.71774 74.737 4.55544 74.5663 4.39962 74.3895C4.2438 74.2127 4.09522 74.0302 3.95349 73.842C3.81215 73.6538 3.67804 73.4603 3.55118 73.2618C3.42469 73.0629 3.30583 72.8599 3.19458 72.6519C3.08371 72.4442 2.98085 72.2324 2.88637 72.0168C2.7915 71.8011 2.7054 71.5821 2.62768 71.3596C2.54996 71.1371 2.481 70.9119 2.42043 70.6845C2.36023 70.4566 2.3088 70.2269 2.26613 69.9953C2.22346 69.7636 2.18994 69.5305 2.16517 69.2962C2.14079 69.0619 2.12517 68.8272 2.11869 68.5918C2.11222 68.3559 2.11488 68.1209 2.12631 67.8854C2.13812 67.65 2.15908 67.4157 2.18879 67.1817C2.21851 66.9482 2.25737 66.7162 2.30499 66.4853C2.35261 66.2548 2.40938 66.0262 2.47453 65.7999C2.54006 65.5736 2.61397 65.35 2.69664 65.1294C2.77931 64.9088 2.87037 64.6917 2.9698 64.4779C3.06924 64.2646 3.17667 64.055 3.29211 63.8497C3.40755 63.6443 3.53098 63.4439 3.66204 63.2481C3.7931 63.0523 3.93139 62.8618 4.07731 62.677C4.22284 62.4919 4.37562 62.3128 4.53525 62.1395C4.69488 61.9661 4.86099 61.7993 5.03319 61.6389C5.20577 61.4781 5.38407 61.3246 5.56847 61.1779L21.8561 48.228C21.8976 48.1948 21.9418 48.1667 21.9895 48.143C22.0367 48.1194 22.0859 48.1011 22.1373 48.0878C22.1883 48.0745 22.2405 48.0668 22.2935 48.0642C22.3461 48.0619 22.3986 48.0653 22.4508 48.0737C22.503 48.0825 22.5541 48.0966 22.6032 48.1156C22.6524 48.135 22.6992 48.1594 22.7434 48.1884C22.7876 48.2177 22.8284 48.2508 22.8653 48.2886C22.9027 48.3263 22.9354 48.3674 22.964 48.412C23.4936 49.2345 24.065 50.0266 24.6792 50.7882C25.2933 51.5498 25.9459 52.2763 26.6378 52.9678C27.3293 53.6596 28.0562 54.3126 28.8174 54.9264C29.579 55.5405 30.371 56.1124 31.1939 56.6416C31.2385 56.6701 31.2793 56.7029 31.317 56.7402C31.3547 56.7772 31.3882 56.8179 31.4172 56.8621C31.4465 56.9063 31.4705 56.9532 31.49 57.0023C31.509 57.0519 31.5231 57.1025 31.5319 57.1547C31.5406 57.2069 31.5437 57.2595 31.5414 57.3125C31.5391 57.365 31.5311 57.4172 31.5178 57.4683C31.5044 57.5197 31.4862 57.5689 31.4625 57.6165C31.4389 57.6637 31.4107 57.7079 31.3776 57.7494L18.4269 74.0386C18.2269 74.2901 18.0143 74.5305 17.7888 74.7598C17.5632 74.9888 17.3266 75.2056 17.0783 75.4098C16.8299 75.614 16.5715 75.8045 16.3033 75.9816C16.0351 76.1584 15.7582 76.3207 15.4724 76.4685C15.1871 76.6163 14.8949 76.7485 14.5954 76.8655C14.296 76.9825 13.9912 77.0834 13.6811 77.168C13.3709 77.2529 13.0574 77.3211 12.74 77.373C12.4227 77.4248 12.1038 77.4594 11.7826 77.4777C11.6112 77.488 11.4394 77.4926 11.2706 77.4926ZM22.1529 49.9264L6.50911 62.3631C6.40434 62.4465 6.30185 62.5326 6.20127 62.6214C6.10069 62.7102 6.00278 62.8016 5.90716 62.8957C5.81153 62.9898 5.71857 63.0862 5.6279 63.1849C5.53761 63.2839 5.4496 63.3853 5.36464 63.4885C5.2793 63.5921 5.19701 63.6981 5.11739 63.8059C5.03776 63.9137 4.9608 64.0234 4.88727 64.1354C4.81336 64.2474 4.7425 64.361 4.67469 64.4768C4.60687 64.5922 4.54211 64.7096 4.48039 64.8288C4.41867 64.9477 4.36 65.0684 4.30476 65.1904C4.24951 65.3127 4.19732 65.4361 4.14855 65.5611C4.09979 65.6856 4.05445 65.8117 4.01216 65.939C3.96987 66.0662 3.93101 66.1946 3.89558 66.3238C3.86015 66.4533 3.82815 66.5832 3.79958 66.7143C3.771 66.8453 3.74586 66.9768 3.72452 67.1094C3.70281 67.2416 3.68452 67.3741 3.67004 67.5075C3.65518 67.6408 3.64414 67.7745 3.63652 67.9083C3.6289 68.042 3.62471 68.1761 3.62433 68.3102C3.62356 68.4443 3.62661 68.578 3.63309 68.7121C3.63956 68.8459 3.64947 68.9796 3.66319 69.1129C3.67652 69.2463 3.69366 69.3792 3.71424 69.5118C3.73481 69.6444 3.75881 69.7762 3.78624 69.9073C3.81367 70.0387 3.84453 70.169 3.87882 70.2985C3.91311 70.4281 3.95082 70.5568 3.99197 70.6845C4.03312 70.8121 4.07731 70.9386 4.12531 71.0635C4.17294 71.1889 4.22399 71.3127 4.27847 71.4354C4.33257 71.5581 4.39009 71.6792 4.45067 71.7988C4.51125 71.9181 4.57525 72.0362 4.64192 72.1524C4.70898 72.2686 4.77869 72.3829 4.85146 72.4953C4.92461 72.608 5.00042 72.7185 5.07891 72.8271C5.15777 72.9353 5.2393 73.042 5.3235 73.146C5.40769 73.2504 5.49494 73.3521 5.58447 73.4519C5.67438 73.5517 5.76658 73.6489 5.86106 73.7437C5.95592 73.8386 6.05307 73.9308 6.15289 74.0203C6.25271 74.1099 6.35443 74.1971 6.45882 74.2813C6.56282 74.3655 6.6695 74.447 6.7777 74.5259C6.88628 74.6048 6.99676 74.6806 7.10953 74.7533C7.22192 74.8261 7.33621 74.8962 7.45241 74.9629C7.56861 75.0299 7.68671 75.0936 7.80596 75.1541C7.92559 75.2151 8.04674 75.2722 8.16942 75.3267C8.29171 75.3808 8.41591 75.4319 8.54087 75.4799C8.66621 75.5275 8.7927 75.5721 8.92033 75.6132C9.04796 75.6544 9.17673 75.6921 9.30626 75.7264C9.43579 75.7606 9.56609 75.7915 9.69753 75.8189C9.82858 75.8464 9.9604 75.8704 10.093 75.8909C10.2256 75.9115 10.3581 75.9287 10.4919 75.942C10.6252 75.9557 10.7586 75.9656 10.8927 75.9721C11.0264 75.9786 11.1605 75.9816 11.2946 75.9809C11.4287 75.9805 11.5624 75.9763 11.6965 75.9687C11.8303 75.961 11.964 75.95 12.0969 75.9355C12.2303 75.9207 12.3632 75.9028 12.4954 75.881C12.6276 75.8593 12.7595 75.8342 12.8905 75.8056C13.0216 75.777 13.1515 75.745 13.281 75.7096C13.4102 75.6742 13.5386 75.6353 13.6658 75.5934C13.7931 75.5511 13.9192 75.5058 14.0437 75.457C14.1687 75.4079 14.2921 75.356 14.4144 75.3008C14.5364 75.2452 14.6571 75.1869 14.776 75.1252C14.8952 75.0635 15.0126 74.9987 15.128 74.9309C15.2438 74.8631 15.3574 74.7922 15.4694 74.7183C15.5814 74.6448 15.6911 74.5678 15.7989 74.4882C15.9067 74.4086 16.0126 74.3263 16.1163 74.2409C16.2195 74.156 16.3209 74.068 16.4199 73.9777C16.5186 73.887 16.615 73.794 16.7091 73.6984C16.8032 73.6028 16.8946 73.5049 16.9834 73.4043C17.0722 73.3041 17.1583 73.2012 17.2417 73.0965L29.6795 57.453C28.2032 56.4415 26.8329 55.3032 25.5676 54.0379C24.3024 52.7727 23.164 51.4023 22.1529 49.9264Z" fill="#AF7B20"/>
</g>
<path d="M45.8774 62.4442C45.2785 62.4438 44.68 62.4247 44.0818 62.3874C43.4841 62.3497 42.8882 62.2937 42.2939 62.2186C41.6992 62.1439 41.1079 62.0506 40.5193 61.939C39.931 61.827 39.3466 61.6971 38.766 61.5485C38.1858 61.4003 37.6105 61.2342 37.0405 61.0498C36.4706 60.8654 35.9067 60.6638 35.3494 60.4444C34.792 60.2246 34.2419 59.988 33.6993 59.7342C33.1568 59.4805 32.6227 59.21 32.0969 58.9228C31.5712 58.6355 31.055 58.3322 30.5483 58.0126C30.0416 57.693 29.5455 57.3581 29.0594 57.0076C28.5736 56.6571 28.0993 56.2917 27.6364 55.9119C27.1735 55.5317 26.7228 55.1373 26.2843 54.7289C25.8462 54.3209 25.421 53.8992 25.0088 53.4645C24.597 53.0294 24.1989 52.5821 23.8148 52.1223C23.4308 51.6628 23.0616 51.1915 22.7069 50.7085C22.3522 50.2257 22.0132 49.7324 21.6893 49.2283C21.4463 48.8497 21.212 48.4652 20.9868 48.0751C20.7613 47.6854 20.5456 47.2907 20.3388 46.8907C20.1319 46.4906 19.9349 46.086 19.7471 45.6768C19.5593 45.2677 19.3814 44.8543 19.213 44.4368C19.0446 44.0192 18.8861 43.5978 18.7371 43.1727C18.5885 42.7479 18.4499 42.3197 18.3215 41.888C18.1927 41.4567 18.0746 41.0224 17.9664 40.5854C17.8578 40.1484 17.7599 39.7092 17.6723 39.2672C17.5847 38.8257 17.5077 38.3822 17.4406 37.9372C17.3736 37.4919 17.3172 37.0454 17.2715 36.5973C17.2254 36.1497 17.19 35.7009 17.1652 35.2513C17.1401 34.8018 17.126 34.3518 17.1221 33.9019C17.1183 33.4516 17.1248 33.0013 17.1423 32.5517C17.1595 32.1018 17.1873 31.6522 17.2254 31.2038C17.2639 30.7554 17.3126 30.3077 17.3721 29.8616C17.4311 29.4151 17.5008 28.9705 17.5808 28.5274C17.6612 28.0843 17.7515 27.6435 17.8525 27.2047C17.9531 26.7658 18.0639 26.3295 18.1855 25.896C18.3066 25.4624 18.4377 25.0319 18.579 24.6045C18.7207 24.177 18.872 23.753 19.0331 23.3328C19.1943 22.9125 19.3654 22.4961 19.5463 22.0835C19.7269 21.6713 19.9174 21.2633 20.117 20.8598C20.317 20.4567 20.5262 20.0578 20.7449 19.6643C20.9632 19.2707 21.191 18.8825 21.4276 18.4996C21.6646 18.1168 21.9099 17.7392 22.1644 17.3678C22.4189 16.9963 22.6818 16.6313 22.9534 16.2721C23.2251 15.9128 23.5047 15.5604 23.7927 15.2145C24.0807 14.8681 24.3768 14.5291 24.6808 14.1972C24.9848 13.865 25.2965 13.54 25.6153 13.2227C25.9346 12.905 26.2611 12.5952 26.5948 12.2927C26.9286 11.9906 27.2692 11.6965 27.6166 11.41C27.9641 11.1239 28.318 10.8458 28.6784 10.576C29.0392 10.3063 29.4057 10.0453 29.7783 9.79273C30.1513 9.54014 30.5296 9.29669 30.9136 9.06163C31.298 8.82694 31.6874 8.6014 32.0821 8.38462C32.4768 8.16823 32.8764 7.96097 33.281 7.76325C33.6853 7.56552 34.094 7.37731 34.5074 7.19863C34.9208 7.01995 35.3379 6.8508 35.7589 6.69193C36.1803 6.53268 36.6051 6.38372 37.0329 6.24428C37.4611 6.10522 37.8924 5.97607 38.3267 5.8572C38.761 5.73796 39.1977 5.62938 39.6369 5.5307C40.0762 5.43241 40.5177 5.34402 40.9612 5.2663C41.4047 5.1882 41.8497 5.12077 42.2962 5.064C42.7427 5.00686 43.1903 4.96038 43.6391 4.92456C44.0879 4.88837 44.5375 4.86285 44.9874 4.84799C45.4373 4.83313 45.8877 4.82856 46.3376 4.83465C46.7879 4.84075 47.2379 4.85751 47.687 4.88456C48.1366 4.91199 48.585 4.94971 49.0326 4.99771C49.4803 5.0461 49.9264 5.10477 50.3714 5.17372C50.8164 5.24306 51.2595 5.32269 51.7007 5.41222C52.1418 5.50213 52.5803 5.60233 53.0169 5.71281C53.4535 5.8233 53.8871 5.94407 54.318 6.07474C54.7489 6.20542 55.1763 6.34638 55.6004 6.49725C56.0248 6.64812 56.445 6.80851 56.8618 6.97919C57.2786 7.14949 57.6908 7.32969 58.0992 7.5198C58.5076 7.70953 58.9111 7.90878 59.31 8.11756C59.7089 8.32633 60.1028 8.54425 60.4914 8.7717C60.88 8.99876 61.2632 9.23497 61.6408 9.47994C62.0184 9.72529 62.3902 9.97903 62.7559 10.2415C63.1217 10.5044 63.4809 10.7753 63.8341 11.0545C64.1869 11.3342 64.5332 11.6214 64.873 11.9171C65.2125 12.2127 65.5451 12.5164 65.8701 12.8276C66.1954 13.1389 66.5135 13.4574 66.824 13.7835C67.1342 14.1096 67.437 14.443 67.7315 14.7832C68.0264 15.1234 68.3133 15.4705 68.5918 15.8244C68.8703 16.1779 69.1404 16.538 69.4021 16.9045C69.6635 17.2706 69.9164 17.6432 70.1607 18.0215C70.4049 18.3994 70.6403 18.7835 70.8666 19.1725C71.0925 19.5618 71.3097 19.9561 71.5173 20.3558C71.7253 20.755 71.9235 21.1593 72.1124 21.5677C72.301 21.9765 72.4801 22.3894 72.6496 22.8066C72.8191 23.2238 72.9788 23.6444 73.1285 24.0692C73.2782 24.4936 73.418 24.9218 73.5476 25.3527C73.6775 25.784 73.7971 26.2179 73.9064 26.6545C74.0158 27.0915 74.1148 27.5304 74.2036 27.9719C74.2924 28.4131 74.3709 28.8566 74.4387 29.3016C74.5069 29.7466 74.5644 30.1931 74.6113 30.6407C74.6585 31.0884 74.6951 31.5372 74.7214 31.9867C74.7473 32.4359 74.7629 32.8858 74.7678 33.3361C74.7728 33.7861 74.7675 34.2364 74.7511 34.6863C74.7351 35.1363 74.7084 35.5855 74.6715 36.0342C74.6341 36.483 74.5865 36.9303 74.5286 37.3768C74.4703 37.8233 74.4017 38.2683 74.3229 38.7114C74.244 39.1549 74.1545 39.596 74.055 40.0349C73.9552 40.4742 73.8455 40.9104 73.7255 41.3443C73.6055 41.7783 73.4752 42.2092 73.335 42.637C73.1944 43.0648 73.0443 43.4893 72.8843 43.9099C72.7239 44.3308 72.554 44.7476 72.3745 45.1602C72.1947 45.5732 72.0054 45.9816 71.8065 46.3855C71.608 46.7893 71.3996 47.1886 71.1821 47.5829C70.9645 47.9768 70.7378 48.3658 70.5024 48.7495C70.2666 49.1331 70.022 49.5107 69.7682 49.8829C69.5149 50.2551 69.2528 50.6208 68.9823 50.9809C68.7118 51.3405 68.4329 51.694 68.1457 52.0407C67.8584 52.3874 67.5635 52.7273 67.2603 53.0602C66.9574 53.3932 66.6465 53.719 66.3284 54.0371C65.6571 54.7042 64.9549 55.3362 64.2216 55.9343C63.4886 56.5321 62.7277 57.0929 61.9395 57.616C61.1512 58.1395 60.3394 58.6229 59.5035 59.0664C58.668 59.5102 57.8127 59.9118 56.9376 60.2714C56.0625 60.6311 55.1721 60.9473 54.2658 61.2193C53.3598 61.4917 52.4428 61.7192 51.5144 61.9016C50.5859 62.0837 49.651 62.2205 48.7092 62.3112C47.7674 62.4015 46.8233 62.4461 45.8774 62.4442ZM45.9433 6.36353C45.4221 6.36391 44.9013 6.37953 44.3813 6.40962C43.8608 6.4401 43.342 6.48544 42.8246 6.54525C42.3068 6.60545 41.7914 6.6805 41.2778 6.77003C40.7646 6.85956 40.2541 6.96395 39.747 7.08282C39.2396 7.2013 38.7359 7.33464 38.2361 7.48246C37.7366 7.63028 37.2413 7.79182 36.751 7.96783C36.2603 8.14423 35.7753 8.33395 35.2957 8.53778C34.816 8.7416 34.3428 8.95914 33.8757 9.19002C33.4087 9.42089 32.9484 9.6651 32.4951 9.92226C32.0421 10.1794 31.5967 10.4495 31.159 10.7326C30.7212 11.0153 30.2919 11.3106 29.8713 11.6176C29.4503 11.9251 29.0388 12.2443 28.6361 12.5754C28.2338 12.9065 27.841 13.2486 27.4581 13.6021C27.0752 13.9553 26.7027 14.3195 26.3407 14.6944C25.9788 15.0693 25.6279 15.4541 25.2877 15.8492C24.9479 16.2439 24.6195 16.6481 24.3025 17.0618C23.9855 17.4756 23.6807 17.8981 23.3881 18.3293C23.0955 18.7606 22.8155 19.1999 22.5481 19.6468C22.2806 20.094 22.0261 20.5486 21.7846 21.0103C21.5434 21.4724 21.3152 21.9407 21.1007 22.4154C20.8858 22.8904 20.6851 23.3709 20.498 23.8574C20.3109 24.3435 20.138 24.835 19.9791 25.3314C19.8199 25.8274 19.6755 26.328 19.5452 26.8324C19.4149 27.3372 19.2991 27.8451 19.1977 28.356C19.0968 28.8672 19.0103 29.3808 18.9387 29.897C18.8667 30.4133 18.8099 30.931 18.7676 31.4503C18.7257 31.97 18.6983 32.49 18.6861 33.0112C18.6739 33.532 18.6762 34.0528 18.6937 34.5736C18.7112 35.0944 18.7436 35.6144 18.7912 36.1333C18.8385 36.6522 18.9006 37.1696 18.9775 37.685C19.0545 38.2001 19.1459 38.7129 19.2522 39.223C19.3585 39.7332 19.4793 40.2399 19.6145 40.7432C19.7501 41.2464 19.8995 41.7455 20.0633 42.24C20.2275 42.7349 20.4054 43.2245 20.5971 43.7087C20.7891 44.1933 20.9948 44.6718 21.2143 45.1446C21.4337 45.6174 21.6661 46.0834 21.9122 46.5424C22.1583 47.0019 22.4174 47.4537 22.6894 47.8983C22.9614 48.3429 23.2456 48.7792 23.5424 49.2078C23.8396 49.636 24.1486 50.0551 24.4693 50.4658C24.7905 50.8765 25.1227 51.2773 25.4668 51.6689C25.8108 52.0602 26.1655 52.4415 26.5312 52.813C26.897 53.1841 27.2734 53.5445 27.6597 53.8938C28.046 54.2436 28.4422 54.5819 28.8479 54.9088C29.2537 55.2356 29.6686 55.5507 30.0922 55.854C30.5163 56.1572 30.9483 56.4479 31.3887 56.7264C31.8295 57.0049 32.2775 57.2704 32.7332 57.523C33.1888 57.776 33.6513 58.0153 34.1207 58.2416C34.5901 58.4679 35.0659 58.6805 35.5475 58.8797C36.029 59.0786 36.5159 59.2637 37.0082 59.4348C37.5004 59.6059 37.9972 59.7628 38.4982 59.9057C38.9995 60.0482 39.5043 60.1766 40.0129 60.2901C40.5212 60.404 41.0328 60.5031 41.5468 60.5876C42.0611 60.6718 42.5773 60.7416 43.0955 60.7964C43.614 60.8517 44.1332 60.8917 44.6537 60.9168C45.1741 60.942 45.6949 60.9522 46.2161 60.9473C46.7372 60.9427 47.2577 60.9233 47.7777 60.8886C48.2977 60.8539 48.8163 60.8048 49.3332 60.7404C49.8502 60.6764 50.3653 60.5975 50.8777 60.5038C51.3905 60.4101 51.8999 60.3019 52.4066 60.1788C52.9129 60.0562 53.4154 59.9186 53.9138 59.767C54.4125 59.6154 54.9062 59.4497 55.3954 59.2698C55.8842 59.0896 56.368 58.8961 56.8458 58.6885C57.3239 58.4808 57.7952 58.2595 58.2607 58.0248C58.7259 57.7901 59.1842 57.5425 59.6353 57.2815C60.0864 57.0205 60.5295 56.747 60.9649 56.4609C61.4004 56.1744 61.8275 55.8761 62.2458 55.5652C62.6641 55.2543 63.0729 54.932 63.4729 54.5979C63.8726 54.2638 64.2627 53.9182 64.6429 53.562C65.0228 53.2054 65.3923 52.8381 65.7516 52.4606C66.1105 52.083 66.4583 51.6952 66.7951 51.2974C67.1322 50.9001 67.4572 50.4932 67.7708 50.0768C68.0843 49.6608 68.3857 49.2356 68.6748 48.8024C68.964 48.3689 69.2406 47.9273 69.5046 47.4781C69.7686 47.0286 70.0193 46.5722 70.257 46.1085C70.4948 45.6448 70.7192 45.1747 70.9299 44.6981C71.1409 44.2215 71.3379 43.7392 71.5211 43.2515C71.7044 42.7635 71.8732 42.2709 72.0282 41.7733C72.1833 41.2758 72.3239 40.7744 72.4503 40.2688C72.5765 39.7633 72.6881 39.2543 72.7852 38.7423C72.8824 38.2302 72.9647 37.7159 73.0325 37.1993C73.0999 36.6827 73.1529 36.1645 73.191 35.6449C73.2287 35.1248 73.2519 34.6048 73.2599 34.0836C73.2683 33.5624 73.2615 33.0416 73.2397 32.5208C73.218 32.0004 73.1814 31.4808 73.13 30.9623C73.0786 30.4437 73.0127 29.9271 72.9315 29.4121C72.8504 28.8973 72.7547 28.3853 72.6443 27.8759C72.5342 27.367 72.4092 26.861 72.2698 26.3589C72.1307 25.8567 71.9768 25.3592 71.8092 24.8658C71.6411 24.3724 71.4594 23.8844 71.2636 23.4013C71.0678 22.9182 70.8586 22.4416 70.6354 21.9708C70.4121 21.4995 70.1759 21.0354 69.926 20.5783C69.6764 20.1207 69.4139 19.6708 69.1385 19.2285C68.863 18.7861 68.575 18.3522 68.2748 17.9263C67.9742 17.5003 67.6622 17.0835 67.3376 16.6755C67.0134 16.2675 66.6781 15.869 66.331 15.4804C65.984 15.0918 65.6259 14.7131 65.2574 14.3451C64.625 13.7122 63.9633 13.1122 63.2722 12.5445C62.5807 11.9769 61.8633 11.4447 61.1196 10.9482C60.3756 10.4514 59.6094 9.99236 58.8204 9.571C58.0314 9.15001 57.2233 8.76865 56.3966 8.42691C55.5703 8.08517 54.7287 7.78534 53.8726 7.52666C53.0162 7.26797 52.1494 7.05234 51.272 6.87899C50.3943 6.70603 49.5104 6.57611 48.62 6.49039C47.7301 6.40429 46.8374 6.36238 45.9433 6.36429V6.36353Z" fill="#AF7B20"/>
<path d="M45.9399 55.7541C45.4792 55.7537 45.0194 55.7393 44.5599 55.7099C44.1005 55.681 43.6422 55.6379 43.1854 55.58C42.7286 55.5225 42.2741 55.4509 41.8218 55.3648C41.3692 55.2787 40.9201 55.1789 40.4739 55.0649C40.0278 54.9506 39.5859 54.823 39.1477 54.6813C38.7096 54.5396 38.2764 54.3845 37.8478 54.2157C37.4196 54.047 36.9967 53.8652 36.5799 53.6702C36.1628 53.4751 35.7521 53.2671 35.3482 53.0465C34.944 52.8255 34.547 52.5924 34.1577 52.347C33.7683 52.1017 33.3866 51.8441 33.0132 51.5748C32.6398 51.3054 32.2752 51.0246 31.919 50.7328C31.5632 50.4406 31.2169 50.1377 30.8797 49.8242C30.5429 49.5103 30.2157 49.1864 29.8991 48.8523C29.5821 48.5182 29.2762 48.1745 28.9809 47.821C28.6857 47.4678 28.4014 47.1059 28.1287 46.7348C27.8563 46.3637 27.5953 45.9847 27.3461 45.5976C27.1789 45.3343 27.017 45.0676 26.8608 44.7975C26.7046 44.5274 26.5541 44.2543 26.4097 43.9777C26.2649 43.7015 26.1262 43.4218 25.9933 43.1395C25.8603 42.8572 25.7334 42.5726 25.6127 42.285C25.4915 41.9973 25.3768 41.707 25.2683 41.4148C25.1597 41.1222 25.0572 40.8277 24.9608 40.5309C24.8644 40.2341 24.7745 39.9355 24.6911 39.6349C24.6073 39.3343 24.5299 39.0322 24.4591 38.7285C24.3882 38.4245 24.3234 38.1193 24.2655 37.813C24.2072 37.5063 24.1558 37.1989 24.1105 36.8899C24.0655 36.5813 24.027 36.272 23.9946 35.9615C23.9626 35.651 23.9371 35.3401 23.9181 35.0288C23.899 34.7176 23.8868 34.4059 23.8807 34.0939C23.875 33.7819 23.8758 33.4699 23.883 33.1582C23.8903 32.8462 23.904 32.5345 23.9245 32.2233C23.9447 31.912 23.9718 31.6011 24.0053 31.291C24.0388 30.9809 24.0788 30.6716 24.1253 30.363C24.1718 30.0544 24.2248 29.7469 24.2842 29.441C24.3436 29.1347 24.4095 28.8295 24.4819 28.5263C24.5543 28.2226 24.6328 27.9209 24.7181 27.6207C24.8031 27.3205 24.8941 27.0221 24.9921 26.7257C25.0896 26.4297 25.1932 26.1356 25.3033 25.8434C25.413 25.5516 25.5292 25.262 25.6515 24.9748C25.7738 24.6879 25.9018 24.4037 26.0359 24.1217C26.17 23.8402 26.3102 23.5613 26.4562 23.2855C26.6021 23.01 26.7537 22.7373 26.911 22.4679C27.0684 22.1986 27.2315 21.9326 27.3998 21.6701C27.5686 21.4076 27.7427 21.1486 27.9222 20.8937C28.1016 20.6384 28.2864 20.387 28.4765 20.1397C28.6666 19.8921 28.8617 19.649 29.0621 19.4098C29.2625 19.1705 29.4674 18.9358 29.6777 18.7054C29.888 18.4749 30.1029 18.2486 30.3227 18.0272C30.6424 17.7076 30.9719 17.3978 31.3106 17.0984C31.6493 16.7989 31.9967 16.5101 32.3533 16.232C32.7099 15.9539 33.0745 15.6868 33.4475 15.4308C33.8205 15.1752 34.2007 14.931 34.5886 14.6986C34.9764 14.4662 35.3711 14.246 35.7726 14.0376C36.1738 13.8296 36.5811 13.6337 36.9948 13.4505C37.4082 13.2672 37.8265 13.0969 38.2505 12.9396C38.6746 12.7823 39.1028 12.6379 39.5356 12.5064C39.968 12.3754 40.4046 12.2576 40.8442 12.1529C41.2843 12.0485 41.727 11.9578 42.1727 11.8805C42.6181 11.8031 43.0657 11.7399 43.5149 11.69C43.9645 11.6401 44.4152 11.6043 44.8666 11.5822C45.3181 11.5601 45.7703 11.5517 46.2222 11.5574C46.6744 11.5631 47.1258 11.5825 47.5769 11.6157C48.028 11.6492 48.4772 11.6961 48.9256 11.757C49.3736 11.818 49.8194 11.8927 50.2628 11.9811C50.7063 12.0691 51.1463 12.1712 51.5837 12.2862C52.0211 12.4017 52.4542 12.53 52.8836 12.6722C53.313 12.8139 53.7374 12.9689 54.1572 13.1369C54.5771 13.305 54.9916 13.4855 55.4 13.6791C55.8088 13.8722 56.2111 14.078 56.6073 14.2963C57.0035 14.5142 57.3925 14.7443 57.7746 14.9862C58.1564 15.2281 58.5305 15.4819 58.897 15.7467C59.2635 16.0118 59.6216 16.2877 59.971 16.5745C60.3203 16.8614 60.6609 17.159 60.992 17.4668C61.3231 17.7746 61.6446 18.092 61.9563 18.4196C62.2683 18.7473 62.5696 19.084 62.8607 19.43C63.1518 19.7763 63.4318 20.1306 63.7011 20.4941C63.9705 20.8571 64.2284 21.2286 64.4749 21.6077C64.7214 21.9867 64.9561 22.3727 65.1786 22.7662C65.4015 23.1598 65.6121 23.5598 65.8102 23.9663C66.0084 24.3724 66.1943 24.7846 66.3669 25.2026C66.5398 25.6201 66.6998 26.043 66.8469 26.4705C66.9939 26.8983 67.1277 27.33 67.2481 27.7658C67.3688 28.2017 67.4759 28.6405 67.5692 29.0829C67.663 29.5256 67.7426 29.9702 67.8089 30.4174C67.8752 30.8647 67.9277 31.3139 67.9662 31.7642C68.0051 32.2149 68.0298 32.666 68.0409 33.1182C68.0519 33.57 68.0489 34.0223 68.0321 34.4741C68.0154 34.926 67.9849 35.3767 67.9403 35.8266C67.8961 36.2765 67.8378 36.7249 67.7658 37.1715C67.6938 37.6176 67.6081 38.0614 67.509 38.5026C67.41 38.9438 67.2972 39.3815 67.1711 39.8158C67.045 40.2502 66.9059 40.6799 66.7536 41.1058C66.6008 41.5314 66.4354 41.952 66.2571 42.3676C66.0792 42.7833 65.8883 43.1928 65.6849 43.5967C65.4815 44.0005 65.2658 44.3979 65.038 44.7884C64.8102 45.1789 64.5705 45.5622 64.3191 45.9382C64.068 46.3138 63.8051 46.6819 63.5312 47.0415C63.2577 47.4011 62.9727 47.7524 62.6774 48.0945C62.3818 48.437 62.0763 48.77 61.7604 49.0935C61.4446 49.4169 61.1189 49.7305 60.784 50.0341C60.4487 50.3377 60.1047 50.6307 59.7515 50.913C59.3984 51.1953 59.0368 51.4666 58.6673 51.7272C58.2973 51.9874 57.9198 52.2358 57.535 52.4731C57.1498 52.7101 56.7578 52.9353 56.3589 53.1482C55.96 53.3612 55.555 53.5616 55.1439 53.7498C54.7329 53.938 54.3161 54.1133 53.8943 54.2759C53.4726 54.4386 53.0459 54.588 52.6146 54.7243C52.1837 54.8607 51.7487 54.9838 51.3101 55.0935C50.8716 55.2032 50.4297 55.2996 49.9851 55.3823C49.5409 55.4646 49.094 55.5335 48.6452 55.5888C48.1964 55.644 47.7465 55.6856 47.295 55.713C46.8435 55.7404 46.3921 55.7541 45.9399 55.7541ZM45.9444 13.0691C45.2701 13.0672 44.5977 13.0985 43.9264 13.1632C43.2555 13.2276 42.5891 13.3252 41.9278 13.4558C41.2664 13.5865 40.613 13.7492 39.9676 13.9442C39.3222 14.1393 38.6883 14.366 38.065 14.6239C37.4421 14.8818 36.8337 15.1699 36.2393 15.488C35.6446 15.8061 35.0674 16.1528 34.5074 16.5277C33.9474 16.9029 33.4071 17.3049 32.8867 17.7339C32.3663 18.1625 31.8684 18.6158 31.3929 19.0936C31.122 19.3644 30.8591 19.6429 30.6039 19.9287C30.3486 20.2144 30.1018 20.507 29.8629 20.8065C29.624 21.1059 29.3935 21.4118 29.1718 21.7242C28.9501 22.0366 28.7371 22.3548 28.5329 22.679C28.3291 23.0032 28.134 23.3327 27.9485 23.668C27.7629 24.0029 27.5865 24.3431 27.42 24.6879C27.2532 25.0327 27.0962 25.382 26.9491 25.736C26.8017 26.0895 26.6646 26.4469 26.5373 26.8084C26.4101 27.1696 26.2927 27.5342 26.186 27.9022C26.079 28.2699 25.9822 28.6405 25.8961 29.0135C25.8096 29.3869 25.7338 29.7622 25.6687 30.1397C25.6035 30.5173 25.5487 30.8963 25.5045 31.2769C25.4603 31.6571 25.4268 32.0389 25.4039 32.421C25.3807 32.8035 25.3685 33.1864 25.3669 33.5693C25.3654 33.9526 25.3746 34.3354 25.3944 34.7179C25.4142 35.1004 25.4447 35.4822 25.4858 35.8632C25.5269 36.2438 25.5784 36.6232 25.6409 37.0012C25.703 37.3795 25.7757 37.7551 25.8588 38.1292C25.9422 38.503 26.0356 38.8744 26.1396 39.2432C26.2436 39.612 26.3579 39.9774 26.4821 40.3397C26.6063 40.702 26.7408 41.0609 26.8851 41.4156C27.0295 41.7703 27.1835 42.1211 27.3473 42.4671C27.5111 42.8134 27.6848 43.1547 27.8677 43.4915C28.0506 43.8279 28.2426 44.1594 28.4441 44.4851C28.6457 44.8109 28.856 45.1309 29.075 45.4452C29.2945 45.7591 29.5223 46.067 29.7589 46.3687C29.9951 46.67 30.2397 46.9645 30.4926 47.2522C30.7456 47.5402 31.0062 47.8206 31.2748 48.0938C31.5434 48.3669 31.8192 48.6325 32.1023 48.8904C32.3857 49.1483 32.676 49.3979 32.9732 49.6398C33.2707 49.8813 33.5744 50.1145 33.8845 50.3393C34.195 50.564 34.5112 50.7797 34.8335 50.9869C35.1684 51.2014 35.5098 51.4064 35.8565 51.6015C36.2035 51.7965 36.5559 51.9813 36.9137 52.1558C37.2714 52.3303 37.6337 52.4945 38.001 52.648C38.3683 52.8015 38.7397 52.9444 39.1154 53.0762C39.4906 53.2084 39.8697 53.3292 40.2522 53.4393C40.6347 53.5494 41.0203 53.6481 41.4085 53.7357C41.7967 53.8233 42.1872 53.8999 42.58 53.9647C42.9728 54.0298 43.3671 54.0835 43.7626 54.1254C44.1584 54.1677 44.5554 54.1982 44.9527 54.2173C45.3505 54.2367 45.7482 54.2439 46.1463 54.2401C46.5441 54.2363 46.9418 54.2207 47.3388 54.1936C47.7362 54.1666 48.132 54.1281 48.5271 54.0782C48.9218 54.0283 49.315 53.967 49.7062 53.8942C50.0975 53.821 50.4865 53.7372 50.8728 53.642C51.2595 53.5464 51.6427 53.4401 52.023 53.3223C52.4032 53.205 52.78 53.0762 53.1526 52.9368C53.5255 52.7973 53.894 52.6472 54.2582 52.4865C54.622 52.3257 54.9813 52.1546 55.3356 51.9729C55.6895 51.7912 56.0381 51.5995 56.3814 51.3976C56.7243 51.1957 57.0614 50.9843 57.3921 50.7629C57.7228 50.5412 58.047 50.3107 58.3644 50.0703C58.6817 49.8303 58.9918 49.5807 59.2947 49.3228C59.5976 49.0645 59.8929 48.7978 60.1805 48.5224C60.4678 48.2473 60.747 47.9639 61.0183 47.672C61.2892 47.3806 61.5517 47.0815 61.8054 46.7748C62.0587 46.4681 62.3033 46.1542 62.5388 45.8334C62.7742 45.5122 63.0005 45.185 63.2169 44.8509C63.4333 44.5167 63.6398 44.1769 63.8368 43.831C64.0334 43.4847 64.22 43.1334 64.3964 42.7764C64.5728 42.4198 64.7385 42.0583 64.894 41.6918C65.0494 41.3253 65.1938 40.9546 65.3279 40.5797C65.4616 40.2048 65.5847 39.8265 65.6967 39.4444C65.8083 39.0626 65.9093 38.6775 65.9988 38.2896C66.0884 37.9018 66.1668 37.5117 66.2339 37.1196C66.3006 36.7272 66.3562 36.3333 66.4004 35.9375C66.4446 35.542 66.477 35.1454 66.4983 34.748C66.5192 34.3503 66.5292 33.9526 66.5269 33.5548C66.525 33.1567 66.5116 32.7589 66.4865 32.3616C66.4617 31.9646 66.4251 31.5684 66.3771 31.1733C66.3291 30.7778 66.2697 30.3847 66.1988 29.993C66.128 29.6014 66.0457 29.212 65.9524 28.8249C65.859 28.4382 65.7546 28.0542 65.6388 27.6732C65.5234 27.2926 65.3965 26.9151 65.259 26.5417C65.1214 26.1684 64.9732 25.7992 64.8144 25.4342C64.6551 25.0692 64.486 24.7092 64.3061 24.3541C64.1263 23.9991 63.9362 23.6493 63.7362 23.3053C63.5358 22.9613 63.3259 22.6233 63.106 22.2915C62.8866 21.9597 62.6573 21.6343 62.4188 21.3158C62.1803 20.9969 61.9326 20.6857 61.6758 20.3813C61.4191 20.0773 61.1539 19.7805 60.88 19.4917C60.6061 19.2029 60.3241 18.9221 60.0338 18.6497C59.7439 18.3773 59.446 18.1133 59.1404 17.8584C58.8353 17.6032 58.5225 17.3571 58.2028 17.1197C57.8832 16.8827 57.5567 16.6553 57.2237 16.437C56.8907 16.2187 56.5521 16.0107 56.2069 15.8122C55.8617 15.6137 55.5112 15.4251 55.1554 15.2472C54.7995 15.0689 54.4388 14.9013 54.073 14.7439C53.7073 14.587 53.3373 14.4403 52.9632 14.3047C52.5891 14.1686 52.2112 14.0441 51.8298 13.9301C51.4484 13.8162 51.064 13.7134 50.6766 13.6219C50.2895 13.5305 49.8998 13.4501 49.5077 13.3812C49.1157 13.3122 48.7218 13.2547 48.3267 13.2086C47.9312 13.1625 47.5346 13.1278 47.1373 13.1049C46.7399 13.0817 46.3426 13.0699 45.9444 13.0699V13.0691Z" fill="#AF7B20"/>
<path d="M10.6534 71.9935C10.5551 71.9935 10.4568 71.9885 10.3593 71.9786C10.2614 71.9687 10.1642 71.9542 10.0679 71.9348C9.97147 71.9154 9.8766 71.8914 9.7825 71.8628C9.6884 71.8342 9.5962 71.8007 9.50553 71.763C9.41447 71.7252 9.32609 71.6833 9.23922 71.6369C9.15274 71.5904 9.06854 71.5397 8.98701 71.4848C8.90548 71.4304 8.82662 71.3717 8.75081 71.3092C8.67499 71.2467 8.60222 71.1808 8.53288 71.1111C8.46355 71.0414 8.39764 70.9686 8.33554 70.8928C8.27306 70.8166 8.21477 70.7377 8.16029 70.6558C8.10581 70.5739 8.05552 70.4897 8.00942 70.4032C7.96294 70.3164 7.92103 70.2276 7.8837 70.1369C7.84598 70.0459 7.81321 69.9537 7.78464 69.8596C7.75645 69.7655 7.73245 69.6702 7.7134 69.5738C7.69435 69.4775 7.67987 69.3803 7.67035 69.2824C7.66082 69.1845 7.65625 69.0866 7.65625 68.9883C7.65625 68.89 7.6612 68.7921 7.67111 68.6942C7.68063 68.5963 7.69511 68.4991 7.71416 68.4027C7.73359 68.3067 7.75759 68.2115 7.78616 68.1174C7.81474 68.0233 7.84788 67.9307 7.88522 67.84C7.92294 67.7493 7.96484 67.6606 8.01132 67.5741C8.0578 67.4872 8.10809 67.403 8.16295 67.3215C8.21743 67.2396 8.2761 67.1607 8.3382 67.0849C8.40068 67.0091 8.46659 66.9363 8.53593 66.8666C8.60565 66.7973 8.67842 66.7314 8.75423 66.6689C8.83043 66.6068 8.90929 66.5481 8.99082 66.4936C9.07273 66.4391 9.15655 66.3885 9.24341 66.3424C9.32989 66.2959 9.41866 66.254 9.50972 66.2163C9.60039 66.1786 9.69297 66.1454 9.78669 66.1168C9.88079 66.0886 9.97604 66.0646 10.0724 66.0452C10.1688 66.0262 10.266 66.0117 10.3639 66.0022C10.4614 65.9923 10.5597 65.9877 10.658 65.9873C10.7559 65.9873 10.8542 65.9923 10.9521 66.0018C11.0496 66.0113 11.1468 66.0258 11.2432 66.0448C11.3396 66.0639 11.4348 66.0875 11.5289 66.1161C11.623 66.1446 11.7156 66.1774 11.8063 66.2151C11.8969 66.2528 11.9857 66.2944 12.0726 66.3409C12.1594 66.387 12.2436 66.4376 12.3252 66.4921C12.4071 66.5466 12.4859 66.6049 12.5621 66.667C12.6379 66.7295 12.7107 66.7954 12.7804 66.8647C12.8501 66.934 12.9161 67.0068 12.9785 67.0826C13.041 67.1584 13.0993 67.2373 13.1542 67.3188C13.2087 67.4004 13.2593 67.4846 13.3058 67.5714C13.3523 67.6579 13.3946 67.7467 13.4323 67.8373C13.47 67.928 13.5031 68.0202 13.5317 68.1143C13.5603 68.2084 13.5843 68.3037 13.6037 68.4001C13.6232 68.4964 13.6376 68.5932 13.6475 68.6911C13.6571 68.789 13.6624 68.8869 13.6624 68.9852C13.6624 69.0839 13.6578 69.1822 13.6479 69.2801C13.6384 69.3784 13.6243 69.4756 13.6049 69.5723C13.5858 69.6691 13.5618 69.7647 13.5332 69.8588C13.5047 69.9533 13.4715 70.0459 13.4338 70.1369C13.3961 70.228 13.3542 70.3171 13.3077 70.404C13.2612 70.4909 13.2106 70.5754 13.1561 70.6574C13.1012 70.7393 13.0425 70.8185 12.9801 70.8947C12.9176 70.9709 12.8513 71.0437 12.7816 71.1134C12.7119 71.1831 12.6391 71.249 12.5629 71.3119C12.4867 71.3744 12.4075 71.4327 12.3255 71.4875C12.2436 71.5424 12.1591 71.593 12.0722 71.6391C11.9853 71.6856 11.8962 71.7279 11.8051 71.7652C11.7141 71.803 11.6215 71.8361 11.527 71.8647C11.4325 71.8933 11.3373 71.9173 11.2405 71.9363C11.1437 71.9554 11.0462 71.9698 10.9483 71.9794C10.85 71.9889 10.7517 71.9938 10.6534 71.9935ZM10.6534 67.5017C10.5555 67.5021 10.4587 67.5124 10.3627 67.5318C10.2671 67.5512 10.1741 67.5798 10.0839 67.6175C9.99356 67.6552 9.90784 67.7017 9.82669 67.7562C9.74554 67.8111 9.67087 67.8728 9.60191 67.9425C9.53296 68.0118 9.47162 68.0873 9.41752 68.1688C9.36342 68.2503 9.31808 68.3364 9.28113 68.4267C9.24379 68.5174 9.21598 68.6107 9.19731 68.7067C9.17865 68.8027 9.1695 68.8995 9.16988 68.9974C9.17026 69.095 9.18017 69.1921 9.1996 69.2877C9.21903 69.3837 9.24798 69.4767 9.2857 69.567C9.32342 69.6569 9.36952 69.7426 9.42438 69.8238C9.47886 69.9049 9.54096 69.98 9.6103 70.0486C9.68002 70.1175 9.75545 70.1792 9.83698 70.2329C9.91851 70.287 10.0046 70.3328 10.0949 70.3697C10.1856 70.4067 10.2785 70.4345 10.3745 70.4532C10.4705 70.4718 10.5677 70.481 10.6652 70.4806C10.7631 70.4802 10.8599 70.4703 10.9559 70.4509C11.0515 70.4314 11.1449 70.4029 11.2348 70.3651C11.3251 70.327 11.4108 70.2809 11.492 70.2265C11.5731 70.1716 11.6478 70.1095 11.7167 70.0402C11.7857 69.9708 11.847 69.8954 11.9011 69.8139C11.9552 69.7323 12.0006 69.6462 12.0375 69.5556C12.0749 69.4653 12.1027 69.3719 12.1213 69.2759C12.14 69.1799 12.1491 69.0831 12.1488 68.9852C12.1488 68.8873 12.1389 68.7906 12.1194 68.6945C12.1004 68.5985 12.0718 68.5056 12.0341 68.4153C11.9964 68.325 11.9503 68.2393 11.8954 68.1581C11.8409 68.077 11.7788 68.0019 11.7091 67.933C11.6398 67.864 11.5643 67.8027 11.4824 67.7486C11.4009 67.6949 11.3148 67.6491 11.2241 67.6126C11.1335 67.5756 11.0401 67.5478 10.9441 67.5291C10.8481 67.5108 10.751 67.5021 10.6534 67.5025V67.5017Z" fill="#AF7B20"/>
<path d="M45.9508 43.2381C37.242 43.2381 30.3543 34.4931 30.0651 34.1205C30.0137 34.0542 29.9741 33.9814 29.947 33.9018C29.9196 33.8226 29.9062 33.7407 29.9062 33.6568C29.9062 33.5726 29.9196 33.4911 29.947 33.4115C29.9741 33.3319 30.0137 33.2591 30.0651 33.1928C30.3543 32.8202 37.242 24.0752 45.9508 24.0752C54.6593 24.0752 61.5558 32.8202 61.8438 33.1928C61.8956 33.2591 61.9349 33.3319 61.9619 33.4115C61.9893 33.4911 62.0027 33.5726 62.0027 33.6568C62.0027 33.7407 61.9893 33.8226 61.9619 33.9018C61.9349 33.9814 61.8956 34.0542 61.8438 34.1205C61.5558 34.4931 54.6669 43.2381 45.9508 43.2381ZM31.6469 33.6568C33.18 35.4375 39.0818 41.7245 45.9508 41.7245C52.8195 41.7245 58.7289 35.4375 60.2624 33.6568C58.7289 31.8758 52.8264 25.5888 45.9508 25.5888C39.0749 25.5888 33.18 31.8758 31.6469 33.6568Z" fill="#AF7B20"/>
<path d="M45.9545 39.2494C45.7712 39.2494 45.5884 39.2403 45.4063 39.2224C45.2238 39.2045 45.0428 39.1778 44.8634 39.142C44.6835 39.1062 44.506 39.0616 44.3308 39.0086C44.1555 38.9553 43.9833 38.8936 43.8141 38.8235C43.6446 38.7534 43.4793 38.6753 43.3177 38.5888C43.1562 38.5027 42.9992 38.4086 42.8472 38.3069C42.6948 38.2052 42.5478 38.0962 42.406 37.98C42.2647 37.8638 42.1291 37.7407 41.9995 37.6112C41.87 37.4817 41.7473 37.3461 41.6311 37.2047C41.5146 37.063 41.4056 36.9159 41.3039 36.7635C41.2022 36.6115 41.108 36.4546 41.0219 36.293C40.9355 36.1315 40.8574 35.9661 40.7873 35.7966C40.7172 35.6275 40.6554 35.4552 40.6021 35.28C40.5492 35.1047 40.5046 34.9272 40.4688 34.7478C40.4333 34.5679 40.4063 34.387 40.3884 34.2045C40.3705 34.0224 40.3613 33.8395 40.3613 33.6566C40.3613 33.4734 40.3705 33.2905 40.3884 33.1084C40.4063 32.9259 40.4333 32.745 40.4688 32.5655C40.5046 32.3857 40.5492 32.2082 40.6021 32.0329C40.6554 31.8577 40.7172 31.6855 40.7873 31.5163C40.8574 31.3468 40.9355 31.1814 41.0219 31.0199C41.108 30.8583 41.2022 30.7014 41.3039 30.5494C41.4056 30.397 41.5146 30.2499 41.6311 30.1082C41.7473 29.9669 41.87 29.8312 41.9995 29.7017C42.1291 29.5722 42.2647 29.4491 42.406 29.3329C42.5478 29.2167 42.6948 29.1077 42.8472 29.006C42.9992 28.9043 43.1562 28.8102 43.3177 28.7241C43.4793 28.6376 43.6446 28.5595 43.8141 28.4894C43.9833 28.4193 44.1555 28.3576 44.3308 28.3043C44.506 28.2513 44.6835 28.2067 44.8634 28.1709C45.0428 28.1351 45.2238 28.1084 45.4063 28.0905C45.5884 28.0726 45.7712 28.0635 45.9545 28.0635C46.1374 28.0635 46.3202 28.0726 46.5027 28.0905C46.6848 28.1084 46.8658 28.1351 47.0456 28.1709C47.2251 28.2067 47.4026 28.2513 47.5779 28.3043C47.7531 28.3576 47.9253 28.4193 48.0945 28.4894C48.264 28.5595 48.4293 28.6376 48.5909 28.7241C48.7524 28.8102 48.9094 28.9043 49.0618 29.006C49.2138 29.1077 49.3608 29.2167 49.5026 29.3329C49.6439 29.4491 49.7795 29.5722 49.9091 29.7017C50.0386 29.8312 50.1617 29.9669 50.2779 30.1082C50.3941 30.2499 50.503 30.397 50.6047 30.5494C50.7065 30.7014 50.8006 30.8583 50.8867 31.0199C50.9731 31.1814 51.0512 31.3468 51.1213 31.5163C51.1914 31.6855 51.2532 31.8577 51.3065 32.0329C51.3595 32.2082 51.404 32.3857 51.4398 32.5655C51.4757 32.745 51.5023 32.9259 51.5202 33.1084C51.5381 33.2905 51.5473 33.4734 51.5473 33.6566C51.5469 33.8395 51.5378 34.0224 51.5195 34.2045C51.5016 34.3866 51.4745 34.5676 51.4387 34.747C51.4025 34.9264 51.3579 35.104 51.3046 35.2792C51.2513 35.4545 51.1895 35.6263 51.1194 35.7955C51.0493 35.9646 50.9709 36.13 50.8848 36.2915C50.7983 36.453 50.7042 36.6096 50.6025 36.762C50.5007 36.914 50.3914 37.0611 50.2756 37.2024C50.1594 37.3441 50.0363 37.4794 49.9068 37.6089C49.7772 37.7385 49.642 37.8615 49.5003 37.9777C49.3589 38.0935 49.2119 38.2029 49.0599 38.3046C48.9075 38.4063 48.7509 38.5004 48.5894 38.5869C48.4278 38.673 48.2625 38.7515 48.0933 38.8216C47.9242 38.8917 47.7523 38.9534 47.5771 39.0067C47.4018 39.0601 47.2243 39.1047 47.0449 39.1409C46.8654 39.1767 46.6845 39.2037 46.5023 39.2216C46.3202 39.2399 46.1374 39.249 45.9545 39.2494ZM45.9545 29.5771C45.8208 29.5771 45.6874 29.5836 45.5545 29.5969C45.4215 29.6099 45.2897 29.6297 45.1586 29.6556C45.0276 29.6815 44.898 29.7139 44.77 29.7527C44.6424 29.7916 44.5167 29.8366 44.3932 29.8876C44.2698 29.9387 44.149 29.9958 44.0313 30.059C43.9136 30.1219 43.7989 30.1905 43.688 30.2648C43.5768 30.3391 43.4697 30.4183 43.3665 30.5033C43.2633 30.5878 43.1642 30.6774 43.0697 30.7719C42.9752 30.8663 42.8857 30.9654 42.8011 31.0686C42.7162 31.1719 42.6369 31.2789 42.5626 31.3902C42.4883 31.5011 42.4198 31.6157 42.3569 31.7335C42.2937 31.8512 42.2365 31.972 42.1855 32.0954C42.1344 32.2188 42.0895 32.3445 42.0506 32.4722C42.0121 32.6002 41.9793 32.7297 41.9534 32.8608C41.9275 32.9918 41.9077 33.1237 41.8948 33.2566C41.8814 33.3896 41.875 33.5229 41.875 33.6566C41.875 33.79 41.8814 33.9233 41.8948 34.0563C41.9077 34.1893 41.9275 34.3211 41.9534 34.4521C41.9793 34.5832 42.0121 34.7127 42.0506 34.8407C42.0895 34.9684 42.1344 35.0941 42.1855 35.2175C42.2365 35.341 42.2937 35.4617 42.3569 35.5794C42.4198 35.6972 42.4883 35.8118 42.5626 35.9227C42.6369 36.034 42.7162 36.141 42.8011 36.2443C42.8857 36.3475 42.9752 36.4466 43.0697 36.541C43.1642 36.6355 43.2633 36.7251 43.3665 36.8096C43.4697 36.8946 43.5768 36.9738 43.688 37.0481C43.7989 37.1224 43.9136 37.191 44.0313 37.2542C44.149 37.3171 44.2698 37.3742 44.3932 37.4253C44.5167 37.4763 44.6424 37.5213 44.77 37.5602C44.898 37.599 45.0276 37.6314 45.1586 37.6573C45.2897 37.6836 45.4215 37.703 45.5545 37.716C45.6874 37.7293 45.8208 37.7358 45.9545 37.7358C46.0878 37.7358 46.2212 37.7293 46.3541 37.716C46.4871 37.703 46.6193 37.6836 46.75 37.6573C46.881 37.6314 47.0106 37.599 47.1386 37.5602C47.2662 37.5213 47.3919 37.4763 47.5154 37.4253C47.6388 37.3742 47.7596 37.3171 47.8773 37.2542C47.995 37.191 48.1097 37.1224 48.2206 37.0481C48.3318 36.9738 48.4389 36.8946 48.5421 36.8096C48.6454 36.7251 48.7444 36.6355 48.8389 36.541C48.9334 36.4466 49.0229 36.3475 49.1075 36.2443C49.1924 36.141 49.2721 36.034 49.346 35.9227C49.4203 35.8118 49.4888 35.6972 49.5521 35.5794C49.615 35.4617 49.6721 35.341 49.7231 35.2175C49.7742 35.0941 49.8192 34.9684 49.858 34.8407C49.8969 34.7127 49.9293 34.5832 49.9552 34.4521C49.9815 34.3211 50.0009 34.1893 50.0138 34.0563C50.0272 33.9233 50.0336 33.79 50.0336 33.6566C50.0333 33.5229 50.0264 33.3896 50.0135 33.257C50.0001 33.124 49.9803 32.9922 49.954 32.8612C49.9277 32.7301 49.8954 32.6009 49.8561 32.4733C49.8173 32.3453 49.7723 32.22 49.7212 32.0965C49.6698 31.9731 49.6127 31.8527 49.5498 31.735C49.4866 31.6173 49.418 31.503 49.3437 31.3921C49.2694 31.2809 49.1902 31.1738 49.1052 31.0706C49.0206 30.9673 48.9311 30.8686 48.8366 30.7741C48.7421 30.6797 48.6435 30.5901 48.5402 30.5056C48.437 30.4206 48.3299 30.3414 48.219 30.2671C48.1078 30.1928 47.9935 30.1242 47.8758 30.061C47.7581 29.9981 47.6377 29.9409 47.5142 29.8899C47.3908 29.8385 47.2654 29.7935 47.1378 29.7546C47.0098 29.7158 46.8807 29.683 46.7496 29.6567C46.6185 29.6304 46.4867 29.6106 46.3538 29.5977C46.2212 29.5843 46.0878 29.5775 45.9545 29.5771Z" fill="#AF7B20"/>
</svg>
