<svg width="70" height="70" viewBox="0 0 70 70" fill="none" xmlns="http://www.w3.org/2000/svg">
<path d="M4.90656 40.0322C4.97847 40.4677 4.6841 40.8792 4.24829 40.9511C4.2044 40.9592 4.16052 40.9619 4.11663 40.9619C3.73281 40.9619 3.39455 40.6847 3.3294 40.2931C2.37676 34.5638 2.99621 28.672 5.11957 23.2573C7.30268 17.6893 11.0046 12.8485 15.8255 9.25832C22.1183 4.57207 29.8869 2.35689 37.6954 3.01787C45.2032 3.65319 52.2231 6.88887 57.5446 12.149L60.2993 10.0975C60.5457 9.9139 60.8762 9.88858 61.1479 10.031C61.4197 10.1735 61.5861 10.4601 61.5756 10.7663L61.2104 21.1792C61.2026 21.4216 61.0841 21.6467 60.8893 21.7919C60.7496 21.8959 60.5818 21.9505 60.4127 21.9505C60.3448 21.9505 60.2766 21.9424 60.2101 21.9252L50.1291 19.2918C49.832 19.2145 49.6055 18.9735 49.5468 18.671C49.4884 18.3699 49.6082 18.061 49.8546 17.877L51.9378 16.3265C47.4075 12.2064 41.5637 9.89263 35.379 9.79541C34.9381 9.78865 34.585 9.42508 34.5931 8.98421C34.5999 8.54299 34.9648 8.19023 35.4043 8.19799C42.3165 8.30736 48.8277 11.0168 53.7401 15.8282C54.0561 16.1375 54.0612 16.6435 53.7523 16.9578C53.7229 16.9885 53.6895 17.0125 53.6564 17.0378L53.6578 17.0405L52.1444 18.1673L59.6494 20.1283L59.9212 12.3755L57.9443 13.8473L57.9416 13.845C57.6246 14.082 57.1743 14.0539 56.8921 13.7623C46.282 2.80047 29.0383 1.41539 16.7819 10.5425C7.57444 17.3973 3.02423 28.6974 4.90656 40.0322ZM66.668 29.7192C66.5961 29.2834 66.1846 28.989 65.7488 29.0609C65.3133 29.1332 65.0189 29.5447 65.0908 29.9802C66.9745 41.3136 62.424 52.6134 53.2169 59.4696C40.9605 68.5956 23.7167 67.2116 13.1066 56.2501C12.8244 55.9584 12.3741 55.9317 12.0571 56.1674L12.0544 56.1647L10.0789 57.6382L10.3507 49.8854L17.8557 51.8464L16.3423 52.9732L16.3437 52.9759C16.3103 52.9999 16.2782 53.0252 16.2478 53.0556C15.9386 53.3716 15.944 53.8776 16.2596 54.1855C21.1724 58.9969 27.6836 61.7063 34.5945 61.8154C34.5985 61.8154 34.6022 61.8154 34.6076 61.8154C35.0434 61.8154 35.4002 61.4663 35.407 61.0282C35.4137 60.5873 35.062 60.2237 34.6211 60.217C28.436 60.1197 22.5922 57.806 18.0619 53.6858L20.1455 52.134C20.3919 51.95 20.5117 51.6425 20.453 51.34C20.3946 51.0389 20.1681 50.7965 19.871 50.7192L9.7886 48.0871C9.55399 48.0257 9.3035 48.074 9.10906 48.2191C8.91462 48.3643 8.79613 48.5894 8.78802 48.8318L8.4231 59.2447C8.4123 59.5523 8.57906 59.8375 8.85081 59.98C8.96795 60.0411 9.09454 60.0718 9.22249 60.0718C9.39161 60.0718 9.55939 60.0185 9.69915 59.9131L12.4541 57.862C17.7757 63.1221 24.7956 66.3578 32.3033 66.9931C33.2077 67.0704 34.1121 67.1079 35.0141 67.1079C41.8929 67.1079 48.609 64.8951 54.1733 60.7523C58.9939 57.1626 62.6957 52.3217 64.8792 46.7537C67.0012 41.339 67.6206 35.4482 66.668 29.7192ZM17.2123 14.9424C13.5182 18.2099 10.8034 22.4326 9.36089 27.155C9.2316 27.5773 9.47027 28.0236 9.89224 28.1525C9.96954 28.1765 10.0482 28.1873 10.1255 28.1873C10.4678 28.1873 10.7848 27.9662 10.8901 27.6212C12.2462 23.1814 14.7982 19.2118 18.2712 16.1398C18.6014 15.8468 18.6321 15.3421 18.3404 15.0116C18.0488 14.6815 17.5424 14.6494 17.2123 14.9424ZM48.9327 56.0195C47.9483 56.6737 46.912 57.2625 45.8516 57.7685C45.4533 57.9592 45.2855 58.4359 45.4749 58.8342C45.612 59.1208 45.8982 59.2886 46.1966 59.2886C46.3128 59.2886 46.4299 59.2633 46.5403 59.21C47.6688 58.6705 48.7703 58.0443 49.8161 57.3503C50.1838 57.1065 50.2837 56.6096 50.0396 56.242C49.7972 55.8757 49.3003 55.7758 48.9327 56.0195ZM52.2565 55.2711C52.4442 55.2711 52.6332 55.2043 52.7851 55.0699C56.4789 51.8022 59.1937 47.5798 60.6365 42.8574C60.7658 42.4351 60.5271 41.9888 60.1048 41.8595C59.6825 41.7305 59.2366 41.9689 59.1073 42.3912C57.7512 46.831 55.1988 50.8006 51.7262 53.8722C51.3957 54.1655 51.3653 54.6702 51.657 55.0007C51.8153 55.179 52.0364 55.2711 52.2565 55.2711ZM23.4568 10.801C22.3286 11.3405 21.2271 11.9667 20.1813 12.6608C19.8136 12.9045 19.7137 13.4011 19.9574 13.769C20.1121 14.0006 20.3652 14.1258 20.6235 14.1258C20.7754 14.1258 20.9287 14.0833 21.0644 13.9925C22.0477 13.3386 23.0841 12.7512 24.1454 12.2435C24.5438 12.0531 24.7119 11.5761 24.5211 11.1781C24.3321 10.7798 23.8551 10.6107 23.4568 10.801ZM27.296 10.953C27.3747 10.953 27.4544 10.9408 27.533 10.9168C28.7493 10.5401 30.0054 10.2535 31.2656 10.0658C31.7024 10.0003 32.0035 9.59421 31.9381 9.15738C31.8729 8.72022 31.4668 8.41944 31.0296 8.48459C29.6884 8.68444 28.3523 8.98792 27.0587 9.38896C26.6364 9.51961 26.4008 9.96723 26.5314 10.3895C26.6391 10.7332 26.9551 10.953 27.296 10.953ZM42.4657 59.0955C41.2494 59.4723 39.9933 59.7589 38.7318 59.9466C38.295 60.0117 37.9939 60.4182 38.059 60.855C38.1177 61.252 38.4587 61.5372 38.8489 61.5372C38.8878 61.5372 38.9276 61.5345 38.9674 61.5278C40.309 61.3279 41.6451 61.0241 42.9383 60.6234C43.3607 60.4928 43.5966 60.0451 43.466 59.6228C43.3353 59.2005 42.8867 58.9649 42.4657 59.0955ZM15.6655 33.6847H21.0725C21.5133 33.6847 21.8718 34.0429 21.8718 34.4841V41.4588C21.8718 41.8997 21.5133 42.2578 21.0725 42.2578H15.6655C15.2246 42.2578 14.8664 41.8997 14.8664 41.4588V34.4841C14.8664 34.0429 15.2233 33.6847 15.6655 33.6847ZM16.4649 40.6594H20.2731V35.2832H16.4649V40.6594ZM24.5505 30.4264H29.9575C30.3984 30.4264 30.7565 30.7849 30.7565 31.2258V41.4588C30.7565 41.8997 30.3984 42.2578 29.9575 42.2578H24.5505C24.1096 42.2578 23.7511 41.8997 23.7511 41.4588V31.2258C23.7511 30.7849 24.1083 30.4264 24.5505 30.4264ZM25.3499 40.6594H29.1581V32.0249H25.3499V40.6594ZM45.6228 51.2681C41.3865 51.2681 37.7832 48.5094 36.5126 44.6945H15.5723C15.1314 44.6945 14.7729 44.336 14.7729 43.8951C14.7729 43.4542 15.1314 43.0957 15.5723 43.0957H36.1277C36.0862 42.8202 36.0582 42.5404 36.041 42.2578H33.4369C32.996 42.2578 32.6375 41.8997 32.6375 41.4588V26.6192C32.6375 26.1784 32.996 25.8202 33.4369 25.8202H38.8435C39.2847 25.8202 39.6429 26.1784 39.6429 26.6192V34.1604C40.2198 33.6992 40.8484 33.3036 41.5225 32.9839V19.5433C41.5225 19.1024 41.8807 18.7442 42.3216 18.7442H47.7286C48.1694 18.7442 48.5279 19.1024 48.5279 19.5433V32.51C52.4081 33.7435 55.2268 37.3799 55.2268 41.6637C55.2255 46.9589 50.9177 51.2681 45.6228 51.2681ZM43.1196 32.3938C43.919 32.1781 44.7569 32.061 45.6228 32.061C46.065 32.061 46.5005 32.0941 46.9282 32.1515V20.3427H43.1196V32.3938ZM34.2346 40.6594H36.073C36.2634 38.8318 36.9707 37.156 38.0431 35.7774V27.4173H34.2346V40.6594ZM53.6271 41.6637C53.6271 37.2492 50.0359 33.6594 45.6228 33.6594C41.2083 33.6594 37.6181 37.2506 37.6181 41.6637C37.6181 46.0769 41.2096 49.6683 45.6228 49.6683C50.0373 49.6697 53.6271 46.0782 53.6271 41.6637ZM45.6228 38.3511C46.4751 38.3511 47.1678 38.9145 47.1678 39.6085C47.1678 40.0494 47.526 40.4076 47.9669 40.4076C48.4081 40.4076 48.7663 40.0494 48.7663 39.6085C48.7663 38.2842 47.7687 37.1682 46.4218 36.8472V35.455C46.4218 35.0141 46.0636 34.6559 45.6228 34.6559C45.1815 34.6559 44.8234 35.0141 44.8234 35.455V36.8472C43.4754 37.1695 42.4789 38.2856 42.4789 39.6085C42.4789 41.1523 43.8508 41.7572 44.954 42.242C45.0671 42.2913 45.1802 42.3419 45.2936 42.3925C45.4121 42.4459 45.5306 42.4979 45.6481 42.5498C46.7057 43.0147 47.1692 43.2662 47.1692 43.7206C47.1692 44.4146 46.4751 44.978 45.6238 44.978C44.7727 44.978 44.0787 44.4146 44.0787 43.7206C44.0787 43.2797 43.7205 42.9212 43.2796 42.9212C42.8384 42.9212 42.4803 43.2797 42.4803 43.7206C42.4803 45.0445 43.4781 46.1609 44.8247 46.4833V47.8755C44.8247 48.3163 45.1829 48.6745 45.6238 48.6745C46.065 48.6745 46.4232 48.3163 46.4232 47.8755V46.4833C47.7711 46.1609 48.7676 45.0445 48.7676 43.7206C48.7676 42.1768 47.3957 41.5719 46.2925 41.0871C46.1794 41.0378 46.0663 40.9872 45.9529 40.9366C45.8344 40.8832 45.7159 40.8312 45.5988 40.7793C44.5408 40.3144 44.0773 40.0626 44.0773 39.6085C44.0773 38.9145 44.77 38.3511 45.6228 38.3511Z" fill="#AF7B20"/>
</svg>
