<svg width="72" height="72" viewBox="0 0 72 72" fill="none" xmlns="http://www.w3.org/2000/svg">
<path d="M35.7566 35.019C35.7566 32.5638 34.1587 30.345 31.4847 29.0822C30.2854 28.5176 29.0333 28.3909 27.8198 28.2673C26.7333 28.1579 25.7069 28.052 24.8674 27.636C23.2517 26.835 22.2885 25.5016 22.2885 24.0732C22.2885 21.7377 24.7545 19.8367 27.7882 19.8367C29.8729 19.8367 31.7528 20.736 32.7017 22.1787C33.0757 22.7502 33.8413 22.9089 34.4125 22.535C34.984 22.1614 35.1427 21.3957 34.7691 20.8242C33.5694 18.9971 31.4354 17.7693 29.0226 17.452V15.0884C29.0226 14.4044 28.4688 13.8506 27.7844 13.8506C27.1 13.8506 26.5465 14.4044 26.5465 15.0884V17.452C22.7368 17.953 19.8125 20.7256 19.8125 24.0697C19.8125 26.4614 21.2903 28.62 23.7667 29.8513C25.0118 30.4683 26.3101 30.5989 27.5694 30.7259C28.6205 30.8318 29.6153 30.9339 30.4302 31.3152C32.2434 32.1686 33.284 33.5197 33.284 35.0155C33.284 37.3506 30.8181 39.252 27.7844 39.252C25.6858 39.252 23.7385 38.303 22.8212 36.8322C22.4615 36.2534 21.6962 36.077 21.1177 36.437C20.5389 36.8002 20.3628 37.562 20.7226 38.1409C21.9076 40.0384 24.0736 41.312 26.5465 41.6364V43.9999C26.5465 44.6843 27.1003 45.2381 27.7844 45.2381C28.4688 45.2381 29.0226 44.6843 29.0226 43.9999V41.6364C32.8288 41.1357 35.7566 38.3631 35.7566 35.019Z" fill="#AF7B20"/>
<path d="M27.7842 51.8027C15.5123 51.8027 5.5293 41.8201 5.5293 29.5478C5.5293 17.2756 15.5123 7.29297 27.7842 7.29297C40.0564 7.29297 50.039 17.2756 50.039 29.5478C50.039 41.8201 40.0564 51.8027 27.7842 51.8027ZM27.7842 9.76554C16.8772 9.76554 8.00221 18.6409 8.00221 29.5478C8.00221 40.4548 16.8772 49.3298 27.7842 49.3298C38.6911 49.3298 47.5665 40.4548 47.5665 29.5478C47.5665 18.6409 38.6911 9.76554 27.7842 9.76554Z" fill="#AF7B20"/>
<mask id="mask0_564_4286" style="mask-type:luminance" maskUnits="userSpaceOnUse" x="1" y="2" width="70" height="68">
<path d="M1.19531 2.96484H70.6665V69.0315H1.19531V2.96484Z" fill="white"/>
</mask>
<g mask="url(#mask0_564_4286)">
<path d="M70.4845 48.7624C70.1564 47.9933 69.405 47.4923 68.5654 47.4923H61.8422V9.34609C61.8422 7.73047 60.5265 6.41484 58.9109 6.41484H43.263C42.6737 6.41484 42.1272 6.602 41.6578 6.91588C37.6119 4.42526 32.871 2.96484 27.7842 2.96484C13.1276 2.96484 1.20117 14.8878 1.20117 29.5482C1.20117 44.2082 13.1276 56.1312 27.7842 56.1312C30.6838 56.1312 33.4706 55.6478 36.0845 54.7874L49.4043 68.1565C49.9581 68.7138 50.6953 69.0207 51.4821 69.0207C51.489 69.0207 51.4994 69.0207 51.5067 69.0207C52.3005 69.0134 53.0446 68.6961 53.5949 68.1246L70.0682 51.0305C70.6467 50.4204 70.8126 49.5312 70.4845 48.7624ZM3.67409 29.5482C3.67409 16.253 14.4894 5.43776 27.7842 5.43776C41.0793 5.43776 51.8946 16.253 51.8946 29.5482C51.8946 42.8433 41.0793 53.6586 27.7842 53.6586C14.4894 53.6586 3.67409 42.8398 3.67409 29.5482ZM51.8137 66.4034C51.697 66.5232 51.5595 66.5443 51.4856 66.5443C51.4008 66.502 51.2737 66.5266 51.1574 66.4103L38.6033 53.8103C47.8803 49.6582 54.3675 40.3562 54.3675 29.5516C54.3675 21.2128 50.5012 13.7697 44.4765 8.89123H58.9109C59.1647 8.89123 59.3692 9.09922 59.3692 9.34991V48.7305C59.3692 49.4114 59.9231 49.9687 60.6074 49.9687H67.6519L51.8137 66.4034Z" fill="#AF7B20"/>
</g>
</svg>
