<svg width="79" height="79" viewBox="0 0 79 79" fill="none" xmlns="http://www.w3.org/2000/svg">
<path d="M26.4952 41.4174L25.1644 40.8543C29.2348 47.4125 36.4681 51.5164 44.3121 51.5164C49.4896 51.5164 54.5464 49.7152 58.5501 46.4456C59.0705 46.02 59.8355 46.0985 60.2611 46.6189C60.6862 47.1394 60.6104 47.9044 60.09 48.3299C55.6512 51.9534 50.0481 53.9494 44.3121 53.9494C35.4699 53.9494 27.3269 49.2447 22.8618 41.755L22.413 43.397C22.2633 43.9361 21.7737 44.2904 21.2388 44.2904C21.1344 44.2904 21.0251 44.2759 20.9157 44.2473C20.2696 44.0694 19.8867 43.3993 20.065 42.7528L21.3459 38.0907C21.4384 37.7509 21.6739 37.4705 21.9874 37.3185C22.3036 37.1642 22.6694 37.1546 22.9925 37.2922L27.4457 39.1765C28.0633 39.4382 28.3532 40.1533 28.0919 40.7713C27.8282 41.3911 27.1154 41.6788 26.4952 41.4174ZM67.7389 40.7545L66.0969 41.1846C68.1809 37.4777 69.2716 33.3147 69.2716 28.9921C69.2716 23.8287 67.7081 18.8767 64.752 14.6661C61.8627 10.5504 57.8609 7.43515 53.1798 5.65559C52.5504 5.41786 51.8494 5.7314 51.6094 6.36117C51.3716 6.98864 51.6875 7.69193 52.315 7.92966C61.0024 11.2324 66.8383 19.6966 66.8383 28.9921C66.8383 32.7608 65.9186 36.3942 64.1604 39.6542L63.9821 38.2073C63.899 37.5417 63.2929 37.0689 62.6254 37.1497C61.9576 37.2327 61.4848 37.8389 61.5678 38.5067L62.1595 43.304C62.2048 43.6534 62.3949 43.9647 62.6848 44.162C62.8891 44.2999 63.1268 44.3712 63.3691 44.3712C63.4712 44.3712 63.5733 44.3593 63.6758 44.3331L68.3519 43.1094C69.003 42.9406 69.3928 42.2754 69.2217 41.6243C69.0529 40.9755 68.3877 40.5857 67.7389 40.7545ZM20.8731 34.0036C20.9371 34.0036 21.0015 33.999 21.0677 33.9895C21.7306 33.8824 22.1825 33.2576 22.0754 32.5947C21.883 31.4064 21.7878 30.1922 21.7878 28.9921C21.7878 16.8046 31.5161 6.84844 43.6134 6.47774L42.4586 7.34981C41.9237 7.75365 41.8171 8.51637 42.2209 9.05355C42.4609 9.36938 42.8244 9.53587 43.1928 9.53587C43.4492 9.53587 43.706 9.45739 43.9246 9.29128L47.7836 6.37793C48.064 6.16648 48.2396 5.8457 48.2636 5.49405C48.2895 5.1447 48.1638 4.80258 47.9165 4.55303L44.5186 1.11202C44.0458 0.634654 43.2758 0.629702 42.7985 1.10288C42.3207 1.57301 42.3158 2.34564 42.7889 2.823L43.9864 4.03719C30.3755 4.21091 19.3545 15.3386 19.3545 28.9921C19.3545 30.3229 19.4615 31.6655 19.673 32.9795C19.7682 33.5784 20.286 34.0036 20.8731 34.0036ZM64.3101 55.404C65.6976 57.8083 64.8709 60.8927 62.4684 62.2806L42.0902 74.0453C40.8547 74.7604 39.5121 75.1193 38.0838 75.1193C37.3973 75.1193 36.6891 75.0359 35.9618 74.8698L27.8138 73.0018C25.6681 72.51 23.9548 72.8807 22.0423 74.2781L22.1848 74.8126C22.477 75.9106 21.8259 77.039 20.7306 77.3339L17.3444 78.2414C17.1661 78.289 16.9878 78.3104 16.8122 78.3104C15.9043 78.3104 15.0704 77.7046 14.8254 76.7849L9.91874 58.4716C9.77626 57.9417 9.84979 57.3881 10.1229 56.9104C10.3988 56.4349 10.843 56.0928 11.3729 55.9526L14.7568 55.0451C15.2864 54.9026 15.8403 54.9761 16.3177 55.2516C16.7954 55.5251 17.1353 55.9693 17.2778 56.4993L17.3372 56.7248L20.8372 54.0446C22.8881 52.4738 25.0219 51.9298 27.0106 52.4716L41.2372 56.3423C42.632 56.7225 43.7985 57.6277 44.5235 58.8945C44.8394 59.4481 45.0535 60.0397 45.1624 60.6459L57.4334 53.5623C58.5954 52.8922 59.9521 52.7139 61.252 53.0632C62.5542 53.4126 63.64 54.2443 64.3101 55.404ZM19.7374 75.0812L15.0227 57.4925L12.3662 58.2053L17.0781 75.7917L19.7374 75.0812ZM62.2025 56.6204C61.8577 56.0238 61.2969 55.5937 60.6222 55.4131C59.9498 55.2325 59.2488 55.3228 58.6499 55.6699L44.8466 63.6373C44.0077 65.7045 41.9881 67.0307 39.8066 67.0307C39.3338 67.0307 38.8561 66.9686 38.3787 66.8406L30.7793 64.7707C30.1309 64.5951 29.748 63.9272 29.9263 63.2784C30.1023 62.63 30.7724 62.2471 31.4186 62.4231L39.0176 64.4926C40.617 64.9277 42.2731 63.9794 42.7082 62.3805C42.9169 61.6128 42.8126 60.8024 42.411 60.1014C42.0094 59.4004 41.3656 58.8991 40.5979 58.6899L26.3717 54.8192C25.1263 54.4793 23.7624 54.8691 22.3155 55.9766L18.0191 59.2675L21.3744 71.7926C23.6009 70.4024 25.8083 70.0458 28.3582 70.6283L36.5062 72.4981C38.1433 72.8738 39.5738 72.6905 40.8734 71.9373L61.252 60.1754C62.4925 59.4576 62.9199 57.8632 62.2025 56.6204ZM44.3121 16.8617C47.6384 16.8617 50.3453 19.5682 50.3453 22.8949C50.3453 24.6604 49.5822 26.2502 48.3707 27.3551C48.9406 27.6046 49.4824 27.9086 49.991 28.2557C50.7967 27.3836 51.7542 26.6826 52.8118 26.1858C51.8113 25.1976 51.1888 23.8264 51.1888 22.3128C51.1888 19.3069 53.6339 16.8617 56.6398 16.8617C59.6431 16.8617 62.0882 19.3069 62.0882 22.3128C62.0882 23.8264 61.4657 25.1999 60.4653 26.1881C63.3359 27.5402 65.4104 30.361 65.6622 33.6972C65.6976 34.1868 65.5292 34.6714 65.1963 35.0303C64.8637 35.3865 64.3932 35.5934 63.9036 35.5934H54.3848C54.3943 35.6814 54.4035 35.7717 54.4107 35.862C54.4488 36.3729 54.2728 36.8788 53.9261 37.2518C53.5813 37.6251 53.0895 37.8389 52.5786 37.8389H36.0475C35.5366 37.8389 35.0448 37.6251 34.6977 37.2518C34.3533 36.8788 34.175 36.3729 34.2131 35.862C34.2203 35.7717 34.2321 35.6814 34.2416 35.5934H24.7225C24.2329 35.5934 23.7601 35.3865 23.4298 35.0303C23.0972 34.6714 22.9284 34.1868 22.9643 33.6972C23.2134 30.361 25.2905 27.5402 28.1608 26.1881C27.1581 25.1999 26.5379 23.8264 26.5379 22.3128C26.5379 19.3069 28.9807 16.8617 31.9866 16.8617C34.9926 16.8617 37.435 19.3069 37.435 22.3128C37.435 23.8264 36.8152 25.1976 35.8147 26.1858C36.8696 26.6826 37.8297 27.3836 38.6328 28.2557C39.1437 27.9086 39.6855 27.6046 40.2535 27.3551C39.0416 26.2502 38.2812 24.6604 38.2812 22.8949C38.2812 19.5682 40.9854 16.8617 44.3121 16.8617ZM28.9712 22.3128C28.9712 23.9762 30.3233 25.3283 31.9866 25.3283C33.65 25.3283 35.0021 23.9762 35.0021 22.3128C35.0021 20.6494 33.65 19.2951 31.9866 19.2951C30.3233 19.2951 28.9712 20.6494 28.9712 22.3128ZM36.7984 29.8547C35.5534 28.5312 33.8188 27.7612 31.9866 27.7612C28.7906 27.7612 26.0628 30.0806 25.4852 33.1601H34.7998C35.2539 31.9291 35.9359 30.8102 36.7984 29.8547ZM56.6398 25.3283C58.3005 25.3283 59.6549 23.9762 59.6549 22.3128C59.6549 20.6494 58.3005 19.2951 56.6398 19.2951C54.9765 19.2951 53.6217 20.6494 53.6217 22.3128C53.6217 23.9762 54.9765 25.3283 56.6398 25.3283ZM51.8277 29.8547C52.6879 30.8102 53.3726 31.9291 53.824 33.1601H63.1409C62.561 30.0806 59.8355 27.7612 56.6398 27.7612C54.8077 27.7612 53.0704 28.5312 51.8277 29.8547ZM44.3167 28.9281C44.3144 28.9281 44.3144 28.9281 44.3121 28.9281H44.3094C40.5244 28.9281 37.307 31.7249 36.7153 35.4056H51.9111C51.3195 31.7249 48.0994 28.9281 44.3167 28.9281ZM44.3121 19.2951C42.3279 19.2951 40.7145 20.9108 40.7145 22.8949C40.7145 24.8791 42.3253 26.4925 44.3094 26.4948H44.3121C44.3121 26.4948 44.3144 26.4948 44.3167 26.4948C46.2985 26.4925 47.912 24.8791 47.912 22.8949C47.912 20.9108 46.2985 19.2951 44.3121 19.2951Z" fill="#AF7B20"/>
<mask id="mask0_593_1177" style="mask-type:luminance" maskUnits="userSpaceOnUse" x="1" y="0" width="4" height="5">
<path d="M1.125 0.65918H4.27037V4.82862H1.125V0.65918Z" fill="white"/>
</mask>
<g mask="url(#mask0_593_1177)">
<path fill-rule="evenodd" clip-rule="evenodd" d="M3.71927 4.39795L3.77603 4.39833H3.77641C3.85109 4.39986 3.91014 4.46119 3.91014 4.53701C3.91014 4.53739 3.91014 4.53739 3.91014 4.53777L3.90861 4.69092C3.90861 4.76636 3.84613 4.82846 3.77222 4.82731L2.98817 4.82046C2.91311 4.82008 2.85368 4.75721 2.85368 4.68254C2.85368 4.68216 2.85368 4.68178 2.85368 4.68178L2.8552 4.52825C2.8552 4.45357 2.9173 4.39147 2.99083 4.39147H2.99121L3.0335 4.39185L3.03274 4.00707C3.03274 3.8802 3.05446 3.76171 3.14704 3.67714C3.23314 3.59789 3.38972 3.47903 3.51011 3.33387C3.51201 3.33197 3.5143 3.32968 3.5162 3.32778C3.59659 3.25387 3.71736 3.25158 3.79432 3.32968C3.79508 3.33044 3.79546 3.33083 3.79584 3.33121C3.79622 3.32549 3.79661 3.31978 3.79661 3.31368L3.79432 2.76202V2.76164C3.79356 2.55058 3.86633 2.45229 3.93909 2.41609C4.005 2.38295 4.07929 2.39323 4.1372 2.42943C4.19625 2.46638 4.23626 2.52924 4.23816 2.59401L4.26674 3.6097V3.61008C4.2694 3.72247 4.22978 3.82 4.15244 3.90001H4.15206L3.71927 4.33966V4.39795ZM3.16532 4.393L3.58707 4.39681V4.31185C3.58707 4.29394 3.59392 4.2768 3.6065 4.26423L4.05872 3.80515C4.10977 3.75219 4.13644 3.6878 4.13492 3.61351L4.10596 2.59782C4.10558 2.57572 4.08844 2.55667 4.06824 2.5441C4.0031 2.50334 3.92576 2.54905 3.92652 2.76126L3.92881 3.3133C3.92881 3.3133 3.92881 3.3133 3.92881 3.31368C3.92881 3.40626 3.89871 3.4855 3.8408 3.55827C3.84042 3.55865 3.84042 3.55865 3.84042 3.55865C3.84042 3.55865 3.80346 3.60437 3.80346 3.60475C3.80308 3.60513 3.80232 3.60589 3.80194 3.60627C3.72993 3.68971 3.65298 3.75981 3.57259 3.84134C3.54668 3.86763 3.50478 3.86763 3.47925 3.84134C3.45334 3.81505 3.45334 3.77276 3.47925 3.74647C3.55659 3.66761 3.63126 3.5998 3.70098 3.51941C3.72536 3.48588 3.72727 3.45122 3.70174 3.42531C3.70136 3.42531 3.70136 3.42531 3.70136 3.42493C3.67545 3.39902 3.63545 3.40169 3.60764 3.42493C3.48344 3.57313 3.32381 3.69542 3.2358 3.77657L3.23542 3.77695C3.17142 3.83524 3.16494 3.91982 3.16494 4.00707L3.16532 4.393ZM2.99083 4.52596H2.99045C2.98893 4.52596 2.9874 4.5271 2.9874 4.52863C2.9874 4.52901 2.9874 4.52939 2.9874 4.52939L2.98588 4.68254C2.98588 4.68445 2.98702 4.68597 2.98855 4.68597C2.98893 4.68597 2.98893 4.68597 2.98931 4.68597L3.77375 4.69283C3.77375 4.69283 3.77413 4.69283 3.77451 4.69283C3.77565 4.69283 3.77641 4.69169 3.77641 4.69054V4.69016C3.77641 4.69016 3.77794 4.53701 3.77794 4.53663C3.77794 4.53472 3.77641 4.53282 3.77413 4.53282L2.99083 4.52596ZM3.12189 4.58844C3.13294 4.61778 3.11884 4.65168 3.08989 4.66349C3.06017 4.67492 3.02703 4.66045 3.01598 4.63111C3.00417 4.60101 3.01826 4.56787 3.0476 4.55606C3.07655 4.54387 3.11008 4.55796 3.12189 4.58844ZM2.11115 3.15405H1.75341C1.73474 3.15405 1.71684 3.14605 1.70426 3.13195C1.69169 3.11786 1.68598 3.09881 1.68788 3.07976C1.71265 2.84431 1.86504 2.64773 2.07305 2.56277C2.00219 2.49838 1.95762 2.40466 1.95762 2.30066C1.95762 2.10712 2.11267 1.94939 2.30316 1.94939C2.44718 1.94939 2.57061 2.03968 2.62281 2.16731C2.64643 2.16198 2.67157 2.15893 2.6971 2.15893C2.72262 2.15893 2.74739 2.16198 2.77139 2.16731C2.8232 2.03968 2.94702 1.94939 3.09103 1.94939C3.28152 1.94939 3.43658 2.10712 3.43658 2.30066C3.43658 2.40466 3.39162 2.49838 3.32076 2.56277C3.52916 2.64773 3.68155 2.84431 3.70631 3.07976C3.70822 3.09881 3.70212 3.11786 3.68955 3.13195C3.67698 3.14605 3.65907 3.15405 3.6404 3.15405H3.28266C3.29714 3.19748 3.30743 3.24282 3.31238 3.28968C3.31429 3.30873 3.30819 3.3274 3.29562 3.34149C3.28304 3.35597 3.26514 3.36397 3.24647 3.36397H2.14734C2.12868 3.36397 2.11077 3.35597 2.0982 3.34149C2.08562 3.3274 2.07991 3.30873 2.08182 3.28968C2.08677 3.24282 2.09667 3.19748 2.11115 3.15405ZM2.30316 2.6523C2.07762 2.6523 1.88828 2.80812 1.83265 3.01995H2.17477C2.24373 2.90908 2.34622 2.82184 2.46699 2.77269C2.43232 2.74107 2.40412 2.70259 2.38393 2.65916C2.35764 2.65459 2.3306 2.6523 2.30316 2.6523ZM2.50166 2.22103C2.47003 2.14064 2.39308 2.08388 2.30316 2.08388C2.18544 2.08388 2.08982 2.18141 2.08982 2.30066C2.08982 2.42028 2.18544 2.51781 2.30316 2.51781C2.31955 2.51781 2.33593 2.51591 2.35155 2.5121C2.35155 2.51172 2.35155 2.51134 2.35155 2.51058C2.35155 2.39095 2.41098 2.28465 2.50166 2.22103ZM2.89254 2.22103C2.98321 2.28465 3.04265 2.39095 3.04265 2.51058C3.04265 2.51134 3.04265 2.51172 3.04265 2.51248C3.05789 2.51591 3.07427 2.51781 3.09103 2.51781C3.20837 2.51781 3.30438 2.42028 3.30438 2.30066C3.30438 2.18141 3.20837 2.08388 3.09103 2.08388C3.00112 2.08388 2.92378 2.14064 2.89254 2.22103ZM3.00988 2.65916C2.99007 2.70259 2.9615 2.74107 2.92683 2.77269C3.04798 2.82184 3.15008 2.90908 3.21942 3.01995C3.31543 3.01995 3.56116 3.01995 3.56116 3.01995C3.50592 2.80812 3.31619 2.6523 3.09103 2.6523C3.06322 2.6523 3.03617 2.65459 3.00988 2.65916ZM2.6971 2.72773C2.81444 2.72773 2.91045 2.6302 2.91045 2.51058C2.91045 2.39095 2.81444 2.29342 2.6971 2.29342C2.57937 2.29342 2.48375 2.39095 2.48375 2.51058C2.48375 2.6302 2.57937 2.72773 2.6971 2.72773ZM2.6971 2.86222C2.47156 2.86222 2.28221 3.01804 2.22659 3.22949H3.16723C3.11198 3.01804 2.92226 2.86222 2.6971 2.86222ZM2.36069 4.39185L2.4026 4.39147H2.40298C2.47689 4.39147 2.53861 4.45357 2.53861 4.52825L2.54013 4.68178C2.54013 4.68178 2.54013 4.68216 2.54013 4.68254C2.54013 4.75721 2.4807 4.82008 2.40565 4.82046L1.62159 4.82731C1.54768 4.82846 1.48558 4.76636 1.4852 4.69092L1.48368 4.53777C1.48368 4.53739 1.48368 4.53739 1.48368 4.53701C1.48368 4.46119 1.54273 4.39986 1.6174 4.39833C1.61778 4.39833 1.61778 4.39833 1.61816 4.39833L1.67455 4.39795V4.33966L1.24175 3.90001C1.16403 3.82038 1.12441 3.72247 1.12708 3.61008V3.6097L1.15603 2.59401C1.15756 2.52924 1.19756 2.46638 1.25661 2.42943C1.3149 2.39323 1.38919 2.38295 1.45472 2.41609C1.52787 2.45229 1.60026 2.55058 1.59949 2.76164V2.76202L1.59721 3.31368C1.59721 3.31978 1.59759 3.32549 1.59797 3.33121C1.59835 3.33083 1.59911 3.33044 1.59949 3.32968C1.67645 3.25158 1.79722 3.25387 1.87761 3.32778C1.8799 3.32968 1.8818 3.33197 1.88371 3.33387C2.00448 3.47903 2.16106 3.59789 2.24678 3.67714C2.33974 3.76171 2.36107 3.8802 2.36107 4.00707L2.36069 4.39185ZM1.80675 4.39681L2.22849 4.393L2.22887 4.00707C2.22887 3.91982 2.2224 3.83524 2.15839 3.77695C2.15839 3.77695 2.15839 3.77657 2.15801 3.77657C2.07 3.69542 1.91076 3.57313 1.78617 3.42493C1.75836 3.40169 1.71836 3.39902 1.69283 3.42493C1.69245 3.42531 1.69245 3.42531 1.69245 3.42531C1.66655 3.45122 1.66883 3.48588 1.69283 3.51941C1.76255 3.5998 1.83723 3.66761 1.91495 3.74647C1.94047 3.77276 1.94047 3.81505 1.91495 3.84134C1.88904 3.86763 1.84713 3.86763 1.82122 3.84134C1.74122 3.75981 1.66388 3.68971 1.59187 3.60627C1.59149 3.60589 1.59111 3.60513 1.59035 3.60475L1.5534 3.55865C1.5534 3.55865 1.5534 3.55865 1.5534 3.55827C1.49511 3.4855 1.46539 3.40626 1.46539 3.31368C1.46539 3.3133 1.46539 3.3133 1.46539 3.3133L1.46729 2.76126C1.46806 2.54905 1.39072 2.50334 1.32557 2.5441C1.30576 2.55667 1.28861 2.57572 1.28785 2.59782L1.25928 3.61351C1.25737 3.6878 1.28404 3.75219 1.33509 3.80515C1.33548 3.80515 1.78732 4.26423 1.78732 4.26423C1.79989 4.2768 1.80675 4.29394 1.80675 4.31185V4.39681ZM2.40336 4.52596L1.61969 4.53282C1.61778 4.53282 1.61588 4.53472 1.61588 4.53663C1.61588 4.53701 1.6174 4.69016 1.6174 4.69016V4.69054C1.6174 4.69169 1.61854 4.69283 1.61969 4.69283C1.61969 4.69283 1.62007 4.69283 1.62045 4.69283L2.40489 4.68597H2.40527C2.40717 4.68597 2.40793 4.68445 2.40831 4.68254L2.40679 4.52939C2.40679 4.52939 2.40679 4.52901 2.40679 4.52863C2.40679 4.5271 2.40489 4.52596 2.40336 4.52596ZM2.27231 4.58844C2.28412 4.55796 2.31726 4.54387 2.34622 4.55606C2.37593 4.56787 2.38965 4.60101 2.37784 4.63111C2.36679 4.66045 2.33364 4.67492 2.30393 4.66349C2.27497 4.65168 2.26088 4.61778 2.27231 4.58844ZM2.6971 0.660156C3.03693 0.660156 3.31276 0.940938 3.31276 1.28649C3.31276 1.63204 3.03693 1.91282 2.6971 1.91282C2.35726 1.91282 2.08143 1.63204 2.08143 1.28649C2.08143 0.940938 2.35726 0.660156 2.6971 0.660156ZM2.6971 0.794642C2.43003 0.794642 2.21363 1.01485 2.21363 1.28649C2.21363 1.55813 2.43003 1.77833 2.6971 1.77833C2.96378 1.77833 3.18056 1.55813 3.18056 1.28649C3.18056 1.01485 2.96378 0.794642 2.6971 0.794642ZM2.65709 1.62594C2.58928 1.58518 2.48756 1.51279 2.41632 1.42821C2.36107 1.36306 2.3245 1.28992 2.32336 1.21791C2.32145 1.10438 2.38508 1.02361 2.4708 0.993895C2.53747 0.970655 2.62014 0.978275 2.6971 1.03352C2.77367 0.978655 2.85635 0.970655 2.92302 0.993895C3.00874 1.02361 3.07274 1.10438 3.07046 1.21791C3.06932 1.28992 3.03274 1.36306 2.97788 1.42821C2.90626 1.51279 2.80453 1.58518 2.73672 1.62594C2.71157 1.64118 2.68224 1.64118 2.65709 1.62594ZM2.6971 1.49298C2.7531 1.45679 2.82511 1.40269 2.8773 1.34059C2.91083 1.30096 2.9375 1.25906 2.93864 1.21563C2.9394 1.16876 2.91578 1.13333 2.88035 1.12114C2.83958 1.10705 2.78891 1.12228 2.74396 1.16876C2.73177 1.18172 2.71462 1.18896 2.69672 1.18896C2.67919 1.18896 2.66205 1.18172 2.64986 1.16876C2.6049 1.12228 2.55423 1.10705 2.51347 1.12114C2.47803 1.13333 2.45479 1.16876 2.45556 1.21563C2.45632 1.25906 2.48299 1.30096 2.51651 1.34059C2.56909 1.40269 2.64071 1.45679 2.6971 1.49298Z" fill="black"/>
</g>
</svg>
