<svg width="68" height="67" viewBox="0 0 68 67" fill="none" xmlns="http://www.w3.org/2000/svg">
<mask id="mask0_475_1285" style="mask-type:luminance" maskUnits="userSpaceOnUse" x="2" y="2" width="24" height="22">
<path d="M2.93945 2.41602H25.2894V23.8745H2.93945V2.41602Z" fill="white"/>
</mask>
<g mask="url(#mask0_475_1285)">
<path d="M3.47166 16.1621L9.28121 19.2603L5.94075 21.3418C5.60195 21.5356 5.40817 21.9713 5.50506 22.3585C5.60195 22.7458 5.8923 23.0364 6.27954 23.133L9.66845 23.8109C9.7169 23.8109 9.81379 23.8109 9.86223 23.8109C10.2979 23.8109 10.7336 23.4721 10.8305 23.0364C10.9271 22.5039 10.5883 22.0197 10.0557 21.9229L9.08743 21.7294L11.7503 20.0832C12.0407 19.8898 12.2341 19.5991 12.186 19.2119C12.186 18.8731 11.9922 18.5339 11.7019 18.3889L6.57021 15.6295L10.2495 14.6612C10.5883 14.5643 10.8305 14.3224 10.9271 14.0318C11.0239 13.7414 10.9755 13.3542 10.7336 13.1119L8.31295 10.159L11.5565 10.4978C11.8469 10.5463 12.0891 10.4494 12.331 10.2556C12.5248 10.0622 12.6701 9.81993 12.6701 9.52958L12.6217 5.94721L16.0103 8.94856C16.2525 9.19079 16.5913 9.23923 16.9301 9.14234C17.2692 9.04545 17.5111 8.80355 17.608 8.46443L18.2371 6.18912L19.3023 8.41599C19.3992 8.65821 19.6411 8.85199 19.9317 8.94856C20.2221 9.04545 20.5124 8.99701 20.7062 8.85199L23.2719 7.15738L23.1269 9.19079C23.0784 9.72336 23.5141 10.2075 24.0467 10.2075C24.5793 10.2556 25.0634 9.81993 25.0634 9.28768L25.2568 5.36619C25.3053 4.97896 25.1115 4.64016 24.7727 4.44638C24.4339 4.2526 24.0467 4.2526 23.756 4.44638L20.5124 6.57636L18.8181 2.99399C18.6247 2.60675 18.2371 2.41297 17.8499 2.46142C17.4626 2.50986 17.1239 2.80053 16.9785 3.18777L16.0587 6.52823L12.186 3.09088C11.8953 2.84898 11.5081 2.75209 11.1208 2.94555C10.782 3.09088 10.5398 3.47812 10.5398 3.86536L10.6367 8.56132L6.13453 8.07719C5.74729 8.02875 5.35973 8.22253 5.16627 8.56132C4.97249 8.90012 5.02093 9.3358 5.26316 9.62647L8.31295 13.1604L3.71388 14.3709C3.32664 14.4674 3.03597 14.8066 2.98785 15.1938C2.9394 15.581 3.13286 15.9683 3.47166 16.1621Z" fill="#AF7B20"/>
</g>
<path d="M22.8361 20.9061C23.0783 20.9061 23.3202 20.8095 23.514 20.6157C23.9012 20.2285 23.9012 19.6475 23.514 19.2602L20.5123 16.162C20.2704 15.9198 19.9801 15.8229 19.641 15.8713C19.3022 15.9198 19.0603 16.1135 18.9149 16.4039L18.5277 17.2268L16.7365 15.3387C16.3493 14.9515 15.7683 14.9515 15.381 15.2906C14.9935 15.6779 14.9935 16.2586 15.3326 16.6461L18.1405 19.5506C18.3824 19.7928 18.6727 19.8897 19.0118 19.8412C19.3506 19.7928 19.5925 19.599 19.7379 19.3087L20.1251 18.4373L22.1585 20.5188C22.352 20.8095 22.5942 20.9061 22.8361 20.9061Z" fill="#AF7B20"/>
<path d="M21.3839 24.7788C21.3839 24.2462 20.9482 23.8105 20.4157 23.8105L16.2038 23.9074C15.865 23.9074 15.5744 24.1009 15.3809 24.3916C15.1871 24.6819 15.1871 25.0207 15.3325 25.3114L15.5259 25.6986L13.6379 25.7471C13.1056 25.7471 12.6699 26.1827 12.6699 26.7153C12.6699 27.2479 13.1056 27.6836 13.6379 27.6836L17.1237 27.5867C17.4625 27.5867 17.7528 27.3929 17.9466 27.1026C18.1404 26.8122 18.1404 26.4731 17.995 26.1827L17.8012 25.7955L20.4157 25.7471C20.9964 25.7471 21.3839 25.3114 21.3839 24.7788Z" fill="#AF7B20"/>
<mask id="mask1_475_1285" style="mask-type:luminance" maskUnits="userSpaceOnUse" x="42" y="2" width="24" height="22">
<path d="M42.5859 2.33984H65.1051V23.8739H42.5859V2.33984Z" fill="white"/>
</mask>
<g mask="url(#mask1_475_1285)">
<path d="M43.9915 10.255C44.5241 10.2069 44.9113 9.77119 44.9113 9.23861L44.7663 7.2052L47.332 8.8995C47.5742 9.04483 47.8646 9.09328 48.1068 8.99639C48.3971 8.8995 48.5906 8.75448 48.7359 8.46381L49.8011 6.23695L50.4305 8.51226C50.5271 8.85137 50.7693 9.09328 51.1081 9.19017C51.4469 9.28706 51.786 9.19017 52.0279 8.99639L55.4168 5.99504L55.3684 9.57741C55.3684 9.86776 55.4653 10.11 55.7072 10.3034C55.901 10.4972 56.1913 10.5941 56.4817 10.5457L59.7252 10.2069L57.3049 13.1598C57.1111 13.402 57.0142 13.7408 57.1111 14.0796C57.208 14.3703 57.4499 14.6122 57.789 14.7091L61.4683 15.6773L56.3851 18.4368C56.0944 18.5818 55.901 18.9209 55.901 19.2597C55.901 19.5985 56.046 19.9373 56.3367 20.131L58.9992 21.7769L58.031 21.9707C57.4984 22.0676 57.1596 22.6001 57.2565 23.0843C57.353 23.5684 57.7406 23.8587 58.2247 23.8587C58.2729 23.8587 58.3697 23.8587 58.4182 23.8587L61.8071 23.1808C62.1943 23.0843 62.4847 22.7936 62.5816 22.4064C62.6785 22.0191 62.4847 21.6319 62.1459 21.3897L58.8054 19.3081L64.5665 16.1614C64.9053 15.9677 65.0991 15.5804 65.0507 15.1932C65.0022 14.8059 64.7116 14.4668 64.3243 14.3703L59.6287 13.1598L62.5816 9.52896C62.8238 9.23861 62.8719 8.80293 62.6785 8.46381C62.4847 8.12502 62.0974 7.93156 61.7102 7.97968L57.208 8.46381L57.3049 3.76817C57.3049 3.38061 57.1111 3.04182 56.7239 2.84836C56.3851 2.70302 55.9494 2.75147 55.6587 2.99337L51.786 6.43072L50.8662 3.13871C50.7693 2.75147 50.4302 2.4608 49.9945 2.41235C49.6073 2.36423 49.2201 2.60613 49.0266 2.94493L47.332 6.52761L44.0884 4.39732C43.7981 4.20386 43.4108 4.20386 43.0717 4.39732C42.7329 4.5911 42.5879 4.92989 42.5879 5.31713L42.8782 9.28706C42.9751 9.86776 43.4593 10.3034 43.9915 10.255Z" fill="#AF7B20"/>
</g>
<path d="M48.2025 19.4049C48.3479 19.6952 48.5901 19.889 48.9289 19.9371C49.2677 19.9856 49.558 19.889 49.8003 19.6468L52.6082 16.742C52.9954 16.3547 52.947 15.7256 52.5597 15.3865C52.1725 14.9992 51.543 15.0477 51.2042 15.4349L49.413 17.323L48.9773 16.4516C48.832 16.1613 48.5898 15.9675 48.251 15.9191C47.9606 15.8706 47.6218 15.9675 47.3796 16.2097L44.3783 19.308C43.9907 19.6952 44.0392 20.3247 44.3783 20.6635C44.6202 20.8088 44.8624 20.9054 45.1043 20.9054C45.3465 20.9054 45.5884 20.8088 45.7822 20.615L47.8153 18.5332L48.2025 19.4049Z" fill="#AF7B20"/>
<path d="M49.9937 27.151C50.1875 27.4414 50.4778 27.6351 50.8169 27.6351L54.3024 27.6836C54.835 27.6836 55.2707 27.2479 55.2707 26.7153C55.2707 26.1827 54.835 25.7471 54.3024 25.7471L52.3659 25.6986L52.5597 25.3114C52.705 25.0207 52.705 24.6819 52.5112 24.3916C52.3174 24.1009 52.0271 23.9074 51.6883 23.9074L47.5249 23.8105C46.9923 23.8105 46.5566 24.2462 46.5566 24.7788C46.5566 25.3114 46.9439 25.7471 47.5249 25.7471L50.1875 25.7955L49.9937 26.1827C49.8487 26.5215 49.8487 26.8603 49.9937 27.151Z" fill="#AF7B20"/>
<mask id="mask2_475_1285" style="mask-type:luminance" maskUnits="userSpaceOnUse" x="2" y="20" width="64" height="45">
<path d="M2.93945 20.8555H65.0244V64.5068H2.93945V20.8555Z" fill="white"/>
</mask>
<g mask="url(#mask2_475_1285)">
<path d="M63.9864 62.5391H58.9516C59.0485 62.2003 59.1454 61.8612 59.1454 61.5224V48.8873C59.1454 41.7222 54.3525 36.1064 47.9623 34.7509C47.9138 35.3804 47.817 36.058 47.6719 36.6874C53.1908 37.8976 57.2089 42.8358 57.2089 48.8873V61.5224C57.2089 62.1034 56.8216 62.5391 56.3375 62.5391H50.1407L34.6008 43.5134C33.8744 42.3032 34.9396 39.8826 36.2466 39.0112C36.7792 38.624 37.4571 38.4786 38.1347 38.624C38.861 38.7693 39.4902 39.205 39.8774 39.8826C39.8774 39.931 39.9259 39.931 39.9259 39.9795L51.69 54.3092C52.0288 54.7449 52.6582 54.7934 53.0455 54.4543C53.4327 54.1155 53.5296 53.4863 53.1908 53.0988L43.5085 41.2381C45.106 39.1081 46.0742 36.3971 46.0742 33.4923C46.0742 26.521 40.6522 20.9053 33.9713 20.9053C27.2907 20.9053 21.8687 26.521 21.8687 33.4923C21.8687 36.3971 22.8366 39.1081 24.4344 41.2381L14.7521 53.0506C14.4133 53.4863 14.4617 54.067 14.8974 54.4061C15.3331 54.7449 15.9138 54.6965 16.2529 54.2608L28.0167 39.931C28.0652 39.8826 28.0652 39.8826 28.0652 39.8341C28.5009 39.1565 29.0819 38.7209 29.8079 38.5755C30.4858 38.4302 31.115 38.5755 31.696 38.9628C32.1317 39.3016 32.5674 39.7857 32.9065 40.3667C32.4223 41.6253 32.2286 42.9808 32.8096 44.1428L17.8019 62.5391H11.6054C11.1213 62.5391 10.734 62.055 10.734 61.5224V48.8873C10.734 42.8358 14.7521 37.8976 20.271 36.6874C20.1256 36.058 20.0291 35.4288 19.9806 34.7509C13.5904 36.1064 8.79752 41.7222 8.79752 48.8873V61.5224C8.79752 61.9097 8.84596 62.2488 8.9913 62.5391H3.95622C3.42397 62.5391 2.98828 62.9748 2.98828 63.5074C2.98828 64.04 3.42397 64.4757 3.95622 64.4757H63.9864C64.5189 64.4757 64.9546 64.04 64.9546 63.5074C64.9546 62.9748 64.5189 62.5391 63.9864 62.5391ZM32.7611 37.3654C31.7929 36.6874 30.5827 36.4455 29.4207 36.6874C28.2105 36.9297 27.1454 37.6557 26.4678 38.7209L25.693 39.6407C24.4828 37.8976 23.8049 35.7676 23.8049 33.4439C23.8049 27.5862 28.3555 22.7933 33.9713 22.7933C39.5871 22.7933 44.1377 27.5862 44.1377 33.4439C44.1377 35.7676 43.4117 37.8976 42.2496 39.6407L41.4751 38.7209C40.7972 37.6557 39.7324 36.9297 38.5219 36.6874C37.3602 36.4455 36.15 36.6874 35.1818 37.3654C34.7461 37.6557 34.3585 38.0429 33.9713 38.5271C33.5841 38.0914 33.1968 37.6557 32.7611 37.3654ZM20.3194 62.5391L33.7294 46.0794C33.8263 46.0794 33.8744 46.0794 33.9713 46.0794C34.0682 46.0794 34.1166 46.0794 34.2135 46.0794L47.6235 62.5391H20.3194Z" fill="#AF7B20"/>
</g>
</svg>
