<svg width="70" height="70" viewBox="0 0 70 70" fill="none" xmlns="http://www.w3.org/2000/svg">
<mask id="mask0_593_1274" style="mask-type:luminance" maskUnits="userSpaceOnUse" x="1" y="2" width="65" height="67">
<path d="M1.46875 2.85156H65.333V68.4151H1.46875V2.85156Z" fill="white"/>
</mask>
<g mask="url(#mask0_593_1274)">
<path d="M46.2551 34.4037C50.0846 34.4037 53.1842 37.5077 53.1842 41.3328C53.1842 45.1579 50.0846 48.2619 46.2551 48.2619C42.43 48.2619 39.3287 45.1579 39.3287 41.3328C39.3287 37.5077 42.43 34.4037 46.2551 34.4037ZM49.567 38.0266C47.7384 36.1976 44.7775 36.1976 42.9488 38.0266C41.1239 39.8512 41.1239 42.8161 42.9488 44.6421C44.7775 46.4711 47.7384 46.4711 49.567 44.6421C51.392 42.8161 51.392 39.8512 49.567 38.0266ZM32.009 41.9837V40.6847C32.009 39.3185 33.121 38.2021 34.4871 38.2021C35.113 38.2021 34.7305 38.1461 35.3561 36.7515C35.5235 36.3606 35.7034 35.9866 35.8945 35.6352C35.9985 35.4525 35.855 35.3597 35.723 35.2247C34.7545 34.2602 34.7545 32.6858 35.723 31.7186L36.6395 30.798C37.632 29.8096 39.2544 29.8336 40.206 30.8612L40.282 30.9327C40.3664 31.0171 40.4619 31.0286 40.5602 30.9722C41.3207 30.5533 42.1221 30.2228 42.9586 29.9797C43.1581 29.9193 43.1257 29.7563 43.1257 29.5649C43.1257 28.5444 43.7472 27.6488 44.6637 27.2693V14.9913H34.6573C33.9926 16.6893 32.1508 17.7254 30.2613 17.7254H18.1157C16.2262 17.7254 14.3861 16.6893 13.7238 14.9913H3.72035V66.1576H44.6651V55.3949C43.7486 55.0168 43.1274 54.1199 43.1274 53.0994C43.1274 52.5299 43.147 52.8449 41.7326 52.2544C40.3579 51.688 40.549 51.4659 40.1513 51.8679C39.1825 52.8364 37.6094 52.8364 36.6409 51.8679L35.7244 50.947C34.7558 49.9785 34.7558 48.404 35.7244 47.4396C36.1224 47.0375 35.9198 47.2721 35.3334 45.858C34.7643 44.4831 35.0624 44.4635 34.4888 44.4635C33.121 44.4662 32.009 43.3502 32.009 41.9837ZM46.913 27.0837C48.2795 27.0881 49.3871 28.2 49.3871 29.5665C49.3871 30.1401 49.3675 29.8207 50.7816 30.4112C52.1566 30.978 51.9611 31.2001 52.3632 30.798C53.3317 29.8292 54.9048 29.8292 55.8693 30.798L56.7902 31.7186C57.7587 32.6871 57.7587 34.2602 56.7902 35.2247C56.3922 35.6227 56.5903 35.3877 57.1767 36.8103L57.1808 36.8062C57.7503 38.1812 57.4481 38.2008 58.0257 38.2008C59.3922 38.2008 60.5042 39.3171 60.5042 40.6833V41.9823C60.5042 43.3488 59.4007 44.4608 58.0257 44.4608V44.4648C57.4002 44.4648 57.7827 44.5253 57.1527 45.9158C56.9897 46.3067 56.8098 46.6804 56.6187 47.0318C56.5188 47.2077 56.6508 47.3076 56.7902 47.4423C57.7587 48.4067 57.7587 49.9812 56.7902 50.9497L55.8693 51.8706C54.9048 52.8391 53.3304 52.8391 52.3632 51.8706C51.9655 51.4729 52.2001 51.6667 50.7816 52.2571C49.4111 52.8266 49.3871 52.5286 49.3871 53.1021C49.3871 54.4686 48.2795 55.5806 46.913 55.5846V67.2837C46.913 67.9049 46.411 68.4068 45.7899 68.4068H2.5969C1.97575 68.4068 1.46973 67.9049 1.46973 67.2837V13.8695C1.46973 13.2481 1.97575 12.7461 2.5969 12.7461H13.4834V10.8567C13.4834 8.50207 15.7425 6.84456 18.1184 6.84456H19.0828C19.5369 3.21763 24.6623 1.58849 27.7464 4.12741C28.5998 4.83294 29.1693 5.77782 29.3043 6.84456H30.2644C32.643 6.84456 34.8993 8.50207 34.8993 10.8567V12.7461H45.7899C46.411 12.7461 46.913 13.2481 46.913 13.8695V27.0837ZM34.2569 40.6847V41.9837C34.2569 42.4812 35.0776 41.8925 36.1659 42.7135C37.0065 43.3431 37.0105 44.0405 37.4058 45.0006C37.8008 45.9495 38.2984 46.4471 38.1509 47.4916C37.9595 48.8425 36.9629 49.01 37.3143 49.3601L38.2353 50.2806C38.5853 50.6307 38.7497 49.6355 40.1034 49.4401C41.1438 49.2925 41.6455 49.7901 42.5944 50.1851C43.5504 50.5828 44.2475 50.5871 44.8774 51.425C45.6984 52.5174 45.1124 53.334 45.6069 53.334H46.9103C47.4035 53.334 46.8188 52.5174 47.6358 51.425C48.2697 50.5885 48.9668 50.5844 49.9229 50.1851V50.1891C50.8718 49.783 51.3849 49.2966 52.4138 49.4401C53.7648 49.6355 53.9323 50.632 54.2823 50.2806L55.2029 49.3601C55.29 49.2726 55.29 49.1211 55.2029 49.0336L55.2073 49.0296C54.7448 48.5711 54.4623 48.1735 54.3664 47.4916C54.2189 46.4471 54.7164 45.9495 55.1074 45.0006C55.505 44.0405 55.5094 43.3431 56.35 42.7135C56.8844 42.3114 57.3708 42.2156 58.0271 42.2156V42.22C58.1425 42.22 58.2576 42.116 58.2576 41.985V40.6863C58.2576 40.1884 57.4366 40.7775 56.3486 39.9565C55.5081 39.3269 55.5037 38.6295 55.106 37.6694H55.1101C54.708 36.7205 54.2175 36.2074 54.365 35.1784C54.5564 33.8274 55.553 33.66 55.2015 33.3099L54.2806 32.3894C53.9306 32.0393 53.7621 33.0345 52.4125 33.2299C51.368 33.3775 50.8704 32.8799 49.9215 32.4849C48.9611 32.0869 48.268 32.0828 47.6341 31.245C46.8175 30.1526 47.4035 29.336 46.909 29.336H45.6056C45.1124 29.336 45.6971 30.1526 44.8761 31.245C44.2462 32.0856 43.5491 32.0856 42.593 32.4849C41.6414 32.8799 41.1421 33.3775 40.1021 33.2299C39.5761 33.154 39.0816 32.915 38.692 32.5241L38.6964 32.52C38.5921 32.416 38.4135 32.2094 38.2295 32.3877L37.313 33.3086C36.9629 33.6587 37.9581 33.8274 38.1495 35.1771C38.297 36.2215 37.7994 36.7191 37.4041 37.6681C37.0092 38.6281 37.0065 39.3252 36.1646 39.9552C35.0776 40.7761 34.2569 40.1857 34.2569 40.6847ZM55.7187 58.8041C56.2207 59.1667 56.3331 59.8722 55.9705 60.3742C55.6077 60.8762 54.9062 60.9886 54.4045 60.6216L51.87 58.7926C51.4791 58.506 51.3245 58.0152 51.4511 57.574L52.3041 54.3815C52.4672 53.784 53.0816 53.4255 53.6791 53.5885C54.2806 53.7472 54.6351 54.3616 54.4761 54.9635L54.1611 56.1427C62.7086 51.5685 65.634 40.6931 60.5056 32.468C58.844 29.8056 56.4654 27.642 53.6355 26.26C53.0816 25.9845 52.851 25.3154 53.1211 24.7615C53.3965 24.2035 54.0656 23.9729 54.6196 24.247C65.0082 29.3316 68.5227 42.4856 61.9676 52.0661C60.1906 54.6641 57.7796 56.8006 54.9585 58.2542L55.7187 58.8041ZM40.338 27.9202C40.2425 28.5346 39.6649 28.9478 39.0546 28.8522C38.4446 28.7567 38.027 28.1832 38.1225 27.5688L38.2859 26.5651C29.2999 31.4222 26.6894 43.1378 32.7793 51.3308C34.9034 54.1915 37.9203 56.3523 41.4149 57.4038C42.0084 57.5794 42.3469 58.2053 42.1728 58.7984C41.9928 59.3915 41.3673 59.7304 40.7738 59.5562C32.8087 57.1733 27.2333 49.7773 27.2333 41.3328C27.2333 34.2366 31.1627 27.8317 37.2948 24.5478L36.2908 23.9699C35.7524 23.6593 35.5697 22.9774 35.8763 22.4389C36.1828 21.9008 36.8687 21.7179 37.4072 22.0244L40.2202 23.6508C40.6982 23.9054 40.9257 24.3635 40.8218 24.8979L40.338 27.9202ZM19.8798 55.9431C19.2584 55.9431 18.7523 55.4412 18.7523 54.82C18.7523 54.1985 19.2584 53.6969 19.8798 53.6969H24.2869C24.9084 53.6969 25.4144 54.1985 25.4144 54.82C25.4144 55.4412 24.9084 55.9431 24.2869 55.9431H19.8798ZM19.8798 59.9833C19.2584 59.9833 18.7523 59.4772 18.7523 58.8561C18.7523 58.2387 19.2584 57.7326 19.8798 57.7326H25.8809C26.5024 57.7326 27.0044 58.239 27.0044 58.8561C27.0044 59.4772 26.5024 59.9833 25.8809 59.9833H19.8798ZM19.8798 41.219C19.2584 41.219 18.7523 40.7171 18.7523 40.0959C18.7523 39.4744 19.2584 38.9725 19.8798 38.9725H24.2869C24.9084 38.9725 25.4144 39.4744 25.4144 40.0959C25.4144 40.7171 24.9084 41.219 24.2869 41.219H19.8798ZM19.8798 45.2592C19.2584 45.2592 18.7523 44.7531 18.7523 44.1317C18.7523 43.5146 19.2584 43.0085 19.8798 43.0085H25.8809C26.5024 43.0085 27.0044 43.5146 27.0044 44.1317C27.0044 44.7531 26.5024 45.2592 25.8809 45.2592H19.8798ZM19.8798 26.4949C19.2584 26.4949 18.7523 25.993 18.7523 25.3715C18.7523 24.7503 19.2584 24.2484 19.8798 24.2484H24.2869C24.9084 24.2484 25.4144 24.7503 25.4144 25.3715C25.4144 25.993 24.9084 26.4949 24.2869 26.4949H19.8798ZM19.8798 30.5351C19.2584 30.5351 18.7523 30.029 18.7523 29.4076C18.7523 28.7905 19.2584 28.2844 19.8798 28.2844H25.8809C26.5024 28.2844 27.0044 28.7905 27.0044 29.4076C27.0044 30.029 26.5024 30.5351 25.8809 30.5351H19.8798ZM6.96481 36.2931H10.2599V31.3517H6.96481C6.34333 31.3517 5.84169 30.85 5.84169 30.2285V21.1909C5.84169 20.5735 6.34333 20.0675 6.96481 20.0675H15.8073C16.4244 20.0675 16.9304 20.5735 16.9304 21.1909V30.2285C16.9304 30.85 16.4244 31.3517 15.8073 31.3517H12.5122V36.2931H15.8073C16.4244 36.2931 16.9304 36.7991 16.9304 37.4206V46.4542C16.9304 47.0753 16.4244 47.5773 15.8073 47.5773H12.5122V52.5228H15.8073C16.4244 52.5228 16.9304 53.0248 16.9304 53.6463V62.6798C16.9304 63.301 16.4244 63.807 15.8073 63.807H6.96481C6.34333 63.807 5.84169 63.301 5.84169 62.6798V53.6476C5.84169 53.0261 6.34333 52.5242 6.96481 52.5242H10.2599V47.5787H6.96481C6.34333 47.5787 5.84169 47.077 5.84169 46.4555V37.422C5.84034 36.7991 6.34198 36.2931 6.96481 36.2931ZM14.6784 38.5437C12.4825 38.5437 10.2866 38.5437 8.08658 38.5437V45.3294H14.6784V38.5437ZM14.6784 54.7707H8.08793V61.5564H14.6798V54.7707H14.6784ZM14.6784 22.3181H8.08793V29.1041H14.6798V22.3181H14.6784ZM20.2495 9.09249H18.117C16.9726 9.09249 15.734 9.78554 15.734 10.8584V13.7149C15.734 14.7874 16.974 15.4805 18.117 15.4805H30.263C31.4071 15.4805 32.65 14.7874 32.65 13.7149V10.8567C32.65 9.78419 31.4071 9.09114 30.263 9.09114C29.8721 9.09114 28.1302 9.12355 27.876 9.06312C27.2701 8.91965 26.896 8.3137 27.0395 7.70775C27.3825 6.26562 25.8121 5.1452 24.19 5.1452C22.6871 5.1452 21.1451 6.1208 21.3095 7.52377C21.3291 7.69087 21.3726 7.76683 21.3726 7.96667C21.3743 8.58916 20.871 9.09249 20.2495 9.09249Z" fill="#AF7B20"/>
</g>
</svg>
