<svg width="84" height="84" viewBox="0 0 84 84" fill="none" xmlns="http://www.w3.org/2000/svg">
<path d="M43.9723 19.2897C43.6499 18.9794 43.2229 18.8133 42.7785 18.8226C42.3309 18.8315 41.9137 19.0138 41.6042 19.3367C41.2939 19.6592 41.1278 20.0833 41.1371 20.5305C41.1452 20.9773 41.3283 21.395 41.6507 21.7049L41.701 21.7523C42.3953 22.4089 43.4963 22.353 44.1202 21.6307C44.7056 20.9522 44.6537 19.933 44.0023 19.3177L43.9723 19.2897Z" fill="#AF7B20"/>
<mask id="mask0_565_4343" style="mask-type:luminance" maskUnits="userSpaceOnUse" x="0" y="11" width="45" height="59">
<path d="M0.517578 11.585H44.0731V69.4816H0.517578V11.585Z" fill="white"/>
</mask>
<g mask="url(#mask0_565_4343)">
<path d="M43.1045 41.6287C42.6617 40.9732 42.2044 40.2955 41.8025 39.6174C41.0223 38.3 40.6091 37.0013 40.5402 35.6471C40.5273 35.3955 40.5147 35.1435 40.5026 34.892C40.4511 33.8412 40.3976 32.7539 40.3012 31.6788C40.0485 28.8488 39.5421 26.2765 38.7546 23.8151C37.98 21.3914 37.0625 19.5738 35.8687 18.0936C33.0011 14.5377 29.1227 12.4737 24.0133 11.7843C23.5701 11.7243 23.1277 11.6842 22.6963 11.6449L22.6704 11.6425C22.495 11.6267 22.3196 11.6105 22.1446 11.5931L20.4169 11.585L20.3695 11.5898C20.2427 11.602 20.1163 11.6137 19.9903 11.6255L19.9526 11.6287C19.6812 11.6534 19.3442 11.6842 19.0193 11.7211C12.5775 12.4628 7.54383 15.2705 4.05922 20.0664C2.17351 22.6618 1.0429 25.6429 0.697762 28.9266C0.0536645 35.0629 1.21669 40.9837 4.1528 46.5246C5.19794 48.4954 6.05673 50.2523 6.7782 51.8957C7.60783 53.7839 8.10042 55.9495 8.28434 58.5153C8.50227 61.5442 8.29041 64.5938 7.65482 67.5809C7.55841 68.0342 7.67022 68.5009 7.96188 68.8606C8.25395 69.2219 8.68781 69.4285 9.15245 69.4285C9.8727 69.4285 10.5026 68.9185 10.6501 68.2157C11.0394 66.3656 11.2824 64.4617 11.3736 62.5578C11.4906 60.1005 11.3691 57.8433 11.0021 55.657C10.5755 53.1163 9.69244 50.595 8.22317 47.7225C8.08584 47.4539 7.94811 47.1857 7.80997 46.9171C7.14076 45.614 6.44846 44.2662 5.82907 42.9245C4.78677 40.6682 4.11067 38.2668 3.81778 35.7872C3.56541 33.6418 3.34869 30.8208 3.92392 28.0277C4.82809 23.6377 7.07149 20.2187 10.5921 17.8639C14.7832 15.0607 19.5074 14.0892 24.6347 14.9748C26.7675 15.3426 28.7715 16.139 30.5912 17.3413C33.0096 18.9394 34.6692 21.1755 35.6654 24.1785C36.7652 27.4942 37.3704 31.1161 37.464 34.9426C37.5207 37.248 38.0461 39.2192 39.0698 40.97C39.6397 41.9446 40.2636 42.8682 40.9064 43.8068C40.9656 43.8935 41.0029 43.9733 41.0073 44.0977C40.4645 44.3314 39.8467 44.615 39.2601 44.9699C38.4613 45.4531 38.0299 46.2682 38.0469 47.2651C38.059 47.9833 38.0416 48.7251 38.0246 49.4461L38.0137 49.9432C37.9813 51.4364 37.914 53.2054 37.6616 55.004C37.5628 55.7064 37.2663 56.073 36.6023 56.3125L36.5165 56.3436C36.4828 56.3558 36.4488 56.3684 36.4144 56.3805C35.4126 56.7321 34.3662 56.8148 33.4746 56.8496C31.3718 56.931 29.1365 56.7755 26.4394 56.3586C25.3809 56.1946 24.2539 56.0001 23.1873 55.685C21.9185 55.3111 21.1537 54.4474 20.9127 53.1183C20.8309 52.6642 20.7879 52.1821 20.7847 51.6863C20.7737 49.7062 20.7754 46.0875 20.7774 44.1062C20.7782 43.7015 20.6206 43.3211 20.3342 43.0347C20.0482 42.7475 19.6674 42.5895 19.2619 42.5895C18.4266 42.5895 17.7469 43.2689 17.7469 44.1042C17.7461 45.3215 17.7449 49.4664 17.7501 51.6737C17.7522 52.204 17.7793 52.6719 17.8348 53.1053C18.0924 55.115 18.9715 56.658 20.4481 57.6886C21.3749 58.3351 22.4229 58.7608 23.5636 58.952C25.0495 59.202 26.4179 59.4074 27.7381 59.5799C27.8005 62.1033 27.5651 64.6375 27.0373 67.1171C26.9409 67.5716 27.0531 68.0395 27.3452 68.4008C27.6372 68.7605 28.0707 68.9675 28.5345 68.9675C29.2548 68.9675 29.8851 68.4555 30.0333 67.7494C30.4218 65.9002 30.6653 63.9983 30.7556 62.0968C30.7909 61.3627 30.8034 60.6214 30.7929 59.8882C32.2581 59.9737 33.603 59.9441 34.8945 59.7999C35.9181 59.6861 37.2513 59.4653 38.4868 58.771C39.6357 58.1265 40.3207 57.2077 40.524 56.041C40.5455 55.9163 40.5674 55.7911 40.5901 55.6643C40.7164 54.959 40.8461 54.2291 40.885 53.476C40.9931 51.3849 41.0458 49.2412 41.0859 47.3951C41.5716 47.1622 42.0144 46.9658 42.4381 46.7948C43.0834 46.5331 43.5306 46.1049 43.7656 45.5228C44.2513 44.3185 44.1569 43.1988 43.4849 42.1942C43.3593 42.0066 43.2333 41.8199 43.1045 41.6287Z" fill="#AF7B20"/>
</g>
<path d="M78.0979 47.2609C78.0979 45.6073 76.7518 44.2607 75.0978 44.2607C73.4438 44.2607 72.0977 45.6073 72.0977 47.2609C72.0977 48.9149 73.4438 50.261 75.0978 50.261C76.7518 50.261 78.0979 48.9149 78.0979 47.2609Z" fill="#AF7B20"/>
<mask id="mask1_565_4343" style="mask-type:luminance" maskUnits="userSpaceOnUse" x="75" y="41" width="9" height="32">
<path d="M75.8066 41.4814H83.8955V72.407H75.8066V41.4814Z" fill="white"/>
</mask>
<g mask="url(#mask1_565_4343)">
<path d="M82.4101 41.572C81.4991 41.4197 80.6338 42.0354 80.4802 42.9448L75.8419 70.4599C75.7678 70.9019 75.8699 71.3455 76.1287 71.71C76.3884 72.0742 76.7745 72.3165 77.2152 72.3906C77.3084 72.406 77.4028 72.4137 77.4951 72.4137C78.315 72.4137 79.0094 71.8263 79.1451 71.0169L83.7838 43.5018C83.9373 42.5908 83.3212 41.7251 82.4101 41.572Z" fill="#AF7B20"/>
</g>
<path d="M70.9895 45.8252C70.9874 45.807 70.9862 45.7888 70.9842 45.7705C70.9802 45.743 70.9757 45.715 70.9712 45.6879C70.9672 45.6685 70.9639 45.6482 70.9599 45.6288C70.9579 45.6203 70.9567 45.6109 70.9546 45.602C70.951 45.585 70.9457 45.5688 70.9413 45.551C70.936 45.5311 70.9299 45.5101 70.9243 45.4898C70.9166 45.4651 70.908 45.4404 70.8995 45.4165C70.8922 45.3962 70.8854 45.376 70.8773 45.3561C70.8675 45.3326 70.857 45.3091 70.8469 45.2856C70.8376 45.2654 70.8286 45.2459 70.8189 45.2265C70.8076 45.2038 70.7954 45.1823 70.7829 45.1609C70.7727 45.1414 70.7614 45.1212 70.7497 45.1021C70.7367 45.0815 70.7233 45.0612 70.7096 45.041C70.6966 45.0223 70.684 45.0025 70.6711 44.9843C70.6557 44.9636 70.6391 44.9442 70.6229 44.9247C70.6095 44.9077 70.5961 44.8903 70.5819 44.8737C70.5516 44.8392 70.52 44.806 70.4872 44.7744C70.4855 44.7728 70.4843 44.7716 70.4839 44.7704L48.0803 23.2932C47.4078 22.6479 46.3384 22.6746 45.6995 23.3531C45.07 24.0219 45.0964 25.0727 45.7587 25.7083L64.0677 42.3872L51.7974 36.8715C50.8292 36.468 49.7326 37.0444 49.5155 38.0705C49.3482 38.8584 49.7659 39.6545 50.5104 39.9639L63.4641 44.6136L53.4344 43.6487C52.9872 43.6365 52.5618 43.7957 52.2357 44.1016C51.9096 44.4086 51.7225 44.8242 51.7087 45.2727C51.6807 46.1959 52.4095 46.9696 53.3327 46.9976L64.4614 46.9502L51.4551 53.2826C51.0589 53.4908 50.7664 53.8404 50.634 54.2678C50.5003 54.6947 50.5416 55.148 50.749 55.5442C51.0399 56.098 51.6086 56.4415 52.2337 56.4415C52.5027 56.4415 52.7712 56.3755 53.0107 56.2499L70.1011 47.4614C70.1023 47.461 70.1039 47.4594 70.1052 47.459C70.1226 47.4496 70.14 47.4387 70.1578 47.4282C70.1931 47.4079 70.2275 47.3865 70.2611 47.3638C70.2793 47.3516 70.2976 47.3391 70.3154 47.3261C70.3608 47.2929 70.4049 47.2576 70.4466 47.22C70.4556 47.2115 70.4641 47.2017 70.4734 47.1932C70.5098 47.1588 70.5443 47.1231 70.5775 47.0859C70.5884 47.0729 70.5994 47.0608 70.6107 47.047C70.6492 47.0016 70.6848 46.9534 70.7181 46.904C70.7201 46.9012 70.7217 46.8987 70.7237 46.8959C70.7343 46.8797 70.7432 46.8627 70.7529 46.8465C70.7655 46.8266 70.778 46.8064 70.7894 46.7853C70.8019 46.7626 70.8137 46.7391 70.8246 46.7164C70.8339 46.6974 70.8428 46.6788 70.8521 46.6597C70.8623 46.6358 70.8728 46.6111 70.8821 46.5856C70.889 46.5674 70.8967 46.5487 70.9036 46.5297C70.9117 46.505 70.9198 46.4795 70.9275 46.4547C70.9332 46.4349 70.9392 46.4146 70.9445 46.3936C70.9502 46.3705 70.9563 46.3462 70.9607 46.3223C70.966 46.2996 70.9696 46.2765 70.9737 46.253C70.9777 46.2311 70.981 46.2097 70.9834 46.1882C70.9866 46.1623 70.9895 46.1359 70.9911 46.1096C70.9927 46.0898 70.9943 46.0703 70.9951 46.0509C70.9964 46.0229 70.9964 45.9942 70.9964 45.9662C70.9964 45.948 70.9964 45.9297 70.9951 45.9115C70.9943 45.8832 70.9919 45.8536 70.9895 45.8252Z" fill="#AF7B20"/>
<path d="M47.5112 37.7118C48.0965 37.0332 48.0451 36.0144 47.3933 35.3987L47.3633 35.3707C47.0404 35.0604 46.6143 34.8948 46.1695 34.9037C45.7223 34.9126 45.3054 35.0949 44.9951 35.4177C44.6852 35.7406 44.5191 36.1639 44.5277 36.6115C44.537 37.0592 44.7193 37.4764 45.0417 37.7859L45.0924 37.8337C45.7863 38.4899 46.8869 38.434 47.5112 37.7118Z" fill="#AF7B20"/>
<path d="M48.7578 44.0296C48.435 43.7197 48.0088 43.5532 47.5636 43.5629C47.1168 43.5714 46.6996 43.7545 46.3893 44.0766C46.079 44.399 45.9137 44.8236 45.9222 45.2704C45.9311 45.718 46.1134 46.1352 46.4363 46.4447L46.4869 46.4929C47.1804 47.1488 48.2814 47.0933 48.9053 46.3706C49.4911 45.6925 49.4396 44.6733 48.7874 44.0583L48.7578 44.0296Z" fill="#AF7B20"/>
<path d="M48.7578 56.1094C48.435 55.7987 48.0088 55.633 47.5636 55.6419C47.1168 55.6513 46.6996 55.8336 46.3893 56.156C46.079 56.4789 45.9137 56.903 45.9222 57.3502C45.9311 57.7978 46.1134 58.2147 46.4363 58.5246L46.4869 58.572C47.1804 59.2286 48.2814 59.1723 48.9053 58.4504C49.4911 57.7715 49.4396 56.7527 48.7874 56.1378L48.7578 56.1094Z" fill="#AF7B20"/>
</svg>
