<svg width="78" height="78" viewBox="0 0 78 78" fill="none" xmlns="http://www.w3.org/2000/svg">
<mask id="mask0_597_1755" style="mask-type:luminance" maskUnits="userSpaceOnUse" x="2" y="10" width="74" height="58">
<path d="M2.71777 10.04H75.3011V67.9623H2.71777V10.04Z" fill="white"/>
</mask>
<g mask="url(#mask0_597_1755)">
<path d="M74.7082 22.5725L53.4798 10.218C53.3146 10.1055 53.1153 10.04 52.8993 10.04L39.7395 10.0438C39.5634 10.0438 39.3836 10.0889 39.2204 10.1834L17.9306 22.5725C17.5932 22.7433 17.3626 23.0931 17.3626 23.4959V34.8183H3.75626C3.18488 34.8183 2.7207 35.2828 2.7207 35.8542V63.3442C2.7207 63.9156 3.18488 64.3801 3.75626 64.3801H6.77831C6.97617 65.2362 7.40951 66.0036 8.01023 66.6021C8.84455 67.4364 9.99634 67.9517 11.2696 67.9517C12.5068 67.9517 13.6334 67.4601 14.4621 66.6638L14.5294 66.6021C14.64 66.4915 14.7453 66.3753 14.8431 66.2538C14.9409 66.3753 15.0463 66.4915 15.1568 66.6021C15.9915 67.4364 17.1433 67.9517 18.4166 67.9517C18.4185 67.9517 18.4204 67.9517 18.4219 67.9517H31.4896C31.4915 67.9517 31.4915 67.9517 31.4934 67.9517C31.4949 67.9517 31.4949 67.9517 31.4967 67.9517H35.5581C35.56 67.9517 35.56 67.9517 35.5619 67.9517H54.2163C54.2182 67.9517 54.2182 67.9517 54.22 67.9517H66.3462C66.3477 67.9517 66.3477 67.9517 66.3496 67.9517H70.2425C70.2443 67.9517 70.2443 67.9517 70.2462 67.9517H74.244C74.8154 67.9517 75.2796 67.4872 75.2796 66.9158V23.4959C75.2777 23.0916 75.0456 22.7433 74.7082 22.5725ZM36.5959 32.5019H69.2031V34.4647H36.5959V32.5019ZM69.205 30.4304H36.5959V28.4661H69.2031V30.4304H69.205ZM36.5959 36.5381H69.2031V65.8821H67.3784V44.34C67.3784 43.7686 66.9138 43.304 66.3425 43.304H54.2182C53.6468 43.304 53.1822 43.7686 53.1822 44.34V65.8821H44.3105C44.6081 65.4303 44.8293 64.9244 44.9526 64.382H48.0996C48.671 64.382 49.1355 63.9174 49.1355 63.3461V55.4663C49.1355 54.5451 48.7582 53.707 48.1522 53.101H48.1489C47.6046 52.5567 46.8737 52.2013 46.0664 52.1324L44.4031 46.5472L44.4283 46.5454C44.9944 46.4675 45.3879 45.945 45.31 45.3793C45.1302 44.0876 44.4828 42.9429 43.5451 42.1285C42.6182 41.3213 41.4081 40.8315 40.0893 40.8315H36.5974V36.5381H36.5959ZM32.5289 65.8821V64.382H35.97C36.0953 64.9244 36.3146 65.4322 36.6121 65.8821H32.5289ZM22.9061 64.382H30.4574V65.8821H22.264C22.5615 65.4322 22.7808 64.9259 22.9061 64.382ZM38.6674 65.14C38.2085 64.681 37.9238 64.0465 37.9238 63.3461C37.9238 62.646 38.2085 62.0111 38.6674 61.5522C39.1263 61.0933 39.7609 60.8104 40.4613 60.8104C41.1614 60.8104 41.7963 61.0951 42.2552 61.5522C42.7123 62.0092 42.997 62.6423 42.997 63.3408C42.997 63.3427 42.997 63.3442 42.997 63.3461C42.997 63.3479 42.997 63.3498 42.997 63.3517C42.9955 64.0498 42.7123 64.6829 42.2571 65.1418C41.7982 65.5989 41.1632 65.8821 40.4613 65.8821C39.7594 65.8821 39.1245 65.5992 38.6674 65.14ZM59.856 45.3755H65.3084V50.8302H59.856V45.3755ZM55.2537 52.9032H57.7845V58.3578H55.2537V52.9032ZM65.3084 58.356H59.856V52.9032H65.3084V58.356ZM57.7826 50.8302H55.2522V45.3755H57.7826V50.8302ZM55.2537 60.4293H57.7845V65.884H55.2537V60.4293ZM59.856 65.8821V60.4275H65.3084V65.8821H59.856ZM42.2443 46.5563L43.9024 52.1196H38.6599L38.74 46.5582L42.2443 46.5563ZM35.5547 42.903C35.5562 42.903 35.5581 42.903 35.56 42.903C35.5619 42.903 35.5638 42.903 35.5656 42.903H40.0874C40.8875 42.903 41.6203 43.2006 42.1826 43.6903C42.4441 43.9172 42.669 44.1857 42.8447 44.4848H37.7203C37.1489 44.4848 36.6847 44.9493 36.6847 45.5207L36.5775 53.1428C36.5704 53.7123 37.0274 54.1802 37.5973 54.1878C38.0468 54.3326 44.3722 54.1911 45.7832 54.1911C46.1353 54.1911 46.4546 54.3345 46.6849 54.5665C46.9169 54.799 47.0603 55.118 47.0603 55.4663V62.3105H44.9489C44.7514 61.4544 44.3177 60.6889 43.7173 60.0882C42.883 59.2538 41.7309 58.7389 40.4576 58.7389C39.1843 58.7389 38.0325 59.2557 37.1982 60.0882C36.5974 60.6889 36.1641 61.4544 35.9662 62.3105H32.5252V42.903H35.5547ZM35.3949 22.46L52.9012 12.2733L70.4076 22.46H35.3949ZM40.0152 12.1115H49.0648L31.2774 22.4638L22.2312 22.4619L40.0152 12.1115ZM19.4341 24.5315H30.521L30.4664 34.8183H19.4341V24.5315ZM13.0635 65.14L13.0184 65.1873C12.5629 65.6192 11.9482 65.8821 11.2696 65.8821C10.5696 65.8821 9.93465 65.5974 9.47574 65.14C9.01683 64.681 8.73207 64.0465 8.73207 63.3461C8.73207 62.646 9.01683 62.0111 9.47574 61.5522C9.93465 61.0933 10.5696 60.8104 11.2696 60.8104C11.97 60.8104 12.6046 61.0951 13.0635 61.5522C13.5224 62.0111 13.8072 62.646 13.8072 63.3461C13.8072 64.0465 13.5224 64.681 13.0635 65.14ZM15.1568 60.0882C15.0463 60.1991 14.9409 60.315 14.8431 60.4365C14.7453 60.315 14.64 60.1991 14.5294 60.0882C13.6951 59.2538 12.5429 58.7389 11.2696 58.7389C9.99634 58.7389 8.84455 59.2557 8.01023 60.0882C7.40951 60.6889 6.97617 61.4544 6.77831 62.3105H4.79408V36.8917H30.4574V41.8603C30.4574 41.8618 30.4574 41.8656 30.4574 41.8675V62.3105H22.9079C22.7101 61.4544 22.2768 60.687 21.676 60.0882C20.8417 59.2538 19.6899 58.7389 18.4166 58.7389C17.1433 58.7389 15.9897 59.2538 15.1568 60.0882ZM15.8791 63.3461C15.8791 62.646 16.1638 62.0111 16.6227 61.5522C17.0816 61.0933 17.7162 60.8104 18.4166 60.8104C19.1167 60.8104 19.7516 61.0951 20.2105 61.5522C20.6694 62.0111 20.9542 62.646 20.9542 63.3461C20.9542 64.0465 20.6694 64.681 20.2105 65.14L20.1654 65.1873C19.7117 65.6173 19.0967 65.8821 18.4185 65.8821H18.4147H18.4129C17.7128 65.8821 17.0779 65.5974 16.6208 65.14C16.1638 64.681 15.8791 64.0465 15.8791 63.3461ZM73.2062 65.8821H71.278V27.4302C71.278 26.8588 70.8138 26.3946 70.2425 26.3946H35.56C34.9886 26.3946 34.5244 26.8588 34.5244 27.4302V40.8315H32.5308V35.8561C32.5308 35.8271 32.5289 35.7997 32.527 35.7726L32.5868 24.5334H73.2081V65.8821H73.2062ZM16.8928 54.1569C16.8894 54.155 16.8857 54.1513 16.8838 54.1494C16.8511 54.1223 16.8202 54.0952 16.7912 54.0663L11.8192 49.0923C11.3603 48.6334 11.3603 47.8897 11.8192 47.4327C12.2781 46.9734 13.0218 46.9734 13.4792 47.4327L16.452 50.4055V42.8504C16.452 42.203 16.9782 41.6768 17.6256 41.6768C18.2733 41.6768 18.7992 42.203 18.7992 42.8504V50.4055L21.7723 47.4327C22.2312 46.9734 22.9749 46.9734 23.4319 47.4327C23.8908 47.8916 23.8908 48.6353 23.4319 49.0923L18.4584 54.0663C18.4294 54.0952 18.3986 54.1223 18.3658 54.1494C18.3621 54.1531 18.3568 54.155 18.3531 54.1584C18.3278 54.1787 18.3004 54.1987 18.2733 54.2167C18.2643 54.222 18.2553 54.2276 18.2477 54.2329C18.2244 54.2476 18.1988 54.2637 18.1755 54.2765C18.1661 54.2803 18.159 54.2837 18.1499 54.2893C18.1243 54.3017 18.0973 54.3145 18.0702 54.3254C18.063 54.3273 18.0574 54.3311 18.0502 54.3326C18.0213 54.3435 17.9904 54.3544 17.9611 54.3634C17.9577 54.3653 17.9558 54.3653 17.9521 54.3653C17.8486 54.3961 17.7399 54.4127 17.6256 54.4127C17.5116 54.4127 17.4025 54.3961 17.2991 54.3653C17.2976 54.3653 17.2938 54.3634 17.2919 54.3634C17.2611 54.3544 17.2302 54.3435 17.2013 54.3311C17.1956 54.3292 17.1885 54.3273 17.1832 54.3235C17.1557 54.3126 17.1287 54.3002 17.1016 54.2856C17.0941 54.2818 17.085 54.2784 17.0779 54.2746C17.0527 54.2604 17.0271 54.2457 17.0015 54.2295C16.9944 54.2239 16.9853 54.2201 16.9782 54.2148C16.9474 54.1987 16.9203 54.1787 16.8928 54.1569Z" fill="#AF7B20"/>
</g>
</svg>
