<svg width="84" height="83" viewBox="0 0 84 83" fill="none" xmlns="http://www.w3.org/2000/svg">
<mask id="mask0_593_1184" style="mask-type:luminance" maskUnits="userSpaceOnUse" x="0" y="10" width="80" height="63">
<path d="M0.939453 10.3887H79.495V72.6387H0.939453V10.3887Z" fill="white"/>
</mask>
<g mask="url(#mask0_593_1184)">
<path fill-rule="evenodd" clip-rule="evenodd" d="M79.523 45.7072C78.7724 33.6363 69.4232 23.8244 57.4706 22.1869V18.9287H63.2221C64.7979 18.9287 66.0727 17.6663 66.0727 16.112V13.2093C66.0727 11.655 64.7979 10.3926 63.2221 10.3926H44.6425C43.0667 10.3926 41.7919 11.655 41.7919 13.2093V16.1124C41.7919 17.6663 43.0667 18.9291 44.6425 18.9291H50.394V22.1873C47.7139 22.5552 45.1647 23.3337 42.8058 24.4565H31.2526C30.5902 24.4565 30.0584 24.984 30.0584 25.6337C30.0584 26.2853 30.5902 26.8109 31.2526 26.8109H38.8408C35.7592 29.0412 33.1897 31.9335 31.3628 35.2778H2.14343C1.48111 35.2778 0.949219 35.8053 0.949219 36.455C0.949219 37.1058 1.48111 37.6314 2.14343 37.6314H30.2285C29.1343 40.2615 28.4619 43.1131 28.3213 46.0987H11.0267C10.3644 46.0987 9.83249 46.6262 9.83249 47.2759C9.83249 47.9263 10.3644 48.4531 11.0267 48.4531H28.3213C28.4619 51.4391 29.1343 54.2886 30.2285 56.9208H19.8999C19.2477 56.9208 18.7056 57.4467 18.7056 58.098C18.7056 58.7476 19.2477 59.2752 19.8999 59.2752H31.3628C33.1897 62.6174 35.7592 65.5118 38.8408 67.7413H25.3402C24.6779 67.7413 24.146 68.2668 24.146 68.9185C24.146 69.5681 24.6779 70.0957 25.3402 70.0957H42.8058C46.1782 71.7043 49.9525 72.6082 53.9374 72.6082C67.5391 72.6082 78.7031 62.0811 79.523 48.8373V45.7072ZM53.9374 52.0563C56.3059 52.0563 58.2334 53.9592 58.2334 56.2992C58.2334 58.6407 56.3059 60.5448 53.9374 60.5448C51.5684 60.5448 49.6409 58.6407 49.6409 56.2992C49.6409 53.9592 51.5684 52.0563 53.9374 52.0563ZM53.9374 54.4095C54.991 54.4095 55.8441 55.2577 55.8441 56.2992C55.8441 57.3415 54.991 58.1904 53.9374 58.1904C52.8833 58.1904 52.0201 57.3415 52.0201 56.2992C52.0201 55.2577 52.8833 54.4095 53.9374 54.4095ZM40.3262 50.3323C40.788 50.7986 40.7779 51.5443 40.3064 51.9979C39.8345 52.4502 39.0818 52.4389 38.62 51.973L37.777 51.1189C39.5132 58.3838 46.0579 63.6833 53.9374 63.6833C59.7391 63.6833 65.0288 60.7642 68.0804 55.8729C68.4214 55.3205 69.1543 55.1476 69.7165 55.4898C70.2784 55.83 70.4489 56.5553 70.1078 57.1097C66.6147 62.6995 60.5724 66.0377 53.9374 66.0377C45.0334 66.0377 37.3358 59.914 35.4181 51.4295L34.8259 52.453C34.5047 53.0193 33.7718 53.2179 33.1999 52.8973C32.6275 52.5758 32.4269 51.859 32.7579 51.2918L35.0969 47.2054C35.5194 46.4865 36.4621 46.3921 37.0041 46.9524L40.3262 50.3323ZM57.7416 35.0684C59.2874 36.1772 59.2975 37.4945 59.1667 38.1829L57.2498 48.1901C56.7029 51.0568 51.1722 51.0532 50.6148 48.1921L48.6975 38.1829C48.2316 35.7369 50.8781 34.0077 53.7364 34.0077H54.1282C55.533 34.0073 56.7779 34.3752 57.7416 35.0684ZM54.1282 36.3617C55.0311 36.3617 55.7842 36.567 56.3464 36.9725C56.8982 37.3696 56.8484 37.6314 56.8281 37.7442L54.9209 47.7098C54.8776 47.7954 54.4782 47.9895 53.9074 47.9895C53.365 47.9895 53.034 47.7962 52.9538 47.7098L51.0466 37.7442C51.0264 37.6314 50.9664 37.3696 51.5283 36.9725C52.3016 36.4205 53.0842 36.3617 54.1282 36.3617ZM53.9374 30.8692C48.1255 30.8692 42.8459 33.788 39.7842 38.6797C39.4431 39.232 38.7103 39.4046 38.1481 39.0623C37.5963 38.7225 37.4157 37.9972 37.7669 37.444C41.2499 31.8535 47.2922 28.5156 53.9374 28.5156C62.772 28.5156 70.4198 34.5445 72.4063 42.9325L72.8779 42.0559C73.1793 41.4776 73.9019 41.2554 74.4841 41.5548C75.0662 41.8566 75.2869 42.5675 74.986 43.1431L72.7875 47.3063C72.4075 48.042 71.456 48.1725 70.8905 47.6257L67.4476 44.3687C66.9761 43.9184 66.9558 43.1727 67.4176 42.7036C67.8693 42.2345 68.622 42.2185 69.104 42.6696L70.1374 43.6546C68.4915 36.2776 61.897 30.8692 53.9374 30.8692ZM53.9374 24.2988C66.7549 24.2988 77.184 34.6065 77.184 47.2759C77.184 59.9472 66.7549 70.2546 53.9374 70.2546C41.1093 70.2546 30.6802 59.9472 30.6802 47.2759C30.6802 34.6065 41.1093 24.2988 53.9374 24.2988ZM55.0915 18.9287V21.9728H52.7828V18.9287H55.0915ZM63.6936 16.112C63.6936 16.363 63.483 16.5752 63.2221 16.5752H44.6425C44.3918 16.5752 44.171 16.363 44.171 16.112V13.2093C44.171 12.9583 44.3918 12.7462 44.6425 12.7462H63.2221C63.483 12.7462 63.6936 12.9583 63.6936 13.2093V16.112Z" fill="#AF7B20"/>
</g>
</svg>
