<svg width="74" height="74" viewBox="0 0 74 74" fill="none" xmlns="http://www.w3.org/2000/svg">
<path d="M31.4824 49.2061V51.4268C33.6996 51.4268 31.4824 51.4268 33.6996 51.4268V49.2061H31.4824Z" fill="#AF7B20"/>
<path d="M40.3545 49.2061V51.4268C42.5717 51.4268 40.3545 51.4268 42.5717 51.4268V49.2061H40.3545Z" fill="#AF7B20"/>
<path d="M35.917 49.2061V51.4268C38.1381 51.4268 35.917 51.4268 38.1381 51.4268V49.2061H35.917Z" fill="#AF7B20"/>
<path d="M63.6447 59.1894H10.4086V29.2436H13.7364V27.0264H8.19141V61.4066H65.8619V27.0264H60.3172V29.2436H63.6447V59.1894Z" fill="#AF7B20"/>
<path d="M20.1735 14.1463L24.9612 16.9091C23.77 19.1338 22.8632 21.4278 22.2601 23.6989C22.1794 24.0026 22.1023 24.3023 22.0331 24.6057C20.6884 24.2599 19.4087 24.0333 18.225 23.9294C18.2214 23.8527 18.2175 23.776 18.2135 23.6989C18.0215 20.4864 18.6439 17.1932 20.1735 14.1463ZM28.7847 5.64603C29.4648 6.61849 30.2988 7.60987 31.271 8.60482C29.3457 10.3995 27.5781 12.5589 26.0718 14.9877L21.284 12.2249C23.2015 9.3082 25.8184 7.07957 28.7847 5.64603ZM38.914 3.83992C37.984 4.15147 37.0386 4.56258 36.0819 5.08111C35.0177 5.66138 33.9724 6.35691 32.9618 7.15237C32.1663 6.34942 31.4708 5.55396 30.8945 4.7817C33.4496 3.90166 36.1897 3.5712 38.914 3.83992ZM45.4389 5.80377L41.062 13.3854C38.6528 11.9251 36.4509 10.3149 34.5987 8.68939C35.4288 8.05917 36.2778 7.5021 37.1425 7.02961C39.1791 5.92296 41.1426 5.36161 42.9141 5.36161C43.8095 5.36161 44.6549 5.51542 45.4389 5.80377ZM47.3639 6.90256C49.9348 9.02771 50.9108 13.0664 50.2959 17.7467C47.9595 16.9591 45.4582 15.8521 42.9833 14.4956L47.3639 6.90256ZM51.9982 20.5788C53.3546 20.9285 54.6383 21.1551 55.8256 21.259C55.8834 22.0698 55.8869 22.8841 55.8409 23.6989C55.7563 25.1859 55.4912 26.6769 55.0455 28.1372C54.7421 29.1211 54.3538 30.0932 53.8814 31.0421L49.0893 28.2793C49.1165 28.2293 49.1393 28.1833 49.1625 28.1372C49.9426 26.6655 50.5843 25.1784 51.1028 23.6989C51.4679 22.65 51.7637 21.6087 51.9982 20.5788ZM55.5219 18.9993C54.5498 18.884 53.5045 18.6767 52.4018 18.3844C52.7476 15.9174 52.7015 13.5735 52.2633 11.4987C53.8928 13.7466 54.9955 16.3096 55.5219 18.9993ZM45.2698 39.5424C44.5896 38.5699 43.752 37.5785 42.7796 36.5836C44.7049 34.7889 46.4724 32.6291 47.9827 30.2006L52.7708 32.9635C50.8494 35.8802 48.2325 38.1053 45.2698 39.5424ZM35.1365 41.3485C36.0665 41.0369 37.0158 40.6258 37.9686 40.1034C39.0332 39.5231 40.0784 38.8276 41.0927 38.036C41.8881 38.835 42.5801 39.6305 43.16 40.4067C40.6009 41.2867 37.8612 41.6172 35.1365 41.3485ZM28.6119 39.3925L32.9886 31.803C35.3981 33.2633 37.6 34.8735 39.4521 36.499C38.6221 37.1292 37.7727 37.6863 36.908 38.1552C33.8418 39.8264 30.9405 40.2493 28.6119 39.3925ZM35.5095 22.9994L35.1059 23.6989L32.5468 28.1372L32.1778 28.7714C31.7781 28.5562 31.3823 28.341 30.9865 28.1372C28.658 26.9267 26.3487 25.9468 24.1657 25.2323C24.2774 24.7209 24.408 24.2099 24.5579 23.6989C25.1075 21.8046 25.8912 19.8872 26.8865 18.0193L35.5095 22.9994ZM36.62 21.0784L27.9931 16.0983C29.4188 13.8158 31.079 11.7981 32.8772 10.1383C34.8832 11.9326 37.2849 13.6927 39.9514 15.3064L36.62 21.0784ZM46.0574 29.0901C44.6356 31.369 42.9758 33.39 41.1737 35.0501C39.1716 33.2558 36.766 31.4918 34.0991 29.882L35.1059 28.1372L37.4308 24.11L44.409 28.1372L46.0574 29.0901ZM41.1619 23.6989L38.5414 22.1886L41.8728 16.417C44.6049 17.9194 47.3371 19.1224 49.8962 19.96C49.6157 21.1858 49.2353 22.4384 48.7514 23.6989C48.3092 24.8555 47.7828 26.016 47.168 27.1687L41.1619 23.6989ZM26.6866 38.2819C24.7806 36.691 23.6932 33.9702 23.6047 30.4776C23.5858 29.7128 23.6201 28.9288 23.6932 28.1372C23.7164 27.9067 23.7432 27.6762 23.77 27.4456C24.3848 27.653 25.0111 27.8835 25.6492 28.1372C27.4207 28.8367 29.2497 29.6975 31.0672 30.6963L26.6866 38.2819ZM19.0204 28.1372C18.8209 27.4956 18.6593 26.8461 18.5326 26.1891C19.4933 26.3044 20.5307 26.5078 21.622 26.7961C21.5567 27.2458 21.5067 27.6915 21.4682 28.1372C21.3993 28.948 21.3686 29.7474 21.3875 30.5311C21.4146 31.6188 21.5338 32.6448 21.7298 33.6052C20.5268 31.93 19.616 30.0815 19.0204 28.1372ZM15.9963 23.6989C16.077 25.2013 16.3154 26.6887 16.7072 28.1372C18.029 32.9789 21.061 37.3558 25.5454 40.2647L25.53 40.2879L26.4101 40.795C26.4368 40.8103 26.464 40.8257 26.4907 40.8449C26.51 40.8563 26.5328 40.8642 26.556 40.8795L27.4514 41.3945L27.4707 41.3674C30.5062 42.9162 33.7647 43.6617 36.9887 43.6617C43.9287 43.6617 50.6917 40.23 54.6882 34.0702L54.7228 34.0894L55.8295 32.1681L55.8063 32.1527C56.4711 30.8501 56.9822 29.5015 57.3551 28.1372C57.7544 26.673 57.9853 25.1859 58.062 23.6989C58.431 16.3902 54.9841 9.12763 48.5091 4.92373L48.5208 4.90053L47.6408 4.39343C47.6176 4.37808 47.5909 4.35881 47.5602 4.34346C47.533 4.32812 47.5063 4.31277 47.4792 4.29743L46.5995 3.78996L46.5877 3.81316C37.0044 -1.07093 25.211 2.09163 19.3548 11.1104L19.332 11.095L18.2214 13.0164L18.2482 13.0318C16.5152 16.4323 15.8004 20.1059 15.9963 23.6989Z" fill="#AF7B20"/>
<path d="M55.5993 47.7616C55.4377 48.1228 55.2225 48.4418 54.9538 48.6798C54.5887 49.0103 54.143 49.2066 53.6626 49.2066C53.1937 49.2066 52.7594 49.0221 52.4022 48.7109C52.1292 48.4725 51.9065 48.1574 51.7412 47.7962C51.5567 47.3926 51.4454 46.9315 51.4454 46.4358C51.4454 44.9063 52.4407 43.6616 53.6626 43.6616C54.8845 43.6616 55.8798 44.9063 55.8798 46.4358C55.8798 46.9162 55.7721 47.3658 55.5993 47.7616ZM53.6626 41.4443C51.2149 41.4443 49.2243 43.6844 49.2243 46.4358C49.2243 47.262 49.4088 48.0421 49.7278 48.7298C47.8678 49.5905 45.9004 50.6551 45.9004 53.56V56.9723H48.1176V53.56C48.1176 52.1115 48.7286 51.6272 50.9879 50.5937L51.1303 50.5284C51.8487 51.0933 52.7212 51.4273 53.6626 51.4273C54.6154 51.4273 55.4955 51.0815 56.2217 50.5052L56.3984 50.5898C58.5428 51.6004 59.2076 52.1421 59.2076 53.56V56.9723H61.4248V53.56C61.4248 50.6551 59.3728 49.5484 57.6049 48.7069C57.92 48.0268 58.097 47.2545 58.097 46.4358C58.097 43.6844 56.1104 41.4443 53.6626 41.4443Z" fill="#AF7B20"/>
<mask id="mask0_601_2225" style="mask-type:luminance" maskUnits="userSpaceOnUse" x="1" y="22" width="72" height="51">
<path d="M1.53613 22.5654H72.4528V72.4965H1.53613V22.5654Z" fill="white"/>
</mask>
<g mask="url(#mask0_601_2225)">
<path d="M70.2966 66.9515C70.2966 67.3398 70.2277 67.7163 70.1046 68.0621C69.6436 69.3532 68.4138 70.2793 66.9728 70.2793H7.08114C5.63618 70.2793 4.40677 69.3532 3.94927 68.0621C3.82258 67.7163 3.75335 67.3398 3.75335 66.9515V65.8448H27.6931L28.8037 66.9515H45.2502L46.3569 65.8448H70.2966V66.9515ZM70.2966 63.6276V27.0262C70.2966 24.5785 68.3099 22.5879 65.8622 22.5879H60.3175V24.809H65.8622C67.0845 24.809 68.0794 25.8043 68.0794 27.0262V63.6276H45.4387L44.332 64.7343H29.7222L28.6117 63.6276H5.97057V27.0262C5.97057 25.8043 6.96587 24.809 8.19171 24.809H13.7367V22.5879H8.19171C5.74396 22.5879 3.75335 24.5785 3.75335 27.0262V63.6276H1.53613V66.9515C1.53613 70.0102 4.02243 72.4965 7.08114 72.4965H66.9728C70.0279 72.4965 72.5178 70.0102 72.5178 66.9515V63.6276H70.2966Z" fill="#AF7B20"/>
</g>
<path d="M20.3882 43.6616C21.614 43.6616 22.6093 44.9063 22.6093 46.4358C22.6093 46.9162 22.4976 47.3658 22.3249 47.7616C22.1672 48.1228 21.9481 48.4418 21.6793 48.6798C21.3143 49.0103 20.8721 49.2066 20.3882 49.2066C19.9232 49.2066 19.4889 49.0221 19.1277 48.7109C18.8547 48.4725 18.636 48.1574 18.4707 47.7962C18.2862 47.3926 18.171 46.9315 18.171 46.4358C18.171 44.9063 19.1663 43.6616 20.3882 43.6616ZM12.626 53.56V56.9723H14.8432V53.56C14.8432 52.1115 15.4541 51.6272 17.7174 50.5937L17.8559 50.5284C18.5742 51.0933 19.4468 51.4273 20.3882 51.4273C21.341 51.4273 22.225 51.0815 22.9473 50.5052L23.1239 50.5898C25.2684 51.6004 25.9332 52.1421 25.9332 53.56V56.9723H28.154V53.56C28.154 50.6551 26.102 49.5484 24.3344 48.7069C24.6456 48.0268 24.8266 47.2545 24.8266 46.4358C24.8266 43.6844 22.8359 41.4443 20.3882 41.4443C17.944 41.4443 15.9538 43.6844 15.9538 46.4358C15.9538 47.262 16.1383 48.0421 16.4534 48.7298C14.5934 49.5905 12.626 50.6551 12.626 53.56Z" fill="#AF7B20"/>
</svg>
