<svg width="84" height="84" viewBox="0 0 84 84" fill="none" xmlns="http://www.w3.org/2000/svg">
<mask id="mask0_597_2197" style="mask-type:luminance" maskUnits="userSpaceOnUse" x="27" y="33" width="32" height="48">
<path d="M27.6885 33.2891H58.0737V80.2632H27.6885V33.2891Z" fill="white"/>
</mask>
<g mask="url(#mask0_597_2197)">
<path d="M49.4063 46.9383C48.9295 46.9395 48.4701 47.0303 48.0286 47.2097C47.997 47.0866 47.9593 46.9651 47.9151 46.846C47.8706 46.7265 47.8203 46.6098 47.764 46.496C47.7077 46.3817 47.6453 46.2707 47.5773 46.1634C47.5092 46.0556 47.4355 45.9519 47.3569 45.8523C47.2779 45.7526 47.1941 45.657 47.1049 45.5659C47.0158 45.4747 46.9227 45.3888 46.8246 45.3074C46.7266 45.2264 46.6249 45.1502 46.5188 45.0798C46.413 45.0093 46.3037 44.9445 46.1907 44.8853C46.078 44.8262 45.9626 44.7731 45.8443 44.7261C45.726 44.6791 45.6057 44.6382 45.483 44.6038C45.3606 44.5697 45.2367 44.5418 45.1111 44.5203C44.9855 44.4988 44.8595 44.4843 44.7323 44.4758C44.6055 44.4677 44.4783 44.4664 44.3511 44.4713C44.2239 44.4766 44.0975 44.4883 43.9716 44.507C43.8456 44.5252 43.7208 44.5503 43.5977 44.5815C43.4745 44.6131 43.353 44.6512 43.2335 44.6953V37.0622C43.2335 36.9406 43.2278 36.8199 43.2157 36.6992C43.2039 36.5785 43.1861 36.4586 43.1626 36.3395C43.1387 36.2208 43.1095 36.1029 43.0743 35.987C43.039 35.8708 42.9981 35.757 42.9515 35.6447C42.9054 35.5325 42.8535 35.4232 42.7964 35.3162C42.7393 35.2093 42.6769 35.1052 42.6096 35.0043C42.542 34.9038 42.4699 34.8062 42.3929 34.7126C42.3159 34.6186 42.2345 34.5291 42.149 34.4432C42.0632 34.3574 41.9732 34.2759 41.8797 34.1994C41.7857 34.1224 41.6885 34.0499 41.5876 33.9826C41.4867 33.9154 41.383 33.853 41.2761 33.7959C41.1691 33.7388 41.0593 33.6869 40.9475 33.6403C40.8353 33.5942 40.7211 33.5532 40.6052 33.518C40.489 33.4828 40.3715 33.4532 40.2524 33.4297C40.1337 33.4062 40.0138 33.3884 39.8931 33.3762C39.7724 33.3645 39.6512 33.3584 39.5301 33.3584C39.4086 33.3584 39.2879 33.3645 39.1672 33.3762C39.0464 33.3884 38.9265 33.4062 38.8074 33.4297C38.6887 33.4532 38.5709 33.4828 38.455 33.518C38.3387 33.5532 38.2249 33.5942 38.1127 33.6403C38.0009 33.6869 37.8911 33.7388 37.7842 33.7959C37.6772 33.853 37.5731 33.9154 37.4727 33.9826C37.3718 34.0499 37.2742 34.1224 37.1806 34.1994C37.0866 34.2759 36.9971 34.3574 36.9112 34.4432C36.8253 34.5291 36.7443 34.6186 36.6673 34.7126C36.5904 34.8062 36.5179 34.9038 36.4506 35.0043C36.3834 35.1052 36.321 35.2093 36.2639 35.3162C36.2067 35.4232 36.1549 35.5325 36.1083 35.6447C36.0621 35.757 36.0212 35.8708 35.986 35.987C35.9507 36.1029 35.9211 36.2208 35.8977 36.3395C35.8742 36.4586 35.8563 36.5785 35.8442 36.6992C35.8324 36.8199 35.8264 36.9406 35.8264 37.0622V57.2564L35.2819 56.6391C35.2361 56.5876 35.1863 56.5406 35.1328 56.4973C35.0235 56.4118 34.9104 56.3312 34.7938 56.2563C34.6771 56.1809 34.5572 56.1112 34.4341 56.0468C34.3109 55.9824 34.1853 55.9241 34.0569 55.8714C33.9285 55.8183 33.7981 55.7714 33.6656 55.7304C33.5327 55.6895 33.3986 55.6547 33.2625 55.6263C33.1268 55.5976 32.9899 55.5749 32.8522 55.5587C32.7144 55.5425 32.5759 55.5328 32.4374 55.5291C32.2984 55.5255 32.1599 55.5283 32.0213 55.5372C31.8828 55.5461 31.745 55.5615 31.6077 55.5834C31.4708 55.6049 31.3347 55.6328 31.2002 55.6668C31.0657 55.7005 30.9328 55.7406 30.802 55.7868C30.6711 55.8329 30.5423 55.8848 30.4163 55.9427C30.29 56.0006 30.1668 56.0638 30.0461 56.1331C29.9258 56.202 29.8087 56.2765 29.6953 56.3563C29.5814 56.4361 29.4717 56.5208 29.3659 56.6103C29.2598 56.7002 29.1585 56.7946 29.0609 56.8935C28.9637 56.9927 28.8713 57.0956 28.7834 57.2034C28.6955 57.3107 28.6125 57.4217 28.5347 57.5368C28.4569 57.6518 28.3848 57.7701 28.3176 57.8916C28.2507 58.0135 28.1896 58.1379 28.1336 58.2651C28.0782 58.3923 28.0283 58.5215 27.9846 58.6532C27.9408 58.7848 27.9032 58.9185 27.8716 59.0534C27.8396 59.1887 27.8144 59.3252 27.795 59.4626C27.776 59.5999 27.763 59.738 27.7561 59.877C27.7496 60.0155 27.7492 60.1541 27.7553 60.2926C27.7614 60.4315 27.7735 60.5697 27.7922 60.707C27.8108 60.8447 27.8355 60.9813 27.8667 61.1166C27.8975 61.2519 27.9347 61.3855 27.9781 61.5172C28.021 61.6493 28.0705 61.7789 28.1255 61.9065C28.1802 62.0337 28.241 62.1585 28.3074 62.2804C28.3739 62.4023 28.446 62.521 28.5229 62.6365C28.6003 62.7515 28.6825 62.8633 28.77 62.9711L34.7363 71.8758C34.7816 71.9427 34.8327 72.0046 34.8894 72.0622C35.6753 72.8488 36.558 73.5055 37.5375 74.0313V80.2705H40.0065V73.256C40.0065 73.1352 39.9895 73.017 39.9547 72.9015C39.9202 72.7857 39.8696 72.6775 39.8032 72.5766C39.7367 72.4758 39.6573 72.3866 39.565 72.3093C39.4722 72.2315 39.3705 72.1691 39.2595 72.1213C38.3071 71.7012 37.4601 71.1256 36.7192 70.3944L30.7846 61.5391C30.7574 61.4957 30.7275 61.4544 30.6946 61.4155C30.5322 61.2251 30.4078 61.0124 30.3211 60.7775C30.2345 60.5429 30.1903 60.3003 30.1895 60.0504C30.1891 59.9539 30.1952 59.8583 30.2077 59.7627C30.2207 59.6675 30.2397 59.5736 30.2652 59.4808C30.2912 59.3884 30.3228 59.2977 30.3613 59.2094C30.3993 59.1211 30.4435 59.036 30.4933 58.9538C30.5435 58.8715 30.5986 58.7934 30.6594 58.7188C30.7206 58.6443 30.7862 58.5742 30.8567 58.509C30.9272 58.4433 31.0017 58.3834 31.0803 58.3283C31.1593 58.2728 31.2415 58.2234 31.327 58.1796C31.4129 58.1363 31.5012 58.0986 31.5919 58.067C31.6827 58.0354 31.7754 58.0103 31.8698 57.9917C31.9642 57.9726 32.0594 57.9605 32.1554 57.9552C32.2514 57.9495 32.347 57.9508 32.443 57.9585C32.539 57.9662 32.6338 57.9803 32.7278 58.001C32.8218 58.0221 32.9137 58.0492 33.0037 58.0828C33.094 58.1164 33.1811 58.1557 33.2658 58.2015C33.3504 58.2473 33.4319 58.2983 33.5092 58.355L36.1375 61.3292C36.2205 61.4224 36.3153 61.5014 36.4222 61.5662C36.5292 61.631 36.643 61.678 36.7641 61.708C36.8853 61.7384 37.0084 61.7497 37.1332 61.7424C37.2575 61.7351 37.3787 61.7092 37.4953 61.6655C37.6124 61.6217 37.7202 61.5613 37.8186 61.4848C37.917 61.4078 38.0021 61.3183 38.0738 61.2162C38.1451 61.1137 38.1998 61.0027 38.2375 60.884C38.2755 60.7649 38.2946 60.643 38.2954 60.5182V37.0622C38.2954 36.9811 38.3035 36.9009 38.3193 36.8211C38.3351 36.7417 38.3586 36.6644 38.3894 36.5898C38.4206 36.5149 38.4586 36.4436 38.5036 36.3763C38.5486 36.3087 38.5996 36.2463 38.6571 36.1892C38.7143 36.1317 38.7766 36.0806 38.8443 36.0357C38.9115 35.9907 38.9828 35.9526 39.0578 35.9214C39.1323 35.8906 39.2097 35.8671 39.2891 35.8513C39.3689 35.8355 39.4491 35.8274 39.5301 35.8274C39.6111 35.8274 39.6913 35.8355 39.7707 35.8513C39.8505 35.8671 39.9275 35.8906 40.0025 35.9214C40.0774 35.9526 40.1487 35.9907 40.2159 36.0357C40.2832 36.0806 40.3456 36.1317 40.4031 36.1892C40.4602 36.2463 40.5117 36.3087 40.5566 36.3763C40.6016 36.4436 40.6397 36.5149 40.6705 36.5898C40.7016 36.6644 40.7251 36.7417 40.7409 36.8211C40.7567 36.9009 40.7644 36.9811 40.7644 37.0622V55.5802H43.2335V48.1726C43.2335 48.0916 43.2416 48.0114 43.2574 47.932C43.2732 47.8526 43.2967 47.7752 43.3275 47.7003C43.3587 47.6254 43.3967 47.5545 43.4417 47.4868C43.4867 47.4196 43.5381 47.3572 43.5952 47.3001C43.6523 47.2425 43.7147 47.1915 43.7824 47.1465C43.8496 47.1012 43.9209 47.0631 43.9959 47.0323C44.0708 47.0011 44.1478 46.978 44.2272 46.9622C44.307 46.946 44.3872 46.9383 44.4682 46.9383C44.5492 46.9383 44.6294 46.946 44.7088 46.9622C44.7886 46.978 44.8656 47.0011 44.9405 47.0323C45.0155 47.0631 45.0868 47.1012 45.154 47.1465C45.2213 47.1915 45.2836 47.2425 45.3412 47.3001C45.3983 47.3572 45.4497 47.4196 45.4947 47.4868C45.5397 47.5545 45.5777 47.6254 45.6085 47.7003C45.6397 47.7752 45.6632 47.8526 45.679 47.932C45.6948 48.0114 45.7025 48.0916 45.7025 48.1726V55.5802H48.1716V50.6417C48.1716 50.5607 48.1797 50.4804 48.1955 50.401C48.2113 50.3216 48.2348 50.2443 48.2655 50.1693C48.2967 50.0944 48.3348 50.0235 48.3798 49.9559C48.4247 49.8886 48.4762 49.8262 48.5333 49.7691C48.5908 49.7116 48.6528 49.6605 48.7205 49.6156C48.7877 49.5702 48.859 49.5325 48.9339 49.5013C49.0089 49.4701 49.0858 49.4471 49.1652 49.4313C49.2451 49.4155 49.3253 49.4074 49.4063 49.4074C49.4873 49.4074 49.5675 49.4155 49.6473 49.4313C49.7267 49.4471 49.8037 49.4701 49.8786 49.5013C49.9536 49.5325 50.0249 49.5702 50.0921 49.6156C50.1593 49.6605 50.2217 49.7116 50.2793 49.7691C50.3364 49.8262 50.3878 49.8886 50.4328 49.9559C50.4777 50.0235 50.5158 50.0944 50.5466 50.1693C50.5778 50.2443 50.6013 50.3216 50.6171 50.401C50.6329 50.4804 50.6406 50.5607 50.6406 50.6417V55.5802H53.11V53.1111C53.11 53.0297 53.1177 52.9495 53.1335 52.8701C53.1493 52.7907 53.1728 52.7133 53.2036 52.6384C53.2348 52.5634 53.2729 52.4925 53.3179 52.4249C53.3628 52.3576 53.4143 52.2953 53.4714 52.2381C53.5289 52.1806 53.5913 52.1296 53.6585 52.0846C53.7258 52.0392 53.7971 52.0016 53.872 51.9704C53.947 51.9392 54.0239 51.9161 54.1033 51.9003C54.1831 51.8845 54.2633 51.8764 54.3444 51.8764C54.4254 51.8764 54.5056 51.8845 54.5854 51.9003C54.6648 51.9161 54.7418 51.9392 54.8167 51.9704C54.8916 52.0016 54.9629 52.0392 55.0302 52.0846C55.0978 52.1296 55.1598 52.1806 55.2173 52.2381C55.2744 52.2953 55.3259 52.3576 55.3709 52.4249C55.4158 52.4925 55.4539 52.5634 55.4851 52.6384C55.5159 52.7133 55.5394 52.7907 55.5552 52.8701C55.571 52.9495 55.5791 53.0297 55.5791 53.1111L55.5568 63.5564C55.5669 63.9457 55.5515 64.3342 55.5106 64.7219C55.4693 65.1091 55.4029 65.4924 55.3109 65.8711C55.219 66.2499 55.1023 66.6205 54.9609 66.9839C54.8199 67.3473 54.6551 67.6993 54.4671 68.0408C54.2791 68.3823 54.0697 68.7096 53.8384 69.0232C53.6067 69.3367 53.3559 69.6336 53.0849 69.914C52.8143 70.1943 52.5263 70.4552 52.2209 70.6974C51.9154 70.9392 51.5954 71.16 51.2604 71.3597C51.1664 71.414 51.0813 71.4792 51.0048 71.5562C50.9278 71.6328 50.8626 71.7182 50.8083 71.8122C50.754 71.9062 50.7131 72.0054 50.6852 72.1104C50.6572 72.2149 50.643 72.3214 50.6434 72.43V80.2705H53.1125V73.1101C53.4977 72.846 53.8655 72.5592 54.2151 72.2497C54.5651 71.9398 54.8945 71.6097 55.2036 71.2593C55.5122 70.9089 55.7986 70.5406 56.0619 70.1546C56.3253 69.7685 56.5639 69.3679 56.7773 68.9523C56.9908 68.537 57.1784 68.1097 57.3388 67.671C57.4996 67.2322 57.6325 66.7854 57.7382 66.3301C57.8435 65.8752 57.9201 65.415 57.9687 64.9504C58.0169 64.4857 58.0364 64.0199 58.0271 63.5524L58.0481 53.1111C58.0481 53.0354 58.0465 52.96 58.042 52.8851C58.038 52.8097 58.0311 52.7344 58.0222 52.6594C58.0133 52.5849 58.0023 52.5104 57.989 52.4358C57.9756 52.3617 57.9598 52.288 57.9416 52.2146C57.9238 52.1417 57.9035 52.0688 57.8812 51.9971C57.8589 51.925 57.8342 51.8537 57.8075 51.7832C57.7808 51.7127 57.7516 51.6431 57.7208 51.5742C57.6896 51.5057 57.6564 51.4381 57.6211 51.3712C57.5859 51.3044 57.5486 51.2392 57.5097 51.1748C57.4705 51.1104 57.4291 51.0472 57.3862 50.9852C57.3429 50.9232 57.2979 50.8629 57.2513 50.8037C57.2043 50.7446 57.1557 50.687 57.1055 50.6307C57.0552 50.5744 57.0034 50.5201 56.9495 50.4671C56.8956 50.414 56.8405 50.363 56.7838 50.3131C56.7271 50.2637 56.6688 50.2159 56.6088 50.1697C56.5493 50.124 56.4881 50.0798 56.4257 50.0377C56.3629 49.9951 56.2993 49.955 56.2345 49.9166C56.1697 49.8781 56.1033 49.842 56.0364 49.8076C55.9692 49.7732 55.9011 49.7412 55.8319 49.7112C55.7626 49.6808 55.6929 49.6528 55.622 49.6269C55.5511 49.6014 55.4794 49.5775 55.4073 49.556C55.3348 49.5346 55.2619 49.5155 55.1886 49.4985C55.1148 49.4815 55.0411 49.4669 54.9666 49.4543C54.8924 49.4422 54.8175 49.4317 54.7426 49.424C54.6676 49.4163 54.5923 49.4106 54.5169 49.4074C54.442 49.4041 54.3662 49.4033 54.2909 49.4045C54.2155 49.4057 54.1402 49.4094 54.0652 49.4155C53.9899 49.4215 53.915 49.4296 53.8404 49.4402C53.7659 49.4511 53.6913 49.4637 53.6176 49.4791C53.5439 49.494 53.4702 49.5115 53.3977 49.5309C53.3247 49.5508 53.2526 49.5726 53.1809 49.5965C53.1096 49.6204 53.0391 49.6468 52.9691 49.6751C52.9164 49.4807 52.8484 49.2915 52.7649 49.108C52.6815 48.9245 52.5838 48.7491 52.4716 48.5818C52.3594 48.4141 52.2346 48.2569 52.0965 48.1098C51.9588 47.9624 51.8101 47.8275 51.6501 47.7048C51.4901 47.582 51.3216 47.473 51.1437 47.3778C50.9663 47.2826 50.782 47.2024 50.5912 47.1372C50.4004 47.072 50.2055 47.0226 50.007 46.9894C49.8081 46.9561 49.608 46.9391 49.4063 46.9383Z" fill="#AF7B20"/>
</g>
<path d="M44.6234 33.0986C44.9321 32.3946 45.0864 31.6577 45.0864 30.8889C45.0864 30.786 45.084 30.6831 45.0783 30.5806C45.073 30.4777 45.0645 30.3752 45.0536 30.2727C45.0423 30.1706 45.0285 30.0686 45.0115 29.9673C44.9945 29.8656 44.975 29.7647 44.9527 29.6643C44.93 29.5638 44.9049 29.4642 44.877 29.3649C44.849 29.2661 44.8182 29.1676 44.7846 29.0704C44.7514 28.9732 44.7153 28.8768 44.6765 28.7816C44.6376 28.6864 44.5962 28.592 44.5521 28.4992C44.5083 28.4061 44.4618 28.3145 44.4123 28.2238C44.3633 28.1334 44.3119 28.0443 44.2576 27.9568C44.2037 27.8693 44.147 27.7834 44.0883 27.6988C44.0295 27.6145 43.9684 27.5319 43.9048 27.4508C43.8416 27.3698 43.7759 27.2904 43.7079 27.2131C43.6402 27.1357 43.5701 27.0603 43.498 26.987C43.4259 26.9133 43.3522 26.842 43.276 26.7727C43.1999 26.703 43.1221 26.6362 43.0423 26.571C42.9629 26.5058 42.8811 26.443 42.798 26.3826C42.7146 26.3223 42.6299 26.2639 42.5436 26.208C42.457 26.1525 42.369 26.0991 42.2795 26.048C42.1904 25.997 42.0993 25.9488 42.0073 25.903C41.9153 25.8568 41.8218 25.8139 41.7274 25.773C41.633 25.7324 41.5374 25.6944 41.4406 25.6591C41.3442 25.6235 41.2465 25.5911 41.1481 25.5611C41.0497 25.5311 40.9504 25.504 40.8504 25.4793C40.7503 25.455 40.6498 25.4331 40.5486 25.4144C40.4477 25.3954 40.346 25.3796 40.2439 25.3662C40.1418 25.3533 40.0394 25.3427 39.9369 25.335C39.8344 25.3278 39.7315 25.3229 39.6286 25.3213C39.5257 25.3192 39.4228 25.3205 39.3199 25.3245C39.217 25.3282 39.1145 25.335 39.012 25.3448C38.9096 25.3541 38.8075 25.3666 38.7058 25.382C38.6041 25.3974 38.5028 25.4153 38.402 25.4363C38.3011 25.4574 38.201 25.4809 38.1018 25.5072C38.0021 25.5339 37.9037 25.5631 37.8057 25.5951C37.7081 25.6271 37.6112 25.6616 37.5152 25.6988C37.4192 25.7365 37.3244 25.7762 37.2309 25.8187C37.1373 25.8617 37.0449 25.9066 36.9534 25.9544C36.8622 26.0022 36.7727 26.0525 36.6844 26.1051C36.5961 26.1578 36.509 26.2129 36.4239 26.2704C36.3384 26.3283 36.255 26.3879 36.1728 26.4503C36.0909 26.5122 36.0107 26.5771 35.9321 26.6435C35.8539 26.7103 35.7774 26.7788 35.7028 26.8501C35.6283 26.921 35.5558 26.9939 35.4853 27.0688C35.4148 27.1438 35.3464 27.2203 35.2799 27.2993C35.2139 27.3779 35.1499 27.4585 35.0879 27.5408C35.0263 27.623 34.9668 27.7069 34.9097 27.7927C34.8526 27.8782 34.7979 27.9653 34.7456 28.054C34.6934 28.1427 34.6435 28.2327 34.5961 28.3242C34.5491 28.4154 34.5042 28.5081 34.462 28.6021C34.4199 28.6961 34.3806 28.7909 34.3438 28.8869C34.3069 28.9829 34.2729 29.0801 34.2413 29.1782C34.2097 29.2762 34.1813 29.375 34.1554 29.4743C34.1291 29.5739 34.106 29.6744 34.0857 29.7753C34.0655 29.8761 34.0476 29.9774 34.0331 30.0791C34.0181 30.1812 34.0063 30.2833 33.9974 30.3857C33.9881 30.4882 33.982 30.5907 33.9784 30.6936C33.9751 30.7965 33.9747 30.8994 33.9771 31.0023C33.9792 31.1052 33.9844 31.2081 33.9925 31.3106C34.0006 31.4131 34.0116 31.5155 34.0254 31.6172C34.0391 31.7193 34.0557 31.821 34.0748 31.9219C34.0942 32.0231 34.1165 32.1236 34.1416 32.2232C34.1663 32.3233 34.1943 32.4221 34.2247 32.5206C34.255 32.6186 34.2883 32.7162 34.3243 32.8127C34.36 32.9091 34.3984 33.0043 34.4398 33.0986C34.7181 32.7422 35.03 32.4181 35.3763 32.1268C35.7223 31.8356 36.095 31.5836 36.494 31.3705C36.4644 31.2113 36.4478 31.0509 36.4446 30.8889C36.4425 30.7815 36.4462 30.6746 36.4555 30.5676C36.4644 30.4607 36.4794 30.3546 36.4997 30.2488C36.5199 30.1435 36.5454 30.0394 36.5766 29.9369C36.6078 29.834 36.6443 29.7331 36.686 29.6343C36.7273 29.5355 36.7743 29.4386 36.8258 29.3447C36.8776 29.2507 36.9339 29.1595 36.9951 29.0712C37.0567 28.9833 37.1223 28.8982 37.1924 28.8172C37.2624 28.7358 37.3366 28.6584 37.4144 28.5847C37.4925 28.511 37.5744 28.4417 37.6598 28.3769C37.7453 28.3117 37.8336 28.2513 37.9256 28.1954C38.0171 28.1395 38.1115 28.0889 38.2083 28.0427C38.3056 27.9969 38.4048 27.956 38.5061 27.9203C38.6074 27.8847 38.7098 27.8543 38.8144 27.8296C38.9189 27.8045 39.0242 27.785 39.1307 27.7713C39.2373 27.7575 39.3442 27.749 39.4516 27.7462C39.5585 27.7437 39.6659 27.7466 39.7728 27.7547C39.8798 27.7632 39.9863 27.7774 40.0916 27.7968C40.1973 27.8162 40.3015 27.8414 40.4043 27.8717C40.5076 27.9021 40.6085 27.9378 40.7078 27.9787C40.807 28.0196 40.9038 28.0658 40.9982 28.1168C41.0926 28.1679 41.1842 28.2238 41.2729 28.2841C41.3616 28.3449 41.4467 28.4097 41.5285 28.4794C41.6103 28.5491 41.6881 28.6224 41.7622 28.7002C41.8363 28.7775 41.9064 28.8589 41.9721 28.944C42.0377 29.0287 42.0988 29.117 42.1552 29.2081C42.2119 29.2997 42.2633 29.3937 42.3099 29.4901C42.3565 29.5869 42.3982 29.6857 42.4343 29.7866C42.4707 29.8879 42.5019 29.9904 42.5274 30.0945C42.553 30.199 42.5732 30.3043 42.5878 30.4105C42.6024 30.517 42.6117 30.6235 42.6149 30.7309C42.6186 30.8382 42.6166 30.9456 42.6089 31.0525C42.6012 31.1595 42.5878 31.266 42.5692 31.3717C42.9682 31.5848 43.3405 31.8368 43.6868 32.1276C44.0328 32.4185 44.3451 32.7426 44.6234 33.0986Z" fill="#AF7B20"/>
<path d="M32.4818 22.3811C32.4154 22.3447 32.3477 22.3118 32.2784 22.2819C32.2088 22.2523 32.1383 22.2256 32.0666 22.2025C31.9945 22.1794 31.922 22.1595 31.8482 22.1433C31.7745 22.1271 31.7 22.1146 31.6254 22.1052C31.5505 22.0959 31.4751 22.0907 31.3998 22.0882C31.3245 22.0862 31.2487 22.0878 31.1738 22.0931C31.0984 22.098 31.0235 22.1065 30.9489 22.1186C30.8744 22.1308 30.8007 22.1466 30.7278 22.1656C30.6544 22.1851 30.5827 22.2073 30.5118 22.2333C30.4409 22.2596 30.3713 22.2888 30.3032 22.3212C30.2352 22.3536 30.1687 22.3896 30.1043 22.4281C30.0395 22.467 29.9767 22.5091 29.9159 22.5537C29.8552 22.5987 29.7969 22.646 29.7405 22.6963C29.6842 22.7469 29.6304 22.7996 29.5793 22.8551C29.5279 22.9106 29.4793 22.9681 29.4335 23.0281C29.3877 23.0884 29.3452 23.1504 29.3051 23.2144L27.5137 26.1772C27.4348 26.3073 27.3695 26.4442 27.3185 26.588C27.267 26.7314 27.231 26.8785 27.2095 27.0296C27.1885 27.1803 27.1828 27.3318 27.1921 27.4841C27.2018 27.636 27.2269 27.7859 27.267 27.9325C27.3072 28.0828 27.3618 28.2274 27.4311 28.3664C27.5008 28.5053 27.5838 28.6357 27.6798 28.7581C27.7758 28.88 27.8836 28.991 28.0023 29.0911C28.121 29.1911 28.249 29.2782 28.3855 29.3524L28.9348 29.6562C28.8287 30.4789 28.8287 31.3021 28.9348 32.1252L28.3855 32.4286C28.249 32.5028 28.121 32.5899 28.0023 32.6899C27.8836 32.7904 27.7758 32.9014 27.6798 33.0233C27.5838 33.1452 27.5008 33.2761 27.4311 33.415C27.3618 33.554 27.3072 33.6982 27.267 33.8485C27.2265 33.9955 27.2018 34.1454 27.1921 34.2973C27.1824 34.4496 27.1881 34.6011 27.2091 34.7522C27.2306 34.9033 27.2666 35.0508 27.3181 35.1942C27.3695 35.338 27.4348 35.4749 27.5137 35.6054L29.3026 38.5682C29.3427 38.6322 29.3853 38.6942 29.4311 38.7546C29.4768 38.8145 29.5254 38.8724 29.5765 38.9279C29.6279 38.9834 29.6818 39.0361 29.7377 39.0867C29.794 39.137 29.8528 39.1848 29.9135 39.2293C29.9743 39.2743 30.0371 39.316 30.1015 39.3549C30.1663 39.3938 30.2327 39.4298 30.3008 39.4623C30.3692 39.4951 30.4385 39.5242 30.5094 39.5502C30.5803 39.5761 30.6524 39.5988 30.7253 39.6178C30.7986 39.6373 30.8724 39.6526 30.9469 39.6652C31.0214 39.6774 31.0964 39.6859 31.1717 39.6907C31.2471 39.696 31.3224 39.6976 31.3978 39.6956C31.4735 39.6936 31.5485 39.6879 31.6234 39.6786C31.6984 39.6693 31.7729 39.6567 31.8466 39.6405C31.9203 39.6243 31.9933 39.6044 32.065 39.5814C32.1371 39.5583 32.2076 39.5315 32.2768 39.502C32.3465 39.472 32.4142 39.4388 32.4802 39.4027L33.0493 39.079V37.0621C33.0493 36.9041 33.0854 36.757 33.0963 36.6015C32.6876 36.5918 32.3028 36.6833 31.9422 36.8757L31.3605 37.1954L29.7324 34.4991L30.2198 34.2301C30.3206 34.1758 30.417 34.1142 30.5086 34.0454C30.5997 33.9765 30.6856 33.9011 30.7658 33.8193C30.846 33.7375 30.9194 33.65 30.9866 33.5572C31.0534 33.464 31.113 33.3668 31.1653 33.2647C31.2175 33.1631 31.2617 33.0577 31.2981 32.9492C31.3342 32.8402 31.3621 32.7296 31.382 32.617C31.4014 32.504 31.4124 32.3906 31.4148 32.2759C31.4172 32.1613 31.4111 32.0474 31.3966 31.9336C31.3467 31.5873 31.322 31.2393 31.3224 30.8893C31.3224 30.5389 31.3479 30.1905 31.399 29.8437C31.4136 29.7303 31.4197 29.6161 31.4168 29.5018C31.4144 29.3876 31.403 29.2738 31.3836 29.1612C31.3637 29.0485 31.3358 28.9379 31.2993 28.8294C31.2629 28.7208 31.2187 28.6155 31.1665 28.5138C31.1142 28.4121 31.0547 28.3145 30.9878 28.2217C30.921 28.129 30.8477 28.0415 30.7675 27.9596C30.6876 27.8778 30.6018 27.8025 30.5106 27.7336C30.4191 27.6647 30.3231 27.6032 30.2226 27.5489L29.7288 27.2795L31.3569 24.5836L31.9386 24.9032C32.0394 24.9571 32.1436 25.0041 32.2509 25.0434C32.3583 25.0827 32.468 25.1143 32.5802 25.1382C32.692 25.1621 32.8051 25.1783 32.9193 25.186C33.0335 25.1937 33.1478 25.1937 33.262 25.1856C33.3762 25.1771 33.4893 25.1609 33.6011 25.1366C33.7129 25.1123 33.8223 25.0802 33.9296 25.0406C34.037 25.0009 34.1411 24.9539 34.2419 24.8992C34.3424 24.8449 34.4388 24.7837 34.5308 24.7157C35.0942 24.3025 35.6999 23.9658 36.348 23.7058C36.457 23.6649 36.5619 23.6158 36.6636 23.5591C36.7648 23.5024 36.8617 23.4384 36.9532 23.3671C37.0452 23.2958 37.1311 23.218 37.2113 23.1342C37.2915 23.0499 37.3652 22.9604 37.4316 22.8652C37.4985 22.77 37.5576 22.6704 37.6095 22.5662C37.6613 22.4621 37.7051 22.3548 37.7407 22.2442C37.7764 22.1336 37.8039 22.021 37.8225 21.9063C37.8416 21.7917 37.8517 21.6763 37.8529 21.56V21.0131H41.1949V21.56C41.1962 21.6763 41.2063 21.7917 41.2253 21.9063C41.244 22.021 41.2711 22.1336 41.3067 22.2442C41.3424 22.3544 41.3861 22.4617 41.4376 22.5658C41.4894 22.6699 41.5486 22.7696 41.615 22.8648C41.6819 22.9596 41.7552 23.0495 41.835 23.1334C41.9152 23.2176 42.0011 23.2954 42.093 23.3667C42.1846 23.438 42.281 23.502 42.3823 23.5587C42.4835 23.6158 42.5889 23.6645 42.6974 23.7058C43.3488 23.9654 43.9581 24.3025 44.5244 24.7169C44.6164 24.7849 44.7128 24.8465 44.8132 24.9008C44.9141 24.9555 45.0178 25.0029 45.1251 25.0426C45.2325 25.0827 45.3423 25.1147 45.4541 25.139C45.5659 25.1633 45.6789 25.1795 45.7931 25.188C45.9074 25.1961 46.0216 25.1965 46.1359 25.1888C46.2501 25.1807 46.3631 25.1649 46.4753 25.141C46.5871 25.1171 46.6969 25.0855 46.8043 25.0462C46.912 25.0065 47.0161 24.9599 47.117 24.9057L47.6971 24.586L49.3268 27.2819L48.833 27.5513C48.7321 27.6056 48.6361 27.6672 48.5445 27.736C48.453 27.8049 48.3675 27.8807 48.2873 27.9625C48.2071 28.0443 48.1338 28.1314 48.0669 28.2246C48.0001 28.3173 47.9405 28.415 47.8883 28.5167C47.836 28.6187 47.7919 28.7237 47.7554 28.8322C47.719 28.9412 47.691 29.0518 47.6716 29.1644C47.6517 29.2774 47.6408 29.3908 47.6383 29.5055C47.6355 29.6197 47.6416 29.734 47.6566 29.8474C47.7064 30.1937 47.7315 30.5421 47.7315 30.8917C47.7315 31.2421 47.706 31.5909 47.6554 31.9377C47.6408 32.0511 47.6347 32.1649 47.6375 32.2792C47.64 32.3938 47.6513 32.5072 47.6712 32.6198C47.6906 32.7329 47.719 32.8434 47.755 32.9516C47.7915 33.0602 47.8356 33.1655 47.8879 33.2672C47.9401 33.3688 47.9997 33.4665 48.0665 33.5592C48.1334 33.652 48.2067 33.7395 48.2869 33.8213C48.3667 33.9032 48.4526 33.9785 48.5437 34.0474C48.6353 34.1162 48.7309 34.1778 48.8317 34.2325L49.3256 34.5015L47.6959 37.1978L47.1158 36.8782C46.7544 36.6853 46.3692 36.5942 45.96 36.6039C45.9714 36.7595 46.007 36.9065 46.007 37.0645V39.0867L46.5762 39.4003C46.6422 39.4363 46.7103 39.4695 46.7795 39.4991C46.8488 39.5291 46.9193 39.5554 46.9914 39.5785C47.0631 39.602 47.136 39.6215 47.2098 39.6377C47.2835 39.6539 47.3576 39.6668 47.4326 39.6757C47.5075 39.6851 47.5828 39.6907 47.6582 39.6928C47.7335 39.6948 47.8089 39.6936 47.8842 39.6883C47.9596 39.683 48.0345 39.6745 48.1091 39.6624C48.1836 39.6502 48.2573 39.6348 48.3302 39.6154C48.4032 39.5963 48.4753 39.5737 48.5462 39.5477C48.617 39.5218 48.6863 39.4926 48.7544 39.4598C48.8224 39.4274 48.8889 39.3918 48.9537 39.3529C49.0185 39.314 49.0813 39.2723 49.142 39.2273C49.2028 39.1827 49.2611 39.1349 49.3175 39.0847C49.3738 39.0345 49.4272 38.9814 49.4787 38.9263C49.5297 38.8708 49.5783 38.8129 49.6241 38.7529C49.6699 38.693 49.7128 38.631 49.7525 38.567L51.5438 35.6042C51.6228 35.4737 51.6881 35.3368 51.7391 35.1934C51.7901 35.0496 51.8266 34.9025 51.8477 34.7518C51.8691 34.6007 51.8748 34.4492 51.8651 34.2973C51.8558 34.145 51.8306 33.9955 51.7909 33.8485C51.7504 33.6986 51.6958 33.554 51.6261 33.415C51.5564 33.2761 51.4734 33.1456 51.3769 33.0233C51.2809 32.9014 51.1732 32.7904 51.0545 32.6903C50.9354 32.5903 50.8078 32.5028 50.6713 32.4286L50.1317 32.124C50.2378 31.3009 50.2378 30.4777 50.1317 29.655L50.681 29.3511C50.8175 29.277 50.9455 29.1899 51.0642 29.0899C51.1829 28.9898 51.2907 28.8784 51.3871 28.7565C51.4831 28.6345 51.5661 28.5041 51.6358 28.3651C51.7055 28.2262 51.7606 28.0816 51.8007 27.9313C51.8408 27.7842 51.8659 27.6348 51.8752 27.4824C51.8849 27.3301 51.8793 27.1786 51.8578 27.0275C51.8367 26.8768 51.8007 26.7294 51.7492 26.5856C51.6982 26.4422 51.633 26.3053 51.554 26.1748L49.7651 23.212C49.725 23.1476 49.6824 23.0856 49.6367 23.0252C49.5909 22.9653 49.5427 22.9073 49.4912 22.8518C49.4402 22.7963 49.3863 22.7433 49.33 22.693C49.2737 22.6424 49.2154 22.595 49.1546 22.55C49.0938 22.5051 49.0311 22.4629 48.9662 22.4241C48.9014 22.3852 48.835 22.3495 48.7669 22.3167C48.6989 22.2843 48.6292 22.2551 48.5583 22.2288C48.4874 22.2029 48.4157 22.1802 48.3424 22.1612C48.2695 22.1421 48.1958 22.1263 48.1212 22.1142C48.0467 22.102 47.9717 22.0931 47.8964 22.0882C47.821 22.083 47.7453 22.0818 47.6699 22.0838C47.5942 22.0858 47.5192 22.0915 47.4443 22.1008C47.3694 22.1101 47.2948 22.1227 47.2211 22.1389C47.1474 22.1555 47.0745 22.1749 47.0028 22.1984C46.9306 22.2215 46.8602 22.2478 46.7909 22.2778C46.7212 22.3078 46.6536 22.341 46.5871 22.3775L45.9884 22.7182C45.271 22.1936 44.5005 21.7638 43.6773 21.4279V20.8418C43.6765 20.7652 43.6717 20.6895 43.6632 20.6137C43.6547 20.5379 43.6425 20.463 43.6267 20.3885C43.6109 20.3139 43.5915 20.2402 43.5684 20.1677C43.5453 20.0948 43.5186 20.0235 43.4886 19.9538C43.4582 19.8837 43.425 19.8153 43.3881 19.7484C43.3512 19.682 43.3111 19.6172 43.2682 19.5544C43.2249 19.4916 43.1791 19.4308 43.1297 19.3725C43.0806 19.3142 43.0288 19.2587 42.9745 19.2056C42.9198 19.1521 42.8627 19.1019 42.8032 19.0541C42.7436 19.0067 42.682 18.9621 42.618 18.9204C42.5544 18.8791 42.4884 18.8406 42.4208 18.8058C42.3531 18.7705 42.2838 18.7389 42.2133 18.7106C42.1425 18.6822 42.0703 18.6575 41.9974 18.636C41.9241 18.615 41.85 18.5976 41.775 18.5834C41.7005 18.5696 41.6247 18.5591 41.549 18.5526C41.4732 18.5461 41.3971 18.5433 41.3209 18.5441H37.7407C37.6646 18.5437 37.5888 18.5465 37.5131 18.5534C37.4373 18.5603 37.362 18.5708 37.2874 18.5854C37.2125 18.5996 37.1387 18.6174 37.0658 18.6389C36.9929 18.6603 36.9212 18.6855 36.8507 18.7138C36.7802 18.7422 36.711 18.7742 36.6437 18.8094C36.5765 18.8447 36.5109 18.8831 36.4473 18.9249C36.3837 18.9666 36.3221 19.0112 36.2629 19.059C36.2038 19.1068 36.1471 19.157 36.0928 19.2105C36.0385 19.2635 35.9867 19.3194 35.9381 19.3778C35.889 19.4361 35.8433 19.4965 35.8003 19.5592C35.7578 19.622 35.7177 19.6868 35.6812 19.7537C35.6448 19.8205 35.6116 19.8886 35.5816 19.9587C35.552 20.0287 35.5257 20.0996 35.5026 20.1721C35.4799 20.2451 35.4605 20.3184 35.4451 20.3929C35.4293 20.4671 35.4171 20.5424 35.409 20.6177C35.4005 20.6935 35.396 20.7693 35.3952 20.8454V21.4328C34.5765 21.7557 33.8235 22.1919 33.136 22.7417L32.4818 22.3811Z" fill="#AF7B20"/>
<mask id="mask1_597_2197" style="mask-type:luminance" maskUnits="userSpaceOnUse" x="67" y="3" width="14" height="14">
<path d="M67.8223 3.72949H80.2631V16.1776H67.8223V3.72949Z" fill="white"/>
</mask>
<g mask="url(#mask1_597_2197)">
<path d="M74.0972 3.72949C73.8951 3.72949 73.6933 3.73921 73.4924 3.75906C73.2911 3.77891 73.0914 3.80849 72.8933 3.84818C72.6948 3.88748 72.4991 3.93649 72.3055 3.99523C72.1118 4.05397 71.9219 4.12203 71.7351 4.1994C71.5484 4.27677 71.3657 4.36306 71.1874 4.45825C71.0092 4.55345 70.8362 4.65756 70.6681 4.76977C70.5 4.88198 70.3375 5.00229 70.1816 5.13071C70.0252 5.25872 69.8757 5.39442 69.7327 5.53742C69.5897 5.68042 69.454 5.8299 69.3256 5.98626C69.1976 6.14263 69.0773 6.30467 68.9651 6.47278C68.8525 6.64089 68.7488 6.81387 68.6536 6.99251C68.5584 7.17075 68.4721 7.35305 68.3947 7.53979C68.3173 7.72654 68.2493 7.91693 68.1905 8.11016C68.1318 8.3038 68.0828 8.49946 68.0431 8.69795C68.0038 8.89604 67.9742 9.09575 67.9544 9.29708C67.9345 9.49842 67.9248 9.69975 67.9248 9.90189C67.9248 10.1044 67.9345 10.3058 67.9544 10.5071C67.9742 10.7084 68.0038 10.9081 68.0431 11.1062C68.0828 11.3047 68.1318 11.5004 68.1905 11.694C68.2493 11.8872 68.3173 12.0776 68.3947 12.2644C68.4721 12.4511 68.5584 12.6334 68.6536 12.8117C68.7488 12.9903 68.8525 13.1633 68.9651 13.3314C69.0773 13.4995 69.1976 13.6616 69.3256 13.8179C69.454 13.9743 69.5897 14.1238 69.7327 14.2668C69.8757 14.4098 70.0252 14.5455 70.1816 14.6735C70.3375 14.8019 70.5 14.9222 70.6681 15.0344C70.8362 15.1466 71.0092 15.2507 71.1874 15.3459C71.3657 15.4411 71.5484 15.5274 71.7351 15.6048C71.9219 15.6822 72.1118 15.7502 72.3055 15.8089C72.4991 15.8677 72.6948 15.9167 72.8933 15.956C73.0914 15.9957 73.2911 16.0253 73.4924 16.0451C73.6933 16.065 73.8951 16.0747 74.0972 16.0747C74.2993 16.0747 74.5011 16.065 74.7024 16.0451C74.9033 16.0253 75.1035 15.9957 75.3015 15.956C75.4996 15.9167 75.6957 15.8677 75.8893 15.8089C76.0826 15.7502 76.2725 15.6822 76.4593 15.6048C76.646 15.5274 76.8287 15.4411 77.007 15.3459C77.1852 15.2507 77.3586 15.1466 77.5267 15.0344C77.6948 14.9222 77.8569 14.8019 78.0132 14.6735C78.1696 14.5455 78.3191 14.4098 78.4621 14.2668C78.6051 14.1238 78.7408 13.9743 78.8688 13.8179C78.9972 13.6616 79.1175 13.4995 79.2297 13.3314C79.3419 13.1633 79.4456 12.9903 79.5412 12.8117C79.6364 12.6334 79.7227 12.4511 79.8001 12.2644C79.8775 12.0776 79.9455 11.8872 80.0043 11.694C80.063 11.5004 80.112 11.3047 80.1513 11.1062C80.1906 10.9081 80.2206 10.7084 80.24 10.5071C80.2599 10.3058 80.27 10.1044 80.27 9.90189C80.2696 9.70015 80.2595 9.49842 80.2396 9.29749C80.2194 9.09616 80.1898 8.89645 80.1501 8.69836C80.1104 8.50027 80.0614 8.30461 80.0026 8.11097C79.9435 7.91774 79.8754 7.72776 79.7981 7.54101C79.7207 7.35426 79.6344 7.17197 79.5388 6.99373C79.4436 6.81549 79.3399 6.64251 79.2273 6.4744C79.1151 6.30669 78.9948 6.14425 78.8664 5.98829C78.7383 5.83192 78.6026 5.68244 78.46 5.53945C78.317 5.39645 78.1676 5.26115 78.0112 5.13273C77.8548 5.00472 77.6928 4.88441 77.5251 4.7722C77.357 4.65958 77.1836 4.55588 77.0058 4.46068C76.8275 4.36508 76.6448 4.2788 76.4585 4.20143C76.2717 4.12365 76.0817 4.05559 75.8881 3.99685C75.6949 3.93811 75.4992 3.88869 75.3011 3.8494C75.103 3.8097 74.9033 3.77972 74.702 3.75987C74.5011 3.74002 74.2993 3.72949 74.0972 3.72949ZM74.0972 13.6056C73.9761 13.6056 73.855 13.5996 73.7342 13.5878C73.6135 13.5761 73.4936 13.5583 73.3749 13.5344C73.2558 13.5109 73.1383 13.4813 73.0221 13.446C72.9062 13.4108 72.792 13.3703 72.6802 13.3237C72.568 13.2771 72.4586 13.2257 72.3517 13.1681C72.2443 13.111 72.1406 13.0491 72.0397 12.9814C71.9389 12.9142 71.8416 12.842 71.7477 12.7651C71.6541 12.6881 71.5642 12.6067 71.4787 12.5208C71.3928 12.4353 71.3114 12.3454 71.2344 12.2514C71.1574 12.1578 71.0853 12.0606 71.0181 11.9598C70.9504 11.8589 70.8881 11.7548 70.8309 11.6478C70.7738 11.5409 70.722 11.4315 70.6758 11.3193C70.6292 11.2075 70.5883 11.0933 70.553 10.977C70.5178 10.8611 70.4886 10.7437 70.4647 10.6246C70.4412 10.5055 70.4234 10.386 70.4117 10.2653C70.3995 10.1445 70.3938 10.0234 70.3938 9.90189C70.3938 9.78077 70.3995 9.65964 70.4117 9.53892C70.4234 9.41821 70.4412 9.29871 70.4647 9.17961C70.4886 9.06051 70.5178 8.94303 70.553 8.82718C70.5883 8.71092 70.6292 8.59668 70.6758 8.48487C70.722 8.37266 70.7738 8.26329 70.8309 8.15634C70.8881 8.0494 70.9504 7.94529 71.0181 7.84442C71.0853 7.74355 71.1574 7.64633 71.2344 7.55276C71.3114 7.45877 71.3928 7.36884 71.4787 7.28337C71.5642 7.19749 71.6541 7.11607 71.7477 7.0391C71.8416 6.96213 71.9389 6.89002 72.0397 6.82278C72.1406 6.75513 72.2443 6.69315 72.3517 6.63563C72.4586 6.57851 72.568 6.52666 72.6802 6.48048C72.792 6.43389 72.9062 6.39338 73.0221 6.35814C73.1383 6.32289 73.2558 6.29332 73.3749 6.26983C73.4936 6.24593 73.6135 6.2281 73.7342 6.21636C73.855 6.20461 73.9761 6.19853 74.0972 6.19853C74.2187 6.19853 74.3394 6.20461 74.4602 6.21636C74.5809 6.2281 74.7008 6.24593 74.8199 6.26983C74.939 6.29332 75.0565 6.32289 75.1723 6.35814C75.2886 6.39338 75.4024 6.43389 75.5146 6.48048C75.6268 6.52666 75.7362 6.57851 75.8431 6.63563C75.9501 6.69315 76.0542 6.75513 76.1551 6.82278C76.2559 6.89002 76.3532 6.96213 76.4467 7.0391C76.5407 7.11607 76.6302 7.19749 76.7161 7.28337C76.802 7.36884 76.8834 7.45877 76.9604 7.55276C77.0374 7.64633 77.1095 7.74355 77.1767 7.84442C77.244 7.94529 77.3063 8.0494 77.3635 8.15634C77.4206 8.26329 77.4724 8.37266 77.519 8.48487C77.5652 8.59668 77.6061 8.71092 77.6414 8.82718C77.6766 8.94303 77.7062 9.06051 77.7297 9.17961C77.7536 9.29871 77.771 9.41821 77.7831 9.53892C77.7949 9.65964 77.801 9.78077 77.801 9.90189C77.801 10.0234 77.7949 10.1445 77.7831 10.2653C77.771 10.386 77.7536 10.5055 77.7297 10.6246C77.7062 10.7437 77.6766 10.8611 77.6414 10.977C77.6061 11.0933 77.5652 11.2075 77.519 11.3193C77.4724 11.4315 77.4206 11.5409 77.3635 11.6478C77.3063 11.7548 77.244 11.8589 77.1767 11.9598C77.1095 12.0606 77.0374 12.1578 76.9604 12.2514C76.8834 12.3454 76.802 12.4353 76.7161 12.5208C76.6302 12.6067 76.5407 12.6881 76.4467 12.7651C76.3532 12.842 76.2559 12.9142 76.1551 12.9814C76.0542 13.0491 75.9501 13.111 75.8431 13.1681C75.7362 13.2257 75.6268 13.2771 75.5146 13.3237C75.4024 13.3703 75.2886 13.4108 75.1723 13.446C75.0565 13.4813 74.939 13.5109 74.8199 13.5344C74.7008 13.5583 74.5809 13.5761 74.4602 13.5878C74.3394 13.5996 74.2187 13.6056 74.0972 13.6056Z" fill="#AF7B20"/>
</g>
<mask id="mask2_597_2197" style="mask-type:luminance" maskUnits="userSpaceOnUse" x="3" y="42" width="14" height="13">
<path d="M3.72949 42H16.1776V54.4444H3.72949V42Z" fill="white"/>
</mask>
<g mask="url(#mask2_597_2197)">
<path d="M9.90189 54.3452C10.1044 54.3452 10.3058 54.3355 10.5071 54.3156C10.7084 54.2958 10.9081 54.2662 11.1062 54.2265C11.3047 54.1872 11.5004 54.1382 11.694 54.0795C11.8872 54.0207 12.0776 53.9527 12.2644 53.8753C12.4511 53.7979 12.6334 53.7116 12.8117 53.6164C12.9903 53.5212 13.1633 53.4171 13.3314 53.3049C13.4995 53.1927 13.6616 53.0724 13.8179 52.944C13.9743 52.816 14.1238 52.6803 14.2668 52.5373C14.4098 52.3943 14.5455 52.2448 14.6735 52.0884C14.8019 51.9321 14.9222 51.77 15.0344 51.6019C15.1466 51.4338 15.2507 51.2608 15.3459 51.0822C15.4411 50.9039 15.5274 50.7216 15.6048 50.5349C15.6822 50.3481 15.7502 50.1578 15.8089 49.9645C15.8677 49.7709 15.9167 49.5752 15.956 49.3767C15.9957 49.1786 16.0253 48.9789 16.0451 48.7776C16.065 48.5763 16.0747 48.3749 16.0747 48.1724C16.0747 47.9703 16.065 47.7689 16.0451 47.5676C16.0253 47.3663 15.9957 47.1666 15.956 46.9685C15.9167 46.77 15.8677 46.5743 15.8089 46.3807C15.7502 46.1874 15.6822 45.997 15.6048 45.8103C15.5274 45.6236 15.4411 45.4413 15.3459 45.263C15.2507 45.0844 15.1466 44.9114 15.0344 44.7433C14.9222 44.5752 14.8019 44.4131 14.6735 44.2568C14.5455 44.1004 14.4098 43.9509 14.2668 43.8079C14.1238 43.6649 13.9743 43.5292 13.8179 43.4012C13.6616 43.2728 13.4995 43.1525 13.3314 43.0403C13.1633 42.9281 12.9903 42.824 12.8117 42.7288C12.6334 42.6336 12.4511 42.5473 12.2644 42.4699C12.0776 42.3925 11.8872 42.3245 11.694 42.2657C11.5004 42.207 11.3047 42.158 11.1062 42.1187C10.9081 42.079 10.7084 42.0494 10.5071 42.0296C10.3058 42.0097 10.1044 42 9.90189 42C9.69975 42 9.49842 42.0097 9.29708 42.0296C9.09575 42.0494 8.89604 42.079 8.69795 42.1187C8.49946 42.158 8.3038 42.207 8.11016 42.2657C7.91693 42.3245 7.72654 42.3925 7.53979 42.4699C7.35305 42.5473 7.17075 42.6336 6.99251 42.7288C6.81387 42.824 6.64089 42.9281 6.47278 43.0403C6.30467 43.1525 6.14263 43.2728 5.98626 43.4012C5.8299 43.5292 5.68042 43.6649 5.53742 43.8079C5.39442 43.9509 5.25872 44.1004 5.13071 44.2568C5.00229 44.4131 4.88198 44.5752 4.76977 44.7433C4.65756 44.9114 4.55345 45.0844 4.45825 45.263C4.36306 45.4413 4.27677 45.6236 4.1994 45.8103C4.12203 45.997 4.05397 46.1874 3.99523 46.3807C3.93649 46.5743 3.88748 46.77 3.84818 46.9685C3.80849 47.1666 3.77891 47.3663 3.75906 47.5676C3.73921 47.7689 3.72949 47.9703 3.72949 48.1724C3.72949 48.3745 3.73962 48.5763 3.75987 48.7772C3.77972 48.9785 3.8097 49.1782 3.8494 49.3763C3.88869 49.5744 3.93811 49.7701 3.99685 49.9637C4.05559 50.1569 4.12365 50.3469 4.20143 50.5337C4.2788 50.7204 4.36508 50.9027 4.46068 51.081C4.55588 51.2592 4.65958 51.4322 4.7718 51.6003C4.88441 51.768 5.00472 51.9304 5.13273 52.0864C5.26115 52.2428 5.39645 52.3922 5.53945 52.5352C5.68244 52.6778 5.83192 52.8135 5.98829 52.942C6.14425 53.07 6.30669 53.1903 6.4744 53.3025C6.64251 53.4151 6.81549 53.5188 6.99373 53.614C7.17197 53.7096 7.35426 53.7959 7.54101 53.8733C7.72776 53.9506 7.91774 54.0191 8.11097 54.0778C8.30461 54.1366 8.50027 54.1856 8.69836 54.2253C8.89645 54.265 9.09616 54.295 9.29708 54.3148C9.49842 54.3347 9.70015 54.3448 9.90189 54.3452ZM9.90189 44.469C10.0234 44.469 10.1445 44.4751 10.2653 44.4869C10.386 44.4986 10.5055 44.5164 10.6246 44.5403C10.7437 44.5638 10.8611 44.5934 10.977 44.6286C11.0933 44.6639 11.2075 44.7044 11.3193 44.751C11.4315 44.7972 11.5409 44.849 11.6478 44.9061C11.7548 44.9637 11.8589 45.0256 11.9598 45.0933C12.0606 45.1605 12.1578 45.2326 12.2514 45.3096C12.3454 45.3866 12.4349 45.468 12.5208 45.5539C12.6067 45.6394 12.6881 45.7293 12.7651 45.8229C12.842 45.9168 12.9142 46.0141 12.9814 46.1149C13.0491 46.2158 13.111 46.3199 13.1681 46.4269C13.2257 46.5338 13.2771 46.6432 13.3237 46.7554C13.3703 46.8672 13.4108 46.9814 13.446 47.0977C13.4813 47.2135 13.5109 47.331 13.5344 47.4501C13.5583 47.5692 13.5761 47.6887 13.5878 47.8094C13.5996 47.9302 13.6056 48.0513 13.6056 48.1724C13.6056 48.2939 13.5996 48.415 13.5878 48.5358C13.5761 48.6565 13.5583 48.776 13.5344 48.8951C13.5109 49.0142 13.4813 49.1317 13.446 49.2475C13.4108 49.3638 13.3703 49.478 13.3237 49.5898C13.2771 49.702 13.2257 49.8114 13.1681 49.9183C13.111 50.0253 13.0491 50.1294 12.9814 50.2303C12.9142 50.3311 12.842 50.4284 12.7651 50.5219C12.6881 50.6159 12.6067 50.7054 12.5208 50.7913C12.4349 50.8772 12.3454 50.9586 12.2514 51.0356C12.1578 51.1126 12.0606 51.1847 11.9598 51.2519C11.8589 51.3196 11.7548 51.3815 11.6478 51.4387C11.5409 51.4962 11.4315 51.5476 11.3193 51.5942C11.2075 51.6408 11.0933 51.6813 10.977 51.7166C10.8611 51.7518 10.7437 51.7814 10.6246 51.8049C10.5055 51.8288 10.386 51.8466 10.2653 51.8583C10.1445 51.8701 10.0234 51.8762 9.90189 51.8762C9.78077 51.8762 9.65964 51.8701 9.53892 51.8583C9.41821 51.8466 9.29871 51.8288 9.17961 51.8049C9.06051 51.7814 8.94303 51.7518 8.82718 51.7166C8.71092 51.6813 8.59668 51.6408 8.48487 51.5942C8.37266 51.5476 8.26329 51.4962 8.15634 51.4387C8.0494 51.3815 7.94529 51.3196 7.84442 51.2519C7.74355 51.1847 7.64633 51.1126 7.55235 51.0356C7.45877 50.9586 7.36884 50.8772 7.28337 50.7913C7.19749 50.7054 7.11607 50.6159 7.0391 50.5219C6.96213 50.4284 6.89002 50.3311 6.82278 50.2303C6.75513 50.1294 6.69315 50.0253 6.63563 49.9183C6.57851 49.8114 6.52666 49.702 6.48048 49.5898C6.43389 49.478 6.39338 49.3638 6.35814 49.2475C6.32289 49.1317 6.29332 49.0142 6.26983 48.8951C6.24593 48.776 6.2281 48.6565 6.21636 48.5358C6.20461 48.415 6.19853 48.2939 6.19853 48.1724C6.19853 48.0513 6.20461 47.9302 6.21636 47.8094C6.2281 47.6887 6.24593 47.5692 6.26983 47.4501C6.29332 47.331 6.32289 47.2135 6.35814 47.0977C6.39338 46.9814 6.43389 46.8672 6.48048 46.7554C6.52666 46.6432 6.57851 46.5338 6.63563 46.4269C6.69315 46.3199 6.75513 46.2158 6.82278 46.1149C6.89002 46.0141 6.96213 45.9168 7.0391 45.8229C7.11607 45.7293 7.19749 45.6394 7.28337 45.5539C7.36884 45.468 7.45877 45.3866 7.55235 45.3096C7.64633 45.2326 7.74355 45.1605 7.84442 45.0933C7.94529 45.0256 8.0494 44.9637 8.15634 44.9061C8.26329 44.849 8.37266 44.7972 8.48487 44.751C8.59668 44.7044 8.71092 44.6639 8.82718 44.6286C8.94303 44.5934 9.06051 44.5638 9.17961 44.5403C9.29871 44.5164 9.41821 44.4986 9.53892 44.4869C9.65964 44.4751 9.78077 44.469 9.90189 44.469Z" fill="#AF7B20"/>
</g>
<path d="M70.3941 38.2959C70.2325 38.2959 70.0709 38.304 69.91 38.3198C69.7492 38.3356 69.5892 38.3595 69.4308 38.3911C69.272 38.4223 69.1153 38.4616 68.9605 38.5086C68.8058 38.5556 68.6539 38.6098 68.5044 38.6718C68.3549 38.7338 68.2087 38.8031 68.0661 38.8792C67.9235 38.9554 67.7849 39.0384 67.6504 39.1284C67.516 39.2183 67.3863 39.3143 67.2611 39.4168C67.1364 39.5197 67.0165 39.6278 66.9022 39.7425C66.788 39.8567 66.6794 39.9762 66.5769 40.1014C66.4741 40.2266 66.378 40.3562 66.2881 40.4907C66.1982 40.6252 66.1151 40.7637 66.039 40.9063C65.9628 41.0489 65.8936 41.1951 65.832 41.3442C65.77 41.4937 65.7153 41.646 65.6687 41.8008C65.6217 41.9555 65.5824 42.1123 65.5508 42.2707C65.5192 42.4295 65.4958 42.5891 65.4796 42.7503C65.4638 42.9111 65.4561 43.0723 65.4561 43.234C65.4561 43.396 65.4638 43.5572 65.4796 43.7181C65.4958 43.8793 65.5192 44.0389 65.5508 44.1977C65.5824 44.3561 65.6217 44.5129 65.6687 44.6676C65.7153 44.8223 65.77 44.9743 65.832 45.1237C65.8936 45.2732 65.9628 45.4195 66.039 45.562C66.1151 45.7046 66.1982 45.8432 66.2881 45.9777C66.378 46.1122 66.4741 46.2418 66.5769 46.367C66.6794 46.4917 66.788 46.6116 66.9022 46.7259C67.0165 46.8401 67.1364 46.9487 67.2611 47.0512C67.3863 47.1541 67.516 47.2501 67.6504 47.34C67.7849 47.4299 67.9235 47.513 68.0661 47.5891C68.2087 47.6653 68.3549 47.7346 68.5044 47.7965C68.6539 47.8581 68.8058 47.9128 68.9605 47.9598C69.1153 48.0064 69.272 48.0457 69.4308 48.0773C69.5892 48.1089 69.7492 48.1328 69.91 48.1486C70.0709 48.1644 70.2325 48.1721 70.3941 48.1721C70.5558 48.1721 70.717 48.1644 70.8782 48.1486C71.039 48.1328 71.1986 48.1089 71.3574 48.0773C71.5158 48.0457 71.6726 48.0064 71.8274 47.9598C71.9821 47.9128 72.1344 47.8581 72.2839 47.7965C72.4334 47.7346 72.5792 47.6653 72.7218 47.5891C72.8644 47.513 73.0029 47.4299 73.1374 47.34C73.2719 47.2501 73.4015 47.1541 73.5267 47.0512C73.6519 46.9487 73.7714 46.8401 73.8856 46.7259C74.0003 46.6116 74.1088 46.4917 74.2113 46.367C74.3138 46.2418 74.4102 46.1122 74.4997 45.9777C74.5897 45.8432 74.6727 45.7046 74.7489 45.562C74.8254 45.4195 74.8943 45.2732 74.9563 45.1237C75.0183 44.9743 75.0725 44.8223 75.1195 44.6676C75.1665 44.5129 75.2058 44.3561 75.2374 44.1977C75.2686 44.0389 75.2925 43.8793 75.3083 43.7181C75.3241 43.5572 75.3322 43.396 75.3322 43.234C75.3322 43.0723 75.3241 42.9111 75.3083 42.7503C75.2925 42.5891 75.2686 42.4295 75.2374 42.2707C75.2058 42.1123 75.1665 41.9555 75.1195 41.8008C75.0725 41.646 75.0183 41.4937 74.9563 41.3442C74.8943 41.1951 74.8254 41.0489 74.7489 40.9063C74.6727 40.7637 74.5897 40.6252 74.4997 40.4907C74.4102 40.3562 74.3138 40.2266 74.2113 40.1014C74.1088 39.9762 74.0003 39.8567 73.8856 39.7425C73.7714 39.6278 73.6519 39.5197 73.5267 39.4168C73.4015 39.3143 73.2719 39.2183 73.1374 39.1284C73.0029 39.0384 72.8644 38.9554 72.7218 38.8792C72.5792 38.8031 72.4334 38.7338 72.2839 38.6718C72.1344 38.6098 71.9821 38.5556 71.8274 38.5086C71.6726 38.4616 71.5158 38.4223 71.3574 38.3911C71.1986 38.3595 71.039 38.3356 70.8782 38.3198C70.717 38.304 70.5558 38.2959 70.3941 38.2959ZM70.3941 45.703C70.3131 45.703 70.2325 45.6994 70.1519 45.6913C70.0717 45.6836 69.9915 45.6714 69.9125 45.6556C69.8331 45.6398 69.7545 45.6204 69.6771 45.5969C69.5997 45.5734 69.524 45.5462 69.4491 45.5151C69.3745 45.4843 69.3016 45.4498 69.2303 45.4118C69.159 45.3737 69.0893 45.332 69.0225 45.287C68.9552 45.242 68.89 45.1942 68.8276 45.1428C68.7653 45.0913 68.7053 45.037 68.6482 44.9799C68.5911 44.9228 68.5368 44.8629 68.4853 44.8005C68.4343 44.7381 68.3861 44.6733 68.3411 44.606C68.2962 44.5388 68.2548 44.4695 68.2164 44.3982C68.1783 44.3269 68.1438 44.2536 68.1131 44.1791C68.0819 44.1041 68.0547 44.0284 68.0312 43.951C68.0077 43.8736 67.9883 43.795 67.9725 43.7156C67.9567 43.6366 67.9449 43.5564 67.9368 43.4762C67.9291 43.3956 67.9251 43.315 67.9251 43.234C67.9251 43.1534 67.9287 43.0728 67.9368 42.9921C67.9449 42.9115 67.9567 42.8317 67.9725 42.7523C67.9883 42.6733 68.0077 42.5947 68.0312 42.5174C68.0547 42.44 68.0819 42.3638 68.1131 42.2893C68.1438 42.2148 68.1783 42.1414 68.2164 42.0701C68.2548 41.9989 68.2962 41.9296 68.3411 41.8623C68.3861 41.7951 68.4343 41.7303 68.4853 41.6679C68.5368 41.6051 68.5911 41.5456 68.6482 41.4884C68.7053 41.4309 68.7653 41.377 68.8276 41.3256C68.89 41.2741 68.9552 41.2259 69.0225 41.1814C69.0893 41.1364 69.159 41.0947 69.2303 41.0566C69.3016 41.0185 69.3745 40.9841 69.4491 40.9529C69.524 40.9221 69.5997 40.895 69.6771 40.8715C69.7545 40.848 69.8331 40.8281 69.9125 40.8123C69.9915 40.7969 70.0717 40.7848 70.1519 40.7771C70.2325 40.769 70.3131 40.7649 70.3941 40.7649C70.4747 40.7649 70.5554 40.769 70.636 40.7771C70.7166 40.7848 70.7964 40.7969 70.8758 40.8123C70.9552 40.8281 71.0334 40.848 71.1107 40.8715C71.1881 40.895 71.2643 40.9221 71.3388 40.9529C71.4138 40.9841 71.4867 41.0185 71.558 41.0566C71.6293 41.0947 71.6985 41.1364 71.7658 41.1814C71.833 41.2259 71.8978 41.2741 71.9602 41.3256C72.023 41.377 72.0826 41.4309 72.1401 41.4884C72.1972 41.5456 72.2515 41.6051 72.3025 41.6679C72.354 41.7303 72.4022 41.7951 72.4471 41.8623C72.4917 41.9296 72.5334 41.9989 72.5715 42.0701C72.6096 42.1414 72.644 42.2148 72.6752 42.2893C72.706 42.3638 72.7331 42.44 72.7566 42.5174C72.7801 42.5947 72.8 42.6733 72.8158 42.7523C72.8316 42.8317 72.8433 42.9115 72.851 42.9921C72.8591 43.0728 72.8632 43.1534 72.8632 43.234C72.8632 43.315 72.8591 43.3956 72.851 43.4762C72.8433 43.5564 72.8316 43.6366 72.8158 43.7156C72.8 43.795 72.7801 43.8736 72.7566 43.951C72.7331 44.0284 72.706 44.1041 72.6752 44.1791C72.644 44.2536 72.6096 44.3269 72.5715 44.3982C72.5334 44.4695 72.4917 44.5388 72.4471 44.606C72.4022 44.6733 72.354 44.7381 72.3025 44.8005C72.2515 44.8629 72.1972 44.9228 72.1401 44.9799C72.0826 45.037 72.023 45.0913 71.9602 45.1428C71.8978 45.1942 71.833 45.242 71.7658 45.287C71.6985 45.332 71.6293 45.3737 71.558 45.4118C71.4867 45.4498 71.4138 45.4843 71.3388 45.5151C71.2643 45.5462 71.1881 45.5734 71.1107 45.5969C71.0334 45.6204 70.9552 45.6398 70.8758 45.6556C70.7964 45.6714 70.7166 45.6836 70.636 45.6913C70.5554 45.6994 70.4747 45.703 70.3941 45.703Z" fill="#AF7B20"/>
<mask id="mask3_597_2197" style="mask-type:luminance" maskUnits="userSpaceOnUse" x="11" y="3" width="11" height="11">
<path d="M11.0967 3.72949H21.0522V13.6887H11.0967V3.72949Z" fill="white"/>
</mask>
<g mask="url(#mask3_597_2197)">
<path d="M16.0748 3.72949C15.9132 3.72949 15.7519 3.73719 15.5907 3.75339C15.4299 3.76919 15.2699 3.79269 15.1115 3.82428C14.9527 3.85588 14.7963 3.89518 14.6412 3.94217C14.4864 3.98916 14.3345 4.04344 14.185 4.10542C14.0356 4.1674 13.8897 4.23626 13.7471 4.31242C13.6045 4.38858 13.466 4.47162 13.3315 4.56155C13.197 4.65148 13.067 4.7479 12.9422 4.85038C12.817 4.95287 12.6975 5.06144 12.5829 5.17567C12.4687 5.29031 12.3601 5.40982 12.2576 5.53499C12.1551 5.65976 12.0587 5.78979 11.9688 5.92428C11.8793 6.05837 11.7962 6.19732 11.7196 6.33991C11.6435 6.4825 11.5746 6.62833 11.5126 6.77781C11.4507 6.92729 11.3964 7.0792 11.3494 7.23395C11.3024 7.38869 11.2631 7.54546 11.2315 7.70426C11.1999 7.86265 11.1764 8.02266 11.1606 8.18349C11.1448 8.34431 11.1367 8.50594 11.1367 8.66757C11.1367 8.8292 11.1448 8.99043 11.1606 9.15166C11.1764 9.31248 11.1999 9.47249 11.2315 9.63088C11.2631 9.78968 11.3024 9.94645 11.3494 10.1012C11.3964 10.2559 11.4507 10.4078 11.5126 10.5573C11.5746 10.7068 11.6435 10.8526 11.7196 10.9952C11.7962 11.1378 11.8793 11.2764 11.9688 11.4109C12.0587 11.5453 12.1551 11.6754 12.2576 11.8002C12.3601 11.9253 12.4687 12.0448 12.5829 12.1595C12.6975 12.2737 12.817 12.3823 12.9422 12.4848C13.067 12.5872 13.197 12.6837 13.3315 12.7736C13.466 12.8631 13.6045 12.9462 13.7471 13.0227C13.8897 13.0989 14.0356 13.1677 14.185 13.2297C14.3345 13.2917 14.4864 13.346 14.6412 13.393C14.7963 13.44 14.9527 13.4793 15.1115 13.5109C15.2699 13.5425 15.4299 13.566 15.5907 13.5817C15.7519 13.5975 15.9132 13.6057 16.0748 13.6057C16.2364 13.6057 16.3981 13.5975 16.5589 13.5817C16.7197 13.566 16.8797 13.5425 17.0381 13.5109C17.1969 13.4793 17.3537 13.44 17.5084 13.393C17.6632 13.346 17.8151 13.2917 17.9646 13.2297C18.114 13.1677 18.2599 13.0989 18.4025 13.0227C18.5455 12.9462 18.684 12.8631 18.8181 12.7736C18.9526 12.6837 19.0826 12.5872 19.2074 12.4848C19.3326 12.3823 19.4521 12.2737 19.5667 12.1595C19.6809 12.0448 19.7895 11.9253 19.892 11.8002C19.9945 11.6754 20.0909 11.5453 20.1808 11.4109C20.2707 11.2764 20.3538 11.1378 20.4299 10.9952C20.5061 10.8526 20.575 10.7068 20.637 10.5573C20.6989 10.4078 20.7532 10.2559 20.8002 10.1012C20.8472 9.94645 20.8865 9.78968 20.9181 9.63088C20.9497 9.47249 20.9732 9.31248 20.989 9.15166C21.0052 8.99043 21.0129 8.8292 21.0129 8.66757C21.0129 8.50594 21.0052 8.34431 20.989 8.18349C20.9732 8.02266 20.9497 7.86265 20.9181 7.70426C20.8865 7.54546 20.8472 7.38869 20.8002 7.23395C20.7532 7.0792 20.6989 6.92729 20.637 6.77781C20.575 6.62833 20.5061 6.4825 20.4299 6.33991C20.3538 6.19732 20.2707 6.05837 20.1808 5.92428C20.0909 5.78979 19.9945 5.65976 19.892 5.53499C19.7895 5.40982 19.6809 5.29031 19.5667 5.17567C19.4521 5.06144 19.3326 4.95287 19.2074 4.85038C19.0826 4.7479 18.9526 4.65148 18.8181 4.56155C18.684 4.47162 18.5455 4.38858 18.4025 4.31242C18.2599 4.23626 18.114 4.1674 17.9646 4.10542C17.8151 4.04344 17.6632 3.98916 17.5084 3.94217C17.3537 3.89518 17.1969 3.85588 17.0381 3.82428C16.8797 3.79269 16.7197 3.76919 16.5589 3.75339C16.3981 3.73719 16.2364 3.72949 16.0748 3.72949ZM16.0748 11.1366C15.9938 11.1366 15.9132 11.1326 15.833 11.1249C15.7523 11.1168 15.6725 11.105 15.5931 11.0892C15.5137 11.0734 15.4356 11.0536 15.3582 11.0305C15.2808 11.007 15.2047 10.9794 15.1301 10.9486C15.0552 10.9179 14.9823 10.883 14.911 10.8449C14.8397 10.8069 14.7704 10.7655 14.7032 10.7206C14.6359 10.6756 14.5711 10.6274 14.5083 10.576C14.4459 10.5249 14.386 10.4706 14.3288 10.4135C14.2717 10.3564 14.2174 10.2964 14.1664 10.2341C14.115 10.1713 14.0668 10.1065 14.0218 10.0392C13.9768 9.97197 13.9355 9.9027 13.8974 9.8314C13.8593 9.76011 13.8245 9.68719 13.7937 9.61225C13.7629 9.53771 13.7354 9.46155 13.7119 9.38418C13.6888 9.30681 13.669 9.22862 13.6532 9.14923C13.6374 9.06983 13.6256 8.99003 13.6175 8.90941C13.6098 8.8292 13.6058 8.74859 13.6058 8.66757C13.6058 8.58655 13.6098 8.50594 13.6175 8.42573C13.6256 8.34512 13.6374 8.26531 13.6532 8.18592C13.669 8.10652 13.6888 8.02834 13.7119 7.95096C13.7354 7.87359 13.7629 7.79743 13.7937 7.72249C13.8245 7.64795 13.8593 7.57504 13.8974 7.50374C13.9355 7.43244 13.9768 7.36317 14.0218 7.29593C14.0668 7.22868 14.115 7.16387 14.1664 7.10108C14.2174 7.03869 14.2717 6.97874 14.3288 6.92162C14.386 6.8645 14.4459 6.81022 14.5083 6.75877C14.5711 6.70773 14.6359 6.65953 14.7032 6.61456C14.7704 6.5696 14.8397 6.52828 14.911 6.4902C14.9823 6.45212 15.0552 6.41728 15.1301 6.38649C15.2047 6.3553 15.2808 6.32816 15.3582 6.30467C15.4356 6.28117 15.5137 6.26173 15.5931 6.24593C15.6725 6.23013 15.7523 6.21838 15.833 6.21028C15.9132 6.20258 15.9938 6.19853 16.0748 6.19853C16.1558 6.19853 16.2364 6.20258 16.3166 6.21028C16.3973 6.21838 16.4771 6.23013 16.5565 6.24593C16.6359 6.26173 16.714 6.28117 16.7914 6.30467C16.8688 6.32816 16.9449 6.3553 17.0199 6.38649C17.0944 6.41728 17.1673 6.45212 17.2386 6.4902C17.3099 6.52828 17.3792 6.5696 17.4464 6.61456C17.5137 6.65953 17.5785 6.70773 17.6413 6.75877C17.7037 6.81022 17.7636 6.8645 17.8207 6.92162C17.8779 6.97874 17.9321 7.03869 17.9836 7.10108C18.0346 7.16387 18.0828 7.22868 18.1278 7.29593C18.1728 7.36317 18.2141 7.43244 18.2522 7.50374C18.2902 7.57504 18.3251 7.64795 18.3559 7.72249C18.3871 7.79743 18.4142 7.87359 18.4377 7.95096C18.4612 8.02834 18.4806 8.10652 18.4964 8.18592C18.5122 8.26531 18.524 8.34512 18.5321 8.42573C18.5398 8.50594 18.5438 8.58655 18.5438 8.66757C18.5438 8.74859 18.5398 8.8292 18.5321 8.90941C18.524 8.99003 18.5122 9.06983 18.4964 9.14923C18.4806 9.22862 18.4612 9.30681 18.4377 9.38418C18.4142 9.46155 18.3871 9.53771 18.3559 9.61225C18.3251 9.68719 18.2902 9.76011 18.2522 9.8314C18.2141 9.9027 18.1728 9.97197 18.1278 10.0392C18.0828 10.1065 18.0346 10.1713 17.9836 10.2341C17.9321 10.2964 17.8779 10.3564 17.8207 10.4135C17.7636 10.4706 17.7037 10.5249 17.6413 10.576C17.5785 10.6274 17.5137 10.6756 17.4464 10.7206C17.3792 10.7655 17.3099 10.8069 17.2386 10.8449C17.1673 10.883 17.0944 10.9179 17.0199 10.9486C16.9449 10.9794 16.8688 11.007 16.7914 11.0305C16.714 11.0536 16.6359 11.0734 16.5565 11.0892C16.4771 11.105 16.3973 11.1168 16.3166 11.1249C16.2364 11.1326 16.1558 11.1366 16.0748 11.1366Z" fill="#AF7B20"/>
</g>
<path d="M16.6973 42.1623L25.3387 37.2246L26.5637 39.3684L17.9223 44.306L16.6973 42.1623Z" fill="#AF7B20"/>
<path d="M22.1621 14.004L23.5678 11.9736L31.5923 17.5295L30.187 19.5594L22.1621 14.004Z" fill="#AF7B20"/>
<path d="M52.4482 22.4417L66.0265 13.7979L67.3524 15.8808L53.7741 24.5243L52.4482 22.4417Z" fill="#AF7B20"/>
<path d="M54.2949 35.0134L55.6301 32.9365L64.2724 38.4924L62.9372 40.5693L54.2949 35.0134Z" fill="#AF7B20"/>
</svg>
