<svg width="74" height="74" viewBox="0 0 74 74" fill="none" xmlns="http://www.w3.org/2000/svg">
<path d="M35.3155 46.2815C35.4177 45.9706 35.571 45.6594 35.6729 45.4004H32.7617C32.711 45.5041 32.6599 45.556 32.6599 45.6594C32.3021 46.3853 31.7913 46.9036 31.2298 47.4739L30.9743 47.681V65.616C30.9743 67.0677 29.8506 68.2079 28.4206 68.2079C26.9906 68.2079 25.8668 67.0677 25.8668 65.616V52.8647L23.8242 54.9381V65.616C23.8242 68.2079 25.8668 70.2813 28.4206 70.2813C30.9743 70.2813 33.0173 68.2079 33.0173 65.616V47.4739H34.9069C34.958 47.2145 35.0603 47.0074 35.1625 46.748C35.2132 46.5927 35.2643 46.4371 35.3155 46.2815Z" fill="#AF7B20"/>
<mask id="mask0_475_1267" style="mask-type:luminance" maskUnits="userSpaceOnUse" x="4" y="31" width="28" height="28">
<path d="M4.41602 31.9229H31.009V58.9363H4.41602V31.9229Z" fill="white"/>
</mask>
<g mask="url(#mask0_475_1267)">
<path d="M30.974 43.8967C30.974 43.3265 30.7696 42.8081 30.3611 42.3935L29.3396 41.3567C28.88 41.8751 28.3181 42.2897 27.7055 42.6525L28.9311 43.8448V43.8967L16.2139 56.8037H16.1628L6.459 46.9551V46.9032L18.7165 34.4627V31.9746C18.3591 32.0784 18.0013 32.2336 17.695 32.5448L5.02898 45.3999C4.62045 45.8146 4.41602 46.3329 4.41602 46.9032C4.41602 47.4734 4.62045 47.9918 5.02898 48.4064L14.7328 58.255C15.5498 59.0846 16.878 59.0846 17.695 58.255L30.3611 45.3999C30.7696 44.9853 30.974 44.467 30.974 43.8967Z" fill="#AF7B20"/>
</g>
<path d="M24.8457 41.2531C27.0928 41.2531 28.9313 39.3871 28.9313 37.1065V27.7759C28.9313 27.2057 28.4717 26.7392 27.9098 26.7392C27.348 26.7392 26.8884 27.2057 26.8884 27.7759V37.1065C26.8884 38.2467 25.9691 39.1796 24.8457 39.1796C23.722 39.1796 22.8027 38.2467 22.8027 37.1065V24.6661C22.8027 22.7997 23.6198 21.0894 24.9476 19.9489C24.5391 19.3786 24.1817 18.8084 23.875 18.1348C21.9853 19.6895 20.7598 22.0223 20.7598 24.6661V37.1065C20.7598 39.3871 22.5983 41.2531 24.8457 41.2531Z" fill="#AF7B20"/>
<mask id="mask1_475_1267" style="mask-type:luminance" maskUnits="userSpaceOnUse" x="24" y="3" width="20" height="20">
<path d="M24.8262 3.93164H43.2872V22.6448H24.8262V3.93164Z" fill="white"/>
</mask>
<g mask="url(#mask1_475_1267)">
<path d="M34.0388 22.5925C39.0951 22.5925 43.2318 18.3937 43.2318 13.2619C43.2318 8.13046 39.0951 3.93164 34.0388 3.93164C28.9824 3.93164 24.8457 8.13046 24.8457 13.2619C24.8457 18.3937 28.9824 22.5925 34.0388 22.5925ZM34.0388 6.00511C37.9714 6.00511 41.1888 9.27058 41.1888 13.2619C41.1888 17.2532 37.9714 20.5191 34.0388 20.5191C30.1061 20.5191 26.8883 17.2532 26.8883 13.2619C26.8883 9.27058 30.1061 6.00511 34.0388 6.00511Z" fill="#AF7B20"/>
</g>
<path d="M39.6569 68.2084C38.2269 68.2084 37.1035 67.0683 37.1035 65.6165V63.6468C36.235 62.3511 35.5713 60.8997 35.0605 59.3965V65.6165C35.0605 68.2084 37.1035 70.2819 39.6569 70.2819C40.7806 70.2819 41.8021 69.8672 42.568 69.1932C41.9554 68.7786 41.3936 68.364 40.8317 67.8975C40.4743 68.1046 40.0658 68.2084 39.6569 68.2084Z" fill="#AF7B20"/>
<path d="M45.2741 24.6661V35.6548C45.9382 35.3439 46.6019 35.0849 47.3171 34.8774V24.6661C47.3171 22.0223 46.0912 19.6895 44.2015 18.1348C43.8952 18.7565 43.5374 19.3786 43.1289 19.9489C44.4571 21.0894 45.2741 22.7997 45.2741 24.6661Z" fill="#AF7B20"/>
<path d="M40.168 26.7393C39.6061 26.7393 39.1465 27.2058 39.1465 27.776V37.1066C39.1465 37.9359 39.402 38.7132 39.8106 39.3872C40.3213 38.9207 40.832 38.4542 41.3939 37.9877C41.2917 37.7284 41.1895 37.4175 41.1895 37.1066V27.776C41.1895 27.2058 40.7298 26.7393 40.168 26.7393Z" fill="#AF7B20"/>
<path d="M52.9359 36.0703C43.6406 36.0703 36.082 43.7417 36.082 53.1757C36.082 62.6098 43.6406 70.2815 52.9359 70.2815C62.2312 70.2815 69.7901 62.6098 69.7901 53.1757C69.7901 43.7417 62.2312 36.0703 52.9359 36.0703ZM52.9359 68.2081C44.7643 68.2081 38.1247 61.4696 38.1247 53.1757C38.1247 44.8822 44.7643 38.1434 52.9359 38.1434C61.1078 38.1434 67.7472 44.8822 67.7472 53.1757C67.7472 61.4696 61.1078 68.2081 52.9359 68.2081Z" fill="#AF7B20"/>
<path d="M61.6186 44.3642C60.2905 43.0166 58.0945 43.0166 56.7667 44.3642L52.936 48.2518L49.1056 44.3642C47.7778 43.0166 45.5815 43.0166 44.2537 44.3642C42.9259 45.7118 42.9259 47.9409 44.2537 49.2885L48.0841 53.1761L44.2537 57.0641C42.9259 58.4117 42.9259 60.6404 44.2537 61.9884C45.5815 63.336 47.7778 63.336 49.1056 61.9884L52.936 58.1004L56.7667 61.9884C58.0945 63.336 60.2905 63.336 61.6186 61.9884C62.9464 60.6404 62.9464 58.4117 61.6186 57.0641L57.7879 53.1761L61.6186 49.2885C62.9975 47.9409 62.9975 45.7118 61.6186 44.3642ZM60.1886 47.8372L55.643 52.4506C55.4386 52.6578 55.3364 52.9171 55.3364 53.1761C55.3364 53.4355 55.4386 53.6945 55.643 53.902L60.1886 58.5154C60.7501 59.0857 60.7501 59.9668 60.1886 60.537C59.6268 61.1069 58.7586 61.1069 58.1967 60.537L53.6512 55.9236C53.2426 55.509 52.5786 55.509 52.2211 55.9236L47.6755 60.537C47.1137 61.1069 46.2455 61.1069 45.6837 60.537C45.1218 59.9668 45.1218 59.0857 45.6837 58.5154L50.2293 53.902C50.4334 53.6945 50.5356 53.4355 50.5356 53.1761C50.5356 52.9171 50.4334 52.6578 50.2293 52.4506L45.6837 47.8372C45.4285 47.5782 45.2751 47.2151 45.2751 46.8523C45.2751 46.4896 45.4285 46.1265 45.6837 45.8675C45.9392 45.6085 46.2966 45.4528 46.6541 45.4528C47.0115 45.4528 47.3692 45.6085 47.6244 45.8675L52.17 50.4809C52.5786 50.8955 53.2426 50.8955 53.6 50.4809L58.1456 45.8675C58.7075 45.2972 59.5757 45.2972 60.1375 45.8675C60.3927 46.1265 60.546 46.4896 60.546 46.8523C60.546 47.2151 60.4438 47.5263 60.1886 47.8372Z" fill="#AF7B20"/>
</svg>
