<svg width="69" height="69" viewBox="0 0 69 69" fill="none" xmlns="http://www.w3.org/2000/svg">
<mask id="mask0_593_1737" style="mask-type:luminance" maskUnits="userSpaceOnUse" x="6" y="1" width="57" height="67">
<path d="M6.02148 1.28906H62.9465V67.7219H6.02148V1.28906Z" fill="white"/>
</mask>
<g mask="url(#mask0_593_1737)">
<path d="M61.7789 1.28906H16.708C16.6301 1.28906 16.5529 1.29672 16.4767 1.31169C16.4002 1.327 16.326 1.34962 16.2541 1.37924C16.1822 1.40919 16.1137 1.44579 16.0491 1.48905C15.9842 1.53231 15.9243 1.58122 15.8694 1.63646C15.8142 1.69136 15.7649 1.75126 15.7217 1.81615C15.6784 1.88103 15.6422 1.94925 15.6122 2.02112C15.5823 2.093 15.56 2.1672 15.5447 2.24374C15.5297 2.31994 15.522 2.39714 15.522 2.475V10.7776H7.21947C7.14161 10.7776 7.06441 10.7852 6.98788 10.8005C6.91168 10.8155 6.83747 10.8381 6.7656 10.8681C6.69339 10.8977 6.62517 10.9343 6.56029 10.9775C6.49573 11.0208 6.43584 11.0701 6.3806 11.125C6.32569 11.1802 6.27645 11.2401 6.23319 11.3046C6.18993 11.3695 6.15333 11.4377 6.12371 11.51C6.09376 11.5818 6.07114 11.656 6.05616 11.7322C6.04086 11.8088 6.0332 11.886 6.0332 11.9638V66.5233C6.0332 66.6011 6.04086 66.6783 6.05616 66.7549C6.07114 66.8311 6.09376 66.9053 6.12371 66.9771C6.15333 67.0494 6.18993 67.1176 6.23319 67.1825C6.27645 67.247 6.32569 67.3069 6.3806 67.3621C6.43584 67.4171 6.49573 67.4663 6.56029 67.5096C6.62517 67.5528 6.69339 67.5894 6.7656 67.619C6.83747 67.649 6.91168 67.6716 6.98788 67.6866C7.06441 67.7019 7.14161 67.7095 7.21947 67.7095H51.1045C51.1823 67.7095 51.2592 67.7019 51.3357 67.6866C51.4119 67.6716 51.4862 67.649 51.5584 67.619C51.6302 67.5894 51.6984 67.5528 51.7633 67.5096C51.8279 67.4663 51.8878 67.4171 51.943 67.3621C51.9979 67.3069 52.0472 67.247 52.0904 67.1825C52.1337 67.1176 52.1703 67.0494 52.2002 66.9771C52.2299 66.9053 52.2525 66.8311 52.2675 66.7549C52.2828 66.6783 52.2904 66.6011 52.2904 66.5233V58.2207H61.7789C61.8568 58.2207 61.934 58.2134 62.0105 58.1981C62.0867 58.1828 62.1609 58.1605 62.2328 58.1305C62.305 58.1006 62.3732 58.0643 62.4381 58.0211C62.5027 57.9778 62.5626 57.9286 62.6178 57.8733C62.6727 57.8184 62.7219 57.7585 62.7652 57.6936C62.8085 57.6291 62.8451 57.5605 62.8747 57.4887C62.9046 57.4168 62.9273 57.3426 62.9422 57.266C62.9575 57.1898 62.9652 57.1126 62.9652 57.0348V2.475C62.9652 2.39714 62.9575 2.31994 62.9422 2.24374C62.9273 2.1672 62.9046 2.093 62.8747 2.02112C62.8451 1.94925 62.8085 1.88103 62.7652 1.81615C62.7219 1.75126 62.6727 1.69136 62.6178 1.63646C62.5626 1.58122 62.5027 1.53231 62.4381 1.48905C62.3732 1.44579 62.305 1.40919 62.2328 1.37924C62.1609 1.34962 62.0867 1.327 62.0105 1.31169C61.934 1.29672 61.8568 1.28906 61.7789 1.28906ZM49.9182 65.3373H8.40541V13.1498H15.522V57.0348C15.522 57.1126 15.5297 57.1898 15.5447 57.266C15.56 57.3426 15.5823 57.4168 15.6122 57.4887C15.6422 57.5605 15.6784 57.6291 15.7217 57.6936C15.7649 57.7585 15.8142 57.8184 15.8694 57.8733C15.9243 57.9286 15.9842 57.9778 16.0491 58.0211C16.1137 58.0643 16.1822 58.1006 16.2541 58.1305C16.326 58.1605 16.4002 58.1828 16.4767 58.1981C16.5529 58.2134 16.6301 58.2207 16.708 58.2207H49.9182V65.3373ZM60.593 55.8488H17.8942V3.66127H60.593V55.8488Z" fill="#AF7B20"/>
</g>
<path d="M23.8249 36.8722H54.663C54.7408 36.8722 54.818 36.8646 54.8942 36.8492C54.9708 36.8343 55.045 36.8116 55.1169 36.7817C55.1887 36.7521 55.2573 36.7155 55.3218 36.6722C55.3867 36.629 55.4466 36.5797 55.5015 36.5248C55.5568 36.4696 55.6057 36.4097 55.6493 36.3451C55.6925 36.2802 55.7288 36.212 55.7587 36.1398C55.7884 36.0679 55.811 35.9937 55.8263 35.9175C55.8413 35.841 55.8489 35.7638 55.8489 35.6859C55.8489 35.6081 55.8413 35.5309 55.8263 35.4547C55.811 35.3781 55.7884 35.3039 55.7587 35.2321C55.7288 35.1602 55.6925 35.092 55.6493 35.0271C55.6057 34.9622 55.5568 34.9023 55.5015 34.8474C55.4466 34.7922 55.3867 34.7432 55.3218 34.7C55.2573 34.6567 55.1887 34.6201 55.1169 34.5902C55.045 34.5606 54.9708 34.5379 54.8942 34.5226C54.818 34.5077 54.7408 34.5 54.663 34.5H23.8249C23.7471 34.5 23.6699 34.5077 23.5933 34.5226C23.5171 34.5379 23.4429 34.5606 23.3711 34.5902C23.2989 34.6201 23.2306 34.6567 23.1658 34.7C23.1012 34.7432 23.0413 34.7922 22.9861 34.8474C22.9312 34.9023 22.8819 34.9622 22.8387 35.0271C22.7954 35.092 22.7588 35.1602 22.7292 35.2321C22.6992 35.3039 22.6766 35.3781 22.6616 35.4547C22.6463 35.5309 22.6387 35.6081 22.6387 35.6859C22.6387 35.7638 22.6463 35.841 22.6616 35.9175C22.6766 35.9937 22.6992 36.0679 22.7292 36.1398C22.7588 36.212 22.7954 36.2802 22.8387 36.3451C22.8819 36.4097 22.9312 36.4696 22.9861 36.5248C23.0413 36.5797 23.1012 36.629 23.1658 36.6722C23.2306 36.7155 23.2989 36.7521 23.3711 36.7817C23.4429 36.8116 23.5171 36.8343 23.5933 36.8492C23.6699 36.8646 23.7471 36.8722 23.8249 36.8722Z" fill="#AF7B20"/>
<path d="M23.8249 43.9884H54.663C54.7408 43.9884 54.818 43.9808 54.8942 43.9658C54.9708 43.9505 55.045 43.9279 55.1169 43.8982C55.1887 43.8683 55.2573 43.832 55.3218 43.7888C55.3867 43.7452 55.4466 43.6963 55.5015 43.641C55.5568 43.5861 55.6057 43.5262 55.6493 43.4613C55.6925 43.3964 55.7288 43.3282 55.7587 43.2564C55.7884 43.1845 55.811 43.1103 55.8263 43.0337C55.8413 42.9575 55.8489 42.8803 55.8489 42.8025C55.8489 42.7246 55.8413 42.6474 55.8263 42.5709C55.811 42.4947 55.7884 42.4205 55.7587 42.3486C55.7288 42.2767 55.6925 42.2082 55.6493 42.1436C55.6057 42.0787 55.5568 42.0188 55.5015 41.9636C55.4466 41.9087 55.3867 41.8595 55.3218 41.8162C55.2573 41.7729 55.1887 41.7363 55.1169 41.7067C55.045 41.6768 54.9708 41.6545 54.8942 41.6392C54.818 41.6239 54.7408 41.6162 54.663 41.6162H23.8249C23.7471 41.6162 23.6699 41.6239 23.5933 41.6392C23.5171 41.6545 23.4429 41.6768 23.3711 41.7067C23.2989 41.7363 23.2306 41.7729 23.1658 41.8162C23.1012 41.8595 23.0413 41.9087 22.9861 41.9636C22.9312 42.0188 22.8819 42.0787 22.8387 42.1436C22.7954 42.2082 22.7588 42.2767 22.7292 42.3486C22.6992 42.4205 22.6766 42.4947 22.6616 42.5709C22.6463 42.6474 22.6387 42.7246 22.6387 42.8025C22.6387 42.8803 22.6463 42.9575 22.6616 43.0337C22.6766 43.1103 22.6992 43.1845 22.7292 43.2564C22.7588 43.3282 22.7954 43.3964 22.8387 43.4613C22.8819 43.5262 22.9312 43.5861 22.9861 43.641C23.0413 43.6963 23.1012 43.7452 23.1658 43.7888C23.2306 43.832 23.2989 43.8683 23.3711 43.8982C23.4429 43.9279 23.5171 43.9505 23.5933 43.9658C23.6699 43.9808 23.7471 43.9884 23.8249 43.9884Z" fill="#AF7B20"/>
<path d="M23.8249 51.1046H54.663C54.7408 51.1046 54.818 51.097 54.8942 51.0817C54.9708 51.0667 55.045 51.0441 55.1169 51.0141C55.1887 50.9845 55.2573 50.9479 55.3218 50.9046C55.3867 50.8614 55.4466 50.8121 55.5015 50.7572C55.5568 50.702 55.6057 50.6421 55.6493 50.5775C55.6925 50.5127 55.7288 50.4444 55.7587 50.3722C55.7884 50.3004 55.811 50.2262 55.8263 50.15C55.8413 50.0734 55.8489 49.9962 55.8489 49.9184C55.8489 49.8405 55.8413 49.7636 55.8263 49.6871C55.811 49.6106 55.7884 49.5367 55.7587 49.4645C55.7288 49.3926 55.6925 49.3244 55.6493 49.2595C55.6057 49.1946 55.5568 49.1347 55.5015 49.0798C55.4466 49.0246 55.3867 48.9757 55.3218 48.9324C55.2573 48.8891 55.1887 48.8525 55.1169 48.8226C55.045 48.793 54.9708 48.7704 54.8942 48.755C54.818 48.7401 54.7408 48.7324 54.663 48.7324H23.8249C23.7471 48.7324 23.6699 48.7401 23.5933 48.755C23.5171 48.7704 23.4429 48.793 23.3711 48.8226C23.2989 48.8525 23.2306 48.8891 23.1658 48.9324C23.1012 48.9757 23.0413 49.0246 22.9861 49.0798C22.9312 49.1347 22.8819 49.1946 22.8387 49.2595C22.7954 49.3244 22.7588 49.3926 22.7292 49.4645C22.6992 49.5367 22.6766 49.6106 22.6616 49.6871C22.6463 49.7636 22.6387 49.8405 22.6387 49.9184C22.6387 49.9962 22.6463 50.0734 22.6616 50.15C22.6766 50.2262 22.6992 50.3004 22.7292 50.3722C22.7588 50.4444 22.7954 50.5127 22.8387 50.5775C22.8819 50.6421 22.9312 50.702 22.9861 50.7572C23.0413 50.8121 23.1012 50.8614 23.1658 50.9046C23.2306 50.9479 23.2989 50.9845 23.3711 51.0141C23.4429 51.0441 23.5171 51.0667 23.5933 51.0817C23.6699 51.097 23.7471 51.1046 23.8249 51.1046Z" fill="#AF7B20"/>
<path d="M47.5473 29.7548H54.6639C54.7418 29.7548 54.819 29.7472 54.8952 29.7322C54.9717 29.7169 55.0459 29.6942 55.1178 29.6646C55.1896 29.6347 55.2582 29.5981 55.3227 29.5548C55.3876 29.5116 55.4475 29.4627 55.5024 29.4074C55.5577 29.3525 55.6066 29.2926 55.6502 29.2277C55.6934 29.1628 55.7297 29.0946 55.7596 29.0227C55.7893 28.9505 55.8119 28.8767 55.8272 28.8001C55.8422 28.7239 55.8498 28.6467 55.8498 28.5689V9.59154C55.8498 9.51368 55.8422 9.43648 55.8272 9.35995C55.8119 9.28375 55.7893 9.20954 55.7596 9.13767C55.7297 9.06579 55.6934 8.99724 55.6502 8.93269C55.6066 8.8678 55.5577 8.80791 55.5024 8.75267C55.4475 8.69776 55.3876 8.64852 55.3227 8.60526C55.2582 8.562 55.1896 8.5254 55.1178 8.49578C55.0459 8.46583 54.9717 8.44354 54.8952 8.42823C54.819 8.41293 54.7418 8.40527 54.6639 8.40527H47.5473C47.4694 8.40527 47.3922 8.41293 47.316 8.42823C47.2395 8.44354 47.1653 8.46583 47.0934 8.49578C47.0215 8.5254 46.9533 8.562 46.8884 8.60526C46.8235 8.64852 46.7636 8.69776 46.7087 8.75267C46.6535 8.80791 46.6046 8.8678 46.5613 8.93269C46.5181 8.99724 46.4815 9.06579 46.4515 9.13767C46.4219 9.20954 46.3993 9.28375 46.384 9.35995C46.369 9.43648 46.3613 9.51368 46.3613 9.59154V28.5689C46.3613 28.6467 46.369 28.7239 46.384 28.8001C46.3993 28.8767 46.4219 28.9505 46.4515 29.0227C46.4815 29.0946 46.5181 29.1628 46.5613 29.2277C46.6046 29.2926 46.6535 29.3525 46.7087 29.4074C46.7636 29.4627 46.8235 29.5116 46.8884 29.5548C46.9533 29.5981 47.0215 29.6347 47.0934 29.6646C47.1653 29.6942 47.2395 29.7169 47.316 29.7322C47.3922 29.7472 47.4694 29.7548 47.5473 29.7548ZM48.7335 10.7775H53.4776V27.3826H48.7335V10.7775Z" fill="#AF7B20"/>
<path d="M35.6859 29.7554H42.8026C42.8804 29.7554 42.9573 29.7477 43.0338 29.7327C43.11 29.7174 43.1842 29.6948 43.2564 29.6652C43.3283 29.6353 43.3965 29.5986 43.4614 29.5554C43.526 29.5121 43.5859 29.4632 43.6411 29.408C43.696 29.3531 43.7453 29.2932 43.7885 29.2283C43.8318 29.1634 43.8684 29.0952 43.8983 29.0233C43.9279 28.9511 43.9506 28.8772 43.9655 28.8007C43.9808 28.7245 43.9885 28.6473 43.9885 28.5694V16.7084C43.9885 16.6305 43.9808 16.5537 43.9655 16.4771C43.9506 16.4006 43.9279 16.3267 43.8983 16.2545C43.8684 16.1826 43.8318 16.1144 43.7885 16.0495C43.7453 15.985 43.696 15.9248 43.6411 15.8699C43.5859 15.8146 43.526 15.7657 43.4614 15.7224C43.3965 15.6792 43.3283 15.6426 43.2564 15.6126C43.1842 15.583 43.11 15.5604 43.0338 15.5451C42.9573 15.5301 42.8804 15.5225 42.8026 15.5225H35.6859C35.6081 15.5225 35.5309 15.5301 35.4547 15.5451C35.3781 15.5604 35.3039 15.583 35.2321 15.6126C35.1602 15.6426 35.0916 15.6792 35.0271 15.7224C34.9622 15.7657 34.9023 15.8146 34.8474 15.8699C34.7922 15.9248 34.7429 15.985 34.6997 16.0495C34.6564 16.1144 34.6198 16.1826 34.5902 16.2545C34.5602 16.3267 34.5379 16.4006 34.5226 16.4771C34.5073 16.5537 34.5 16.6305 34.5 16.7084V28.5694C34.5 28.6473 34.5073 28.7245 34.5226 28.8007C34.5379 28.8772 34.5602 28.9511 34.5902 29.0233C34.6198 29.0952 34.6564 29.1634 34.6997 29.2283C34.7429 29.2932 34.7922 29.3531 34.8474 29.408C34.9023 29.4632 34.9622 29.5121 35.0271 29.5554C35.0916 29.5986 35.1602 29.6353 35.2321 29.6652C35.3039 29.6948 35.3781 29.7174 35.4547 29.7327C35.5309 29.7477 35.6081 29.7554 35.6859 29.7554ZM36.8719 17.8947H41.6163V27.3832H36.8719V17.8947Z" fill="#AF7B20"/>
<path d="M23.8249 29.7551H30.9412C31.0191 29.7551 31.0963 29.7474 31.1728 29.7325C31.249 29.7172 31.3232 29.6945 31.3951 29.6649C31.4673 29.635 31.5355 29.5984 31.6004 29.5551C31.665 29.5119 31.7249 29.4629 31.7801 29.4077C31.835 29.3528 31.8843 29.2929 31.9275 29.228C31.9708 29.1631 32.0074 29.0949 32.037 29.023C32.0669 28.9508 32.0896 28.877 32.1045 28.8004C32.1199 28.7242 32.1275 28.647 32.1275 28.5692V21.4525C32.1275 21.3747 32.1199 21.2975 32.1045 21.2213C32.0896 21.1447 32.0669 21.0705 32.037 20.9987C32.0074 20.9268 31.9708 20.8582 31.9275 20.7937C31.8843 20.7288 31.835 20.6689 31.7801 20.614C31.7249 20.5588 31.665 20.5095 31.6004 20.4663C31.5355 20.423 31.4673 20.3867 31.3951 20.3568C31.3232 20.3268 31.249 20.3045 31.1728 20.2892C31.0963 20.2743 31.0191 20.2666 30.9412 20.2666H23.8249C23.7471 20.2666 23.6699 20.2743 23.5933 20.2892C23.5171 20.3045 23.4429 20.3268 23.3711 20.3568C23.2989 20.3867 23.2306 20.423 23.1658 20.4663C23.1012 20.5095 23.0413 20.5588 22.9861 20.614C22.9312 20.6689 22.8819 20.7288 22.8387 20.7937C22.7954 20.8582 22.7588 20.9268 22.7292 20.9987C22.6992 21.0705 22.6766 21.1447 22.6616 21.2213C22.6463 21.2975 22.6387 21.3747 22.6387 21.4525V28.5692C22.6387 28.647 22.6463 28.7242 22.6616 28.8004C22.6766 28.877 22.6992 28.9508 22.7292 29.023C22.7588 29.0949 22.7954 29.1631 22.8387 29.228C22.8819 29.2929 22.9312 29.3528 22.9861 29.4077C23.0413 29.4629 23.1012 29.5119 23.1658 29.5551C23.2306 29.5984 23.2989 29.635 23.3711 29.6649C23.4429 29.6945 23.5171 29.7172 23.5933 29.7325C23.6699 29.7474 23.7471 29.7551 23.8249 29.7551ZM25.0109 22.6388H29.7553V27.3829H25.0109V22.6388Z" fill="#AF7B20"/>
</svg>
