<svg width="77" height="77" viewBox="0 0 77 77" fill="none" xmlns="http://www.w3.org/2000/svg">
<mask id="mask0_597_1780" style="mask-type:luminance" maskUnits="userSpaceOnUse" x="3" y="17" width="71" height="50">
<path d="M3.54004 17.6816H73.4817V66.9177H3.54004V17.6816Z" fill="white"/>
</mask>
<g mask="url(#mask0_597_1780)">
<path d="M70.1828 17.7422H58.9302C59.4764 18.4522 60.0227 19.1625 60.5143 19.9271H70.1828C70.784 19.9271 71.2752 20.4188 71.2752 21.0196V59.2574C71.2752 59.8582 70.784 60.3499 70.1828 60.3499H6.81744C6.21662 60.3499 5.72497 59.8582 5.72497 59.2574V21.0196C5.72497 20.4188 6.21662 19.9271 6.81744 19.9271H16.4863C16.9779 19.1625 17.5241 18.4522 18.0704 17.7422H6.81744C5.01498 17.7422 3.54004 19.2171 3.54004 21.0196V59.2574C3.54004 61.0603 5.01498 62.5348 6.81744 62.5348H32.4915V64.7201H27.0288C26.428 64.7201 25.9364 65.2118 25.9364 65.8126C25.9364 66.4134 26.428 66.9051 27.0288 66.9051H49.9714C50.5722 66.9051 51.0638 66.4134 51.0638 65.8126C51.0638 65.2118 50.5722 64.7201 49.9714 64.7201H44.509V62.5348H70.1828C71.9856 62.5348 73.4605 61.0603 73.4605 59.2574V21.0196C73.4605 19.2171 71.9856 17.7422 70.1828 17.7422ZM34.6765 64.7201V62.5348H42.3241V64.7201H34.6765Z" fill="#AF7B20"/>
</g>
<mask id="mask1_597_1780" style="mask-type:luminance" maskUnits="userSpaceOnUse" x="14" y="10" width="49" height="49">
<path d="M14.4492 10.0947H62.5505V58.1778H14.4492V10.0947Z" fill="white"/>
</mask>
<g mask="url(#mask1_597_1780)">
<path d="M38.4999 58.1652C51.774 58.1652 62.5353 47.4039 62.5353 34.1301C62.5353 20.856 51.774 10.0947 38.4999 10.0947C25.2261 10.0947 14.4648 20.856 14.4648 34.1301C14.4648 47.4039 25.2261 58.1652 38.4999 58.1652ZM16.8135 31.3986C17.6331 31.4532 19.2718 31.7265 19.3264 32.6552C19.2172 33.8022 19.2718 34.8947 19.3809 35.9326C19.5997 37.6259 20.7467 38.6092 21.7846 39.4833C22.7679 40.3025 23.3141 40.8491 23.3687 41.6136C23.4233 42.0507 23.205 42.5423 23.0408 43.0886C22.8771 43.4711 22.7679 43.8532 22.6587 44.2902V44.3448C22.4946 45.0006 22.3854 45.7652 22.4946 46.5847C22.6587 47.4039 22.4946 47.9501 22.3308 48.1688C22.2762 48.278 22.1125 48.3326 21.8938 48.3326C18.6164 44.5089 16.6498 39.5379 16.6498 34.1301C16.6498 33.2014 16.7044 32.3273 16.8135 31.3986ZM31.1255 54.669C32.9829 53.9045 36.2603 53.3036 39.1007 55.9256H38.4999C35.9325 55.9802 33.4196 55.5432 31.1255 54.669ZM43.4709 12.8809C42.9247 13.6454 42.5422 14.7379 42.8155 16.0491V16.1583C42.9247 16.4858 42.9793 16.9774 42.9247 17.1416C41.996 17.087 37.8445 16.9228 37.5166 19.5998V19.7635C37.462 20.6923 37.2436 21.0198 37.1891 21.0744C37.1345 21.1289 36.9703 21.1839 36.8612 21.2385C36.4787 21.4568 35.987 21.6755 35.7141 22.1668C35.4954 22.5493 34.7854 23.6964 35.3862 24.6796C36.0416 25.8271 37.6807 25.7721 39.7019 25.7175C41.3952 25.6629 43.6347 25.5538 44.4542 26.4279C44.5634 26.5371 44.8913 26.865 44.8363 27.7933C44.7817 27.9574 44.3996 28.1212 43.6347 28.0666H43.5255C41.1219 27.9574 40.5756 27.8479 40.4665 27.7933C38.5545 27.1925 36.2058 26.4825 33.6929 27.1379C32.1634 27.5204 30.7976 28.5037 29.8693 29.7599C30.5247 29.432 31.2347 29.2136 31.9451 29.2136C32.218 29.2136 32.5459 29.2682 32.8188 29.3228L33.5292 29.487C33.7475 29.3774 33.9659 29.3228 34.2392 29.2136C35.987 28.7766 37.7353 29.2136 39.8111 29.8691C40.3027 30.0332 41.3952 30.1424 43.4163 30.2515H43.5255C44.7272 30.3061 45.6559 30.0332 46.2567 29.487C46.967 28.8312 47.0216 28.1212 47.0216 28.012C47.1308 26.7008 46.8029 25.6629 46.0383 24.953C44.5634 23.4234 41.8322 23.5326 39.6469 23.5872C38.9915 23.5872 38.0082 23.6418 37.462 23.5872C37.462 23.5326 37.5166 23.478 37.5712 23.4234C37.6261 23.3688 37.7899 23.3143 37.8991 23.2597C38.2269 23.0955 38.5545 22.9318 38.8278 22.6039C39.5923 21.7301 39.6469 20.4735 39.7019 19.9819C39.7565 19.6544 41.286 19.3265 42.8155 19.4357H42.8701C43.6347 19.4357 44.2901 19.1627 44.7272 18.6165C45.4921 17.5786 45.055 16.0491 44.9459 15.612C44.7272 14.6287 45.4375 13.9733 45.8196 13.7C52.211 15.9945 57.2363 21.1839 59.3121 27.6841C58.2742 27.5749 57.1817 27.9028 56.4172 28.1758C56.253 28.2304 56.0893 28.2849 55.9801 28.3395C55.1606 27.5749 54.0135 27.1925 53.0848 27.1925C52.2656 27.1379 51.5007 27.4658 50.9544 28.1212C50.4082 28.7766 50.1899 29.5961 50.4082 30.4153C50.4628 30.6886 50.6269 30.9615 50.7361 31.2894C50.7907 31.344 50.7907 31.4532 50.8453 31.5627C50.572 31.6173 50.1899 31.5627 50.0807 31.4532C49.4249 30.7978 48.5512 30.5248 47.7862 30.7432C47.0762 30.9615 46.6392 31.6173 46.5846 32.4365C46.4754 33.7476 46.8575 35.0585 47.7316 36.0418C48.4416 36.8067 49.3157 37.1342 50.0807 37.4621C50.0257 37.5713 49.9711 37.6259 49.9166 37.7354C49.7528 38.0083 49.589 38.2816 49.4249 38.5C49.2066 38.8279 48.9879 39.1008 48.7149 39.4287C48.1141 40.1933 47.5133 40.9582 47.1308 41.9961C46.8029 42.8699 46.7483 43.6894 46.6937 44.5635C46.6392 45.1643 46.5846 45.656 46.4754 46.2022C46.3659 46.6393 46.0929 47.0214 45.7105 47.4585C45.1096 48.2234 44.2355 48.9334 43.4163 49.4796C42.9793 49.8075 42.3785 50.135 42.0506 49.7529C41.5043 49.2067 41.1219 48.3872 40.9035 47.2947C40.7943 46.8576 40.7943 46.4206 40.7943 45.8743V45.4373C40.2481 45.4373 39.5923 45.6014 38.9369 45.6014H38.6636V45.656C38.6636 46.2568 38.7186 46.803 38.8278 47.4585C39.1553 48.9334 39.7015 50.135 40.521 50.9546C41.0673 51.5008 41.7227 51.7741 42.4331 51.7741C43.143 51.7741 43.9626 51.5008 44.7817 50.9C45.6559 50.2446 46.6937 49.4796 47.4583 48.4963C47.8408 48.0047 48.387 47.2947 48.6603 46.366C48.8241 45.7106 48.8787 45.0552 48.9333 44.3994C48.9879 43.6894 49.0428 43.034 49.2612 42.4332C49.5341 41.7228 49.9711 41.122 50.5174 40.4666C50.7907 40.1387 51.0636 39.8112 51.2823 39.4287C51.5007 39.1554 51.6648 38.8279 51.8286 38.5546C51.9377 38.3908 51.9923 38.2816 52.1015 38.1175C52.3202 37.7354 52.7573 37.0796 52.484 36.3696C52.3748 36.0418 52.1015 35.6047 51.4461 35.3864C51.2823 35.3318 51.0636 35.2226 50.8999 35.168C50.2445 34.9493 49.6982 34.7309 49.3703 34.3485C49.0424 33.966 48.8241 33.4743 48.7695 32.9281C49.4249 33.4743 50.4628 33.5839 51.2277 33.4743C52.0469 33.3652 52.7027 32.9281 53.0302 32.3273C53.4127 31.5627 53.0302 30.6886 52.7027 30.0878C52.6477 29.9786 52.5386 29.7599 52.5386 29.7053C52.484 29.487 52.5931 29.3774 52.6477 29.3228C52.7027 29.2682 52.8119 29.1591 52.9756 29.1591C53.631 29.2136 54.2868 29.487 54.5597 29.8691C55.1606 30.7432 56.1984 30.4153 57.1271 30.0878C57.8921 29.8145 58.875 29.487 59.4762 29.8145C59.7491 29.9786 59.9679 30.3061 60.1316 30.7978C60.2954 31.8902 60.4045 32.9827 60.4045 34.1301C60.4045 45.0552 52.3748 54.1228 41.8868 55.7069C41.8868 55.7069 41.8868 55.6523 41.8322 55.6523C37.4074 50.135 31.2893 51.7741 28.5581 53.522C26.7553 52.5933 25.062 51.3916 23.5871 50.0259C23.7512 49.9167 23.8604 49.8075 23.9695 49.6983C24.9528 48.6605 24.8437 47.0763 24.6795 46.2568C24.6249 45.8197 24.6795 45.3827 24.7891 44.8365V44.7273C24.8437 44.454 24.9528 44.1265 25.062 43.7986C25.3353 43.0886 25.6082 42.3236 25.5536 41.3953C25.4445 39.647 24.2428 38.6638 23.205 37.7354C22.3854 37.0251 21.6754 36.4242 21.5659 35.6047C21.4567 34.6764 21.4567 33.6931 21.5113 32.7098V32.6006C21.4567 30.7432 19.818 29.487 17.1414 29.2136C17.3052 28.5037 17.5239 27.7933 17.7422 27.1379C17.9606 27.1925 18.1247 27.2471 18.2885 27.2471H18.3977C19.7634 27.2471 20.9651 26.0454 21.8392 24.953C22.44 24.2426 23.2595 23.8605 24.1882 23.4234C24.352 23.3688 24.5158 23.2597 24.6795 23.2047C25.5536 22.768 26.7553 22.0577 27.2469 20.6377C27.5748 19.6544 27.4657 18.6711 27.3019 17.8515C27.3019 17.7424 27.2469 17.5786 27.2469 17.4145C27.1378 16.7045 27.0832 16.1037 26.8648 15.612C29.4322 14.0279 32.3272 12.9354 35.4408 12.4984V12.9354C35.4408 13.5363 35.4408 13.9733 35.2225 14.1371C35.0038 14.3008 34.7308 14.41 34.3483 14.5741C34.13 14.6287 33.9113 14.7379 33.7475 14.8471C32.8734 15.2841 31.8355 15.7758 31.0709 16.5407C30.1968 17.4145 30.2514 18.234 30.4701 18.7257C30.6339 19.1081 31.0709 19.3811 31.4534 19.3811C31.6172 19.3811 31.7263 19.3265 31.8901 19.2719C32.3272 19.0532 32.6005 18.6165 32.5459 18.1248L32.6005 18.0703C33.0921 17.524 33.9113 17.1415 34.6216 16.8137C34.7854 16.7591 34.9492 16.7045 35.1133 16.5953C35.6049 16.4312 36.0966 16.2128 36.5879 15.8304C37.6257 15.0112 37.6257 13.7546 37.5712 12.9354V12.3342H38.3907C40.1932 12.2797 41.8868 12.4984 43.4709 12.8809ZM25.0074 16.9774C25.062 17.2507 25.1166 17.5237 25.1166 17.7424C25.1166 17.9607 25.1712 18.1248 25.1712 18.234C25.2807 18.8348 25.3353 19.4357 25.1712 19.9273C25.0074 20.4735 24.5704 20.856 23.6966 21.2385C23.5325 21.2931 23.3687 21.4022 23.2595 21.4568C22.2217 21.9485 21.1292 22.4401 20.2005 23.5326C19.3809 24.5159 18.8893 24.8438 18.671 25.0075C20.0913 21.8393 22.2762 19.1081 25.0074 16.9774Z" fill="#AF7B20"/>
</g>
<path d="M52.5379 45.4377H52.7566C53.9583 45.2194 54.9961 43.799 55.2694 43.362C55.7061 42.7066 56.5803 41.1225 55.9794 40.03C55.6515 39.4838 54.9961 39.32 54.5045 39.6475C54.0128 39.9208 53.8491 40.5216 54.0128 41.0133C54.0128 41.1771 53.8491 41.6687 53.4666 42.2149C52.975 42.9799 52.4833 43.3074 52.3741 43.362C51.7733 43.4715 51.3908 44.0723 51.5 44.6186C51.5546 45.0556 51.9917 45.4377 52.5379 45.4377Z" fill="#AF7B20"/>
<path d="M29.8695 34.2937L32.2182 41.231C32.4915 42.1051 33.3107 42.706 34.1848 42.706H34.2394C35.004 42.706 35.7143 42.3235 36.0968 41.6681L37.4622 42.8697C37.8993 43.1976 38.3909 43.4159 38.8826 43.4159C39.4288 43.4159 40.0296 43.1976 40.4667 42.7605L42.2146 41.0127C42.6516 40.5756 42.8703 39.9748 42.8158 39.374C42.7608 38.7731 42.4879 38.2265 42.0508 37.7899L40.9038 36.8066C41.45 36.3149 41.7229 35.6045 41.6683 34.8946C41.5592 33.9658 40.8492 33.2013 39.9205 33.0371L32.3274 31.453C32.2182 31.3984 32.1091 31.3984 31.9453 31.3984C31.3441 31.3984 30.7433 31.6717 30.3062 32.1088C29.8146 32.7096 29.6508 33.5288 29.8695 34.2937ZM39.538 35.1679L37.0252 36.3149L40.685 39.4286L38.9372 41.231L35.2773 38.1174L34.2394 40.5756L31.9453 33.5837L39.538 35.1679Z" fill="#AF7B20"/>
</svg>
