<svg width="75" height="75" viewBox="0 0 75 75" fill="none" xmlns="http://www.w3.org/2000/svg">
<path d="M40.7705 62.7406H34.2272C33.7856 62.7406 33.3892 62.4686 33.2308 62.0562L31.8874 58.567C30.0255 58.0722 28.242 57.3329 26.5721 56.3636L23.1526 57.882C22.749 58.0617 22.2766 57.9735 21.9641 57.6614L17.3374 53.0346C17.0252 52.7221 16.9374 52.2497 17.1168 51.8457L18.6348 48.4278C17.6654 46.7582 16.9258 44.974 16.4303 43.1106L12.9421 41.768C12.5298 41.6092 12.2578 41.2128 12.2578 40.7712V34.2282C12.2578 33.7862 12.5298 33.3902 12.9421 33.2314L16.431 31.8884C16.9258 30.0261 17.6654 28.2422 18.6351 26.5723L17.1168 23.1536C16.9374 22.75 17.0252 22.2772 17.3374 21.9647L21.9641 17.3384C22.2766 17.0259 22.749 16.938 23.1526 17.1174L26.5721 18.6361C28.242 17.6664 30.0255 16.9271 31.8874 16.432L33.2308 12.9431C33.3892 12.5304 33.7856 12.2588 34.2272 12.2588H40.7702C41.2122 12.2588 41.6082 12.5308 41.767 12.9431L43.1103 16.432C44.9723 16.9271 46.7558 17.6664 48.4257 18.6361L51.8451 17.1174C52.2488 16.938 52.7211 17.0259 53.0336 17.3384L57.6604 21.9647C57.9729 22.2772 58.0604 22.7496 57.881 23.1536L56.363 26.5716C57.3327 28.2415 58.0723 30.0257 58.5675 31.8888L62.0556 33.2317C62.468 33.3902 62.74 33.7866 62.74 34.2286V40.7712C62.74 41.2131 62.468 41.6092 62.0556 41.768L58.5664 43.1109C58.0713 44.9729 57.332 46.7564 56.3623 48.4267L57.881 51.8457C58.0604 52.2497 57.9729 52.7221 57.6604 53.0346L53.0336 57.6614C52.7211 57.9735 52.2488 58.0614 51.8451 57.882L48.4272 56.364C46.7569 57.3337 44.9727 58.0733 43.1096 58.5685L41.767 62.0566C41.6086 62.4686 41.2122 62.7406 40.7705 62.7406ZM34.9607 60.6044H40.037L41.3149 57.2841C41.4415 56.9553 41.7218 56.7101 42.0647 56.6287C44.0898 56.147 46.0172 55.3476 47.7942 54.2535C48.094 54.0687 48.4662 54.0437 48.7878 54.1866L52.0415 55.6319L55.6309 52.0425L54.1853 48.7873C54.0424 48.4654 54.0674 48.0936 54.2518 47.7937C55.3459 46.0167 56.1453 44.0897 56.6267 42.0656C56.7084 41.7231 56.9533 41.4425 57.2821 41.3159L60.6038 40.0377V34.9613L57.2831 33.6835C56.9544 33.5569 56.7095 33.2766 56.6278 32.9341C56.146 30.9086 55.3466 28.9808 54.2525 27.2042C54.0677 26.9043 54.0431 26.5325 54.186 26.2106L55.6309 22.9565L52.0415 19.3671L48.7863 20.8131C48.4644 20.9556 48.0926 20.931 47.7928 20.7462C46.0158 19.6521 44.0887 18.8531 42.0647 18.3713C41.7222 18.2896 41.4418 18.0447 41.3153 17.716L40.0367 14.3946H34.9607L33.6821 17.716C33.5556 18.0447 33.2752 18.2896 32.9327 18.3713C30.9087 18.8531 28.9813 19.6521 27.2046 20.7462C26.9048 20.931 26.5326 20.9556 26.2111 20.8131L22.9559 19.3671L19.3665 22.9565L20.8118 26.2113C20.9546 26.5332 20.93 26.9051 20.7452 27.2049C19.6511 28.9819 18.8521 30.909 18.3704 32.9337C18.289 33.2762 18.0438 33.5569 17.715 33.6831L14.394 34.9613V40.0377L17.7143 41.3159C18.043 41.4421 18.2883 41.7224 18.3696 42.0653C18.8518 44.0907 19.6511 46.0186 20.7449 47.7948C20.9297 48.095 20.9546 48.4668 20.8118 48.7884L19.3665 52.0425L22.9559 55.6319L26.2111 54.1862C26.533 54.0434 26.9044 54.0683 27.2046 54.2528C28.9816 55.3469 30.9087 56.1459 32.9327 56.6276C33.2752 56.7094 33.5556 56.9542 33.6821 57.283L34.9607 60.6044Z" fill="#AF7B20"/>
<path d="M37.5006 54.367C28.1997 54.367 20.6328 46.8001 20.6328 37.4996C20.6328 28.1987 28.1997 20.6318 37.5006 20.6318C46.8011 20.6318 54.368 28.1987 54.368 37.4996C54.368 46.8001 46.8011 54.367 37.5006 54.367ZM37.5006 22.768C29.3774 22.768 22.769 29.3764 22.769 37.4996C22.769 45.6224 29.3774 52.2309 37.5006 52.2309C45.6234 52.2309 52.2318 45.6224 52.2318 37.4996C52.2318 29.3764 45.6234 22.768 37.5006 22.768Z" fill="#AF7B20"/>
<path d="M37.4997 27.3523C36.9098 27.3523 36.4316 26.8741 36.4316 26.2842V24.9206C36.4316 24.3307 36.9098 23.8525 37.4997 23.8525C38.0893 23.8525 38.5678 24.3307 38.5678 24.9206V26.2842C38.5678 26.8741 38.0893 27.3523 37.4997 27.3523Z" fill="#AF7B20"/>
<path d="M45.4313 30.6374C45.1578 30.6374 44.8847 30.5329 44.6761 30.3242C44.259 29.9072 44.259 29.2312 44.6761 28.8141L45.6407 27.8499C46.0577 27.4329 46.7341 27.4329 47.1507 27.8499C47.5681 28.2669 47.5681 28.9433 47.1507 29.3603L46.1865 30.3246C45.9781 30.5329 45.7047 30.6374 45.4313 30.6374Z" fill="#AF7B20"/>
<path d="M46.3955 47.4626C46.1221 47.4626 45.849 47.3584 45.6407 47.1497L44.6761 46.1858C44.259 45.7684 44.259 45.0924 44.6761 44.6754C45.0931 44.258 45.7694 44.258 46.1865 44.675L47.1507 45.6393C47.5681 46.0563 47.5681 46.7327 47.1507 47.1497C46.9424 47.3584 46.669 47.4626 46.3955 47.4626Z" fill="#AF7B20"/>
<path d="M28.605 47.4623C28.332 47.4623 28.0585 47.3581 27.8498 47.1494C27.4328 46.7324 27.4328 46.0561 27.8502 45.639L28.8145 44.6748C29.2315 44.2581 29.9079 44.2581 30.3249 44.6751C30.7419 45.0921 30.7419 45.7681 30.3245 46.1855L29.3603 47.1494C29.1519 47.3581 28.8785 47.4623 28.605 47.4623Z" fill="#AF7B20"/>
<path d="M29.5697 30.6374C29.2962 30.6374 29.0228 30.5329 28.8145 30.3246L27.8502 29.3603C27.4328 28.9433 27.4328 28.2669 27.8498 27.8499C28.2669 27.4329 28.9432 27.4329 29.3603 27.8499L30.3245 28.8141C30.7419 29.2312 30.7419 29.9072 30.3249 30.3242C30.1162 30.5329 29.8431 30.6374 29.5697 30.6374Z" fill="#AF7B20"/>
<path d="M50.0801 38.5678H48.7165C48.1266 38.5678 47.6484 38.0893 47.6484 37.4997C47.6484 36.9098 48.1266 36.4316 48.7165 36.4316H50.0801C50.67 36.4316 51.1481 36.9098 51.1481 37.4997C51.1481 38.0893 50.67 38.5678 50.0801 38.5678Z" fill="#AF7B20"/>
<path d="M37.4997 51.1472C36.9098 51.1472 36.4316 50.669 36.4316 50.0791V48.7155C36.4316 48.1256 36.9098 47.6475 37.4997 47.6475C38.0893 47.6475 38.5678 48.1256 38.5678 48.7155V50.0791C38.5678 50.669 38.0893 51.1472 37.4997 51.1472Z" fill="#AF7B20"/>
<path d="M26.2832 38.5678H24.9196C24.3297 38.5678 23.8516 38.0893 23.8516 37.4997C23.8516 36.9098 24.3297 36.4316 24.9196 36.4316H26.2832C26.8731 36.4316 27.3513 36.9098 27.3513 37.4997C27.3513 38.0893 26.8731 38.5678 26.2832 38.5678Z" fill="#AF7B20"/>
<path d="M37.4997 36.4027C36.9098 36.4027 36.4316 35.9246 36.4316 35.3346V30.0974C36.4316 29.5075 36.9098 29.0293 37.4997 29.0293C38.0893 29.0293 38.5678 29.5075 38.5678 30.0974V35.3346C38.5678 35.9246 38.0893 36.4027 37.4997 36.4027Z" fill="#AF7B20"/>
<path d="M44.903 38.5678H39.6657C39.0758 38.5678 38.5977 38.0893 38.5977 37.4997C38.5977 36.9098 39.0758 36.4316 39.6657 36.4316H44.903C45.4929 36.4316 45.9711 36.9098 45.9711 37.4997C45.9711 38.0893 45.4925 38.5678 44.903 38.5678Z" fill="#AF7B20"/>
<path d="M37.4995 40.734C35.7164 40.734 34.2656 39.2836 34.2656 37.5005C34.2656 35.7173 35.7164 34.2666 37.4995 34.2666C39.2826 34.2666 40.733 35.7173 40.733 37.5005C40.733 39.2832 39.2823 40.734 37.4995 40.734ZM37.4995 36.4027C36.894 36.4027 36.4018 36.8954 36.4018 37.5005C36.4018 38.1052 36.894 38.5978 37.4995 38.5978C38.1046 38.5978 38.5969 38.1056 38.5969 37.5005C38.5969 36.895 38.1046 36.4027 37.4995 36.4027Z" fill="#AF7B20"/>
<mask id="mask0_524_3599" style="mask-type:luminance" maskUnits="userSpaceOnUse" x="4" y="4" width="67" height="67">
<path d="M4.38867 4.38965H70.6387V70.6396H4.38867V4.38965Z" fill="white"/>
</mask>
<g mask="url(#mask0_524_3599)">
<path d="M37.4992 70.6104C28.6548 70.6104 20.3403 67.1663 14.0867 60.9124C7.83268 54.6588 4.38867 46.3442 4.38867 37.5002C4.38867 32.2427 5.5855 27.2148 7.94589 22.557C8.21246 22.0307 8.85554 21.8202 9.38144 22.0868C9.9077 22.3533 10.1178 22.9961 9.85127 23.5223C7.64424 27.8785 6.52481 32.5812 6.52481 37.5002C6.52481 54.5792 20.4199 68.4742 37.4992 68.4742C54.5782 68.4742 68.4732 54.5792 68.4732 37.5002C68.4732 20.4208 54.5782 6.52579 37.4992 6.52579C32.5517 6.52579 27.7177 7.69694 23.3636 9.93327L24.8813 9.93725C25.4712 9.93869 25.9483 10.4183 25.9468 11.0082C25.945 11.597 25.4672 12.0734 24.8788 12.0734C24.8777 12.0734 24.877 12.0734 24.8759 12.0734L19.4932 12.0593C19.1116 12.0582 18.7593 11.8535 18.5694 11.5225C18.3796 11.1916 18.3806 10.7847 18.5723 10.4545L21.276 5.80024C21.5726 5.28989 22.2261 5.11628 22.7361 5.41287C23.2461 5.70945 23.4197 6.36303 23.1231 6.87301L22.4753 7.98846C27.1075 5.62663 32.2439 4.38965 37.4992 4.38965C46.3433 4.38965 54.6578 7.83366 60.9114 14.0876C67.1654 20.3413 70.6094 28.6558 70.6094 37.5002C70.6094 46.3442 67.1654 54.6588 60.9114 60.9124C54.6578 67.1663 46.3433 70.6104 37.4992 70.6104Z" fill="#AF7B20"/>
</g>
</svg>
