<svg width="70" height="70" viewBox="0 0 70 70" fill="none" xmlns="http://www.w3.org/2000/svg">
<mask id="mask0_521_983" style="mask-type:luminance" maskUnits="userSpaceOnUse" x="1" y="2" width="59" height="59">
<path d="M1.08398 2.27148H59.4561V60.5802H1.08398V2.27148Z" fill="white"/>
</mask>
<g mask="url(#mask0_521_983)">
<path fill-rule="evenodd" clip-rule="evenodd" d="M30.2301 60.5682C14.1995 60.5682 1.08398 47.4526 1.08398 31.4224C1.08398 24.9308 3.20363 18.7039 7.17793 13.5373C7.70792 12.8749 8.76792 12.7423 9.43024 13.2723C10.0926 13.8023 10.2252 14.8619 9.69524 15.5246C6.11827 20.1612 4.26362 25.5932 4.26362 31.4224C4.26362 45.7303 15.9219 57.3889 30.2301 57.3889C31.952 57.3889 33.542 57.2562 35.1317 56.9912C35.3967 56.4612 35.6617 56.0639 35.9267 55.5339C43.4783 42.0207 46.5252 37.1191 48.1149 36.1917C49.9699 35.1317 52.4869 35.1317 54.2092 36.1917C54.4742 36.3241 54.8715 36.7217 55.5338 37.5164C56.0638 35.5291 56.1965 33.5421 56.1965 31.4224C56.1965 17.1142 44.5379 5.45601 30.2301 5.45601C24.4008 5.45601 18.9688 7.31066 14.3322 10.8876C13.6699 11.4176 12.7422 11.285 12.2126 10.4903C11.5499 9.82763 11.6826 8.90031 12.4772 8.37031C17.5118 4.39601 23.7385 2.27637 30.2301 2.27637C46.3926 2.27637 59.3758 15.3919 59.3758 31.4224C59.3758 34.8667 58.8461 38.3114 57.5212 41.6234C57.3888 42.1533 56.8588 42.5507 56.1965 42.6833C55.6665 42.6833 55.1365 42.4183 54.7392 41.8884C53.1492 39.3714 52.6195 38.9737 52.4869 38.8414C51.6919 38.4437 50.4995 38.4437 49.7049 38.9737C48.1149 40.166 41.3583 52.4869 38.7086 57.1239C38.3113 57.9185 37.914 58.5812 37.649 59.1109C37.384 59.5085 36.9867 59.7735 36.589 59.9059C34.4694 60.3032 32.3497 60.5682 30.2301 60.5682Z" fill="#AF7B20"/>
</g>
<mask id="mask1_521_983" style="mask-type:luminance" maskUnits="userSpaceOnUse" x="33" y="35" width="36" height="33">
<path d="M33.3574 35.3457H68.9451V67.7345H33.3574V35.3457Z" fill="white"/>
</mask>
<g mask="url(#mask1_521_983)">
<path fill-rule="evenodd" clip-rule="evenodd" d="M39.3719 67.7232C37.1195 67.7232 35.2649 66.6632 34.2049 64.8085C33.1452 62.8212 33.1452 60.5689 34.2049 58.7143C34.4699 58.0519 35.1322 56.9919 35.9272 55.5346C43.4788 42.0214 46.5258 37.1198 48.1154 36.1925C49.9704 35.1325 52.4874 35.1325 54.2097 36.1925C55.402 36.8548 57.6544 40.0344 64.8083 52.885C65.3383 53.68 64.9406 54.6073 64.2783 55.005C63.4833 55.5346 62.556 55.2696 62.026 54.475C55.137 41.8891 53.1497 39.3721 52.4874 38.8421C51.6924 38.4444 50.5001 38.4444 49.7054 38.9744C48.1154 40.1668 41.3588 52.4876 38.7092 57.1246C37.9145 58.5819 37.2519 59.6416 36.8545 60.3039C36.4572 61.2316 36.4572 62.2912 36.9872 63.2185C37.3845 64.0135 38.3119 64.5435 39.3719 64.5435H62.9536C64.5433 64.5435 65.7356 63.3512 65.7356 61.7612C65.7356 61.2316 65.6033 60.8339 65.3383 60.3039C65.2056 60.1716 65.2056 60.0392 65.0733 59.7742C64.5433 58.9793 64.8083 58.0519 65.6033 57.5219C66.3979 57.1246 67.3253 57.3896 67.7229 58.1843C67.8553 58.4493 67.9879 58.5819 68.1203 58.7143C68.6503 59.6416 68.9153 60.7016 68.9153 61.7612C68.9153 65.0735 66.2656 67.7232 62.9536 67.7232H39.3719Z" fill="#AF7B20"/>
</g>
<mask id="mask2_521_983" style="mask-type:luminance" maskUnits="userSpaceOnUse" x="29" y="2" width="4" height="9">
<path d="M29.5547 2.27148H32.7522V10.3703H29.5547V2.27148Z" fill="white"/>
</mask>
<g mask="url(#mask2_521_983)">
<path fill-rule="evenodd" clip-rule="evenodd" d="M31.1564 10.3576C30.2291 10.3576 29.5664 9.6953 29.5664 8.76798V3.86602C29.5664 2.93869 30.2291 2.27637 31.1564 2.27637C31.9511 2.27637 32.746 2.93869 32.746 3.86602V8.76798C32.746 9.6953 31.9511 10.3576 31.1564 10.3576Z" fill="#AF7B20"/>
</g>
<path fill-rule="evenodd" clip-rule="evenodd" d="M42.287 13.8027C42.022 13.8027 41.757 13.8027 41.492 13.6701C40.8297 13.1404 40.5647 12.2127 40.962 11.4181L43.4794 7.17846C43.8767 6.3838 44.804 6.1188 45.599 6.6488C46.3937 7.04613 46.6587 7.97345 46.129 8.76844L43.744 13.0077C43.4794 13.5377 42.9494 13.8027 42.287 13.8027Z" fill="#AF7B20"/>
<path fill-rule="evenodd" clip-rule="evenodd" d="M50.3684 22.4142C49.706 22.4142 49.176 22.1492 48.911 21.6192C48.5137 20.8245 48.7787 19.8968 49.5734 19.4995L53.813 16.9825C54.4753 16.5849 55.535 16.8499 55.9326 17.6449C56.33 18.3072 56.065 19.3672 55.4026 19.7645L51.1633 22.2818C50.8984 22.4142 50.6334 22.4142 50.3684 22.4142Z" fill="#AF7B20"/>
<path fill-rule="evenodd" clip-rule="evenodd" d="M57.7865 33.9394H52.8846C52.0899 33.9394 51.2949 33.1444 51.2949 32.3498C51.2949 31.4224 52.0899 30.7598 52.8846 30.7598H57.7865C58.7139 30.7598 59.3762 31.4224 59.3762 32.3498C59.3762 33.1444 58.7139 33.9394 57.7865 33.9394Z" fill="#AF7B20"/>
<path fill-rule="evenodd" clip-rule="evenodd" d="M29.4354 60.5686C28.508 60.5686 27.8457 59.9062 27.8457 58.9789V54.077C27.8457 53.1496 28.508 52.4873 29.4354 52.4873C30.2303 52.4873 31.025 53.1496 31.025 54.077V58.9789C31.025 59.9062 30.2303 60.5686 29.4354 60.5686Z" fill="#AF7B20"/>
<path fill-rule="evenodd" clip-rule="evenodd" d="M15.658 56.4612C15.393 56.4612 15.128 56.3289 14.8634 56.1965C14.2007 55.7989 13.9357 54.8715 14.3334 54.0765L16.8503 49.8372C17.248 49.0423 18.1753 48.7773 18.97 49.1749C19.765 49.7049 20.03 50.6322 19.5 51.4269L17.1153 55.6665C16.8503 56.1965 16.3203 56.4612 15.658 56.4612Z" fill="#AF7B20"/>
<path fill-rule="evenodd" clip-rule="evenodd" d="M5.98542 45.9952C5.45576 45.9952 4.92577 45.7302 4.52844 45.2002C4.13077 44.4056 4.39577 43.4779 5.19077 43.0806L9.43006 40.5636C10.2251 40.1659 11.1524 40.4309 11.5497 41.2259C12.0797 41.8882 11.8147 42.9482 11.02 43.3456L6.78042 45.8629C6.51542 45.9952 6.25042 45.9952 5.98542 45.9952Z" fill="#AF7B20"/>
<mask id="mask3_521_983" style="mask-type:luminance" maskUnits="userSpaceOnUse" x="1" y="28" width="9" height="5">
<path d="M1.08398 28.8643H9.24626V32.1482H1.08398V28.8643Z" fill="white"/>
</mask>
<g mask="url(#mask3_521_983)">
<path fill-rule="evenodd" clip-rule="evenodd" d="M7.57559 32.0849H2.67364C1.87898 32.0849 1.08398 31.4226 1.08398 30.4949C1.08398 29.7003 1.87898 28.9053 2.67364 28.9053H7.57559C8.50292 28.9053 9.16524 29.7003 9.16524 30.4949C9.16524 31.4226 8.50292 32.0849 7.57559 32.0849Z" fill="#AF7B20"/>
</g>
<path fill-rule="evenodd" clip-rule="evenodd" d="M11.0207 20.9564C10.7557 20.9564 10.4907 20.8241 10.2257 20.6914L5.98607 18.3067C5.32375 17.7768 5.05875 16.8494 5.45642 16.0544C5.85374 15.2598 6.91374 14.9948 7.57606 15.5248L11.8154 17.9094C12.6104 18.4394 12.8753 19.3667 12.4777 20.1614C12.213 20.6914 11.683 20.9564 11.0207 20.9564Z" fill="#AF7B20"/>
<path fill-rule="evenodd" clip-rule="evenodd" d="M19.6321 13.0074C19.1021 13.0074 18.5721 12.6101 18.3071 12.2124L15.7902 7.84082C15.3925 7.17815 15.6575 6.1185 16.4525 5.72083C17.2475 5.3235 18.1748 5.5885 18.5721 6.25083L21.0894 10.6228C21.4868 11.2851 21.2218 12.3451 20.4268 12.7424C20.2944 12.8751 19.8971 13.0074 19.6321 13.0074Z" fill="#AF7B20"/>
<path fill-rule="evenodd" clip-rule="evenodd" d="M22.5477 36.5891C21.8851 36.5891 21.2228 36.0591 21.0904 35.3968C20.8254 34.6018 21.3554 33.6745 22.1501 33.4095L28.9067 31.6871C29.834 31.4225 30.629 31.9521 30.894 32.7471C31.159 33.5421 30.629 34.4695 29.834 34.7344L22.9451 36.4568C22.8127 36.5891 22.6801 36.5891 22.5477 36.5891ZM32.3513 30.7598C31.5563 30.7598 30.7613 30.0975 30.7613 29.1702V16.7169C30.7613 15.9219 31.5563 15.127 32.3513 15.127C33.2786 15.127 33.941 15.9219 33.941 16.7169V29.1702C33.941 30.0975 33.2786 30.7598 32.3513 30.7598Z" fill="#AF7B20"/>
<path fill-rule="evenodd" clip-rule="evenodd" d="M32.3499 37.1196C29.8325 37.1196 27.7129 35 27.7129 32.3503C27.7129 29.7007 29.8325 27.5811 32.3499 27.5811C34.9995 27.5811 37.1191 29.7007 37.1191 32.3503C37.1191 35 34.9995 37.1196 32.3499 37.1196ZM32.3499 30.7604C31.5549 30.7604 30.8925 31.5554 30.8925 32.3503C30.8925 33.145 31.5549 33.94 32.3499 33.94C33.2772 33.94 33.9395 33.145 33.9395 32.3503C33.9395 31.5554 33.2772 30.7604 32.3499 30.7604Z" fill="#AF7B20"/>
<path fill-rule="evenodd" clip-rule="evenodd" d="M51.1623 55.6671C50.2346 55.6671 49.5723 55.0048 49.5723 54.0771V45.0685C49.5723 44.1412 50.2346 43.4785 51.1623 43.4785C51.9569 43.4785 52.7519 44.1412 52.7519 45.0685V54.0771C52.7519 55.0048 51.9569 55.6671 51.1623 55.6671Z" fill="#AF7B20"/>
<path fill-rule="evenodd" clip-rule="evenodd" d="M51.1623 62.9531C50.2346 62.9531 49.5723 62.2908 49.5723 61.3635V59.1111C49.5723 58.1838 50.2346 57.5215 51.1623 57.5215C51.9569 57.5215 52.7519 58.1838 52.7519 59.1111V61.3635C52.7519 62.2908 51.9569 62.9531 51.1623 62.9531Z" fill="#AF7B20"/>
</svg>
