<svg width="68" height="68" viewBox="0 0 68 68" fill="none" xmlns="http://www.w3.org/2000/svg">
<mask id="mask0_518_934" style="mask-type:luminance" maskUnits="userSpaceOnUse" x="11" y="44" width="15" height="21">
<path d="M11.6699 44.9141H25.2699V64.6372H11.6699V44.9141Z" fill="white"/>
</mask>
<g mask="url(#mask0_518_934)">
<path d="M17.3946 56.5497V45.9627C17.3946 45.3918 16.9276 44.9248 16.3567 44.9248C15.7858 44.9248 15.3188 45.3918 15.3188 45.9627V55.5118H12.7239C12.3087 55.5118 11.9453 55.7193 11.7896 56.0827C11.6341 56.446 11.686 56.8612 11.8935 57.1724L17.6022 64.2305C17.8098 64.4899 18.121 64.5938 18.4325 64.5938C18.744 64.5938 19.0552 64.4381 19.2628 64.2305L24.9715 57.1724C25.2309 56.8612 25.283 56.446 25.0754 56.0827C24.9197 55.7193 24.5563 55.5118 24.1411 55.5118H21.5462V48.5058C21.5462 47.9349 21.0792 47.4679 20.5083 47.4679C19.9374 47.4679 19.4704 47.9349 19.4704 48.5058V56.5497C19.4704 57.1206 19.9374 57.5876 20.5083 57.5876H21.9614L18.4325 61.9471L14.9036 57.5876H16.3567C16.9276 57.5876 17.3946 57.1206 17.3946 56.5497Z" fill="#AF7B20"/>
</g>
<mask id="mask1_518_934" style="mask-type:luminance" maskUnits="userSpaceOnUse" x="42" y="44" width="15" height="21">
<path d="M42.8145 44.9141H56.4145V64.6372H42.8145V44.9141Z" fill="white"/>
</mask>
<g mask="url(#mask1_518_934)">
<path d="M48.5315 56.5497V48.5058C48.5315 47.9349 48.0642 47.4679 47.4936 47.4679C46.9226 47.4679 46.4556 47.9349 46.4556 48.5058V55.5118H43.8607C43.4456 55.5118 43.0822 55.7193 42.9264 56.0827C42.7707 56.446 42.8228 56.8612 43.0304 57.1724L48.739 64.2305C48.9466 64.4899 49.2578 64.5938 49.5694 64.5938C49.8806 64.5938 50.1921 64.4381 50.3997 64.2305L56.1083 57.1724C56.3677 56.8612 56.4195 56.446 56.212 56.0827C56.0565 55.7193 55.6932 55.5118 55.278 55.5118H52.6831V45.9627C52.6831 45.3918 52.2161 44.9248 51.6452 44.9248C51.0742 44.9248 50.6073 45.3918 50.6073 45.9627V56.5497C50.6073 57.1206 51.0742 57.5876 51.6452 57.5876H53.0982L49.5694 61.9471L46.0402 57.5876H47.4936C48.0642 57.5876 48.5315 57.1206 48.5315 56.5497Z" fill="#AF7B20"/>
</g>
<mask id="mask2_518_934" style="mask-type:luminance" maskUnits="userSpaceOnUse" x="0" y="3" width="68" height="40">
<path d="M0.785156 3.37402H67.2111V42.899H0.785156V3.37402Z" fill="white"/>
</mask>
<g mask="url(#mask2_518_934)">
<path d="M64.0993 3.40723H3.8992C2.18641 3.40723 0.785156 4.80848 0.785156 6.52127V39.7352C0.785156 41.4477 2.18641 42.8489 3.8992 42.8489H26.0071L25.0731 41.6553C24.8655 41.3959 24.7098 41.0843 24.6058 40.7731H3.8992C3.32827 40.7731 2.86129 40.3061 2.86129 39.7352V6.52127C2.86129 5.95034 3.32827 5.48336 3.8992 5.48336H64.0993C64.6703 5.48336 65.1372 5.95034 65.1372 6.52127V39.7352C65.1372 40.3061 64.6703 40.7731 64.0993 40.7731H43.3924C43.2888 41.0843 43.133 41.3959 42.9254 41.6553L41.9915 42.8489H64.0993C65.8121 42.8489 67.2131 41.4477 67.2131 39.7352V6.52127C67.2131 4.80848 65.8121 3.40723 64.0993 3.40723Z" fill="#AF7B20"/>
</g>
<path d="M10.127 37.6588C10.127 38.2294 10.5943 38.6967 11.1649 38.6967H24.6062C24.6584 38.5928 24.7102 38.4891 24.762 38.3852C25.2811 37.3473 26.3708 36.6206 27.5645 36.6206H12.0992C11.684 34.026 9.60824 31.9502 7.01331 31.5347V14.7203C9.60824 14.3051 11.684 12.2293 12.0992 9.6344H55.8483C56.2635 12.2293 58.3393 14.3051 60.9342 14.7203V31.4829C58.3393 31.898 56.2635 33.9739 55.8483 36.5688H40.4867C41.6803 36.5688 42.77 37.2437 43.2892 38.3334C43.341 38.437 43.3928 38.541 43.4449 38.6446H56.8341C57.405 38.6446 57.8723 38.1776 57.8723 37.6067C57.8723 35.3233 59.7405 33.4551 62.0239 33.4551C62.5948 33.4551 63.0618 32.9881 63.0618 32.4172V13.786C63.0618 13.2154 62.5948 12.7481 62.0239 12.7481C59.7405 12.7481 57.8723 10.8799 57.8723 8.5965C57.8723 8.02557 57.405 7.55859 56.8341 7.55859H11.1649C10.5943 7.55859 10.127 8.02557 10.127 8.5965C10.127 10.8799 8.2588 12.7481 5.97541 12.7481C5.40448 12.7481 4.9375 13.2154 4.9375 13.786V32.469C4.9375 33.0399 5.40448 33.5069 5.97541 33.5069C8.2588 33.5069 10.127 35.3751 10.127 37.6588Z" fill="#AF7B20"/>
<path d="M33.169 48.6607C33.3766 48.9201 33.6881 49.0759 33.9993 49.0759C34.3109 49.0759 34.6221 48.9201 34.8296 48.6607L41.3168 40.3571C41.5765 40.0456 41.6283 39.6304 41.4207 39.2671C41.265 38.9041 40.9016 38.6965 40.4865 38.6965H37.3728V34.0257C42.1471 32.5727 45.4166 28.1613 45.4166 23.1272C45.4166 16.8477 40.2789 11.71 33.9993 11.71C27.7201 11.71 22.582 16.8477 22.582 23.1272C22.582 28.1613 25.8515 32.5727 30.6262 34.0257V38.6965H27.5125C27.0973 38.6965 26.734 38.9041 26.5782 39.2671C26.4224 39.6304 26.4743 40.0456 26.6818 40.3571L33.169 48.6607ZM31.6641 40.7723C32.235 40.7723 32.702 40.3053 32.702 39.7344V33.2472C32.702 32.7803 32.3908 32.3651 31.9235 32.2611C27.6161 31.2232 24.6582 27.4868 24.6582 23.1272C24.6582 17.9895 28.8616 13.7858 33.9993 13.7858C39.1374 13.7858 43.3408 17.9895 43.3408 23.1272C43.3408 27.4868 40.3828 31.2232 36.1273 32.2093C35.6603 32.313 35.3488 32.7281 35.3488 33.1954V39.7344C35.3488 40.3053 35.8157 40.7723 36.3867 40.7723H38.4107L33.9993 46.377L29.6401 40.7723H31.6641Z" fill="#AF7B20"/>
<path d="M35.0896 29.5629V28.5768C35.9717 28.3693 36.8539 27.9541 37.4248 27.1238C38.0997 26.1377 38.0997 24.7882 37.4248 23.6985C36.6463 22.5049 35.349 22.1415 34.2071 21.7785C33.0138 21.4151 32.391 21.2076 32.2353 20.6366C32.0277 20.0657 32.6504 19.6505 32.9616 19.4948C33.6883 19.1836 34.6223 19.2872 35.349 19.7545C35.816 20.0657 36.4909 19.9099 36.8021 19.443C37.1136 18.976 36.9578 18.3014 36.4909 17.9899C36.1793 17.7823 35.816 17.6265 35.5048 17.5229V16.6404C35.5048 16.0698 35.0378 15.6025 34.4669 15.6025C33.8959 15.6025 33.429 16.0698 33.429 16.6404V17.2632C33.0138 17.3153 32.5986 17.419 32.1831 17.5747C30.5746 18.2493 29.7961 19.8063 30.2631 21.2594C30.834 22.9718 32.391 23.387 33.6883 23.7503C34.5705 24.0101 35.349 24.2176 35.6605 24.7364C35.9199 25.0998 35.9199 25.5668 35.7123 25.9301C35.2972 26.5528 34.2593 26.6568 33.4808 26.501C33.1692 26.4492 32.858 26.2935 32.5986 26.0859C32.1313 25.7225 31.5086 25.8261 31.1452 26.2416C30.7822 26.7086 30.8858 27.3314 31.301 27.6947C31.8201 28.1099 32.4429 28.3693 33.0656 28.525V29.459C33.0656 30.0299 33.5326 30.4969 34.1035 30.4969C34.6744 30.4969 35.0896 30.1339 35.0896 29.5629Z" fill="#AF7B20"/>
<path d="M63.0621 8.5965C63.0621 8.66471 63.0556 8.73226 63.0421 8.79883C63.029 8.86573 63.0093 8.93066 62.9831 8.99362C62.9572 9.05659 62.9251 9.1166 62.8874 9.173C62.8493 9.22974 62.8064 9.2822 62.7581 9.33041C62.7099 9.37862 62.6575 9.42158 62.6007 9.45962C62.5443 9.49733 62.4843 9.52947 62.4214 9.55537C62.3584 9.58161 62.2935 9.60128 62.2266 9.6144C62.16 9.62785 62.0924 9.6344 62.0242 9.6344C61.956 9.6344 61.8885 9.62785 61.8216 9.6144C61.755 9.60128 61.6901 9.58161 61.6271 9.55537C61.5641 9.52947 61.5041 9.49733 61.4474 9.45962C61.391 9.42158 61.3385 9.37862 61.2903 9.33041C61.2421 9.2822 61.1992 9.22974 61.1611 9.173C61.1234 9.1166 61.0913 9.05659 61.0654 8.99362C61.0391 8.93066 61.0194 8.86573 61.0063 8.79883C60.9929 8.73226 60.9863 8.66471 60.9863 8.5965C60.9863 8.52829 60.9929 8.46073 61.0063 8.39384C61.0194 8.32727 61.0391 8.26234 61.0654 8.19937C61.0913 8.13641 61.1234 8.0764 61.1611 8.01967C61.1992 7.96326 61.2421 7.91079 61.2903 7.86259C61.3385 7.81438 61.391 7.77142 61.4474 7.73338C61.5041 7.69567 61.5641 7.66353 61.6271 7.63763C61.6901 7.61139 61.755 7.59171 61.8216 7.5786C61.8885 7.56515 61.956 7.55859 62.0242 7.55859C62.0924 7.55859 62.16 7.56515 62.2266 7.5786C62.2935 7.59171 62.3584 7.61139 62.4214 7.63763C62.4843 7.66353 62.5443 7.69567 62.6007 7.73338C62.6575 7.77142 62.7099 7.81438 62.7581 7.86259C62.8064 7.91079 62.8493 7.96326 62.8874 8.01967C62.9251 8.0764 62.9572 8.13641 62.9831 8.19937C63.0093 8.26234 63.029 8.32727 63.0421 8.39384C63.0556 8.46073 63.0621 8.52829 63.0621 8.5965Z" fill="#AF7B20"/>
<path d="M63.0621 37.6584C63.0621 37.7262 63.0556 37.7938 63.0421 37.8607C63.029 37.9276 63.0093 37.9925 62.9831 38.0555C62.9572 38.1184 62.9251 38.1781 62.8874 38.2349C62.8493 38.2916 62.8064 38.3441 62.7581 38.3923C62.7099 38.4405 62.6575 38.4834 62.6007 38.5211C62.5443 38.5592 62.4843 38.591 62.4214 38.6172C62.3584 38.6431 62.2935 38.6628 62.2266 38.6763C62.16 38.6894 62.0924 38.6963 62.0242 38.6963C61.956 38.6963 61.8885 38.6894 61.8216 38.6763C61.755 38.6628 61.6901 38.6431 61.6271 38.6172C61.5641 38.591 61.5041 38.5592 61.4474 38.5211C61.391 38.4834 61.3385 38.4405 61.2903 38.3923C61.2421 38.3441 61.1992 38.2916 61.1611 38.2349C61.1234 38.1781 61.0913 38.1184 61.0654 38.0555C61.0391 37.9925 61.0194 37.9276 61.0063 37.8607C60.9929 37.7938 60.9863 37.7262 60.9863 37.6584C60.9863 37.5901 60.9929 37.5226 61.0063 37.4557C61.0194 37.3888 61.0391 37.3239 61.0654 37.2609C61.0913 37.1979 61.1234 37.1382 61.1611 37.0815C61.1992 37.0248 61.2421 36.9723 61.2903 36.9241C61.3385 36.8762 61.391 36.8329 61.4474 36.7952C61.5041 36.7572 61.5641 36.7254 61.6271 36.6991C61.6901 36.6732 61.755 36.6536 61.8216 36.6401C61.8885 36.627 61.956 36.6201 62.0242 36.6201C62.0924 36.6201 62.16 36.627 62.2266 36.6401C62.2935 36.6536 62.3584 36.6732 62.4214 36.6991C62.4843 36.7254 62.5443 36.7572 62.6007 36.7952C62.6575 36.8329 62.7099 36.8762 62.7581 36.9241C62.8064 36.9723 62.8493 37.0248 62.8874 37.0815C62.9251 37.1382 62.9572 37.1979 62.9831 37.2609C63.0093 37.3239 63.029 37.3888 63.0421 37.4557C63.0556 37.5226 63.0621 37.5901 63.0621 37.6584Z" fill="#AF7B20"/>
<path d="M7.01331 8.5965C7.01331 8.66471 7.00675 8.73226 6.99331 8.79883C6.98019 8.86573 6.96051 8.93066 6.93428 8.99362C6.90837 9.05659 6.87623 9.1166 6.83852 9.173C6.80048 9.22974 6.75752 9.2822 6.70932 9.33041C6.66111 9.37862 6.60864 9.42158 6.55191 9.45962C6.49551 9.49733 6.43549 9.52947 6.37253 9.55537C6.30957 9.58161 6.24464 9.60128 6.17774 9.6144C6.11117 9.62785 6.04361 9.6344 5.9754 9.6344C5.9072 9.6344 5.83964 9.62785 5.77274 9.6144C5.70617 9.60128 5.64124 9.58161 5.57828 9.55537C5.51532 9.52947 5.4553 9.49733 5.39857 9.45962C5.34217 9.42158 5.2897 9.37862 5.24149 9.33041C5.19329 9.2822 5.15033 9.22974 5.11229 9.173C5.07458 9.1166 5.04244 9.05659 5.01653 8.99362C4.9903 8.93066 4.97062 8.86573 4.9575 8.79883C4.94406 8.73226 4.9375 8.66471 4.9375 8.5965C4.9375 8.52829 4.94406 8.46073 4.9575 8.39384C4.97062 8.32727 4.9903 8.26234 5.01653 8.19937C5.04244 8.13641 5.07458 8.0764 5.11229 8.01967C5.15033 7.96326 5.19329 7.91079 5.24149 7.86259C5.2897 7.81438 5.34217 7.77142 5.39857 7.73338C5.4553 7.69567 5.51532 7.66353 5.57828 7.63763C5.64124 7.61139 5.70617 7.59171 5.77274 7.5786C5.83964 7.56515 5.9072 7.55859 5.9754 7.55859C6.04361 7.55859 6.11117 7.56515 6.17774 7.5786C6.24464 7.59171 6.30957 7.61139 6.37253 7.63763C6.43549 7.66353 6.49551 7.69567 6.55191 7.73338C6.60864 7.77142 6.66111 7.81438 6.70932 7.86259C6.75752 7.91079 6.80048 7.96326 6.83852 8.01967C6.87623 8.0764 6.90837 8.13641 6.93428 8.19937C6.96051 8.26234 6.98019 8.32727 6.99331 8.39384C7.00675 8.46073 7.01331 8.52829 7.01331 8.5965Z" fill="#AF7B20"/>
<path d="M7.01331 37.6584C7.01331 37.7262 7.00675 37.7938 6.99331 37.8607C6.98019 37.9276 6.96051 37.9925 6.93428 38.0555C6.90837 38.1184 6.87623 38.1781 6.83852 38.2349C6.80048 38.2916 6.75752 38.3441 6.70932 38.3923C6.66111 38.4405 6.60864 38.4834 6.55191 38.5211C6.49551 38.5592 6.43549 38.591 6.37253 38.6172C6.30957 38.6431 6.24464 38.6628 6.17774 38.6763C6.11117 38.6894 6.04361 38.6963 5.9754 38.6963C5.9072 38.6963 5.83964 38.6894 5.77274 38.6763C5.70617 38.6628 5.64124 38.6431 5.57828 38.6172C5.51532 38.591 5.4553 38.5592 5.39857 38.5211C5.34217 38.4834 5.2897 38.4405 5.24149 38.3923C5.19329 38.3441 5.15033 38.2916 5.11229 38.2349C5.07458 38.1781 5.04244 38.1184 5.01653 38.0555C4.9903 37.9925 4.97062 37.9276 4.9575 37.8607C4.94406 37.7938 4.9375 37.7262 4.9375 37.6584C4.9375 37.5901 4.94406 37.5226 4.9575 37.4557C4.97062 37.3888 4.9903 37.3239 5.01653 37.2609C5.04244 37.1979 5.07458 37.1382 5.11229 37.0815C5.15033 37.0248 5.19329 36.9723 5.24149 36.9241C5.2897 36.8762 5.34217 36.8329 5.39857 36.7952C5.4553 36.7572 5.51532 36.7254 5.57828 36.6991C5.64124 36.6732 5.70617 36.6536 5.77274 36.6401C5.83964 36.627 5.9072 36.6201 5.9754 36.6201C6.04361 36.6201 6.11117 36.627 6.17774 36.6401C6.24464 36.6536 6.30957 36.6732 6.37253 36.6991C6.43549 36.7254 6.49551 36.7572 6.55191 36.7952C6.60864 36.8329 6.66111 36.8762 6.70932 36.9241C6.75752 36.9723 6.80048 37.0248 6.83852 37.0815C6.87623 37.1382 6.90837 37.1979 6.93428 37.2609C6.96051 37.3239 6.98019 37.3888 6.99331 37.4557C7.00675 37.5226 7.01331 37.5901 7.01331 37.6584Z" fill="#AF7B20"/>
<path d="M48.5301 24.1657H55.7954C56.3664 24.1657 56.8333 23.6987 56.8333 23.1277C56.8333 22.5568 56.3664 22.0898 55.7954 22.0898H48.5301C47.9592 22.0898 47.4922 22.5568 47.4922 23.1277C47.4922 23.6987 47.9592 24.1657 48.5301 24.1657Z" fill="#AF7B20"/>
<path d="M48.5301 20.0133H52.6817C53.2526 20.0133 53.7196 19.5463 53.7196 18.9754C53.7196 18.4045 53.2526 17.9375 52.6817 17.9375H48.5301C47.9592 17.9375 47.4922 18.4045 47.4922 18.9754C47.4922 19.5463 47.9592 20.0133 48.5301 20.0133Z" fill="#AF7B20"/>
<path d="M48.5301 28.317H52.6817C53.2526 28.317 53.7196 27.8497 53.7196 27.2791C53.7196 26.7082 53.2526 26.2412 52.6817 26.2412H48.5301C47.9592 26.2412 47.4922 26.7082 47.4922 27.2791C47.4922 27.8497 47.9592 28.317 48.5301 28.317Z" fill="#AF7B20"/>
<path d="M19.4696 22.0898H12.2039C11.6333 22.0898 11.166 22.5568 11.166 23.1277C11.166 23.6987 11.6333 24.1657 12.2039 24.1657H19.4696C20.0405 24.1657 20.5075 23.6987 20.5075 23.1277C20.5075 22.5568 20.0405 22.0898 19.4696 22.0898Z" fill="#AF7B20"/>
<path d="M19.4688 17.9375H15.3172C14.7463 17.9375 14.2793 18.4045 14.2793 18.9754C14.2793 19.5463 14.7463 20.0133 15.3172 20.0133H19.4688C20.0398 20.0133 20.5067 19.5463 20.5067 18.9754C20.5067 18.4045 20.0398 17.9375 19.4688 17.9375Z" fill="#AF7B20"/>
<path d="M19.4688 26.2412H15.3172C14.7463 26.2412 14.2793 26.7082 14.2793 27.2791C14.2793 27.8497 14.7463 28.317 15.3172 28.317H19.4688C20.0398 28.317 20.5067 27.8497 20.5067 27.2791C20.5067 26.7082 20.0398 26.2412 19.4688 26.2412Z" fill="#AF7B20"/>
</svg>
