<svg width="69" height="69" viewBox="0 0 69 69" fill="none" xmlns="http://www.w3.org/2000/svg">
<mask id="mask0_565_4337" style="mask-type:luminance" maskUnits="userSpaceOnUse" x="0" y="1" width="67" height="66">
<path d="M0.3125 1.59375H66.2741V66.6143H0.3125V1.59375Z" fill="white"/>
</mask>
<g mask="url(#mask0_565_4337)">
<path d="M18.4344 31.2468C17.5237 31.2468 17.0691 32.3553 17.71 32.9945C18.3549 33.6397 19.4573 33.1792 19.4573 32.2701C19.4573 31.7057 19.0014 31.2468 18.4344 31.2468ZM16.3031 30.1431C18.2002 28.2464 21.4465 29.5947 21.4465 32.2701C21.4465 34.9481 18.1958 36.2977 16.3031 34.401C15.9694 34.0716 15.7152 33.6593 15.5658 33.2005H9.60146L10.7382 36.5506C11.0167 37.3762 12.0309 37.7798 12.9333 37.7798H26.4931V34.9394C24.4104 34.2107 23.7821 31.541 25.3581 29.9654C27.2504 28.073 30.5011 29.4214 30.5011 32.0967C30.5011 33.3938 29.6756 34.5248 28.4836 34.9394V37.7782H42.0437C42.9458 37.7782 43.9604 37.3762 44.2429 36.5493L46.0714 31.136H45.0285L42.1332 33.9721C41.9399 34.1568 41.6897 34.2506 41.4398 34.2506V34.2546H40.1184C39.3697 36.3164 36.72 36.9243 35.1527 35.3587C33.2603 33.4663 34.6086 30.2153 37.284 30.2153C38.5967 30.2153 39.7321 31.0565 40.1397 32.2657H41.0378L43.8805 29.4866C44.0625 29.2806 44.3311 29.1528 44.6252 29.1528H46.7392L47.8746 25.794H40.1057C39.3371 27.8271 36.707 28.4154 35.1514 26.8611C33.259 24.9684 34.6073 21.7178 37.2827 21.7178C38.608 21.7178 39.7547 22.5759 40.1497 23.8035H48.5464L49.328 21.4961C49.6022 20.6792 48.9018 20.0214 48.2083 19.7528C47.8942 19.6277 47.5322 19.5638 47.1285 19.5638H7.84552C7.12776 19.5638 6.46425 19.7698 5.98142 20.2686C5.63037 20.631 5.48961 21.026 5.65166 21.4975L7.1251 25.8635H10.6899L13.5895 23.0321C13.7829 22.8431 14.0328 22.7506 14.2787 22.7506V22.7463H15.6044C16.3487 20.6892 18.9998 20.0769 20.5657 21.6426C22.4581 23.5349 21.1098 26.7856 18.4344 26.7856C17.126 26.7856 15.9864 25.9447 15.5787 24.7355H14.6806L11.8379 27.5147C11.6559 27.7206 11.3904 27.8528 11.0932 27.8528H7.79693L8.9293 31.2116H15.6157C15.7677 30.8036 16.005 30.4412 16.3031 30.1431ZM27.4877 31.0735C26.5769 31.0735 26.1224 32.1776 26.763 32.8211C27.4082 33.462 28.5106 33.0058 28.5106 32.0967C28.5106 31.5284 28.056 31.0735 27.4877 31.0735ZM37.2827 34.252C38.1961 34.252 38.6479 33.1479 38.0071 32.5043C37.3622 31.8634 36.2594 32.3196 36.2594 33.2291C36.2594 33.7957 36.7186 34.252 37.2827 34.252ZM37.2827 25.7541C38.1961 25.7541 38.6479 24.646 38.0071 24.0068C37.3622 23.3616 36.2594 23.8221 36.2594 24.7312C36.2594 25.2939 36.7186 25.7541 37.2827 25.7541ZM18.4344 22.7493C17.5237 22.7493 17.0691 23.8574 17.71 24.4969C18.3549 25.1375 19.4573 24.6816 19.4573 23.7722C19.4573 23.2082 19.0014 22.7493 18.4344 22.7493ZM7.32675 32.6607L3.7706 22.1257C3.14269 20.2686 4.33895 18.5692 6.04232 17.9044C6.83527 17.5946 7.41626 17.575 8.25314 17.575L8.22885 2.58835C8.22885 2.04131 8.6764 1.59808 9.21946 1.59808V1.59375H24.2453C24.4669 1.59375 24.6716 1.66629 24.838 1.78708L28.64 4.17127H45.7559C46.3046 4.17127 46.7505 4.61882 46.7505 5.16554V17.5746C47.5804 17.5746 48.1514 17.5989 48.9331 17.9044C50.6364 18.5692 51.8327 20.2686 51.2048 22.1257L46.1183 37.1802C45.5543 38.8553 43.8066 39.7704 42.042 39.7704H12.9333C11.1687 39.7704 9.42111 38.8566 8.85709 37.1802L7.32675 32.6607ZM14.2487 13.3323V10.0873C14.2487 9.53594 14.6963 9.09271 15.2433 9.09271H39.7304C40.2791 9.09271 40.725 9.53594 40.725 10.0873V13.3337H41.8687C42.4174 13.3337 42.8633 13.7812 42.8633 14.3283V17.5746H44.76V6.16014H28.3615C28.1795 6.16014 27.9948 6.10757 27.8301 6.00674L23.9642 3.57863H10.2137L10.2337 17.5733H12.1148V14.3269C12.1148 13.7799 12.558 13.3323 13.1094 13.3323H14.2487ZM38.7361 13.3323V11.0819H16.2393V13.3337H38.7361V13.3323ZM2.67085 64.5499H10.1655C10.3588 64.5499 10.5235 64.3852 10.5235 64.1919V45.6891C10.5235 45.4961 10.3588 45.3353 10.1655 45.3353H2.67085C2.47352 45.3353 2.3128 45.4961 2.3128 45.6891V64.1906C2.3128 64.3839 2.47352 64.5499 2.67085 64.5499ZM10.1655 66.5391H2.67085C1.3781 66.5391 0.322266 65.4836 0.322266 64.1906V45.6891C0.322266 44.3963 1.3781 43.3448 2.67085 43.3448H10.1655C11.4586 43.3448 12.5141 44.3963 12.5141 45.6891V48.231C14.3299 48.9071 15.8885 49.1287 17.5892 48.9484C19.6224 48.7155 21.6681 48.0376 24.7541 46.8144C25.7088 46.4394 26.5912 46.2987 27.5972 46.2105C31.9546 45.8285 35.2652 45.7317 37.7785 45.9536L41.3546 43.1149L41.3589 43.1189C43.1262 41.714 45.4421 40.8515 47.3032 41.4554C47.9484 41.6641 48.4838 42.0351 48.8619 42.5352L50.8155 40.9849V40.9892C52.4623 39.6765 54.6331 38.8027 56.4786 39.2489C57.1747 39.418 57.7587 39.7604 58.1823 40.2392C63.8811 35.9014 68.6774 40.171 64.8953 44.9633C64.8584 45.0073 64.8231 45.0485 64.7788 45.0881L44.4232 63.365C43.7784 63.9407 40.2265 64.6581 38.3538 65.0331C33.1339 66.1528 30.9843 67.4086 23.6331 65.1296C19.9122 63.9776 15.3002 62.5042 12.5141 62.2256V64.1906C12.5141 65.4836 11.4586 66.5391 10.1655 66.5391ZM12.5141 50.3323V60.2351C15.5674 60.4923 20.2303 61.9954 24.217 63.2316C30.4712 65.1725 32.6307 64.3356 36.9273 63.3041C37.1006 63.2642 37.4757 63.1876 37.9631 63.0908C39.6509 62.7527 42.8476 62.1078 43.0936 61.8862L63.3836 43.6659C64.1014 42.7355 64.3426 41.9383 64.2374 41.3629C64.1366 40.8189 63.702 40.533 63.1507 40.4452C62.2043 40.2918 60.8547 40.6781 59.3443 41.8431L45.3939 52.9068C44.9463 54.2083 44.1777 55.1173 43.0936 55.6291C41.9895 56.1489 40.6002 56.2214 38.9291 55.8464V55.8507C34.7011 55.0095 30.4316 55.102 26.928 57.236C26.4605 57.5215 25.8482 57.3724 25.5624 56.9062C25.2769 56.4387 25.4263 55.8264 25.8921 55.5409C29.8476 53.1328 34.5717 52.9594 39.3115 53.9015C40.5886 54.167 41.4937 54.187 42.244 53.8332C42.8363 53.5547 43.2669 53.019 43.5325 52.222C43.2952 50.3337 42.4969 49.1005 40.5034 48.4569C37.4387 47.4666 31.929 47.8247 27.7689 48.191C26.9393 48.2636 26.2472 48.3604 25.4815 48.6629C22.3273 49.916 19.9844 50.693 17.8009 50.922C15.9977 51.1136 14.3469 50.929 12.5141 50.3323ZM47.3062 43.7641C46.9525 43.264 46.1822 43.1844 45.5416 43.2726C44.6961 43.3931 43.6802 43.8236 42.5891 44.6662L40.4338 46.3739C41.2963 46.5915 42.1176 46.9053 42.8094 47.3289L47.3062 43.7641ZM56.618 41.4724C56.1262 41.0332 55.2767 41.0488 54.5563 41.2351C53.8033 41.4241 52.9494 41.8431 52.0473 42.5365L44.3141 48.6699C44.7161 49.2099 45.0102 49.8222 45.2119 50.5183L56.618 41.4724ZM40.8744 17.5733V15.3215C31.9489 15.3215 23.0251 15.3215 14.104 15.3215V17.5733H40.8744Z" fill="#AF7B20"/>
</g>
</svg>
