<svg width="80" height="80" viewBox="0 0 80 80" fill="none" xmlns="http://www.w3.org/2000/svg">
<path d="M40.0003 24.9336C31.0763 24.9336 23.7754 31.6554 23.7754 39.9996C23.7754 42.4336 24.4706 44.983 25.7453 47.069C27.1361 49.503 28.0632 51.4729 28.6427 53.4432L29.2221 55.0659C29.6859 56.3406 30.8448 57.2677 32.2353 57.2677C32.699 57.2677 33.0466 57.6153 33.0466 58.079V60.8603C33.0466 61.5559 33.5103 62.0192 34.2056 62.0192H45.7947C46.4903 62.0192 46.9536 61.5559 46.9536 60.8603V58.1948C46.9536 57.7314 47.3016 57.3838 47.765 57.3838C49.1558 57.3838 50.3147 56.4564 50.7781 55.1817L51.3576 53.5594C51.937 51.5891 52.8641 49.6188 54.2549 47.1851C55.5296 44.983 56.2252 42.5493 56.2252 40.1157C56.2252 31.6554 48.9239 24.9336 40.0003 24.9336ZM52.2846 45.9104C50.7781 48.576 49.7353 50.662 49.1558 52.748L48.5763 54.3703C48.4602 54.7179 48.1126 54.9498 47.765 54.9498C46.0265 54.9498 44.6357 56.3406 44.6357 58.079V59.7013H43.4772V58.5424C43.4772 57.8472 43.0134 57.3838 42.3182 57.3838C41.6226 57.3838 41.1593 57.8472 41.1593 58.5424V59.7013H38.8414V58.5424C38.8414 57.8472 38.3776 57.3838 37.6824 57.3838C36.9868 57.3838 36.5235 57.8472 36.5235 58.5424V59.7013H35.3645V58.1948C35.3645 56.4564 33.9737 55.0659 32.2353 55.0659C31.8877 55.0659 31.5401 54.8341 31.4243 54.4864L30.8448 52.748C30.1492 50.662 29.2221 48.576 27.7156 45.9104C26.6724 44.172 26.0929 42.086 26.0929 39.9996C26.0929 32.9301 32.3514 27.2515 40.0003 27.2515C47.6492 27.2515 53.9073 32.9301 53.9073 39.9996C53.9073 42.086 53.3279 44.172 52.2846 45.9104Z" fill="#AF7B20"/>
<mask id="mask0_564_4273" style="mask-type:luminance" maskUnits="userSpaceOnUse" x="2" y="14" width="76" height="52">
<path d="M2.91406 14.5029H77.0622V65.4659H2.91406V14.5029Z" fill="white"/>
</mask>
<g mask="url(#mask0_564_4273)">
<path d="M73.6085 14.5039H6.39091C4.42062 14.5039 2.91406 16.0105 2.91406 17.9808V62.0197C2.91406 63.99 4.42062 65.4966 6.39091 65.4966H73.6085C75.5788 65.4966 77.0854 63.99 77.0854 62.0197V17.9808C77.0854 16.0105 75.5788 14.5039 73.6085 14.5039ZM5.23196 17.9808C5.23196 17.2852 5.69531 16.8218 6.39091 16.8218H73.6085C74.3037 16.8218 74.7675 17.2852 74.7675 17.9808V21.4572H5.23196V17.9808ZM73.6085 63.1787H6.39091C5.69531 63.1787 5.23196 62.7153 5.23196 62.0197V23.7751H74.7675V62.0197C74.7675 62.7153 74.3037 63.1787 73.6085 63.1787Z" fill="#AF7B20"/>
</g>
<path d="M8.70814 19.1394C8.70814 19.2154 8.70081 19.2907 8.68615 19.3655C8.6711 19.44 8.64911 19.5125 8.62018 19.5827C8.59086 19.6529 8.55536 19.7201 8.51292 19.7833C8.47087 19.8466 8.42265 19.9049 8.36902 19.9589C8.31501 20.0125 8.25637 20.0607 8.19309 20.1028C8.12982 20.1452 8.06308 20.1807 7.99286 20.21C7.92265 20.239 7.85012 20.2609 7.77527 20.276C7.70081 20.2907 7.62558 20.2984 7.54919 20.2984C7.47319 20.2984 7.39796 20.2907 7.32311 20.276C7.24865 20.2609 7.17612 20.239 7.1059 20.21C7.03569 20.1807 6.96894 20.1452 6.90567 20.1028C6.8424 20.0607 6.78376 20.0125 6.72975 19.9589C6.67612 19.9049 6.62789 19.8466 6.58584 19.7833C6.5434 19.7201 6.50791 19.6529 6.47859 19.5827C6.44965 19.5125 6.42766 19.44 6.41262 19.3655C6.39796 19.2907 6.39062 19.2154 6.39062 19.1394C6.39062 19.063 6.39796 18.9878 6.41262 18.9133C6.42766 18.8385 6.44965 18.766 6.47859 18.6957C6.50791 18.6255 6.5434 18.5588 6.58584 18.4955C6.62789 18.4322 6.67612 18.3736 6.72975 18.32C6.78376 18.266 6.8424 18.2181 6.90567 18.1757C6.96894 18.1332 7.03569 18.0978 7.1059 18.0684C7.17612 18.0395 7.24865 18.0175 7.32311 18.0025C7.39796 17.9878 7.47319 17.9805 7.54919 17.9805C7.62558 17.9805 7.70081 17.9878 7.77527 18.0025C7.85012 18.0175 7.92265 18.0395 7.99286 18.0684C8.06308 18.0978 8.12982 18.1332 8.19309 18.1757C8.25637 18.2181 8.31501 18.266 8.36902 18.32C8.42265 18.3736 8.47087 18.4322 8.51292 18.4955C8.55536 18.5588 8.59086 18.6255 8.62018 18.6957C8.64911 18.766 8.6711 18.8385 8.68615 18.9133C8.70081 18.9878 8.70814 19.063 8.70814 19.1394Z" fill="#AF7B20"/>
<path d="M12.1851 19.1394C12.1851 19.2154 12.1778 19.2907 12.1627 19.3655C12.1481 19.44 12.1261 19.5125 12.0971 19.5827C12.0678 19.6529 12.0323 19.7201 11.9899 19.7833C11.9474 19.8466 11.8996 19.9049 11.8456 19.9589C11.792 20.0125 11.7333 20.0607 11.67 20.1028C11.6068 20.1452 11.54 20.1807 11.4698 20.21C11.3996 20.239 11.3271 20.2609 11.2522 20.276C11.1778 20.2907 11.1025 20.2984 11.0261 20.2984C10.9501 20.2984 10.8749 20.2907 10.8001 20.276C10.7256 20.2609 10.6531 20.239 10.5829 20.21C10.5122 20.1807 10.4455 20.1452 10.3822 20.1028C10.319 20.0607 10.2607 20.0125 10.2067 19.9589C10.1531 19.9049 10.1048 19.8466 10.0628 19.7833C10.0204 19.7201 9.98447 19.6529 9.95554 19.5827C9.9266 19.5125 9.90461 19.44 9.88956 19.3655C9.8749 19.2907 9.86719 19.2154 9.86719 19.1394C9.86719 19.063 9.8749 18.9878 9.88956 18.9133C9.90461 18.8385 9.9266 18.766 9.95554 18.6957C9.98447 18.6255 10.0204 18.5588 10.0628 18.4955C10.1048 18.4322 10.1531 18.3736 10.2067 18.32C10.2607 18.266 10.319 18.2181 10.3822 18.1757C10.4455 18.1332 10.5122 18.0978 10.5829 18.0684C10.6531 18.0395 10.7256 18.0175 10.8001 18.0025C10.8749 17.9878 10.9501 17.9805 11.0261 17.9805C11.1025 17.9805 11.1778 17.9878 11.2522 18.0025C11.3271 18.0175 11.3996 18.0395 11.4698 18.0684C11.54 18.0978 11.6068 18.1332 11.67 18.1757C11.7333 18.2181 11.792 18.266 11.8456 18.32C11.8996 18.3736 11.9474 18.4322 11.9899 18.4955C12.0323 18.5588 12.0678 18.6255 12.0971 18.6957C12.1261 18.766 12.1481 18.8385 12.1627 18.9133C12.1778 18.9878 12.1851 19.063 12.1851 19.1394Z" fill="#AF7B20"/>
<path d="M15.6617 19.1394C15.6617 19.2154 15.6543 19.2907 15.6393 19.3655C15.6246 19.44 15.6026 19.5125 15.5733 19.5827C15.5444 19.6529 15.5085 19.7201 15.4664 19.7833C15.424 19.8466 15.3762 19.9049 15.3221 19.9589C15.2685 20.0125 15.2099 20.0607 15.1466 20.1028C15.0833 20.1452 15.0166 20.1807 14.9464 20.21C14.8758 20.239 14.8036 20.2609 14.7288 20.276C14.6543 20.2907 14.5787 20.2984 14.5027 20.2984C14.4267 20.2984 14.3511 20.2907 14.2766 20.276C14.2022 20.2609 14.1296 20.239 14.0594 20.21C13.9888 20.1807 13.9221 20.1452 13.8588 20.1028C13.7955 20.0607 13.7369 20.0125 13.6833 19.9589C13.6296 19.9049 13.5814 19.8466 13.539 19.7833C13.4969 19.7201 13.461 19.6529 13.4321 19.5827C13.4028 19.5125 13.3808 19.44 13.3661 19.3655C13.3511 19.2907 13.3438 19.2154 13.3438 19.1394C13.3438 19.063 13.3511 18.9878 13.3661 18.9133C13.3808 18.8385 13.4028 18.766 13.4321 18.6957C13.461 18.6255 13.4969 18.5588 13.539 18.4955C13.5814 18.4322 13.6296 18.3736 13.6833 18.32C13.7369 18.266 13.7955 18.2181 13.8588 18.1757C13.9221 18.1332 13.9888 18.0978 14.0594 18.0684C14.1296 18.0395 14.2022 18.0175 14.2766 18.0025C14.3511 17.9878 14.4267 17.9805 14.5027 17.9805C14.5787 17.9805 14.6543 17.9878 14.7288 18.0025C14.8036 18.0175 14.8758 18.0395 14.9464 18.0684C15.0166 18.0978 15.0833 18.1332 15.1466 18.1757C15.2099 18.2181 15.2685 18.266 15.3221 18.32C15.3762 18.3736 15.424 18.4322 15.4664 18.4955C15.5085 18.5588 15.5444 18.6255 15.5733 18.6957C15.6026 18.766 15.6246 18.8385 15.6393 18.9133C15.6543 18.9878 15.6617 19.063 15.6617 19.1394Z" fill="#AF7B20"/>
<path d="M34.2042 37.6816C31.6544 37.6816 29.5684 39.7677 29.5684 42.3171C29.5684 44.8668 31.6544 46.9529 34.2042 46.9529C36.7539 46.9529 38.84 44.8668 38.84 42.3171C38.84 39.7677 36.7539 37.6816 34.2042 37.6816ZM34.2042 44.635C32.9295 44.635 31.8863 43.5921 31.8863 42.3171C31.8863 41.0424 32.9295 39.9992 34.2042 39.9992C35.4789 39.9992 36.5221 41.0424 36.5221 42.3171C36.5221 43.5921 35.4789 44.635 34.2042 44.635Z" fill="#AF7B20"/>
<path d="M45.7936 37.6816C43.2442 37.6816 41.1582 39.7677 41.1582 42.3171C41.1582 44.8668 43.2442 46.9529 45.7936 46.9529C48.3434 46.9529 50.4294 44.8668 50.4294 42.3171C50.4294 39.7677 48.3434 37.6816 45.7936 37.6816ZM45.7936 44.635C44.5189 44.635 43.4761 43.5921 43.4761 42.3171C43.4761 41.0424 44.5189 39.9992 45.7936 39.9992C47.0687 39.9992 48.1115 41.0424 48.1115 42.3171C48.1115 43.5921 47.0687 44.635 45.7936 44.635Z" fill="#AF7B20"/>
<path d="M40.8107 46.1424C40.3473 45.6791 39.6521 45.6791 39.1884 46.1424L38.0294 47.3014C37.5657 47.7651 37.5657 48.4603 38.0294 48.9241C38.4932 49.3874 39.1884 49.3874 39.6521 48.9241L39.9997 48.5765L40.3473 48.9241C40.5792 49.1559 40.9268 49.2717 41.1587 49.2717C41.3902 49.2717 41.7382 49.1559 41.9696 48.9241C42.4334 48.4603 42.4334 47.7651 41.9696 47.3014L40.8107 46.1424Z" fill="#AF7B20"/>
</svg>
