<svg width="76" height="76" viewBox="0 0 76 76" fill="none" xmlns="http://www.w3.org/2000/svg">
<path d="M39.5587 60.0608C39.7764 60.2785 40.0616 60.3874 40.3467 60.3874C40.6319 60.3874 40.917 60.2785 41.1343 60.0608L44.905 56.2905L48.6757 60.0608C48.8934 60.2785 49.1786 60.3874 49.4633 60.3874C49.7485 60.3874 50.0336 60.2785 50.2513 60.0608C50.6868 59.6258 50.6868 58.9206 50.2513 58.4852L46.4807 54.7149L50.2513 50.9442C50.6868 50.5088 50.6868 49.8036 50.2513 49.3686C49.8159 48.9331 49.1108 48.9331 48.6757 49.3686L44.905 53.1389L41.1343 49.3686C40.6993 48.9331 39.9941 48.9331 39.5587 49.3686C39.1237 49.8036 39.1237 50.5088 39.5587 50.9442L43.3294 54.7149L39.5587 58.4852C39.1237 58.9206 39.1237 59.6258 39.5587 60.0608Z" fill="#AF7B20"/>
<mask id="mask0_597_1772" style="mask-type:luminance" maskUnits="userSpaceOnUse" x="4" y="4" width="68" height="68">
<path d="M4.78516 4.50391H71.622V71.4965H4.78516V4.50391Z" fill="white"/>
</mask>
<g mask="url(#mask0_597_1772)">
<path d="M70.5327 11.2572H64.961V5.68549C64.961 5.07011 64.4625 4.57129 63.8468 4.57129H54.9325C54.3163 4.57129 53.8179 5.07011 53.8179 5.68549V11.2572H31.5321V5.68549C31.5321 5.07011 31.0336 4.57129 30.4175 4.57129H21.5032C20.8875 4.57129 20.389 5.07011 20.389 5.68549V11.2572H14.8177C14.2016 11.2572 13.7031 11.756 13.7031 12.3714V29.1229C10.2894 29.312 7.25836 31.256 5.71607 34.3255L5.43533 34.8815C4.96729 35.8121 4.33066 46.6385 5.31548 48.7364V48.7375L5.70288 49.5588C6.65618 51.4534 8.23072 53.0184 10.2308 54.0076L13.2266 55.1632C13.949 55.4406 14.5336 56.0065 14.8316 56.715C14.8598 56.7824 14.8935 56.8466 14.935 56.9063C14.9383 56.9107 15.5954 57.8878 16.2647 58.95C16.9885 60.099 17.4793 61.3624 17.7219 62.7053C18.0723 64.6467 18.6957 67.4227 19.3943 69.3967C19.7949 70.5281 20.7775 71.3018 21.9603 71.4151C22.0552 71.425 22.1498 71.4294 22.2421 71.4294C23.2596 71.4294 24.1923 70.895 24.7593 69.93C26.0575 67.6858 26.6124 65.0429 26.3632 62.2842C26.1942 60.4124 25.9684 57.8695 25.8013 55.8453H32.6833C33.8019 55.8453 34.8542 55.4113 35.6477 54.6222C36.4441 53.8324 36.8825 52.7823 36.8825 51.6645C36.8825 50.9333 36.6761 50.2552 36.3433 49.6563C37.2431 49.5332 38.0791 49.1407 38.7348 48.4894C39.529 47.697 39.9667 46.6469 39.9667 45.5316C39.9667 44.0443 39.1761 42.7443 37.9977 42.0032C38.5963 41.2636 38.9382 40.3616 38.9382 39.3999C38.9382 37.6153 37.805 36.1001 36.2224 35.5009C36.6475 34.8379 36.8825 34.0715 36.8825 33.2666C36.8825 30.9613 34.9989 29.0858 32.6833 29.0858H15.9319V22.3999H69.4181V62.5151H57.0905C58.5386 60.2606 59.3896 57.5873 59.3896 54.7149C59.3896 47.2337 53.5558 40.8916 46.1094 40.278C45.4838 40.2399 44.9582 40.6849 44.9069 41.2977C44.8567 41.9112 45.3126 42.4489 45.9265 42.4998C52.2261 43.0181 57.1608 48.3838 57.1608 54.7149C57.1608 61.4734 51.6624 66.9722 44.9036 66.9722C39.713 66.9722 35.0664 63.6879 33.3416 58.7986C33.1371 58.2199 32.5026 57.9172 31.9195 58.1187C31.3393 58.3233 31.0347 58.9599 31.2393 59.5408C33.2785 65.3181 38.7696 69.2006 44.9036 69.2006C48.999 69.2006 52.6949 67.485 55.3323 64.7435H70.5327C71.1484 64.7435 71.6469 64.245 71.6469 63.6293V12.3714C71.6469 11.756 71.1484 11.2572 70.5327 11.2572ZM56.0467 6.80005H62.7326V11.2572H56.0467V6.80005ZM22.6178 6.80005H29.3033V11.2572H22.6178V6.80005ZM34.0772 53.0411C33.7041 53.4124 33.2089 53.6169 32.6833 53.6169H23.6055C22.653 53.6169 21.8133 53.0147 21.5498 52.2128C21.5424 52.1878 21.5329 52.1644 21.5267 52.1391C21.5076 52.0717 21.4985 52.0017 21.4882 51.9317C21.479 51.8664 21.4702 51.8012 21.468 51.7341C21.4655 51.6582 21.4699 51.5831 21.4765 51.5083C21.4809 51.4526 21.4834 51.3969 21.4926 51.3427C21.5076 51.2543 21.5322 51.1689 21.5593 51.0839C21.5721 51.0436 21.5809 51.0025 21.5963 50.9633C21.6337 50.868 21.6825 50.7775 21.7345 50.6884C21.7506 50.6613 21.762 50.632 21.7792 50.6056C21.8532 50.4924 21.9386 50.3853 22.0365 50.2882C22.4096 49.9169 22.9048 49.7124 23.4303 49.7124H32.6833C33.7704 49.7124 34.6541 50.5884 34.6541 51.6645C34.6541 52.1838 34.4495 52.6713 34.0772 53.0411ZM37.1625 46.9093C36.789 47.2791 36.2938 47.4837 35.7683 47.4837H23.4303C22.3444 47.4837 21.4607 46.6077 21.4607 45.5316C21.4607 45.0126 21.6656 44.5241 22.0354 44.1561C22.4107 43.7841 22.9059 43.5796 23.4303 43.5796H35.7683C36.8542 43.5796 37.7379 44.4555 37.7379 45.5316C37.7379 46.0506 37.5334 46.5392 37.1625 46.9093ZM36.134 40.7761C35.7606 41.1463 35.2654 41.3508 34.7398 41.3508H23.4303C22.3444 41.3508 21.4607 40.4759 21.4607 39.3999C21.4607 38.8805 21.6656 38.392 22.0365 38.0232C22.4096 37.6516 22.9059 37.4471 23.4303 37.4471H34.7398C35.8262 37.4471 36.7095 38.323 36.7095 39.3999C36.7095 39.9188 36.5049 40.4074 36.134 40.7761ZM34.6541 33.2666C34.6541 33.7853 34.4495 34.2738 34.0772 34.6433C33.7041 35.0142 33.2089 35.2183 32.6833 35.2183H23.4303C22.3444 35.2183 21.4607 34.3431 21.4607 33.2666C21.4607 32.748 21.6656 32.2591 22.0354 31.8908C22.4096 31.5191 22.9059 31.3146 23.4303 31.3146H32.6833C33.7704 31.3146 34.6541 32.1906 34.6541 33.2666ZM19.6619 31.4597C19.5673 31.654 19.4925 31.8548 19.4299 32.0615C19.4016 32.1546 19.3672 32.2437 19.3456 32.339C19.2767 32.6406 19.2323 32.9496 19.2323 33.2666C19.2323 33.5624 19.2653 33.8501 19.3243 34.1287C19.3445 34.224 19.3837 34.3108 19.4101 34.4036C19.461 34.5817 19.5094 34.7613 19.5827 34.9291C19.6285 35.0336 19.6919 35.1274 19.7458 35.2275C19.8231 35.3712 19.8964 35.5167 19.9895 35.6493C20.0588 35.7483 20.142 35.8344 20.2193 35.9268C20.3187 36.0455 20.4147 36.1658 20.5265 36.2728C20.5455 36.2915 20.5598 36.3146 20.5796 36.3325C20.5415 36.3684 20.5034 36.4051 20.4653 36.4425C19.6696 37.2327 19.2323 38.2831 19.2323 39.3999C19.2323 39.6953 19.2653 39.983 19.3243 40.2615C19.3441 40.3565 19.3833 40.443 19.4097 40.5349C19.461 40.7142 19.5094 40.8938 19.5831 41.0624C19.6281 41.1653 19.6905 41.2577 19.7436 41.3567C19.8217 41.5018 19.8957 41.6484 19.9899 41.7829C20.0581 41.88 20.1402 41.9647 20.216 42.0556C20.3168 42.1758 20.414 42.2979 20.5272 42.4064C20.5463 42.4247 20.5602 42.4474 20.5796 42.465C20.5415 42.5009 20.5034 42.5379 20.4653 42.575C19.6696 43.3652 19.2323 44.4152 19.2323 45.5316C19.2323 45.8274 19.2653 46.1151 19.3243 46.3936C19.3445 46.4893 19.3841 46.5773 19.4108 46.6704C19.4618 46.8481 19.5094 47.0266 19.5827 47.1937C19.6292 47.3 19.693 47.395 19.748 47.4965C19.8246 47.6383 19.8968 47.7824 19.9892 47.9139C20.0595 48.0144 20.1438 48.102 20.2226 48.1958C20.3209 48.3127 20.4154 48.4318 20.5257 48.5374C20.5452 48.5561 20.5595 48.5799 20.5796 48.5982C20.5415 48.6341 20.5034 48.6712 20.4653 48.7082C20.2545 48.9175 20.0727 49.1473 19.9137 49.3895C19.8777 49.4441 19.8543 49.5046 19.8213 49.5607C19.708 49.7527 19.6032 49.9485 19.5226 50.1555C19.4896 50.2402 19.4709 50.3285 19.4434 50.4154C19.3855 50.5979 19.3324 50.7808 19.3005 50.9714C19.2811 51.0854 19.2763 51.2005 19.2664 51.3159C19.2569 51.4325 19.2323 51.5461 19.2323 51.6645C19.2323 51.7191 19.2462 51.7693 19.2484 51.8232C19.2503 51.8723 19.2396 51.9199 19.2433 51.9694C19.2499 52.0632 19.2778 52.1505 19.291 52.2425C19.3104 52.3792 19.3294 52.5148 19.3617 52.6471C19.3874 52.749 19.4214 52.8461 19.4548 52.9451C19.5131 53.1235 19.5772 53.2973 19.6578 53.4644C19.6666 53.4824 19.6773 53.4992 19.6864 53.5168C20.3755 54.8905 21.7869 55.8453 23.4303 55.8453H23.5645C23.7342 57.9021 23.9691 60.5539 24.1432 62.4843C24.351 64.7827 23.8973 66.9711 22.793 68.8784C22.6185 69.1746 22.3587 69.2138 22.1736 69.1973C21.9298 69.1735 21.6242 69.0177 21.4944 68.6523C20.8406 66.8036 20.2344 64.0797 19.9155 62.3091C19.6208 60.6825 19.0278 59.1523 18.1496 57.7618C17.5804 56.8576 17.0178 56.0131 16.8405 55.7474C16.2962 54.5321 15.2765 53.5645 14.0275 53.0836L11.1276 51.9705C9.65205 51.236 8.43193 50.0236 7.70734 48.5839L7.33313 47.7897C6.71812 46.4816 7.12531 37.2327 7.4636 35.8088L7.70624 35.3275C8.95018 32.8521 11.4538 31.3146 14.2408 31.3146H19.7176C19.693 31.3604 19.6846 31.4128 19.6619 31.4597ZM15.9319 20.1715V13.4856H69.4181V20.1715H15.9319Z" fill="#AF7B20"/>
</g>
<path d="M63.8472 37.9992C64.463 37.9992 64.9614 37.5003 64.9614 36.885V27.9706C64.9614 27.3553 64.463 26.8564 63.8472 26.8564H54.9329C54.3168 26.8564 53.8184 27.3553 53.8184 27.9706V36.885C53.8184 37.5003 54.3168 37.9992 54.9329 37.9992H63.8472ZM56.0471 29.0848H62.733V35.7708H56.0471V29.0848Z" fill="#AF7B20"/>
</svg>
