<svg width="70" height="71" viewBox="0 0 70 71" fill="none" xmlns="http://www.w3.org/2000/svg">
<mask id="mask0_475_1311" style="mask-type:luminance" maskUnits="userSpaceOnUse" x="2" y="32" width="66" height="36">
<path d="M2.94336 32.376H67.0821V67.6983H2.94336V32.376Z" fill="white"/>
</mask>
<g mask="url(#mask0_475_1311)">
<path d="M5.08145 65.56V63.4222H64.944L64.9484 65.56H5.08145ZM7.21921 34.5596H9.3573C9.94617 34.5596 10.4264 35.0398 10.4264 35.6287V61.2841H6.15016V35.6287C6.15016 35.0398 6.63035 34.5596 7.21921 34.5596ZM16.84 39.9045C16.84 39.3157 17.3201 38.8355 17.909 38.8355H20.0471C20.636 38.8355 21.1161 39.3157 21.1161 39.9045V61.2841H16.84V39.9045ZM27.5298 40.9736C27.5298 40.3847 28.0099 39.9045 28.5988 39.9045H30.7369C31.3258 39.9045 31.8059 40.3847 31.8059 40.9736V61.2841H27.5298V40.9736ZM38.2196 43.1117C38.2196 42.5228 38.6997 42.0426 39.2886 42.0426H41.4267C42.0156 42.0426 42.4957 42.5228 42.4957 43.1117V61.2841H38.2196V43.1117ZM48.9093 52.7324C48.9093 52.1436 49.3895 51.6634 49.9784 51.6634H52.1165C52.7053 51.6634 53.1855 52.1436 53.1855 52.7324V61.2841H48.9093V52.7324ZM59.5991 54.8702C59.5991 54.2816 60.0793 53.8015 60.6682 53.8015H62.8063C63.3951 53.8015 63.8753 54.2816 63.8753 54.8702V61.2841H59.5991V54.8702ZM66.0131 61.5807V54.8702C66.0131 53.0999 64.5765 51.6634 62.8063 51.6634H60.6682C58.8976 51.6634 57.4614 53.0999 57.4614 54.8702V61.2841H55.3233V52.7324C55.3233 50.9618 53.8867 49.5253 52.1165 49.5253H49.9784C48.2078 49.5253 46.7716 50.9618 46.7716 52.7324V61.2841H44.6335V43.1117C44.6335 41.3411 43.197 39.9045 41.4267 39.9045H39.2886C37.518 39.9045 36.0818 41.3411 36.0818 43.1117V61.2841H33.9437V40.9736C33.9437 39.203 32.5072 37.7668 30.7369 37.7668H28.5988C26.8282 37.7668 25.392 39.203 25.392 40.9736V61.2841H23.2539V39.9045C23.2539 38.1339 21.8174 36.6977 20.0471 36.6977H17.909C16.1384 36.6977 14.7022 38.1339 14.7022 39.9045V61.2841H12.5641V35.6287C12.5641 33.8581 11.1276 32.4219 9.3573 32.4219H7.21921C5.44895 32.4219 4.01241 33.8581 4.01241 35.6287V61.5807C3.37773 61.9522 2.94336 62.6331 2.94336 63.4222V65.56C2.94336 66.7377 3.90373 67.6981 5.08145 67.6981H64.944C66.1218 67.6981 67.0821 66.7377 67.0821 65.56V63.4222C67.0821 62.6331 66.6478 61.9522 66.0131 61.5807Z" fill="#AF7B20"/>
</g>
<mask id="mask1_475_1311" style="mask-type:luminance" maskUnits="userSpaceOnUse" x="2" y="17" width="66" height="33">
<path d="M2.94336 17.4805H67.0821V49.582H2.94336V17.4805Z" fill="white"/>
</mask>
<g mask="url(#mask1_475_1311)">
<path d="M64.944 47.3874H57.4614V45.2493H58.7224C59.1567 45.2493 59.545 44.9905 59.7078 44.5896C59.875 44.1886 59.7831 43.7295 59.4781 43.4245L55.0103 38.9651C54.5926 38.5515 53.9202 38.5515 53.4985 38.9651L50.7258 41.7292C50.3252 42.1385 49.636 42.1425 49.2267 41.7252L38.9756 31.4821C38.558 31.0688 37.8815 31.0688 37.4638 31.4821L34.6911 34.2465C34.2905 34.6555 33.6013 34.6598 33.192 34.2422L25.0787 26.1372C24.661 25.7196 23.9849 25.7196 23.5672 26.1372L17.596 32.1084C17.1784 32.5261 16.5019 32.5261 16.0842 32.1084L5.39444 21.4186C5.19414 21.2183 5.08145 20.9468 5.08145 20.6629C5.08145 20.3747 5.19414 20.1075 5.39444 19.9072C5.79538 19.5019 6.50094 19.5019 6.90622 19.9072L16.0842 29.0852C16.5019 29.5029 17.1784 29.5029 17.596 29.0852L23.5672 23.114C23.9849 22.6964 24.661 22.7007 25.0787 23.114L33.188 31.2233C33.6056 31.6366 34.2821 31.6406 34.6994 31.2233L37.4722 28.4589C37.8731 28.0496 38.562 28.0456 38.9713 28.4629L49.2227 38.706C49.6403 39.1236 50.3168 39.1236 50.7341 38.706L53.5069 35.9419C53.9078 35.5326 54.5967 35.5283 55.006 35.9459L60.9815 41.9215C61.2905 42.2261 61.7496 42.3221 62.1465 42.1509C62.5475 41.988 62.8063 41.5998 62.8063 41.1654V39.9044H64.944V47.3874ZM64.944 37.7667H62.8063C62.0088 37.7667 61.3072 38.205 60.9437 38.8605L56.5217 34.4385C55.3109 33.2109 53.1939 33.2193 51.9911 34.4345L49.9784 36.4388L40.4871 26.9555C39.2762 25.7279 37.1592 25.7363 35.9564 26.9515L33.9437 28.9558L26.5905 21.6022C25.3418 20.354 23.3041 20.354 22.0554 21.6022L16.84 26.8177L8.41767 18.3954C7.20684 17.1846 5.08981 17.1846 3.883 18.3954C3.27742 19.001 2.94336 19.8069 2.94336 20.6629C2.94336 21.519 3.27742 22.3248 3.883 22.9304L14.5728 33.6202C15.7836 34.8311 17.8966 34.8311 19.1075 33.6202L24.323 28.4047L31.6762 35.7496C32.8874 36.9772 35.0044 36.9688 36.2069 35.754L38.2196 33.7496L47.7109 43.2326C48.9221 44.4602 51.0391 44.4518 52.2415 43.2366L54.2542 41.2323L56.4131 43.3871C55.7617 43.7546 55.3233 44.4518 55.3233 45.2493V47.3874C55.3233 48.5648 56.2837 49.5252 57.4614 49.5252H64.944C66.1218 49.5252 67.0821 48.5648 67.0821 47.3874V39.9044C67.0821 38.727 66.1218 37.7667 64.944 37.7667Z" fill="#AF7B20"/>
</g>
<mask id="mask2_475_1311" style="mask-type:luminance" maskUnits="userSpaceOnUse" x="39" y="3" width="29" height="29">
<path d="M39.207 3.55957H67.0818V31.4344H39.207V3.55957Z" fill="white"/>
</mask>
<g mask="url(#mask2_475_1311)">
<path d="M53.186 29.215C46.7012 29.215 41.4272 23.941 41.4272 17.4562C41.4272 10.9713 46.7012 5.69766 53.186 5.69766C59.6708 5.69766 64.9445 10.9713 64.9445 17.4562C64.9445 23.941 59.6708 29.215 53.186 29.215ZM53.186 3.55957C45.5234 3.55957 39.2891 9.79395 39.2891 17.4562C39.2891 25.1187 45.5234 31.3531 53.186 31.3531C60.8482 31.3531 67.0826 25.1187 67.0826 17.4562C67.0826 9.79395 60.8482 3.55957 53.186 3.55957Z" fill="#AF7B20"/>
</g>
<path d="M53.1863 12.1108C54.3637 12.1108 55.3241 13.0715 55.3241 14.2489C55.3241 14.8378 55.8043 15.3179 56.3931 15.3179C56.982 15.3179 57.4622 14.8378 57.4622 14.2489C57.4622 12.2613 56.0925 10.6034 54.2551 10.1232V8.90401C54.2551 8.31515 53.7749 7.83496 53.1863 7.83496C52.5975 7.83496 52.1173 8.31515 52.1173 8.90401V10.1232C50.2798 10.6034 48.9102 12.2613 48.9102 14.2489C48.9102 16.608 50.8269 18.5248 53.1863 18.5248C54.3637 18.5248 55.3241 19.4851 55.3241 20.6628C55.3241 21.8402 54.3637 22.8006 53.1863 22.8006C52.0086 22.8006 51.0482 21.8402 51.0482 20.6628C51.0482 20.074 50.5681 19.5938 49.9792 19.5938C49.3903 19.5938 48.9102 20.074 48.9102 20.6628C48.9102 22.6505 50.2798 24.308 52.1173 24.7882V26.0077C52.1173 26.5966 52.5975 27.0768 53.1863 27.0768C53.7749 27.0768 54.2551 26.5966 54.2551 26.0077V24.7882C56.0925 24.308 57.4622 22.6505 57.4622 20.6628C57.4622 18.3034 55.5455 16.387 53.1863 16.387C52.0086 16.387 51.0482 15.4263 51.0482 14.2489C51.0482 13.0715 52.0086 12.1108 53.1863 12.1108Z" fill="#AF7B20"/>
</svg>
