<svg width="459" height="246" viewBox="0 0 459 246" fill="none" xmlns="http://www.w3.org/2000/svg">
<g filter="url(#filter0_d_99_99)">
<path d="M141.024 169V145.192H76.768V133.416L139.744 76.712H151.52V134.696H165.856V145.192H151.52V169H141.024ZM90.208 134.696H141.024V90.92L90.208 134.696ZM199.964 169C197.063 169 194.417 168.317 192.028 166.952C189.724 165.501 187.889 163.624 186.524 161.32C185.159 158.931 184.476 156.328 184.476 153.512V92.456C184.476 89.5547 185.159 86.952 186.524 84.648C187.889 82.2587 189.724 80.3813 192.028 79.016C194.417 77.5653 197.063 76.84 199.964 76.84H262.044C264.86 76.84 267.42 77.5653 269.724 79.016C272.113 80.3813 273.991 82.2587 275.356 84.648C276.807 86.952 277.532 89.5547 277.532 92.456V153.512C277.532 156.328 276.807 158.931 275.356 161.32C273.991 163.624 272.113 165.501 269.724 166.952C267.42 168.317 264.86 169 262.044 169H199.964ZM196.252 158.504H262.044C263.409 158.504 264.561 158.035 265.5 157.096C266.524 156.072 267.036 154.877 267.036 153.512V100.136L196.252 158.504ZM194.972 145.832L265.628 87.464H199.964C198.599 87.464 197.404 87.976 196.38 89C195.441 89.9387 194.972 91.0907 194.972 92.456V145.832ZM356.634 169V145.192H292.378V133.416L355.354 76.712H367.13V134.696H381.466V145.192H367.13V169H356.634ZM305.818 134.696H356.634V90.92L305.818 134.696Z" fill="#72FFEC"/>
</g>
<defs>
<filter id="filter0_d_99_99" x="0.168007" y="0.112007" width="457.898" height="245.488" filterUnits="userSpaceOnUse" color-interpolation-filters="sRGB">
<feFlood flood-opacity="0" result="BackgroundImageFix"/>
<feColorMatrix in="SourceAlpha" type="matrix" values="0 0 0 0 0 0 0 0 0 0 0 0 0 0 0 0 0 0 127 0" result="hardAlpha"/>
<feOffset/>
<feGaussianBlur stdDeviation="38.3"/>
<feComposite in2="hardAlpha" operator="out"/>
<feColorMatrix type="matrix" values="0 0 0 0 0.356863 0 0 0 0 0.823529 0 0 0 0 0.760784 0 0 0 1 0"/>
<feBlend mode="normal" in2="BackgroundImageFix" result="effect1_dropShadow_99_99"/>
<feBlend mode="normal" in="SourceGraphic" in2="effect1_dropShadow_99_99" result="shape"/>
</filter>
</defs>
</svg>
