<svg xmlns="http://www.w3.org/2000/svg" width="152" height="140" viewBox="0 0 152 140" fill="none">
  <path d="M127.674 114.689C125.495 116.515 123.128 118.058 120.645 119.218L117.998 120.294L103.961 125.993C94.6682 126.867 85.352 127.318 76.0381 127.322C73.8808 127.325 71.7235 127.301 69.5684 127.254V116.716L127.674 114.689Z" fill="#C2D1CF"/>
  <path d="M0.509465 65.7609C-0.169822 73.4244 -0.169822 80.9944 0.509465 88.6574C0.850607 90.8864 2.31062 92.927 4.08417 94.2651C6.76152 96.0144 9.38064 97.6838 12.6268 98.1002C15.7061 97.9359 18.2865 94.1093 18.7186 91.2714C19.7651 81.8556 19.7651 72.5632 18.7186 63.1469C18.2865 60.3091 15.7061 56.4825 12.6268 56.3183C9.38064 56.7346 6.76152 58.4041 4.08417 60.1533C2.31062 61.4913 0.850607 63.532 0.509465 65.7609Z" fill="#72FFEC"/>
  <path d="M150.881 65.7609C151.56 73.4244 151.56 80.9943 150.881 88.6574C150.539 90.8864 149.079 92.927 147.306 94.265C144.629 96.0144 142.009 97.6837 138.763 98.1002C135.684 97.9358 133.103 94.1092 132.671 91.2714C131.625 81.8555 131.625 72.5632 132.671 63.1469C133.104 60.3091 135.684 56.4824 138.763 56.3183C142.009 56.7346 144.629 58.4041 147.306 60.1532C149.079 61.4913 150.539 63.5319 150.881 65.7609ZM90.1247 30.6578H76.1815V24.92H76.3549C77.6111 24.92 78.8268 24.9906 79.9824 25.1212C85.8272 25.7846 90.1247 28.0125 90.1247 30.6578Z" fill="#429C8F"/>
  <path d="M79.9823 30.6578V40.4897H72.7272V12.6227H76.1814V30.6578H79.9823Z" fill="#171A3B"/>
  <path d="M90.1247 30.6578C90.1247 33.303 85.8272 35.5309 79.9824 36.1944C78.8268 36.3249 77.6111 36.3955 76.3549 36.3955C75.0986 36.3955 73.883 36.3249 72.7273 36.1944C66.8825 35.5309 62.5851 33.303 62.5851 30.6578C62.5851 28.0104 66.8825 25.7846 72.7273 25.1212C73.8295 24.9971 74.9873 24.9264 76.1815 24.92V30.6578H90.1247Z" fill="#72FFEC"/>
  <path d="M76.1814 30.6578V123.761H76.038C73.8807 123.763 71.7235 123.74 69.5683 123.693C59.5438 123.474 49.5236 122.734 39.5419 121.435C26.2986 119.714 14.1232 106.248 12.1864 92.7182C10.6989 82.332 10.6989 72.087 12.1864 61.7008C14.1232 48.1707 26.2986 34.7049 39.5419 32.9842C51.6723 31.4069 63.8541 30.6514 76.038 30.6578H76.1814Z" fill="#E7E9EB"/>
  <path d="M140.487 92.7182C139.28 100.834 134.351 109.093 127.674 114.689C125.495 116.515 123.128 118.058 120.645 119.218C119.777 119.624 118.893 119.984 117.998 120.294C116.408 120.842 114.779 121.232 113.131 121.435C100.847 122.952 88.5153 123.748 76.1815 123.761V30.6578C88.5131 30.6707 100.849 31.4668 113.131 32.9842C126.46 34.63 138.503 48.3634 140.487 61.7009C142.021 72.0207 142.021 82.4005 140.487 92.7182Z" fill="#D1D3D4"/>
  <path d="M82.2252 45.9L30.183 97.9444C28.6057 95.5389 27.5399 92.9429 27.1996 90.5673C26.5661 86.1308 26.2429 81.7541 26.2344 77.3775L57.1404 46.4715C63.3447 46.0413 69.6047 45.8251 75.8668 45.8251C77.977 45.8251 80.0979 45.8487 82.2252 45.9ZM125.486 90.486C124.84 94.822 121.876 99.7593 117.932 103.064C116.716 104.085 115.468 104.896 114.225 105.476C113.831 105.662 113.435 105.822 113.046 105.957C112.427 106.171 111.832 106.312 111.276 106.381C99.3936 107.849 87.4836 108.594 75.8732 108.594C73.8872 108.594 71.8776 108.572 69.9001 108.53C60.3378 108.32 50.782 107.603 41.5001 106.394C40.0234 106.201 38.3969 105.553 36.7811 104.54L94.85 46.4715C100.307 46.8374 105.793 47.3596 111.274 48.0359C117.251 48.7743 124.425 56.7956 125.486 63.9309C126.796 72.7419 126.796 81.6771 125.486 90.486Z" fill="#122522"/>
  <path d="M57.1405 46.4714L26.2344 77.3775C26.2259 72.8895 26.549 68.4016 27.1996 63.8495C27.6983 60.3718 29.7507 56.421 32.6913 53.2835C35.4414 50.3494 38.733 48.3826 41.4959 48.023C46.6494 47.3532 51.8778 46.8352 57.1405 46.4714ZM94.8501 46.4714L36.7811 104.54C35.3729 103.659 33.9732 102.501 32.6913 101.133C31.7582 100.138 30.9149 99.0616 30.183 97.9444L82.2253 45.9C86.4072 45.9942 90.6211 46.1846 94.8501 46.4714Z" fill="#214943"/>
  <path d="M76.1814 0V16.7211C74.9487 16.7211 73.7802 16.4557 72.7272 15.9763C69.8316 14.6622 67.8198 11.7452 67.8198 8.35946C67.8198 3.74314 71.563 0 76.1814 0Z" fill="#72FFEC"/>
  <path d="M103.961 125.993L69.5684 139.958V127.254C71.7235 127.301 73.8808 127.325 76.0381 127.322C85.352 127.318 94.6682 126.867 103.961 125.993Z" fill="#D1D3D4"/>
  <path d="M84.541 8.35946C84.541 11.6082 82.6876 14.4247 79.9824 15.8094C78.8057 16.4105 77.5029 16.723 76.1815 16.7211V0C80.7978 0 84.541 3.74314 84.541 8.35946Z" fill="#429C8F"/>
  <path d="M79.9824 15.8094V25.1212C78.8268 24.9907 77.6111 24.92 76.3549 24.92H76.1815V16.7211C77.5512 16.7211 78.8439 16.3915 79.9824 15.8094Z" fill="#01052B"/>
  <path d="M67.6383 84.4758H85.0705C86.4152 84.4758 87.5067 85.5673 87.5067 86.9117V86.9481C87.5067 93.103 82.5094 98.1 76.3545 98.1C70.1994 98.1 65.2021 93.103 65.2021 86.9479V86.9117C65.2021 85.5673 66.2938 84.4758 67.6383 84.4758ZM59.5517 87.686C57.7788 87.686 56.3414 86.2487 56.3414 84.4758V68.1917C56.3414 66.1864 54.1431 64.4925 51.5406 64.4925C48.9382 64.4925 46.7398 66.1864 46.7398 68.1917V84.4758C46.7398 86.2487 45.3025 87.686 43.5296 87.686C41.7567 87.686 40.3193 86.2487 40.3193 84.4758V68.1917C40.3193 62.6117 45.3532 58.072 51.5406 58.072C57.728 58.072 62.7619 62.6117 62.7619 68.1917V84.4758C62.7619 86.2487 61.3246 87.686 59.5517 87.686ZM109.179 87.686C107.407 87.686 105.969 86.2487 105.969 84.4758V68.1917C105.969 66.1864 103.771 64.4925 101.168 64.4925C98.5657 64.4925 96.3676 66.1864 96.3676 68.1917V84.4758C96.3676 86.2487 94.9302 87.686 93.1573 87.686C91.3844 87.686 89.9471 86.2487 89.9471 84.4758V68.1917C89.9471 62.6117 94.9807 58.072 101.168 58.072C107.356 58.072 112.39 62.6117 112.39 68.1917V84.4758C112.39 86.2487 110.952 87.686 109.179 87.686Z" fill="#72FFEC"/>
</svg>