<svg width="152" height="140" viewBox="0 0 152 140" fill="none" xmlns="http://www.w3.org/2000/svg">
<path d="M127.675 114.69C125.496 116.516 123.129 118.059 120.647 119.219L117.999 120.295L103.962 125.995C94.6692 126.868 85.353 127.32 76.0389 127.324C73.8816 127.326 71.7243 127.302 69.5692 127.255V116.717L127.675 114.69Z" fill="#C2D1CF"/>
<path d="M0.509471 65.7616C-0.169824 73.4252 -0.169824 80.9953 0.509471 88.6584C0.850616 90.8874 2.31065 92.9281 4.08422 94.2661C6.76159 96.0155 9.38075 97.6849 12.627 98.1013C15.7063 97.937 18.2867 94.1103 18.7188 91.2724C19.7654 81.8565 19.7654 72.564 18.7188 63.1476C18.2867 60.3097 15.7063 56.4831 12.627 56.3189C9.38075 56.7352 6.76159 58.4048 4.08422 60.1539C2.31065 61.492 0.850616 63.5326 0.509471 65.7616Z" fill="#72FFEC"/>
<path d="M150.882 65.7617C151.562 73.4252 151.562 80.9953 150.882 88.6584C150.541 90.8874 149.081 92.9281 147.307 94.2661C144.63 96.0155 142.011 97.6849 138.765 98.1014C135.685 97.937 133.105 94.1103 132.673 91.2725C131.626 81.8565 131.626 72.564 132.673 63.1477C133.105 60.3098 135.685 56.4831 138.765 56.319C142.011 56.7352 144.63 58.4048 147.307 60.154C149.081 61.492 150.541 63.5327 150.882 65.7617ZM90.1256 30.6582H76.1823V24.9203H76.3557C77.612 24.9203 78.8276 24.9909 79.9833 25.1215C85.8281 25.785 90.1256 28.0129 90.1256 30.6582Z" fill="#429C8F"/>
<path d="M79.9833 30.6581V40.4901H72.7281V12.6228H76.1823V30.6581H79.9833Z" fill="#171A3B"/>
<path d="M90.1256 30.6582C90.1256 33.3034 85.8282 35.5314 79.9833 36.1948C78.8276 36.3254 77.612 36.396 76.3557 36.396C75.0994 36.396 73.8838 36.3254 72.7281 36.1948C66.8832 35.5314 62.5858 33.3034 62.5858 30.6582C62.5858 28.0107 66.8832 25.785 72.7281 25.1215C73.8303 24.9974 74.9881 24.9267 76.1823 24.9203V30.6582H90.1256Z" fill="#72FFEC"/>
<path d="M76.1824 30.6582V123.763H76.039C73.8816 123.765 71.7243 123.741 69.5692 123.694C59.5446 123.476 49.5242 122.735 39.5424 121.436C26.2989 119.716 14.1234 106.249 12.1866 92.7192C10.6991 82.3329 10.6991 72.0878 12.1866 61.7015C14.1234 48.1713 26.2989 34.7052 39.5424 32.9845C51.673 31.4072 63.8549 30.6517 76.039 30.6582H76.1824Z" fill="#E7E9EB"/>
<path d="M140.488 92.7192C139.281 100.835 134.353 109.094 127.675 114.69C125.496 116.516 123.129 118.059 120.647 119.219C119.778 119.626 118.894 119.985 117.999 120.295C116.409 120.843 114.781 121.233 113.133 121.436C100.848 122.954 88.5162 123.75 76.1823 123.763V30.6581C88.5141 30.671 100.85 31.4671 113.133 32.9845C126.462 34.6303 138.504 48.3639 140.488 61.7015C142.023 72.0215 142.023 82.4014 140.488 92.7192Z" fill="#D1D3D4"/>
<path d="M82.2262 45.9005L30.1833 97.9455C28.606 95.54 27.5402 92.9439 27.1999 90.5683C26.5664 86.1317 26.2432 81.755 26.2347 77.3784L57.1411 46.472C63.3455 46.0418 69.6055 45.8256 75.8677 45.8256C77.9779 45.8256 80.0988 45.8492 82.2262 45.9005ZM125.488 90.487C124.842 94.823 121.877 99.7604 117.933 103.065C116.717 104.086 115.47 104.897 114.226 105.477C113.832 105.663 113.436 105.824 113.047 105.958C112.428 106.172 111.833 106.314 111.277 106.382C99.3947 107.85 87.4846 108.595 75.8741 108.595C73.888 108.595 71.8784 108.574 69.9009 108.531C60.3385 108.321 50.7826 107.604 41.5006 106.395C40.0239 106.202 38.3973 105.554 36.7815 104.542L94.8511 46.472C100.309 46.8379 105.794 47.3601 111.275 48.0364C117.252 48.7748 124.426 56.7962 125.488 63.9316C126.798 72.7427 126.798 81.678 125.488 90.487Z" fill="#122522"/>
<path d="M57.1411 46.472L26.2347 77.3784C26.2262 72.8904 26.5493 68.4024 27.1999 63.8503C27.6986 60.3725 29.751 56.4217 32.6917 53.2842C35.4418 50.35 38.7334 48.3832 41.4964 48.0236C46.6499 47.3537 51.8784 46.8358 57.1411 46.472ZM94.8512 46.472L36.7816 104.542C35.3733 103.66 33.9736 102.502 32.6917 101.134C31.7585 100.139 30.9153 99.0627 30.1834 97.9455L82.2262 45.9005C86.4081 45.9947 90.6222 46.1852 94.8512 46.472Z" fill="#214943"/>
<path d="M76.1823 0V16.7213C74.9496 16.7213 73.781 16.4559 72.7281 15.9765C69.8324 14.6624 67.8206 11.7453 67.8206 8.35956C67.8206 3.74318 71.5638 0 76.1823 0Z" fill="#72FFEC"/>
<path d="M103.962 125.995L69.5692 139.96V127.255C71.7243 127.302 73.8816 127.326 76.0389 127.324C85.353 127.32 94.6692 126.868 103.962 125.995Z" fill="#D1D3D4"/>
<path d="M84.5419 8.35956C84.5419 11.6084 82.6885 14.4248 79.9833 15.8095C78.8066 16.4107 77.5037 16.7232 76.1823 16.7213V0C80.7987 0 84.5419 3.74318 84.5419 8.35956Z" fill="#429C8F"/>
<path d="M79.9833 15.8095V25.1215C78.8276 24.9909 77.612 24.9203 76.3557 24.9203H76.1823V16.7213C77.552 16.7213 78.8447 16.3917 79.9833 15.8095Z" fill="#1C3A36"/>
<path d="M101.169 92.3954C94.9821 92.3954 89.9482 87.8557 89.9482 82.2753V65.9913C89.9482 64.2184 91.3855 62.781 93.1585 62.781C94.9314 62.781 96.3687 64.2184 96.3687 65.9913V82.2753C96.3687 84.2807 98.5671 85.9749 101.169 85.9749C103.772 85.9749 105.97 84.2807 105.97 82.2753V65.9913C105.97 64.2184 107.408 62.781 109.181 62.781C110.954 62.781 112.391 64.2184 112.391 65.9913V82.2753C112.391 87.8557 107.357 92.3954 101.169 92.3954ZM51.5413 92.3954C45.354 92.3954 40.3199 87.8557 40.3199 82.2753V65.9913C40.3199 64.2184 41.7572 62.781 43.5302 62.781C45.3031 62.781 46.7404 64.2184 46.7404 65.9913V82.2753C46.7404 84.2807 48.939 85.9749 51.5413 85.9749C54.1435 85.9749 56.3422 84.2807 56.3422 82.2753V65.9913C56.3422 64.2184 57.7795 62.781 59.5524 62.781C61.3254 62.781 62.7627 64.2184 62.7627 65.9913V82.2753C62.7627 87.8557 57.729 92.3954 51.5413 92.3954ZM86.8481 98.8663C85.0902 98.8663 83.6623 97.4619 83.6381 95.7095C83.3096 94.9904 80.5663 93.281 75.6958 93.281C70.8254 93.281 68.0804 94.9915 67.7532 95.7101C67.7194 97.4542 66.2953 98.8663 64.5436 98.8663C62.7704 98.8663 61.3333 97.4379 61.3333 95.665V95.647C61.3333 92.9183 63.1706 90.4346 66.3743 88.8326C68.9179 87.5609 72.2283 86.8607 75.6958 86.8607C79.1634 86.8607 82.4738 87.5609 85.0174 88.8326C88.2213 90.4346 90.0584 92.9183 90.0584 95.647C90.0584 97.4199 88.6213 98.8663 86.8481 98.8663Z" fill="#72FFEC"/>
</svg>
