<svg width="39" height="24" viewBox="0 0 39 24" fill="none" xmlns="http://www.w3.org/2000/svg">
<path fill-rule="evenodd" clip-rule="evenodd" d="M0.599609 1.8C0.599609 1.32261 0.789252 0.864773 1.12682 0.527208C1.46438 0.189642 1.92222 0 2.39961 0H37.1996C37.677 0 38.1348 0.189642 38.4724 0.527208C38.81 0.864773 38.9996 1.32261 38.9996 1.8C38.9996 2.27739 38.81 2.73523 38.4724 3.07279C38.1348 3.41036 37.677 3.6 37.1996 3.6H2.39961C1.92222 3.6 1.46438 3.41036 1.12682 3.07279C0.789252 2.73523 0.599609 2.27739 0.599609 1.8ZM0.599609 12C0.599609 11.5226 0.789252 11.0648 1.12682 10.7272C1.46438 10.3896 1.92222 10.2 2.39961 10.2H37.1996C37.677 10.2 38.1348 10.3896 38.4724 10.7272C38.81 11.0648 38.9996 11.5226 38.9996 12C38.9996 12.4774 38.81 12.9352 38.4724 13.2728C38.1348 13.6104 37.677 13.8 37.1996 13.8H2.39961C1.92222 13.8 1.46438 13.6104 1.12682 13.2728C0.789252 12.9352 0.599609 12.4774 0.599609 12ZM2.39961 20.4C1.92222 20.4 1.46438 20.5896 1.12682 20.9272C0.789252 21.2648 0.599609 21.7226 0.599609 22.2C0.599609 22.6774 0.789252 23.1352 1.12682 23.4728C1.46438 23.8104 1.92222 24 2.39961 24H37.1996C37.677 24 38.1348 23.8104 38.4724 23.4728C38.81 23.1352 38.9996 22.6774 38.9996 22.2C38.9996 21.7226 38.81 21.2648 38.4724 20.9272C38.1348 20.5896 37.677 20.4 37.1996 20.4H2.39961Z" fill="#AF7B20"/>
</svg>
