<svg width="28" height="28" viewBox="0 0 28 28" fill="none" xmlns="http://www.w3.org/2000/svg">
<mask id="mask0_502_1155" style="mask-type:luminance" maskUnits="userSpaceOnUse" x="0" y="0" width="29" height="28">
<path d="M0.0996094 0.216797H28.0024V27.9078H0.0996094V0.216797Z" fill="white"/>
</mask>
<g mask="url(#mask0_502_1155)">
<path d="M13.9389 0.216797C13.0296 0.216797 12.1285 0.303993 11.2358 0.482538C10.3472 0.656929 9.47943 0.92267 8.64068 1.2673C7.80194 1.61609 7.00472 2.04376 6.24902 2.54618C5.49332 3.05275 4.79575 3.62575 4.15216 4.26934C3.50856 4.91293 2.93556 5.6105 2.42899 6.3662C1.92658 7.1219 1.4989 7.91913 1.15012 8.75787C0.805483 9.59662 0.539742 10.4644 0.36535 11.353C0.186805 12.2457 0.0996094 13.1467 0.0996094 14.0561C0.0996094 14.9654 0.186805 15.8623 0.36535 16.755C0.539742 17.6477 0.805483 18.5114 1.15012 19.3501C1.4989 20.1889 1.92658 20.9861 2.42899 21.7418C2.93556 22.4975 3.50856 23.1992 4.15216 23.8387C4.79575 24.4823 5.49332 25.0553 6.24902 25.5618C7.00472 26.0684 7.80194 26.4919 8.64068 26.8407C9.47943 27.1895 10.3472 27.4511 11.2358 27.6296C12.1285 27.804 13.0296 27.8954 13.9389 27.8954C14.8441 27.8954 15.7451 27.804 16.6378 27.6296C17.5305 27.4511 18.3942 27.1895 19.2329 26.8407C20.0717 26.4919 20.8689 26.0684 21.6246 25.5618C22.3803 25.0553 23.082 24.4823 23.7215 23.8387C24.3651 23.1992 24.9381 22.4975 25.4446 21.7418C25.9471 20.9861 26.3747 20.1889 26.7235 19.3501C27.0723 18.5114 27.3339 17.6477 27.5124 16.755C27.6868 15.8623 27.7782 14.9654 27.7782 14.0561C27.7782 13.1467 27.6868 12.2457 27.5124 11.353C27.3339 10.4644 27.0723 9.59662 26.7235 8.75787C26.3747 7.91913 25.9471 7.1219 25.4446 6.3662C24.9381 5.6105 24.3651 4.91293 23.7215 4.26934C23.082 3.62575 22.3803 3.05275 21.6246 2.54618C20.8689 2.04376 20.0717 1.61609 19.2329 1.2673C18.3942 0.92267 17.5305 0.656929 16.6378 0.482538C15.7451 0.303993 14.8441 0.216797 13.9389 0.216797ZM13.9389 26.1639C13.1417 26.1639 12.3527 26.085 11.5763 25.9314C10.7957 25.7777 10.0358 25.5452 9.30504 25.2421C8.5701 24.939 7.87253 24.5653 7.20817 24.1252C6.54797 23.6809 5.9376 23.1785 5.3729 22.6179C4.81236 22.0532 4.30994 21.4428 3.86981 20.7826C3.42552 20.1224 3.05598 19.4249 2.74871 18.6899C2.4456 17.955 2.21723 17.1951 2.05945 16.4187C1.90582 15.6381 1.82692 14.8491 1.82692 14.0561C1.82692 13.2589 1.90582 12.4741 2.05945 11.6935C2.21723 10.9129 2.4456 10.1572 2.74871 9.42222C3.05598 8.68728 3.42552 7.98971 3.86981 7.32536C4.30994 6.66516 4.81236 6.05479 5.3729 5.49009C5.9376 4.92954 6.54797 4.42713 7.20817 3.98699C7.87253 3.54271 8.5701 3.17316 9.30504 2.8659C10.0358 2.56279 10.7957 2.33442 11.5763 2.17663C12.3527 2.023 13.1417 1.94411 13.9389 1.94411C14.732 1.94411 15.5209 2.023 16.3015 2.17663C17.078 2.33442 17.8378 2.56279 18.5727 2.8659C19.3077 3.17316 20.0053 3.54271 20.6655 3.98699C21.3257 4.42713 21.936 4.92954 22.5007 5.49009C23.0613 6.05479 23.5637 6.66516 24.008 7.32536C24.4481 7.98971 24.8218 8.68728 25.1249 9.42222C25.428 10.1572 25.6605 10.9129 25.8142 11.6935C25.9678 12.4741 26.0467 13.2589 26.0467 14.0561C26.0467 14.8491 25.9678 15.6381 25.8142 16.4187C25.6605 17.1951 25.428 17.955 25.1249 18.6899C24.8218 19.4249 24.4481 20.1224 24.008 20.7826C23.5637 21.4428 23.0613 22.0532 22.5007 22.6179C21.936 23.1785 21.3257 23.6809 20.6655 24.1252C20.0053 24.5653 19.3077 24.939 18.5727 25.2421C17.8378 25.5452 17.078 25.7777 16.3015 25.9314C15.5209 26.085 14.732 26.1639 13.9389 26.1639Z" fill="#E3AB48"/>
</g>
<path d="M22.381 9.17717C22.2273 8.99033 22.0322 8.89067 21.7955 8.86991C21.5588 8.84915 21.3512 8.91559 21.1685 9.07337L11.3943 17.2034L6.7604 12.5861C6.59016 12.4159 6.39086 12.3328 6.15418 12.3328C5.91751 12.3328 5.71405 12.4159 5.54796 12.5861C5.38187 12.7522 5.29883 12.9515 5.29883 13.1882C5.29883 13.4249 5.38187 13.6283 5.54796 13.7944L10.7382 18.9847C10.9001 19.1591 11.1036 19.2463 11.3444 19.2463C11.552 19.2421 11.7389 19.1757 11.8967 19.0386L22.2772 10.3855C22.4599 10.236 22.5637 10.0408 22.5844 9.80416C22.6052 9.56748 22.5346 9.35572 22.381 9.17717Z" fill="#E3AB48"/>
</svg>
