<svg width="31" height="30" viewBox="0 0 31 30" fill="none" xmlns="http://www.w3.org/2000/svg">
<mask id="mask0_502_848" style="mask-type:luminance" maskUnits="userSpaceOnUse" x="0" y="0" width="31" height="30">
<path d="M0.833984 0.566406H30.2599V29.7953H0.833984V0.566406Z" fill="white"/>
</mask>
<g mask="url(#mask0_502_848)">
<path d="M15.4287 0.566406C14.4741 0.566406 13.5239 0.658362 12.5825 0.846653C11.6454 1.03057 10.7302 1.30643 9.84567 1.67426C8.96115 2.04208 8.1204 2.4931 7.32345 3.02295C6.5265 3.55717 5.78647 4.16145 5.11213 4.84017C4.43341 5.51452 3.82912 6.25454 3.2949 7.0515C2.76506 7.84845 2.31404 8.68919 1.94621 9.57372C1.57839 10.4582 1.30252 11.3734 1.11423 12.3105C0.93032 13.252 0.833984 14.2022 0.833984 15.1611C0.833984 16.1157 0.93032 17.0659 1.11423 18.0074C1.30252 18.9445 1.57839 19.8597 1.94621 20.7442C2.31404 21.6287 2.76506 22.4695 3.2949 23.2664C3.82912 24.0634 4.43341 24.8034 5.11213 25.4777C5.78647 26.1565 6.5265 26.7607 7.32345 27.295C8.1204 27.8248 8.96115 28.2758 9.84567 28.6436C10.7302 29.0115 11.6454 29.2873 12.5825 29.4712C13.5239 29.6595 14.4741 29.7559 15.4287 29.7559C16.3877 29.7559 17.3379 29.6595 18.2794 29.4712C19.2164 29.2873 20.1316 29.0115 21.0161 28.6436C21.9007 28.2758 22.7414 27.8248 23.5384 27.295C24.3353 26.7607 25.071 26.1565 25.7497 25.4777C26.4284 24.8034 27.0327 24.0634 27.5669 23.2664C28.0968 22.4695 28.5478 21.6287 28.9156 20.7442C29.279 19.8597 29.5593 18.9445 29.7432 18.0074C29.9315 17.0659 30.0235 16.1157 30.0235 15.1611C30.0235 14.2022 29.9315 13.252 29.7432 12.3105C29.5593 11.3734 29.279 10.4582 28.9156 9.57372C28.5478 8.68919 28.0968 7.84845 27.5669 7.0515C27.0327 6.25454 26.4284 5.51452 25.7497 4.84017C25.071 4.16145 24.3353 3.55717 23.5384 3.02295C22.7414 2.4931 21.9007 2.04208 21.0161 1.67426C20.1316 1.30643 19.2164 1.03057 18.2794 0.846653C17.3379 0.658362 16.3877 0.566406 15.4287 0.566406ZM15.4287 27.9299C14.5924 27.9299 13.7604 27.8467 12.9371 27.6847C12.1183 27.5227 11.317 27.2774 10.5419 26.9578C9.76686 26.6381 9.03121 26.244 8.33497 25.7755C7.63873 25.3113 6.99504 24.7815 6.39951 24.1903C5.80837 23.5948 5.27853 22.9511 4.81437 22.2549C4.34583 21.5587 3.95173 20.8186 3.63207 20.0479C3.31242 19.2729 3.0672 18.4716 2.90518 17.6483C2.74317 16.8295 2.65997 15.9975 2.65997 15.1611C2.65997 14.3204 2.74317 13.4884 2.90518 12.6696C3.0672 11.8463 3.31242 11.045 3.63207 10.27C3.95173 9.49928 4.34583 8.75925 4.81437 8.06301C5.27853 7.36677 5.80837 6.72308 6.39951 6.12756C6.99504 5.53641 7.63873 5.00657 8.33497 4.54241C9.03121 4.07387 9.76686 3.67977 10.5419 3.36012C11.317 3.04046 12.1183 2.79962 12.9371 2.63323C13.7604 2.47121 14.5924 2.38801 15.4287 2.38801C16.2695 2.38801 17.1014 2.47121 17.9203 2.63323C18.7435 2.79962 19.5448 3.04046 20.3155 3.36012C21.0906 3.67977 21.8262 4.07387 22.5268 4.54241C23.2231 5.00657 23.8668 5.53641 24.4623 6.12756C25.0534 6.72308 25.5833 7.36677 26.0474 8.06301C26.516 8.75925 26.9057 9.49928 27.2297 10.27C27.5494 11.045 27.7902 11.8463 27.9566 12.6696C28.1187 13.4884 28.2018 14.3204 28.2018 15.1611C28.2018 15.9975 28.1187 16.8295 27.9566 17.6483C27.7902 18.4716 27.5494 19.2729 27.2297 20.0479C26.9057 20.8186 26.516 21.5587 26.0474 22.2549C25.5833 22.9511 25.0534 23.5948 24.4623 24.1903C23.8668 24.7815 23.2231 25.3113 22.5268 25.7755C21.8262 26.244 21.0906 26.6381 20.3155 26.9578C19.5448 27.2774 18.7435 27.5227 17.9203 27.6847C17.1014 27.8467 16.2695 27.9299 15.4287 27.9299Z" fill="#16154F"/>
</g>
<path d="M24.3354 10.0154C24.1734 9.81839 23.9676 9.70892 23.718 9.6914C23.4684 9.66951 23.2451 9.73957 23.0568 9.90597L12.7489 18.4798L7.85776 13.6061C7.68261 13.4309 7.47242 13.3434 7.22283 13.3434C6.97323 13.3434 6.75867 13.4309 6.58352 13.6061C6.40398 13.7856 6.31641 13.9958 6.31641 14.2454C6.31641 14.495 6.40398 14.7096 6.58352 14.8847L12.0571 20.3583C12.2279 20.5422 12.4424 20.6342 12.692 20.6298C12.9153 20.6298 13.1124 20.5597 13.2788 20.4108L24.2259 11.2897C24.4186 11.132 24.5281 10.9262 24.55 10.6766C24.5719 10.4227 24.4974 10.2037 24.3354 10.0154Z" fill="#16154F"/>
</svg>
