<?xml version="1.0" encoding="UTF-8"?> <svg xmlns="http://www.w3.org/2000/svg" width="547" height="180" viewBox="0 0 547 180" fill="none"><path d="M104.417 67.2961H546.945V160.055C546.945 165.578 542.467 170.055 536.945 170.055H104.417V67.2961Z" fill="#2C924F"></path><g filter="url(#filter0_i_103_2)"><path fill-rule="evenodd" clip-rule="evenodd" d="M386.182 169.829C386.182 169.872 385.874 169.899 385.395 169.912L451.247 169.912L451.04 164.877C450.937 162.083 450.764 156.772 450.66 153.037C450.211 137.157 449.07 126.341 447.756 125.289C446.373 124.183 445.198 129.826 444.091 142.884C443.849 146.065 443.538 148.721 443.434 148.832C443.331 148.915 443.227 147.061 443.227 144.71C443.227 136.383 442.052 122.993 441.118 119.922C440.6 118.318 439.977 117.931 439.493 118.927C438.94 120.033 438.491 121.776 438.041 124.874C437.73 126.839 437.488 127.503 437.177 127.42C436.693 127.254 436.589 127.475 436.001 129.66C434.826 134.142 433.616 148.306 433.512 158.514C433.478 161.309 433.339 163.494 433.201 163.356C432.821 162.996 430.504 155.084 429.744 151.515C427.946 143.161 428.05 136.494 430.055 128.969C430.608 126.922 430.954 125.123 430.781 125.013C430.124 124.459 427.6 128.084 426.148 131.542C424.35 135.996 424.039 137.794 424.039 144.378C424.039 147.781 424.005 150.547 423.97 150.547C423.936 150.547 423.659 149.662 423.348 148.583C422 143.714 418.75 137.102 417.851 137.351C417.332 137.517 417.471 139.398 418.508 145.706C418.992 148.583 419.476 151.571 419.545 152.345L419.718 153.728L418.923 151.792C417.816 149.164 416.053 145.955 415.223 145.014C414.808 144.544 414.152 142.663 413.495 140.062C412.319 135.415 410.591 130.49 408.793 126.479C407.202 123.021 403.123 116.409 401.567 114.777C399.216 112.315 399.113 113.172 401.049 119.065C403.227 125.704 404.506 129.937 405.37 133.506L406.165 136.798L405.128 138.762C403.745 141.445 401.878 145.733 400.703 148.887C400.15 150.326 399.7 151.377 399.7 151.183C399.666 150.99 400.426 147.891 401.36 144.267C403.4 136.411 403.745 134.391 403.123 134.557C402.431 134.723 400.184 138.43 398.387 142.331C397.522 144.267 396.727 145.816 396.692 145.761C396.623 145.706 397.488 142.137 398.594 137.821C400.841 129.024 401.291 126.756 400.737 126.756C399.666 126.756 396.347 132.565 393.477 139.481C389.985 147.836 387.669 156.772 386.701 165.348C386.424 167.782 386.182 169.802 386.182 169.829ZM402.086 168.861C402.086 168.308 402.328 166.343 402.604 164.518C402.867 162.821 403.013 161.884 403.18 160.949C403.386 159.796 403.625 158.647 404.16 156.08C405.716 148.749 407.168 143.437 407.375 144.323C408.274 147.781 408.516 163.522 407.756 168.446L407.514 169.912H404.817H402.086V168.861ZM416.33 169.912C415.604 169.912 415.604 169.857 415.811 164.711C415.915 161.862 416.053 159.51 416.088 159.455C416.26 159.289 416.606 162.443 416.814 166.094C417.056 169.857 417.056 169.912 416.33 169.912Z" fill="url(#paint0_linear_103_2)"></path><path fill-rule="evenodd" clip-rule="evenodd" d="M110.087 169.912L104.417 169.912H177.956L178.194 168.114C178.575 165.209 180.303 158.127 181.997 152.677C182.862 149.911 183.899 146.895 184.245 145.982L184.901 144.323L184.729 148.196C184.625 150.326 184.452 156.052 184.314 160.921L184.106 169.774L181.029 169.857L178.977 169.912H316.346L352.069 169.912L353.65 165.514C354.549 163.079 355.344 161.004 355.447 160.949C355.551 160.866 355.932 162.138 356.312 163.771C356.934 166.565 356.969 166.841 356.45 168.252L355.897 169.774L353.995 169.857L352.704 169.912L383.419 169.912C381.757 169.883 379.959 169.795 379.959 169.691C379.994 168.861 381.861 161.143 383.036 157.187C385.284 149.523 387.289 143.88 391.023 134.64C394.584 125.926 395.517 122.606 394.48 122.606C394.272 122.606 393.339 123.574 392.371 124.736C391.403 125.926 390.608 126.922 390.539 126.949C390.504 126.977 390.539 126.59 390.608 126.064C390.677 125.511 390.608 125.096 390.4 125.096C389.882 125.096 387.22 128.388 384.834 132.012C379.579 140.062 374.635 150.934 372.008 160.23C370.694 164.877 370.729 163.743 372.042 158.348C374.462 148.472 376.675 141.86 382.379 127.586C386.044 118.456 386.77 115.966 385.871 115.966C383.866 115.966 373.805 132.012 369.864 141.556C369.069 143.493 369.069 143.493 369 142.386C368.343 134.308 366.13 127.89 362.431 123.381C361.256 121.997 360.426 121.97 360.737 123.325C360.875 123.851 361.083 124.515 361.187 124.736C361.325 125.04 361.256 125.123 361.014 124.985C360.391 124.681 360.495 125.732 361.463 129.494C362.708 134.308 363.123 138.181 362.881 142.663C362.639 147.504 361.152 155.554 360.599 155.056C360.46 154.946 359.907 153.728 359.389 152.401L358.421 149.966L358.905 146.453C359.942 138.845 359.32 130.573 357.314 125.013C355.551 120.116 351.921 114.611 351.16 115.607C351.057 115.745 351.506 117.903 352.129 120.393C353.892 127.254 354.445 133.367 353.823 138.347L353.581 140.062L350.504 135.304C348.533 132.233 347.53 130.352 347.634 130.02C347.807 129.66 347.669 129.522 347.15 129.522C346.77 129.522 346.147 129.162 345.733 128.692C344.73 127.558 344.281 127.641 344.419 128.969L344.523 130.103L341.722 130.988C340.166 131.514 337.919 132.51 336.709 133.229L334.497 134.529L334.047 132.123L333.598 129.743L334.566 128.913C335.084 128.471 336.951 127.309 338.68 126.313C343.969 123.325 344.488 122.44 340.443 123.436C335.257 124.708 331.765 126.396 327.582 129.55C326.199 130.601 324.92 131.459 324.678 131.459C323.848 131.459 318.42 133.367 316.934 134.197C316 134.695 315.274 134.944 315.136 134.778C314.756 134.28 314.272 134.474 314.272 135.11C314.272 135.525 313.442 136.383 311.955 137.545C307.219 141.252 303.036 146.785 300.858 152.207C298.921 156.993 299.129 156.689 299.094 155.112C299.06 153.424 299.959 144.572 300.408 141.694C301.687 133.921 303.105 128.249 305.836 120.116C308.844 111.07 309.293 109.133 308.291 109.382C306.527 109.853 300.028 119.784 298.126 124.902C297.193 127.475 297.331 125.981 298.541 121.167C299.959 115.358 301.826 109.355 304.626 101.443C306.839 95.3288 307.426 92.7283 306.666 92.7283C304.833 92.7283 298.437 101.47 294.634 109.244C289.034 120.559 285.784 132.15 284.539 144.986C283.917 151.515 284.194 165.237 285.058 169.138C285.196 169.857 285.127 169.912 284.021 169.912C283.087 169.912 282.811 169.802 282.811 169.414C282.811 169.165 282.638 166.399 282.465 163.273C281.739 150.243 283.398 138.264 287.858 124.404C291.108 114.307 291.316 113.477 290.417 113.477C289.898 113.477 287.374 116.63 285.542 119.535C279.008 129.992 274.928 144.489 274.479 158.846C274.445 160.038 274.444 160.037 273.471 157.751L273.407 157.601C269.327 147.781 267.875 142.248 267.046 133.312C266.942 132.15 266.7 131.182 266.527 131.182C266.008 131.182 264.937 133.312 264.453 135.332C264.211 136.328 264.003 138.873 264.003 141.003L264.038 144.876L263.381 142.939C261.583 137.545 260.339 131.597 260.339 128.554C260.339 126.673 259.958 124.542 259.647 124.542C259.129 124.542 257.988 127.198 257.573 129.328C256.95 132.344 257.296 139.841 258.264 143.908C259.059 147.393 260.511 152.124 262.102 156.633C263.035 159.178 266.734 168.64 267.149 169.553C267.253 169.774 267.046 169.912 266.665 169.912C266.147 169.912 265.421 168.391 262.136 160.562C256.916 147.974 254.876 141.252 254.772 136.411C254.772 135.581 254.634 134.363 254.53 133.672L254.288 132.427L253.666 133.146C253.32 133.561 252.802 134.944 252.491 136.245L251.903 138.596L249.759 134.861C246.129 128.637 241.393 122.357 240.632 122.744C240.425 122.855 240.287 123.187 240.287 123.547C240.287 124.183 241.946 129.135 242.914 131.459C248.549 144.71 253.839 160.866 254.98 168.335L255.222 169.912H252.145H249.033L248.791 167.201C247.685 155.388 244.055 143.161 238.385 132.15C236.898 129.273 235.204 126.756 234.72 126.756C234.063 126.756 234.478 129.328 236.484 137.185C237.624 141.694 238.558 145.484 238.523 145.678C238.523 145.844 237.936 144.627 237.175 142.995C235.688 139.647 233.13 135.193 232.439 134.751C231.574 134.17 231.955 136.742 233.752 143.659C235.965 152.318 236.034 152.677 234.651 149.026C233.165 145.18 231.298 140.947 230.088 138.707C229.154 137.019 229.154 136.936 229.569 134.861C230.018 132.62 232.093 125.566 234.409 118.456C235.17 116.105 235.723 114.002 235.619 113.836C235.308 113.145 234.72 113.504 233.234 115.33C228.117 121.693 223.346 132.344 221.237 142.054C220.995 143.271 220.442 144.489 219.681 145.484C218.506 147.034 216.777 150.409 216.086 152.484C215.222 155.001 215.394 153.701 216.985 144.323C217.918 138.624 218.022 137.185 217.365 137.323C216.328 137.572 213.043 144.35 211.868 148.721C211.453 150.243 211.419 149.994 211.384 144.71C211.384 139.73 211.28 138.679 210.485 135.747C209.206 131.016 206.924 126.617 205.057 125.262C204.331 124.736 204.331 124.736 204.331 125.262C204.331 125.538 204.815 127.586 205.403 129.799C206.233 132.98 206.475 134.778 206.647 138.513C206.924 145.318 206.163 150.409 203.501 158.985L202.049 163.688L201.773 157.048C201.15 139.841 199.629 127.724 198.108 127.392C197.693 127.309 197.451 126.59 197.106 124.183C196.622 120.946 195.757 118.29 195.169 118.373C193.752 118.539 192.542 127.807 191.989 142.801C191.747 149.413 191.712 149.496 191.47 146.397C191.332 144.655 190.952 140.726 190.606 137.683C189.914 130.878 189.88 131.486 190.779 128.858C191.194 127.641 191.539 126.258 191.539 125.815L191.505 124.957L190.364 126.009L189.188 127.06L188.774 126.092C188.566 125.538 188.151 125.096 187.909 125.096C187.287 125.096 186.457 127.337 186.146 129.882C185.973 131.32 185.524 132.399 184.21 134.585C182.343 137.655 178.851 144.24 177.849 146.674L177.192 148.196L176.984 146.674C176.708 144.738 177.71 141.722 182.896 128.692C184.21 125.428 185.662 121.638 186.146 120.282C187.079 117.792 187.287 115.966 186.734 115.966C185.627 115.966 179.646 124.349 175.982 131.044C175.152 132.565 174.288 133.921 174.08 134.087C173.838 134.225 173.458 134.972 173.251 135.747C173.009 136.494 172.179 138.568 171.384 140.311L169.932 143.493L169.862 141.971C169.62 137.268 168.307 132.123 166.371 128.166C164.884 125.179 162.671 122.219 162.049 122.412C161.807 122.468 161.669 122.634 161.669 122.772C161.703 122.91 161.842 123.491 161.945 124.072C162.118 124.819 162.084 125.096 161.842 124.957C161.254 124.681 161.392 125.511 162.568 129.965C163.639 133.976 163.674 134.28 163.674 140.588C163.674 146.397 163.57 147.532 162.74 151.211C162.222 153.479 161.772 155.388 161.703 155.416C161.634 155.471 161.081 154.254 160.459 152.705L159.318 149.911L159.767 146.84C160.459 142.497 160.355 132.869 159.629 129.66C158.35 124.183 155.204 117.599 153.026 115.994L152.127 115.33V115.966C152.127 116.326 152.576 118.429 153.164 120.642C154.581 126.23 154.893 128.692 154.893 133.838C154.893 140.781 154.927 140.754 151.885 135.94C149.223 131.68 146.422 128.111 145.592 127.918C145.212 127.807 145.178 128.056 145.385 129.135C145.627 130.49 146.111 131.791 150.571 143.05L152.922 148.998L152.334 151.211C151.643 153.756 149.292 161.087 149.188 161.004C149.119 160.949 148.911 158.625 148.704 155.803C147.667 142.414 146.042 133.616 145.005 135.719C144.763 136.189 144.694 136.134 144.348 135.332C142.377 130.629 140.752 142.967 140.718 162.775V169.912H139.231H137.779V161.115C137.814 153.092 137.883 151.903 138.747 147.117C139.819 141.086 139.957 138.956 139.197 139.454C138.92 139.647 138.367 140.311 137.987 140.947L137.261 142.109V140.367C137.261 138.734 137.226 138.624 136.569 138.79C135.947 138.956 135.878 138.845 135.878 137.904C135.878 136.687 135.048 131.984 134.495 129.937C134.011 128.139 133.63 127.613 133.077 128.056C131.971 128.941 131.21 134.668 130.726 145.429C130.484 150.685 130.277 152.401 129.482 155.25C128.998 157.159 128.306 160.257 127.961 162.166L127.373 165.624L126.923 163.134C126.474 160.451 125.056 154.614 124.469 153.037C124.123 152.124 124.953 145.623 126.37 138.098C127.027 134.612 127.062 132.206 126.439 132.344C125.54 132.593 123.051 137.074 121.426 141.39L120.77 143.133L119.49 140.56C117.865 137.24 116.102 134.612 115.653 134.778C115.134 135 115.411 136.604 117.07 143.05C117.9 146.314 118.591 149.385 118.591 149.883C118.591 150.381 118.28 152.262 117.935 154.06C117.347 156.938 116.621 162.083 115.964 168.031L115.756 169.912H110.087ZM336.087 138.651C335.534 138.402 340.339 134.557 343.036 133.091C344.108 132.482 345.076 132.012 345.145 132.012C345.249 132.012 346.113 134.087 350.123 144.323L351.956 149.026L351.264 151.654C350.849 153.092 350.02 155.831 349.397 157.74L348.256 161.198L348.049 159.4C347.911 158.404 347.738 156.163 347.634 154.42C347.219 147.67 345.802 137.877 345.007 136.217C344.799 135.774 344.523 135.608 344.142 135.719C343.797 135.83 343.52 135.636 343.243 135.055C341.411 130.822 339.855 142.746 339.855 161.115V169.912H338.265H336.675L336.847 160.728C336.951 152.622 337.089 150.907 337.885 146.425C338.887 140.92 339.026 139.481 338.472 139.481C338.265 139.481 337.816 139.869 337.504 140.339C336.26 142.137 336.156 142.137 336.329 140.45C336.433 139.398 336.363 138.79 336.087 138.651ZM324.92 140.92C325.439 138.015 325.715 137.545 328.688 134.28C330.555 132.261 331.039 131.901 330.728 132.759C330.659 133.035 330.452 134.308 330.348 135.581L330.106 137.877L327.859 140.09C326.649 141.307 325.473 142.607 325.266 142.967C324.54 144.212 324.436 143.631 324.92 140.92ZM317.418 138.43C317.003 137.711 317.037 137.628 318.593 136.494C321.981 134.031 322.292 134.031 320.287 136.494C319.25 137.738 318.42 138.845 318.42 138.983C318.42 139.481 317.798 139.149 317.418 138.43ZM303.347 166.675C304.038 156.744 307.288 148.334 312.958 141.777C313.926 140.671 314.825 139.675 314.963 139.62C315.101 139.537 315.413 140.201 315.62 141.086C315.966 142.58 315.931 142.773 314.929 144.738C311.713 151.045 309.777 159.4 309.777 166.897V169.912H306.424H303.105L303.347 166.675ZM227.149 163.273C227.011 160.147 227.011 155.444 227.184 152.069C227.46 147.31 227.979 142.829 228.152 143.686C228.152 143.766 228.419 144.815 228.787 146.26C228.932 146.828 229.092 147.457 229.258 148.113C230.433 152.899 231.436 157.436 231.989 160.506C232.335 162.387 233.337 169.193 233.372 169.691C233.372 169.829 232.058 169.912 230.433 169.912C227.633 169.912 227.495 169.885 227.495 169.276C227.475 169.085 227.421 168.11 227.346 166.754L227.345 166.75L227.345 166.74C227.289 165.737 227.222 164.527 227.149 163.273ZM325.3 154.282C325.715 153.12 326.752 150.851 327.617 149.219C328.481 147.587 329.345 146.148 329.518 145.982C330.106 145.484 329.829 150.243 329.103 152.843C328.17 156.135 326.752 163.107 326.683 164.518C326.649 165.597 326.649 165.597 326.372 164.794C326.199 164.324 325.923 162.968 325.681 161.751C325.473 160.534 325.127 158.846 324.92 157.961C324.574 156.606 324.609 156.163 325.3 154.282ZM219.059 169.912C218.195 169.912 218.16 169.829 218.195 168.446C218.195 167.671 218.402 165.32 218.644 163.273L219.059 159.538L219.336 164.241C219.474 166.814 219.681 169.165 219.75 169.414C219.889 169.802 219.716 169.912 219.059 169.912ZM153.164 169.774C153.164 169.691 153.855 167.671 154.72 165.292C155.549 162.913 156.31 160.921 156.379 160.866C156.448 160.811 156.863 162.083 157.243 163.715C157.969 166.509 157.969 166.703 157.416 168.28L156.863 169.912H154.996C153.994 169.912 153.164 169.857 153.164 169.774Z" fill="url(#paint1_linear_103_2)"></path><path fill-rule="evenodd" clip-rule="evenodd" d="M474.619 125.926C473.409 121.665 474.589 121.418 473.443 118.871C472.648 117.104 471.599 115.911 470.64 114.777C471.885 121.278 467.773 121.748 467.117 128.692C466.598 134.087 466.114 136.106 466.079 133.035C466.045 131.625 465.941 131.182 465.561 131.182C464.593 131.182 463.452 134.557 463.037 138.568L462.795 141.003L462.518 138.79C462.173 135.774 461.585 133.948 460.997 133.948C460.721 133.948 460.513 134.114 460.479 134.28C460.479 134.474 460.34 134.363 460.168 134.031C459.995 133.672 459.684 131.514 459.476 129.19C459.269 126.866 458.957 124.847 458.785 124.708C458.059 124.127 456.849 127.309 456.33 131.127C455.881 134.446 456.33 139.813 457.402 144.295C458.128 147.283 458.231 148.583 457.851 150.713L457.644 152.041L456.849 149.717C455.258 145.069 454.29 140.864 453.91 136.964C453.702 134.778 453.391 132.869 453.253 132.759C452.942 132.454 451.939 134.446 451.49 136.272C450.902 138.734 451.075 144.848 451.836 148.389C452.631 152.013 454.083 156.799 455.846 161.613C456.71 164.02 457.021 165.403 457.091 167.284L457.16 169.774L454.221 169.857L452.239 169.912L465.768 169.912C465.215 169.912 464.904 169.442 464.143 167.616C463.556 166.122 463.279 164.905 463.348 164.103C463.452 162.885 463.521 162.968 464.8 166.177C465.526 168.003 466.183 169.58 466.287 169.691C466.356 169.829 466.114 169.912 465.768 169.912H483.4C482.847 169.912 482.709 169.636 482.501 168.363C482.363 167.505 482.328 166.758 482.363 166.731C482.64 166.509 483.608 167.976 483.815 168.861C484.023 169.774 483.953 169.912 483.4 169.912H502.346V167.727C502.346 165.016 503.176 159.787 504.109 156.633C506.495 148.417 510.505 142.358 516.901 137.185C518.733 135.719 520.427 134.502 520.635 134.502C520.842 134.502 520.22 135.442 519.252 136.576C515.691 140.837 512.234 147.587 510.678 153.341C509.744 156.827 509.018 161.696 508.707 166.26L508.5 169.912H524.645C521.983 169.912 521.015 169.829 521.015 169.553C521.05 167.339 522.536 159.732 523.677 156.218C526.72 146.591 533.599 138.015 542.277 132.98C545.389 131.182 546.944 130.103 546.944 129.716C546.944 128.858 539.269 131.265 535.812 133.201C527.999 137.545 521.223 145.457 517.696 154.282C516.521 157.214 516.728 155.582 518.042 151.349C520.877 142.358 525.371 135.664 532.424 130.075C534.429 128.471 537.402 126.396 539.062 125.455C542.139 123.713 543.003 122.689 541.136 123.049C539.477 123.381 535.432 124.598 533.807 125.234C531.767 126.092 528.898 127.807 526.512 129.66C524.956 130.878 524.057 131.32 521.672 132.012C517.904 133.091 515.898 134.059 512.718 136.217C506.668 140.367 501.655 147.006 499.027 154.282L498.232 156.495V154.282C498.197 151.211 499.269 141.999 500.133 137.821C501.447 131.403 502.899 126.009 504.973 119.84C508.534 109.133 508.673 108.027 506.218 110.268C502.968 113.255 497.091 123.74 494.705 130.905C494.498 131.597 494.256 132.012 494.152 131.846C493.807 131.071 497.16 119.037 500.894 107.529C502.346 103.13 502.484 102.411 501.862 102.411C500.168 102.411 495.259 109.493 491.663 117.184C487.514 126.036 484.749 136.3 483.642 147.2C483.227 151.073 483.193 151.183 482.743 150.132C482.363 149.274 482.363 148.445 482.64 146.148C483.677 137.545 485.336 130.85 489.52 118.18C491.144 113.311 490.902 112.398 488.69 114.777C485.682 118.041 480.669 127.447 478.802 133.312C478.353 134.723 477.903 135.885 477.799 135.885C477.557 135.885 476.659 133.008 474.619 125.926ZM473.443 160.036C472.752 158.431 472.579 157.187 472.268 151.515C471.818 144.184 471.888 136.853 472.372 138.236C472.544 138.679 473.27 140.92 473.997 143.216C475.241 147.089 475.31 147.504 474.999 149.302C474.826 150.353 474.584 153.645 474.446 156.578L474.239 161.917L473.443 160.036ZM463.244 144.627C463.244 144.931 463.141 145.014 463.037 144.793C462.933 144.599 462.968 144.35 463.072 144.267C463.175 144.157 463.279 144.323 463.244 144.627Z" fill="url(#paint2_linear_103_2)"></path><path fill-rule="evenodd" clip-rule="evenodd" d="M516.901 137.185C510.505 142.358 506.495 148.417 504.109 156.633C503.176 159.787 502.346 165.016 502.346 167.727V169.912H505.423H508.5L508.707 166.26C509.018 161.696 509.744 156.827 510.678 153.341C512.234 147.587 515.691 140.837 519.252 136.576C520.22 135.442 520.842 134.502 520.635 134.502C520.427 134.502 518.733 135.719 516.901 137.185ZM463.037 144.793C463.141 145.014 463.244 144.931 463.244 144.627C463.279 144.323 463.175 144.157 463.072 144.267C462.968 144.35 462.933 144.599 463.037 144.793ZM177.956 169.912H178.977L177.952 169.94L177.956 169.912ZM415.811 164.711C415.604 169.857 415.604 169.912 416.33 169.912C417.056 169.912 417.056 169.857 416.814 166.094C416.606 162.443 416.26 159.289 416.088 159.455C416.053 159.51 415.915 161.862 415.811 164.711ZM352.069 169.912L352.704 169.912L352.059 169.94L352.069 169.912ZM464.143 167.616C464.904 169.442 465.215 169.912 465.768 169.912C466.114 169.912 466.356 169.829 466.287 169.691C466.183 169.58 465.526 168.003 464.8 166.177C463.521 162.968 463.452 162.885 463.348 164.103C463.279 164.905 463.556 166.122 464.143 167.616ZM482.501 168.363C482.709 169.636 482.847 169.912 483.4 169.912C483.953 169.912 484.023 169.774 483.815 168.861C483.608 167.976 482.64 166.509 482.363 166.731C482.328 166.758 482.363 167.505 482.501 168.363Z" fill="url(#paint3_linear_103_2)"></path></g><path d="M6.46615 86.2728C2.75817 159.13 76.4741 169.398 76.4741 169.398C76.4741 169.398 58.4949 125.628 57.6943 85.1591C56.8937 44.6898 75.7854 3.14476 75.7854 3.14476C75.7854 3.14476 10.1741 13.4152 6.46615 86.2728Z" fill="white"></path><path d="M118.374 82.0287C136.926 56.955 159.805 40.2264 159.805 40.2264C159.805 40.2264 149.546 23.4391 133.111 13.0701C116.677 2.70113 94.8557 1.70819 94.8557 1.70819C94.8557 1.70819 77.9967 46.9329 74.7062 85.8619C71.4158 124.791 78.4954 169.694 78.4954 169.694C78.4954 169.694 99.7059 173.709 124.474 163.077C149.242 152.445 162.913 122.873 162.913 122.873L99.4053 141.031C99.4053 141.031 99.8229 107.102 118.374 82.0287Z" fill="white"></path><path d="M172.879 85.3165C172.853 73.3312 166.955 55.2092 166.955 55.2092C166.955 55.2092 143.19 75.3993 130.718 90.8575C118.164 106.416 103.355 134.155 103.355 134.155C103.355 134.155 122.928 122.879 136.738 119.354C148.211 116.425 166.864 115.997 166.864 115.997C166.864 115.997 172.906 97.5283 172.879 85.3165Z" fill="white"></path><mask id="path-4-inside-1_103_2" fill="white"><path d="M127.608 10.0343C116.512 4.45706 103.467 1.39258 91.1212 1.45497C80.9196 1.5162 70.6347 3.48151 61.1253 7.18823C48.1623 12.2426 36.49 20.5671 27.2942 31.2969C23.4397 35.7942 21.1358 39.0849 17.9496 44.6309C14.7634 50.177 13.0796 53.8275 11.1313 59.4307C6.91553 71.5128 5.41944 84.4042 6.75607 97.002C7.54965 104.442 9.48579 112.345 12.1926 119.174C12.5278 120.029 12.9894 121.358 13.2279 122.142C13.8883 124.324 15.0394 126.744 16.5557 129.115C17.6864 130.878 21.9821 137.153 22.8849 138.353C28.0318 145.198 33.9674 150.963 41.1568 156.119C43.8734 158.079 50.281 161.797 53.3289 163.181C63.2569 167.727 73.407 170.234 83.7561 170.689C92.2919 171.075 93.8805 171.029 97.7921 170.27C98.6511 170.107 100.524 169.779 101.97 169.527C104.868 169.04 110.535 167.624 113.413 166.665C128.311 161.734 141.426 152.924 151.662 140.969C155.517 136.472 157.821 133.181 161.007 127.635C164.193 122.089 165.877 118.438 167.825 112.835C172.973 98.0653 174.024 82.5636 170.943 67.1394C170.353 64.1683 168.704 58.323 167.657 55.4554C162.637 41.6735 154.365 29.7407 143.45 20.5172C138.607 16.4469 133.111 12.7963 127.608 10.0343ZM135.322 15.2632C150.132 25.1167 160.92 38.8787 167.048 55.7167C168.575 59.908 170.645 67.8432 170.21 67.7751C170.098 67.7563 169.507 67.9054 168.896 68.0891C168.286 68.2728 167.078 68.5098 166.204 68.6179C164.691 68.8005 161.229 68.8828 160.999 68.7496C160.931 68.7096 160.765 67.7987 160.621 66.7161C159.357 57.4039 156.337 48.2418 151.623 39.4183L150.5 37.3218L151.207 37.3169C152.157 37.3149 154.982 36.9553 155.659 36.7637C156.161 36.6092 156.199 36.5697 156.119 36.3084C156.046 36.0355 155.928 36.0283 154.691 36.2635C153.34 36.5096 151.142 36.7104 150.422 36.6309C150.074 36.5979 149.979 36.4967 149.348 35.4084C148.421 33.8248 145.07 28.8368 143.737 27.0794C139.745 21.7959 134.513 16.0852 130.687 12.8044C130.19 12.3626 129.756 11.9724 129.746 11.936C129.708 11.7904 133.539 14.0752 135.322 15.2632ZM123.653 9.32308C116.527 7.30972 109.134 6.18703 102.133 6.0606C100.993 6.04517 100.022 6.00412 99.9871 5.98414C99.7919 5.87087 99.6818 3.8238 99.8363 3.02179L99.9154 2.59106L100.724 2.67592C108.043 3.44808 116.727 5.84228 124.216 9.14246C125.999 9.93073 125.902 9.9666 123.653 9.32308ZM126.584 14.1902C124.326 18.7067 120.127 26.4942 119.928 26.5478C119.892 26.5575 118.596 25.7749 117.063 24.7929C113.828 22.7473 109.592 19.6743 109.49 19.2922C109.461 19.183 112.25 17.3119 113.82 16.3929C115.42 15.4459 118.687 13.8364 120.201 13.2541C120.937 12.9587 122.287 12.5275 123.181 12.2774C125.107 11.75 127.752 11.4093 127.748 11.6835C127.748 11.7908 127.223 12.9164 126.584 14.1902ZM128.989 12.9878C130.048 15.0626 131.077 18.6271 131.491 21.6651C132.013 25.4733 132.105 32.3219 131.635 32.3411C131.415 32.3516 130.911 32.1361 128.188 30.8791C126.309 30.0193 120.738 27.11 120.635 26.9427C120.614 26.8996 121.486 25.2224 122.591 23.2192C124.637 19.4713 126.996 14.9371 127.881 13.0518C128.153 12.4717 128.411 12.022 128.457 12.0486C128.491 12.0686 128.733 12.5009 128.989 12.9878ZM125.221 11.1245C121.099 11.823 116.006 14.0794 110.911 17.4574C109.817 18.1904 108.89 18.7905 108.854 18.8002C108.763 18.8245 106.929 17.1143 105.827 15.9676C104.025 14.0924 101.862 11.2227 102.132 11.0721C102.335 10.9591 106.085 10.3215 107.569 10.1371C113.253 9.43785 119.602 9.63214 124.868 10.6735C126.171 10.9375 126.194 10.9508 125.221 11.1245ZM133.399 17.5449C136.808 22.2442 139.577 27.8174 141.426 33.6868C141.748 34.6729 141.988 35.5346 141.984 35.594C141.949 35.8961 133.837 33.4651 132.689 32.7988C132.494 32.6855 132.455 32.4326 132.508 31.6483C132.722 28.6365 132.516 23.9049 132.042 20.893C131.742 18.9359 130.694 15.0839 130.182 14.0028C130.003 13.622 129.874 13.2861 129.881 13.2745C129.947 13.1592 132.323 16.0597 133.399 17.5449ZM134.794 17.6475C137.511 20.4075 140.769 24.2504 143.378 27.7318C144.848 29.6764 147.676 33.8691 148.576 35.4212L149.276 36.627L148.4 36.5798C147.198 36.5129 145.145 36.275 143.875 36.0607L142.835 35.8724L142.203 33.907C140.124 27.3196 137.697 22.483 133.355 16.2893C133.08 15.9147 133.232 16.0492 134.794 17.6475ZM119.901 9.29829C114.541 8.74044 107.025 9.19128 102.474 10.3172L101.643 10.5114L101.136 9.4485C100.844 8.86401 100.49 8.01329 100.334 7.53848L100.07 6.69314L101.198 6.70191C105.096 6.7654 109.835 7.17819 113.83 7.82026C116.212 8.20346 120.783 9.14895 121.123 9.33063C121.215 9.38394 120.669 9.37468 119.901 9.29829ZM99.0728 4.37749C99.0909 4.77235 99.1546 5.30123 99.216 5.56746L99.3242 6.04534L98.5875 6.04838C97.0007 6.06546 92.6536 6.35658 90.7814 6.5771C83.3159 7.47251 75.6843 9.563 69.1295 12.5242L67.3537 13.3233L67.0335 12.415C66.4142 10.6413 66.203 8.39715 66.4975 6.73856L66.6441 5.87044L70.5468 4.86031C79.5903 2.49751 88.1737 1.68185 97.0438 2.33929L99.2432 2.50852L99.1438 3.0812C99.0948 3.40636 99.0662 3.9893 99.0728 4.37749ZM99.7151 7.76342C99.9002 8.34739 100.258 9.2163 100.497 9.70803L100.937 10.5939L98.1647 11.3683C95.06 12.2419 93.1185 12.9296 90.0597 14.2295C85.2401 16.2758 80.0699 19.2256 75.8232 22.3269C74.9227 22.9882 74.1229 23.5541 74.0505 23.5736C73.8447 23.6387 71.7997 21.0685 70.3647 18.9292C69.3122 17.3499 68.2102 15.4038 67.6466 14.0928C67.5618 13.9206 70.3392 12.6573 73.0615 11.6233C80.2023 8.89446 87.8171 7.28621 95.4748 6.85587C97.6738 6.73274 99.246 6.66107 99.3331 6.69618C99.3626 6.69797 99.5415 7.18611 99.7151 7.76342ZM151.258 40.1599C155.019 47.2311 157.811 55.0311 159.254 62.5404C159.6 64.3094 160.052 67.2006 160.14 68.2201L160.204 68.749L158.91 68.6288C154.893 68.2657 149.453 67.1542 144.475 65.6649C144.171 65.5809 144.134 65.513 144.188 65.0986C144.646 61.9823 145.022 57.2502 145.061 54.1979C145.127 48.9935 144.404 42.3631 143.332 38.2054C143.115 37.357 142.95 36.6311 142.97 36.5965C142.99 36.5619 143.268 36.5847 143.583 36.6754C144.38 36.861 146.904 37.1573 148.414 37.2489L149.674 37.3194L150.026 37.9075C150.22 38.2355 150.772 39.2474 151.258 40.1599ZM104.048 15.0125C105.032 16.1521 107.549 18.6733 107.951 18.9065C108.077 18.9798 108.188 19.1059 108.183 19.195C108.184 19.2727 107.707 19.7031 107.117 20.1446C102.21 23.862 96.5364 29.287 91.255 35.3085C89.636 37.1672 89.5287 37.274 89.2761 37.1274C88.2885 36.5545 82.8618 32.222 80.4304 30.058C78.4562 28.2975 74.5796 24.4648 74.5068 24.1919C74.4679 24.0464 78.1617 21.4545 80.4003 20.063C86.4388 16.2949 92.0825 13.7735 98.5339 11.9515L101.234 11.1965L102.169 12.5539C102.689 13.3013 103.526 14.4022 104.048 15.0125ZM142.635 38.1393C144.035 43.5638 144.633 50.7057 144.27 57.5207C144.095 60.7557 143.604 65.2362 143.411 65.2782C143.139 65.3512 137.496 63.3682 133.865 61.9069C130.714 60.6479 126.772 58.9291 126.738 58.8018C126.717 58.7587 127.025 57.7692 127.403 56.6048C129.942 48.8539 131.726 40.8184 132.307 34.5296C132.367 33.9188 132.45 33.4286 132.495 33.4553C133.219 33.875 139.3 35.7891 141.142 36.1813C141.594 36.2743 142.021 36.3838 142.078 36.4171C142.154 36.4455 142.392 37.2296 142.635 38.1393ZM109.947 20.6026C111.635 21.9818 113.869 23.5552 116.794 25.421C118.35 26.4163 119.642 27.2583 119.641 27.288C119.67 27.3972 107.614 48.782 107.505 48.8112C107.349 48.8435 98.7277 43.5953 96.1448 41.8815C91.8466 39.0493 90.0808 37.7788 90.1868 37.5944C90.2265 37.5252 90.5653 37.1221 90.9287 36.7027C96.2352 30.5574 101.871 25.0645 106.759 21.2743C107.531 20.6768 108.303 20.0793 108.478 19.9348C108.827 19.6458 108.729 19.604 109.947 20.6026ZM131.667 34.3118C131.327 38.1274 130.155 44.4579 128.911 49.2089C128.223 51.7923 126.52 57.3686 126.176 58.1532L126.012 58.5191L125.162 58.1334C121.784 56.604 114.553 52.8542 110.853 50.7385L108.189 49.1928L110.624 44.7943C111.979 42.3827 114.691 37.5298 116.652 34.0095L120.239 27.6048L121.473 28.2285C122.148 28.5737 123.836 29.4458 125.231 30.1628C126.632 30.8683 128.579 31.7977 129.557 32.227C130.542 32.6447 131.44 33.0273 131.55 33.0757C131.694 33.1442 131.732 33.5044 131.667 34.3118ZM65.7811 6.99937C65.5639 8.25696 65.7402 10.1887 66.2376 12.0147L66.7028 13.6836L65.785 14.135C60.4616 16.7652 54.3308 20.9872 49.3616 25.4526C48.2576 26.4416 47.3138 27.2315 47.2564 27.1982C47.0727 27.0916 46.0722 24.4357 45.589 22.7717C45.0686 20.9324 44.7452 18.7769 44.8149 17.403L44.8449 16.498L46.149 15.6404C50.1984 12.9627 55.5258 10.1657 60.2973 8.22978C61.8373 7.60132 65.8142 6.14226 65.8831 6.18224C65.9061 6.19556 65.8602 6.56864 65.7811 6.99937ZM171.038 71.5302C171.928 77.2579 172.202 83.3361 171.839 89.4591L171.696 91.8666L169.842 92.3747C167.929 92.8791 165.162 93.272 162.953 93.3588C161.244 93.4281 159.457 93.4211 159.456 93.3435C159.439 93.3186 159.544 92.7641 159.683 92.1223C161.078 85.4295 161.55 78.5852 161.091 71.601C161.019 70.4212 160.987 69.4647 161.016 69.4665C161.052 69.4568 161.551 69.4691 162.126 69.4801C163.532 69.5117 165.14 69.4303 166.456 69.2715C167.659 69.1238 169.846 68.5942 170.236 68.3434C170.531 68.1763 170.503 68.0375 171.038 71.5302ZM67.7301 15.7863C68.9028 18.1424 71.9875 22.6072 73.1866 23.7181C73.3554 23.8775 73.4896 24.0169 73.4764 24.0399C73.4631 24.063 72.7702 24.6295 71.9157 25.3174C68.3539 28.1858 64.3691 31.9771 60.932 35.748C59.9096 36.8612 57.5933 39.5606 57.0281 40.278C56.8033 40.5627 56.5953 40.7648 56.5493 40.7382C56.3656 40.6316 54.523 38.4555 53.2143 36.7891C50.96 33.9438 47.5912 28.5609 47.6857 27.97C47.7294 27.734 51.6043 24.294 53.6035 22.7329C56.6057 20.3854 59.4896 18.4305 62.5965 16.6203C64.0914 15.7505 66.8746 14.2906 66.955 14.3372C67.0009 14.3639 67.3485 15.0114 67.7301 15.7863ZM160.45 71.7052C160.803 77.3527 160.561 82.7313 159.697 88.2869C159.445 89.9243 158.78 93.3204 158.708 93.3398C158.69 93.3447 157.991 93.3083 157.18 93.2531C153.759 93.0516 148.91 92.298 144.821 91.34C142.162 90.7192 137.435 89.4063 137.405 89.2971C137.391 89.2426 137.738 88.2912 138.174 87.1602C140.603 80.9597 142.383 74.7973 143.609 68.4522C143.878 67.0247 144.083 66.2676 144.188 66.2978C144.27 66.3147 145.17 66.5602 146.187 66.8427C150.663 68.0867 155.625 69.044 159.012 69.3032C159.657 69.3542 160.216 69.4478 160.248 69.4975C160.274 69.5587 160.364 70.5486 160.45 71.7052ZM77.447 28.1886C80.3461 30.9776 83.6776 33.7869 87.5382 36.6879C88.8579 37.6689 89.0889 37.8797 88.9568 38.003C88.8742 38.0934 87.9654 39.1957 86.9342 40.4576C83.6124 44.5874 79.9964 49.4691 76.5227 54.5562C75.6575 55.8222 74.9117 56.8807 74.8754 56.8904C74.7487 56.9245 70.2229 53.4223 67.7598 51.3935C64.8558 48.986 62.1511 46.525 59.9533 44.3274C57.3068 41.685 56.9959 41.3201 57.1677 41.1277C57.2503 41.0372 57.8831 40.2821 58.5738 39.453C62.979 34.1837 68.9683 28.3424 73.5091 24.8891L73.9265 24.5624L74.7957 25.528C75.2753 26.0522 76.4692 27.2522 77.447 28.1886ZM143.065 67.7988C142.483 71.1044 141.173 76.3705 140 80.0103C138.789 83.7969 136.848 88.9889 136.612 89.0521C136.402 89.099 131.878 87.5657 128.804 86.4128C124.964 84.9687 123.446 84.3336 117.599 81.7715C117.171 81.5844 117.035 81.4748 117.094 81.371C117.359 80.9098 120.257 74.7198 121.15 72.6858C122.891 68.7763 125.517 62.2596 126.18 60.1998C126.289 59.8485 126.414 59.5517 126.45 59.542C126.493 59.5207 127.542 59.9602 128.786 60.513C133.006 62.362 136.966 63.8909 140.735 65.1397C142.011 65.5572 143.116 65.9523 143.201 66.0172C143.304 66.0771 143.25 66.7838 143.065 67.7988ZM92.5012 40.2286C94.9312 41.9152 98.1933 43.9925 104.862 48.1079L107.2 49.5563L95.3359 70.207L90.7594 67.4594C88.2366 65.9341 84.8809 63.8333 83.2918 62.7883C80.0972 60.6735 75.5406 57.4915 75.5017 57.346C75.4028 57.0119 83.4676 45.8256 86.7183 41.7928C89.5592 38.2603 89.5791 38.2257 89.7284 38.3123C89.7743 38.339 91.0238 39.2023 92.5012 40.2286ZM125.709 59.5269C125.477 60.3301 123.448 65.5944 122.369 68.1659C120.25 73.2398 116.619 81.0796 116.354 81.1411C116.215 81.1685 110.701 78.5072 106.902 76.5645C105.664 75.9226 102.659 74.3025 100.244 72.9628L95.8526 70.5068L101.816 60.2072L107.767 49.901L108.25 50.0734C108.499 50.1721 109.725 50.8371 110.954 51.55C114.249 53.4622 124.139 58.5546 124.404 58.4931C124.44 58.4834 124.775 58.6469 125.142 58.8601C125.728 59.1999 125.784 59.2629 125.709 59.5269ZM44.1423 17.8275C44.1058 19.9433 44.9349 23.4837 46.1302 26.3603L46.749 27.8416L45.7518 28.8311C41.8673 32.6345 37.1857 38.3583 33.7115 43.5528C32.7735 44.9456 31.7644 46.4356 31.4734 46.8355L30.9426 47.5729L29.5976 45.5166C27.1105 41.6906 25.7187 38.6231 25.1617 35.7018L25.0278 35.0553L26.3399 33.4644C30.5255 28.3906 34.8049 24.1399 39.6235 20.3097C41.2633 19.0012 44.0124 17.0142 44.0928 17.0609C44.1273 17.0809 44.1538 17.4345 44.1423 17.8275ZM171.361 94.7936C170.495 101.686 168.9 108.139 166.436 114.72C165.377 117.549 165.241 117.839 165.157 117.667C165.107 117.592 164.662 117.595 164.168 117.708C162.568 118.041 159.786 118.194 157.089 118.09C155.087 118.005 150.462 117.473 150.423 117.328C150.413 117.292 150.929 116.207 151.569 114.933C154.858 108.356 157.38 101.701 158.859 95.6877C159.155 94.5065 159.298 94.0975 159.441 94.0883C159.548 94.0888 160.589 94.0625 161.76 94.05C164.649 94.0046 167.497 93.6583 169.681 93.0808C170.689 92.8198 171.531 92.6323 171.571 92.6704C171.592 92.7135 171.506 93.6628 171.361 94.7936ZM48.1394 30.4317C49.7653 33.3582 52.3045 36.907 54.8445 39.8413C55.545 40.6474 56.1342 41.3275 56.1342 41.3275C56.1391 41.3457 55.939 41.6139 55.6829 41.9265C52.6388 45.6795 48.4143 51.8069 44.9892 57.4756C43.9033 59.2592 42.9865 60.6951 42.9406 60.6685C42.7454 60.5552 39.1144 56.988 37.8945 55.7267C35.6464 53.3769 33.1015 50.4244 31.8489 48.7138L31.4368 48.1518L32.2145 46.958C36.8311 39.8283 41.9777 33.375 46.5454 28.9688L47.0802 28.4643L47.2662 28.8335C47.3722 29.0487 47.7688 29.7708 48.1394 30.4317ZM158.184 95.6646C156.513 102.09 154.266 108.027 151.083 114.421C150.524 115.526 149.966 116.632 149.833 116.863L149.595 117.278L146.69 116.684C140.963 115.513 136.022 114.092 129.253 111.67C127.763 111.145 126.519 110.699 126.507 110.692C126.496 110.686 127.874 108.18 129.582 105.128C132.884 99.2188 134.443 96.0798 136.8 90.5908L137.08 89.9695L138.762 90.4533C145.209 92.318 151.405 93.4994 156.75 93.8953C157.672 93.9691 158.476 94.0358 158.511 94.0557C158.557 94.0824 158.401 94.8068 158.184 95.6646ZM57.5586 42.8458C61.9744 47.4987 66.2838 51.2443 73.9308 57.0956L74.516 57.5427L74.2612 57.933C71.7051 61.7692 67.2493 68.9922 64.699 73.4314L62.9502 76.4754L62.0549 75.8483C56.1636 71.7383 49.812 66.777 45.2015 62.7028L43.5876 61.2745L45.5099 58.0084C48.247 53.324 51.6351 48.2794 54.7891 44.1752C55.2983 43.5021 55.9166 42.6924 56.1431 42.378C56.3745 42.0819 56.5794 41.8318 56.5909 41.8384C56.6024 41.8451 57.0445 42.3015 57.5586 42.8458ZM135.932 90.9021C135.406 92.1648 133.992 95.2649 132.845 97.6891C132.392 98.6103 130.649 101.857 128.948 104.898L125.864 110.427L124.128 109.743C119.188 107.814 112.377 104.8 107.894 102.583C107.311 102.291 106.594 101.967 106.333 101.862L105.852 101.66L107.1 99.6472C108.553 97.2774 114.341 86.8299 115.717 84.0616C116.231 83.007 116.673 82.1568 116.698 82.1404C116.728 82.1422 117.985 82.6719 119.49 83.33C122.743 84.7564 125.892 86.0452 128.885 87.1515C131.313 88.0684 135.563 89.5195 135.69 89.4854C135.726 89.4756 135.9 89.5459 136.072 89.6458C136.382 89.8257 136.38 89.8554 135.932 90.9021ZM78.9414 60.6332C83.1867 63.5575 86.1092 65.4531 90.702 68.2255L94.8766 70.7399L89.4514 80.1832C86.4706 85.3718 83.9901 89.6362 83.9406 89.669C83.695 89.8032 71.7168 82.3767 66.4331 78.8345C65.0967 77.936 63.8914 77.1291 63.7421 77.0425L63.478 76.8892L65.3857 73.5685C67.479 69.925 70.5958 64.846 73.3113 60.6257L75.0588 57.9038L75.5932 58.3061C75.8948 58.5273 77.4067 59.5736 78.9414 60.6332ZM113.81 86.2608C111.855 89.9843 105.498 101.209 105.317 101.257C105.028 101.335 95.1402 96.1057 87.8806 92.0319L84.5011 90.1325L90.0022 80.6104L95.5081 71.1064L99.5736 73.3576C104.863 76.3036 110.465 79.185 115.111 81.3581L116.019 81.7771L115.856 82.2206C115.776 82.4663 114.854 84.2837 113.81 86.2608ZM25.823 40.0673C26.623 41.8997 28.1282 44.5564 29.4506 46.4921L30.6423 48.2289L28.6882 51.6303C26.0054 56.3001 23.8897 60.6224 22.1851 64.9219C21.7714 65.9886 21.3978 66.8788 21.3616 66.8885C21.2644 66.9244 19.3157 63.7336 18.4866 62.1918C16.8776 59.1828 15.5591 55.4814 15.3589 53.3513C15.2878 52.6489 15.2113 52.4355 15.0011 52.375C14.6513 52.2643 14.7343 52.0665 16.4385 48.6738C18.2702 45.0322 21.7841 39.3688 24.0903 36.3408L24.4573 35.8619L24.8738 37.3488C25.1039 38.1742 25.5364 39.3936 25.823 40.0673ZM164.339 119.837C161.427 126.157 157.934 131.971 153.972 137.082C145.558 147.943 134.792 156.609 122.647 162.291C120.229 163.409 118.455 163.779 114.962 163.889C110.862 164.017 104.278 163.164 99.3242 161.873C98.9497 161.778 98.7916 161.84 101.388 161.026C107.495 159.111 114.305 155.837 119.951 152.087L121.75 150.901L123.851 151.214C129.32 152.035 135.293 151.98 138.802 151.095C140.002 150.792 140.02 150.787 139.878 150.474C139.73 150.173 139.671 150.169 138.693 150.432C135.947 151.16 130.875 151.354 126.609 150.892C124.797 150.687 122.564 150.39 122.561 150.342C122.563 150.312 123.397 149.659 124.43 148.875C128.605 145.685 133.124 141.39 136.66 137.261C137.342 136.473 137.971 135.777 138.064 135.723C138.145 135.662 138.998 135.696 139.948 135.802C145.135 136.367 150.276 136.213 153.8 135.383C154.998 135.11 155.041 135.089 154.96 134.75C154.879 134.411 154.867 134.404 153.872 134.672C151.676 135.242 148.904 135.51 145.497 135.47C143.378 135.455 138.772 135.104 138.733 134.958C138.723 134.922 139.203 134.247 139.819 133.467C142.794 129.674 144.72 126.856 147.607 122.043L150.021 118.002L151.363 118.196C155.973 118.888 161.432 118.98 164.025 118.41C164.513 118.308 164.932 118.244 164.973 118.252C165.008 118.272 164.722 118.983 164.339 119.837ZM32.242 50.2947C34.4734 53.1268 37.9228 56.85 41.0891 59.8402L42.6977 61.3577L42.3267 62.0034C41.5252 63.3986 38.8849 68.5542 37.8931 70.6537C36.5329 73.5542 35.6051 75.6755 34.5153 78.4254C34.0269 79.6486 33.5919 80.6723 33.5442 80.6753C33.2545 80.7532 27.3944 74.6166 25.0792 71.7974C24.0205 70.522 21.8925 67.75 21.8536 67.6044C21.8554 67.5747 22.2409 66.5839 22.716 65.3837C24.6047 60.6837 26.5729 56.6447 29.2689 51.9519C30.2493 50.2454 31.0738 48.8636 31.1082 48.8836C31.1312 48.8969 31.6515 49.537 32.242 50.2947ZM146.877 121.927C144.154 126.481 141.527 130.307 138.66 133.886C137.852 134.893 137.863 134.9 136.833 134.748C131.244 133.949 124.139 132.164 117.269 129.838C115.679 129.3 114.241 128.819 114.072 128.767C113.779 128.69 113.781 128.66 114.055 128.342C116.661 125.273 121.245 118.893 124.54 113.717C125.379 112.39 126.097 111.3 126.126 111.302C126.163 111.292 127.135 111.625 128.281 112.029C135.509 114.639 142.85 116.731 147.941 117.625C148.552 117.733 149.104 117.839 149.168 117.86C149.225 117.894 148.27 119.584 146.877 121.927ZM44.7227 63.163C49.4234 67.3202 55.9062 72.3729 61.7008 76.4115L62.6026 77.027L60.9692 80.0303C58.8335 83.9875 56.1914 89.1728 54.3703 93.0357C53.556 94.7463 52.8662 96.1601 52.8185 96.1632C52.6555 96.207 46.9537 92.007 43.7017 89.4591C40.5235 86.9694 34.2262 81.5937 34.1599 81.3093C34.1308 81.2002 35.0365 78.8508 36.0693 76.36C37.607 72.6708 39.5041 68.7289 41.9731 64.0582C42.9358 62.2492 43.1659 61.8753 43.2922 61.9486C43.384 62.0019 44.0165 62.5534 44.7227 63.163ZM124.889 111.937C124.55 112.447 123.843 113.544 123.319 114.377C120.881 118.22 117.661 122.732 114.65 126.535C113.899 127.468 113.263 128.282 113.23 128.34C113.064 128.628 102.393 124.204 96.5287 121.432C95.6966 121.042 94.7661 120.609 94.4476 120.471L93.8567 120.22L94.1062 119.919C94.9886 118.863 100.055 111.164 103.246 106.036C104.52 103.977 105.594 102.294 105.612 102.289C105.649 102.28 106.967 102.891 108.544 103.637C113.62 106.074 120.005 108.872 123.617 110.261C125.743 111.064 125.605 110.876 124.889 111.937ZM66.0905 79.4043C70.3459 82.2577 73.7458 84.4149 78.7176 87.4072L83.5582 90.308L78.2337 99.656L72.8978 108.997L68.3213 106.25C65.7985 104.724 62.7559 102.851 61.5669 102.069C57.872 99.6795 53.5199 96.7546 53.4858 96.6273C53.3851 96.3229 58.5196 85.973 61.4903 80.4557L63.1238 77.4524L63.3879 77.6057C63.5372 77.6923 64.754 78.5059 66.0905 79.4043ZM104.583 102.615C103.219 104.99 98.4945 112.334 95.8461 116.224C94.799 117.754 93.8611 119.147 93.7617 119.32C93.4371 119.884 93.3073 119.871 91.7827 119.14C88.8138 117.725 82.8709 114.584 78.2542 112.013L73.4719 109.33L84.1897 90.6745L87.9187 92.7919C93.5375 95.9906 98.5057 98.6426 104.735 101.765C104.983 101.893 104.968 101.946 104.583 102.615ZM14.7115 53.6521C14.7512 53.9826 14.9871 55.0111 15.2283 55.9505C16.0411 59.0664 17.8966 62.9256 20.3776 66.6558L21.0869 67.713L20.7875 68.554C18.6268 74.6336 16.8801 82.0448 16.2947 87.7009C16.2369 88.1747 16.1663 88.5642 16.13 88.5739C15.9061 88.6439 12.8223 83.9643 11.7274 81.8993C10.2963 79.1934 9.18583 76.0893 8.90483 74.0199C8.81735 73.2927 8.74889 73.1454 8.52365 73.1377C8.19153 73.1294 8.23568 72.7861 8.98763 69.4251C10.0813 64.5098 11.5275 59.8605 13.3809 55.3552C14.6231 52.3401 14.6014 52.4044 14.6165 52.7514C14.6306 52.9133 14.6717 53.3215 14.7115 53.6521ZM22.9693 70.2196C25.3853 73.3433 28.3154 76.6114 31.6106 79.8302L33.3173 81.4968L32.4217 84.175C30.6139 89.6137 29.2248 95.2032 28.4782 100.074C28.3634 100.807 28.2327 101.407 28.1965 101.417C28.0697 101.451 27.1687 100.621 24.8151 98.3482C22.355 95.9677 20.0481 93.5069 18.4462 91.5781C17.8261 90.8186 17.1993 90.0707 17.0668 89.9015C16.7559 89.5366 16.7934 88.8051 17.2186 85.7464C17.9483 80.5585 19.288 75.0018 21.0287 69.8931C21.378 68.912 21.597 68.4241 21.6576 68.5054C21.7066 68.5799 22.302 69.3558 22.9693 70.2196ZM137.214 135.63C137.055 135.907 134.397 138.854 133.043 140.251C129.873 143.531 126.894 146.184 123.275 148.912C121.354 150.364 121.796 150.314 118.33 149.578C112.652 148.375 107.259 146.783 100.783 144.409C99.8471 144.066 99.0755 143.757 99.0592 143.732C99.0494 143.695 100.023 142.8 101.233 141.734C104.976 138.417 108.413 134.939 111.673 131.157C112.578 130.114 113.33 129.259 113.359 129.261C113.378 129.256 114.869 129.752 116.668 130.35C123.37 132.624 130.876 134.535 136.028 135.295C137.2 135.468 137.293 135.491 137.214 135.63ZM36.3237 84.179C40.4935 87.8744 45.4467 91.7784 51.2409 95.9243C51.9524 96.4448 52.5443 96.8804 52.5491 96.8986C52.554 96.9168 52.2219 97.708 51.8152 98.6558C49.9795 102.864 47.6245 109.015 46.3258 112.981C45.9611 114.123 45.6383 115.058 45.6202 115.062C45.5592 115.089 41.0291 111.861 39.4144 110.647C36.1275 108.186 32.8561 105.566 29.9623 103.087L28.8382 102.112L29.1623 100.056C29.7968 96.0731 30.6657 92.2419 31.8213 88.2849C32.39 86.3089 33.6803 82.3839 33.8393 82.1072C33.8791 82.038 33.9957 82.0749 34.1299 82.2143C34.2479 82.3289 35.2341 83.224 36.3237 84.179ZM112.44 129.235C108.954 133.438 103.928 138.562 99.9163 142L98.2448 143.444L96.846 142.894C94.5132 141.97 90.9102 140.433 88.2267 139.215C85.8271 138.114 81.6093 136.128 81.5832 136.067C81.5784 136.049 82.3203 135.157 83.2274 134.085C86.165 130.624 89.2643 126.641 92.092 122.732C92.8476 121.71 93.4924 120.854 93.5467 120.84C93.5895 120.818 94.7926 121.363 96.209 122.015C99.3059 123.474 101.783 124.573 104.362 125.654C106.824 126.698 112.117 128.786 112.214 128.75C112.25 128.74 112.378 128.783 112.481 128.843C112.631 128.93 112.625 129.019 112.44 129.235ZM55.4632 98.8354C58.3327 100.823 63.581 104.16 67.9901 106.826L72.5665 109.574L68.6517 116.388C66.4989 120.135 64.3937 123.88 63.976 124.714L63.2036 126.218L60.0903 124.335C54.884 121.191 47.5529 116.522 46.5728 115.723C46.25 115.459 46.2451 115.44 46.6183 114.258C47.833 110.305 50.441 103.393 52.1884 99.4719C52.4839 98.7978 52.8142 98.0363 52.9188 97.7742L53.095 97.3076L53.6003 97.6007C53.8644 97.754 54.704 98.318 55.4632 98.8354ZM92.5729 120.936C89.4868 125.295 84.1331 132.135 81.6322 134.943L80.9384 135.724L80.0145 135.28C77.126 133.912 63.8396 126.71 63.7764 126.473C63.7618 126.419 65.8555 122.668 68.4407 118.141L73.1177 109.894L77.9641 112.598C83.0975 115.469 89.6296 118.89 92.7398 120.325C92.9072 120.407 92.8771 120.513 92.5729 120.936ZM8.85109 76.7252C9.82554 80.1194 12.5446 85.1407 15.3859 88.8032L16.0974 89.7234L15.9571 91.8865C15.529 98.8945 16.1389 106.228 17.7013 113.023C17.9633 114.112 18.1537 115.007 18.1192 114.987C18.0963 114.974 17.4726 114.274 16.7443 113.436C11.8881 107.897 8.5799 102.196 7.80901 98.0742C7.69636 97.4708 7.53821 96.7333 7.45561 96.424C6.99047 94.7551 6.81611 87.8896 7.11397 82.9737C7.29841 79.6678 7.92085 74.1869 8.14607 73.7949C8.17919 73.7372 8.25517 74.058 8.32895 74.5159C8.39787 74.9556 8.63553 75.9545 8.85109 76.7252ZM119.425 151.643C113.613 155.497 107.173 158.525 100.075 160.725C98.205 161.316 97.6159 161.435 97.2184 161.327C93.0611 160.222 87.1186 158.173 82.6076 156.324C81.8311 155.997 80.9955 155.666 80.7804 155.587C80.5539 155.502 80.3882 155.39 80.4081 155.356C80.428 155.321 81.181 154.943 82.0855 154.515C86.8088 152.29 91.2825 149.566 95.871 146.11C96.9778 145.276 97.9741 144.501 98.0995 144.39C98.2876 144.222 98.4996 144.253 99.6603 144.711C101.844 145.547 107.166 147.344 109.513 148.029C112.296 148.86 116.733 149.959 118.935 150.391C119.886 150.574 120.667 150.734 120.683 150.759C120.699 150.784 120.135 151.179 119.425 151.643ZM18.8791 93.09C21.2884 95.8254 25.1482 99.7406 27.5583 101.862L28.1285 102.362L27.9405 104.128C27.2359 110.391 27.4002 118.527 28.3133 123.654L28.4839 124.583L27.9101 124.142C26.8528 123.344 22.7815 119.691 20.9848 117.941L19.2225 116.211L18.9032 115.088C17.5497 110.275 16.6201 103.525 16.5055 97.7546C16.4594 95.7293 16.6045 90.7863 16.7105 90.6018C16.7303 90.5672 16.8991 90.7266 17.0806 90.9703C17.2506 91.2073 18.0673 92.1577 18.8791 93.09ZM34.9933 108.082C37.6994 110.221 40.2814 112.149 43.4622 114.395C44.505 115.138 45.3804 115.8 45.4131 115.849C45.4391 115.911 45.4188 116.053 45.3592 116.156C45.134 116.548 43.6239 122.375 43.0808 124.919C42.5107 127.617 41.9628 130.943 41.7425 132.952C41.6741 133.604 41.5995 134.161 41.5796 134.195C41.5399 134.264 41.3005 134.095 37.6113 131.508C34.937 129.634 33.4173 128.521 30.834 126.515L29.3014 125.318L29.1318 124.574C28.6379 122.289 28.158 116.569 28.1436 112.809C28.1347 110.16 28.5605 103.289 28.7526 102.954C28.7592 102.943 29.5851 103.637 30.5913 104.498C31.5925 105.34 33.569 106.963 34.9933 108.082ZM97.5059 143.984C97.3602 144.237 93.2998 147.201 91.191 148.606C87.7105 150.907 83.1356 153.433 80.2681 154.613C79.2815 155.025 79.5623 155.096 76.5834 153.752C72.5983 151.947 67.79 149.603 67.8628 149.476C67.8827 149.441 68.4025 148.989 69.0261 148.49C72.4363 145.672 76.2714 141.902 80.8665 136.835C81.1076 136.575 81.1831 136.604 83.735 137.838C87.4472 139.639 93.2346 142.197 96.3178 143.387C96.9105 143.607 97.4211 143.811 97.4851 143.833C97.5311 143.86 97.539 143.926 97.5059 143.984ZM49.6853 118.62C51.4696 119.779 55.1336 122.089 57.8335 123.732C60.5382 125.394 62.7607 126.776 62.7655 126.794C62.7589 126.805 60.8984 130.23 58.5959 134.398C56.3114 138.561 54.4426 142.027 54.439 142.087C54.4413 142.349 44.7062 136.455 42.7995 135.057L42.2355 134.653L42.3233 133.673C42.7131 129.61 43.9264 123.581 45.3947 118.36C45.9819 116.272 46.0385 116.12 46.2858 116.356C46.3759 116.439 47.9124 117.469 49.6853 118.62ZM79.6847 137.133C76.4749 140.775 71.3441 145.761 68.2179 148.298L67.101 149.203L65.4766 148.353C64.5888 147.899 61.839 146.396 59.3781 145.029L54.9059 142.527L56.7845 139.097C57.8116 137.202 59.7101 133.738 60.9956 131.394L63.3578 127.122L66.2568 128.712C70.7949 131.207 77.1102 134.579 78.4837 135.253C79.1762 135.593 79.9032 135.953 80.0984 136.067L80.4677 136.25L79.6847 137.133ZM117.376 164.537C112.488 166.543 100.895 169.533 99.9923 169.025C99.866 168.952 99.4465 169.016 99.0397 169.164C98.1472 169.492 96.1368 169.74 92.6072 169.967C88.9888 170.189 87.8016 170.177 85.5452 169.867C81.573 169.345 76.8601 168.194 72.3773 166.669C70.2115 165.935 66.1924 164.403 65.756 164.15C65.6412 164.083 66.358 164.115 67.3376 164.222C69.9279 164.51 74.0131 164.728 76.5552 164.727C83.3085 164.725 89.1254 164.088 95.4223 162.668L97.71 162.151L99.0438 162.494C101.022 162.996 104.791 163.738 106.888 164.032C109.643 164.432 113.817 164.655 115.791 164.524C116.763 164.458 117.574 164.406 117.597 164.419C117.627 164.421 117.516 164.48 117.376 164.537ZM8.50217 102.304C9.97436 105.818 13.0997 110.399 16.9497 114.677L18.5654 116.476L19.1007 118.262C21.6442 126.841 26.2179 135.936 32.0194 143.96C32.3873 144.466 32.6306 144.868 32.56 144.858C32.1788 144.775 27.2582 140.521 25.0357 138.34C23.1834 136.527 20.3646 133.385 19.521 132.189C18.2017 130.301 15.7897 125.811 14.2172 122.285C13.4628 120.587 13.1178 119.295 13.0753 118.01C13.07 117.7 13.0219 117.41 12.9874 117.39C12.7626 117.275 12.4645 117.394 12.4341 117.607C12.3329 118.21 10.5855 112.83 9.53683 108.685C8.81018 105.819 7.86703 101.198 8.02779 101.291C8.06224 101.311 8.27249 101.771 8.50217 102.304ZM95.0186 162.065C89.026 163.461 81.9097 164.175 75.1883 164.042C71.5694 163.971 65.1523 163.415 63.2991 163.016C62.8243 162.91 59.2496 161.297 58.3998 160.804C57.952 160.544 57.9701 160.539 59.6624 160.445C61.6772 160.323 64.0758 160.039 66.2182 159.667C68.6124 159.258 74.779 157.532 77.0534 156.638C78.1849 156.187 79.2108 155.814 79.3424 155.798C79.4626 155.776 79.929 155.923 80.3918 156.13C83.1623 157.384 91.1797 160.299 94.4859 161.233C96.291 161.742 96.3073 161.767 95.0186 162.065ZM21.3823 119.248C23.0514 120.847 25.8958 123.358 27.4871 124.666L28.6146 125.581L28.8563 126.813C30.281 133.927 33.247 141.69 36.7686 147.5L37.314 148.416L36.6074 147.914C34.6234 146.517 33.5387 145.18 30.2097 140.128C26.6308 134.684 23.906 129.46 21.7465 123.918C21.0663 122.17 19.9417 118.904 19.6841 117.94C19.5772 117.539 19.579 117.51 19.7526 117.687C19.859 117.795 20.5896 118.496 21.3823 119.248ZM32.1338 128.33C34.5877 130.215 36.8667 131.845 39.8969 133.926C40.7759 134.528 41.4825 135.03 41.4874 135.049C41.4807 135.06 41.4318 136.185 41.3687 137.547C41.1393 142.61 41.3864 146.151 42.3043 150.497C42.6445 152.17 42.8697 152.178 40.3231 150.454L38.6324 149.319L37.5251 147.462C34.159 141.835 31.6126 135.607 30.0701 129.177C29.4976 126.816 29.4092 126.303 29.5815 126.403C29.6274 126.43 30.77 127.293 32.1338 128.33ZM78.033 155.546C75.8601 156.53 69.4956 158.387 66.3131 158.969C64.0555 159.381 60.8624 159.742 58.5994 159.844C56.5634 159.923 56.3169 159.872 54.3122 158.724L53.2377 158.116L54.0265 157.836C57.0711 156.774 61.7882 154.053 65.6609 151.15L67.1964 149.996L68.6208 150.715C70.3225 151.564 75.6268 154.057 76.738 154.548C77.1845 154.731 77.7392 154.991 77.987 155.119L78.43 155.361L78.033 155.546ZM46.5307 138.236C48.6383 139.551 51.1823 141.12 52.1862 141.717L54.0102 142.807L53.5033 143.742C52.4394 145.754 48.6341 153.124 48.1731 154.086L47.6856 155.095L45.5484 153.778L43.4178 152.449L43.0476 150.882C42.4014 148.062 41.971 144.307 41.9479 141.096C41.9368 139.383 42.0585 136.133 42.1605 135.716C42.2307 135.434 42.2554 135.417 42.4634 135.615C42.5929 135.736 44.4231 136.921 46.5307 138.236ZM65.6312 150.349C64.1301 151.522 59.7562 154.365 58.1924 155.195C56.3715 156.153 54.1872 157.13 53.1153 157.476L52.2987 157.725L48.2796 155.393L48.8153 154.274C49.7091 152.425 53.2706 145.56 53.9993 144.291L54.6749 143.115L57.5294 144.756C59.0977 145.651 61.329 146.884 62.4857 147.509C63.649 148.122 65.0305 148.862 65.5539 149.151L66.5088 149.674L65.6312 150.349ZM81.1862 169.859C80.6858 169.983 74.6776 169.142 71.62 168.521C64.9233 167.172 57.9561 164.774 52.1077 161.842C51.4563 161.51 50.6767 161.135 50.3698 161.003C49.4834 160.627 49.9321 160.672 51.3971 161.107C54.2744 161.962 58.8742 163.016 61.6169 163.439C62.4468 163.567 63.2104 163.81 64.6992 164.444C70.0291 166.706 75.9636 168.689 79.7949 169.482C81.4905 169.835 81.3853 169.805 81.1862 169.859ZM24.0853 138.342C26.265 140.545 29.3372 143.219 32.5958 145.755C34.2021 147.01 34.5625 147.342 35.7537 148.787C37.3 150.652 39.5623 153.164 41.298 154.94C42.6473 156.322 42.4716 156.282 40.3551 154.716C34.2778 150.236 29.4804 145.608 24.7214 139.634C23.4944 138.092 22.4675 136.681 23.0209 137.263C23.1044 137.358 23.5858 137.852 24.0853 138.342ZM38.7928 150.719C39.0984 151.173 39.5759 151.835 39.8458 152.191C40.8272 153.468 40.1686 152.855 38.4483 150.919C37.4908 149.841 36.6971 148.904 36.6825 148.849C36.6613 148.806 37.0173 149.012 37.4501 149.325C38.0322 149.724 38.3957 150.104 38.7928 150.719ZM58.0806 162.079C55.9858 161.648 51.5967 160.546 51.3325 160.393C51.2522 160.346 52.3898 160.392 53.8398 160.48L56.48 160.628L57.8027 161.257C60.5238 162.544 60.5383 162.598 58.0806 162.079ZM42.9921 153.217C43.0637 153.412 43.3322 154.091 43.5844 154.745C43.8252 155.392 44.1101 156.095 44.1931 156.297L44.361 156.671L44.1202 156.424C43.5651 155.871 41.5607 153.417 40.6712 152.193L39.7212 150.889L41.2891 151.891C42.5142 152.663 42.8945 152.961 42.9921 153.217ZM45.7781 154.711L47.4202 155.663L46.7984 156.932C46.4535 157.639 46.1338 158.222 46.0861 158.225C45.9412 158.264 44.8693 156.213 44.3158 154.831C43.803 153.565 43.7155 153.237 44.0035 153.589C44.087 153.683 44.8824 154.191 45.7781 154.711ZM53.5827 159.808C52.8544 159.77 51.832 159.684 51.3126 159.628C50.1869 159.482 48.8032 159.279 48.9167 159.268C48.9644 159.265 49.7659 159.069 50.7239 158.841L52.4357 158.42L53.6807 159.157L54.9209 159.877L53.5827 159.808ZM50.1736 158.306C48.9754 158.58 47.0079 158.806 46.8012 158.686C46.7208 158.64 47.3664 157.169 47.8102 156.397L48.0288 156.016L51.4737 158.015L50.1736 158.306Z"></path></mask><path d="M127.608 10.0343C116.512 4.45706 103.467 1.39258 91.1212 1.45497C80.9196 1.5162 70.6347 3.48151 61.1253 7.18823C48.1623 12.2426 36.49 20.5671 27.2942 31.2969C23.4397 35.7942 21.1358 39.0849 17.9496 44.6309C14.7634 50.177 13.0796 53.8275 11.1313 59.4307C6.91553 71.5128 5.41944 84.4042 6.75607 97.002C7.54965 104.442 9.48579 112.345 12.1926 119.174C12.5278 120.029 12.9894 121.358 13.2279 122.142C13.8883 124.324 15.0394 126.744 16.5557 129.115C17.6864 130.878 21.9821 137.153 22.8849 138.353C28.0318 145.198 33.9674 150.963 41.1568 156.119C43.8734 158.079 50.281 161.797 53.3289 163.181C63.2569 167.727 73.407 170.234 83.7561 170.689C92.2919 171.075 93.8805 171.029 97.7921 170.27C98.6511 170.107 100.524 169.779 101.97 169.527C104.868 169.04 110.535 167.624 113.413 166.665C128.311 161.734 141.426 152.924 151.662 140.969C155.517 136.472 157.821 133.181 161.007 127.635C164.193 122.089 165.877 118.438 167.825 112.835C172.973 98.0653 174.024 82.5636 170.943 67.1394C170.353 64.1683 168.704 58.323 167.657 55.4554C162.637 41.6735 154.365 29.7407 143.45 20.5172C138.607 16.4469 133.111 12.7963 127.608 10.0343ZM135.322 15.2632C150.132 25.1167 160.92 38.8787 167.048 55.7167C168.575 59.908 170.645 67.8432 170.21 67.7751C170.098 67.7563 169.507 67.9054 168.896 68.0891C168.286 68.2728 167.078 68.5098 166.204 68.6179C164.691 68.8005 161.229 68.8828 160.999 68.7496C160.931 68.7096 160.765 67.7987 160.621 66.7161C159.357 57.4039 156.337 48.2418 151.623 39.4183L150.5 37.3218L151.207 37.3169C152.157 37.3149 154.982 36.9553 155.659 36.7637C156.161 36.6092 156.199 36.5697 156.119 36.3084C156.046 36.0355 155.928 36.0283 154.691 36.2635C153.34 36.5096 151.142 36.7104 150.422 36.6309C150.074 36.5979 149.979 36.4967 149.348 35.4084C148.421 33.8248 145.07 28.8368 143.737 27.0794C139.745 21.7959 134.513 16.0852 130.687 12.8044C130.19 12.3626 129.756 11.9724 129.746 11.936C129.708 11.7904 133.539 14.0752 135.322 15.2632ZM123.653 9.32308C116.527 7.30972 109.134 6.18703 102.133 6.0606C100.993 6.04517 100.022 6.00412 99.9871 5.98414C99.7919 5.87087 99.6818 3.8238 99.8363 3.02179L99.9154 2.59106L100.724 2.67592C108.043 3.44808 116.727 5.84228 124.216 9.14246C125.999 9.93073 125.902 9.9666 123.653 9.32308ZM126.584 14.1902C124.326 18.7067 120.127 26.4942 119.928 26.5478C119.892 26.5575 118.596 25.7749 117.063 24.7929C113.828 22.7473 109.592 19.6743 109.49 19.2922C109.461 19.183 112.25 17.3119 113.82 16.3929C115.42 15.4459 118.687 13.8364 120.201 13.2541C120.937 12.9587 122.287 12.5275 123.181 12.2774C125.107 11.75 127.752 11.4093 127.748 11.6835C127.748 11.7908 127.223 12.9164 126.584 14.1902ZM128.989 12.9878C130.048 15.0626 131.077 18.6271 131.491 21.6651C132.013 25.4733 132.105 32.3219 131.635 32.3411C131.415 32.3516 130.911 32.1361 128.188 30.8791C126.309 30.0193 120.738 27.11 120.635 26.9427C120.614 26.8996 121.486 25.2224 122.591 23.2192C124.637 19.4713 126.996 14.9371 127.881 13.0518C128.153 12.4717 128.411 12.022 128.457 12.0486C128.491 12.0686 128.733 12.5009 128.989 12.9878ZM125.221 11.1245C121.099 11.823 116.006 14.0794 110.911 17.4574C109.817 18.1904 108.89 18.7905 108.854 18.8002C108.763 18.8245 106.929 17.1143 105.827 15.9676C104.025 14.0924 101.862 11.2227 102.132 11.0721C102.335 10.9591 106.085 10.3215 107.569 10.1371C113.253 9.43785 119.602 9.63214 124.868 10.6735C126.171 10.9375 126.194 10.9508 125.221 11.1245ZM133.399 17.5449C136.808 22.2442 139.577 27.8174 141.426 33.6868C141.748 34.6729 141.988 35.5346 141.984 35.594C141.949 35.8961 133.837 33.4651 132.689 32.7988C132.494 32.6855 132.455 32.4326 132.508 31.6483C132.722 28.6365 132.516 23.9049 132.042 20.893C131.742 18.9359 130.694 15.0839 130.182 14.0028C130.003 13.622 129.874 13.2861 129.881 13.2745C129.947 13.1592 132.323 16.0597 133.399 17.5449ZM134.794 17.6475C137.511 20.4075 140.769 24.2504 143.378 27.7318C144.848 29.6764 147.676 33.8691 148.576 35.4212L149.276 36.627L148.4 36.5798C147.198 36.5129 145.145 36.275 143.875 36.0607L142.835 35.8724L142.203 33.907C140.124 27.3196 137.697 22.483 133.355 16.2893C133.08 15.9147 133.232 16.0492 134.794 17.6475ZM119.901 9.29829C114.541 8.74044 107.025 9.19128 102.474 10.3172L101.643 10.5114L101.136 9.4485C100.844 8.86401 100.49 8.01329 100.334 7.53848L100.07 6.69314L101.198 6.70191C105.096 6.7654 109.835 7.17819 113.83 7.82026C116.212 8.20346 120.783 9.14895 121.123 9.33063C121.215 9.38394 120.669 9.37468 119.901 9.29829ZM99.0728 4.37749C99.0909 4.77235 99.1546 5.30123 99.216 5.56746L99.3242 6.04534L98.5875 6.04838C97.0007 6.06546 92.6536 6.35658 90.7814 6.5771C83.3159 7.47251 75.6843 9.563 69.1295 12.5242L67.3537 13.3233L67.0335 12.415C66.4142 10.6413 66.203 8.39715 66.4975 6.73856L66.6441 5.87044L70.5468 4.86031C79.5903 2.49751 88.1737 1.68185 97.0438 2.33929L99.2432 2.50852L99.1438 3.0812C99.0948 3.40636 99.0662 3.9893 99.0728 4.37749ZM99.7151 7.76342C99.9002 8.34739 100.258 9.2163 100.497 9.70803L100.937 10.5939L98.1647 11.3683C95.06 12.2419 93.1185 12.9296 90.0597 14.2295C85.2401 16.2758 80.0699 19.2256 75.8232 22.3269C74.9227 22.9882 74.1229 23.5541 74.0505 23.5736C73.8447 23.6387 71.7997 21.0685 70.3647 18.9292C69.3122 17.3499 68.2102 15.4038 67.6466 14.0928C67.5618 13.9206 70.3392 12.6573 73.0615 11.6233C80.2023 8.89446 87.8171 7.28621 95.4748 6.85587C97.6738 6.73274 99.246 6.66107 99.3331 6.69618C99.3626 6.69797 99.5415 7.18611 99.7151 7.76342ZM151.258 40.1599C155.019 47.2311 157.811 55.0311 159.254 62.5404C159.6 64.3094 160.052 67.2006 160.14 68.2201L160.204 68.749L158.91 68.6288C154.893 68.2657 149.453 67.1542 144.475 65.6649C144.171 65.5809 144.134 65.513 144.188 65.0986C144.646 61.9823 145.022 57.2502 145.061 54.1979C145.127 48.9935 144.404 42.3631 143.332 38.2054C143.115 37.357 142.95 36.6311 142.97 36.5965C142.99 36.5619 143.268 36.5847 143.583 36.6754C144.38 36.861 146.904 37.1573 148.414 37.2489L149.674 37.3194L150.026 37.9075C150.22 38.2355 150.772 39.2474 151.258 40.1599ZM104.048 15.0125C105.032 16.1521 107.549 18.6733 107.951 18.9065C108.077 18.9798 108.188 19.1059 108.183 19.195C108.184 19.2727 107.707 19.7031 107.117 20.1446C102.21 23.862 96.5364 29.287 91.255 35.3085C89.636 37.1672 89.5287 37.274 89.2761 37.1274C88.2885 36.5545 82.8618 32.222 80.4304 30.058C78.4562 28.2975 74.5796 24.4648 74.5068 24.1919C74.4679 24.0464 78.1617 21.4545 80.4003 20.063C86.4388 16.2949 92.0825 13.7735 98.5339 11.9515L101.234 11.1965L102.169 12.5539C102.689 13.3013 103.526 14.4022 104.048 15.0125ZM142.635 38.1393C144.035 43.5638 144.633 50.7057 144.27 57.5207C144.095 60.7557 143.604 65.2362 143.411 65.2782C143.139 65.3512 137.496 63.3682 133.865 61.9069C130.714 60.6479 126.772 58.9291 126.738 58.8018C126.717 58.7587 127.025 57.7692 127.403 56.6048C129.942 48.8539 131.726 40.8184 132.307 34.5296C132.367 33.9188 132.45 33.4286 132.495 33.4553C133.219 33.875 139.3 35.7891 141.142 36.1813C141.594 36.2743 142.021 36.3838 142.078 36.4171C142.154 36.4455 142.392 37.2296 142.635 38.1393ZM109.947 20.6026C111.635 21.9818 113.869 23.5552 116.794 25.421C118.35 26.4163 119.642 27.2583 119.641 27.288C119.67 27.3972 107.614 48.782 107.505 48.8112C107.349 48.8435 98.7277 43.5953 96.1448 41.8815C91.8466 39.0493 90.0808 37.7788 90.1868 37.5944C90.2265 37.5252 90.5653 37.1221 90.9287 36.7027C96.2352 30.5574 101.871 25.0645 106.759 21.2743C107.531 20.6768 108.303 20.0793 108.478 19.9348C108.827 19.6458 108.729 19.604 109.947 20.6026ZM131.667 34.3118C131.327 38.1274 130.155 44.4579 128.911 49.2089C128.223 51.7923 126.52 57.3686 126.176 58.1532L126.012 58.5191L125.162 58.1334C121.784 56.604 114.553 52.8542 110.853 50.7385L108.189 49.1928L110.624 44.7943C111.979 42.3827 114.691 37.5298 116.652 34.0095L120.239 27.6048L121.473 28.2285C122.148 28.5737 123.836 29.4458 125.231 30.1628C126.632 30.8683 128.579 31.7977 129.557 32.227C130.542 32.6447 131.44 33.0273 131.55 33.0757C131.694 33.1442 131.732 33.5044 131.667 34.3118ZM65.7811 6.99937C65.5639 8.25696 65.7402 10.1887 66.2376 12.0147L66.7028 13.6836L65.785 14.135C60.4616 16.7652 54.3308 20.9872 49.3616 25.4526C48.2576 26.4416 47.3138 27.2315 47.2564 27.1982C47.0727 27.0916 46.0722 24.4357 45.589 22.7717C45.0686 20.9324 44.7452 18.7769 44.8149 17.403L44.8449 16.498L46.149 15.6404C50.1984 12.9627 55.5258 10.1657 60.2973 8.22978C61.8373 7.60132 65.8142 6.14226 65.8831 6.18224C65.9061 6.19556 65.8602 6.56864 65.7811 6.99937ZM171.038 71.5302C171.928 77.2579 172.202 83.3361 171.839 89.4591L171.696 91.8666L169.842 92.3747C167.929 92.8791 165.162 93.272 162.953 93.3588C161.244 93.4281 159.457 93.4211 159.456 93.3435C159.439 93.3186 159.544 92.7641 159.683 92.1223C161.078 85.4295 161.55 78.5852 161.091 71.601C161.019 70.4212 160.987 69.4647 161.016 69.4665C161.052 69.4568 161.551 69.4691 162.126 69.4801C163.532 69.5117 165.14 69.4303 166.456 69.2715C167.659 69.1238 169.846 68.5942 170.236 68.3434C170.531 68.1763 170.503 68.0375 171.038 71.5302ZM67.7301 15.7863C68.9028 18.1424 71.9875 22.6072 73.1866 23.7181C73.3554 23.8775 73.4896 24.0169 73.4764 24.0399C73.4631 24.063 72.7702 24.6295 71.9157 25.3174C68.3539 28.1858 64.3691 31.9771 60.932 35.748C59.9096 36.8612 57.5933 39.5606 57.0281 40.278C56.8033 40.5627 56.5953 40.7648 56.5493 40.7382C56.3656 40.6316 54.523 38.4555 53.2143 36.7891C50.96 33.9438 47.5912 28.5609 47.6857 27.97C47.7294 27.734 51.6043 24.294 53.6035 22.7329C56.6057 20.3854 59.4896 18.4305 62.5965 16.6203C64.0914 15.7505 66.8746 14.2906 66.955 14.3372C67.0009 14.3639 67.3485 15.0114 67.7301 15.7863ZM160.45 71.7052C160.803 77.3527 160.561 82.7313 159.697 88.2869C159.445 89.9243 158.78 93.3204 158.708 93.3398C158.69 93.3447 157.991 93.3083 157.18 93.2531C153.759 93.0516 148.91 92.298 144.821 91.34C142.162 90.7192 137.435 89.4063 137.405 89.2971C137.391 89.2426 137.738 88.2912 138.174 87.1602C140.603 80.9597 142.383 74.7973 143.609 68.4522C143.878 67.0247 144.083 66.2676 144.188 66.2978C144.27 66.3147 145.17 66.5602 146.187 66.8427C150.663 68.0867 155.625 69.044 159.012 69.3032C159.657 69.3542 160.216 69.4478 160.248 69.4975C160.274 69.5587 160.364 70.5486 160.45 71.7052ZM77.447 28.1886C80.3461 30.9776 83.6776 33.7869 87.5382 36.6879C88.8579 37.6689 89.0889 37.8797 88.9568 38.003C88.8742 38.0934 87.9654 39.1957 86.9342 40.4576C83.6124 44.5874 79.9964 49.4691 76.5227 54.5562C75.6575 55.8222 74.9117 56.8807 74.8754 56.8904C74.7487 56.9245 70.2229 53.4223 67.7598 51.3935C64.8558 48.986 62.1511 46.525 59.9533 44.3274C57.3068 41.685 56.9959 41.3201 57.1677 41.1277C57.2503 41.0372 57.8831 40.2821 58.5738 39.453C62.979 34.1837 68.9683 28.3424 73.5091 24.8891L73.9265 24.5624L74.7957 25.528C75.2753 26.0522 76.4692 27.2522 77.447 28.1886ZM143.065 67.7988C142.483 71.1044 141.173 76.3705 140 80.0103C138.789 83.7969 136.848 88.9889 136.612 89.0521C136.402 89.099 131.878 87.5657 128.804 86.4128C124.964 84.9687 123.446 84.3336 117.599 81.7715C117.171 81.5844 117.035 81.4748 117.094 81.371C117.359 80.9098 120.257 74.7198 121.15 72.6858C122.891 68.7763 125.517 62.2596 126.18 60.1998C126.289 59.8485 126.414 59.5517 126.45 59.542C126.493 59.5207 127.542 59.9602 128.786 60.513C133.006 62.362 136.966 63.8909 140.735 65.1397C142.011 65.5572 143.116 65.9523 143.201 66.0172C143.304 66.0771 143.25 66.7838 143.065 67.7988ZM92.5012 40.2286C94.9312 41.9152 98.1933 43.9925 104.862 48.1079L107.2 49.5563L95.3359 70.207L90.7594 67.4594C88.2366 65.9341 84.8809 63.8333 83.2918 62.7883C80.0972 60.6735 75.5406 57.4915 75.5017 57.346C75.4028 57.0119 83.4676 45.8256 86.7183 41.7928C89.5592 38.2603 89.5791 38.2257 89.7284 38.3123C89.7743 38.339 91.0238 39.2023 92.5012 40.2286ZM125.709 59.5269C125.477 60.3301 123.448 65.5944 122.369 68.1659C120.25 73.2398 116.619 81.0796 116.354 81.1411C116.215 81.1685 110.701 78.5072 106.902 76.5645C105.664 75.9226 102.659 74.3025 100.244 72.9628L95.8526 70.5068L101.816 60.2072L107.767 49.901L108.25 50.0734C108.499 50.1721 109.725 50.8371 110.954 51.55C114.249 53.4622 124.139 58.5546 124.404 58.4931C124.44 58.4834 124.775 58.6469 125.142 58.8601C125.728 59.1999 125.784 59.2629 125.709 59.5269ZM44.1423 17.8275C44.1058 19.9433 44.9349 23.4837 46.1302 26.3603L46.749 27.8416L45.7518 28.8311C41.8673 32.6345 37.1857 38.3583 33.7115 43.5528C32.7735 44.9456 31.7644 46.4356 31.4734 46.8355L30.9426 47.5729L29.5976 45.5166C27.1105 41.6906 25.7187 38.6231 25.1617 35.7018L25.0278 35.0553L26.3399 33.4644C30.5255 28.3906 34.8049 24.1399 39.6235 20.3097C41.2633 19.0012 44.0124 17.0142 44.0928 17.0609C44.1273 17.0809 44.1538 17.4345 44.1423 17.8275ZM171.361 94.7936C170.495 101.686 168.9 108.139 166.436 114.72C165.377 117.549 165.241 117.839 165.157 117.667C165.107 117.592 164.662 117.595 164.168 117.708C162.568 118.041 159.786 118.194 157.089 118.09C155.087 118.005 150.462 117.473 150.423 117.328C150.413 117.292 150.929 116.207 151.569 114.933C154.858 108.356 157.38 101.701 158.859 95.6877C159.155 94.5065 159.298 94.0975 159.441 94.0883C159.548 94.0888 160.589 94.0625 161.76 94.05C164.649 94.0046 167.497 93.6583 169.681 93.0808C170.689 92.8198 171.531 92.6323 171.571 92.6704C171.592 92.7135 171.506 93.6628 171.361 94.7936ZM48.1394 30.4317C49.7653 33.3582 52.3045 36.907 54.8445 39.8413C55.545 40.6474 56.1342 41.3275 56.1342 41.3275C56.1391 41.3457 55.939 41.6139 55.6829 41.9265C52.6388 45.6795 48.4143 51.8069 44.9892 57.4756C43.9033 59.2592 42.9865 60.6951 42.9406 60.6685C42.7454 60.5552 39.1144 56.988 37.8945 55.7267C35.6464 53.3769 33.1015 50.4244 31.8489 48.7138L31.4368 48.1518L32.2145 46.958C36.8311 39.8283 41.9777 33.375 46.5454 28.9688L47.0802 28.4643L47.2662 28.8335C47.3722 29.0487 47.7688 29.7708 48.1394 30.4317ZM158.184 95.6646C156.513 102.09 154.266 108.027 151.083 114.421C150.524 115.526 149.966 116.632 149.833 116.863L149.595 117.278L146.69 116.684C140.963 115.513 136.022 114.092 129.253 111.67C127.763 111.145 126.519 110.699 126.507 110.692C126.496 110.686 127.874 108.18 129.582 105.128C132.884 99.2188 134.443 96.0798 136.8 90.5908L137.08 89.9695L138.762 90.4533C145.209 92.318 151.405 93.4994 156.75 93.8953C157.672 93.9691 158.476 94.0358 158.511 94.0557C158.557 94.0824 158.401 94.8068 158.184 95.6646ZM57.5586 42.8458C61.9744 47.4987 66.2838 51.2443 73.9308 57.0956L74.516 57.5427L74.2612 57.933C71.7051 61.7692 67.2493 68.9922 64.699 73.4314L62.9502 76.4754L62.0549 75.8483C56.1636 71.7383 49.812 66.777 45.2015 62.7028L43.5876 61.2745L45.5099 58.0084C48.247 53.324 51.6351 48.2794 54.7891 44.1752C55.2983 43.5021 55.9166 42.6924 56.1431 42.378C56.3745 42.0819 56.5794 41.8318 56.5909 41.8384C56.6024 41.8451 57.0445 42.3015 57.5586 42.8458ZM135.932 90.9021C135.406 92.1648 133.992 95.2649 132.845 97.6891C132.392 98.6103 130.649 101.857 128.948 104.898L125.864 110.427L124.128 109.743C119.188 107.814 112.377 104.8 107.894 102.583C107.311 102.291 106.594 101.967 106.333 101.862L105.852 101.66L107.1 99.6472C108.553 97.2774 114.341 86.8299 115.717 84.0616C116.231 83.007 116.673 82.1568 116.698 82.1404C116.728 82.1422 117.985 82.6719 119.49 83.33C122.743 84.7564 125.892 86.0452 128.885 87.1515C131.313 88.0684 135.563 89.5195 135.69 89.4854C135.726 89.4756 135.9 89.5459 136.072 89.6458C136.382 89.8257 136.38 89.8554 135.932 90.9021ZM78.9414 60.6332C83.1867 63.5575 86.1092 65.4531 90.702 68.2255L94.8766 70.7399L89.4514 80.1832C86.4706 85.3718 83.9901 89.6362 83.9406 89.669C83.695 89.8032 71.7168 82.3767 66.4331 78.8345C65.0967 77.936 63.8914 77.1291 63.7421 77.0425L63.478 76.8892L65.3857 73.5685C67.479 69.925 70.5958 64.846 73.3113 60.6257L75.0588 57.9038L75.5932 58.3061C75.8948 58.5273 77.4067 59.5736 78.9414 60.6332ZM113.81 86.2608C111.855 89.9843 105.498 101.209 105.317 101.257C105.028 101.335 95.1402 96.1057 87.8806 92.0319L84.5011 90.1325L90.0022 80.6104L95.5081 71.1064L99.5736 73.3576C104.863 76.3036 110.465 79.185 115.111 81.3581L116.019 81.7771L115.856 82.2206C115.776 82.4663 114.854 84.2837 113.81 86.2608ZM25.823 40.0673C26.623 41.8997 28.1282 44.5564 29.4506 46.4921L30.6423 48.2289L28.6882 51.6303C26.0054 56.3001 23.8897 60.6224 22.1851 64.9219C21.7714 65.9886 21.3978 66.8788 21.3616 66.8885C21.2644 66.9244 19.3157 63.7336 18.4866 62.1918C16.8776 59.1828 15.5591 55.4814 15.3589 53.3513C15.2878 52.6489 15.2113 52.4355 15.0011 52.375C14.6513 52.2643 14.7343 52.0665 16.4385 48.6738C18.2702 45.0322 21.7841 39.3688 24.0903 36.3408L24.4573 35.8619L24.8738 37.3488C25.1039 38.1742 25.5364 39.3936 25.823 40.0673ZM164.339 119.837C161.427 126.157 157.934 131.971 153.972 137.082C145.558 147.943 134.792 156.609 122.647 162.291C120.229 163.409 118.455 163.779 114.962 163.889C110.862 164.017 104.278 163.164 99.3242 161.873C98.9497 161.778 98.7916 161.84 101.388 161.026C107.495 159.111 114.305 155.837 119.951 152.087L121.75 150.901L123.851 151.214C129.32 152.035 135.293 151.98 138.802 151.095C140.002 150.792 140.02 150.787 139.878 150.474C139.73 150.173 139.671 150.169 138.693 150.432C135.947 151.16 130.875 151.354 126.609 150.892C124.797 150.687 122.564 150.39 122.561 150.342C122.563 150.312 123.397 149.659 124.43 148.875C128.605 145.685 133.124 141.39 136.66 137.261C137.342 136.473 137.971 135.777 138.064 135.723C138.145 135.662 138.998 135.696 139.948 135.802C145.135 136.367 150.276 136.213 153.8 135.383C154.998 135.11 155.041 135.089 154.96 134.75C154.879 134.411 154.867 134.404 153.872 134.672C151.676 135.242 148.904 135.51 145.497 135.47C143.378 135.455 138.772 135.104 138.733 134.958C138.723 134.922 139.203 134.247 139.819 133.467C142.794 129.674 144.72 126.856 147.607 122.043L150.021 118.002L151.363 118.196C155.973 118.888 161.432 118.98 164.025 118.41C164.513 118.308 164.932 118.244 164.973 118.252C165.008 118.272 164.722 118.983 164.339 119.837ZM32.242 50.2947C34.4734 53.1268 37.9228 56.85 41.0891 59.8402L42.6977 61.3577L42.3267 62.0034C41.5252 63.3986 38.8849 68.5542 37.8931 70.6537C36.5329 73.5542 35.6051 75.6755 34.5153 78.4254C34.0269 79.6486 33.5919 80.6723 33.5442 80.6753C33.2545 80.7532 27.3944 74.6166 25.0792 71.7974C24.0205 70.522 21.8925 67.75 21.8536 67.6044C21.8554 67.5747 22.2409 66.5839 22.716 65.3837C24.6047 60.6837 26.5729 56.6447 29.2689 51.9519C30.2493 50.2454 31.0738 48.8636 31.1082 48.8836C31.1312 48.8969 31.6515 49.537 32.242 50.2947ZM146.877 121.927C144.154 126.481 141.527 130.307 138.66 133.886C137.852 134.893 137.863 134.9 136.833 134.748C131.244 133.949 124.139 132.164 117.269 129.838C115.679 129.3 114.241 128.819 114.072 128.767C113.779 128.69 113.781 128.66 114.055 128.342C116.661 125.273 121.245 118.893 124.54 113.717C125.379 112.39 126.097 111.3 126.126 111.302C126.163 111.292 127.135 111.625 128.281 112.029C135.509 114.639 142.85 116.731 147.941 117.625C148.552 117.733 149.104 117.839 149.168 117.86C149.225 117.894 148.27 119.584 146.877 121.927ZM44.7227 63.163C49.4234 67.3202 55.9062 72.3729 61.7008 76.4115L62.6026 77.027L60.9692 80.0303C58.8335 83.9875 56.1914 89.1728 54.3703 93.0357C53.556 94.7463 52.8662 96.1601 52.8185 96.1632C52.6555 96.207 46.9537 92.007 43.7017 89.4591C40.5235 86.9694 34.2262 81.5937 34.1599 81.3093C34.1308 81.2002 35.0365 78.8508 36.0693 76.36C37.607 72.6708 39.5041 68.7289 41.9731 64.0582C42.9358 62.2492 43.1659 61.8753 43.2922 61.9486C43.384 62.0019 44.0165 62.5534 44.7227 63.163ZM124.889 111.937C124.55 112.447 123.843 113.544 123.319 114.377C120.881 118.22 117.661 122.732 114.65 126.535C113.899 127.468 113.263 128.282 113.23 128.34C113.064 128.628 102.393 124.204 96.5287 121.432C95.6966 121.042 94.7661 120.609 94.4476 120.471L93.8567 120.22L94.1062 119.919C94.9886 118.863 100.055 111.164 103.246 106.036C104.52 103.977 105.594 102.294 105.612 102.289C105.649 102.28 106.967 102.891 108.544 103.637C113.62 106.074 120.005 108.872 123.617 110.261C125.743 111.064 125.605 110.876 124.889 111.937ZM66.0905 79.4043C70.3459 82.2577 73.7458 84.4149 78.7176 87.4072L83.5582 90.308L78.2337 99.656L72.8978 108.997L68.3213 106.25C65.7985 104.724 62.7559 102.851 61.5669 102.069C57.872 99.6795 53.5199 96.7546 53.4858 96.6273C53.3851 96.3229 58.5196 85.973 61.4903 80.4557L63.1238 77.4524L63.3879 77.6057C63.5372 77.6923 64.754 78.5059 66.0905 79.4043ZM104.583 102.615C103.219 104.99 98.4945 112.334 95.8461 116.224C94.799 117.754 93.8611 119.147 93.7617 119.32C93.4371 119.884 93.3073 119.871 91.7827 119.14C88.8138 117.725 82.8709 114.584 78.2542 112.013L73.4719 109.33L84.1897 90.6745L87.9187 92.7919C93.5375 95.9906 98.5057 98.6426 104.735 101.765C104.983 101.893 104.968 101.946 104.583 102.615ZM14.7115 53.6521C14.7512 53.9826 14.9871 55.0111 15.2283 55.9505C16.0411 59.0664 17.8966 62.9256 20.3776 66.6558L21.0869 67.713L20.7875 68.554C18.6268 74.6336 16.8801 82.0448 16.2947 87.7009C16.2369 88.1747 16.1663 88.5642 16.13 88.5739C15.9061 88.6439 12.8223 83.9643 11.7274 81.8993C10.2963 79.1934 9.18583 76.0893 8.90483 74.0199C8.81735 73.2927 8.74889 73.1454 8.52365 73.1377C8.19153 73.1294 8.23568 72.7861 8.98763 69.4251C10.0813 64.5098 11.5275 59.8605 13.3809 55.3552C14.6231 52.3401 14.6014 52.4044 14.6165 52.7514C14.6306 52.9133 14.6717 53.3215 14.7115 53.6521ZM22.9693 70.2196C25.3853 73.3433 28.3154 76.6114 31.6106 79.8302L33.3173 81.4968L32.4217 84.175C30.6139 89.6137 29.2248 95.2032 28.4782 100.074C28.3634 100.807 28.2327 101.407 28.1965 101.417C28.0697 101.451 27.1687 100.621 24.8151 98.3482C22.355 95.9677 20.0481 93.5069 18.4462 91.5781C17.8261 90.8186 17.1993 90.0707 17.0668 89.9015C16.7559 89.5366 16.7934 88.8051 17.2186 85.7464C17.9483 80.5585 19.288 75.0018 21.0287 69.8931C21.378 68.912 21.597 68.4241 21.6576 68.5054C21.7066 68.5799 22.302 69.3558 22.9693 70.2196ZM137.214 135.63C137.055 135.907 134.397 138.854 133.043 140.251C129.873 143.531 126.894 146.184 123.275 148.912C121.354 150.364 121.796 150.314 118.33 149.578C112.652 148.375 107.259 146.783 100.783 144.409C99.8471 144.066 99.0755 143.757 99.0592 143.732C99.0494 143.695 100.023 142.8 101.233 141.734C104.976 138.417 108.413 134.939 111.673 131.157C112.578 130.114 113.33 129.259 113.359 129.261C113.378 129.256 114.869 129.752 116.668 130.35C123.37 132.624 130.876 134.535 136.028 135.295C137.2 135.468 137.293 135.491 137.214 135.63ZM36.3237 84.179C40.4935 87.8744 45.4467 91.7784 51.2409 95.9243C51.9524 96.4448 52.5443 96.8804 52.5491 96.8986C52.554 96.9168 52.2219 97.708 51.8152 98.6558C49.9795 102.864 47.6245 109.015 46.3258 112.981C45.9611 114.123 45.6383 115.058 45.6202 115.062C45.5592 115.089 41.0291 111.861 39.4144 110.647C36.1275 108.186 32.8561 105.566 29.9623 103.087L28.8382 102.112L29.1623 100.056C29.7968 96.0731 30.6657 92.2419 31.8213 88.2849C32.39 86.3089 33.6803 82.3839 33.8393 82.1072C33.8791 82.038 33.9957 82.0749 34.1299 82.2143C34.2479 82.3289 35.2341 83.224 36.3237 84.179ZM112.44 129.235C108.954 133.438 103.928 138.562 99.9163 142L98.2448 143.444L96.846 142.894C94.5132 141.97 90.9102 140.433 88.2267 139.215C85.8271 138.114 81.6093 136.128 81.5832 136.067C81.5784 136.049 82.3203 135.157 83.2274 134.085C86.165 130.624 89.2643 126.641 92.092 122.732C92.8476 121.71 93.4924 120.854 93.5467 120.84C93.5895 120.818 94.7926 121.363 96.209 122.015C99.3059 123.474 101.783 124.573 104.362 125.654C106.824 126.698 112.117 128.786 112.214 128.75C112.25 128.74 112.378 128.783 112.481 128.843C112.631 128.93 112.625 129.019 112.44 129.235ZM55.4632 98.8354C58.3327 100.823 63.581 104.16 67.9901 106.826L72.5665 109.574L68.6517 116.388C66.4989 120.135 64.3937 123.88 63.976 124.714L63.2036 126.218L60.0903 124.335C54.884 121.191 47.5529 116.522 46.5728 115.723C46.25 115.459 46.2451 115.44 46.6183 114.258C47.833 110.305 50.441 103.393 52.1884 99.4719C52.4839 98.7978 52.8142 98.0363 52.9188 97.7742L53.095 97.3076L53.6003 97.6007C53.8644 97.754 54.704 98.318 55.4632 98.8354ZM92.5729 120.936C89.4868 125.295 84.1331 132.135 81.6322 134.943L80.9384 135.724L80.0145 135.28C77.126 133.912 63.8396 126.71 63.7764 126.473C63.7618 126.419 65.8555 122.668 68.4407 118.141L73.1177 109.894L77.9641 112.598C83.0975 115.469 89.6296 118.89 92.7398 120.325C92.9072 120.407 92.8771 120.513 92.5729 120.936ZM8.85109 76.7252C9.82554 80.1194 12.5446 85.1407 15.3859 88.8032L16.0974 89.7234L15.9571 91.8865C15.529 98.8945 16.1389 106.228 17.7013 113.023C17.9633 114.112 18.1537 115.007 18.1192 114.987C18.0963 114.974 17.4726 114.274 16.7443 113.436C11.8881 107.897 8.5799 102.196 7.80901 98.0742C7.69636 97.4708 7.53821 96.7333 7.45561 96.424C6.99047 94.7551 6.81611 87.8896 7.11397 82.9737C7.29841 79.6678 7.92085 74.1869 8.14607 73.7949C8.17919 73.7372 8.25517 74.058 8.32895 74.5159C8.39787 74.9556 8.63553 75.9545 8.85109 76.7252ZM119.425 151.643C113.613 155.497 107.173 158.525 100.075 160.725C98.205 161.316 97.6159 161.435 97.2184 161.327C93.0611 160.222 87.1186 158.173 82.6076 156.324C81.8311 155.997 80.9955 155.666 80.7804 155.587C80.5539 155.502 80.3882 155.39 80.4081 155.356C80.428 155.321 81.181 154.943 82.0855 154.515C86.8088 152.29 91.2825 149.566 95.871 146.11C96.9778 145.276 97.9741 144.501 98.0995 144.39C98.2876 144.222 98.4996 144.253 99.6603 144.711C101.844 145.547 107.166 147.344 109.513 148.029C112.296 148.86 116.733 149.959 118.935 150.391C119.886 150.574 120.667 150.734 120.683 150.759C120.699 150.784 120.135 151.179 119.425 151.643ZM18.8791 93.09C21.2884 95.8254 25.1482 99.7406 27.5583 101.862L28.1285 102.362L27.9405 104.128C27.2359 110.391 27.4002 118.527 28.3133 123.654L28.4839 124.583L27.9101 124.142C26.8528 123.344 22.7815 119.691 20.9848 117.941L19.2225 116.211L18.9032 115.088C17.5497 110.275 16.6201 103.525 16.5055 97.7546C16.4594 95.7293 16.6045 90.7863 16.7105 90.6018C16.7303 90.5672 16.8991 90.7266 17.0806 90.9703C17.2506 91.2073 18.0673 92.1577 18.8791 93.09ZM34.9933 108.082C37.6994 110.221 40.2814 112.149 43.4622 114.395C44.505 115.138 45.3804 115.8 45.4131 115.849C45.4391 115.911 45.4188 116.053 45.3592 116.156C45.134 116.548 43.6239 122.375 43.0808 124.919C42.5107 127.617 41.9628 130.943 41.7425 132.952C41.6741 133.604 41.5995 134.161 41.5796 134.195C41.5399 134.264 41.3005 134.095 37.6113 131.508C34.937 129.634 33.4173 128.521 30.834 126.515L29.3014 125.318L29.1318 124.574C28.6379 122.289 28.158 116.569 28.1436 112.809C28.1347 110.16 28.5605 103.289 28.7526 102.954C28.7592 102.943 29.5851 103.637 30.5913 104.498C31.5925 105.34 33.569 106.963 34.9933 108.082ZM97.5059 143.984C97.3602 144.237 93.2998 147.201 91.191 148.606C87.7105 150.907 83.1356 153.433 80.2681 154.613C79.2815 155.025 79.5623 155.096 76.5834 153.752C72.5983 151.947 67.79 149.603 67.8628 149.476C67.8827 149.441 68.4025 148.989 69.0261 148.49C72.4363 145.672 76.2714 141.902 80.8665 136.835C81.1076 136.575 81.1831 136.604 83.735 137.838C87.4472 139.639 93.2346 142.197 96.3178 143.387C96.9105 143.607 97.4211 143.811 97.4851 143.833C97.5311 143.86 97.539 143.926 97.5059 143.984ZM49.6853 118.62C51.4696 119.779 55.1336 122.089 57.8335 123.732C60.5382 125.394 62.7607 126.776 62.7655 126.794C62.7589 126.805 60.8984 130.23 58.5959 134.398C56.3114 138.561 54.4426 142.027 54.439 142.087C54.4413 142.349 44.7062 136.455 42.7995 135.057L42.2355 134.653L42.3233 133.673C42.7131 129.61 43.9264 123.581 45.3947 118.36C45.9819 116.272 46.0385 116.12 46.2858 116.356C46.3759 116.439 47.9124 117.469 49.6853 118.62ZM79.6847 137.133C76.4749 140.775 71.3441 145.761 68.2179 148.298L67.101 149.203L65.4766 148.353C64.5888 147.899 61.839 146.396 59.3781 145.029L54.9059 142.527L56.7845 139.097C57.8116 137.202 59.7101 133.738 60.9956 131.394L63.3578 127.122L66.2568 128.712C70.7949 131.207 77.1102 134.579 78.4837 135.253C79.1762 135.593 79.9032 135.953 80.0984 136.067L80.4677 136.25L79.6847 137.133ZM117.376 164.537C112.488 166.543 100.895 169.533 99.9923 169.025C99.866 168.952 99.4465 169.016 99.0397 169.164C98.1472 169.492 96.1368 169.74 92.6072 169.967C88.9888 170.189 87.8016 170.177 85.5452 169.867C81.573 169.345 76.8601 168.194 72.3773 166.669C70.2115 165.935 66.1924 164.403 65.756 164.15C65.6412 164.083 66.358 164.115 67.3376 164.222C69.9279 164.51 74.0131 164.728 76.5552 164.727C83.3085 164.725 89.1254 164.088 95.4223 162.668L97.71 162.151L99.0438 162.494C101.022 162.996 104.791 163.738 106.888 164.032C109.643 164.432 113.817 164.655 115.791 164.524C116.763 164.458 117.574 164.406 117.597 164.419C117.627 164.421 117.516 164.48 117.376 164.537ZM8.50217 102.304C9.97436 105.818 13.0997 110.399 16.9497 114.677L18.5654 116.476L19.1007 118.262C21.6442 126.841 26.2179 135.936 32.0194 143.96C32.3873 144.466 32.6306 144.868 32.56 144.858C32.1788 144.775 27.2582 140.521 25.0357 138.34C23.1834 136.527 20.3646 133.385 19.521 132.189C18.2017 130.301 15.7897 125.811 14.2172 122.285C13.4628 120.587 13.1178 119.295 13.0753 118.01C13.07 117.7 13.0219 117.41 12.9874 117.39C12.7626 117.275 12.4645 117.394 12.4341 117.607C12.3329 118.21 10.5855 112.83 9.53683 108.685C8.81018 105.819 7.86703 101.198 8.02779 101.291C8.06224 101.311 8.27249 101.771 8.50217 102.304ZM95.0186 162.065C89.026 163.461 81.9097 164.175 75.1883 164.042C71.5694 163.971 65.1523 163.415 63.2991 163.016C62.8243 162.91 59.2496 161.297 58.3998 160.804C57.952 160.544 57.9701 160.539 59.6624 160.445C61.6772 160.323 64.0758 160.039 66.2182 159.667C68.6124 159.258 74.779 157.532 77.0534 156.638C78.1849 156.187 79.2108 155.814 79.3424 155.798C79.4626 155.776 79.929 155.923 80.3918 156.13C83.1623 157.384 91.1797 160.299 94.4859 161.233C96.291 161.742 96.3073 161.767 95.0186 162.065ZM21.3823 119.248C23.0514 120.847 25.8958 123.358 27.4871 124.666L28.6146 125.581L28.8563 126.813C30.281 133.927 33.247 141.69 36.7686 147.5L37.314 148.416L36.6074 147.914C34.6234 146.517 33.5387 145.18 30.2097 140.128C26.6308 134.684 23.906 129.46 21.7465 123.918C21.0663 122.17 19.9417 118.904 19.6841 117.94C19.5772 117.539 19.579 117.51 19.7526 117.687C19.859 117.795 20.5896 118.496 21.3823 119.248ZM32.1338 128.33C34.5877 130.215 36.8667 131.845 39.8969 133.926C40.7759 134.528 41.4825 135.03 41.4874 135.049C41.4807 135.06 41.4318 136.185 41.3687 137.547C41.1393 142.61 41.3864 146.151 42.3043 150.497C42.6445 152.17 42.8697 152.178 40.3231 150.454L38.6324 149.319L37.5251 147.462C34.159 141.835 31.6126 135.607 30.0701 129.177C29.4976 126.816 29.4092 126.303 29.5815 126.403C29.6274 126.43 30.77 127.293 32.1338 128.33ZM78.033 155.546C75.8601 156.53 69.4956 158.387 66.3131 158.969C64.0555 159.381 60.8624 159.742 58.5994 159.844C56.5634 159.923 56.3169 159.872 54.3122 158.724L53.2377 158.116L54.0265 157.836C57.0711 156.774 61.7882 154.053 65.6609 151.15L67.1964 149.996L68.6208 150.715C70.3225 151.564 75.6268 154.057 76.738 154.548C77.1845 154.731 77.7392 154.991 77.987 155.119L78.43 155.361L78.033 155.546ZM46.5307 138.236C48.6383 139.551 51.1823 141.12 52.1862 141.717L54.0102 142.807L53.5033 143.742C52.4394 145.754 48.6341 153.124 48.1731 154.086L47.6856 155.095L45.5484 153.778L43.4178 152.449L43.0476 150.882C42.4014 148.062 41.971 144.307 41.9479 141.096C41.9368 139.383 42.0585 136.133 42.1605 135.716C42.2307 135.434 42.2554 135.417 42.4634 135.615C42.5929 135.736 44.4231 136.921 46.5307 138.236ZM65.6312 150.349C64.1301 151.522 59.7562 154.365 58.1924 155.195C56.3715 156.153 54.1872 157.13 53.1153 157.476L52.2987 157.725L48.2796 155.393L48.8153 154.274C49.7091 152.425 53.2706 145.56 53.9993 144.291L54.6749 143.115L57.5294 144.756C59.0977 145.651 61.329 146.884 62.4857 147.509C63.649 148.122 65.0305 148.862 65.5539 149.151L66.5088 149.674L65.6312 150.349ZM81.1862 169.859C80.6858 169.983 74.6776 169.142 71.62 168.521C64.9233 167.172 57.9561 164.774 52.1077 161.842C51.4563 161.51 50.6767 161.135 50.3698 161.003C49.4834 160.627 49.9321 160.672 51.3971 161.107C54.2744 161.962 58.8742 163.016 61.6169 163.439C62.4468 163.567 63.2104 163.81 64.6992 164.444C70.0291 166.706 75.9636 168.689 79.7949 169.482C81.4905 169.835 81.3853 169.805 81.1862 169.859ZM24.0853 138.342C26.265 140.545 29.3372 143.219 32.5958 145.755C34.2021 147.01 34.5625 147.342 35.7537 148.787C37.3 150.652 39.5623 153.164 41.298 154.94C42.6473 156.322 42.4716 156.282 40.3551 154.716C34.2778 150.236 29.4804 145.608 24.7214 139.634C23.4944 138.092 22.4675 136.681 23.0209 137.263C23.1044 137.358 23.5858 137.852 24.0853 138.342ZM38.7928 150.719C39.0984 151.173 39.5759 151.835 39.8458 152.191C40.8272 153.468 40.1686 152.855 38.4483 150.919C37.4908 149.841 36.6971 148.904 36.6825 148.849C36.6613 148.806 37.0173 149.012 37.4501 149.325C38.0322 149.724 38.3957 150.104 38.7928 150.719ZM58.0806 162.079C55.9858 161.648 51.5967 160.546 51.3325 160.393C51.2522 160.346 52.3898 160.392 53.8398 160.48L56.48 160.628L57.8027 161.257C60.5238 162.544 60.5383 162.598 58.0806 162.079ZM42.9921 153.217C43.0637 153.412 43.3322 154.091 43.5844 154.745C43.8252 155.392 44.1101 156.095 44.1931 156.297L44.361 156.671L44.1202 156.424C43.5651 155.871 41.5607 153.417 40.6712 152.193L39.7212 150.889L41.2891 151.891C42.5142 152.663 42.8945 152.961 42.9921 153.217ZM45.7781 154.711L47.4202 155.663L46.7984 156.932C46.4535 157.639 46.1338 158.222 46.0861 158.225C45.9412 158.264 44.8693 156.213 44.3158 154.831C43.803 153.565 43.7155 153.237 44.0035 153.589C44.087 153.683 44.8824 154.191 45.7781 154.711ZM53.5827 159.808C52.8544 159.77 51.832 159.684 51.3126 159.628C50.1869 159.482 48.8032 159.279 48.9167 159.268C48.9644 159.265 49.7659 159.069 50.7239 158.841L52.4357 158.42L53.6807 159.157L54.9209 159.877L53.5827 159.808ZM50.1736 158.306C48.9754 158.58 47.0079 158.806 46.8012 158.686C46.7208 158.64 47.3664 157.169 47.8102 156.397L48.0288 156.016L51.4737 158.015L50.1736 158.306Z" fill="#2C924F" stroke="#2C924F" stroke-width="6" mask="url(#path-4-inside-1_103_2)"></path><g filter="url(#filter1_d_103_2)"><path d="M6.46615 86.2728C2.75817 159.13 76.4741 169.398 76.4741 169.398C76.4741 169.398 58.4949 125.628 57.6943 85.1591C56.8937 44.6898 75.7854 3.14476 75.7854 3.14476C75.7854 3.14476 10.1741 13.4152 6.46615 86.2728Z" stroke="#2C924F" stroke-width="2" shape-rendering="crispEdges"></path><path d="M118.374 82.0287C136.926 56.955 159.805 40.2264 159.805 40.2264C159.805 40.2264 149.546 23.4391 133.111 13.0701C116.677 2.70113 94.8557 1.70819 94.8557 1.70819C94.8557 1.70819 77.9967 46.9329 74.7062 85.8619C71.4158 124.791 78.4954 169.694 78.4954 169.694C78.4954 169.694 99.7059 173.709 124.474 163.077C149.242 152.445 162.913 122.873 162.913 122.873L99.4053 141.031C99.4053 141.031 99.8229 107.102 118.374 82.0287Z" stroke="#2C924F" stroke-width="2" shape-rendering="crispEdges"></path><path d="M172.879 85.3165C172.853 73.3312 166.955 55.2092 166.955 55.2092C166.955 55.2092 143.19 75.3993 130.718 90.8575C118.164 106.416 103.355 134.155 103.355 134.155C103.355 134.155 122.928 122.879 136.738 119.354C148.211 116.425 166.864 115.997 166.864 115.997C166.864 115.997 172.906 97.5283 172.879 85.3165Z" stroke="#2C924F" stroke-width="2" shape-rendering="crispEdges"></path></g><path d="M173.008 59.3669L185.181 30.8581H190.128L202.34 59.3669H197.085L186.611 33.6682H188.621L178.186 59.3669H173.008ZM178.612 52.7691L179.964 48.615H194.572L195.925 52.7691H178.612Z" fill="white"></path><path d="M206.528 59.3669V30.8581H224.885L224.846 35.338H210.276L211.436 34.0755L211.474 59.3669H206.528Z" fill="white"></path><path d="M229.095 59.3669V30.8581H240.226C242.622 30.8581 244.67 31.2653 246.37 32.0799C248.097 32.8944 249.423 34.0619 250.351 35.5824C251.278 37.1029 251.742 38.9084 251.742 40.9991C251.742 43.0897 251.278 44.8953 250.351 46.4157C249.423 47.9362 248.097 49.1037 246.37 49.9183C244.67 50.7328 242.622 51.1401 240.226 51.1401H231.878L234.12 48.6557V59.3669H229.095ZM234.12 49.2259L231.878 46.6601H239.994C242.209 46.6601 243.871 46.1714 244.979 45.1939C246.113 44.1893 246.68 42.7911 246.68 40.9991C246.68 39.1799 246.113 37.7816 244.979 36.8042C243.871 35.8268 242.209 35.338 239.994 35.338H231.878L234.12 32.7315V49.2259Z" fill="white"></path><path d="M269.433 59.7742C267.32 59.7742 265.375 59.4076 263.597 58.6745C261.819 57.9415 260.273 56.9233 258.959 55.62C257.645 54.2896 256.628 52.742 255.906 50.9772C255.185 49.1852 254.824 47.2303 254.824 45.1125C254.824 42.9947 255.185 41.0534 255.906 39.2885C256.628 37.4966 257.645 35.9489 258.959 34.6457C260.273 33.3153 261.819 32.2835 263.597 31.5504C265.375 30.8173 267.307 30.4508 269.394 30.4508C271.507 30.4508 273.439 30.8173 275.191 31.5504C276.969 32.2835 278.515 33.3153 279.829 34.6457C281.142 35.9489 282.16 37.4966 282.882 39.2885C283.603 41.0534 283.964 42.9947 283.964 45.1125C283.964 47.2303 283.603 49.1852 282.882 50.9772C282.16 52.7691 281.142 54.3168 279.829 55.62C278.515 56.9233 276.969 57.9415 275.191 58.6745C273.439 59.4076 271.52 59.7742 269.433 59.7742ZM269.394 55.1313C270.759 55.1313 272.022 54.8869 273.181 54.3982C274.341 53.9095 275.346 53.2171 276.196 52.3211C277.046 51.398 277.703 50.3391 278.167 49.1445C278.656 47.9226 278.901 46.5787 278.901 45.1125C278.901 43.6463 278.656 42.3159 278.167 41.1213C277.703 39.8994 277.046 38.8405 276.196 37.9446C275.346 37.0214 274.341 36.3155 273.181 35.8268C272.022 35.338 270.759 35.0937 269.394 35.0937C268.028 35.0937 266.766 35.338 265.607 35.8268C264.473 36.3155 263.468 37.0214 262.592 37.9446C261.742 38.8405 261.072 39.8994 260.583 41.1213C260.119 42.3159 259.887 43.6463 259.887 45.1125C259.887 46.5515 260.119 47.8819 260.583 49.1037C261.072 50.3255 261.742 51.398 262.592 52.3211C263.442 53.2171 264.447 53.9095 265.607 54.3982C266.766 54.8869 268.028 55.1313 269.394 55.1313Z" fill="white"></path><path d="M301.962 59.7742C299.901 59.7742 297.982 59.4212 296.204 58.7153C294.452 57.9822 292.919 56.964 291.605 55.6608C290.317 54.3303 289.312 52.7691 288.591 50.9772C287.869 49.1852 287.509 47.2303 287.509 45.1125C287.509 42.9947 287.869 41.0398 288.591 39.2478C289.312 37.4558 290.33 35.9082 291.644 34.6049C292.958 33.2745 294.491 32.2564 296.243 31.5504C297.995 30.8173 299.914 30.4508 302.001 30.4508C304.217 30.4508 306.239 30.8581 308.068 31.6726C309.898 32.46 311.444 33.6411 312.706 35.2159L309.46 38.4333C308.481 37.3201 307.386 36.492 306.175 35.9489C304.964 35.3788 303.65 35.0937 302.233 35.0937C300.816 35.0937 299.515 35.338 298.33 35.8268C297.17 36.3155 296.152 37.0078 295.276 37.9038C294.426 38.7998 293.756 39.8587 293.267 41.0805C292.803 42.3023 292.571 43.6463 292.571 45.1125C292.571 46.5787 292.803 47.9226 293.267 49.1445C293.756 50.3663 294.426 51.4252 295.276 52.3211C296.152 53.2171 297.17 53.9095 298.33 54.3982C299.515 54.8869 300.816 55.1313 302.233 55.1313C303.65 55.1313 304.964 54.8598 306.175 54.3168C307.386 53.7466 308.481 52.8913 309.46 51.751L312.706 55.0091C311.444 56.5567 309.898 57.7378 308.068 58.5524C306.239 59.3669 304.204 59.7742 301.962 59.7742Z" fill="white"></path><path d="M322.008 42.7096H335.457V47.0674H322.008V42.7096ZM322.395 54.9277H337.66V59.3669H317.371V30.8581H337.119V35.2973H322.395V54.9277Z" fill="white"></path><path d="M343.299 59.3669V30.8581H347.396L359.26 51.6695H357.058L368.729 30.8581H372.825L372.903 59.3669H368.11L368.072 38.7184H369.077L359.183 56.1087H356.942L346.894 38.7184H348.053V59.3669H343.299Z" fill="white"></path><path d="M392.917 59.7742C390.856 59.7742 388.937 59.4212 387.159 58.7153C385.407 57.9822 383.874 56.964 382.56 55.6608C381.272 54.3303 380.267 52.7691 379.546 50.9772C378.824 49.1852 378.463 47.2303 378.463 45.1125C378.463 42.9947 378.824 41.0398 379.546 39.2478C380.267 37.4558 381.285 35.9082 382.599 34.6049C383.913 33.2745 385.446 32.2564 387.198 31.5504C388.949 30.8173 390.869 30.4508 392.956 30.4508C395.172 30.4508 397.194 30.8581 399.023 31.6726C400.853 32.46 402.398 33.6411 403.661 35.2159L400.415 38.4333C399.436 37.3201 398.341 36.492 397.13 35.9489C395.919 35.3788 394.605 35.0937 393.188 35.0937C391.771 35.0937 390.47 35.338 389.284 35.8268C388.125 36.3155 387.107 37.0078 386.231 37.9038C385.381 38.7998 384.711 39.8587 384.222 41.0805C383.758 42.3023 383.526 43.6463 383.526 45.1125C383.526 46.5787 383.758 47.9226 384.222 49.1445C384.711 50.3663 385.381 51.4252 386.231 52.3211C387.107 53.2171 388.125 53.9095 389.284 54.3982C390.47 54.8869 391.771 55.1313 393.188 55.1313C394.605 55.1313 395.919 54.8598 397.13 54.3168C398.341 53.7466 399.436 52.8913 400.415 51.751L403.661 55.0091C402.398 56.5567 400.853 57.7378 399.023 58.5524C397.194 59.3669 395.159 59.7742 392.917 59.7742Z" fill="white"></path><path d="M412.963 42.7096H426.412V47.0674H412.963V42.7096ZM413.35 54.9277H428.615V59.3669H408.326V30.8581H428.074V35.2973H413.35V54.9277Z" fill="white"></path><path d="M434.216 59.3669V30.8581H445.346C447.742 30.8581 449.79 31.2653 451.491 32.0799C453.217 32.8944 454.544 34.0619 455.471 35.5824C456.399 37.1029 456.862 38.9084 456.862 40.9991C456.862 43.0897 456.399 44.8953 455.471 46.4157C454.544 47.9362 453.217 49.1037 451.491 49.9183C449.79 50.7328 447.742 51.1401 445.346 51.1401H436.998L439.24 48.6557V59.3669H434.216ZM439.24 49.2259L436.998 46.6601H445.114C447.33 46.6601 448.991 46.1714 450.099 45.1939C451.233 44.1893 451.8 42.7911 451.8 40.9991C451.8 39.1799 451.233 37.7816 450.099 36.8042C448.991 35.8268 447.33 35.338 445.114 35.338H436.998L439.24 32.7315V49.2259Z" fill="white"></path><path d="M461.654 59.3669V30.8581H473.75C476.79 30.8581 479.161 31.4961 480.861 32.7722C482.562 34.0212 483.412 35.8268 483.412 38.1889C483.412 40.5239 482.6 42.3295 480.977 43.6056C479.354 44.8546 477.216 45.479 474.562 45.479L475.257 44.0129C478.272 44.0129 480.604 44.6509 482.253 45.927C483.901 47.2031 484.726 49.0494 484.726 51.4659C484.726 53.9366 483.863 55.878 482.137 57.2898C480.41 58.6745 477.86 59.3669 474.485 59.3669H461.654ZM466.601 55.2942H474.33C476.082 55.2942 477.409 54.9548 478.311 54.276C479.212 53.5701 479.663 52.4976 479.663 51.0586C479.663 49.6196 479.212 48.5743 478.311 47.9226C477.409 47.2439 476.082 46.9045 474.33 46.9045H466.601V55.2942ZM466.601 43.0354H473.325C474.948 43.0354 476.185 42.696 477.035 42.0172C477.885 41.3113 478.311 40.3067 478.311 39.0035C478.311 37.6459 477.885 36.6277 477.035 35.9489C476.185 35.2702 474.948 34.9308 473.325 34.9308H466.601V43.0354Z" fill="white"></path><path d="M490.488 59.3669V30.8581H495.435V51.0993L509.966 30.8581H514.642V59.3669H509.695V39.1664L495.164 59.3669H490.488Z" fill="white"></path><path d="M534.671 59.7742C532.61 59.7742 530.69 59.4212 528.913 58.7153C527.161 57.9822 525.628 56.964 524.314 55.6608C523.025 54.3303 522.021 52.7691 521.299 50.9772C520.578 49.1852 520.217 47.2303 520.217 45.1125C520.217 42.9947 520.578 41.0398 521.299 39.2478C522.021 37.4558 523.038 35.9082 524.352 34.6049C525.666 33.2745 527.199 32.2564 528.951 31.5504C530.703 30.8173 532.623 30.4508 534.71 30.4508C536.925 30.4508 538.948 30.8581 540.777 31.6726C542.606 32.46 544.152 33.6411 545.415 35.2159L542.168 38.4333C541.189 37.3201 540.094 36.492 538.883 35.9489C537.672 35.3788 536.358 35.0937 534.941 35.0937C533.524 35.0937 532.223 35.338 531.038 35.8268C529.879 36.3155 528.861 37.0078 527.985 37.9038C527.135 38.7998 526.465 39.8587 525.975 41.0805C525.512 42.3023 525.28 43.6463 525.28 45.1125C525.28 46.5787 525.512 47.9226 525.975 49.1445C526.465 50.3663 527.135 51.4252 527.985 52.3211C528.861 53.2171 529.879 53.9095 531.038 54.3982C532.223 54.8869 533.524 55.1313 534.941 55.1313C536.358 55.1313 537.672 54.8598 538.883 54.3168C540.094 53.7466 541.189 52.8913 542.168 51.751L545.415 55.0091C544.152 56.5567 542.606 57.7378 540.777 58.5524C538.948 59.3669 536.912 59.7742 534.671 59.7742Z" fill="white"></path><defs><filter id="filter0_i_103_2" x="104.417" y="92.7283" width="442.528" height="81.6419" filterUnits="userSpaceOnUse" color-interpolation-filters="sRGB"><feFlood flood-opacity="0" result="BackgroundImageFix"></feFlood><feBlend mode="normal" in="SourceGraphic" in2="BackgroundImageFix" result="shape"></feBlend><feColorMatrix in="SourceAlpha" type="matrix" values="0 0 0 0 0 0 0 0 0 0 0 0 0 0 0 0 0 0 127 0" result="hardAlpha"></feColorMatrix><feOffset dy="1"></feOffset><feGaussianBlur stdDeviation="0.5"></feGaussianBlur><feComposite in2="hardAlpha" operator="arithmetic" k2="-1" k3="1"></feComposite><feColorMatrix type="matrix" values="0 0 0 0 0 0 0 0 0 0 0 0 0 0 0 0 0 0 0.25 0"></feColorMatrix><feBlend mode="normal" in2="shape" result="effect1_innerShadow_103_2"></feBlend></filter><filter id="filter1_d_103_2" x="2.33075" y="0.676086" width="174.548" height="176.762" filterUnits="userSpaceOnUse" color-interpolation-filters="sRGB"><feFlood flood-opacity="0" result="BackgroundImageFix"></feFlood><feColorMatrix in="SourceAlpha" type="matrix" values="0 0 0 0 0 0 0 0 0 0 0 0 0 0 0 0 0 0 127 0" result="hardAlpha"></feColorMatrix><feOffset dy="3"></feOffset><feGaussianBlur stdDeviation="1.5"></feGaussianBlur><feComposite in2="hardAlpha" operator="out"></feComposite><feColorMatrix type="matrix" values="0 0 0 0 0 0 0 0 0 0 0 0 0 0 0 0 0 0 0.5 0"></feColorMatrix><feBlend mode="normal" in2="BackgroundImageFix" result="effect1_dropShadow_103_2"></feBlend><feBlend mode="normal" in="SourceGraphic" in2="effect1_dropShadow_103_2" result="shape"></feBlend></filter><linearGradient id="paint0_linear_103_2" x1="325.681" y1="173.37" x2="325.681" y2="-10.602" gradientUnits="userSpaceOnUse"><stop stop-color="white"></stop><stop offset="1" stop-color="white" stop-opacity="0"></stop></linearGradient><linearGradient id="paint1_linear_103_2" x1="325.681" y1="173.37" x2="325.681" y2="-10.602" gradientUnits="userSpaceOnUse"><stop stop-color="white"></stop><stop offset="1" stop-color="white" stop-opacity="0"></stop></linearGradient><linearGradient id="paint2_linear_103_2" x1="325.681" y1="173.37" x2="325.681" y2="-10.602" gradientUnits="userSpaceOnUse"><stop stop-color="white"></stop><stop offset="1" stop-color="white" stop-opacity="0"></stop></linearGradient><linearGradient id="paint3_linear_103_2" x1="325.681" y1="173.37" x2="325.681" y2="-10.602" gradientUnits="userSpaceOnUse"><stop stop-color="white"></stop><stop offset="1" stop-color="white" stop-opacity="0"></stop></linearGradient></defs></svg> 