<svg width="616" height="442" viewBox="0 0 616 442" fill="none" xmlns="http://www.w3.org/2000/svg">
<mask id="mask0_4_4926" style="mask-type:luminance" maskUnits="userSpaceOnUse" x="179" y="24" width="258" height="310">
<path d="M424.713 102.349C428.599 100.016 432.136 96.7453 434.776 93.3493C435.115 97.0826 435.464 101.036 435.792 105.197C432.839 108.855 429.26 113.511 426.579 117.677C426.093 112.683 425.473 107.573 424.713 102.349ZM423.547 86.7599C420.995 90.7346 417.24 96.0786 413.303 99.9213C360.203 113.197 311.792 83.4013 308 80.9946C304.203 83.4066 255.792 113.197 202.693 99.912C198.755 96.0733 195 90.7293 192.448 86.7546C209.063 92.7399 226.432 93.3853 242.516 91.4213C235.036 89.5573 227.276 85.86 219.437 79.844C260.645 99.7293 293.823 70.724 296.339 50.0733C298.86 29.4266 272.031 25.7653 272.031 25.7653C272.031 25.7653 304.828 18.7706 308 41C311.172 18.7706 343.969 25.7653 343.969 25.7653C343.969 25.7653 317.14 29.4266 319.661 50.0733C322.177 70.724 355.355 99.7293 396.563 79.844C388.719 85.86 380.959 89.5573 373.473 91.4213C389.557 93.3906 406.932 92.7453 423.547 86.7599ZM308 48.1933C306.719 57.8853 300.459 69.14 290.901 77.9373C299.943 74.0733 306.047 70.688 307.749 69.7133V69.4266C307.749 69.4266 307.839 69.4786 308 69.568C308.156 69.4786 308.251 69.4266 308.251 69.4266V69.7133C309.959 70.6933 316.063 74.0733 325.104 77.9373C315.541 69.14 309.281 57.8853 308 48.1933ZM180.208 105.197C180.536 101.036 180.885 97.0826 181.224 93.3493C183.864 96.7453 187.401 100.016 191.287 102.349C190.527 107.573 189.907 112.683 189.421 117.672C186.74 113.511 183.161 108.855 180.208 105.197ZM308 322.885C313.844 321.177 421.495 287.907 427.661 156.932C430.432 158.088 433.579 158.953 436.703 158.86C432.917 220.661 408.412 294.917 308.251 333.683C308.251 333.745 308.251 333.807 308.251 333.875C308.167 333.844 308.083 333.807 308 333.776C307.917 333.807 307.833 333.844 307.749 333.875C307.749 333.807 307.749 333.745 307.749 333.677C207.588 294.917 183.079 220.661 179.297 158.86C182.416 158.953 185.568 158.088 188.333 156.932C194.505 287.932 302.197 321.193 308 322.885Z" fill="white"/>
</mask>
<g mask="url(#mask0_4_4926)">
<path d="M424.713 102.349C428.599 100.016 432.136 96.7453 434.776 93.3493C435.115 97.0826 435.464 101.036 435.792 105.197C432.839 108.855 429.26 113.511 426.579 117.677C426.093 112.683 425.473 107.573 424.713 102.349ZM423.547 86.7599C420.995 90.7346 417.24 96.0786 413.303 99.9213C360.203 113.197 311.792 83.4013 308 80.9946C304.203 83.4066 255.792 113.197 202.693 99.912C198.755 96.0733 195 90.7293 192.448 86.7546C209.063 92.7399 226.432 93.3853 242.516 91.4213C235.036 89.5573 227.276 85.86 219.437 79.844C260.645 99.7293 293.823 70.724 296.339 50.0733C298.86 29.4266 272.031 25.7653 272.031 25.7653C272.031 25.7653 304.828 18.7706 308 41C311.172 18.7706 343.969 25.7653 343.969 25.7653C343.969 25.7653 317.14 29.4266 319.661 50.0733C322.177 70.724 355.355 99.7293 396.563 79.844C388.719 85.86 380.959 89.5573 373.473 91.4213C389.557 93.3906 406.932 92.7453 423.547 86.7599ZM308 48.1933C306.719 57.8853 300.459 69.14 290.901 77.9373C299.943 74.0733 306.047 70.688 307.749 69.7133V69.4266C307.749 69.4266 307.839 69.4786 308 69.568C308.156 69.4786 308.251 69.4266 308.251 69.4266V69.7133C309.959 70.6933 316.063 74.0733 325.104 77.9373C315.541 69.14 309.281 57.8853 308 48.1933ZM180.208 105.197C180.536 101.036 180.885 97.0826 181.224 93.3493C183.864 96.7453 187.401 100.016 191.287 102.349C190.527 107.573 189.907 112.683 189.421 117.672C186.74 113.511 183.161 108.855 180.208 105.197ZM308 322.885C313.844 321.177 421.495 287.907 427.661 156.932C430.432 158.088 433.579 158.953 436.703 158.86C432.917 220.661 408.412 294.917 308.251 333.683C308.251 333.745 308.251 333.807 308.251 333.875C308.167 333.844 308.083 333.807 308 333.776C307.917 333.807 307.833 333.844 307.749 333.875C307.749 333.807 307.749 333.745 307.749 333.677C207.588 294.917 183.079 220.661 179.297 158.86C182.416 158.953 185.568 158.088 188.333 156.932C194.505 287.932 302.197 321.193 308 322.885Z" fill="url(#paint0_linear_4_4926)"/>
</g>
<mask id="mask1_4_4926" style="mask-type:luminance" maskUnits="userSpaceOnUse" x="0" y="38" width="616" height="299">
<path d="M553.844 274.339C480.552 263.276 426.787 271.385 396.068 294.183C414.443 274.245 414.208 270.245 420.875 249.031C427.541 227.817 433.953 208.839 465.527 184.036C444.057 203.771 430.303 252.505 430.303 252.505C430.303 252.505 445.907 230.063 483.885 240.599C521.864 251.131 573.333 258.079 577.161 200.907C582.511 249.063 554.453 258.307 516.136 254.489C478.833 250.776 439.932 241.109 428.317 264.912C457.917 256.588 506.64 255.047 553.349 264.912C600.057 274.771 615.364 254.984 615.364 254.984C615.364 254.984 614.855 283.541 553.844 274.339ZM312.713 308.573C382.303 286.536 412.443 212.317 412.443 212.317C402.208 252.38 371.011 296.511 312.713 308.573ZM350.917 59.5C340.979 45.104 357.864 38.6613 357.864 38.6613C347.636 54.0053 360.917 60.016 371.755 55.036C382.593 50.0573 405.864 53.9587 402.516 66.9427C392.011 46.1773 360.855 73.9013 350.917 59.5ZM203.557 212.317C203.557 212.317 233.697 286.536 303.287 308.573C244.989 296.511 213.792 252.38 203.557 212.317ZM213.484 66.9427C210.136 53.9587 233.407 50.0573 244.245 55.036C255.083 60.016 268.364 54.0053 258.136 38.6613C258.136 38.6613 275.021 45.104 265.083 59.5C255.145 73.9013 223.989 46.1773 213.484 66.9427ZM62.1563 274.339C1.14536 283.541 0.635986 254.984 0.635986 254.984C0.635986 254.984 15.9427 274.771 62.6506 264.912C109.36 255.047 158.083 256.588 187.683 264.912C176.068 241.109 137.167 250.776 99.864 254.489C61.547 258.307 33.4896 249.063 38.8386 200.907C42.6667 258.079 94.136 251.131 132.115 240.599C170.093 230.063 185.697 252.505 185.697 252.505C185.697 252.505 171.943 203.771 150.473 184.036C182.047 208.839 188.459 227.817 195.125 249.031C201.792 270.245 201.557 274.245 219.932 294.183C189.213 271.385 135.448 263.276 62.1563 274.339ZM291.38 336.355C291.38 336.355 186.828 294.421 58.6828 301.131C156.776 286.593 228.489 293.869 291.38 336.355ZM557.317 301.131C429.172 294.421 324.62 336.355 324.62 336.355C387.511 293.869 459.224 286.593 557.317 301.131Z" fill="white"/>
</mask>
<g mask="url(#mask1_4_4926)">
<path d="M553.844 274.339C480.552 263.276 426.787 271.385 396.068 294.183C414.443 274.245 414.208 270.245 420.875 249.031C427.541 227.817 433.953 208.839 465.527 184.036C444.057 203.771 430.303 252.505 430.303 252.505C430.303 252.505 445.907 230.063 483.885 240.599C521.864 251.131 573.333 258.079 577.161 200.907C582.511 249.063 554.453 258.307 516.136 254.489C478.833 250.776 439.932 241.109 428.317 264.912C457.917 256.588 506.64 255.047 553.349 264.912C600.057 274.771 615.364 254.984 615.364 254.984C615.364 254.984 614.855 283.541 553.844 274.339ZM312.713 308.573C382.303 286.536 412.443 212.317 412.443 212.317C402.208 252.38 371.011 296.511 312.713 308.573ZM350.917 59.5C340.979 45.104 357.864 38.6613 357.864 38.6613C347.636 54.0053 360.917 60.016 371.755 55.036C382.593 50.0573 405.864 53.9587 402.516 66.9427C392.011 46.1773 360.855 73.9013 350.917 59.5ZM203.557 212.317C203.557 212.317 233.697 286.536 303.287 308.573C244.989 296.511 213.792 252.38 203.557 212.317ZM213.484 66.9427C210.136 53.9587 233.407 50.0573 244.245 55.036C255.083 60.016 268.364 54.0053 258.136 38.6613C258.136 38.6613 275.021 45.104 265.083 59.5C255.145 73.9013 223.989 46.1773 213.484 66.9427ZM62.1563 274.339C1.14536 283.541 0.635986 254.984 0.635986 254.984C0.635986 254.984 15.9427 274.771 62.6506 264.912C109.36 255.047 158.083 256.588 187.683 264.912C176.068 241.109 137.167 250.776 99.864 254.489C61.547 258.307 33.4896 249.063 38.8386 200.907C42.6667 258.079 94.136 251.131 132.115 240.599C170.093 230.063 185.697 252.505 185.697 252.505C185.697 252.505 171.943 203.771 150.473 184.036C182.047 208.839 188.459 227.817 195.125 249.031C201.792 270.245 201.557 274.245 219.932 294.183C189.213 271.385 135.448 263.276 62.1563 274.339ZM291.38 336.355C291.38 336.355 186.828 294.421 58.6828 301.131C156.776 286.593 228.489 293.869 291.38 336.355ZM557.317 301.131C429.172 294.421 324.62 336.355 324.62 336.355C387.511 293.869 459.224 286.593 557.317 301.131Z" fill="url(#paint1_linear_4_4926)"/>
</g>
<mask id="mask2_4_4926" style="mask-type:luminance" maskUnits="userSpaceOnUse" x="18" y="0" width="580" height="244">
<path d="M597.011 29.7347C594.125 51.4587 579.719 56.8441 559.303 70.4161C538.885 83.9947 515.219 93.8747 505.219 96.2187C504.927 97.1667 500.276 103.172 500.755 103.161C501.235 103.156 509.115 100.579 521.099 96.2187C517.735 107.203 505.317 109.625 494.803 114.079C497.245 114.281 507.203 114.573 507.203 114.573C507.203 114.573 504.787 118.193 503.235 119.041C501.688 119.885 494.307 120.031 494.307 120.031L500.26 122.016C500.26 122.016 499.864 122.312 497.281 123.505C492.901 125.527 486.364 124 486.364 124C486.364 124 486.407 124.421 490.339 125.984C488.355 127.355 478.927 128.469 478.927 128.469C478.927 128.469 480.688 128.74 485.375 130.453C483.948 131.697 480.912 132.932 480.912 132.932C480.912 132.932 478.697 132.297 466.869 133.88C470.219 133.656 477.932 139.38 477.932 139.38C477.932 139.38 475.745 139.38 467.016 140.375C458.292 141.364 455.109 151.787 455.109 151.787C455.109 151.787 459.136 146.151 468.011 146.823C476.88 147.5 480.412 143.849 480.412 143.849C480.412 143.849 479.511 143.057 490.339 148.312C486.568 144.817 481.407 140.869 481.407 140.869C481.407 140.869 486.031 141.208 498.276 145.833C510.521 150.459 519.964 162.307 520.104 174.609C520.251 186.912 513.995 189.183 511.177 194.953C508.355 200.724 519.276 210.803 520.104 212.812C520.932 214.823 515.093 224.516 513.161 227.697C511.224 230.875 511.495 241.057 510.677 242.584C509.864 244.109 501.864 242.708 501.251 242.088C500.64 241.464 505.364 237.552 506.213 236.631C507.063 235.703 509.645 231.62 508.197 227.203C506.749 222.787 509.547 218.776 509.188 216.287C508.833 213.792 498.541 204.651 493.312 197.927C488.083 191.208 493.557 180.579 488.849 168.656C484.136 156.729 469.995 154.265 469.995 154.265C469.995 154.265 476.516 156.969 482.396 171.631C469.104 176.755 453.416 167.672 448.344 164.349C450.812 165.781 456.391 168.271 467.516 170.145C454.401 165.833 446.677 153.771 446.677 153.771C446.677 153.771 448.875 152.781 449.651 151.292C450.427 149.797 453.62 138.391 453.62 138.391C453.62 138.391 451.505 141.693 447.172 146.328C442.839 150.964 439.145 155.407 433.776 150.792C428.401 146.183 414.339 131.896 412.443 133.427C410.541 134.964 402.959 143.959 401.527 145.833C400.093 147.708 400.817 149.797 400.036 151.787C399.255 153.776 395.079 152.713 393.588 152.776C392.093 152.844 394.979 146.875 396.563 143.355C398.145 139.828 407.787 129.697 408.969 126.484C410.145 123.265 415.473 122.693 417.401 123.011C419.333 123.323 418.683 129.213 423.855 131.443C429.021 133.677 438.432 140.984 442.703 137.896C439.391 135.584 438.917 126.391 448.661 122.516C443.421 123.401 434.927 123.765 431.292 130.948C431.063 122.469 443.203 111.104 443.203 111.104C443.203 111.104 434.391 116.645 430.797 122.016C432.36 111.14 445.973 105.26 451.14 99.6934C456.307 94.12 459.079 84.8067 459.079 84.8067C459.079 84.8067 460.307 91.7654 457.588 98.2027C465.36 87.416 460.568 75.3801 460.568 75.3801C460.568 75.3801 459.38 81.536 456.599 84.3067C453.817 87.0827 442.656 85.312 439.235 86.792C435.807 88.2707 435.552 91.3334 434.765 91.7494C433.984 92.1667 434.271 88.776 434.271 88.776C434.271 88.776 432.765 90.4374 431.292 91.7494C429.823 93.0681 428.719 88.8174 427.323 88.276C425.932 87.74 425.661 84.9534 427.823 83.3174C429.979 81.6827 435.901 75.432 437.251 72.896C438.593 70.36 437.615 68.1934 446.677 64.9587C455.735 61.724 457.323 48.1827 457.588 48.588C463.14 57.0054 458.584 68.9267 458.584 68.9267C458.584 68.9267 460.729 67.0627 463.541 64.9587C472.292 72.0414 477.948 82.0787 477.932 92.2507C477.917 102.416 474 111.011 469 118.541C464.005 126.079 458.979 126.797 454.615 134.421C455.703 132.38 465.579 129.568 476.943 123.505C488.303 117.443 496.136 102.74 497.776 98.2027C499.421 93.6667 500.213 87.2027 502.74 86.292C505.265 85.3854 546.636 60.688 568.729 47.0987C590.823 33.5054 597.505 10.38 597.505 10.38C597.505 10.38 598.792 16.3027 597.011 29.7347ZM445.683 71.9067C444.74 71.8547 442.208 73.396 442.208 73.396L443.203 73.8907C443.203 73.8907 442.453 74.588 442.703 76.3694C443.593 75.1614 448.161 72.4014 448.161 72.4014C448.161 72.4014 446.625 71.9587 445.683 71.9067ZM448.344 164.349C447.14 163.645 446.677 163.197 446.677 163.197C446.677 163.197 447.276 163.645 448.344 164.349ZM507.203 77.364C518.333 68.344 526.557 43.6254 526.557 43.6254C530.369 56.104 522.088 67.9374 522.088 67.9374C522.088 67.9374 519.303 72.516 507.203 77.364ZM495.297 66.4481C495.297 66.4481 521.937 32.6827 516.631 0.953357C534.547 18.792 521.203 58.9534 495.297 81.3334C500.932 70.088 495.297 66.4481 495.297 66.4481ZM485.375 98.2027C485.375 98.2027 485.287 93.7494 479.421 87.2867C478.781 85.5307 477.932 78.8547 477.932 78.8547C488.781 88.5267 485.375 98.2027 485.375 98.2027ZM476.443 113.584C481.833 106.047 479.421 90.2654 479.421 90.2654C483.735 93.5307 486.021 110.073 476.443 113.584ZM482.396 75.8747C487.552 79.0054 490.661 86.5054 490.339 92.7454C485.041 83.1721 479.479 76.4947 473.964 73.396C479.229 74.6094 479.421 74.3854 479.421 74.3854C479.421 74.3854 469.593 67.8907 466.521 63.9694C466.521 63.9694 478.125 67.3387 486.364 65.9534C483.303 69.5934 477.932 68.432 477.932 68.432C477.932 68.432 487.339 77.052 494.307 72.896C492.584 79.136 486.719 77.12 482.396 75.8747ZM468.505 58.5107C477.281 60.0307 481.407 62.9734 481.407 62.9734C481.407 62.9734 469.088 64.8227 462.552 59.0054C462.552 59.0054 464.041 54.0787 470.984 54.5414C477.932 55 482.896 59.0054 482.896 59.0054C482.896 59.0054 472.672 56.792 468.505 58.5107ZM448.161 61.984C446.869 56.6254 447.172 51.068 447.172 51.068C447.172 51.068 451.479 54.6507 451.636 57.0214C451.636 57.0214 448.511 62.12 448.161 61.984ZM222.412 152.776C220.921 152.713 216.745 153.776 215.964 151.787C215.183 149.797 215.907 147.708 214.473 145.833C213.041 143.959 205.459 134.964 203.557 133.427C201.661 131.896 187.599 146.183 182.224 150.792C176.855 155.407 173.161 150.964 168.828 146.328C164.495 141.693 162.38 138.391 162.38 138.391C162.38 138.391 165.573 149.797 166.349 151.292C167.125 152.781 169.323 153.771 169.323 153.771C169.323 153.771 161.599 165.833 148.484 170.145C159.609 168.271 165.188 165.781 167.656 164.349C162.584 167.672 146.896 176.755 133.604 171.631C139.484 156.969 146.005 154.265 146.005 154.265C146.005 154.265 131.864 156.729 127.151 168.656C122.443 180.579 127.917 191.208 122.688 197.927C117.459 204.651 107.167 213.792 106.812 216.287C106.453 218.776 109.251 222.787 107.803 227.203C106.355 231.62 108.937 235.703 109.786 236.631C110.636 237.552 115.36 241.464 114.749 242.088C114.136 242.708 106.136 244.109 105.323 242.584C104.505 241.057 104.776 230.875 102.839 227.697C100.907 224.516 95.0683 214.823 95.8959 212.812C96.724 210.803 107.645 200.724 104.823 194.953C102.005 189.183 95.7495 186.912 95.8959 174.609C96.036 162.307 105.479 150.459 117.724 145.833C129.969 141.208 134.593 140.869 134.593 140.869C134.593 140.869 129.432 144.817 125.661 148.312C136.489 143.057 135.588 143.849 135.588 143.849C135.588 143.849 139.12 147.5 147.989 146.823C156.864 146.151 160.891 151.787 160.891 151.787C160.891 151.787 157.708 141.364 148.984 140.375C140.255 139.38 138.068 139.38 138.068 139.38C138.068 139.38 145.781 133.656 149.131 133.88C137.303 132.297 135.088 132.932 135.088 132.932C135.088 132.932 132.052 131.697 130.625 130.453C135.312 128.74 137.073 128.469 137.073 128.469C137.073 128.469 127.645 127.355 125.661 125.984C129.593 124.421 129.636 124 129.636 124C129.636 124 123.098 125.527 118.719 123.505C116.136 122.312 115.74 122.016 115.74 122.016L121.693 120.031C121.693 120.031 114.312 119.885 112.765 119.041C111.219 118.193 108.797 114.573 108.797 114.573C108.797 114.573 118.755 114.281 121.197 114.079C110.683 109.625 98.2651 107.203 94.9016 96.2187C106.885 100.579 114.765 103.156 115.245 103.161C115.724 103.172 111.073 97.1667 110.781 96.2187C100.781 93.8747 77.1145 83.9947 56.6973 70.4161C36.2812 56.8441 21.8745 51.4587 18.9896 29.7347C17.2079 16.3027 18.4948 10.38 18.4948 10.38C18.4948 10.38 25.1776 33.5054 47.2708 47.0987C69.364 60.688 110.735 85.3854 113.26 86.292C115.786 87.2027 116.579 93.6667 118.224 98.2027C119.864 102.74 127.697 117.443 139.057 123.505C150.421 129.568 160.297 132.38 161.385 134.421C157.021 126.797 151.995 126.079 147 118.541C142 111.011 138.083 102.416 138.068 92.2507C138.052 82.0787 143.708 72.0414 152.459 64.9587C155.271 67.0627 157.416 68.9267 157.416 68.9267C157.416 68.9267 152.86 57.0054 158.412 48.588C158.677 48.1827 160.265 61.724 169.323 64.9587C178.385 68.1934 177.407 70.36 178.749 72.896C180.099 75.432 186.021 81.6827 188.177 83.3174C190.339 84.9534 190.068 87.74 188.677 88.276C187.281 88.8174 186.177 93.0681 184.708 91.7494C183.235 90.4374 181.729 88.776 181.729 88.776C181.729 88.776 182.016 92.1667 181.235 91.7494C180.448 91.3334 180.193 88.2707 176.765 86.792C173.344 85.312 162.183 87.0827 159.401 84.3067C156.62 81.536 155.432 75.3801 155.432 75.3801C155.432 75.3801 150.64 87.416 158.412 98.2027C155.693 91.7654 156.921 84.8067 156.921 84.8067C156.921 84.8067 159.693 94.12 164.86 99.6934C170.027 105.26 183.64 111.14 185.203 122.016C181.609 116.645 172.797 111.104 172.797 111.104C172.797 111.104 184.937 122.469 184.708 130.948C181.073 123.765 172.579 123.401 167.339 122.516C177.083 126.391 176.609 135.584 173.297 137.896C177.568 140.984 186.979 133.677 192.145 131.443C197.317 129.213 196.667 123.323 198.599 123.011C200.527 122.693 205.855 123.265 207.031 126.484C208.213 129.697 217.855 139.828 219.437 143.355C221.021 146.875 223.907 152.844 222.412 152.776ZM173.297 76.3694C173.547 74.588 172.797 73.8907 172.797 73.8907L173.792 73.396C173.792 73.396 171.26 71.8547 170.317 71.9067C169.375 71.9587 167.839 72.4014 167.839 72.4014C167.839 72.4014 172.407 75.1614 173.297 76.3694ZM167.656 164.349C168.724 163.645 169.323 163.197 169.323 163.197C169.323 163.197 168.86 163.645 167.656 164.349ZM164.364 57.0214C164.521 54.6507 168.828 51.068 168.828 51.068C168.828 51.068 169.131 56.6254 167.839 61.984C167.489 62.12 164.364 57.0214 164.364 57.0214ZM134.593 62.9734C134.593 62.9734 138.719 60.0307 147.495 58.5107C143.328 56.792 133.104 59.0054 133.104 59.0054C133.104 59.0054 138.068 55 145.016 54.5414C151.959 54.0787 153.448 59.0054 153.448 59.0054C146.912 64.8227 134.593 62.9734 134.593 62.9734ZM138.068 78.8547C138.068 78.8547 137.219 85.5307 136.579 87.2867C130.714 93.7494 130.625 98.2027 130.625 98.2027C130.625 98.2027 127.219 88.5267 138.068 78.8547ZM136.579 90.2654C136.579 90.2654 134.167 106.047 139.557 113.584C129.979 110.073 132.265 93.5307 136.579 90.2654ZM129.636 65.9534C137.875 67.3387 149.479 63.9694 149.479 63.9694C146.407 67.8907 136.579 74.3854 136.579 74.3854C136.579 74.3854 136.771 74.6094 142.036 73.396C136.521 76.4947 130.959 83.1721 125.661 92.7454C125.339 86.5054 128.448 79.0054 133.604 75.8747C129.281 77.12 123.416 79.136 121.693 72.896C128.661 77.052 138.068 68.432 138.068 68.432C138.068 68.432 132.697 69.5934 129.636 65.9534ZM99.3693 0.953357C94.0625 32.6827 120.703 66.4481 120.703 66.4481C120.703 66.4481 115.068 70.088 120.703 81.3334C94.7973 58.9534 81.4531 18.792 99.3693 0.953357ZM93.912 67.9374C93.912 67.9374 85.6307 56.104 89.4427 43.6254C89.4427 43.6254 97.6667 68.344 108.797 77.364C96.6973 72.516 93.912 67.9374 93.912 67.9374ZM89.9427 94.7294C91.0787 98.2547 94.9016 103.161 94.9016 103.161C94.9016 103.161 84.6615 101.088 63.6453 93.24C42.6255 85.396 25.2453 68.1667 24.9427 54.0414C35.5109 69.9374 73.588 88.2187 89.9427 94.7294ZM75.5521 108.62C55.6776 108.64 33.912 94.536 27.9213 80.8387C43.5683 89.5934 62.1563 97.7027 62.1563 97.7027C62.1563 97.7027 66.6453 106.531 75.5521 108.62ZM74.0625 113.088C74.0625 113.088 78.6615 119.713 85.9735 121.027C70.0932 120.473 52.7651 121.995 41.812 104.156C59.6401 113.745 74.0625 113.088 74.0625 113.088ZM83.9839 125.984C83.9839 125.984 89.6255 129.817 97.8803 131.443C79.636 134.516 63.5412 131.369 54.2188 121.027C66.1145 127.448 83.9839 125.984 83.9839 125.984ZM79.0265 145.833C79.0265 145.833 83.4265 145.104 98.8693 140.869C106.156 141.656 111.276 141.364 111.276 141.364C103.511 146.464 79.0265 145.833 79.0265 145.833ZM132.115 134.421C127.724 135.833 119.973 139.027 104.328 139.38C119.74 133.547 129.136 131.443 129.136 131.443C129.136 131.443 131.093 133.713 132.115 134.421ZM121.693 126.484C115.948 129.473 103.364 130.547 86.4693 124.5C94.588 124.719 114.251 122.516 114.251 122.516C114.251 122.516 114.579 124.901 121.693 126.484ZM95.3959 106.14L101.355 112.588C101.355 112.588 75.8599 111.469 67.1197 98.2027C95.2349 106.5 95.3959 106.14 95.3959 106.14ZM109.292 120.031C83.4896 124.031 77.536 112.588 77.536 112.588C77.536 112.588 84.4948 114.579 104.328 115.073C104.402 115.797 109.292 120.031 109.292 120.031ZM85.9735 214.797C85.9735 214.797 73.7079 201.989 74.0625 193.959C74.4161 185.927 78.5307 183.041 78.5307 183.041C78.5307 183.041 74.6401 187.427 78.0307 194.953C81.4265 202.473 85.9735 214.797 85.9735 214.797ZM93.412 167.167C93.412 167.167 85.6776 170.421 84.4839 178.579C89.3027 171.453 93.912 172.625 93.912 172.625C93.912 172.625 83.0521 177.177 86.964 189.495C90.8745 201.812 87.9588 215.292 87.9588 215.292C87.9588 215.292 86.1973 203.979 81.0109 194.453C75.8229 184.932 83.9839 175.604 83.9839 175.604C83.9839 175.604 70.4588 182.839 72.5735 195.943C74.6932 209.052 94.2453 216.661 82 236.631C84.6932 227.172 84.7973 221.312 78.0307 215.792C82.9375 227.109 73.5683 232.161 73.5683 232.161C73.5683 232.161 80.1307 223.479 70.0932 214.303C60.0573 205.125 55.1307 195.265 63.6453 182.052C72.1563 168.839 93.412 167.167 93.412 167.167ZM121.729 205.672C123.041 203.568 131.098 194.167 129.636 180.563C137.391 184.599 130.541 200.688 129.636 203.385C128.749 206.011 135.844 218.807 133.573 222.797C131.407 226.604 132.88 230.052 133.427 230.803C133.964 231.541 137.052 234.5 136.443 234.989C135.833 235.484 127.511 237.339 127.047 236.156C126.579 234.953 128.651 226.344 127.421 223.448C126.453 221.172 120.421 207.765 121.729 205.672ZM212.489 149.803C213.593 151.448 213.323 172.636 212.489 174.115C211.656 175.588 206.719 167.969 205.547 167.167C204.369 166.364 207.631 162.844 207.531 160.719C206.745 159.959 207.531 154.765 207.531 154.765C207.531 154.765 205.469 153.391 204.552 152.776C203.636 152.167 198.636 152.593 188.177 150.792L198.599 144.839C202.812 144.839 211.391 148.156 212.489 149.803ZM417.401 144.839L427.823 150.792C417.364 152.593 412.364 152.167 411.448 152.776C410.531 153.391 408.469 154.765 408.469 154.765C408.469 154.765 409.255 159.959 408.469 160.719C408.369 162.844 411.631 166.364 410.453 167.167C409.281 167.969 404.344 175.588 403.511 174.115C402.677 172.636 402.407 151.448 403.511 149.803C404.609 148.156 413.188 144.839 417.401 144.839ZM482.427 222.797C480.156 218.807 487.251 206.011 486.364 203.385C485.459 200.688 478.609 184.599 486.364 180.563C484.901 194.167 492.959 203.568 494.271 205.672C495.579 207.765 489.547 221.172 488.579 223.448C487.349 226.344 489.421 234.953 488.953 236.156C488.489 237.339 480.167 235.484 479.557 234.989C478.948 234.5 482.036 231.541 482.573 230.803C483.12 230.052 484.593 226.604 482.427 222.797ZM541.937 193.959C542.287 201.989 530.027 214.797 530.027 214.797C530.027 214.797 534.573 202.473 537.969 194.953C541.36 187.427 537.469 183.041 537.469 183.041C537.469 183.041 541.584 185.927 541.937 193.959ZM531.516 178.579C530.323 170.421 522.588 167.167 522.588 167.167C522.588 167.167 543.844 168.839 552.355 182.052C560.869 195.265 555.943 205.125 545.907 214.303C535.869 223.479 542.432 232.161 542.432 232.161C542.432 232.161 533.063 227.109 537.969 215.792C531.203 221.312 531.307 227.172 534 236.631C521.755 216.661 541.307 209.052 543.427 195.943C545.541 182.839 532.016 175.604 532.016 175.604C532.016 175.604 540.177 184.932 534.989 194.453C529.803 203.979 528.041 215.292 528.041 215.292C528.041 215.292 525.125 201.812 529.036 189.495C532.948 177.177 522.088 172.625 522.088 172.625C522.088 172.625 526.697 171.453 531.516 178.579ZM518.12 131.443C526.375 129.817 532.016 125.984 532.016 125.984C532.016 125.984 549.885 127.448 561.781 121.027C552.459 131.369 536.364 134.516 518.12 131.443ZM530.027 121.027C537.339 119.713 541.937 113.088 541.937 113.088C541.937 113.088 556.36 113.745 574.188 104.156C563.235 121.995 545.907 120.473 530.027 121.027ZM540.448 108.62C549.355 106.531 553.844 97.7027 553.844 97.7027C553.844 97.7027 572.432 89.5934 588.079 80.8387C582.088 94.536 560.317 108.64 540.448 108.62ZM591.057 54.0414C590.755 68.1667 573.375 85.396 552.355 93.24C531.339 101.088 521.099 103.161 521.099 103.161C521.099 103.161 524.921 98.2547 526.057 94.7294C542.412 88.2187 580.489 69.9374 591.057 54.0414ZM548.88 98.2027C540.14 111.469 514.645 112.588 514.645 112.588L520.604 106.14C520.604 106.14 520.765 106.5 548.88 98.2027ZM538.464 112.588C538.464 112.588 532.511 124.031 506.708 120.031C506.708 120.031 511.599 115.797 511.672 115.073C531.505 114.579 538.464 112.588 538.464 112.588ZM501.749 122.516C501.749 122.516 521.412 124.719 529.531 124.5C512.636 130.547 500.052 129.473 494.307 126.484C501.421 124.901 501.749 122.516 501.749 122.516ZM536.973 145.833C536.973 145.833 512.489 146.464 504.724 141.364C504.724 141.364 509.844 141.656 517.131 140.869C532.573 145.104 536.973 145.833 536.973 145.833ZM486.864 131.443C486.864 131.443 496.26 133.547 511.672 139.38C496.027 139.027 488.276 135.833 483.885 134.421C484.907 133.713 486.864 131.443 486.864 131.443Z" fill="white"/>
</mask>
<g mask="url(#mask2_4_4926)">
<path d="M597.011 29.7347C594.125 51.4587 579.719 56.8441 559.303 70.4161C538.885 83.9947 515.219 93.8747 505.219 96.2187C504.927 97.1667 500.276 103.172 500.755 103.161C501.235 103.156 509.115 100.579 521.099 96.2187C517.735 107.203 505.317 109.625 494.803 114.079C497.245 114.281 507.203 114.573 507.203 114.573C507.203 114.573 504.787 118.193 503.235 119.041C501.688 119.885 494.307 120.031 494.307 120.031L500.26 122.016C500.26 122.016 499.864 122.312 497.281 123.505C492.901 125.527 486.364 124 486.364 124C486.364 124 486.407 124.421 490.339 125.984C488.355 127.355 478.927 128.469 478.927 128.469C478.927 128.469 480.688 128.74 485.375 130.453C483.948 131.697 480.912 132.932 480.912 132.932C480.912 132.932 478.697 132.297 466.869 133.88C470.219 133.656 477.932 139.38 477.932 139.38C477.932 139.38 475.745 139.38 467.016 140.375C458.292 141.364 455.109 151.787 455.109 151.787C455.109 151.787 459.136 146.151 468.011 146.823C476.88 147.5 480.412 143.849 480.412 143.849C480.412 143.849 479.511 143.057 490.339 148.312C486.568 144.817 481.407 140.869 481.407 140.869C481.407 140.869 486.031 141.208 498.276 145.833C510.521 150.459 519.964 162.307 520.104 174.609C520.251 186.912 513.995 189.183 511.177 194.953C508.355 200.724 519.276 210.803 520.104 212.812C520.932 214.823 515.093 224.516 513.161 227.697C511.224 230.875 511.495 241.057 510.677 242.584C509.864 244.109 501.864 242.708 501.251 242.088C500.64 241.464 505.364 237.552 506.213 236.631C507.063 235.703 509.645 231.62 508.197 227.203C506.749 222.787 509.547 218.776 509.188 216.287C508.833 213.792 498.541 204.651 493.312 197.927C488.083 191.208 493.557 180.579 488.849 168.656C484.136 156.729 469.995 154.265 469.995 154.265C469.995 154.265 476.516 156.969 482.396 171.631C469.104 176.755 453.416 167.672 448.344 164.349C450.812 165.781 456.391 168.271 467.516 170.145C454.401 165.833 446.677 153.771 446.677 153.771C446.677 153.771 448.875 152.781 449.651 151.292C450.427 149.797 453.62 138.391 453.62 138.391C453.62 138.391 451.505 141.693 447.172 146.328C442.839 150.964 439.145 155.407 433.776 150.792C428.401 146.183 414.339 131.896 412.443 133.427C410.541 134.964 402.959 143.959 401.527 145.833C400.093 147.708 400.817 149.797 400.036 151.787C399.255 153.776 395.079 152.713 393.588 152.776C392.093 152.844 394.979 146.875 396.563 143.355C398.145 139.828 407.787 129.697 408.969 126.484C410.145 123.265 415.473 122.693 417.401 123.011C419.333 123.323 418.683 129.213 423.855 131.443C429.021 133.677 438.432 140.984 442.703 137.896C439.391 135.584 438.917 126.391 448.661 122.516C443.421 123.401 434.927 123.765 431.292 130.948C431.063 122.469 443.203 111.104 443.203 111.104C443.203 111.104 434.391 116.645 430.797 122.016C432.36 111.14 445.973 105.26 451.14 99.6934C456.307 94.12 459.079 84.8067 459.079 84.8067C459.079 84.8067 460.307 91.7654 457.588 98.2027C465.36 87.416 460.568 75.3801 460.568 75.3801C460.568 75.3801 459.38 81.536 456.599 84.3067C453.817 87.0827 442.656 85.312 439.235 86.792C435.807 88.2707 435.552 91.3334 434.765 91.7494C433.984 92.1667 434.271 88.776 434.271 88.776C434.271 88.776 432.765 90.4374 431.292 91.7494C429.823 93.0681 428.719 88.8174 427.323 88.276C425.932 87.74 425.661 84.9534 427.823 83.3174C429.979 81.6827 435.901 75.432 437.251 72.896C438.593 70.36 437.615 68.1934 446.677 64.9587C455.735 61.724 457.323 48.1827 457.588 48.588C463.14 57.0054 458.584 68.9267 458.584 68.9267C458.584 68.9267 460.729 67.0627 463.541 64.9587C472.292 72.0414 477.948 82.0787 477.932 92.2507C477.917 102.416 474 111.011 469 118.541C464.005 126.079 458.979 126.797 454.615 134.421C455.703 132.38 465.579 129.568 476.943 123.505C488.303 117.443 496.136 102.74 497.776 98.2027C499.421 93.6667 500.213 87.2027 502.74 86.292C505.265 85.3854 546.636 60.688 568.729 47.0987C590.823 33.5054 597.505 10.38 597.505 10.38C597.505 10.38 598.792 16.3027 597.011 29.7347ZM445.683 71.9067C444.74 71.8547 442.208 73.396 442.208 73.396L443.203 73.8907C443.203 73.8907 442.453 74.588 442.703 76.3694C443.593 75.1614 448.161 72.4014 448.161 72.4014C448.161 72.4014 446.625 71.9587 445.683 71.9067ZM448.344 164.349C447.14 163.645 446.677 163.197 446.677 163.197C446.677 163.197 447.276 163.645 448.344 164.349ZM507.203 77.364C518.333 68.344 526.557 43.6254 526.557 43.6254C530.369 56.104 522.088 67.9374 522.088 67.9374C522.088 67.9374 519.303 72.516 507.203 77.364ZM495.297 66.4481C495.297 66.4481 521.937 32.6827 516.631 0.953357C534.547 18.792 521.203 58.9534 495.297 81.3334C500.932 70.088 495.297 66.4481 495.297 66.4481ZM485.375 98.2027C485.375 98.2027 485.287 93.7494 479.421 87.2867C478.781 85.5307 477.932 78.8547 477.932 78.8547C488.781 88.5267 485.375 98.2027 485.375 98.2027ZM476.443 113.584C481.833 106.047 479.421 90.2654 479.421 90.2654C483.735 93.5307 486.021 110.073 476.443 113.584ZM482.396 75.8747C487.552 79.0054 490.661 86.5054 490.339 92.7454C485.041 83.1721 479.479 76.4947 473.964 73.396C479.229 74.6094 479.421 74.3854 479.421 74.3854C479.421 74.3854 469.593 67.8907 466.521 63.9694C466.521 63.9694 478.125 67.3387 486.364 65.9534C483.303 69.5934 477.932 68.432 477.932 68.432C477.932 68.432 487.339 77.052 494.307 72.896C492.584 79.136 486.719 77.12 482.396 75.8747ZM468.505 58.5107C477.281 60.0307 481.407 62.9734 481.407 62.9734C481.407 62.9734 469.088 64.8227 462.552 59.0054C462.552 59.0054 464.041 54.0787 470.984 54.5414C477.932 55 482.896 59.0054 482.896 59.0054C482.896 59.0054 472.672 56.792 468.505 58.5107ZM448.161 61.984C446.869 56.6254 447.172 51.068 447.172 51.068C447.172 51.068 451.479 54.6507 451.636 57.0214C451.636 57.0214 448.511 62.12 448.161 61.984ZM222.412 152.776C220.921 152.713 216.745 153.776 215.964 151.787C215.183 149.797 215.907 147.708 214.473 145.833C213.041 143.959 205.459 134.964 203.557 133.427C201.661 131.896 187.599 146.183 182.224 150.792C176.855 155.407 173.161 150.964 168.828 146.328C164.495 141.693 162.38 138.391 162.38 138.391C162.38 138.391 165.573 149.797 166.349 151.292C167.125 152.781 169.323 153.771 169.323 153.771C169.323 153.771 161.599 165.833 148.484 170.145C159.609 168.271 165.188 165.781 167.656 164.349C162.584 167.672 146.896 176.755 133.604 171.631C139.484 156.969 146.005 154.265 146.005 154.265C146.005 154.265 131.864 156.729 127.151 168.656C122.443 180.579 127.917 191.208 122.688 197.927C117.459 204.651 107.167 213.792 106.812 216.287C106.453 218.776 109.251 222.787 107.803 227.203C106.355 231.62 108.937 235.703 109.786 236.631C110.636 237.552 115.36 241.464 114.749 242.088C114.136 242.708 106.136 244.109 105.323 242.584C104.505 241.057 104.776 230.875 102.839 227.697C100.907 224.516 95.0683 214.823 95.8959 212.812C96.724 210.803 107.645 200.724 104.823 194.953C102.005 189.183 95.7495 186.912 95.8959 174.609C96.036 162.307 105.479 150.459 117.724 145.833C129.969 141.208 134.593 140.869 134.593 140.869C134.593 140.869 129.432 144.817 125.661 148.312C136.489 143.057 135.588 143.849 135.588 143.849C135.588 143.849 139.12 147.5 147.989 146.823C156.864 146.151 160.891 151.787 160.891 151.787C160.891 151.787 157.708 141.364 148.984 140.375C140.255 139.38 138.068 139.38 138.068 139.38C138.068 139.38 145.781 133.656 149.131 133.88C137.303 132.297 135.088 132.932 135.088 132.932C135.088 132.932 132.052 131.697 130.625 130.453C135.312 128.74 137.073 128.469 137.073 128.469C137.073 128.469 127.645 127.355 125.661 125.984C129.593 124.421 129.636 124 129.636 124C129.636 124 123.098 125.527 118.719 123.505C116.136 122.312 115.74 122.016 115.74 122.016L121.693 120.031C121.693 120.031 114.312 119.885 112.765 119.041C111.219 118.193 108.797 114.573 108.797 114.573C108.797 114.573 118.755 114.281 121.197 114.079C110.683 109.625 98.2651 107.203 94.9016 96.2187C106.885 100.579 114.765 103.156 115.245 103.161C115.724 103.172 111.073 97.1667 110.781 96.2187C100.781 93.8747 77.1145 83.9947 56.6973 70.4161C36.2812 56.8441 21.8745 51.4587 18.9896 29.7347C17.2079 16.3027 18.4948 10.38 18.4948 10.38C18.4948 10.38 25.1776 33.5054 47.2708 47.0987C69.364 60.688 110.735 85.3854 113.26 86.292C115.786 87.2027 116.579 93.6667 118.224 98.2027C119.864 102.74 127.697 117.443 139.057 123.505C150.421 129.568 160.297 132.38 161.385 134.421C157.021 126.797 151.995 126.079 147 118.541C142 111.011 138.083 102.416 138.068 92.2507C138.052 82.0787 143.708 72.0414 152.459 64.9587C155.271 67.0627 157.416 68.9267 157.416 68.9267C157.416 68.9267 152.86 57.0054 158.412 48.588C158.677 48.1827 160.265 61.724 169.323 64.9587C178.385 68.1934 177.407 70.36 178.749 72.896C180.099 75.432 186.021 81.6827 188.177 83.3174C190.339 84.9534 190.068 87.74 188.677 88.276C187.281 88.8174 186.177 93.0681 184.708 91.7494C183.235 90.4374 181.729 88.776 181.729 88.776C181.729 88.776 182.016 92.1667 181.235 91.7494C180.448 91.3334 180.193 88.2707 176.765 86.792C173.344 85.312 162.183 87.0827 159.401 84.3067C156.62 81.536 155.432 75.3801 155.432 75.3801C155.432 75.3801 150.64 87.416 158.412 98.2027C155.693 91.7654 156.921 84.8067 156.921 84.8067C156.921 84.8067 159.693 94.12 164.86 99.6934C170.027 105.26 183.64 111.14 185.203 122.016C181.609 116.645 172.797 111.104 172.797 111.104C172.797 111.104 184.937 122.469 184.708 130.948C181.073 123.765 172.579 123.401 167.339 122.516C177.083 126.391 176.609 135.584 173.297 137.896C177.568 140.984 186.979 133.677 192.145 131.443C197.317 129.213 196.667 123.323 198.599 123.011C200.527 122.693 205.855 123.265 207.031 126.484C208.213 129.697 217.855 139.828 219.437 143.355C221.021 146.875 223.907 152.844 222.412 152.776ZM173.297 76.3694C173.547 74.588 172.797 73.8907 172.797 73.8907L173.792 73.396C173.792 73.396 171.26 71.8547 170.317 71.9067C169.375 71.9587 167.839 72.4014 167.839 72.4014C167.839 72.4014 172.407 75.1614 173.297 76.3694ZM167.656 164.349C168.724 163.645 169.323 163.197 169.323 163.197C169.323 163.197 168.86 163.645 167.656 164.349ZM164.364 57.0214C164.521 54.6507 168.828 51.068 168.828 51.068C168.828 51.068 169.131 56.6254 167.839 61.984C167.489 62.12 164.364 57.0214 164.364 57.0214ZM134.593 62.9734C134.593 62.9734 138.719 60.0307 147.495 58.5107C143.328 56.792 133.104 59.0054 133.104 59.0054C133.104 59.0054 138.068 55 145.016 54.5414C151.959 54.0787 153.448 59.0054 153.448 59.0054C146.912 64.8227 134.593 62.9734 134.593 62.9734ZM138.068 78.8547C138.068 78.8547 137.219 85.5307 136.579 87.2867C130.714 93.7494 130.625 98.2027 130.625 98.2027C130.625 98.2027 127.219 88.5267 138.068 78.8547ZM136.579 90.2654C136.579 90.2654 134.167 106.047 139.557 113.584C129.979 110.073 132.265 93.5307 136.579 90.2654ZM129.636 65.9534C137.875 67.3387 149.479 63.9694 149.479 63.9694C146.407 67.8907 136.579 74.3854 136.579 74.3854C136.579 74.3854 136.771 74.6094 142.036 73.396C136.521 76.4947 130.959 83.1721 125.661 92.7454C125.339 86.5054 128.448 79.0054 133.604 75.8747C129.281 77.12 123.416 79.136 121.693 72.896C128.661 77.052 138.068 68.432 138.068 68.432C138.068 68.432 132.697 69.5934 129.636 65.9534ZM99.3693 0.953357C94.0625 32.6827 120.703 66.4481 120.703 66.4481C120.703 66.4481 115.068 70.088 120.703 81.3334C94.7973 58.9534 81.4531 18.792 99.3693 0.953357ZM93.912 67.9374C93.912 67.9374 85.6307 56.104 89.4427 43.6254C89.4427 43.6254 97.6667 68.344 108.797 77.364C96.6973 72.516 93.912 67.9374 93.912 67.9374ZM89.9427 94.7294C91.0787 98.2547 94.9016 103.161 94.9016 103.161C94.9016 103.161 84.6615 101.088 63.6453 93.24C42.6255 85.396 25.2453 68.1667 24.9427 54.0414C35.5109 69.9374 73.588 88.2187 89.9427 94.7294ZM75.5521 108.62C55.6776 108.64 33.912 94.536 27.9213 80.8387C43.5683 89.5934 62.1563 97.7027 62.1563 97.7027C62.1563 97.7027 66.6453 106.531 75.5521 108.62ZM74.0625 113.088C74.0625 113.088 78.6615 119.713 85.9735 121.027C70.0932 120.473 52.7651 121.995 41.812 104.156C59.6401 113.745 74.0625 113.088 74.0625 113.088ZM83.9839 125.984C83.9839 125.984 89.6255 129.817 97.8803 131.443C79.636 134.516 63.5412 131.369 54.2188 121.027C66.1145 127.448 83.9839 125.984 83.9839 125.984ZM79.0265 145.833C79.0265 145.833 83.4265 145.104 98.8693 140.869C106.156 141.656 111.276 141.364 111.276 141.364C103.511 146.464 79.0265 145.833 79.0265 145.833ZM132.115 134.421C127.724 135.833 119.973 139.027 104.328 139.38C119.74 133.547 129.136 131.443 129.136 131.443C129.136 131.443 131.093 133.713 132.115 134.421ZM121.693 126.484C115.948 129.473 103.364 130.547 86.4693 124.5C94.588 124.719 114.251 122.516 114.251 122.516C114.251 122.516 114.579 124.901 121.693 126.484ZM95.3959 106.14L101.355 112.588C101.355 112.588 75.8599 111.469 67.1197 98.2027C95.2349 106.5 95.3959 106.14 95.3959 106.14ZM109.292 120.031C83.4896 124.031 77.536 112.588 77.536 112.588C77.536 112.588 84.4948 114.579 104.328 115.073C104.402 115.797 109.292 120.031 109.292 120.031ZM85.9735 214.797C85.9735 214.797 73.7079 201.989 74.0625 193.959C74.4161 185.927 78.5307 183.041 78.5307 183.041C78.5307 183.041 74.6401 187.427 78.0307 194.953C81.4265 202.473 85.9735 214.797 85.9735 214.797ZM93.412 167.167C93.412 167.167 85.6776 170.421 84.4839 178.579C89.3027 171.453 93.912 172.625 93.912 172.625C93.912 172.625 83.0521 177.177 86.964 189.495C90.8745 201.812 87.9588 215.292 87.9588 215.292C87.9588 215.292 86.1973 203.979 81.0109 194.453C75.8229 184.932 83.9839 175.604 83.9839 175.604C83.9839 175.604 70.4588 182.839 72.5735 195.943C74.6932 209.052 94.2453 216.661 82 236.631C84.6932 227.172 84.7973 221.312 78.0307 215.792C82.9375 227.109 73.5683 232.161 73.5683 232.161C73.5683 232.161 80.1307 223.479 70.0932 214.303C60.0573 205.125 55.1307 195.265 63.6453 182.052C72.1563 168.839 93.412 167.167 93.412 167.167ZM121.729 205.672C123.041 203.568 131.098 194.167 129.636 180.563C137.391 184.599 130.541 200.688 129.636 203.385C128.749 206.011 135.844 218.807 133.573 222.797C131.407 226.604 132.88 230.052 133.427 230.803C133.964 231.541 137.052 234.5 136.443 234.989C135.833 235.484 127.511 237.339 127.047 236.156C126.579 234.953 128.651 226.344 127.421 223.448C126.453 221.172 120.421 207.765 121.729 205.672ZM212.489 149.803C213.593 151.448 213.323 172.636 212.489 174.115C211.656 175.588 206.719 167.969 205.547 167.167C204.369 166.364 207.631 162.844 207.531 160.719C206.745 159.959 207.531 154.765 207.531 154.765C207.531 154.765 205.469 153.391 204.552 152.776C203.636 152.167 198.636 152.593 188.177 150.792L198.599 144.839C202.812 144.839 211.391 148.156 212.489 149.803ZM417.401 144.839L427.823 150.792C417.364 152.593 412.364 152.167 411.448 152.776C410.531 153.391 408.469 154.765 408.469 154.765C408.469 154.765 409.255 159.959 408.469 160.719C408.369 162.844 411.631 166.364 410.453 167.167C409.281 167.969 404.344 175.588 403.511 174.115C402.677 172.636 402.407 151.448 403.511 149.803C404.609 148.156 413.188 144.839 417.401 144.839ZM482.427 222.797C480.156 218.807 487.251 206.011 486.364 203.385C485.459 200.688 478.609 184.599 486.364 180.563C484.901 194.167 492.959 203.568 494.271 205.672C495.579 207.765 489.547 221.172 488.579 223.448C487.349 226.344 489.421 234.953 488.953 236.156C488.489 237.339 480.167 235.484 479.557 234.989C478.948 234.5 482.036 231.541 482.573 230.803C483.12 230.052 484.593 226.604 482.427 222.797ZM541.937 193.959C542.287 201.989 530.027 214.797 530.027 214.797C530.027 214.797 534.573 202.473 537.969 194.953C541.36 187.427 537.469 183.041 537.469 183.041C537.469 183.041 541.584 185.927 541.937 193.959ZM531.516 178.579C530.323 170.421 522.588 167.167 522.588 167.167C522.588 167.167 543.844 168.839 552.355 182.052C560.869 195.265 555.943 205.125 545.907 214.303C535.869 223.479 542.432 232.161 542.432 232.161C542.432 232.161 533.063 227.109 537.969 215.792C531.203 221.312 531.307 227.172 534 236.631C521.755 216.661 541.307 209.052 543.427 195.943C545.541 182.839 532.016 175.604 532.016 175.604C532.016 175.604 540.177 184.932 534.989 194.453C529.803 203.979 528.041 215.292 528.041 215.292C528.041 215.292 525.125 201.812 529.036 189.495C532.948 177.177 522.088 172.625 522.088 172.625C522.088 172.625 526.697 171.453 531.516 178.579ZM518.12 131.443C526.375 129.817 532.016 125.984 532.016 125.984C532.016 125.984 549.885 127.448 561.781 121.027C552.459 131.369 536.364 134.516 518.12 131.443ZM530.027 121.027C537.339 119.713 541.937 113.088 541.937 113.088C541.937 113.088 556.36 113.745 574.188 104.156C563.235 121.995 545.907 120.473 530.027 121.027ZM540.448 108.62C549.355 106.531 553.844 97.7027 553.844 97.7027C553.844 97.7027 572.432 89.5934 588.079 80.8387C582.088 94.536 560.317 108.64 540.448 108.62ZM591.057 54.0414C590.755 68.1667 573.375 85.396 552.355 93.24C531.339 101.088 521.099 103.161 521.099 103.161C521.099 103.161 524.921 98.2547 526.057 94.7294C542.412 88.2187 580.489 69.9374 591.057 54.0414ZM548.88 98.2027C540.14 111.469 514.645 112.588 514.645 112.588L520.604 106.14C520.604 106.14 520.765 106.5 548.88 98.2027ZM538.464 112.588C538.464 112.588 532.511 124.031 506.708 120.031C506.708 120.031 511.599 115.797 511.672 115.073C531.505 114.579 538.464 112.588 538.464 112.588ZM501.749 122.516C501.749 122.516 521.412 124.719 529.531 124.5C512.636 130.547 500.052 129.473 494.307 126.484C501.421 124.901 501.749 122.516 501.749 122.516ZM536.973 145.833C536.973 145.833 512.489 146.464 504.724 141.364C504.724 141.364 509.844 141.656 517.131 140.869C532.573 145.104 536.973 145.833 536.973 145.833ZM486.864 131.443C486.864 131.443 496.26 133.547 511.672 139.38C496.027 139.027 488.276 135.833 483.885 134.421C484.907 133.713 486.864 131.443 486.864 131.443Z" fill="url(#paint2_linear_4_4926)"/>
</g>
<path d="M3.67188 439.797V440.797H30.0469V439.797C25.6505 439.797 22.864 436.609 22.864 432.807V406.527H29.0521L46.8385 440.797H67.0109V439.797C62.6145 439.797 57.9265 437.109 56.1197 433.708L41.536 405.333C51.5265 402.932 56.4265 397.031 56.4265 388.656C56.4265 377.959 48.3385 370.869 30.2599 370.869H3.67188V371.864C8.07343 371.864 10.8745 375.057 10.8745 378.86V432.807C10.8745 436.609 8.07343 439.797 3.67188 439.797ZM22.864 404.527V372.864H27.8599C37.8495 372.864 43.9375 379.167 43.9375 388.656C43.9375 398.531 37.4479 404.527 27.8599 404.527H22.864ZM81.5932 371.864C85.9948 371.864 88.7973 375.057 88.7973 378.86V432.807C88.7973 436.609 85.9948 439.797 81.5932 439.797V440.797H128.661L128.948 438.989L130.855 426.005L129.355 425.812C128.26 433.615 122.667 438.797 116.964 438.797H100.786V400.839H109.375C113.964 400.839 117.771 405.027 117.771 411.636H118.959V388.041H117.771C117.771 394.651 113.964 398.839 109.375 398.839H100.786V372.864H115.964C121.667 372.864 127.26 378.052 128.355 385.855L129.855 385.661L127.953 372.672L127.661 370.869H81.5932V371.864ZM202.875 383.047C202.875 378.86 199.093 369.869 181.896 369.869C162.724 369.869 148.74 384.161 148.74 405.735C148.74 426.62 161.917 441.797 181.896 441.797C192.984 441.797 202.473 436.896 208.369 428.5V417.817C208.369 414.016 210.079 410.828 212.672 410.828V409.828H186.297V410.828C192.484 410.828 196.385 414.016 196.385 417.817V435.708C193.792 436.896 190.984 437.495 188.297 437.495C173.713 437.495 163.625 425.812 161.516 404.64C159.323 384.161 166.317 371.864 183.303 371.864C193.099 371.864 187.489 375.864 187.489 383.855C187.489 388.156 190.984 391.656 195.287 391.656C199.473 391.656 202.875 388.541 202.875 383.047ZM226.855 370.869V371.864C231.251 371.864 234.057 375.057 234.057 378.86V432.807C234.057 436.609 231.251 439.797 226.855 439.797V440.797H253.229V439.797C248.828 439.797 246.047 436.609 246.047 432.807V378.86C246.047 375.057 248.828 371.864 253.229 371.864V370.869H226.855ZM276.516 378.86V420.719C276.516 432.902 285.697 441.797 302.375 441.797C317.167 441.797 325.464 433.307 325.464 420.719V378.86C325.464 375.057 328.251 371.864 332.651 371.864V370.869H316.26V371.864C320.661 371.864 323.469 375.057 323.469 378.86V420.719C323.469 431 316.973 439.604 304.677 439.604C294.495 439.604 288.5 433.495 288.5 420.719V378.86C288.5 375.057 291.287 371.864 295.688 371.864V370.869H269.307V371.864C273.708 371.864 276.516 375.057 276.516 378.86ZM360.312 380.86C360.312 375.864 364.521 371.864 373.208 371.864C378.604 371.864 379.912 372.864 379.912 374.765C379.912 376.765 377.511 379.76 377.511 383.855C377.511 388.948 382.005 391.656 386.287 391.656C390.495 391.656 393.896 388.541 393.896 383.047C393.896 378.86 390.093 369.869 372.917 369.869C361.027 369.869 350.823 374.959 350.823 385.855C350.823 405.927 386 412.636 386 426.62C386 433.208 381.412 438.797 372.917 438.797C362.219 438.797 353.323 433.902 348.636 427.12L346.443 428.5C352.823 436.995 361.812 441.797 372.917 441.797C387.901 441.797 396.489 433.115 396.489 423.312C396.489 402.74 360.312 395.651 360.312 380.86ZM413.375 370.869V371.864C417.755 371.864 420.563 375.057 420.563 378.86V432.807C420.563 436.609 417.755 439.797 413.375 439.797V440.797H460.427L460.713 438.989L462.615 426.005L461.12 425.812C460.021 433.615 454.432 438.797 448.724 438.797H432.552V378.86C432.552 375.057 435.355 371.864 439.735 371.864V370.869H413.375ZM541.036 439.797C536.64 439.797 532.448 436.896 531.145 433.307L508.38 370.869H506.38L485.401 433.208C484.193 436.803 480.099 439.797 475.697 439.797V440.797H492.088V439.797C487.688 439.797 486.188 436.803 487.401 433.208L494.891 410.828H509.973L518.156 433.307C519.464 436.896 518.063 439.797 513.661 439.797V440.797H541.036V439.797ZM495.584 408.828L502.079 389.443L509.167 408.828H495.584ZM555.427 439.797V440.797H584.995C602.573 440.797 611.177 433.708 611.177 422.625C611.177 413.516 605.375 406.833 592.484 405.027C601.688 402.432 606.183 396.651 606.183 388.656C606.183 377.959 598.079 370.869 580 370.869H555.427V371.864C559.828 371.864 562.615 375.057 562.615 378.86V432.807C562.615 436.609 559.828 439.797 555.427 439.797ZM574.599 438.797V406.527H582.593C592.584 406.527 598.693 413.131 598.693 422.625C598.693 432.5 592.197 438.797 582.593 438.797H574.599ZM574.599 404.527V372.864H577.599C587.588 372.864 593.697 379.167 593.697 388.656C593.697 398.531 587.203 404.527 577.599 404.527H574.599Z" fill="white"/>
<path d="M269.693 238.855V240.099H302.661V238.855C297.167 238.855 293.672 234.855 293.672 230.109V197.26H301.412L323.64 240.099H348.864V238.855C343.369 238.855 337.511 235.469 335.245 231.224L317.031 195.781C329.5 192.765 335.631 185.407 335.631 174.917C335.631 161.563 325.505 152.688 302.912 152.688H269.693V153.937C275.188 153.937 278.688 157.932 278.688 162.677V230.109C278.688 234.855 275.188 238.855 269.693 238.855ZM293.672 194.76V155.188H299.917C312.401 155.188 320.031 163.041 320.031 174.917C320.031 187.271 311.901 194.76 299.917 194.76H293.672Z" fill="white"/>
<defs>
<linearGradient id="paint0_linear_4_4926" x1="179.296" y1="179.298" x2="436.699" y2="179.298" gradientUnits="userSpaceOnUse">
<stop stop-color="#604212"/>
<stop offset="0.5201" stop-color="#AF7B20"/>
<stop offset="0.994975" stop-color="#604212"/>
<stop offset="1" stop-color="#604212"/>
</linearGradient>
<linearGradient id="paint1_linear_4_4926" x1="0.632456" y1="187.509" x2="615.364" y2="187.509" gradientUnits="userSpaceOnUse">
<stop stop-color="#604212"/>
<stop offset="0.183417" stop-color="#D7AC45"/>
<stop offset="0.354271" stop-color="#AF7B20"/>
<stop offset="0.417085" stop-color="#604212"/>
<stop offset="0.650754" stop-color="#AF7B20"/>
<stop offset="0.841708" stop-color="#D7AC45"/>
<stop offset="0.994975" stop-color="#604212"/>
<stop offset="1" stop-color="#604212"/>
</linearGradient>
<linearGradient id="paint2_linear_4_4926" x1="18.0444" y1="122.114" x2="597.953" y2="122.114" gradientUnits="userSpaceOnUse">
<stop stop-color="#604212"/>
<stop offset="0.113065" stop-color="#AF7B20"/>
<stop offset="0.273869" stop-color="#EFCA5A"/>
<stop offset="0.379397" stop-color="#AF7B20"/>
<stop offset="0.650754" stop-color="#AF7B20"/>
<stop offset="0.761307" stop-color="#EFCA5A"/>
<stop offset="0.896985" stop-color="#D7AC45"/>
<stop offset="0.994975" stop-color="#604212"/>
<stop offset="1" stop-color="#604212"/>
</linearGradient>
</defs>
</svg>
