<svg width="278" height="194" viewBox="0 0 278 194" fill="none" xmlns="http://www.w3.org/2000/svg">
<mask id="mask0_129_1618" style="mask-type:luminance" maskUnits="userSpaceOnUse" x="80" y="10" width="117" height="137">
<path d="M191.189 44.6214C192.941 43.5946 194.536 42.1553 195.726 40.6608C195.879 42.3037 196.036 44.0434 196.184 45.8747C194.852 47.4841 193.239 49.5331 192.03 51.3667C191.811 49.1687 191.532 46.9203 191.189 44.6214ZM190.663 37.7611C189.513 39.5102 187.82 41.8619 186.045 43.5529C162.105 49.3952 140.28 36.283 138.57 35.2239C136.858 36.2854 115.033 49.3952 91.0942 43.5488C89.3185 41.8595 87.6257 39.5078 86.4752 37.7587C93.9657 40.3926 101.796 40.6766 109.048 39.8123C105.676 38.9921 102.177 37.365 98.643 34.7176C117.221 43.4684 132.179 30.7042 133.313 21.6166C134.45 12.5307 122.354 10.9195 122.354 10.9195C122.354 10.9195 137.14 7.84143 138.57 17.6237C140.001 7.84143 154.787 10.9195 154.787 10.9195C154.787 10.9195 142.691 12.5307 143.828 21.6166C144.962 30.7042 159.92 43.4684 178.498 34.7176C174.962 37.365 171.463 38.9921 168.088 39.8123C175.34 40.679 183.173 40.395 190.663 37.7611ZM138.57 20.7893C137.993 25.0544 135.171 30.0071 130.862 33.8785C134.938 32.1781 137.69 30.6884 138.457 30.2595V30.1333C138.457 30.1333 138.498 30.1562 138.57 30.1955C138.641 30.1562 138.683 30.1333 138.683 30.1333V30.2595C139.453 30.6907 142.205 32.1781 146.282 33.8785C141.97 30.0071 139.148 25.0544 138.57 20.7893ZM80.957 45.8747C81.1048 44.0434 81.2623 42.3037 81.415 40.6608C82.6052 42.1553 84.2 43.5946 85.9516 44.6214C85.609 46.9203 85.3295 49.1687 85.1107 51.3643C83.9018 49.5331 82.2884 47.4841 80.957 45.8747ZM138.57 141.671C141.205 140.92 189.738 126.278 192.518 68.6412C193.767 69.1499 195.186 69.5307 196.595 69.4897C194.888 96.6862 183.84 129.364 138.683 146.423C138.683 146.45 138.683 146.477 138.683 146.507C138.646 146.494 138.608 146.477 138.57 146.464C138.533 146.477 138.495 146.494 138.457 146.507C138.457 146.477 138.457 146.45 138.457 146.42C93.3009 129.364 82.2512 96.6862 80.5464 69.4897C81.9524 69.5307 83.3734 69.1499 84.6202 68.6412C87.4027 126.29 135.954 140.927 138.57 141.671Z" fill="white"/>
</mask>
<g mask="url(#mask0_129_1618)">
<path d="M191.189 44.6214C192.941 43.5946 194.536 42.1553 195.726 40.6608C195.879 42.3037 196.036 44.0434 196.184 45.8747C194.852 47.4841 193.239 49.5331 192.03 51.3667C191.811 49.1687 191.532 46.9203 191.189 44.6214ZM190.663 37.7611C189.513 39.5102 187.82 41.8619 186.045 43.5529C162.105 49.3952 140.28 36.283 138.57 35.2239C136.858 36.2854 115.033 49.3952 91.0942 43.5488C89.3185 41.8595 87.6257 39.5078 86.4752 37.7587C93.9657 40.3926 101.796 40.6766 109.048 39.8123C105.676 38.9921 102.177 37.365 98.643 34.7176C117.221 43.4684 132.179 30.7042 133.313 21.6166C134.45 12.5307 122.354 10.9195 122.354 10.9195C122.354 10.9195 137.14 7.84143 138.57 17.6237C140.001 7.84143 154.787 10.9195 154.787 10.9195C154.787 10.9195 142.691 12.5307 143.828 21.6166C144.962 30.7042 159.92 43.4684 178.498 34.7176C174.962 37.365 171.463 38.9921 168.088 39.8123C175.34 40.679 183.173 40.395 190.663 37.7611ZM138.57 20.7893C137.993 25.0544 135.171 30.0071 130.862 33.8785C134.938 32.1781 137.69 30.6884 138.457 30.2595V30.1333C138.457 30.1333 138.498 30.1562 138.57 30.1955C138.641 30.1562 138.683 30.1333 138.683 30.1333V30.2595C139.453 30.6907 142.205 32.1781 146.282 33.8785C141.97 30.0071 139.148 25.0544 138.57 20.7893ZM80.957 45.8747C81.1048 44.0434 81.2623 42.3037 81.415 40.6608C82.6052 42.1553 84.2 43.5946 85.9516 44.6214C85.609 46.9203 85.3295 49.1687 85.1107 51.3643C83.9018 49.5331 82.2884 47.4841 80.957 45.8747ZM138.57 141.671C141.205 140.92 189.738 126.278 192.518 68.6412C193.767 69.1499 195.186 69.5307 196.595 69.4897C194.888 96.6862 183.84 129.364 138.683 146.423C138.683 146.45 138.683 146.477 138.683 146.507C138.646 146.494 138.608 146.477 138.57 146.464C138.533 146.477 138.495 146.494 138.457 146.507C138.457 146.477 138.457 146.45 138.457 146.42C93.3009 129.364 82.2512 96.6862 80.5464 69.4897C81.9524 69.5307 83.3734 69.1499 84.6202 68.6412C87.4027 126.29 135.954 140.927 138.57 141.671Z" fill="url(#paint0_linear_129_1618)"/>
</g>
<mask id="mask1_129_1618" style="mask-type:luminance" maskUnits="userSpaceOnUse" x="0" y="16" width="278" height="132">
<path d="M249.407 120.307C216.364 115.439 192.125 119.008 178.276 129.04C186.56 120.266 186.454 118.506 189.46 109.17C192.465 99.8349 195.356 91.4831 209.59 80.5684C199.911 89.2529 193.71 110.699 193.71 110.699C193.71 110.699 200.745 100.823 217.867 105.46C234.989 110.094 258.194 113.152 259.92 87.9925C262.331 109.184 249.682 113.252 232.407 111.572C215.59 109.938 198.051 105.684 192.815 116.159C206.16 112.496 228.126 111.818 249.184 116.159C270.242 120.497 277.143 111.79 277.143 111.79C277.143 111.79 276.913 124.357 249.407 120.307ZM140.696 135.373C172.07 125.675 185.658 93.0139 185.658 93.0139C181.044 110.644 166.979 130.064 140.696 135.373ZM157.92 25.7646C153.439 19.4294 161.052 16.5943 161.052 16.5943C156.441 23.3466 162.429 25.9917 167.314 23.8001C172.201 21.6092 182.692 23.3261 181.183 29.0398C176.447 19.9018 162.4 32.1021 157.92 25.7646ZM91.4847 93.0139C91.4847 93.0139 105.073 125.675 136.446 135.373C110.164 130.064 96.0989 110.644 91.4847 93.0139ZM95.96 29.0398C94.4506 23.3261 104.942 21.6092 109.828 23.8001C114.714 25.9917 120.702 23.3466 116.091 16.5943C116.091 16.5943 123.703 19.4294 119.223 25.7646C114.743 32.1021 100.696 19.9018 95.96 29.0398ZM27.7357 120.307C0.229646 124.357 0 111.79 0 111.79C0 111.79 6.90086 120.497 27.9585 116.159C49.0169 111.818 70.983 112.496 84.3278 116.159C79.0915 105.684 61.5533 109.938 44.7358 111.572C27.461 113.252 14.8117 109.184 17.2232 87.9925C18.9491 113.152 42.1534 110.094 59.2756 105.46C76.3979 100.823 83.4327 110.699 83.4327 110.699C83.4327 110.699 77.2316 89.2529 67.5524 80.5684C81.7869 91.4831 84.6776 99.8349 87.6832 109.17C90.6888 118.506 90.583 120.266 98.867 129.04C85.0179 119.008 60.7784 115.439 27.7357 120.307ZM131.079 147.598C131.079 147.598 83.9425 129.145 26.1697 132.097C70.3939 125.7 102.725 128.902 131.079 147.598ZM250.973 132.097C193.2 129.145 146.064 147.598 146.064 147.598C174.418 128.902 206.749 125.7 250.973 132.097Z" fill="white"/>
</mask>
<g mask="url(#mask1_129_1618)">
<path d="M249.407 120.307C216.364 115.439 192.125 119.008 178.276 129.04C186.56 120.266 186.454 118.506 189.46 109.17C192.465 99.8349 195.356 91.4831 209.59 80.5684C199.911 89.2529 193.71 110.699 193.71 110.699C193.71 110.699 200.745 100.823 217.867 105.46C234.989 110.094 258.194 113.152 259.92 87.9925C262.331 109.184 249.682 113.252 232.407 111.572C215.59 109.938 198.051 105.684 192.815 116.159C206.16 112.496 228.126 111.818 249.184 116.159C270.242 120.497 277.143 111.79 277.143 111.79C277.143 111.79 276.913 124.357 249.407 120.307ZM140.696 135.373C172.07 125.675 185.658 93.0139 185.658 93.0139C181.044 110.644 166.979 130.064 140.696 135.373ZM157.92 25.7646C153.439 19.4294 161.052 16.5943 161.052 16.5943C156.441 23.3466 162.429 25.9917 167.314 23.8001C172.201 21.6092 182.692 23.3261 181.183 29.0398C176.447 19.9018 162.4 32.1021 157.92 25.7646ZM91.4847 93.0139C91.4847 93.0139 105.073 125.675 136.446 135.373C110.164 130.064 96.0989 110.644 91.4847 93.0139ZM95.96 29.0398C94.4506 23.3261 104.942 21.6092 109.828 23.8001C114.714 25.9917 120.702 23.3466 116.091 16.5943C116.091 16.5943 123.703 19.4294 119.223 25.7646C114.743 32.1021 100.696 19.9018 95.96 29.0398ZM27.7357 120.307C0.229646 124.357 0 111.79 0 111.79C0 111.79 6.90086 120.497 27.9585 116.159C49.0169 111.818 70.983 112.496 84.3278 116.159C79.0915 105.684 61.5533 109.938 44.7358 111.572C27.461 113.252 14.8117 109.184 17.2232 87.9925C18.9491 113.152 42.1534 110.094 59.2756 105.46C76.3979 100.823 83.4327 110.699 83.4327 110.699C83.4327 110.699 77.2316 89.2529 67.5524 80.5684C81.7869 91.4831 84.6776 99.8349 87.6832 109.17C90.6888 118.506 90.583 120.266 98.867 129.04C85.0179 119.008 60.7784 115.439 27.7357 120.307ZM131.079 147.598C131.079 147.598 83.9425 129.145 26.1697 132.097C70.3939 125.7 102.725 128.902 131.079 147.598ZM250.973 132.097C193.2 129.145 146.064 147.598 146.064 147.598C174.418 128.902 206.749 125.7 250.973 132.097Z" fill="url(#paint1_linear_129_1618)"/>
</g>
<mask id="mask2_129_1618" style="mask-type:luminance" maskUnits="userSpaceOnUse" x="7" y="0" width="263" height="107">
<path d="M268.868 12.6656C267.568 22.2255 261.072 24.5954 251.868 30.568C242.663 36.5434 231.993 40.8913 227.485 41.9228C227.353 42.34 225.257 44.9827 225.472 44.978C225.689 44.9756 229.242 43.8415 234.644 41.9228C233.128 46.7564 227.53 47.8226 222.789 49.7823C223.89 49.8715 228.38 50 228.38 50C228.38 50 227.29 51.593 226.591 51.9662C225.893 52.3376 222.565 52.4016 222.565 52.4016L225.249 53.2753C225.249 53.2753 225.071 53.4055 223.907 53.9306C221.932 54.8202 218.985 54.1483 218.985 54.1483C218.985 54.1483 219.004 54.3337 220.777 55.0214C219.882 55.6246 215.632 56.1151 215.632 56.1151C215.632 56.1151 216.426 56.2342 218.539 56.9882C217.895 57.5356 216.527 58.079 216.527 58.079C216.527 58.079 215.528 57.7997 210.196 58.4962C211.706 58.3976 215.183 60.9165 215.183 60.9165C215.183 60.9165 214.197 60.9165 210.262 61.3542C206.329 61.7896 204.894 66.3762 204.894 66.3762C204.894 66.3762 206.709 63.896 210.71 64.1918C214.709 64.4898 216.301 62.8833 216.301 62.8833C216.301 62.8833 215.895 62.5348 220.777 64.8472C219.077 63.3093 216.75 61.5719 216.75 61.5719C216.75 61.5719 218.834 61.7209 224.355 63.7564C229.876 65.7918 234.133 71.0057 234.196 76.4197C234.262 81.8336 231.442 82.8329 230.171 85.3723C228.899 87.9118 233.823 92.347 234.196 93.2313C234.569 94.1161 231.937 98.3818 231.066 99.7818C230.192 101.18 230.314 105.661 229.946 106.333C229.579 107.004 225.973 106.387 225.696 106.115C225.421 105.84 227.551 104.118 227.933 103.713C228.316 103.305 229.481 101.508 228.828 99.5641C228.175 97.6208 229.436 95.8558 229.275 94.7603C229.115 93.6625 224.475 89.6398 222.117 86.6808C219.759 83.7241 222.228 79.0465 220.105 73.7998C217.98 68.5513 211.605 67.467 211.605 67.467C211.605 67.467 214.545 68.6569 217.196 75.1089C211.203 77.3637 204.13 73.3668 201.844 71.9046C202.956 72.5348 205.472 73.6302 210.487 74.4552C204.575 72.5577 201.092 67.2493 201.092 67.2493C201.092 67.2493 202.083 66.8139 202.433 66.1585C202.783 65.5008 204.222 60.4811 204.222 60.4811C204.222 60.4811 203.269 61.9345 201.315 63.9741C199.362 66.0142 197.697 67.9693 195.276 65.9385C192.853 63.9101 186.513 57.6231 185.658 58.2967C184.801 58.9732 181.382 62.9314 180.737 63.7564C180.091 64.5814 180.417 65.5008 180.065 66.3762C179.712 67.2517 177.83 66.784 177.158 66.8116C176.484 66.8415 177.785 64.2146 178.499 62.6656C179.212 61.1137 183.559 56.6555 184.092 55.2414C184.622 53.825 187.024 53.5733 187.894 53.713C188.765 53.8503 188.471 56.4425 190.803 57.4236C193.132 58.407 197.375 61.6224 199.3 60.2635C197.807 59.246 197.594 55.2004 201.987 53.4953C199.624 53.8849 195.795 54.0451 194.156 57.2059C194.053 53.4747 199.526 48.4733 199.526 48.4733C199.526 48.4733 195.553 50.9118 193.933 53.2753C194.638 48.4891 200.775 45.9015 203.104 43.4519C205.434 40.9992 206.683 36.9008 206.683 36.9008C206.683 36.9008 207.237 39.963 206.011 42.7959C209.515 38.049 207.355 32.7524 207.355 32.7524C207.355 32.7524 206.819 35.4615 205.565 36.6807C204.311 37.9024 199.279 37.1232 197.737 37.7744C196.191 38.4251 196.077 39.7729 195.722 39.956C195.37 40.1396 195.499 38.6475 195.499 38.6475C195.499 38.6475 194.82 39.3786 194.156 39.956C193.494 40.5363 192.996 38.6657 192.367 38.4275C191.74 38.1916 191.618 36.9653 192.592 36.2454C193.564 35.526 196.234 32.7753 196.842 31.6593C197.448 30.5433 197.007 29.5898 201.092 28.1664C205.176 26.7429 205.892 20.7839 206.011 20.9622C208.514 24.6664 206.46 29.9126 206.46 29.9126C206.46 29.9126 207.428 29.0923 208.695 28.1664C212.64 31.2832 215.19 35.7003 215.183 40.1766C215.177 44.65 213.41 48.4322 211.156 51.7462C208.904 55.0631 206.638 55.3793 204.671 58.7344C205.161 57.8361 209.614 56.5986 214.737 53.9306C219.859 51.2627 223.39 44.7926 224.13 42.7959C224.871 40.7997 225.228 37.9552 226.368 37.5544C227.506 37.1554 246.158 26.287 256.118 20.3069C266.079 14.3249 269.091 4.14831 269.091 4.14831C269.091 4.14831 269.671 6.75465 268.868 12.6656ZM200.644 31.224C200.219 31.2011 199.077 31.8794 199.077 31.8794L199.526 32.097C199.526 32.097 199.188 32.4039 199.3 33.1878C199.702 32.6562 201.761 31.4416 201.761 31.4416C201.761 31.4416 201.069 31.2468 200.644 31.224ZM201.844 71.9046C201.301 71.5948 201.092 71.3977 201.092 71.3977C201.092 71.3977 201.362 71.5948 201.844 71.9046ZM228.38 33.6255C233.398 29.6562 237.105 18.7784 237.105 18.7784C238.824 24.2698 235.09 29.4772 235.09 29.4772C235.09 29.4772 233.835 31.4921 228.38 33.6255ZM223.012 28.8218C223.012 28.8218 235.022 13.9629 232.63 -3.8147e-05C240.707 7.85011 234.691 25.5237 223.012 35.3723C225.552 30.4236 223.012 28.8218 223.012 28.8218ZM218.539 42.7959C218.539 42.7959 218.499 40.8361 215.855 37.9921C215.566 37.2194 215.183 34.2815 215.183 34.2815C220.074 38.5378 218.539 42.7959 218.539 42.7959ZM214.512 49.5646C216.942 46.2477 215.855 39.3029 215.855 39.3029C217.799 40.7399 218.83 48.0197 214.512 49.5646ZM217.196 32.9701C219.52 34.3478 220.922 37.6483 220.777 40.3943C218.388 36.1814 215.88 33.243 213.394 31.8794C215.768 32.4133 215.855 32.3147 215.855 32.3147C215.855 32.3147 211.424 29.4567 210.039 27.731C210.039 27.731 215.27 29.2137 218.985 28.6041C217.604 30.2059 215.183 29.6949 215.183 29.6949C215.183 29.6949 219.424 33.4882 222.565 31.6593C221.789 34.4053 219.145 33.5182 217.196 32.9701ZM210.933 25.3289C214.89 25.9978 216.75 27.2927 216.75 27.2927C216.75 27.2927 211.196 28.1065 208.249 25.5465C208.249 25.5465 208.921 23.3785 212.051 23.5821C215.183 23.784 217.421 25.5465 217.421 25.5465C217.421 25.5465 212.812 24.5725 210.933 25.3289ZM201.761 26.8573C201.179 24.4992 201.315 22.0536 201.315 22.0536C201.315 22.0536 203.257 23.6302 203.328 24.6735C203.328 24.6735 201.919 26.9172 201.761 26.8573ZM99.985 66.8116C99.313 66.784 97.4303 67.2517 97.078 66.3762C96.7258 65.5008 97.0522 64.5814 96.406 63.7564C95.7604 62.9314 92.3418 58.9732 91.4846 58.2967C90.6298 57.6231 84.2898 63.9101 81.8667 65.9385C79.446 67.9693 77.7809 66.0142 75.8273 63.9741C73.8737 61.9345 72.9203 60.4811 72.9203 60.4811C72.9203 60.4811 74.36 65.5008 74.7098 66.1585C75.0597 66.8139 76.0503 67.2493 76.0503 67.2493C76.0503 67.2493 72.568 72.5577 66.6554 74.4552C71.6712 73.6302 74.1863 72.5348 75.2989 71.9046C73.0123 73.3668 65.9395 77.3637 59.947 75.1089C62.5979 68.6569 65.538 67.467 65.538 67.467C65.538 67.467 59.1625 68.5513 57.0375 73.7998C54.915 79.0465 57.3831 83.7241 55.0256 86.6808C52.6681 89.6398 48.028 93.6625 47.8681 94.7603C47.7063 95.8558 48.9675 97.6208 48.3148 99.5641C47.6619 101.508 48.8264 103.305 49.2091 103.713C49.5921 104.118 51.7218 105.84 51.4466 106.115C51.1701 106.387 47.5634 107.004 47.1968 106.333C46.8281 105.661 46.9502 101.18 46.0767 99.7818C45.2058 98.3818 42.5736 94.1161 42.9467 93.2313C43.3201 92.347 48.2438 87.9118 46.9714 85.3723C45.701 82.8329 42.8807 81.8336 42.9467 76.4197C43.0099 71.0057 47.267 65.7918 52.7877 63.7564C58.3083 61.7209 60.393 61.5719 60.393 61.5719C60.393 61.5719 58.066 63.3093 56.3662 64.8472C61.2478 62.5348 60.8414 62.8833 60.8414 62.8833C60.8414 62.8833 62.4338 64.4898 66.4324 64.1918C70.4335 63.896 72.2489 66.3762 72.2489 66.3762C72.2489 66.3762 70.814 61.7896 66.8809 61.3542C62.9454 60.9165 61.9595 60.9165 61.9595 60.9165C61.9595 60.9165 65.437 58.3976 66.947 58.4962C61.6145 57.7997 60.616 58.079 60.616 58.079C60.616 58.079 59.2473 57.5356 58.6041 56.9882C60.717 56.2342 61.5111 56.1151 61.5111 56.1151C61.5111 56.1151 57.2606 55.6246 56.3662 55.0214C58.1388 54.3337 58.1581 54.1483 58.1581 54.1483C58.1581 54.1483 55.2107 54.8202 53.2362 53.9306C52.0717 53.4055 51.8933 53.2753 51.8933 53.2753L54.5771 52.4016C54.5771 52.4016 51.2494 52.3376 50.552 51.9662C49.8549 51.593 48.7632 50 48.7632 50C48.7632 50 53.2523 49.8715 54.3536 49.7823C49.6132 47.8226 44.0148 46.7564 42.4985 41.9228C47.9012 43.8415 51.4537 44.9756 51.6702 44.978C51.886 44.9827 49.7894 42.34 49.6576 41.9228C45.1492 40.8913 34.4794 36.5434 25.2745 30.568C16.0701 24.5954 9.57507 22.2255 8.27444 12.6656C7.47116 6.75465 8.05136 4.14831 8.05136 4.14831C8.05136 4.14831 11.0642 14.3249 21.0247 20.3069C30.9851 26.287 49.6367 37.1554 50.7751 37.5544C51.9141 37.9552 52.2713 40.7997 53.0131 42.7959C53.7525 44.7926 57.284 51.2627 62.4056 53.9306C67.5289 56.5986 71.9814 57.8361 72.4719 58.7344C70.5044 55.3793 68.2382 55.0631 65.9864 51.7462C63.7322 48.4322 61.9661 44.65 61.9595 40.1766C61.9523 35.7003 64.5022 31.2832 68.4474 28.1664C69.7151 29.0923 70.6823 29.9126 70.6823 29.9126C70.6823 29.9126 68.6283 24.6664 71.1314 20.9622C71.251 20.7839 71.9669 26.7429 76.0503 28.1664C80.1361 29.5898 79.6949 30.5433 80.3002 31.6593C80.9085 32.7753 83.5787 35.526 84.5507 36.2454C85.5251 36.9653 85.4031 38.1916 84.7761 38.4275C84.1468 38.6657 83.649 40.5363 82.9866 39.956C82.3224 39.3786 81.6437 38.6475 81.6437 38.6475C81.6437 38.6475 81.773 40.1396 81.4207 39.956C81.066 39.7729 80.9512 38.4251 79.4058 37.7744C77.8633 37.1232 72.8313 37.9024 71.5774 36.6807C70.3235 35.4615 69.7879 32.7524 69.7879 32.7524C69.7879 32.7524 67.6275 38.049 71.1314 42.7959C69.9057 39.963 70.4593 36.9008 70.4593 36.9008C70.4593 36.9008 71.709 40.9992 74.0384 43.4519C76.3677 45.9015 82.5051 48.4891 83.2096 53.2753C81.5896 50.9118 77.6168 48.4733 77.6168 48.4733C77.6168 48.4733 83.09 53.4747 82.9866 57.2059C81.348 54.0451 77.5182 53.8849 75.1559 53.4953C79.5488 55.2004 79.3354 59.246 77.8422 60.2635C79.7676 61.6224 84.0103 58.407 86.3396 57.4236C88.6714 56.4425 88.378 53.8503 89.2491 53.713C90.1183 53.5733 92.5203 53.825 93.0505 55.2414C93.5837 56.6555 97.9304 61.1137 98.6439 62.6656C99.358 64.2146 100.659 66.8415 99.985 66.8116ZM77.8422 33.1878C77.9547 32.4039 77.6168 32.097 77.6168 32.097L78.0653 31.8794C78.0653 31.8794 76.9237 31.2011 76.4987 31.224C76.0738 31.2468 75.3813 31.4416 75.3813 31.4416C75.3813 31.4416 77.4407 32.6562 77.8422 33.1878ZM75.2989 71.9046C75.7804 71.5948 76.0503 71.3977 76.0503 71.3977C76.0503 71.3977 75.8417 71.5948 75.2989 71.9046ZM73.8148 24.6735C73.8857 23.6302 75.8273 22.0536 75.8273 22.0536C75.8273 22.0536 75.9638 24.4992 75.3813 26.8573C75.2238 26.9172 73.8148 24.6735 73.8148 24.6735ZM60.393 27.2927C60.393 27.2927 62.2529 25.9978 66.2094 25.3289C64.3309 24.5725 59.7216 25.5465 59.7216 25.5465C59.7216 25.5465 61.9595 23.784 65.0919 23.5821C68.222 23.3785 68.8934 25.5465 68.8934 25.5465C65.9467 28.1065 60.393 27.2927 60.393 27.2927ZM61.9595 34.2815C61.9595 34.2815 61.5766 37.2194 61.2881 37.9921C58.6439 40.8361 58.6041 42.7959 58.6041 42.7959C58.6041 42.7959 57.0683 38.5378 61.9595 34.2815ZM61.2881 39.3029C61.2881 39.3029 60.2007 46.2477 62.631 49.5646C58.3125 48.0197 59.3433 40.7399 61.2881 39.3029ZM58.1581 28.6041C61.8724 29.2137 67.1039 27.731 67.1039 27.731C65.7189 29.4567 61.2881 32.3147 61.2881 32.3147C61.2881 32.3147 61.3746 32.4133 63.7484 31.8794C61.2622 33.243 58.7544 36.1814 56.3662 40.3943C56.2206 37.6483 57.6224 34.3478 59.947 32.9701C57.9981 33.5182 55.3539 34.4053 54.5771 31.6593C57.7187 33.4882 61.9595 29.6949 61.9595 29.6949C61.9595 29.6949 59.5382 30.2059 58.1581 28.6041ZM44.5127 -3.8147e-05C42.1202 13.9629 54.1306 28.8218 54.1306 28.8218C54.1306 28.8218 51.5904 30.4236 54.1306 35.3723C42.4515 25.5237 36.4353 7.85011 44.5127 -3.8147e-05ZM42.0523 29.4772C42.0523 29.4772 38.3188 24.2698 40.0374 18.7784C40.0374 18.7784 43.7451 29.6562 48.7632 33.6255C43.308 31.4921 42.0523 29.4772 42.0523 29.4772ZM40.2628 41.2674C40.7749 42.8187 42.4985 44.978 42.4985 44.978C42.4985 44.978 37.8818 44.0656 28.4069 40.612C18.9304 37.1601 11.0948 29.5781 10.9583 23.3621C15.7229 30.3573 32.8895 38.4023 40.2628 41.2674ZM33.775 47.3801C24.8148 47.389 15.002 41.1823 12.3012 35.1546C19.3554 39.0072 27.7356 42.5758 27.7356 42.5758C27.7356 42.5758 29.7595 46.4607 33.775 47.3801ZM33.1034 49.3464C33.1034 49.3464 35.1768 52.2619 38.4733 52.8399C31.3139 52.5964 23.5017 53.2659 18.5636 45.4157C26.6012 49.6356 33.1034 49.3464 33.1034 49.3464ZM37.5763 55.0214C37.5763 55.0214 40.1198 56.7083 43.8414 57.4236C35.6161 58.776 28.36 57.3913 24.1571 52.8399C29.5202 55.6657 37.5763 55.0214 37.5763 55.0214ZM35.3414 63.7564C35.3414 63.7564 37.3251 63.4354 44.2873 61.5719C47.5725 61.9181 49.8807 61.7896 49.8807 61.7896C46.3799 64.0339 35.3414 63.7564 35.3414 63.7564ZM59.2755 58.7344C57.296 59.3557 53.8018 60.761 46.7483 60.9165C53.6966 58.3495 57.9326 57.4236 57.9326 57.4236C57.9326 57.4236 58.815 58.4228 59.2755 58.7344ZM54.5771 55.2414C51.9869 56.5569 46.3136 57.0293 38.6969 54.3684C42.3571 54.4646 51.2217 53.4953 51.2217 53.4953C51.2217 53.4953 51.3696 54.545 54.5771 55.2414ZM42.7213 46.2888L45.4077 49.1263C45.4077 49.1263 33.9137 48.634 29.9733 42.7959C42.6487 46.4472 42.7213 46.2888 42.7213 46.2888ZM48.9863 52.4016C37.3535 54.1618 34.6694 49.1263 34.6694 49.1263C34.6694 49.1263 37.8067 50.0023 46.7483 50.22C46.7814 50.5386 48.9863 52.4016 48.9863 52.4016ZM38.4733 94.1049C38.4733 94.1049 32.9435 88.4686 33.1034 84.9346C33.2628 81.4 35.1178 80.1303 35.1178 80.1303C35.1178 80.1303 33.3638 82.0601 34.8924 85.3723C36.4234 88.6816 38.4733 94.1049 38.4733 94.1049ZM41.8269 73.1444C41.8269 73.1444 38.3399 74.5767 37.8018 78.1664C39.9742 75.0308 42.0523 75.5466 42.0523 75.5466C42.0523 75.5466 37.1563 77.5497 38.9199 82.9702C40.6829 88.3906 39.3684 94.3226 39.3684 94.3226C39.3684 94.3226 38.5742 89.344 36.236 85.1523C33.8971 80.9623 37.5763 76.8574 37.5763 76.8574C37.5763 76.8574 31.4787 80.0411 32.4321 85.8077C33.3877 91.5766 42.2026 94.9252 36.6819 103.713C37.8961 99.5506 37.9431 96.9718 34.8924 94.5427C37.1046 99.523 32.8806 101.746 32.8806 101.746C32.8806 101.746 35.8392 97.9253 31.3139 93.8873C26.7893 89.8486 24.5682 85.5096 28.4069 79.6949C32.244 73.8802 41.8269 73.1444 41.8269 73.1444ZM54.5934 90.0892C55.1849 89.1633 58.8174 85.0261 58.1581 79.0395C61.6542 80.8156 58.5662 87.8959 58.1581 89.0829C57.7584 90.2383 60.9569 95.8693 59.9332 97.6254C58.9564 99.3006 59.6207 100.818 59.867 101.148C60.1093 101.473 61.5015 102.775 61.2268 102.991C60.952 103.208 57.2 104.025 56.9908 103.504C56.7797 102.975 57.7138 99.1862 57.1596 97.9118C56.7231 96.9102 54.0037 91.0104 54.5934 90.0892ZM95.5115 65.5032C96.0092 66.2272 95.8872 75.5513 95.5115 76.202C95.1358 76.8503 92.9099 73.4976 92.3815 73.1444C91.8507 72.7912 93.321 71.2422 93.2759 70.3069C92.9219 69.9724 93.2759 67.687 93.2759 67.687C93.2759 67.687 92.3466 67.0821 91.933 66.8116C91.5201 66.5435 89.2659 66.7312 84.5507 65.9385L89.2491 63.3187C91.1486 63.3187 95.0162 64.7785 95.5115 65.5032ZM187.894 63.3187L192.592 65.9385C187.877 66.7312 185.623 66.5435 185.21 66.8116C184.796 67.0821 183.867 67.687 183.867 67.687C183.867 67.687 184.221 69.9724 183.867 70.3069C183.822 71.2422 185.292 72.7912 184.761 73.1444C184.233 73.4976 182.007 76.8503 181.631 76.202C181.255 75.5513 181.133 66.2272 181.631 65.5032C182.127 64.7785 185.994 63.3187 187.894 63.3187ZM217.21 97.6254C216.186 95.8693 219.384 90.2383 218.985 89.0829C218.576 87.8959 215.489 80.8156 218.985 79.0395C218.325 85.0261 221.958 89.1633 222.549 90.0892C223.139 91.0104 220.42 96.9102 219.983 97.9118C219.429 99.1862 220.363 102.975 220.152 103.504C219.943 104.025 216.191 103.208 215.916 102.991C215.641 102.775 217.033 101.473 217.276 101.148C217.522 100.818 218.186 99.3006 217.21 97.6254ZM244.039 84.9346C244.197 88.4686 238.669 94.1049 238.669 94.1049C238.669 94.1049 240.719 88.6816 242.25 85.3723C243.779 82.0601 242.025 80.1303 242.025 80.1303C242.025 80.1303 243.88 81.4 244.039 84.9346ZM239.341 78.1664C238.803 74.5767 235.316 73.1444 235.316 73.1444C235.316 73.1444 244.899 73.8802 248.736 79.6949C252.574 85.5096 250.353 89.8486 245.829 93.8873C241.304 97.9253 244.262 101.746 244.262 101.746C244.262 101.746 240.038 99.523 242.25 94.5427C239.2 96.9718 239.246 99.5506 240.461 103.713C234.94 94.9252 243.755 91.5766 244.711 85.8077C245.664 80.0411 239.566 76.8574 239.566 76.8574C239.566 76.8574 243.246 80.9623 240.907 85.1523C238.568 89.344 237.774 94.3226 237.774 94.3226C237.774 94.3226 236.46 88.3906 238.223 82.9702C239.986 77.5497 235.09 75.5466 235.09 75.5466C235.09 75.5466 237.168 75.0308 239.341 78.1664ZM233.301 57.4236C237.023 56.7083 239.566 55.0214 239.566 55.0214C239.566 55.0214 247.622 55.6657 252.986 52.8399C248.783 57.3913 241.527 58.776 233.301 57.4236ZM238.669 52.8399C241.966 52.2619 244.039 49.3464 244.039 49.3464C244.039 49.3464 250.542 49.6356 258.579 45.4157C253.641 53.2659 245.829 52.5964 238.669 52.8399ZM243.368 47.3801C247.383 46.4607 249.407 42.5758 249.407 42.5758C249.407 42.5758 257.787 39.0072 264.841 35.1546C262.141 41.1823 252.326 47.389 243.368 47.3801ZM266.184 23.3621C266.048 29.5781 258.212 37.1601 248.736 40.612C239.261 44.0656 234.644 44.978 234.644 44.978C234.644 44.978 236.368 42.8187 236.88 41.2674C244.253 38.4023 261.42 30.3573 266.184 23.3621ZM247.169 42.7959C243.229 48.634 231.735 49.1263 231.735 49.1263L234.421 46.2888C234.421 46.2888 234.494 46.4472 247.169 42.7959ZM242.473 49.1263C242.473 49.1263 239.789 54.1618 228.156 52.4016C228.156 52.4016 230.361 50.5386 230.394 50.22C239.336 50.0023 242.473 49.1263 242.473 49.1263ZM225.921 53.4953C225.921 53.4953 234.786 54.4646 238.446 54.3684C230.829 57.0293 225.156 56.5569 222.565 55.2414C225.773 54.545 225.921 53.4953 225.921 53.4953ZM241.801 63.7564C241.801 63.7564 230.763 64.0339 227.262 61.7896C227.262 61.7896 229.57 61.9181 232.855 61.5719C239.818 63.4354 241.801 63.7564 241.801 63.7564ZM219.21 57.4236C219.21 57.4236 223.446 58.3495 230.394 60.9165C223.341 60.761 219.847 59.3557 217.867 58.7344C218.328 58.4228 219.21 57.4236 219.21 57.4236Z" fill="white"/>
</mask>
<g mask="url(#mask2_129_1618)">
<path d="M268.868 12.6656C267.568 22.2255 261.072 24.5954 251.868 30.568C242.663 36.5434 231.993 40.8913 227.485 41.9228C227.353 42.34 225.257 44.9827 225.472 44.978C225.689 44.9756 229.242 43.8415 234.644 41.9228C233.128 46.7564 227.53 47.8226 222.789 49.7823C223.89 49.8715 228.38 50 228.38 50C228.38 50 227.29 51.593 226.591 51.9662C225.893 52.3376 222.565 52.4016 222.565 52.4016L225.249 53.2753C225.249 53.2753 225.071 53.4055 223.907 53.9306C221.932 54.8202 218.985 54.1483 218.985 54.1483C218.985 54.1483 219.004 54.3337 220.777 55.0214C219.882 55.6246 215.632 56.1151 215.632 56.1151C215.632 56.1151 216.426 56.2342 218.539 56.9882C217.895 57.5356 216.527 58.079 216.527 58.079C216.527 58.079 215.528 57.7997 210.196 58.4962C211.706 58.3976 215.183 60.9165 215.183 60.9165C215.183 60.9165 214.197 60.9165 210.262 61.3542C206.329 61.7896 204.894 66.3762 204.894 66.3762C204.894 66.3762 206.709 63.896 210.71 64.1918C214.709 64.4898 216.301 62.8833 216.301 62.8833C216.301 62.8833 215.895 62.5348 220.777 64.8472C219.077 63.3093 216.75 61.5719 216.75 61.5719C216.75 61.5719 218.834 61.7209 224.355 63.7564C229.876 65.7918 234.133 71.0057 234.196 76.4197C234.262 81.8336 231.442 82.8329 230.171 85.3723C228.899 87.9118 233.823 92.347 234.196 93.2313C234.569 94.1161 231.937 98.3818 231.066 99.7818C230.192 101.18 230.314 105.661 229.946 106.333C229.579 107.004 225.973 106.387 225.696 106.115C225.421 105.84 227.551 104.118 227.933 103.713C228.316 103.305 229.481 101.508 228.828 99.5641C228.175 97.6208 229.436 95.8558 229.275 94.7603C229.115 93.6625 224.475 89.6398 222.117 86.6808C219.759 83.7241 222.228 79.0465 220.105 73.7998C217.98 68.5513 211.605 67.467 211.605 67.467C211.605 67.467 214.545 68.6569 217.196 75.1089C211.203 77.3637 204.13 73.3668 201.844 71.9046C202.956 72.5348 205.472 73.6302 210.487 74.4552C204.575 72.5577 201.092 67.2493 201.092 67.2493C201.092 67.2493 202.083 66.8139 202.433 66.1585C202.783 65.5008 204.222 60.4811 204.222 60.4811C204.222 60.4811 203.269 61.9345 201.315 63.9741C199.362 66.0142 197.697 67.9693 195.276 65.9385C192.853 63.9101 186.513 57.6231 185.658 58.2967C184.801 58.9732 181.382 62.9314 180.737 63.7564C180.091 64.5814 180.417 65.5008 180.065 66.3762C179.712 67.2517 177.83 66.784 177.158 66.8116C176.484 66.8415 177.785 64.2146 178.499 62.6656C179.212 61.1137 183.559 56.6555 184.092 55.2414C184.622 53.825 187.024 53.5733 187.894 53.713C188.765 53.8503 188.471 56.4425 190.803 57.4236C193.132 58.407 197.375 61.6224 199.3 60.2635C197.807 59.246 197.594 55.2004 201.987 53.4953C199.624 53.8849 195.795 54.0451 194.156 57.2059C194.053 53.4747 199.526 48.4733 199.526 48.4733C199.526 48.4733 195.553 50.9118 193.933 53.2753C194.638 48.4891 200.775 45.9015 203.104 43.4519C205.434 40.9992 206.683 36.9008 206.683 36.9008C206.683 36.9008 207.237 39.963 206.011 42.7959C209.515 38.049 207.355 32.7524 207.355 32.7524C207.355 32.7524 206.819 35.4615 205.565 36.6807C204.311 37.9024 199.279 37.1232 197.737 37.7744C196.191 38.4251 196.077 39.7729 195.722 39.956C195.37 40.1396 195.499 38.6475 195.499 38.6475C195.499 38.6475 194.82 39.3786 194.156 39.956C193.494 40.5363 192.996 38.6657 192.367 38.4275C191.74 38.1916 191.618 36.9653 192.592 36.2454C193.564 35.526 196.234 32.7753 196.842 31.6593C197.448 30.5433 197.007 29.5898 201.092 28.1664C205.176 26.7429 205.892 20.7839 206.011 20.9622C208.514 24.6664 206.46 29.9126 206.46 29.9126C206.46 29.9126 207.428 29.0923 208.695 28.1664C212.64 31.2832 215.19 35.7003 215.183 40.1766C215.177 44.65 213.41 48.4322 211.156 51.7462C208.904 55.0631 206.638 55.3793 204.671 58.7344C205.161 57.8361 209.614 56.5986 214.737 53.9306C219.859 51.2627 223.39 44.7926 224.13 42.7959C224.871 40.7997 225.228 37.9552 226.368 37.5544C227.506 37.1554 246.158 26.287 256.118 20.3069C266.079 14.3249 269.091 4.14831 269.091 4.14831C269.091 4.14831 269.671 6.75465 268.868 12.6656ZM200.644 31.224C200.219 31.2011 199.077 31.8794 199.077 31.8794L199.526 32.097C199.526 32.097 199.188 32.4039 199.3 33.1878C199.702 32.6562 201.761 31.4416 201.761 31.4416C201.761 31.4416 201.069 31.2468 200.644 31.224ZM201.844 71.9046C201.301 71.5948 201.092 71.3977 201.092 71.3977C201.092 71.3977 201.362 71.5948 201.844 71.9046ZM228.38 33.6255C233.398 29.6562 237.105 18.7784 237.105 18.7784C238.824 24.2698 235.09 29.4772 235.09 29.4772C235.09 29.4772 233.835 31.4921 228.38 33.6255ZM223.012 28.8218C223.012 28.8218 235.022 13.9629 232.63 -3.8147e-05C240.707 7.85011 234.691 25.5237 223.012 35.3723C225.552 30.4236 223.012 28.8218 223.012 28.8218ZM218.539 42.7959C218.539 42.7959 218.499 40.8361 215.855 37.9921C215.566 37.2194 215.183 34.2815 215.183 34.2815C220.074 38.5378 218.539 42.7959 218.539 42.7959ZM214.512 49.5646C216.942 46.2477 215.855 39.3029 215.855 39.3029C217.799 40.7399 218.83 48.0197 214.512 49.5646ZM217.196 32.9701C219.52 34.3478 220.922 37.6483 220.777 40.3943C218.388 36.1814 215.88 33.243 213.394 31.8794C215.768 32.4133 215.855 32.3147 215.855 32.3147C215.855 32.3147 211.424 29.4567 210.039 27.731C210.039 27.731 215.27 29.2137 218.985 28.6041C217.604 30.2059 215.183 29.6949 215.183 29.6949C215.183 29.6949 219.424 33.4882 222.565 31.6593C221.789 34.4053 219.145 33.5182 217.196 32.9701ZM210.933 25.3289C214.89 25.9978 216.75 27.2927 216.75 27.2927C216.75 27.2927 211.196 28.1065 208.249 25.5465C208.249 25.5465 208.921 23.3785 212.051 23.5821C215.183 23.784 217.421 25.5465 217.421 25.5465C217.421 25.5465 212.812 24.5725 210.933 25.3289ZM201.761 26.8573C201.179 24.4992 201.315 22.0536 201.315 22.0536C201.315 22.0536 203.257 23.6302 203.328 24.6735C203.328 24.6735 201.919 26.9172 201.761 26.8573ZM99.985 66.8116C99.313 66.784 97.4303 67.2517 97.078 66.3762C96.7258 65.5008 97.0522 64.5814 96.406 63.7564C95.7604 62.9314 92.3418 58.9732 91.4846 58.2967C90.6298 57.6231 84.2898 63.9101 81.8667 65.9385C79.446 67.9693 77.7809 66.0142 75.8273 63.9741C73.8737 61.9345 72.9203 60.4811 72.9203 60.4811C72.9203 60.4811 74.36 65.5008 74.7098 66.1585C75.0597 66.8139 76.0503 67.2493 76.0503 67.2493C76.0503 67.2493 72.568 72.5577 66.6554 74.4552C71.6712 73.6302 74.1863 72.5348 75.2989 71.9046C73.0123 73.3668 65.9395 77.3637 59.947 75.1089C62.5979 68.6569 65.538 67.467 65.538 67.467C65.538 67.467 59.1625 68.5513 57.0375 73.7998C54.915 79.0465 57.3831 83.7241 55.0256 86.6808C52.6681 89.6398 48.028 93.6625 47.8681 94.7603C47.7063 95.8558 48.9675 97.6208 48.3148 99.5641C47.6619 101.508 48.8264 103.305 49.2091 103.713C49.5921 104.118 51.7218 105.84 51.4466 106.115C51.1701 106.387 47.5634 107.004 47.1968 106.333C46.8281 105.661 46.9502 101.18 46.0767 99.7818C45.2058 98.3818 42.5736 94.1161 42.9467 93.2313C43.3201 92.347 48.2438 87.9118 46.9714 85.3723C45.701 82.8329 42.8807 81.8336 42.9467 76.4197C43.0099 71.0057 47.267 65.7918 52.7877 63.7564C58.3083 61.7209 60.393 61.5719 60.393 61.5719C60.393 61.5719 58.066 63.3093 56.3662 64.8472C61.2478 62.5348 60.8414 62.8833 60.8414 62.8833C60.8414 62.8833 62.4338 64.4898 66.4324 64.1918C70.4335 63.896 72.2489 66.3762 72.2489 66.3762C72.2489 66.3762 70.814 61.7896 66.8809 61.3542C62.9454 60.9165 61.9595 60.9165 61.9595 60.9165C61.9595 60.9165 65.437 58.3976 66.947 58.4962C61.6145 57.7997 60.616 58.079 60.616 58.079C60.616 58.079 59.2473 57.5356 58.6041 56.9882C60.717 56.2342 61.5111 56.1151 61.5111 56.1151C61.5111 56.1151 57.2606 55.6246 56.3662 55.0214C58.1388 54.3337 58.1581 54.1483 58.1581 54.1483C58.1581 54.1483 55.2107 54.8202 53.2362 53.9306C52.0717 53.4055 51.8933 53.2753 51.8933 53.2753L54.5771 52.4016C54.5771 52.4016 51.2494 52.3376 50.552 51.9662C49.8549 51.593 48.7632 50 48.7632 50C48.7632 50 53.2523 49.8715 54.3536 49.7823C49.6132 47.8226 44.0148 46.7564 42.4985 41.9228C47.9012 43.8415 51.4537 44.9756 51.6702 44.978C51.886 44.9827 49.7894 42.34 49.6576 41.9228C45.1492 40.8913 34.4794 36.5434 25.2745 30.568C16.0701 24.5954 9.57507 22.2255 8.27444 12.6656C7.47116 6.75465 8.05136 4.14831 8.05136 4.14831C8.05136 4.14831 11.0642 14.3249 21.0247 20.3069C30.9851 26.287 49.6367 37.1554 50.7751 37.5544C51.9141 37.9552 52.2713 40.7997 53.0131 42.7959C53.7525 44.7926 57.284 51.2627 62.4056 53.9306C67.5289 56.5986 71.9814 57.8361 72.4719 58.7344C70.5044 55.3793 68.2382 55.0631 65.9864 51.7462C63.7322 48.4322 61.9661 44.65 61.9595 40.1766C61.9523 35.7003 64.5022 31.2832 68.4474 28.1664C69.7151 29.0923 70.6823 29.9126 70.6823 29.9126C70.6823 29.9126 68.6283 24.6664 71.1314 20.9622C71.251 20.7839 71.9669 26.7429 76.0503 28.1664C80.1361 29.5898 79.6949 30.5433 80.3002 31.6593C80.9085 32.7753 83.5787 35.526 84.5507 36.2454C85.5251 36.9653 85.4031 38.1916 84.7761 38.4275C84.1468 38.6657 83.649 40.5363 82.9866 39.956C82.3224 39.3786 81.6437 38.6475 81.6437 38.6475C81.6437 38.6475 81.773 40.1396 81.4207 39.956C81.066 39.7729 80.9512 38.4251 79.4058 37.7744C77.8633 37.1232 72.8313 37.9024 71.5774 36.6807C70.3235 35.4615 69.7879 32.7524 69.7879 32.7524C69.7879 32.7524 67.6275 38.049 71.1314 42.7959C69.9057 39.963 70.4593 36.9008 70.4593 36.9008C70.4593 36.9008 71.709 40.9992 74.0384 43.4519C76.3677 45.9015 82.5051 48.4891 83.2096 53.2753C81.5896 50.9118 77.6168 48.4733 77.6168 48.4733C77.6168 48.4733 83.09 53.4747 82.9866 57.2059C81.348 54.0451 77.5182 53.8849 75.1559 53.4953C79.5488 55.2004 79.3354 59.246 77.8422 60.2635C79.7676 61.6224 84.0103 58.407 86.3396 57.4236C88.6714 56.4425 88.378 53.8503 89.2491 53.713C90.1183 53.5733 92.5203 53.825 93.0505 55.2414C93.5837 56.6555 97.9304 61.1137 98.6439 62.6656C99.358 64.2146 100.659 66.8415 99.985 66.8116ZM77.8422 33.1878C77.9547 32.4039 77.6168 32.097 77.6168 32.097L78.0653 31.8794C78.0653 31.8794 76.9237 31.2011 76.4987 31.224C76.0738 31.2468 75.3813 31.4416 75.3813 31.4416C75.3813 31.4416 77.4407 32.6562 77.8422 33.1878ZM75.2989 71.9046C75.7804 71.5948 76.0503 71.3977 76.0503 71.3977C76.0503 71.3977 75.8417 71.5948 75.2989 71.9046ZM73.8148 24.6735C73.8857 23.6302 75.8273 22.0536 75.8273 22.0536C75.8273 22.0536 75.9638 24.4992 75.3813 26.8573C75.2238 26.9172 73.8148 24.6735 73.8148 24.6735ZM60.393 27.2927C60.393 27.2927 62.2529 25.9978 66.2094 25.3289C64.3309 24.5725 59.7216 25.5465 59.7216 25.5465C59.7216 25.5465 61.9595 23.784 65.0919 23.5821C68.222 23.3785 68.8934 25.5465 68.8934 25.5465C65.9467 28.1065 60.393 27.2927 60.393 27.2927ZM61.9595 34.2815C61.9595 34.2815 61.5766 37.2194 61.2881 37.9921C58.6439 40.8361 58.6041 42.7959 58.6041 42.7959C58.6041 42.7959 57.0683 38.5378 61.9595 34.2815ZM61.2881 39.3029C61.2881 39.3029 60.2007 46.2477 62.631 49.5646C58.3125 48.0197 59.3433 40.7399 61.2881 39.3029ZM58.1581 28.6041C61.8724 29.2137 67.1039 27.731 67.1039 27.731C65.7189 29.4567 61.2881 32.3147 61.2881 32.3147C61.2881 32.3147 61.3746 32.4133 63.7484 31.8794C61.2622 33.243 58.7544 36.1814 56.3662 40.3943C56.2206 37.6483 57.6224 34.3478 59.947 32.9701C57.9981 33.5182 55.3539 34.4053 54.5771 31.6593C57.7187 33.4882 61.9595 29.6949 61.9595 29.6949C61.9595 29.6949 59.5382 30.2059 58.1581 28.6041ZM44.5127 -3.8147e-05C42.1202 13.9629 54.1306 28.8218 54.1306 28.8218C54.1306 28.8218 51.5904 30.4236 54.1306 35.3723C42.4515 25.5237 36.4353 7.85011 44.5127 -3.8147e-05ZM42.0523 29.4772C42.0523 29.4772 38.3188 24.2698 40.0374 18.7784C40.0374 18.7784 43.7451 29.6562 48.7632 33.6255C43.308 31.4921 42.0523 29.4772 42.0523 29.4772ZM40.2628 41.2674C40.7749 42.8187 42.4985 44.978 42.4985 44.978C42.4985 44.978 37.8818 44.0656 28.4069 40.612C18.9304 37.1601 11.0948 29.5781 10.9583 23.3621C15.7229 30.3573 32.8895 38.4023 40.2628 41.2674ZM33.775 47.3801C24.8148 47.389 15.002 41.1823 12.3012 35.1546C19.3554 39.0072 27.7356 42.5758 27.7356 42.5758C27.7356 42.5758 29.7595 46.4607 33.775 47.3801ZM33.1034 49.3464C33.1034 49.3464 35.1768 52.2619 38.4733 52.8399C31.3139 52.5964 23.5017 53.2659 18.5636 45.4157C26.6012 49.6356 33.1034 49.3464 33.1034 49.3464ZM37.5763 55.0214C37.5763 55.0214 40.1198 56.7083 43.8414 57.4236C35.6161 58.776 28.36 57.3913 24.1571 52.8399C29.5202 55.6657 37.5763 55.0214 37.5763 55.0214ZM35.3414 63.7564C35.3414 63.7564 37.3251 63.4354 44.2873 61.5719C47.5725 61.9181 49.8807 61.7896 49.8807 61.7896C46.3799 64.0339 35.3414 63.7564 35.3414 63.7564ZM59.2755 58.7344C57.296 59.3557 53.8018 60.761 46.7483 60.9165C53.6966 58.3495 57.9326 57.4236 57.9326 57.4236C57.9326 57.4236 58.815 58.4228 59.2755 58.7344ZM54.5771 55.2414C51.9869 56.5569 46.3136 57.0293 38.6969 54.3684C42.3571 54.4646 51.2217 53.4953 51.2217 53.4953C51.2217 53.4953 51.3696 54.545 54.5771 55.2414ZM42.7213 46.2888L45.4077 49.1263C45.4077 49.1263 33.9137 48.634 29.9733 42.7959C42.6487 46.4472 42.7213 46.2888 42.7213 46.2888ZM48.9863 52.4016C37.3535 54.1618 34.6694 49.1263 34.6694 49.1263C34.6694 49.1263 37.8067 50.0023 46.7483 50.22C46.7814 50.5386 48.9863 52.4016 48.9863 52.4016ZM38.4733 94.1049C38.4733 94.1049 32.9435 88.4686 33.1034 84.9346C33.2628 81.4 35.1178 80.1303 35.1178 80.1303C35.1178 80.1303 33.3638 82.0601 34.8924 85.3723C36.4234 88.6816 38.4733 94.1049 38.4733 94.1049ZM41.8269 73.1444C41.8269 73.1444 38.3399 74.5767 37.8018 78.1664C39.9742 75.0308 42.0523 75.5466 42.0523 75.5466C42.0523 75.5466 37.1563 77.5497 38.9199 82.9702C40.6829 88.3906 39.3684 94.3226 39.3684 94.3226C39.3684 94.3226 38.5742 89.344 36.236 85.1523C33.8971 80.9623 37.5763 76.8574 37.5763 76.8574C37.5763 76.8574 31.4787 80.0411 32.4321 85.8077C33.3877 91.5766 42.2026 94.9252 36.6819 103.713C37.8961 99.5506 37.9431 96.9718 34.8924 94.5427C37.1046 99.523 32.8806 101.746 32.8806 101.746C32.8806 101.746 35.8392 97.9253 31.3139 93.8873C26.7893 89.8486 24.5682 85.5096 28.4069 79.6949C32.244 73.8802 41.8269 73.1444 41.8269 73.1444ZM54.5934 90.0892C55.1849 89.1633 58.8174 85.0261 58.1581 79.0395C61.6542 80.8156 58.5662 87.8959 58.1581 89.0829C57.7584 90.2383 60.9569 95.8693 59.9332 97.6254C58.9564 99.3006 59.6207 100.818 59.867 101.148C60.1093 101.473 61.5015 102.775 61.2268 102.991C60.952 103.208 57.2 104.025 56.9908 103.504C56.7797 102.975 57.7138 99.1862 57.1596 97.9118C56.7231 96.9102 54.0037 91.0104 54.5934 90.0892ZM95.5115 65.5032C96.0092 66.2272 95.8872 75.5513 95.5115 76.202C95.1358 76.8503 92.9099 73.4976 92.3815 73.1444C91.8507 72.7912 93.321 71.2422 93.2759 70.3069C92.9219 69.9724 93.2759 67.687 93.2759 67.687C93.2759 67.687 92.3466 67.0821 91.933 66.8116C91.5201 66.5435 89.2659 66.7312 84.5507 65.9385L89.2491 63.3187C91.1486 63.3187 95.0162 64.7785 95.5115 65.5032ZM187.894 63.3187L192.592 65.9385C187.877 66.7312 185.623 66.5435 185.21 66.8116C184.796 67.0821 183.867 67.687 183.867 67.687C183.867 67.687 184.221 69.9724 183.867 70.3069C183.822 71.2422 185.292 72.7912 184.761 73.1444C184.233 73.4976 182.007 76.8503 181.631 76.202C181.255 75.5513 181.133 66.2272 181.631 65.5032C182.127 64.7785 185.994 63.3187 187.894 63.3187ZM217.21 97.6254C216.186 95.8693 219.384 90.2383 218.985 89.0829C218.576 87.8959 215.489 80.8156 218.985 79.0395C218.325 85.0261 221.958 89.1633 222.549 90.0892C223.139 91.0104 220.42 96.9102 219.983 97.9118C219.429 99.1862 220.363 102.975 220.152 103.504C219.943 104.025 216.191 103.208 215.916 102.991C215.641 102.775 217.033 101.473 217.276 101.148C217.522 100.818 218.186 99.3006 217.21 97.6254ZM244.039 84.9346C244.197 88.4686 238.669 94.1049 238.669 94.1049C238.669 94.1049 240.719 88.6816 242.25 85.3723C243.779 82.0601 242.025 80.1303 242.025 80.1303C242.025 80.1303 243.88 81.4 244.039 84.9346ZM239.341 78.1664C238.803 74.5767 235.316 73.1444 235.316 73.1444C235.316 73.1444 244.899 73.8802 248.736 79.6949C252.574 85.5096 250.353 89.8486 245.829 93.8873C241.304 97.9253 244.262 101.746 244.262 101.746C244.262 101.746 240.038 99.523 242.25 94.5427C239.2 96.9718 239.246 99.5506 240.461 103.713C234.94 94.9252 243.755 91.5766 244.711 85.8077C245.664 80.0411 239.566 76.8574 239.566 76.8574C239.566 76.8574 243.246 80.9623 240.907 85.1523C238.568 89.344 237.774 94.3226 237.774 94.3226C237.774 94.3226 236.46 88.3906 238.223 82.9702C239.986 77.5497 235.09 75.5466 235.09 75.5466C235.09 75.5466 237.168 75.0308 239.341 78.1664ZM233.301 57.4236C237.023 56.7083 239.566 55.0214 239.566 55.0214C239.566 55.0214 247.622 55.6657 252.986 52.8399C248.783 57.3913 241.527 58.776 233.301 57.4236ZM238.669 52.8399C241.966 52.2619 244.039 49.3464 244.039 49.3464C244.039 49.3464 250.542 49.6356 258.579 45.4157C253.641 53.2659 245.829 52.5964 238.669 52.8399ZM243.368 47.3801C247.383 46.4607 249.407 42.5758 249.407 42.5758C249.407 42.5758 257.787 39.0072 264.841 35.1546C262.141 41.1823 252.326 47.389 243.368 47.3801ZM266.184 23.3621C266.048 29.5781 258.212 37.1601 248.736 40.612C239.261 44.0656 234.644 44.978 234.644 44.978C234.644 44.978 236.368 42.8187 236.88 41.2674C244.253 38.4023 261.42 30.3573 266.184 23.3621ZM247.169 42.7959C243.229 48.634 231.735 49.1263 231.735 49.1263L234.421 46.2888C234.421 46.2888 234.494 46.4472 247.169 42.7959ZM242.473 49.1263C242.473 49.1263 239.789 54.1618 228.156 52.4016C228.156 52.4016 230.361 50.5386 230.394 50.22C239.336 50.0023 242.473 49.1263 242.473 49.1263ZM225.921 53.4953C225.921 53.4953 234.786 54.4646 238.446 54.3684C230.829 57.0293 225.156 56.5569 222.565 55.2414C225.773 54.545 225.921 53.4953 225.921 53.4953ZM241.801 63.7564C241.801 63.7564 230.763 64.0339 227.262 61.7896C227.262 61.7896 229.57 61.9181 232.855 61.5719C239.818 63.4354 241.801 63.7564 241.801 63.7564ZM219.21 57.4236C219.21 57.4236 223.446 58.3495 230.394 60.9165C223.341 60.761 219.847 59.3557 217.867 58.7344C218.328 58.4228 219.21 57.4236 219.21 57.4236Z" fill="url(#paint2_linear_129_1618)"/>
</g>
<path d="M1.36768 193.12V193.56H13.2586V193.12C11.2765 193.12 10.0202 191.717 10.0202 190.044V178.479H12.8101L20.8288 193.56H29.9233V193.12C27.9413 193.12 25.8277 191.937 25.0132 190.44L18.4383 177.953C22.9424 176.897 25.1515 174.3 25.1515 170.614C25.1515 165.907 21.5051 162.787 13.3546 162.787H1.36768V163.225C3.35207 163.225 4.61488 164.63 4.61488 166.303V190.044C4.61488 191.717 3.35207 193.12 1.36768 193.12ZM10.0202 177.598V163.665H12.2725C16.7762 163.665 19.5209 166.438 19.5209 170.614C19.5209 174.96 16.5952 177.598 12.2725 177.598H10.0202ZM36.4976 163.225C38.482 163.225 39.7455 164.63 39.7455 166.303V190.044C39.7455 191.717 38.482 193.12 36.4976 193.12V193.56H57.7177L57.8469 192.764L58.7065 187.05L58.0303 186.965C57.5367 190.399 55.0151 192.68 52.4441 192.68H45.1506V175.975H49.0225C51.0916 175.975 52.8078 177.818 52.8078 180.727H53.3434V170.344H52.8078C52.8078 173.252 51.0916 175.095 49.0225 175.095H45.1506V163.665H51.9932C54.5642 163.665 57.0858 165.948 57.5794 169.382L58.2557 169.297L57.3984 163.58L57.2669 162.787H36.4976V163.225ZM91.1759 168.146C91.1759 166.303 89.4711 162.347 81.7179 162.347C73.0744 162.347 66.7699 168.637 66.7699 178.13C66.7699 187.321 72.7108 194 81.7179 194C86.7168 194 90.995 191.843 93.6531 188.148V183.447C93.6531 181.774 94.4237 180.372 95.5929 180.372V179.931H83.7022V180.372C86.4914 180.372 88.2503 181.774 88.2503 183.447V191.32C87.0811 191.843 85.8151 192.107 84.6039 192.107C78.0288 192.107 73.4808 186.965 72.5298 177.648C71.541 168.637 74.6945 163.225 82.3521 163.225C86.7685 163.225 84.2396 164.985 84.2396 168.502C84.2396 170.394 85.8151 171.934 87.7549 171.934C89.6424 171.934 91.1759 170.564 91.1759 168.146ZM101.987 162.787V163.225C103.969 163.225 105.234 164.63 105.234 166.303V190.044C105.234 191.717 103.969 193.12 101.987 193.12V193.56H113.878V193.12C111.893 193.12 110.639 191.717 110.639 190.044V166.303C110.639 164.63 111.893 163.225 113.878 163.225V162.787H101.987ZM124.376 166.303V184.724C124.376 190.085 128.516 194 136.034 194C142.703 194 146.444 190.264 146.444 184.724V166.303C146.444 164.63 147.7 163.225 149.684 163.225V162.787H142.294V163.225C144.279 163.225 145.545 164.63 145.545 166.303V184.724C145.545 189.248 142.616 193.035 137.072 193.035C132.482 193.035 129.779 190.346 129.779 184.724V166.303C129.779 164.63 131.035 163.225 133.02 163.225V162.787H121.126V163.225C123.11 163.225 124.376 164.63 124.376 166.303ZM162.155 167.184C162.155 164.985 164.052 163.225 167.969 163.225C170.401 163.225 170.991 163.665 170.991 164.502C170.991 165.382 169.908 166.7 169.908 168.502C169.908 170.743 171.935 171.934 173.865 171.934C175.762 171.934 177.296 170.564 177.296 168.146C177.296 166.303 175.581 162.347 167.838 162.347C162.477 162.347 157.876 164.587 157.876 169.382C157.876 178.215 173.736 181.167 173.736 187.321C173.736 190.22 171.667 192.68 167.838 192.68C163.014 192.68 159.004 190.525 156.891 187.541L155.902 188.148C158.778 191.887 162.831 194 167.838 194C174.593 194 178.465 190.179 178.465 185.865C178.465 176.812 162.155 173.692 162.155 167.184ZM186.077 162.787V163.225C188.052 163.225 189.318 164.63 189.318 166.303V190.044C189.318 191.717 188.052 193.12 186.077 193.12V193.56H207.29L207.419 192.764L208.277 187.05L207.603 186.965C207.107 190.399 204.588 192.68 202.014 192.68H194.723V166.303C194.723 164.63 195.987 163.225 197.961 163.225V162.787H186.077ZM243.632 193.12C241.65 193.12 239.76 191.843 239.173 190.264L228.909 162.787H228.008L218.55 190.22C218.005 191.802 216.159 193.12 214.175 193.12V193.56H221.564V193.12C219.581 193.12 218.904 191.802 219.451 190.22L222.828 180.372H229.628L233.317 190.264C233.906 191.843 233.275 193.12 231.29 193.12V193.56H243.632V193.12ZM223.14 179.491L226.068 170.961L229.264 179.491H223.14ZM250.12 193.12V193.56H263.45C271.375 193.56 275.254 190.44 275.254 185.563C275.254 181.554 272.638 178.614 266.827 177.818C270.976 176.677 273.003 174.133 273.003 170.614C273.003 165.907 269.349 162.787 261.198 162.787H250.12V163.225C252.104 163.225 253.36 164.63 253.36 166.303V190.044C253.36 191.717 252.104 193.12 250.12 193.12ZM258.763 192.68V178.479H262.368C266.872 178.479 269.626 181.385 269.626 185.563C269.626 189.909 266.697 192.68 262.368 192.68H258.763ZM258.763 177.598V163.665H260.116C264.619 163.665 267.374 166.438 267.374 170.614C267.374 174.96 264.446 177.598 260.116 177.598H258.763Z" fill="white"/>
<path d="M121.302 104.692V105.239H136.166V104.692C133.689 104.692 132.113 102.931 132.113 100.843V86.3874H135.602L145.624 105.239H156.996V104.692C154.518 104.692 151.877 103.202 150.856 101.334L142.644 85.7367C148.266 84.4095 151.03 81.1712 151.03 76.5552C151.03 70.6783 146.465 66.7729 136.279 66.7729H121.302V67.3227C123.78 67.3227 125.358 69.0806 125.358 71.1688V100.843C125.358 102.931 123.78 104.692 121.302 104.692ZM132.113 85.2872V67.873H134.929C140.557 67.873 143.996 71.329 143.996 76.5552C143.996 81.9915 140.331 85.2872 134.929 85.2872H132.113Z" fill="white"/>
<defs>
<linearGradient id="paint0_linear_129_1618" x1="80.5457" y1="78.4837" x2="196.593" y2="78.4837" gradientUnits="userSpaceOnUse">
<stop stop-color="#604212"/>
<stop offset="0.5201" stop-color="#AF7B20"/>
<stop offset="0.994975" stop-color="#604212"/>
<stop offset="1" stop-color="#604212"/>
</linearGradient>
<linearGradient id="paint1_linear_129_1618" x1="-0.0015914" y1="82.0966" x2="277.143" y2="82.0966" gradientUnits="userSpaceOnUse">
<stop stop-color="#604212"/>
<stop offset="0.183417" stop-color="#D7AC45"/>
<stop offset="0.354271" stop-color="#AF7B20"/>
<stop offset="0.417085" stop-color="#604212"/>
<stop offset="0.650754" stop-color="#AF7B20"/>
<stop offset="0.841708" stop-color="#D7AC45"/>
<stop offset="0.994975" stop-color="#604212"/>
<stop offset="1" stop-color="#604212"/>
</linearGradient>
<linearGradient id="paint2_linear_129_1618" x1="7.84831" y1="53.3183" x2="269.293" y2="53.3183" gradientUnits="userSpaceOnUse">
<stop stop-color="#604212"/>
<stop offset="0.113065" stop-color="#AF7B20"/>
<stop offset="0.273869" stop-color="#EFCA5A"/>
<stop offset="0.379397" stop-color="#AF7B20"/>
<stop offset="0.650754" stop-color="#AF7B20"/>
<stop offset="0.761307" stop-color="#EFCA5A"/>
<stop offset="0.896985" stop-color="#D7AC45"/>
<stop offset="0.994975" stop-color="#604212"/>
<stop offset="1" stop-color="#604212"/>
</linearGradient>
</defs>
</svg>
