<svg width="40" height="41" viewBox="0 0 40 41" fill="none" xmlns="http://www.w3.org/2000/svg">
<path d="M19.6667 0.666992C8.62675 0.666992 -0.333252 9.62699 -0.333252 20.667C-0.333252 31.707 8.62675 40.667 19.6667 40.667C30.7067 40.667 39.6667 31.707 39.6667 20.667C39.6667 9.62699 30.7067 0.666992 19.6667 0.666992ZM28.9467 14.267C28.6467 17.427 27.3467 25.107 26.6867 28.647C26.4067 30.147 25.8467 30.647 25.3267 30.707C24.1667 30.807 23.2867 29.947 22.1667 29.207C20.4067 28.047 19.4067 27.327 17.7067 26.207C15.7267 24.907 17.0067 24.187 18.1467 23.027C18.4467 22.727 23.5667 18.067 23.6667 17.647C23.6806 17.5834 23.6788 17.5173 23.6614 17.4546C23.6439 17.3919 23.6115 17.3343 23.5667 17.287C23.4467 17.187 23.2867 17.227 23.1467 17.247C22.9667 17.287 20.1667 19.147 14.7067 22.827C13.9067 23.367 13.1867 23.647 12.5467 23.627C11.8267 23.607 10.4667 23.227 9.44675 22.887C8.18675 22.487 7.20675 22.267 7.28675 21.567C7.32675 21.207 7.82675 20.847 8.76675 20.467C14.6067 17.927 18.4867 16.247 20.4267 15.447C25.9867 13.127 27.1267 12.727 27.8867 12.727C28.0467 12.727 28.4267 12.767 28.6667 12.967C28.8667 13.127 28.9267 13.347 28.9467 13.507C28.9267 13.627 28.9667 13.987 28.9467 14.267Z" fill="#AF7B20"/>
</svg>
